# rounded rectangular prism, metres
v -0.006 0.04 0.06
v -0.006 0.03996577945 0.06052210477
v -0.006 0.03986370331 0.06103527618
v -0.006 0.03969551813 0.06153073373
v -0.006 0.03946410162 0.062
v -0.006 0.03917341336 0.06243504572
v -0.006 0.03882842712 0.06282842712
v -0.006 0.03843504572 0.06317341336
v -0.006 0.038 0.06346410162
v -0.006 0.03753073373 0.06369551813
v -0.006 0.03703527618 0.06386370331
v -0.006 0.03652210477 0.06396577945
v -0.006 0.036 0.064
v -0.006 -0.036 0.064
v -0.006 -0.03652210477 0.06396577945
v -0.006 -0.03703527618 0.06386370331
v -0.006 -0.03753073373 0.06369551813
v -0.006 -0.038 0.06346410162
v -0.006 -0.03843504572 0.06317341336
v -0.006 -0.03882842712 0.06282842712
v -0.006 -0.03917341336 0.06243504572
v -0.006 -0.03946410162 0.062
v -0.006 -0.03969551813 0.06153073373
v -0.006 -0.03986370331 0.06103527618
v -0.006 -0.03996577945 0.06052210477
v -0.006 -0.04 0.06
v -0.006 -0.04 -0.06
v -0.006 -0.03996577945 -0.06052210477
v -0.006 -0.03986370331 -0.06103527618
v -0.006 -0.03969551813 -0.06153073373
v -0.006 -0.03946410162 -0.062
v -0.006 -0.03917341336 -0.06243504572
v -0.006 -0.03882842712 -0.06282842712
v -0.006 -0.03843504572 -0.06317341336
v -0.006 -0.038 -0.06346410162
v -0.006 -0.03753073373 -0.06369551813
v -0.006 -0.03703527618 -0.06386370331
v -0.006 -0.03652210477 -0.06396577945
v -0.006 -0.036 -0.064
v -0.006 0.036 -0.064
v -0.006 0.03652210477 -0.06396577945
v -0.006 0.03703527618 -0.06386370331
v -0.006 0.03753073373 -0.06369551813
v -0.006 0.038 -0.06346410162
v -0.006 0.03843504572 -0.06317341336
v -0.006 0.03882842712 -0.06282842712
v -0.006 0.03917341336 -0.06243504572
v -0.006 0.03946410162 -0.062
v -0.006 0.03969551813 -0.06153073373
v -0.006 0.03986370331 -0.06103527618
v -0.006 0.03996577945 -0.06052210477
v -0.006 0.04 -0.06
v 0.006 0.04 0.06
v 0.006 0.03996577945 0.06052210477
v 0.006 0.03986370331 0.06103527618
v 0.006 0.03969551813 0.06153073373
v 0.006 0.03946410162 0.062
v 0.006 0.03917341336 0.06243504572
v 0.006 0.03882842712 0.06282842712
v 0.006 0.03843504572 0.06317341336
v 0.006 0.038 0.06346410162
v 0.006 0.03753073373 0.06369551813
v 0.006 0.03703527618 0.06386370331
v 0.006 0.03652210477 0.06396577945
v 0.006 0.036 0.064
v 0.006 -0.036 0.064
v 0.006 -0.03652210477 0.06396577945
v 0.006 -0.03703527618 0.06386370331
v 0.006 -0.03753073373 0.06369551813
v 0.006 -0.038 0.06346410162
v 0.006 -0.03843504572 0.06317341336
v 0.006 -0.03882842712 0.06282842712
v 0.006 -0.03917341336 0.06243504572
v 0.006 -0.03946410162 0.062
v 0.006 -0.03969551813 0.06153073373
v 0.006 -0.03986370331 0.06103527618
v 0.006 -0.03996577945 0.06052210477
v 0.006 -0.04 0.06
v 0.006 -0.04 -0.06
v 0.006 -0.03996577945 -0.06052210477
v 0.006 -0.03986370331 -0.06103527618
v 0.006 -0.03969551813 -0.06153073373
v 0.006 -0.03946410162 -0.062
v 0.006 -0.03917341336 -0.06243504572
v 0.006 -0.03882842712 -0.06282842712
v 0.006 -0.03843504572 -0.06317341336
v 0.006 -0.038 -0.06346410162
v 0.006 -0.03753073373 -0.06369551813
v 0.006 -0.03703527618 -0.06386370331
v 0.006 -0.03652210477 -0.06396577945
v 0.006 -0.036 -0.064
v 0.006 0.036 -0.064
v 0.006 0.03652210477 -0.06396577945
v 0.006 0.03703527618 -0.06386370331
v 0.006 0.03753073373 -0.06369551813
v 0.006 0.038 -0.06346410162
v 0.006 0.03843504572 -0.06317341336
v 0.006 0.03882842712 -0.06282842712
v 0.006 0.03917341336 -0.06243504572
v 0.006 0.03946410162 -0.062
v 0.006 0.03969551813 -0.06153073373
v 0.006 0.03986370331 -0.06103527618
v 0.006 0.03996577945 -0.06052210477
v 0.006 0.04 -0.06
f 26 27 78
f 78 27 79
f 39 40 91
f 91 40 92
f 13 14 65
f 65 14 66
f 104 52 1
f 1 53 104
f 1 2 54
f 54 53 1
f 2 3 54
f 54 3 55
f 4 5 56
f 56 5 57
f 56 3 4
f 55 3 56
f 50 51 103
f 102 50 103
f 52 104 103
f 103 51 52
f 7 8 60
f 60 59 7
f 10 11 63
f 62 10 63
f 72 71 19
f 20 72 19
f 96 43 44
f 95 43 96
f 94 43 95
f 42 43 94
f 97 96 45
f 45 96 44
f 98 45 46
f 97 45 98
f 46 47 98
f 98 47 99
f 99 47 100
f 100 47 48
f 30 31 82
f 82 31 83
f 82 29 30
f 82 81 29
f 79 27 80
f 27 28 80
f 80 28 29
f 29 81 80
f 57 5 58
f 5 6 58
f 58 6 7
f 7 59 58
f 61 9 10
f 61 10 62
f 8 9 61
f 61 60 8
f 13 65 64
f 64 12 13
f 11 12 64
f 64 63 11
f 66 14 67
f 14 15 67
f 67 15 16
f 16 68 67
f 73 72 20
f 20 21 73
f 21 22 73
f 73 22 74
f 75 22 23
f 74 22 75
f 23 24 75
f 24 76 75
f 26 78 77
f 77 25 26
f 24 25 77
f 77 76 24
f 92 40 93
f 40 41 93
f 93 41 42
f 42 94 93
f 101 49 50
f 101 50 102
f 48 49 101
f 101 100 48
f 87 35 36
f 87 36 88
f 37 89 88
f 88 36 37
f 69 16 17
f 69 68 16
f 83 31 84
f 31 32 84
f 84 32 33
f 33 85 84
f 33 34 86
f 86 85 33
f 34 35 86
f 35 87 86
f 38 27 26
f 1 52 38
f 38 28 27
f 38 40 39
f 38 41 40
f 38 2 1
f 38 8 7
f 10 9 38
f 38 14 13
f 23 22 38
f 7 6 38
f 13 12 38
f 33 32 38
f 4 3 38
f 38 34 33
f 26 25 38
f 38 49 48
f 52 51 38
f 38 11 10
f 38 5 4
f 20 19 38
f 38 15 14
f 30 29 38
f 38 21 20
f 38 45 44
f 50 49 38
f 38 51 50
f 38 9 8
f 38 12 11
f 38 3 2
f 38 24 23
f 17 16 38
f 29 28 38
f 42 41 38
f 44 43 38
f 48 47 38
f 38 31 30
f 38 6 5
f 38 25 24
f 16 15 38
f 36 35 38
f 38 18 17
f 38 43 42
f 46 45 38
f 38 47 46
f 38 35 34
f 19 18 38
f 38 22 21
f 38 32 31
f 38 37 36
f 39 91 38
f 91 90 38
f 38 90 89
f 89 37 38
f 70 65 66
f 70 104 53
f 70 78 79
f 70 64 65
f 102 103 70
f 70 91 92
f 70 56 57
f 57 58 70
f 70 101 102
f 97 98 70
f 70 82 83
f 53 54 70
f 62 63 70
f 70 96 97
f 92 93 70
f 79 80 70
f 70 54 55
f 55 56 70
f 70 71 72
f 66 67 70
f 74 75 70
f 70 77 78
f 88 89 70
f 70 90 91
f 70 103 104
f 59 60 70
f 70 61 62
f 70 87 88
f 72 73 70
f 95 96 70
f 70 94 95
f 70 98 99
f 99 100 70
f 85 86 70
f 89 90 70
f 81 82 70
f 70 80 81
f 70 58 59
f 60 61 70
f 63 64 70
f 70 67 68
f 70 73 74
f 70 75 76
f 76 77 70
f 70 93 94
f 100 101 70
f 83 84 70
f 68 69 70
f 70 84 85
f 70 86 87
f 70 19 71
f 70 18 19
f 17 18 70
f 70 69 17
