# https://github.com/mikedh/trimesh
v 0.03500000 -0.03760000 0.12360000
v 0.03500000 -0.03760000 0.12565849
v 0.03500000 -0.03753073 0.12569552
v 0.03500000 -0.03678036 0.12592314
v 0.03500000 -0.03600000 0.12600000
v 0.03500000 -0.03400000 0.12360000
v 0.03500000 -0.03400000 0.12600000
v 0.03617054 -0.03400000 0.12588471
v 0.03860000 -0.03760000 0.12360000
v 0.03860000 -0.03760000 0.12565849
v 0.03860000 -0.03753073 0.12569552
v 0.03860000 -0.03678036 0.12592314
v 0.03860000 -0.03600000 0.12600000
v 0.03860000 -0.03400000 0.12360000
v 0.03860000 -0.03521964 0.12592314
v 0.03860000 -0.03446927 0.12569552
v 0.03860000 -0.03400000 0.12544469
f 2 6 1
f 9 2 1
f 6 9 1
f 4 2 3
f 2 4 5
f 7 2 5
f 2 11 3
f 11 4 3
f 13 5 4
f 6 2 7
f 7 5 13
f 17 6 7
f 8 7 15
f 17 7 8
f 2 9 10
f 11 2 10
f 4 11 12
f 13 4 12
f 9 11 10
f 11 13 12
f 9 17 11
f 11 16 13
f 9 6 14
f 6 17 14
f 17 9 14
f 7 13 15
f 11 17 16
f 13 16 15
f 16 8 15
f 16 17 8

