# https://github.com/mikedh/trimesh
v 0.03860000 -0.03944469 0.12000000
v 0.03860000 -0.03969552 0.12046927
v 0.03860000 -0.03992314 0.12121964
v 0.03860000 -0.04000000 0.12200000
v 0.03860000 -0.03992314 0.12278036
v 0.03860000 -0.03969552 0.12353073
v 0.03860000 -0.03965849 0.12360000
v 0.03860000 -0.03760000 0.12000000
v 0.03860000 -0.03760000 0.12360000
v 0.04100000 -0.03944469 0.12000000
v 0.04100000 -0.03969552 0.12046927
v 0.04100000 -0.03992314 0.12121964
v 0.04100000 -0.04000000 0.12200000
v 0.04100000 -0.03992314 0.12278036
v 0.04100000 -0.03969552 0.12353073
v 0.04100000 -0.03965849 0.12360000
v 0.04100000 -0.03760000 0.12000000
v 0.04100000 -0.03760000 0.12360000
f 3 1 2
f 4 1 3
f 7 8 1
f 1 10 2
f 3 2 12
f 4 3 13
f 10 1 8
f 7 1 4
f 7 4 5
f 7 5 6
f 4 13 5
f 5 15 6
f 15 7 6
f 8 7 9
f 7 18 9
f 18 8 9
f 12 2 11
f 2 10 11
f 13 3 12
f 10 12 11
f 10 13 12
f 5 13 14
f 15 5 14
f 7 15 16
f 18 7 16
f 10 15 13
f 13 15 14
f 10 18 15
f 15 18 16
f 10 8 17
f 8 18 17
f 18 10 17

