# https://github.com/mikedh/trimesh
v 0.03500000 -0.03733342 0.04701118
v 0.03500000 -0.03629610 0.04645672
v 0.03625076 -0.03645345 0.04666931
v 0.03500000 -0.03760000 0.04722996
v 0.03500000 -0.03760000 0.04840000
v 0.03617266 -0.03760000 0.04735975
v 0.03627168 -0.03760000 0.04737538
v 0.03630037 -0.03760000 0.04738597
v 0.03500000 -0.03517054 0.04611529
v 0.03500000 -0.03400000 0.04600000
v 0.03621401 -0.03521401 0.04625088
v 0.03617054 -0.03400000 0.04611529
v 0.03500000 -0.03400000 0.04840000
v 0.03761886 -0.03760000 0.04802094
v 0.03757860 -0.03657860 0.04723537
v 0.03784158 -0.03760000 0.04818574
v 0.03805584 -0.03760000 0.04840000
v 0.03860000 -0.03705584 0.04840000
v 0.03860000 -0.03684158 0.04818574
v 0.03860000 -0.03661886 0.04802094
v 0.03745345 -0.03525076 0.04666931
v 0.03729610 -0.03400000 0.04645672
v 0.03833342 -0.03400000 0.04701118
v 0.03860000 -0.03530037 0.04738597
v 0.03860000 -0.03527168 0.04737538
v 0.03860000 -0.03517266 0.04735975
v 0.03860000 -0.03400000 0.04722996
v 0.03860000 -0.03400000 0.04840000
f 6 1 3
f 1 10 2
f 11 3 2
f 1 2 3
f 5 10 1
f 7 6 3
f 3 15 7
f 4 1 6
f 5 1 4
f 7 4 6
f 14 4 7
f 7 15 8
f 14 7 8
f 17 5 4
f 5 18 13
f 11 2 9
f 9 2 10
f 10 12 9
f 12 11 9
f 11 21 3
f 10 22 12
f 22 11 12
f 10 5 13
f 10 13 27
f 21 15 3
f 15 14 8
f 4 14 17
f 18 5 17
f 16 14 15
f 17 14 16
f 16 15 19
f 18 17 16
f 18 16 19
f 20 18 19
f 15 24 20
f 15 20 19
f 24 18 20
f 21 11 22
f 10 27 22
f 21 22 23
f 15 21 25
f 21 26 25
f 26 21 23
f 27 23 22
f 13 18 28
f 27 13 28
f 24 15 25
f 27 18 24
f 25 26 24
f 18 27 28
f 27 24 26
f 27 26 23

