# https://github.com/mikedh/trimesh
v -0.00600000 0.00000000 0.00200000
v -0.00600000 0.00000000 0.00300000
v -0.00600000 0.00600000 0.00200000
v -0.00600000 0.00598079 0.00219509
v -0.00600000 0.00592388 0.00238268
v -0.00600000 0.00583147 0.00255557
v -0.00600000 0.00570711 0.00270711
v -0.00600000 0.00500000 0.00300000
v -0.00600000 0.00519509 0.00298079
v -0.00600000 0.00555557 0.00283147
v -0.00600000 0.00538268 0.00292388
v -0.00120000 0.00000000 0.00200000
v 0.00000000 0.00120000 0.00200000
v -0.00120000 0.00000000 0.00300000
v 0.00000000 0.00120000 0.00300000
v 0.00000000 0.00600000 0.00200000
v 0.00000000 0.00598079 0.00219509
v 0.00000000 0.00592388 0.00238268
v 0.00000000 0.00583147 0.00255557
v 0.00000000 0.00570711 0.00270711
v 0.00000000 0.00500000 0.00300000
v 0.00000000 0.00519509 0.00298079
v 0.00000000 0.00555557 0.00283147
v 0.00000000 0.00538268 0.00292388
f 2 3 1
f 3 13 1
f 2 1 14
f 3 5 4
f 3 7 5
f 16 3 4
f 5 18 4
f 18 5 6
f 3 2 9
f 9 2 8
f 7 6 5
f 3 9 7
f 7 9 10
f 10 9 11
f 2 21 8
f 7 20 6
f 7 10 20
f 21 9 8
f 10 11 23
f 9 22 11
f 1 13 12
f 14 1 12
f 13 14 12
f 2 14 21
f 14 13 15
f 13 21 15
f 21 14 15
f 13 3 16
f 16 4 17
f 4 18 17
f 18 6 19
f 22 13 16
f 18 16 17
f 20 16 18
f 6 20 19
f 22 9 21
f 20 10 23
f 23 11 24
f 11 22 24
f 22 21 13
f 20 18 19
f 22 16 20
f 22 20 23
f 22 23 24

