# https://github.com/mikedh/trimesh
v -0.03762462 -0.03527168 0.12360000
v -0.03764025 -0.03517266 0.12360000
v -0.03761403 -0.03530037 0.12360000
v -0.03761070 -0.03527209 0.12362260
v -0.03777004 -0.03400000 0.12360000
v -0.03724264 -0.03400000 0.12424264
v -0.03697906 -0.03661886 0.12360000
v -0.03681426 -0.03684158 0.12360000
v -0.03681426 -0.03662731 0.12381426
v -0.03660000 -0.03705584 0.12360000
v -0.03660000 -0.03684158 0.12381426
v -0.03660000 -0.03661886 0.12397906
v -0.03660000 -0.03400000 0.12360000
v -0.03662260 -0.03527209 0.12461070
v -0.03660000 -0.03530037 0.12461403
v -0.03660000 -0.03527168 0.12462462
v -0.03660000 -0.03517266 0.12464025
v -0.03660000 -0.03400000 0.12477004
f 4 3 9
f 2 3 1
f 4 2 1
f 5 3 2
f 4 5 2
f 3 4 1
f 5 4 6
f 5 10 3
f 18 5 6
f 7 3 10
f 3 7 9
f 14 4 9
f 9 7 8
f 7 10 8
f 10 9 8
f 9 10 11
f 10 12 11
f 12 9 11
f 10 15 12
f 12 15 9
f 15 14 9
f 10 5 13
f 4 14 6
f 5 18 13
f 18 10 13
f 10 18 15
f 14 15 16
f 15 17 16
f 17 14 16
f 18 14 17
f 15 18 17
f 18 6 14

