# https://github.com/mikedh/trimesh
v -0.03900000 -0.00600000 0.12000000
v -0.03888471 -0.00600000 0.12117054
v -0.03854328 -0.00600000 0.12229610
v -0.03798882 -0.00600000 0.12333342
v -0.03900000 0.00000000 0.12000000
v -0.03888471 0.00000000 0.12117054
v -0.03854328 0.00000000 0.12229610
v -0.03798882 0.00000000 0.12333342
v -0.03660000 -0.00600000 0.12000000
v -0.03777004 -0.00600000 0.12360000
v -0.03660000 -0.00600000 0.12360000
v -0.03660000 0.00000000 0.12000000
v -0.03777004 0.00000000 0.12360000
v -0.03660000 0.00000000 0.12360000
f 1 3 2
f 6 1 2
f 3 6 2
f 5 9 1
f 1 10 3
f 4 3 10
f 8 3 4
f 10 13 4
f 5 1 6
f 8 5 6
f 6 3 7
f 8 6 7
f 3 8 7
f 13 8 4
f 14 5 8
f 10 1 9
f 10 9 11
f 9 14 11
f 14 10 11
f 9 5 12
f 5 14 12
f 14 9 12
f 10 14 13
f 14 8 13

