# https://github.com/mikedh/trimesh
v 0.03860000 0.03760000 0.04894416
v 0.03860000 0.03781426 0.04915842
v 0.03881426 0.03760000 0.04915842
v 0.03881426 0.03781426 0.04937269
v 0.03860000 0.03797906 0.04938114
v 0.03897906 0.03760000 0.04938114
v 0.03860000 0.03760000 0.05200000
v 0.03860000 0.03861403 0.05069963
v 0.03862260 0.03861070 0.05072791
v 0.03860000 0.03862462 0.05072832
v 0.03860000 0.03864025 0.05082734
v 0.03860000 0.03877004 0.05200000
v 0.03961403 0.03760000 0.05069963
v 0.03961070 0.03762260 0.05072791
v 0.03962462 0.03760000 0.05072832
v 0.03964025 0.03760000 0.05082734
v 0.03977004 0.03760000 0.05200000
v 0.03924264 0.03824264 0.05200000
f 4 1 2
f 1 4 3
f 1 5 2
f 5 4 2
f 6 1 3
f 4 6 3
f 1 8 5
f 5 8 4
f 6 13 1
f 13 6 4
f 9 14 4
f 12 1 7
f 1 17 7
f 18 14 9
f 17 12 7
f 8 9 4
f 1 12 8
f 9 8 10
f 8 11 10
f 11 9 10
f 8 12 11
f 12 9 11
f 12 18 9
f 14 13 4
f 17 1 13
f 13 14 15
f 14 18 16
f 16 13 15
f 14 16 15
f 17 13 16
f 18 17 16
f 12 17 18

