# https://github.com/mikedh/trimesh
v 0.03200000 -0.03400000 0.12000000
v 0.03200000 -0.03400000 0.12360000
v 0.03200000 -0.03255531 0.12000000
v 0.03200000 -0.03230448 0.12046927
v 0.03200000 -0.03207686 0.12121964
v 0.03200000 -0.03200000 0.12200000
v 0.03200000 -0.03234151 0.12360000
v 0.03200000 -0.03230448 0.12353073
v 0.03200000 -0.03207686 0.12278036
v 0.03500000 -0.03400000 0.12000000
v 0.03500000 -0.03400000 0.12360000
v 0.03500000 -0.03255531 0.12000000
v 0.03500000 -0.03230448 0.12046927
v 0.03500000 -0.03207686 0.12121964
v 0.03500000 -0.03200000 0.12200000
v 0.03500000 -0.03234151 0.12360000
v 0.03500000 -0.03230448 0.12353073
v 0.03500000 -0.03207686 0.12278036
f 2 4 1
f 10 1 3
f 10 2 1
f 3 1 4
f 4 6 5
f 4 13 3
f 14 4 5
f 6 14 5
f 4 2 7
f 4 7 6
f 6 7 9
f 9 7 8
f 2 16 7
f 18 6 9
f 7 17 8
f 17 9 8
f 10 3 12
f 2 10 11
f 16 2 11
f 10 16 11
f 3 13 12
f 13 4 14
f 15 14 6
f 13 10 12
f 16 10 13
f 15 13 14
f 15 6 18
f 7 16 17
f 18 9 17
f 16 13 15
f 16 15 18
f 16 18 17

