# https://github.com/mikedh/trimesh
v 0.03860000 0.03400000 0.12360000
v 0.03860000 0.03400000 0.12544469
v 0.03860000 0.03446927 0.12569552
v 0.03860000 0.03521964 0.12592314
v 0.03860000 0.03760000 0.12360000
v 0.03860000 0.03600000 0.12600000
v 0.03860000 0.03678036 0.12592314
v 0.03860000 0.03753073 0.12569552
v 0.03860000 0.03760000 0.12565849
v 0.04100000 0.03400000 0.12360000
v 0.04100000 0.03400000 0.12544469
v 0.04100000 0.03446927 0.12569552
v 0.04100000 0.03521964 0.12592314
v 0.04100000 0.03760000 0.12360000
v 0.04100000 0.03600000 0.12600000
v 0.04100000 0.03678036 0.12592314
v 0.04100000 0.03753073 0.12569552
v 0.04100000 0.03760000 0.12565849
f 2 5 1
f 10 2 1
f 5 10 1
f 4 2 3
f 6 2 4
f 2 12 3
f 12 4 3
f 13 6 4
f 5 2 8
f 8 2 6
f 5 8 9
f 8 6 7
f 7 6 15
f 18 5 9
f 16 8 7
f 8 18 9
f 2 10 11
f 2 11 12
f 13 4 12
f 15 6 13
f 11 13 12
f 10 17 11
f 11 15 13
f 10 5 14
f 18 14 5
f 17 10 14
f 15 16 7
f 8 17 18
f 17 8 16
f 15 11 17
f 17 14 18
f 15 17 16

