# https://github.com/mikedh/trimesh
v 0.03860000 -0.03760000 0.05800000
v 0.03977004 -0.03760000 0.05800000
v 0.03860000 -0.03760000 0.06200000
v 0.03977004 -0.03760000 0.06200000
v 0.03860000 -0.03400000 0.05800000
v 0.03860000 -0.03400000 0.06200000
v 0.03998882 -0.03733342 0.05800000
v 0.04054328 -0.03629610 0.05800000
v 0.03998882 -0.03733342 0.06200000
v 0.04054328 -0.03629610 0.06200000
v 0.04088471 -0.03517054 0.05800000
v 0.04100000 -0.03400000 0.05800000
v 0.04088471 -0.03517054 0.06200000
v 0.04100000 -0.03400000 0.06200000
f 5 7 1
f 3 5 1
f 1 7 2
f 4 1 2
f 3 1 4
f 4 9 3
f 5 3 6
f 3 14 6
f 14 5 6
f 7 4 2
f 9 7 8
f 12 8 7
f 7 9 4
f 9 8 10
f 14 3 9
f 13 10 8
f 14 9 10
f 5 12 7
f 14 12 5
f 8 12 11
f 8 11 13
f 12 14 11
f 14 10 13
f 11 14 13

