# https://github.com/mikedh/trimesh
v -0.03660000 0.02700000 0.12360000
v -0.03660000 0.02700000 0.12477004
v -0.03633342 0.02700000 0.12498882
v -0.03529610 0.02700000 0.12554328
v -0.03660000 0.03000000 0.12360000
v -0.03660000 0.03000000 0.12477004
v -0.03633342 0.03000000 0.12498882
v -0.03529610 0.03000000 0.12554328
v -0.03300000 0.02700000 0.12360000
v -0.03417054 0.02700000 0.12588471
v -0.03300000 0.02700000 0.12600000
v -0.03300000 0.03000000 0.12360000
v -0.03417054 0.03000000 0.12588471
v -0.03300000 0.03000000 0.12600000
f 1 3 2
f 5 1 2
f 3 7 2
f 11 3 1
f 3 10 4
f 8 3 4
f 10 8 4
f 5 2 6
f 7 5 6
f 5 12 1
f 2 7 6
f 8 7 3
f 14 5 7
f 14 7 8
f 11 1 9
f 1 12 9
f 12 11 9
f 3 11 10
f 11 14 10
f 12 5 14
f 8 10 13
f 14 8 13
f 11 12 14
f 10 14 13

