# https://github.com/mikedh/trimesh
v 0.03500000 -0.03400000 0.07155531
v 0.03500000 -0.03377772 0.07167412
v 0.03500000 -0.03317157 0.07217157
v 0.03500000 -0.03400000 0.07844469
v 0.03500000 -0.03377772 0.07832588
v 0.03500000 -0.03317157 0.07782843
v 0.03500000 -0.03267412 0.07277772
v 0.03500000 -0.03230448 0.07346927
v 0.03500000 -0.03207686 0.07421964
v 0.03500000 -0.03267412 0.07722228
v 0.03500000 -0.03230448 0.07653073
v 0.03500000 -0.03200000 0.07500000
v 0.03500000 -0.03207686 0.07578036
v 0.03860000 -0.03400000 0.07155531
v 0.03860000 -0.03377772 0.07167412
v 0.03860000 -0.03317157 0.07217157
v 0.03860000 -0.03400000 0.07844469
v 0.03860000 -0.03377772 0.07832588
v 0.03860000 -0.03317157 0.07782843
v 0.03860000 -0.03267412 0.07277772
v 0.03860000 -0.03230448 0.07346927
v 0.03860000 -0.03207686 0.07421964
v 0.03860000 -0.03267412 0.07722228
v 0.03860000 -0.03230448 0.07653073
v 0.03860000 -0.03200000 0.07500000
v 0.03860000 -0.03207686 0.07578036
f 1 3 2
f 1 7 3
f 14 1 2
f 14 4 1
f 2 3 16
f 6 4 5
f 1 4 12
f 6 10 4
f 4 17 5
f 6 5 19
f 1 12 7
f 7 12 8
f 8 12 9
f 3 7 20
f 7 8 20
f 22 8 9
f 12 22 9
f 12 4 10
f 12 10 11
f 12 11 13
f 23 10 6
f 10 23 11
f 26 12 13
f 11 26 13
f 14 2 15
f 2 16 15
f 3 20 16
f 16 14 15
f 20 14 16
f 4 14 17
f 5 17 18
f 19 5 18
f 23 6 19
f 14 23 17
f 17 19 18
f 17 23 19
f 20 8 21
f 8 22 21
f 22 12 25
f 20 22 14
f 23 14 22
f 22 20 21
f 12 26 25
f 26 11 24
f 11 23 24
f 23 22 26
f 23 26 24
f 26 22 25

