# https://github.com/mikedh/trimesh
v 0.03500000 0.03760000 0.11800000
v 0.03500000 0.03760000 0.12000000
v 0.03500000 0.04000000 0.11800000
v 0.03617054 0.03988471 0.11800000
v 0.03500000 0.04000000 0.12000000
v 0.03617054 0.03988471 0.12000000
v 0.03860000 0.03760000 0.11800000
v 0.03860000 0.03877004 0.11800000
v 0.03860000 0.03760000 0.12000000
v 0.03729610 0.03954328 0.11800000
v 0.03833342 0.03898882 0.11800000
v 0.03860000 0.03944469 0.12000000
f 2 3 1
f 7 2 1
f 3 7 1
f 3 6 4
f 3 4 11
f 3 2 5
f 3 5 6
f 2 12 5
f 5 12 6
f 7 11 8
f 12 7 8
f 2 7 9
f 12 2 9
f 7 12 9
f 7 3 11
f 11 4 10
f 4 12 10
f 12 11 10
f 11 12 8
f 6 12 4

