# https://github.com/mikedh/trimesh
v 0.03860000 -0.03862462 0.05072832
v 0.03860000 -0.03864025 0.05082734
v 0.03860000 -0.03861403 0.05069963
v 0.03862260 -0.03861070 0.05072791
v 0.03860000 -0.03877004 0.05200000
v 0.03860000 -0.03797906 0.04938114
v 0.03860000 -0.03781426 0.04915842
v 0.03860000 -0.03760000 0.04894416
v 0.03881426 -0.03781426 0.04937269
v 0.03881426 -0.03760000 0.04915842
v 0.03897906 -0.03760000 0.04938114
v 0.03860000 -0.03760000 0.05200000
v 0.03924264 -0.03824264 0.05200000
v 0.03961070 -0.03762260 0.05072791
v 0.03961403 -0.03760000 0.05069963
v 0.03962462 -0.03760000 0.05072832
v 0.03964025 -0.03760000 0.05082734
v 0.03977004 -0.03760000 0.05200000
f 4 3 9
f 2 3 1
f 4 2 1
f 5 3 2
f 3 4 1
f 4 13 2
f 13 5 2
f 5 8 3
f 3 8 6
f 9 3 6
f 9 6 7
f 6 8 7
f 8 9 7
f 9 8 10
f 8 11 10
f 11 9 10
f 14 4 9
f 8 15 11
f 15 9 11
f 8 5 12
f 4 14 13
f 5 18 12
f 18 8 12
f 18 5 13
f 15 14 9
f 8 18 15
f 13 14 17
f 14 15 16
f 15 17 16
f 17 14 16
f 17 15 18
f 18 13 17

