# https://github.com/mikedh/trimesh
v 0.03860000 0.03400000 0.12000000
v 0.03860000 0.03400000 0.12360000
v 0.03860000 0.03544637 0.12360000
v 0.03860000 0.03760000 0.12000000
v 0.03860000 0.03760000 0.12144637
v 0.04100000 0.03400000 0.12000000
v 0.04100000 0.03400000 0.12360000
v 0.04100000 0.03544637 0.12360000
v 0.04100000 0.03760000 0.12000000
v 0.04100000 0.03760000 0.12144637
f 2 4 1
f 6 2 1
f 4 6 1
f 5 2 3
f 2 8 3
f 4 2 5
f 10 4 5
f 10 5 3
f 6 10 7
f 2 6 7
f 2 7 8
f 8 7 10
f 6 4 9
f 4 10 9
f 10 6 9
f 8 10 3

