# https://github.com/mikedh/trimesh
v 0.03500000 -0.03760000 0.11800000
v 0.03500000 -0.03600000 0.11800000
v 0.03500000 -0.03760000 0.12000000
v 0.03500000 -0.03521964 0.11807686
v 0.03500000 -0.03446927 0.11830448
v 0.03500000 -0.03400000 0.11855531
v 0.03500000 -0.03400000 0.12000000
v 0.03860000 -0.03760000 0.11800000
v 0.03860000 -0.03760000 0.12000000
v 0.03860000 -0.03400000 0.11800000
v 0.03860000 -0.03400000 0.12000000
f 1 4 2
f 3 6 1
f 8 3 1
f 10 1 2
f 1 6 4
f 4 6 5
f 4 10 2
f 10 4 5
f 6 10 5
f 6 3 7
f 3 11 7
f 11 6 7
f 8 1 10
f 3 8 9
f 11 3 9
f 8 11 9
f 6 11 10
f 8 10 11

