# https://github.com/mikedh/trimesh
v 0.03860000 0.03000000 0.12360000
v 0.03977004 0.03000000 0.12360000
v 0.03924264 0.03000000 0.12424264
v 0.03860000 0.03000000 0.12477004
v 0.03860000 0.03400000 0.12360000
v 0.03860000 0.03400000 0.12544469
v 0.04100000 0.03234151 0.12360000
v 0.04100000 0.03267412 0.12422228
v 0.04100000 0.03400000 0.12360000
v 0.04100000 0.03317157 0.12482843
v 0.04100000 0.03377772 0.12532588
v 0.04100000 0.03400000 0.12544469
f 1 2 4
f 4 2 3
f 1 9 2
f 6 1 4
f 4 3 11
f 1 6 5
f 9 1 5
f 6 9 5
f 12 6 4
f 3 2 10
f 2 7 8
f 10 2 8
f 2 9 7
f 7 10 8
f 9 12 7
f 12 4 11
f 9 6 12
f 3 10 11
f 10 7 12
f 11 10 12

