# https://github.com/mikedh/trimesh
v -0.00600000 0.00000000 0.00000000
v -0.00600000 0.00000000 0.00200000
v -0.00600000 0.00500000 0.00000000
v -0.00600000 0.00519509 0.00001921
v -0.00600000 0.00538268 0.00007612
v -0.00600000 0.00555557 0.00016853
v -0.00600000 0.00570711 0.00029289
v -0.00600000 0.00583147 0.00044443
v -0.00600000 0.00592388 0.00061732
v -0.00600000 0.00598079 0.00080491
v -0.00600000 0.00600000 0.00100000
v -0.00600000 0.00600000 0.00200000
v -0.00120000 0.00000000 0.00000000
v 0.00000000 0.00120000 0.00000000
v -0.00120000 0.00000000 0.00200000
v 0.00000000 0.00120000 0.00200000
v 0.00000000 0.00500000 0.00000000
v 0.00000000 0.00519509 0.00001921
v 0.00000000 0.00538268 0.00007612
v 0.00000000 0.00555557 0.00016853
v 0.00000000 0.00570711 0.00029289
v 0.00000000 0.00583147 0.00044443
v 0.00000000 0.00592388 0.00061732
v 0.00000000 0.00598079 0.00080491
v 0.00000000 0.00600000 0.00100000
v 0.00000000 0.00600000 0.00200000
f 14 1 3
f 2 11 1
f 2 1 15
f 1 11 3
f 3 5 4
f 3 7 5
f 5 7 6
f 7 3 11
f 7 9 8
f 7 11 9
f 9 11 10
f 18 3 4
f 5 18 4
f 20 5 6
f 7 20 6
f 21 7 8
f 8 9 23
f 24 9 10
f 11 24 10
f 11 2 12
f 2 26 12
f 26 11 12
f 1 14 13
f 15 1 13
f 14 15 13
f 2 15 26
f 15 14 16
f 14 26 16
f 26 15 16
f 14 3 17
f 17 3 18
f 19 18 5
f 19 5 20
f 7 21 20
f 21 8 22
f 8 23 22
f 23 9 24
f 11 25 24
f 19 14 17
f 14 19 26
f 19 17 18
f 20 21 19
f 23 19 21
f 23 21 22
f 23 24 25
f 26 19 23
f 11 26 25
f 26 23 25

