# https://github.com/mikedh/trimesh
v 0.03500000 0.03760000 0.08600000
v 0.03500000 0.03760000 0.11000000
v 0.03500000 0.04000000 0.08600000
v 0.03617054 0.03988471 0.08600000
v 0.03500000 0.04000000 0.11000000
v 0.03617054 0.03988471 0.11000000
v 0.03860000 0.03760000 0.08600000
v 0.03860000 0.03877004 0.08600000
v 0.03860000 0.03760000 0.11000000
v 0.03860000 0.03877004 0.11000000
v 0.03729610 0.03954328 0.08600000
v 0.03833342 0.03898882 0.08600000
v 0.03729610 0.03954328 0.11000000
v 0.03833342 0.03898882 0.11000000
f 2 3 1
f 7 2 1
f 3 7 1
f 3 6 4
f 11 3 4
f 6 11 4
f 3 2 5
f 3 5 6
f 2 14 5
f 6 5 14
f 9 7 8
f 7 12 8
f 2 7 9
f 14 2 9
f 9 8 10
f 14 9 10
f 7 3 12
f 13 12 11
f 12 3 11
f 8 12 14
f 6 13 11
f 6 14 13
f 14 12 13
f 8 14 10

