# https://github.com/mikedh/trimesh
v -0.03854328 -0.03000000 0.04970390
v -0.03798882 -0.03000000 0.04866658
v -0.03888471 -0.03000000 0.05082946
v -0.03900000 -0.03000000 0.05200000
v -0.03854328 -0.02700000 0.04970390
v -0.03798882 -0.02700000 0.04866658
v -0.03888471 -0.02700000 0.05082946
v -0.03900000 -0.02700000 0.05200000
v -0.03777004 -0.03000000 0.04840000
v -0.03660000 -0.03000000 0.04840000
v -0.03660000 -0.03000000 0.05200000
v -0.03777004 -0.02700000 0.04840000
v -0.03660000 -0.02700000 0.04840000
v -0.03660000 -0.02700000 0.05200000
f 2 3 1
f 3 5 1
f 10 4 2
f 9 2 6
f 5 2 1
f 2 4 3
f 4 8 3
f 5 8 6
f 6 2 5
f 9 6 12
f 5 3 7
f 3 8 7
f 8 5 7
f 4 14 8
f 14 6 8
f 10 2 9
f 13 10 9
f 4 10 11
f 14 4 11
f 10 14 11
f 13 9 12
f 6 13 12
f 14 10 13
f 6 14 13

