# https://github.com/mikedh/trimesh
v -0.03660000 -0.02953553 0.10846447
v -0.03660000 -0.02877785 0.10784265
v -0.03660000 -0.03000000 0.10903042
v -0.03660000 -0.03000000 0.11000000
v -0.03660000 -0.02791342 0.10738060
v -0.03660000 -0.02700000 0.10710352
v -0.03660000 -0.02700000 0.11000000
v -0.03300000 -0.02953553 0.10846447
v -0.03300000 -0.02877785 0.10784265
v -0.03300000 -0.03000000 0.10903042
v -0.03300000 -0.03000000 0.11000000
v -0.03300000 -0.02791342 0.10738060
v -0.03300000 -0.02700000 0.10710352
v -0.03300000 -0.02700000 0.11000000
f 4 6 1
f 8 1 2
f 4 1 3
f 3 1 8
f 11 4 3
f 2 1 6
f 2 6 5
f 2 5 9
f 6 13 5
f 6 4 7
f 4 14 7
f 14 6 7
f 8 2 9
f 3 8 10
f 11 3 10
f 14 4 11
f 8 11 10
f 8 14 11
f 9 5 12
f 5 13 12
f 6 14 13
f 13 8 9
f 13 9 12
f 14 8 13

