# https://github.com/mikedh/trimesh
v 0.03860000 -0.03661886 0.04802094
v 0.03860000 -0.03684158 0.04818574
v 0.03860000 -0.03705584 0.04840000
v 0.03881426 -0.03684158 0.04840000
v 0.03881426 -0.03662731 0.04818574
v 0.03897906 -0.03661886 0.04840000
v 0.03860000 -0.03527168 0.04737538
v 0.03860000 -0.03517266 0.04735975
v 0.03860000 -0.03530037 0.04738597
v 0.03862260 -0.03527209 0.04738930
v 0.03860000 -0.03400000 0.04722996
v 0.03860000 -0.03400000 0.04840000
v 0.03924264 -0.03400000 0.04775736
v 0.03961403 -0.03530037 0.04840000
v 0.03961070 -0.03527209 0.04837740
v 0.03962462 -0.03527168 0.04840000
v 0.03964025 -0.03517266 0.04840000
v 0.03977004 -0.03400000 0.04840000
f 9 10 5
f 3 9 1
f 1 5 2
f 3 1 2
f 3 2 4
f 2 5 4
f 3 4 6
f 5 6 4
f 9 5 1
f 14 3 6
f 10 15 5
f 5 14 6
f 9 8 7
f 8 10 7
f 10 9 7
f 11 8 9
f 13 10 8
f 3 11 9
f 11 13 8
f 11 3 12
f 10 13 15
f 3 18 12
f 18 11 12
f 15 14 5
f 11 18 13
f 18 3 14
f 14 15 16
f 17 14 16
f 15 17 16
f 15 18 17
f 18 14 17
f 18 15 13

