# https://github.com/mikedh/trimesh
v -0.03870000 0.02700000 0.05833408
v -0.03870000 0.02708336 0.05837863
v -0.03870000 0.02737886 0.05862114
v -0.03870000 0.02700000 0.06166592
v -0.03870000 0.02708336 0.06162137
v -0.03870000 0.02737886 0.06137886
v -0.03870000 0.02762137 0.05891664
v -0.03870000 0.02780157 0.05925377
v -0.03870000 0.02791253 0.05961957
v -0.03870000 0.02762137 0.06108336
v -0.03870000 0.02780157 0.06074623
v -0.03870000 0.02795000 0.06000000
v -0.03870000 0.02791253 0.06038043
v -0.03800000 0.02700000 0.05833408
v -0.03800000 0.02708336 0.05837863
v -0.03800000 0.02737886 0.05862114
v -0.03800000 0.02700000 0.06166592
v -0.03800000 0.02708336 0.06162137
v -0.03800000 0.02737886 0.06137886
v -0.03800000 0.02762137 0.05891664
v -0.03800000 0.02780157 0.05925377
v -0.03800000 0.02791253 0.05961957
v -0.03800000 0.02762137 0.06108336
v -0.03800000 0.02780157 0.06074623
v -0.03800000 0.02795000 0.06000000
v -0.03800000 0.02791253 0.06038043
f 1 3 2
f 1 7 3
f 15 1 2
f 3 15 2
f 14 4 1
f 7 16 3
f 6 4 5
f 4 12 1
f 10 4 6
f 4 18 5
f 18 6 5
f 19 10 6
f 1 12 7
f 7 12 8
f 8 12 9
f 20 7 8
f 22 8 9
f 12 22 9
f 12 4 10
f 12 10 11
f 12 11 13
f 10 23 11
f 26 12 13
f 13 11 24
f 14 1 15
f 3 16 15
f 16 14 15
f 20 14 16
f 4 14 17
f 4 17 18
f 19 6 18
f 14 23 17
f 17 19 18
f 19 17 23
f 20 16 7
f 20 8 21
f 8 22 21
f 22 12 25
f 22 14 20
f 14 22 23
f 22 20 21
f 23 10 19
f 12 26 25
f 26 13 24
f 23 24 11
f 23 22 26
f 23 26 24
f 26 22 25

