# https://github.com/mikedh/trimesh
v 0.00000000 -0.00098000 -0.00380000
v 0.00019119 -0.00096117 -0.00380000
v 0.00037503 -0.00090540 -0.00380000
v 0.00000000 -0.00098000 -0.00340000
v 0.00019119 -0.00096117 -0.00340000
v 0.00037503 -0.00090540 -0.00340000
v 0.00000000 0.00000000 -0.00380000
v 0.00000000 0.00000000 -0.00340000
v 0.00054446 -0.00081484 -0.00380000
v 0.00069296 -0.00069296 -0.00380000
v 0.00081484 -0.00054446 -0.00380000
v 0.00054446 -0.00081484 -0.00340000
v 0.00069296 -0.00069296 -0.00340000
v 0.00081484 -0.00054446 -0.00340000
v 0.00090540 -0.00037503 -0.00380000
v 0.00096117 -0.00019119 -0.00380000
v 0.00098000 0.00000000 -0.00380000
v 0.00090540 -0.00037503 -0.00340000
v 0.00096117 -0.00019119 -0.00340000
v 0.00098000 0.00000000 -0.00340000
f 1 3 2
f 4 1 2
f 4 7 1
f 1 10 3
f 3 6 2
f 6 3 9
f 4 2 5
f 6 4 5
f 2 6 5
f 6 9 12
f 13 4 6
f 7 17 1
f 17 7 8
f 7 4 8
f 8 4 20
f 10 9 3
f 10 1 17
f 10 13 9
f 10 11 13
f 10 15 11
f 9 13 12
f 13 6 12
f 20 4 13
f 13 11 14
f 18 13 14
f 10 17 15
f 15 18 11
f 15 16 18
f 15 17 16
f 17 20 16
f 17 8 20
f 11 18 14
f 18 16 19
f 20 13 18
f 16 20 19
f 20 18 19

