# https://github.com/mikedh/trimesh
v -0.03660000 0.03400000 0.12360000
v -0.03660000 0.03400000 0.12477004
v -0.03660000 0.03517266 0.12464025
v -0.03660000 0.03527168 0.12462462
v -0.03660000 0.03530037 0.12461403
v -0.03633342 0.03400000 0.12498882
v -0.03529610 0.03400000 0.12554328
v -0.03545345 0.03525076 0.12533069
v -0.03660000 0.03661886 0.12397906
v -0.03660000 0.03684158 0.12381426
v -0.03660000 0.03705584 0.12360000
v -0.03605584 0.03760000 0.12360000
v -0.03584158 0.03760000 0.12381426
v -0.03557860 0.03657860 0.12476463
v -0.03561886 0.03760000 0.12397906
v -0.03300000 0.03400000 0.12360000
v -0.03417054 0.03400000 0.12588471
v -0.03421401 0.03521401 0.12574912
v -0.03300000 0.03400000 0.12600000
v -0.03300000 0.03517054 0.12588471
v -0.03430037 0.03760000 0.12461403
v -0.03427168 0.03760000 0.12462462
v -0.03417266 0.03760000 0.12464025
v -0.03300000 0.03760000 0.12360000
v -0.03300000 0.03760000 0.12477004
v -0.03425076 0.03645345 0.12533069
v -0.03300000 0.03629610 0.12554328
v -0.03300000 0.03733342 0.12498882
f 1 6 2
f 2 6 3
f 4 2 3
f 6 4 3
f 11 1 2
f 4 10 2
f 9 4 5
f 4 14 5
f 1 12 16
f 6 8 4
f 8 14 4
f 1 19 6
f 8 6 7
f 6 17 7
f 18 8 7
f 12 1 11
f 11 2 10
f 10 4 9
f 14 10 9
f 14 9 5
f 12 11 10
f 12 10 13
f 10 14 15
f 10 15 13
f 15 12 13
f 15 21 12
f 14 21 15
f 26 14 8
f 19 1 16
f 19 16 24
f 6 19 17
f 7 17 18
f 18 26 8
f 20 18 17
f 19 20 17
f 19 28 20
f 18 20 27
f 16 12 24
f 24 12 25
f 25 12 21
f 25 21 22
f 25 22 23
f 28 24 25
f 28 25 23
f 14 26 21
f 21 26 22
f 22 26 23
f 28 19 24
f 28 26 27
f 26 18 27
f 20 28 27
f 26 28 23

