# https://github.com/mikedh/trimesh
v 0.00000000 -0.00098000 0.00200000
v 0.00019119 -0.00096117 0.00200000
v 0.00000000 -0.00098000 0.00300000
v 0.00037067 -0.00186349 0.00300000
v 0.00000000 0.00000000 0.00200000
v 0.00037503 -0.00090540 0.00200000
v 0.00054446 -0.00081484 0.00200000
v 0.00000000 0.00000000 0.00300000
v 0.00072710 -0.00175537 0.00300000
v 0.00105558 -0.00157979 0.00300000
v 0.00110258 -0.00110258 0.00300000
v 0.00069296 -0.00069296 0.00200000
v 0.00081484 -0.00054446 0.00200000
v 0.00090540 -0.00037503 0.00200000
v 0.00096117 -0.00019119 0.00200000
v 0.00098000 0.00000000 0.00200000
v 0.00098000 0.00000000 0.00300000
f 1 6 2
f 4 1 2
f 6 9 2
f 9 6 7
f 1 4 3
f 4 8 3
f 4 2 9
f 8 5 1
f 1 14 6
f 6 12 7
f 5 14 1
f 8 1 3
f 4 17 8
f 17 5 8
f 10 7 12
f 10 12 13
f 10 4 9
f 10 9 7
f 10 17 4
f 6 14 12
f 12 14 13
f 14 5 16
f 5 17 16
f 14 10 13
f 10 14 15
f 16 10 15
f 14 16 15
f 10 16 11
f 17 10 11
f 16 17 11

