# https://github.com/mikedh/trimesh
v 0.03500000 0.03000000 0.04600000
v 0.03617054 0.03000000 0.04611529
v 0.03500000 0.03000000 0.04840000
v 0.03500000 0.03400000 0.04600000
v 0.03617054 0.03400000 0.04611529
v 0.03500000 0.03400000 0.04840000
v 0.03729610 0.03000000 0.04645672
v 0.03833342 0.03000000 0.04701118
v 0.03860000 0.03000000 0.04722996
v 0.03860000 0.03000000 0.04840000
v 0.03729610 0.03400000 0.04645672
v 0.03833342 0.03400000 0.04701118
v 0.03860000 0.03400000 0.04722996
v 0.03860000 0.03400000 0.04840000
f 1 4 2
f 4 1 3
f 9 1 2
f 9 3 1
f 2 4 5
f 11 2 5
f 4 11 5
f 4 3 6
f 3 14 6
f 14 4 6
f 2 7 8
f 2 11 7
f 9 2 8
f 12 8 7
f 12 9 8
f 3 9 10
f 14 3 10
f 9 14 10
f 11 12 7
f 4 12 11
f 4 14 12
f 9 12 13
f 14 9 13
f 12 14 13

