# https://github.com/mikedh/trimesh
v -0.03900000 -0.02700000 0.11400000
v -0.03900000 -0.02700000 0.11590109
v -0.03900000 -0.02671790 0.11614849
v -0.03900000 -0.02587500 0.11671170
v -0.03900000 -0.02496580 0.11716007
v -0.03900000 -0.02400585 0.11748593
v -0.03900000 -0.02301158 0.11768370
v -0.03900000 -0.02200000 0.11775000
v -0.03900000 -0.00600000 0.11400000
v -0.03900000 -0.00600000 0.11775000
v -0.03660000 -0.02700000 0.11400000
v -0.03660000 -0.02700000 0.11590109
v -0.03660000 -0.02671790 0.11614849
v -0.03660000 -0.02587500 0.11671170
v -0.03660000 -0.02496580 0.11716007
v -0.03660000 -0.02400585 0.11748593
v -0.03660000 -0.02301158 0.11768370
v -0.03660000 -0.02200000 0.11775000
v -0.03660000 -0.00600000 0.11400000
v -0.03660000 -0.00600000 0.11775000
f 7 1 2
f 7 9 1
f 1 12 2
f 9 11 1
f 4 2 3
f 5 2 4
f 7 2 5
f 7 5 6
f 10 7 8
f 2 13 3
f 14 4 3
f 5 4 14
f 5 16 6
f 16 7 6
f 7 18 8
f 18 10 8
f 9 7 10
f 20 9 10
f 1 11 12
f 11 17 12
f 2 12 13
f 13 14 3
f 15 5 14
f 15 16 5
f 17 7 16
f 7 17 18
f 12 14 13
f 12 15 14
f 12 17 15
f 15 17 16
f 11 20 17
f 18 17 20
f 11 9 19
f 9 20 19
f 20 11 19
f 20 10 18

