# https://github.com/mikedh/trimesh
v 0.03500000 -0.04000000 0.12000000
v 0.03617054 -0.03988471 0.12000000
v 0.03500000 -0.04000000 0.12200000
v 0.03500000 -0.03992314 0.12278036
v 0.03500000 -0.03969552 0.12353073
v 0.03500000 -0.03965849 0.12360000
v 0.03500000 -0.03760000 0.12000000
v 0.03500000 -0.03760000 0.12360000
v 0.03860000 -0.03944469 0.12000000
v 0.03860000 -0.03969552 0.12046927
v 0.03860000 -0.03992314 0.12121964
v 0.03860000 -0.04000000 0.12200000
v 0.03860000 -0.03992314 0.12278036
v 0.03860000 -0.03969552 0.12353073
v 0.03860000 -0.03965849 0.12360000
v 0.03860000 -0.03760000 0.12000000
v 0.03860000 -0.03760000 0.12360000
f 6 7 1
f 1 2 11
f 1 9 2
f 12 3 1
f 7 9 1
f 6 1 3
f 6 3 4
f 6 4 5
f 4 3 12
f 4 14 5
f 14 6 5
f 7 6 8
f 6 17 8
f 17 7 8
f 12 1 11
f 11 2 10
f 9 10 2
f 10 12 11
f 9 14 10
f 4 12 13
f 14 4 13
f 6 14 15
f 17 6 15
f 10 14 12
f 12 14 13
f 9 17 14
f 14 17 15
f 9 7 16
f 7 17 16
f 17 9 16

