# https://github.com/mikedh/trimesh
v 0.03500000 0.03446927 0.11830448
v 0.03500000 0.03400000 0.11855531
v 0.03500000 0.03521964 0.11807686
v 0.03500000 0.03400000 0.12000000
v 0.03500000 0.03600000 0.11800000
v 0.03500000 0.03760000 0.11800000
v 0.03500000 0.03760000 0.12000000
v 0.03860000 0.03400000 0.11800000
v 0.03860000 0.03400000 0.12000000
v 0.03860000 0.03760000 0.11800000
v 0.03860000 0.03760000 0.12000000
f 2 3 1
f 2 6 3
f 4 6 2
f 8 2 1
f 3 8 1
f 8 4 2
f 8 3 5
f 3 6 5
f 6 8 5
f 6 4 7
f 4 11 7
f 11 6 7
f 4 8 9
f 11 4 9
f 8 11 9
f 8 6 10
f 6 11 10
f 11 8 10

