# https://github.com/mikedh/trimesh
v -0.03561886 0.03760000 0.04802094
v -0.03584158 0.03760000 0.04818574
v -0.03605584 0.03760000 0.04840000
v -0.03584158 0.03781426 0.04840000
v -0.03562731 0.03781426 0.04818574
v -0.03561886 0.03797906 0.04840000
v -0.03427168 0.03760000 0.04737538
v -0.03417266 0.03760000 0.04735975
v -0.03430037 0.03760000 0.04738597
v -0.03427209 0.03762260 0.04738930
v -0.03300000 0.03760000 0.04722996
v -0.03300000 0.03760000 0.04840000
v -0.03300000 0.03824264 0.04775736
v -0.03430037 0.03861403 0.04840000
v -0.03427209 0.03861070 0.04837740
v -0.03427168 0.03862462 0.04840000
v -0.03417266 0.03864025 0.04840000
v -0.03300000 0.03877004 0.04840000
f 10 9 5
f 1 9 3
f 5 1 2
f 1 3 2
f 3 5 2
f 5 3 4
f 3 6 4
f 6 5 4
f 3 14 6
f 9 1 5
f 15 10 5
f 6 14 5
f 14 15 5
f 8 9 7
f 10 8 7
f 9 10 7
f 11 9 8
f 10 13 8
f 11 3 9
f 13 11 8
f 3 11 12
f 13 10 15
f 18 3 12
f 11 18 12
f 18 11 13
f 3 18 14
f 15 14 16
f 14 17 16
f 17 15 16
f 14 18 17
f 18 15 17
f 18 13 15

