# https://github.com/mikedh/trimesh
v 0.03860000 -0.04000000 0.07500000
v 0.03860000 -0.03992314 0.07578036
v 0.03860000 -0.03877004 0.06200000
v 0.03860000 -0.03760000 0.06200000
v 0.03924264 -0.03824264 0.06200000
v 0.03977004 -0.03760000 0.06200000
v 0.03860000 -0.03877004 0.08600000
v 0.03860000 -0.03760000 0.08600000
v 0.03924264 -0.03824264 0.08600000
v 0.03977004 -0.03760000 0.08600000
v 0.04100000 -0.03969552 0.07346927
v 0.04100000 -0.03932588 0.07277772
v 0.04100000 -0.03882843 0.07217157
v 0.04100000 -0.04000000 0.07500000
v 0.04100000 -0.03992314 0.07421964
v 0.04100000 -0.03992314 0.07578036
v 0.04100000 -0.03969552 0.07653073
v 0.04100000 -0.03932588 0.07722228
v 0.04100000 -0.03882843 0.07782843
v 0.04100000 -0.03822228 0.07167412
v 0.04100000 -0.03760000 0.07134151
v 0.04100000 -0.03822228 0.07832588
v 0.04100000 -0.03760000 0.07865849
f 14 1 3
f 3 5 15
f 7 1 2
f 1 14 2
f 7 2 16
f 7 17 9
f 3 1 4
f 4 6 3
f 3 6 5
f 4 23 6
f 7 4 1
f 4 7 8
f 10 4 8
f 7 10 8
f 10 7 9
f 10 23 4
f 14 3 15
f 11 12 14
f 5 11 15
f 6 12 11
f 21 14 12
f 2 14 16
f 7 16 17
f 11 14 15
f 14 17 16
f 10 17 18
f 17 19 18
f 14 23 17
f 5 6 11
f 12 6 13
f 13 6 20
f 21 12 13
f 21 13 20
f 6 21 20
f 6 23 21
f 17 10 9
f 17 23 19
f 23 14 21
f 19 23 22
f 19 10 18
f 10 19 22
f 23 10 22

