# https://github.com/mikedh/trimesh
v 0.03860000 -0.03400000 0.12000000
v 0.03860000 -0.03400000 0.12360000
v 0.03860000 -0.03000000 0.12000000
v 0.03860000 -0.03000000 0.12360000
v 0.03977004 -0.03000000 0.12360000
v 0.04100000 -0.03400000 0.12000000
v 0.04100000 -0.03400000 0.12360000
v 0.04100000 -0.03207686 0.12278036
v 0.04100000 -0.03234151 0.12360000
v 0.04100000 -0.03000000 0.12000000
v 0.04088471 -0.03000000 0.12117054
v 0.03998882 -0.03000000 0.12333342
v 0.04054328 -0.03000000 0.12229610
f 2 3 1
f 6 2 1
f 3 6 1
f 2 7 4
f 3 2 4
f 3 4 12
f 4 7 5
f 12 4 5
f 6 10 7
f 2 6 7
f 7 10 8
f 9 5 7
f 8 9 7
f 6 3 10
f 3 12 10
f 10 12 11
f 9 10 11
f 12 5 9
f 8 10 9
f 11 12 13
f 9 11 13
f 12 9 13

