# https://github.com/mikedh/trimesh
v 0.03860000 0.03760000 0.06200000
v 0.03860000 0.03877004 0.06200000
v 0.03977004 0.03760000 0.06200000
v 0.03924264 0.03824264 0.06200000
v 0.03860000 0.03760000 0.08600000
v 0.03860000 0.03877004 0.08600000
v 0.03977004 0.03760000 0.08600000
v 0.03924264 0.03824264 0.08600000
v 0.03860000 0.04000000 0.07500000
v 0.03860000 0.03992314 0.07578036
v 0.04100000 0.03760000 0.07134151
v 0.04100000 0.03822228 0.07167412
v 0.04100000 0.03760000 0.07865849
v 0.04100000 0.03822228 0.07832588
v 0.04100000 0.03882843 0.07217157
v 0.04100000 0.03932588 0.07277772
v 0.04100000 0.03969552 0.07346927
v 0.04100000 0.03882843 0.07782843
v 0.04100000 0.03932588 0.07722228
v 0.04100000 0.03969552 0.07653073
v 0.04100000 0.03992314 0.07421964
v 0.04100000 0.04000000 0.07500000
v 0.04100000 0.03992314 0.07578036
f 1 2 3
f 1 9 2
f 11 1 3
f 5 1 11
f 3 2 4
f 6 5 7
f 1 5 9
f 9 5 6
f 5 13 7
f 6 7 8
f 2 21 4
f 22 2 9
f 9 6 10
f 20 6 8
f 10 6 23
f 22 9 10
f 3 4 17
f 11 3 12
f 3 15 12
f 3 16 15
f 15 11 12
f 16 11 15
f 5 11 13
f 7 20 8
f 7 13 14
f 13 11 22
f 13 18 14
f 13 19 18
f 18 7 14
f 19 7 18
f 2 22 21
f 3 17 16
f 4 21 17
f 21 11 16
f 22 11 21
f 21 16 17
f 6 20 23
f 22 10 23
f 7 19 20
f 13 22 19
f 19 22 20
f 23 20 22

