# https://github.com/mikedh/trimesh
v -0.03000000 0.03400000 0.04600000
v -0.03000000 0.03517054 0.04611529
v -0.03000000 0.03400000 0.04840000
v -0.03000000 0.03629610 0.04645672
v -0.03000000 0.03733342 0.04701118
v -0.03000000 0.03760000 0.04722996
v -0.03000000 0.03760000 0.04840000
v -0.02700000 0.03400000 0.04600000
v -0.02700000 0.03517054 0.04611529
v -0.02700000 0.03400000 0.04840000
v -0.02700000 0.03629610 0.04645672
v -0.02700000 0.03733342 0.04701118
v -0.02700000 0.03760000 0.04722996
v -0.02700000 0.03760000 0.04840000
f 1 4 2
f 9 1 2
f 8 3 1
f 3 6 1
f 1 6 4
f 5 4 6
f 2 4 11
f 4 5 11
f 6 13 5
f 6 3 7
f 3 14 7
f 14 6 7
f 8 1 9
f 9 2 11
f 12 8 9
f 3 8 10
f 14 3 10
f 8 14 10
f 12 11 5
f 13 12 5
f 9 11 12
f 8 12 14
f 6 14 13
f 14 12 13

