# https://github.com/mikedh/trimesh
v 0.02900000 -0.03760000 0.12360000
v 0.02900000 -0.03760000 0.12477004
v 0.02900000 -0.03733342 0.12498882
v 0.02900000 -0.03629610 0.12554328
v 0.02900000 -0.03400000 0.12360000
v 0.02900000 -0.03517054 0.12588471
v 0.02900000 -0.03400000 0.12600000
v 0.03200000 -0.03760000 0.12360000
v 0.03200000 -0.03760000 0.12477004
v 0.03200000 -0.03733342 0.12498882
v 0.03200000 -0.03629610 0.12554328
v 0.03200000 -0.03400000 0.12360000
v 0.03200000 -0.03517054 0.12588471
v 0.03200000 -0.03400000 0.12600000
f 3 1 2
f 1 8 2
f 7 1 3
f 7 3 4
f 3 2 10
f 3 10 4
f 4 11 6
f 1 7 5
f 12 1 5
f 7 12 5
f 7 4 6
f 14 7 6
f 2 8 9
f 12 8 1
f 8 10 9
f 10 2 9
f 4 10 11
f 8 14 10
f 10 14 11
f 8 12 14
f 6 11 13
f 12 7 14
f 14 6 13
f 11 14 13

