# https://github.com/mikedh/trimesh
v 0.03860000 -0.03760000 0.08600000
v 0.03977004 -0.03760000 0.08600000
v 0.03860000 -0.03760000 0.11000000
v 0.03977004 -0.03760000 0.11000000
v 0.03860000 -0.03400000 0.08600000
v 0.03860000 -0.03400000 0.11000000
v 0.03998882 -0.03733342 0.08600000
v 0.04054328 -0.03629610 0.08600000
v 0.03998882 -0.03733342 0.11000000
v 0.04054328 -0.03629610 0.11000000
v 0.04088471 -0.03517054 0.08600000
v 0.04100000 -0.03400000 0.08600000
v 0.04088471 -0.03517054 0.11000000
v 0.04100000 -0.03400000 0.11000000
f 3 1 2
f 1 3 5
f 1 7 2
f 3 2 4
f 10 3 4
f 6 3 10
f 12 1 5
f 12 5 6
f 5 3 6
f 4 2 7
f 1 12 7
f 10 7 8
f 7 12 8
f 10 8 11
f 4 7 9
f 7 10 9
f 10 4 9
f 11 8 12
f 12 14 11
f 12 6 14
f 6 10 14
f 10 11 13
f 14 10 13
f 11 14 13

