# https://github.com/mikedh/trimesh
v -0.03290000 -0.02700000 0.05826795
v -0.03290000 -0.02653590 0.05800000
v -0.03290000 -0.02700000 0.06173205
v -0.03290000 -0.02653590 0.06200000
v -0.03290000 -0.02546410 0.05800000
v -0.03290000 -0.02400000 0.05884530
v -0.03290000 -0.02546410 0.06200000
v -0.03290000 -0.02400000 0.06115470
v -0.03130000 -0.02700000 0.05826795
v -0.03130000 -0.02653590 0.05800000
v -0.03130000 -0.02700000 0.06173205
v -0.03130000 -0.02653590 0.06200000
v -0.03130000 -0.02546410 0.05800000
v -0.03130000 -0.02400000 0.05884530
v -0.03130000 -0.02546410 0.06200000
v -0.03130000 -0.02400000 0.06115470
f 1 5 2
f 4 6 1
f 9 1 2
f 5 13 2
f 4 1 3
f 1 11 3
f 11 4 3
f 4 15 7
f 5 1 6
f 6 14 5
f 6 4 8
f 8 4 7
f 15 8 7
f 16 6 8
f 9 2 10
f 1 9 11
f 2 13 10
f 13 9 10
f 4 11 12
f 15 4 12
f 11 15 12
f 9 16 11
f 5 14 13
f 6 16 14
f 14 9 13
f 16 9 14
f 16 8 15
f 11 16 15

