# https://github.com/mikedh/trimesh
v -0.03660000 -0.03000000 0.06200000
v -0.03660000 -0.03000000 0.06296958
v -0.03660000 -0.02953553 0.06353553
v -0.03660000 -0.02877785 0.06415735
v -0.03660000 -0.02700000 0.06200000
v -0.03660000 -0.02791342 0.06461940
v -0.03660000 -0.02700000 0.06489648
v -0.03300000 -0.03000000 0.06200000
v -0.03300000 -0.03000000 0.06296958
v -0.03300000 -0.02953553 0.06353553
v -0.03300000 -0.02877785 0.06415735
v -0.03300000 -0.02700000 0.06200000
v -0.03300000 -0.02791342 0.06461940
v -0.03300000 -0.02700000 0.06489648
f 3 1 2
f 1 8 2
f 3 2 10
f 8 1 5
f 7 1 3
f 3 11 4
f 1 7 5
f 5 7 12
f 7 3 4
f 7 4 6
f 4 13 6
f 13 7 6
f 2 8 9
f 2 9 10
f 8 11 9
f 12 11 8
f 11 3 10
f 9 11 10
f 8 5 12
f 4 11 13
f 12 7 14
f 13 14 7
f 11 14 13
f 11 12 14

