# https://github.com/mikedh/trimesh
v 0.03860000 -0.03760000 0.05200000
v 0.03977004 -0.03760000 0.05200000
v 0.03860000 -0.03760000 0.05400000
v 0.03977004 -0.03760000 0.05400000
v 0.03860000 -0.03400000 0.05200000
v 0.03860000 -0.03400000 0.05400000
v 0.03998882 -0.03733342 0.05200000
v 0.04054328 -0.03629610 0.05200000
v 0.03998882 -0.03733342 0.05400000
v 0.04054328 -0.03629610 0.05400000
v 0.04088471 -0.03517054 0.05200000
v 0.04100000 -0.03400000 0.05200000
v 0.04088471 -0.03517054 0.05400000
v 0.04100000 -0.03400000 0.05400000
f 3 1 2
f 1 7 2
f 3 6 1
f 3 2 4
f 9 3 4
f 1 6 5
f 12 1 5
f 6 12 5
f 6 3 14
f 7 9 2
f 7 8 9
f 12 7 1
f 7 12 8
f 2 9 4
f 9 8 10
f 14 3 9
f 10 8 13
f 14 9 10
f 8 12 11
f 8 11 13
f 12 14 11
f 12 6 14
f 14 10 13
f 11 14 13

