# https://github.com/mikedh/trimesh
v -0.00600000 -0.00600000 0.00200000
v -0.00600000 -0.00598079 0.00219509
v -0.00600000 -0.00592388 0.00238268
v -0.00600000 -0.00583147 0.00255557
v -0.00600000 -0.00570711 0.00270711
v -0.00600000 -0.00555557 0.00283147
v -0.00600000 -0.00538268 0.00292388
v -0.00600000 -0.00519509 0.00298079
v -0.00600000 -0.00500000 0.00300000
v -0.00600000 0.00000000 0.00200000
v -0.00600000 0.00000000 0.00300000
v 0.00000000 -0.00600000 0.00200000
v 0.00000000 -0.00598079 0.00219509
v 0.00000000 -0.00592388 0.00238268
v 0.00000000 -0.00583147 0.00255557
v 0.00000000 -0.00570711 0.00270711
v 0.00000000 -0.00555557 0.00283147
v 0.00000000 -0.00538268 0.00292388
v 0.00000000 -0.00519509 0.00298079
v 0.00000000 -0.00500000 0.00300000
v -0.00120000 0.00000000 0.00200000
v 0.00000000 -0.00120000 0.00200000
v -0.00120000 0.00000000 0.00300000
v 0.00000000 -0.00120000 0.00300000
f 3 1 2
f 5 1 3
f 10 1 9
f 1 12 2
f 3 2 13
f 3 15 4
f 10 12 1
f 5 3 4
f 9 1 5
f 7 5 6
f 9 5 7
f 9 7 8
f 15 5 4
f 5 17 6
f 17 7 6
f 7 19 8
f 19 9 8
f 10 9 11
f 9 23 11
f 23 10 11
f 2 12 13
f 3 13 14
f 15 3 14
f 12 15 13
f 13 15 14
f 12 16 15
f 15 16 5
f 5 16 17
f 7 17 18
f 19 7 18
f 9 19 20
f 23 9 20
f 12 19 16
f 19 12 20
f 17 16 19
f 17 19 18
f 24 20 12
f 12 10 21
f 10 23 21
f 12 21 22
f 24 12 22
f 21 24 22
f 23 20 24
f 21 23 24

