# https://github.com/mikedh/trimesh
v 0.03200000 -0.03760000 0.11800000
v 0.03200000 -0.03600000 0.11800000
v 0.03200000 -0.03760000 0.12000000
v 0.03200000 -0.03521964 0.11807686
v 0.03200000 -0.03446927 0.11830448
v 0.03200000 -0.03400000 0.11855531
v 0.03200000 -0.03400000 0.12000000
v 0.03500000 -0.03760000 0.11800000
v 0.03500000 -0.03600000 0.11800000
v 0.03500000 -0.03760000 0.12000000
v 0.03500000 -0.03521964 0.11807686
v 0.03500000 -0.03446927 0.11830448
v 0.03500000 -0.03400000 0.11855531
v 0.03500000 -0.03400000 0.12000000
f 1 4 2
f 3 6 1
f 8 1 2
f 8 3 1
f 4 1 6
f 4 6 5
f 4 11 2
f 4 5 11
f 6 13 5
f 6 3 7
f 3 14 7
f 14 6 7
f 8 2 9
f 11 8 9
f 3 8 10
f 14 3 10
f 8 14 10
f 2 11 9
f 11 5 12
f 5 13 12
f 13 8 11
f 14 8 13
f 13 11 12
f 6 14 13

