# https://github.com/mikedh/trimesh
v 0.00000000 -0.00538268 0.00007612
v 0.00000000 -0.00555557 0.00016853
v 0.00000000 -0.00570711 0.00029289
v 0.00000000 -0.00583147 0.00044443
v 0.00000000 -0.00519509 0.00001921
v 0.00000000 -0.00500000 0.00000000
v 0.00000000 -0.00592388 0.00061732
v 0.00000000 -0.00598079 0.00080491
v 0.00000000 -0.00600000 0.00100000
v 0.00000000 -0.00600000 0.00200000
v 0.00000000 -0.00120000 0.00000000
v 0.00120000 0.00000000 0.00000000
v 0.00000000 -0.00120000 0.00200000
v 0.00120000 0.00000000 0.00200000
v 0.00600000 -0.00538268 0.00007612
v 0.00600000 -0.00555557 0.00016853
v 0.00600000 -0.00570711 0.00029289
v 0.00600000 -0.00583147 0.00044443
v 0.00600000 -0.00519509 0.00001921
v 0.00600000 -0.00500000 0.00000000
v 0.00600000 -0.00592388 0.00061732
v 0.00600000 -0.00598079 0.00080491
v 0.00600000 -0.00600000 0.00100000
v 0.00600000 -0.00600000 0.00200000
v 0.00600000 0.00000000 0.00000000
v 0.00600000 0.00000000 0.00200000
f 5 1 2
f 3 5 2
f 7 3 4
f 7 5 3
f 7 8 9
f 10 5 7
f 5 11 6
f 15 2 1
f 5 19 1
f 3 2 17
f 3 17 4
f 20 5 6
f 7 4 21
f 7 21 8
f 23 9 8
f 11 20 6
f 10 7 9
f 5 10 13
f 24 10 9
f 5 13 11
f 11 13 12
f 12 25 11
f 12 13 14
f 10 26 13
f 26 12 14
f 13 26 14
f 19 15 1
f 2 15 16
f 17 2 16
f 4 17 18
f 5 20 19
f 21 4 18
f 8 21 22
f 23 8 22
f 15 17 16
f 15 21 17
f 17 21 18
f 20 15 19
f 21 23 22
f 15 24 21
f 25 15 20
f 24 9 23
f 26 10 24
f 21 24 23
f 15 26 24
f 11 25 20
f 12 26 25
f 15 25 26

