# https://github.com/mikedh/trimesh
v -0.01000000 0.00000000 0.00200000
v -0.01000000 0.00000000 0.00300000
v -0.01000000 0.00500000 0.00200000
v -0.00998079 0.00519509 0.00200000
v -0.00992388 0.00538268 0.00200000
v -0.00983147 0.00555557 0.00200000
v -0.00970711 0.00570711 0.00200000
v -0.00955557 0.00583147 0.00200000
v -0.00938268 0.00592388 0.00200000
v -0.00919509 0.00598079 0.00200000
v -0.00900000 0.00600000 0.00200000
v -0.01000000 0.00480000 0.00300000
v -0.00997694 0.00503411 0.00300000
v -0.00990866 0.00525922 0.00300000
v -0.00979776 0.00546668 0.00300000
v -0.00964853 0.00564853 0.00300000
v -0.00946668 0.00579776 0.00300000
v -0.00925922 0.00590866 0.00300000
v -0.00903411 0.00597694 0.00300000
v -0.00880000 0.00600000 0.00300000
v -0.00600000 0.00000000 0.00200000
v -0.00600000 0.00000000 0.00300000
v -0.00600000 0.00600000 0.00200000
v -0.00600000 0.00598079 0.00219509
v -0.00600000 0.00592388 0.00238268
v -0.00720000 0.00600000 0.00300000
v -0.00600000 0.00583147 0.00255557
v -0.00600000 0.00570711 0.00270711
v -0.00696589 0.00597694 0.00300000
v -0.00674078 0.00590866 0.00300000
v -0.00653332 0.00579776 0.00300000
v -0.00600000 0.00500000 0.00300000
v -0.00600000 0.00519509 0.00298079
v -0.00600000 0.00555557 0.00283147
v -0.00635147 0.00564853 0.00300000
v -0.00600000 0.00538268 0.00292388
v -0.00620224 0.00546668 0.00300000
v -0.00609134 0.00525922 0.00300000
f 1 2 3
f 21 2 1
f 11 21 1
f 4 1 3
f 11 1 4
f 7 4 5
f 7 5 6
f 11 4 7
f 9 7 8
f 11 7 9
f 11 9 10
f 4 3 12
f 5 4 13
f 5 15 6
f 15 7 6
f 7 17 8
f 18 9 8
f 9 19 10
f 19 11 10
f 3 2 12
f 2 15 12
f 4 12 13
f 5 13 14
f 15 5 14
f 7 15 16
f 7 16 17
f 17 18 8
f 18 19 9
f 15 13 12
f 13 15 14
f 15 18 16
f 17 16 18
f 15 20 18
f 18 20 19
f 2 38 15
f 20 11 19
f 15 38 20
f 21 23 22
f 2 21 22
f 2 22 38
f 23 11 20
f 21 11 23
f 24 25 23
f 28 23 25
f 23 26 24
f 23 20 26
f 20 29 26
f 20 38 29
f 22 23 33
f 38 22 32
f 22 33 32
f 26 29 24
f 29 25 24
f 28 25 27
f 28 33 23
f 25 30 27
f 25 29 30
f 29 31 30
f 29 38 31
f 33 38 32
f 27 30 31
f 33 28 36
f 36 28 34
f 31 28 27
f 34 28 35
f 31 38 37
f 28 31 35
f 31 37 35
f 36 34 35
f 37 36 35
f 37 33 36
f 38 33 37

