# https://github.com/mikedh/trimesh
v 0.03860000 -0.03760000 0.04894416
v 0.03881426 -0.03760000 0.04915842
v 0.03860000 -0.03705584 0.04840000
v 0.03881426 -0.03684158 0.04840000
v 0.03897906 -0.03760000 0.04938114
v 0.03897906 -0.03661886 0.04840000
v 0.03976463 -0.03657860 0.04942140
v 0.03860000 -0.03760000 0.05200000
v 0.03961403 -0.03760000 0.05069963
v 0.03962462 -0.03760000 0.05072832
v 0.03964025 -0.03760000 0.05082734
v 0.03977004 -0.03760000 0.05200000
v 0.03860000 -0.03400000 0.04840000
v 0.03961403 -0.03530037 0.04840000
v 0.03962462 -0.03527168 0.04840000
v 0.03964025 -0.03517266 0.04840000
v 0.03977004 -0.03400000 0.04840000
v 0.03860000 -0.03400000 0.05200000
v 0.03998882 -0.03733342 0.05200000
v 0.04033069 -0.03645345 0.05074924
v 0.04054328 -0.03629610 0.05200000
v 0.04033069 -0.03525076 0.04954655
v 0.03998882 -0.03400000 0.04866658
v 0.04054328 -0.03400000 0.04970390
v 0.04074912 -0.03521401 0.05078599
v 0.04088471 -0.03517054 0.05200000
v 0.04088471 -0.03400000 0.05082946
v 0.04100000 -0.03400000 0.05200000
f 1 3 4
f 1 4 2
f 5 1 2
f 4 5 2
f 4 7 5
f 5 9 1
f 1 13 3
f 7 4 6
f 4 15 6
f 3 17 4
f 7 9 5
f 7 6 14
f 8 1 12
f 18 1 8
f 12 1 9
f 19 8 12
f 12 9 10
f 12 10 11
f 10 19 11
f 19 12 11
f 3 13 17
f 13 1 18
f 15 14 6
f 15 4 17
f 13 23 17
f 15 17 16
f 23 15 16
f 17 23 16
f 28 18 8
f 28 13 18
f 20 7 22
f 9 20 10
f 7 20 9
f 20 19 10
f 19 28 8
f 21 19 20
f 20 25 21
f 28 19 21
f 22 7 14
f 15 22 14
f 23 22 15
f 13 28 23
f 22 23 24
f 25 22 24
f 23 28 24
f 25 20 22
f 21 25 26
f 28 21 26
f 25 24 27
f 27 24 28
f 26 25 27
f 28 26 27

