# https://github.com/mikedh/trimesh
v -0.02321201 -0.00776845 0.04879623
v -0.02360377 -0.00776845 0.04918799
v -0.02320846 -0.00788845 0.04899109
v -0.02340891 -0.00788845 0.04919154
v -0.02320233 -0.00795819 0.04919767
v -0.02342977 -0.00779410 0.04897023
v -0.02343789 -0.00763571 0.04876429
v -0.02321201 -0.00760377 0.04863155
v -0.02363571 -0.00763571 0.04896211
v -0.02376845 -0.00760377 0.04918799
v -0.02300000 -0.00783147 0.04884443
v -0.02300000 -0.00792388 0.04901732
v -0.02300000 -0.00798079 0.04920491
v -0.02300000 -0.00770711 0.04869289
v -0.02300000 -0.00755557 0.04856853
v -0.02355557 -0.00783147 0.04940000
v -0.02338268 -0.00792388 0.04940000
v -0.02319509 -0.00798079 0.04940000
v -0.02370711 -0.00770711 0.04940000
v -0.02383147 -0.00755557 0.04940000
v -0.02300000 -0.00800000 0.04940000
v -0.02363571 -0.00743789 0.04876429
v -0.02342977 -0.00742977 0.04860590
v -0.02320846 -0.00740891 0.04851155
v -0.02379410 -0.00742977 0.04897023
v -0.02388845 -0.00740891 0.04919154
v -0.02376845 -0.00721201 0.04879623
v -0.02360377 -0.00721201 0.04863155
v -0.02340891 -0.00720846 0.04851155
v -0.02320233 -0.00720233 0.04844181
v -0.02388845 -0.00720846 0.04899109
v -0.02395819 -0.00720233 0.04919767
v -0.02300000 -0.00738268 0.04847612
v -0.02300000 -0.00719509 0.04841921
v -0.02392388 -0.00738268 0.04940000
v -0.02398079 -0.00719509 0.04940000
v -0.02355557 -0.00783147 0.05200000
v -0.02338268 -0.00792388 0.05200000
v -0.02319509 -0.00798079 0.05200000
v -0.02370711 -0.00770711 0.05200000
v -0.02383147 -0.00755557 0.05200000
v -0.02300000 -0.00800000 0.05200000
v -0.02392388 -0.00738268 0.05200000
v -0.02398079 -0.00719509 0.05200000
v -0.02355557 -0.00700000 0.04856853
v -0.02383147 -0.00700000 0.04884443
v -0.02370711 -0.00700000 0.04869289
v -0.02338268 -0.00700000 0.04847612
v -0.02319509 -0.00700000 0.04841921
v -0.02392388 -0.00700000 0.04901732
v -0.02398079 -0.00700000 0.04920491
v -0.02300000 -0.00700000 0.04840000
v -0.02400000 -0.00700000 0.04940000
v -0.02355557 -0.00600000 0.04856853
v -0.02383147 -0.00600000 0.04884443
v -0.02370711 -0.00600000 0.04869289
v -0.02338268 -0.00600000 0.04847612
v -0.02319509 -0.00600000 0.04841921
v -0.02392388 -0.00600000 0.04901732
v -0.02398079 -0.00600000 0.04920491
v -0.02300000 -0.00600000 0.04840000
v -0.02400000 -0.00600000 0.04940000
v -0.02400000 -0.00700000 0.05200000
v -0.02400000 -0.00600000 0.05200000
v -0.01700000 -0.00783147 0.04884443
v -0.01678799 -0.00776845 0.04879623
v -0.01700000 -0.00792388 0.04901732
v -0.01679154 -0.00788845 0.04899109
v -0.01700000 -0.00798079 0.04920491
v -0.01679767 -0.00795819 0.04919767
v -0.01659109 -0.00788845 0.04919154
v -0.01657023 -0.00779410 0.04897023
v -0.01639623 -0.00776845 0.04918799
v -0.01700000 -0.00770711 0.04869289
v -0.01656211 -0.00763571 0.04876429
v -0.01700000 -0.00755557 0.04856853
v -0.01678799 -0.00760377 0.04863155
v -0.01636429 -0.00763571 0.04896211
v -0.01623155 -0.00760377 0.04918799
v -0.01700000 -0.00800000 0.04940000
v -0.01680491 -0.00798079 0.04940000
v -0.01661732 -0.00792388 0.04940000
v -0.01644443 -0.00783147 0.04940000
v -0.01629289 -0.00770711 0.04940000
v -0.01616853 -0.00755557 0.04940000
v -0.01700000 -0.00738268 0.04847612
v -0.01679154 -0.00740891 0.04851155
v -0.01657023 -0.00742977 0.04860590
v -0.01636429 -0.00743789 0.04876429
v -0.01620590 -0.00742977 0.04897023
v -0.01611155 -0.00740891 0.04919154
v -0.01700000 -0.00719509 0.04841921
v -0.01679767 -0.00720233 0.04844181
v -0.01659109 -0.00720846 0.04851155
v -0.01639623 -0.00721201 0.04863155
v -0.01623155 -0.00721201 0.04879623
v -0.01611155 -0.00720846 0.04899109
v -0.01604181 -0.00720233 0.04919767
v -0.01607612 -0.00738268 0.04940000
v -0.01601921 -0.00719509 0.04940000
v -0.01700000 -0.00800000 0.05200000
v -0.01680491 -0.00798079 0.05200000
v -0.01661732 -0.00792388 0.05200000
v -0.01644443 -0.00783147 0.05200000
v -0.01629289 -0.00770711 0.05200000
v -0.01616853 -0.00755557 0.05200000
v -0.01607612 -0.00738268 0.05200000
v -0.01601921 -0.00719509 0.05200000
v -0.01700000 -0.00700000 0.04840000
v -0.01680491 -0.00700000 0.04841921
v -0.01661732 -0.00700000 0.04847612
v -0.01644443 -0.00700000 0.04856853
v -0.01629289 -0.00700000 0.04869289
v -0.01616853 -0.00700000 0.04884443
v -0.01607612 -0.00700000 0.04901732
v -0.01601921 -0.00700000 0.04920491
v -0.01600000 -0.00700000 0.04940000
v -0.01700000 -0.00600000 0.04840000
v -0.01680491 -0.00600000 0.04841921
v -0.01661732 -0.00600000 0.04847612
v -0.01644443 -0.00600000 0.04856853
v -0.01629289 -0.00600000 0.04869289
v -0.01616853 -0.00600000 0.04884443
v -0.01607612 -0.00600000 0.04901732
v -0.01601921 -0.00600000 0.04920491
v -0.01600000 -0.00600000 0.04940000
v -0.01600000 -0.00700000 0.05200000
v -0.01600000 -0.00600000 0.05200000
f 1 14 11
f 4 16 2
f 12 3 11
f 3 12 5
f 3 5 4
f 5 17 4
f 12 13 5
f 13 18 5
f 6 1 3
f 6 3 4
f 1 11 3
f 4 2 6
f 22 7 9
f 7 22 23
f 7 1 6
f 1 7 8
f 14 1 8
f 8 24 15
f 8 7 23
f 14 8 15
f 6 9 7
f 2 9 6
f 19 10 2
f 9 2 10
f 22 9 25
f 10 25 9
f 26 10 20
f 16 19 2
f 17 5 18
f 4 17 16
f 18 13 21
f 20 10 19
f 22 28 23
f 27 22 25
f 28 22 27
f 8 23 24
f 15 24 33
f 29 24 23
f 29 30 24
f 28 29 23
f 24 30 33
f 34 33 30
f 26 25 10
f 26 31 25
f 25 31 27
f 35 32 26
f 32 31 26
f 28 45 29
f 27 47 28
f 46 47 27
f 47 45 28
f 30 29 48
f 34 30 49
f 48 49 30
f 45 48 29
f 34 49 52
f 31 46 27
f 50 31 32
f 51 32 36
f 31 50 46
f 50 32 51
f 35 26 20
f 32 35 36
f 53 51 36
f 67 12 11
f 12 69 13
f 11 14 74
f 76 14 15
f 80 21 13
f 33 76 15
f 34 86 33
f 109 34 52
f 39 17 18
f 39 18 21
f 37 16 17
f 16 40 19
f 19 41 20
f 16 37 40
f 17 39 38
f 37 17 38
f 42 39 21
f 39 37 38
f 42 37 39
f 40 41 19
f 37 41 40
f 37 44 41
f 41 35 20
f 35 44 36
f 36 44 53
f 35 41 43
f 44 35 43
f 41 44 43
f 53 44 63
f 37 64 44
f 80 42 21
f 102 37 42
f 55 47 46
f 47 56 45
f 57 48 45
f 48 57 49
f 58 52 49
f 50 55 46
f 60 50 51
f 51 53 62
f 45 56 54
f 47 55 56
f 57 58 49
f 57 45 54
f 52 58 61
f 55 50 59
f 50 60 59
f 60 51 62
f 56 57 54
f 55 57 56
f 60 57 55
f 57 61 58
f 60 55 59
f 64 57 60
f 109 52 61
f 57 118 61
f 64 53 63
f 44 64 63
f 64 62 53
f 64 60 62
f 37 128 64
f 128 57 64
f 11 74 65
f 12 67 69
f 80 13 69
f 67 11 65
f 14 76 74
f 86 76 33
f 86 34 92
f 34 109 92
f 74 66 65
f 65 68 67
f 67 68 70
f 67 70 69
f 70 81 69
f 70 68 71
f 71 82 70
f 68 65 66
f 72 68 66
f 71 68 72
f 71 72 73
f 73 83 71
f 74 77 66
f 75 72 66
f 66 77 75
f 87 77 76
f 77 74 76
f 88 75 77
f 89 78 75
f 89 75 88
f 78 72 75
f 72 78 73
f 79 84 73
f 78 79 73
f 90 78 89
f 78 90 79
f 91 85 79
f 69 81 80
f 81 70 82
f 82 71 83
f 83 73 84
f 84 79 85
f 87 76 86
f 87 88 77
f 87 86 93
f 86 92 93
f 87 94 88
f 94 87 93
f 88 94 95
f 88 95 89
f 90 89 96
f 89 95 96
f 90 91 79
f 90 97 91
f 96 97 90
f 91 98 99
f 97 98 91
f 92 110 93
f 111 94 93
f 92 109 110
f 111 93 110
f 94 111 112
f 94 112 95
f 113 96 95
f 113 95 112
f 114 96 113
f 96 114 97
f 97 115 98
f 116 100 98
f 114 115 97
f 115 116 98
f 91 99 85
f 98 100 99
f 116 117 100
f 42 80 101
f 102 42 101
f 37 102 128
f 102 80 81
f 82 102 81
f 82 83 104
f 84 105 83
f 84 85 106
f 80 102 101
f 102 82 103
f 103 82 104
f 83 105 104
f 105 102 103
f 105 103 104
f 84 106 105
f 105 107 102
f 107 105 106
f 99 106 85
f 108 99 100
f 117 108 100
f 99 107 106
f 107 99 108
f 117 127 108
f 107 108 127
f 128 102 107
f 61 118 109
f 57 120 118
f 57 128 120
f 110 109 118
f 119 111 110
f 111 120 112
f 113 112 122
f 122 114 113
f 114 124 115
f 115 124 116
f 125 117 116
f 110 118 119
f 120 111 119
f 112 120 121
f 122 112 121
f 114 122 123
f 114 123 124
f 125 116 124
f 118 120 119
f 120 122 121
f 120 125 122
f 122 125 123
f 124 123 125
f 117 125 126
f 120 128 125
f 128 107 127
f 117 128 127
f 128 117 126
f 125 128 126

