# https://github.com/mikedh/trimesh
v -0.03900000 -0.02948593 0.05999415
v -0.03900000 -0.02916007 0.05903420
v -0.03900000 -0.02871170 0.05812500
v -0.03900000 -0.02862817 0.05800000
v -0.03900000 -0.02968370 0.06098842
v -0.03900000 -0.02975000 0.06200000
v -0.03900000 -0.02700000 0.05800000
v -0.03900000 -0.02700000 0.06200000
v -0.03660000 -0.02948593 0.05999415
v -0.03660000 -0.02916007 0.05903420
v -0.03660000 -0.02871170 0.05812500
v -0.03660000 -0.02862817 0.05800000
v -0.03660000 -0.02968370 0.06098842
v -0.03660000 -0.02975000 0.06200000
v -0.03660000 -0.02700000 0.05800000
v -0.03660000 -0.02700000 0.06200000
f 1 4 2
f 6 4 1
f 2 4 3
f 6 7 4
f 1 2 9
f 2 3 10
f 4 12 3
f 6 1 5
f 1 9 5
f 14 6 5
f 7 12 4
f 7 6 8
f 6 16 8
f 16 7 8
f 9 2 10
f 10 3 11
f 3 12 11
f 12 9 10
f 12 14 9
f 12 10 11
f 5 9 13
f 14 5 13
f 16 6 14
f 9 14 13
f 12 16 14
f 12 7 15
f 7 16 15
f 16 12 15

