# https://github.com/mikedh/trimesh
v -0.02355557 -0.00783147 0.05200000
v -0.02338268 -0.00792388 0.05200000
v -0.02319509 -0.00798079 0.05200000
v -0.02370711 -0.00770711 0.05200000
v -0.02383147 -0.00755557 0.05200000
v -0.02300000 -0.00800000 0.05200000
v -0.02392388 -0.00738268 0.05200000
v -0.02398079 -0.00719509 0.05200000
v -0.02355557 -0.00783147 0.05300000
v -0.02360377 -0.00776845 0.05321201
v -0.02338268 -0.00792388 0.05300000
v -0.02319509 -0.00798079 0.05300000
v -0.02340891 -0.00788845 0.05320846
v -0.02320233 -0.00795819 0.05320233
v -0.02320846 -0.00788845 0.05340891
v -0.02342977 -0.00779410 0.05342977
v -0.02370711 -0.00770711 0.05300000
v -0.02383147 -0.00755557 0.05300000
v -0.02376845 -0.00760377 0.05321201
v -0.02363571 -0.00763571 0.05343789
v -0.02300000 -0.00800000 0.05300000
v -0.02300000 -0.00798079 0.05319509
v -0.02300000 -0.00792388 0.05338268
v -0.02321201 -0.00776845 0.05360377
v -0.02343789 -0.00763571 0.05363571
v -0.02321201 -0.00760377 0.05376845
v -0.02300000 -0.00783147 0.05355557
v -0.02300000 -0.00770711 0.05370711
v -0.02300000 -0.00755557 0.05383147
v -0.02392388 -0.00738268 0.05300000
v -0.02388845 -0.00740891 0.05320846
v -0.02379410 -0.00742977 0.05342977
v -0.02398079 -0.00719509 0.05300000
v -0.02395819 -0.00720233 0.05320233
v -0.02388845 -0.00720846 0.05340891
v -0.02363571 -0.00743789 0.05363571
v -0.02342977 -0.00742977 0.05379410
v -0.02320846 -0.00740891 0.05388845
v -0.02376845 -0.00721201 0.05360377
v -0.02360377 -0.00721201 0.05376845
v -0.02340891 -0.00720846 0.05388845
v -0.02320233 -0.00720233 0.05395819
v -0.02300000 -0.00738268 0.05392388
v -0.02300000 -0.00719509 0.05398079
v -0.02400000 -0.00700000 0.05200000
v -0.02400000 -0.00600000 0.05200000
v -0.02400000 -0.00700000 0.05300000
v -0.02398079 -0.00700000 0.05319509
v -0.02392388 -0.00700000 0.05338268
v -0.02383147 -0.00700000 0.05355557
v -0.02370711 -0.00700000 0.05370711
v -0.02355557 -0.00700000 0.05383147
v -0.02338268 -0.00700000 0.05392388
v -0.02319509 -0.00700000 0.05398079
v -0.02300000 -0.00700000 0.05400000
v -0.02400000 -0.00600000 0.05300000
v -0.02398079 -0.00600000 0.05319509
v -0.02392388 -0.00600000 0.05338268
v -0.02383147 -0.00600000 0.05355557
v -0.02370711 -0.00600000 0.05370711
v -0.02355557 -0.00600000 0.05383147
v -0.02338268 -0.00600000 0.05392388
v -0.02319509 -0.00600000 0.05398079
v -0.02300000 -0.00600000 0.05400000
v -0.01700000 -0.00800000 0.05200000
v -0.01680491 -0.00798079 0.05200000
v -0.01661732 -0.00792388 0.05200000
v -0.01644443 -0.00783147 0.05200000
v -0.01629289 -0.00770711 0.05200000
v -0.01616853 -0.00755557 0.05200000
v -0.01607612 -0.00738268 0.05200000
v -0.01601921 -0.00719509 0.05200000
v -0.01700000 -0.00800000 0.05300000
v -0.01680491 -0.00798079 0.05300000
v -0.01661732 -0.00792388 0.05300000
v -0.01700000 -0.00798079 0.05319509
v -0.01679767 -0.00795819 0.05320233
v -0.01659109 -0.00788845 0.05320846
v -0.01644443 -0.00783147 0.05300000
v -0.01639623 -0.00776845 0.05321201
v -0.01700000 -0.00792388 0.05338268
v -0.01679154 -0.00788845 0.05340891
v -0.01657023 -0.00779410 0.05342977
v -0.01629289 -0.00770711 0.05300000
v -0.01616853 -0.00755557 0.05300000
v -0.01623155 -0.00760377 0.05321201
v -0.01636429 -0.00763571 0.05343789
v -0.01700000 -0.00783147 0.05355557
v -0.01678799 -0.00776845 0.05360377
v -0.01700000 -0.00770711 0.05370711
v -0.01656211 -0.00763571 0.05363571
v -0.01678799 -0.00760377 0.05376845
v -0.01700000 -0.00755557 0.05383147
v -0.01607612 -0.00738268 0.05300000
v -0.01611155 -0.00740891 0.05320846
v -0.01620590 -0.00742977 0.05342977
v -0.01601921 -0.00719509 0.05300000
v -0.01604181 -0.00720233 0.05320233
v -0.01611155 -0.00720846 0.05340891
v -0.01636429 -0.00743789 0.05363571
v -0.01657023 -0.00742977 0.05379410
v -0.01700000 -0.00738268 0.05392388
v -0.01679154 -0.00740891 0.05388845
v -0.01623155 -0.00721201 0.05360377
v -0.01700000 -0.00719509 0.05398079
v -0.01679767 -0.00720233 0.05395819
v -0.01659109 -0.00720846 0.05388845
v -0.01639623 -0.00721201 0.05376845
v -0.01600000 -0.00700000 0.05200000
v -0.01600000 -0.00600000 0.05200000
v -0.01600000 -0.00700000 0.05300000
v -0.01601921 -0.00700000 0.05319509
v -0.01607612 -0.00700000 0.05338268
v -0.01616853 -0.00700000 0.05355557
v -0.01629289 -0.00700000 0.05370711
v -0.01700000 -0.00700000 0.05400000
v -0.01680491 -0.00700000 0.05398079
v -0.01661732 -0.00700000 0.05392388
v -0.01644443 -0.00700000 0.05383147
v -0.01600000 -0.00600000 0.05300000
v -0.01601921 -0.00600000 0.05319509
v -0.01607612 -0.00600000 0.05338268
v -0.01616853 -0.00600000 0.05355557
v -0.01629289 -0.00600000 0.05370711
v -0.01700000 -0.00600000 0.05400000
v -0.01680491 -0.00600000 0.05398079
v -0.01661732 -0.00600000 0.05392388
v -0.01644443 -0.00600000 0.05383147
f 1 3 2
f 3 11 2
f 11 1 2
f 3 6 12
f 5 1 4
f 5 8 1
f 1 17 4
f 17 5 4
f 17 1 9
f 11 3 12
f 21 12 6
f 1 11 9
f 5 17 18
f 8 5 7
f 46 3 1
f 5 18 7
f 7 33 8
f 46 1 8
f 8 47 45
f 18 30 7
f 33 7 30
f 8 33 47
f 3 65 6
f 6 73 21
f 17 9 10
f 9 13 10
f 14 11 12
f 11 13 9
f 22 12 21
f 14 13 11
f 12 22 14
f 14 15 13
f 22 23 14
f 23 15 14
f 27 15 23
f 13 16 10
f 16 13 15
f 16 15 24
f 19 17 10
f 19 18 17
f 19 31 18
f 20 10 16
f 19 10 20
f 32 19 20
f 27 24 15
f 27 28 24
f 16 25 20
f 25 36 20
f 36 32 20
f 36 25 37
f 25 16 24
f 26 25 24
f 28 26 24
f 25 26 37
f 29 26 28
f 26 29 38
f 31 30 18
f 34 33 30
f 31 34 30
f 19 32 31
f 31 32 35
f 34 31 35
f 39 35 32
f 33 34 48
f 47 33 48
f 34 35 49
f 34 49 48
f 50 49 35
f 32 36 39
f 40 36 37
f 39 36 40
f 38 37 26
f 38 29 43
f 41 37 38
f 37 41 40
f 42 41 38
f 43 42 38
f 44 42 43
f 39 50 35
f 39 40 51
f 39 51 50
f 40 41 52
f 52 51 40
f 42 53 41
f 42 44 54
f 41 53 52
f 53 42 54
f 44 55 54
f 73 22 21
f 22 81 23
f 81 27 23
f 28 27 88
f 28 93 29
f 29 102 43
f 44 43 102
f 44 105 55
f 46 8 45
f 47 46 45
f 46 47 56
f 58 46 56
f 46 109 3
f 47 48 57
f 57 48 49
f 50 58 49
f 60 50 51
f 61 51 52
f 53 61 52
f 54 63 53
f 55 63 54
f 47 57 56
f 58 57 49
f 58 50 59
f 63 46 58
f 58 56 57
f 50 60 59
f 60 51 61
f 61 53 62
f 53 63 62
f 55 64 63
f 60 58 59
f 63 58 60
f 63 60 61
f 63 61 62
f 116 64 55
f 126 46 63
f 126 63 64
f 3 66 65
f 65 73 6
f 3 109 66
f 66 68 67
f 66 70 68
f 73 65 66
f 74 66 67
f 79 67 68
f 68 70 69
f 66 109 70
f 84 68 69
f 70 84 69
f 73 66 74
f 74 67 75
f 67 79 75
f 84 79 68
f 84 70 85
f 70 72 71
f 109 72 70
f 70 71 85
f 72 97 71
f 109 111 72
f 85 71 94
f 97 94 71
f 97 72 111
f 22 73 76
f 22 76 81
f 27 81 88
f 90 28 88
f 93 28 90
f 93 102 29
f 105 44 102
f 105 116 55
f 73 74 76
f 77 74 75
f 79 78 75
f 74 77 76
f 78 77 75
f 80 79 84
f 78 79 80
f 77 81 76
f 82 81 77
f 77 78 82
f 88 81 82
f 83 78 80
f 82 78 83
f 82 83 89
f 80 84 86
f 84 85 86
f 85 95 86
f 87 83 80
f 87 80 86
f 96 87 86
f 88 82 89
f 90 88 89
f 89 83 91
f 92 90 89
f 92 89 91
f 101 92 91
f 91 83 87
f 100 91 87
f 100 87 96
f 101 91 100
f 92 93 90
f 93 92 103
f 85 94 95
f 97 98 94
f 95 94 98
f 95 96 86
f 95 99 96
f 98 99 95
f 99 104 96
f 97 112 98
f 97 111 112
f 113 99 98
f 113 98 112
f 113 114 99
f 104 100 96
f 108 101 100
f 104 108 100
f 103 92 101
f 102 93 103
f 107 103 101
f 101 108 107
f 106 102 103
f 105 102 106
f 106 103 107
f 104 99 114
f 108 104 115
f 114 115 104
f 106 117 105
f 118 106 107
f 116 105 117
f 119 118 107
f 118 117 106
f 108 119 107
f 108 115 119
f 109 46 110
f 46 126 110
f 109 120 111
f 109 110 120
f 110 121 120
f 64 116 125
f 126 64 125
f 112 111 121
f 122 113 112
f 113 122 114
f 124 115 114
f 126 116 117
f 118 119 127
f 126 117 118
f 119 115 128
f 120 121 111
f 122 112 121
f 114 122 123
f 110 126 121
f 121 124 122
f 124 114 123
f 115 124 128
f 128 127 119
f 116 126 125
f 126 118 127
f 122 124 123
f 124 121 126
f 126 127 124
f 124 127 128

