# https://github.com/mikedh/trimesh
v 0.03200000 0.03400000 0.07155531
v 0.03200000 0.03446927 0.07130448
v 0.03200000 0.03521964 0.07107686
v 0.03200000 0.03400000 0.07844469
v 0.03200000 0.03446927 0.07869552
v 0.03200000 0.03521964 0.07892314
v 0.03200000 0.03600000 0.07100000
v 0.03200000 0.03678036 0.07107686
v 0.03200000 0.03753073 0.07130448
v 0.03200000 0.03760000 0.07134151
v 0.03200000 0.03600000 0.07900000
v 0.03200000 0.03678036 0.07892314
v 0.03200000 0.03753073 0.07869552
v 0.03200000 0.03760000 0.07865849
v 0.03500000 0.03400000 0.07155531
v 0.03500000 0.03446927 0.07130448
v 0.03500000 0.03521964 0.07107686
v 0.03500000 0.03400000 0.07844469
v 0.03500000 0.03446927 0.07869552
v 0.03500000 0.03521964 0.07892314
v 0.03500000 0.03600000 0.07100000
v 0.03500000 0.03678036 0.07107686
v 0.03500000 0.03753073 0.07130448
v 0.03500000 0.03760000 0.07134151
v 0.03500000 0.03600000 0.07900000
v 0.03500000 0.03678036 0.07892314
v 0.03500000 0.03753073 0.07869552
v 0.03500000 0.03760000 0.07865849
f 1 3 2
f 1 7 3
f 15 1 2
f 3 17 2
f 7 21 3
f 11 1 4
f 6 4 5
f 11 4 6
f 1 18 4
f 4 19 5
f 19 6 5
f 20 11 6
f 7 1 10
f 11 10 1
f 7 10 8
f 8 10 9
f 8 22 7
f 8 9 23
f 10 24 9
f 10 11 14
f 11 12 14
f 14 12 13
f 11 25 12
f 28 10 14
f 12 26 13
f 28 14 13
f 15 2 16
f 2 17 16
f 1 15 18
f 3 21 17
f 17 15 16
f 21 15 17
f 4 18 19
f 20 6 19
f 20 25 11
f 18 20 19
f 15 28 18
f 18 25 20
f 7 22 21
f 22 8 23
f 9 24 23
f 10 28 24
f 24 15 21
f 28 15 24
f 24 21 22
f 24 22 23
f 12 25 26
f 13 26 27
f 28 13 27
f 18 28 25
f 25 28 26
f 26 28 27

