# https://github.com/mikedh/trimesh
v 0.03500000 -0.03400000 0.12360000
v 0.03500000 -0.03400000 0.12600000
v 0.03617054 -0.03400000 0.12588471
v 0.03500000 -0.03000000 0.12360000
v 0.03500000 -0.03000000 0.12600000
v 0.03617054 -0.03000000 0.12588471
v 0.03860000 -0.03400000 0.12360000
v 0.03860000 -0.03400000 0.12544469
v 0.03860000 -0.03000000 0.12360000
v 0.03860000 -0.03000000 0.12477004
v 0.03729610 -0.03000000 0.12554328
v 0.03833342 -0.03000000 0.12498882
f 2 4 1
f 7 2 1
f 4 7 1
f 5 2 3
f 2 8 3
f 4 2 5
f 5 3 6
f 12 4 5
f 11 5 6
f 7 9 8
f 8 2 7
f 6 3 8
f 7 4 9
f 4 12 9
f 8 9 10
f 9 12 10
f 8 11 6
f 12 5 11
f 8 12 11
f 12 8 10

