# https://github.com/mikedh/trimesh
v 0.03500000 0.03400000 0.04600000
v 0.03500000 0.03517054 0.04611529
v 0.03617054 0.03400000 0.04611529
v 0.03621401 0.03521401 0.04625088
v 0.03500000 0.03400000 0.04840000
v 0.03500000 0.03629610 0.04645672
v 0.03500000 0.03733342 0.04701118
v 0.03625076 0.03645345 0.04666931
v 0.03500000 0.03760000 0.04722996
v 0.03500000 0.03760000 0.04840000
v 0.03617266 0.03760000 0.04735975
v 0.03627168 0.03760000 0.04737538
v 0.03630037 0.03760000 0.04738597
v 0.03729610 0.03400000 0.04645672
v 0.03745345 0.03525076 0.04666931
v 0.03833342 0.03400000 0.04701118
v 0.03860000 0.03400000 0.04722996
v 0.03860000 0.03400000 0.04840000
v 0.03860000 0.03517266 0.04735975
v 0.03860000 0.03527168 0.04737538
v 0.03860000 0.03530037 0.04738597
v 0.03757860 0.03657860 0.04723537
v 0.03761886 0.03760000 0.04802094
v 0.03860000 0.03661886 0.04802094
v 0.03784158 0.03760000 0.04818574
v 0.03805584 0.03760000 0.04840000
v 0.03860000 0.03684158 0.04818574
v 0.03860000 0.03705584 0.04840000
f 1 2 3
f 2 4 3
f 1 6 2
f 2 6 4
f 14 1 3
f 4 14 3
f 8 15 4
f 9 1 5
f 1 17 5
f 1 9 6
f 6 8 4
f 8 6 7
f 7 6 9
f 8 7 12
f 13 8 12
f 13 22 8
f 9 5 10
f 7 9 11
f 7 11 12
f 9 13 11
f 5 26 10
f 11 13 12
f 9 26 13
f 26 9 10
f 17 1 14
f 4 15 14
f 14 15 16
f 17 14 16
f 16 15 19
f 22 21 15
f 19 15 20
f 15 21 20
f 5 17 18
f 26 5 18
f 17 16 19
f 21 18 17
f 21 17 19
f 21 19 20
f 18 21 24
f 8 22 15
f 22 13 23
f 13 26 23
f 24 21 22
f 18 24 28
f 26 18 28
f 24 22 23
f 23 26 25
f 27 23 25
f 24 23 27
f 24 27 28
f 26 27 25
f 26 28 27

