# https://github.com/mikedh/trimesh
v 0.03860000 0.03000000 0.12000000
v 0.03860000 0.03000000 0.12360000
v 0.03977004 0.03000000 0.12360000
v 0.03860000 0.03400000 0.12000000
v 0.03860000 0.03400000 0.12360000
v 0.04100000 0.03000000 0.12000000
v 0.04088471 0.03000000 0.12117054
v 0.03998882 0.03000000 0.12333342
v 0.04054328 0.03000000 0.12229610
v 0.04100000 0.03400000 0.12000000
v 0.04100000 0.03207686 0.12278036
v 0.04100000 0.03234151 0.12360000
v 0.04100000 0.03400000 0.12360000
f 2 4 1
f 6 2 1
f 4 6 1
f 2 8 3
f 13 2 3
f 4 2 5
f 2 13 5
f 13 4 5
f 8 6 7
f 6 12 7
f 2 6 8
f 12 3 8
f 8 7 9
f 7 12 9
f 12 8 9
f 6 11 12
f 6 4 10
f 4 13 10
f 13 6 10
f 6 13 11
f 13 3 12
f 11 13 12

