# https://github.com/mikedh/trimesh
v 0.03500000 0.03000000 0.12360000
v 0.03500000 0.03000000 0.12600000
v 0.03617054 0.03000000 0.12588471
v 0.03500000 0.03400000 0.12360000
v 0.03500000 0.03400000 0.12600000
v 0.03617054 0.03400000 0.12588471
v 0.03860000 0.03000000 0.12360000
v 0.03860000 0.03000000 0.12477004
v 0.03729610 0.03000000 0.12554328
v 0.03833342 0.03000000 0.12498882
v 0.03860000 0.03400000 0.12360000
v 0.03860000 0.03400000 0.12544469
f 2 4 1
f 7 2 1
f 4 7 1
f 6 2 3
f 2 10 3
f 4 2 5
f 5 2 6
f 12 4 5
f 12 5 6
f 10 7 8
f 7 12 8
f 2 7 10
f 3 10 9
f 12 3 9
f 10 12 9
f 12 10 8
f 7 4 11
f 4 12 11
f 12 7 11
f 12 6 3

