# https://github.com/mikedh/trimesh
v 0.03500000 -0.04000000 0.06200000
v 0.03617054 -0.03988471 0.06200000
v 0.03500000 -0.04000000 0.08600000
v 0.03617054 -0.03988471 0.08600000
v 0.03500000 -0.03760000 0.06200000
v 0.03500000 -0.03760000 0.08600000
v 0.03729610 -0.03954328 0.06200000
v 0.03833342 -0.03898882 0.06200000
v 0.03729610 -0.03954328 0.08600000
v 0.03860000 -0.04000000 0.07500000
v 0.03860000 -0.03992314 0.07578036
v 0.03833342 -0.03898882 0.08600000
v 0.03860000 -0.03877004 0.06200000
v 0.03860000 -0.03760000 0.06200000
v 0.03860000 -0.03877004 0.08600000
v 0.03860000 -0.03760000 0.08600000
f 3 5 1
f 10 1 2
f 1 8 2
f 5 8 1
f 3 1 10
f 3 10 4
f 12 3 4
f 5 3 6
f 3 16 6
f 16 5 6
f 10 2 7
f 2 8 7
f 8 10 7
f 10 8 13
f 4 10 9
f 12 4 9
f 16 3 12
f 10 11 9
f 10 15 11
f 11 12 9
f 11 15 12
f 8 5 14
f 5 16 14
f 14 10 13
f 8 14 13
f 10 14 16
f 10 16 15
f 16 12 15

