# https://github.com/mikedh/trimesh
v -0.03900000 -0.02496580 0.05483993
v -0.03900000 -0.02400585 0.05451407
v -0.03900000 -0.02301158 0.05431630
v -0.03900000 -0.02200000 0.05425000
v -0.03900000 -0.02587500 0.05528830
v -0.03900000 -0.02671790 0.05585151
v -0.03900000 -0.02700000 0.05609891
v -0.03900000 -0.02700000 0.05800000
v -0.03900000 -0.00600000 0.05425000
v -0.03900000 -0.00600000 0.05800000
v -0.03660000 -0.02496580 0.05483993
v -0.03660000 -0.02400585 0.05451407
v -0.03660000 -0.02301158 0.05431630
v -0.03660000 -0.02200000 0.05425000
v -0.03660000 -0.02587500 0.05528830
v -0.03660000 -0.02671790 0.05585151
v -0.03660000 -0.02700000 0.05609891
v -0.03660000 -0.02700000 0.05800000
v -0.03660000 -0.00600000 0.05425000
v -0.03660000 -0.00600000 0.05800000
f 7 3 1
f 1 3 2
f 7 1 5
f 7 5 6
f 3 9 4
f 8 9 3
f 1 2 11
f 1 11 5
f 3 13 2
f 14 3 4
f 6 5 15
f 17 7 6
f 9 14 4
f 8 3 7
f 18 8 7
f 9 8 10
f 8 20 10
f 20 9 10
f 11 15 5
f 2 13 12
f 11 2 12
f 13 3 14
f 6 15 16
f 17 6 16
f 13 17 11
f 13 11 12
f 11 17 15
f 15 17 16
f 14 19 13
f 18 7 17
f 20 8 18
f 13 18 17
f 13 20 18
f 9 19 14
f 9 20 19
f 20 13 19

