# https://github.com/mikedh/trimesh
v 0.03200000 0.03317157 0.11917157
v 0.03200000 0.03267412 0.11977772
v 0.03200000 0.03255531 0.12000000
v 0.03200000 0.03377772 0.11867412
v 0.03200000 0.03400000 0.11855531
v 0.03200000 0.03400000 0.12000000
v 0.03500000 0.03317157 0.11917157
v 0.03500000 0.03267412 0.11977772
v 0.03500000 0.03255531 0.12000000
v 0.03500000 0.03377772 0.11867412
v 0.03500000 0.03400000 0.11855531
v 0.03500000 0.03400000 0.12000000
f 3 1 2
f 6 1 3
f 1 8 2
f 9 3 2
f 9 6 3
f 5 4 1
f 6 5 1
f 7 1 4
f 5 11 4
f 11 5 6
f 11 9 7
f 8 9 2
f 1 7 8
f 8 7 9
f 7 4 10
f 4 11 10
f 11 7 10
f 6 9 12
f 11 6 12
f 9 11 12

