# https://github.com/mikedh/trimesh
v 0.03500000 -0.04000000 0.11800000
v 0.03617054 -0.03988471 0.11800000
v 0.03500000 -0.04000000 0.12000000
v 0.03617054 -0.03988471 0.12000000
v 0.03500000 -0.03760000 0.11800000
v 0.03500000 -0.03760000 0.12000000
v 0.03729610 -0.03954328 0.11800000
v 0.03833342 -0.03898882 0.11800000
v 0.03860000 -0.03944469 0.12000000
v 0.03860000 -0.03877004 0.11800000
v 0.03860000 -0.03760000 0.11800000
v 0.03860000 -0.03760000 0.12000000
f 2 3 1
f 5 2 1
f 3 5 1
f 3 2 4
f 9 3 4
f 3 9 6
f 5 11 2
f 5 6 11
f 5 3 6
f 9 2 7
f 2 10 7
f 7 10 8
f 9 7 8
f 10 9 8
f 2 9 4
f 2 11 10
f 11 9 10
f 6 9 12
f 11 6 12
f 9 11 12

