# https://github.com/mikedh/trimesh
v -0.03900000 0.02700000 0.05800000
v -0.03900000 0.02700000 0.06200000
v -0.03900000 0.02862817 0.05800000
v -0.03900000 0.02871170 0.05812500
v -0.03900000 0.02916007 0.05903420
v -0.03900000 0.02948593 0.05999415
v -0.03900000 0.02968370 0.06098842
v -0.03900000 0.02975000 0.06200000
v -0.03660000 0.02700000 0.05800000
v -0.03660000 0.02700000 0.06200000
v -0.03660000 0.02862817 0.05800000
v -0.03660000 0.02871170 0.05812500
v -0.03660000 0.02916007 0.05903420
v -0.03660000 0.02948593 0.05999415
v -0.03660000 0.02968370 0.06098842
v -0.03660000 0.02975000 0.06200000
f 9 1 3
f 8 1 2
f 1 10 2
f 10 8 2
f 3 5 4
f 8 3 1
f 3 6 5
f 3 8 6
f 11 3 4
f 4 5 13
f 6 14 5
f 6 8 7
f 6 7 14
f 8 16 7
f 9 10 1
f 9 3 11
f 10 9 16
f 11 4 12
f 4 13 12
f 14 13 5
f 13 11 12
f 16 9 11
f 14 11 13
f 16 11 14
f 8 10 16
f 14 7 15
f 7 16 15
f 16 14 15

