# https://github.com/mikedh/trimesh
v 0.03860000 -0.03760000 0.12360000
v 0.03860000 -0.03760000 0.12565849
v 0.03860000 -0.03753073 0.12569552
v 0.03860000 -0.03678036 0.12592314
v 0.03860000 -0.03600000 0.12600000
v 0.03860000 -0.03400000 0.12360000
v 0.03860000 -0.03521964 0.12592314
v 0.03860000 -0.03446927 0.12569552
v 0.03860000 -0.03400000 0.12544469
v 0.04100000 -0.03760000 0.12360000
v 0.04100000 -0.03760000 0.12565849
v 0.04100000 -0.03753073 0.12569552
v 0.04100000 -0.03678036 0.12592314
v 0.04100000 -0.03600000 0.12600000
v 0.04100000 -0.03400000 0.12360000
v 0.04100000 -0.03521964 0.12592314
v 0.04100000 -0.03446927 0.12569552
v 0.04100000 -0.03400000 0.12544469
f 3 6 1
f 2 1 10
f 6 10 1
f 3 1 2
f 5 3 4
f 9 3 5
f 12 3 2
f 3 13 4
f 13 5 4
f 6 3 9
f 9 5 7
f 9 7 8
f 5 16 7
f 7 16 8
f 18 6 9
f 17 9 8
f 2 10 11
f 12 2 11
f 3 12 13
f 14 5 13
f 10 12 11
f 12 14 13
f 10 18 12
f 14 12 18
f 10 6 15
f 6 18 15
f 18 10 15
f 14 16 5
f 16 17 8
f 18 9 17
f 14 18 16
f 16 18 17

