# https://github.com/mikedh/trimesh
v 0.03500000 0.03760000 0.06200000
v 0.03500000 0.03760000 0.08600000
v 0.03500000 0.04000000 0.06200000
v 0.03617054 0.03988471 0.06200000
v 0.03500000 0.04000000 0.08600000
v 0.03617054 0.03988471 0.08600000
v 0.03860000 0.03760000 0.06200000
v 0.03860000 0.03877004 0.06200000
v 0.03860000 0.03760000 0.08600000
v 0.03860000 0.03877004 0.08600000
v 0.03729610 0.03954328 0.06200000
v 0.03833342 0.03898882 0.06200000
v 0.03729610 0.03954328 0.08600000
v 0.03833342 0.03898882 0.08600000
v 0.03860000 0.04000000 0.07500000
v 0.03860000 0.03992314 0.07578036
f 2 3 1
f 7 2 1
f 3 7 1
f 2 9 5
f 12 3 4
f 3 15 4
f 3 2 5
f 3 5 15
f 5 14 6
f 15 5 6
f 7 12 8
f 16 7 8
f 2 7 9
f 7 16 9
f 14 9 10
f 9 16 10
f 7 3 12
f 12 4 11
f 4 15 11
f 15 8 12
f 15 12 11
f 16 8 15
f 5 9 14
f 13 6 14
f 15 6 13
f 16 14 10
f 16 15 13
f 14 16 13

