# https://github.com/mikedh/trimesh
v -0.02355557 0.00600000 0.04856853
v -0.02383147 0.00600000 0.04884443
v -0.02370711 0.00600000 0.04869289
v -0.02338268 0.00600000 0.04847612
v -0.02319509 0.00600000 0.04841921
v -0.02392388 0.00600000 0.04901732
v -0.02398079 0.00600000 0.04920491
v -0.02300000 0.00600000 0.04840000
v -0.02400000 0.00600000 0.04940000
v -0.02400000 0.00600000 0.05200000
v -0.02355557 0.00700000 0.04856853
v -0.02383147 0.00700000 0.04884443
v -0.02370711 0.00700000 0.04869289
v -0.02376845 0.00721201 0.04879623
v -0.02360377 0.00721201 0.04863155
v -0.02338268 0.00700000 0.04847612
v -0.02319509 0.00700000 0.04841921
v -0.02340891 0.00720846 0.04851155
v -0.02320233 0.00720233 0.04844181
v -0.02392388 0.00700000 0.04901732
v -0.02398079 0.00700000 0.04920491
v -0.02388845 0.00720846 0.04899109
v -0.02395819 0.00720233 0.04919767
v -0.02363571 0.00743789 0.04876429
v -0.02342977 0.00742977 0.04860590
v -0.02320846 0.00740891 0.04851155
v -0.02379410 0.00742977 0.04897023
v -0.02388845 0.00740891 0.04919154
v -0.02300000 0.00700000 0.04840000
v -0.02300000 0.00719509 0.04841921
v -0.02300000 0.00738268 0.04847612
v -0.02400000 0.00700000 0.04940000
v -0.02398079 0.00719509 0.04940000
v -0.02392388 0.00738268 0.04940000
v -0.02321201 0.00760377 0.04863155
v -0.02343789 0.00763571 0.04876429
v -0.02376845 0.00760377 0.04918799
v -0.02363571 0.00763571 0.04896211
v -0.02321201 0.00776845 0.04879623
v -0.02360377 0.00776845 0.04918799
v -0.02342977 0.00779410 0.04897023
v -0.02320846 0.00788845 0.04899109
v -0.02340891 0.00788845 0.04919154
v -0.02320233 0.00795819 0.04919767
v -0.02300000 0.00755557 0.04856853
v -0.02300000 0.00770711 0.04869289
v -0.02300000 0.00783147 0.04884443
v -0.02300000 0.00792388 0.04901732
v -0.02300000 0.00798079 0.04920491
v -0.02383147 0.00755557 0.04940000
v -0.02370711 0.00770711 0.04940000
v -0.02355557 0.00783147 0.04940000
v -0.02338268 0.00792388 0.04940000
v -0.02319509 0.00798079 0.04940000
v -0.02300000 0.00800000 0.04940000
v -0.02400000 0.00700000 0.05200000
v -0.02398079 0.00719509 0.05200000
v -0.02392388 0.00738268 0.05200000
v -0.02383147 0.00755557 0.05200000
v -0.02370711 0.00770711 0.05200000
v -0.02355557 0.00783147 0.05200000
v -0.02338268 0.00792388 0.05200000
v -0.02319509 0.00798079 0.05200000
v -0.02300000 0.00800000 0.05200000
v -0.01700000 0.00600000 0.04840000
v -0.01680491 0.00600000 0.04841921
v -0.01661732 0.00600000 0.04847612
v -0.01644443 0.00600000 0.04856853
v -0.01629289 0.00600000 0.04869289
v -0.01616853 0.00600000 0.04884443
v -0.01607612 0.00600000 0.04901732
v -0.01601921 0.00600000 0.04920491
v -0.01600000 0.00600000 0.04940000
v -0.01600000 0.00600000 0.05200000
v -0.01700000 0.00700000 0.04840000
v -0.01680491 0.00700000 0.04841921
v -0.01661732 0.00700000 0.04847612
v -0.01700000 0.00719509 0.04841921
v -0.01679767 0.00720233 0.04844181
v -0.01659109 0.00720846 0.04851155
v -0.01644443 0.00700000 0.04856853
v -0.01629289 0.00700000 0.04869289
v -0.01616853 0.00700000 0.04884443
v -0.01639623 0.00721201 0.04863155
v -0.01623155 0.00721201 0.04879623
v -0.01607612 0.00700000 0.04901732
v -0.01601921 0.00700000 0.04920491
v -0.01611155 0.00720846 0.04899109
v -0.01604181 0.00720233 0.04919767
v -0.01700000 0.00738268 0.04847612
v -0.01679154 0.00740891 0.04851155
v -0.01657023 0.00742977 0.04860590
v -0.01636429 0.00743789 0.04876429
v -0.01620590 0.00742977 0.04897023
v -0.01611155 0.00740891 0.04919154
v -0.01600000 0.00700000 0.04940000
v -0.01601921 0.00719509 0.04940000
v -0.01607612 0.00738268 0.04940000
v -0.01700000 0.00755557 0.04856853
v -0.01678799 0.00760377 0.04863155
v -0.01700000 0.00770711 0.04869289
v -0.01656211 0.00763571 0.04876429
v -0.01623155 0.00760377 0.04918799
v -0.01636429 0.00763571 0.04896211
v -0.01678799 0.00776845 0.04879623
v -0.01700000 0.00783147 0.04884443
v -0.01657023 0.00779410 0.04897023
v -0.01700000 0.00792388 0.04901732
v -0.01679154 0.00788845 0.04899109
v -0.01700000 0.00798079 0.04920491
v -0.01679767 0.00795819 0.04919767
v -0.01659109 0.00788845 0.04919154
v -0.01639623 0.00776845 0.04918799
v -0.01616853 0.00755557 0.04940000
v -0.01629289 0.00770711 0.04940000
v -0.01700000 0.00800000 0.04940000
v -0.01680491 0.00798079 0.04940000
v -0.01661732 0.00792388 0.04940000
v -0.01644443 0.00783147 0.04940000
v -0.01600000 0.00700000 0.05200000
v -0.01601921 0.00719509 0.05200000
v -0.01607612 0.00738268 0.05200000
v -0.01616853 0.00755557 0.05200000
v -0.01629289 0.00770711 0.05200000
v -0.01700000 0.00800000 0.05200000
v -0.01680491 0.00798079 0.05200000
v -0.01661732 0.00792388 0.05200000
v -0.01644443 0.00783147 0.05200000
f 4 3 1
f 4 2 3
f 2 4 7
f 5 8 4
f 2 7 6
f 3 11 1
f 13 3 2
f 5 4 17
f 11 4 1
f 29 8 5
f 20 2 6
f 7 20 6
f 4 10 7
f 32 7 9
f 13 2 12
f 13 11 3
f 4 11 16
f 16 17 4
f 5 17 29
f 2 20 12
f 21 20 7
f 32 21 7
f 66 4 8
f 65 8 29
f 73 10 4
f 7 10 9
f 10 32 9
f 32 10 56
f 10 58 56
f 14 13 12
f 11 13 15
f 11 15 18
f 13 14 15
f 19 17 16
f 11 18 16
f 30 29 17
f 18 19 16
f 19 30 17
f 20 22 12
f 23 20 21
f 14 12 22
f 22 20 23
f 33 23 21
f 15 14 24
f 15 24 25
f 14 27 24
f 26 19 18
f 18 15 25
f 26 18 25
f 31 30 19
f 19 26 31
f 26 25 35
f 31 26 45
f 27 14 22
f 28 27 22
f 22 23 28
f 34 28 23
f 28 37 27
f 32 33 21
f 34 23 33
f 34 50 28
f 24 36 25
f 36 24 38
f 26 35 45
f 25 36 35
f 46 45 35
f 36 39 35
f 36 41 39
f 35 39 46
f 24 27 38
f 27 37 38
f 50 37 28
f 41 36 38
f 41 38 40
f 40 38 37
f 37 51 40
f 46 39 47
f 52 43 40
f 39 41 42
f 43 42 41
f 42 47 39
f 43 41 40
f 48 47 42
f 48 42 44
f 44 42 43
f 43 53 44
f 48 44 49
f 49 44 54
f 51 37 50
f 40 51 52
f 53 43 52
f 44 53 54
f 55 49 54
f 29 30 75
f 30 31 78
f 99 31 45
f 46 99 45
f 47 101 46
f 47 48 106
f 110 48 49
f 55 110 49
f 32 56 33
f 33 57 34
f 58 50 34
f 33 56 57
f 10 63 58
f 56 58 57
f 57 58 34
f 50 58 59
f 51 50 60
f 51 61 52
f 61 53 52
f 54 53 63
f 55 54 63
f 60 50 59
f 51 60 61
f 58 60 59
f 58 63 60
f 53 61 62
f 63 53 62
f 63 64 55
f 60 63 61
f 61 63 62
f 10 126 63
f 55 64 116
f 63 126 64
f 66 8 65
f 66 73 4
f 65 29 75
f 68 66 67
f 69 66 68
f 73 66 69
f 71 69 70
f 73 69 71
f 73 71 72
f 65 76 66
f 66 77 67
f 77 68 67
f 82 69 68
f 69 82 70
f 86 71 70
f 71 87 72
f 87 73 72
f 75 76 65
f 76 77 66
f 68 77 81
f 68 81 82
f 82 83 70
f 70 83 86
f 86 87 71
f 96 73 87
f 10 73 74
f 126 10 74
f 74 73 96
f 74 96 120
f 122 74 120
f 75 30 78
f 31 90 78
f 31 99 90
f 101 99 46
f 47 106 101
f 106 48 108
f 48 110 108
f 110 55 116
f 75 78 76
f 79 77 76
f 77 80 81
f 76 78 79
f 77 79 80
f 82 81 84
f 82 85 83
f 81 80 84
f 84 85 82
f 88 86 83
f 89 87 86
f 88 83 85
f 88 89 86
f 97 87 89
f 79 78 90
f 90 91 79
f 91 80 79
f 80 92 84
f 91 92 80
f 99 91 90
f 100 92 91
f 85 84 93
f 92 93 84
f 93 94 85
f 94 88 85
f 95 88 94
f 89 88 95
f 98 89 95
f 103 95 94
f 97 96 87
f 98 97 89
f 95 114 98
f 99 100 91
f 100 99 101
f 92 100 102
f 105 100 101
f 105 102 100
f 107 102 105
f 93 92 102
f 104 93 102
f 94 93 104
f 104 103 94
f 95 103 114
f 107 104 102
f 104 107 113
f 103 104 113
f 113 115 103
f 106 105 101
f 106 109 105
f 109 107 105
f 112 107 109
f 107 112 113
f 108 109 106
f 109 108 111
f 111 108 110
f 117 111 110
f 112 109 111
f 118 112 111
f 113 112 119
f 103 115 114
f 117 110 116
f 119 112 118
f 111 117 118
f 115 113 119
f 116 64 125
f 64 126 125
f 120 96 97
f 98 122 97
f 98 114 123
f 120 97 121
f 126 74 122
f 122 120 121
f 97 122 121
f 122 98 123
f 115 123 114
f 126 117 116
f 127 119 118
f 117 127 118
f 115 119 128
f 115 124 123
f 124 115 128
f 124 122 123
f 126 122 124
f 119 127 128
f 126 116 125
f 126 127 117
f 126 124 127
f 128 127 124

