# https://github.com/mikedh/trimesh
v -0.03660000 0.02518516 0.11145554
v -0.03660000 0.02545554 0.11118516
v -0.03660000 0.02530704 0.11130704
v -0.03660000 0.02509460 0.11162497
v -0.03660000 0.02503883 0.11180881
v -0.03660000 0.02562497 0.11109460
v -0.03660000 0.02580881 0.11103883
v -0.03660000 0.02502000 0.11200000
v -0.03660000 0.02503883 0.11219119
v -0.03660000 0.02509460 0.11237503
v -0.03660000 0.02518516 0.11254446
v -0.03660000 0.02530704 0.11269296
v -0.03660000 0.02545554 0.11281484
v -0.03660000 0.02562497 0.11290540
v -0.03660000 0.02580881 0.11296117
v -0.03660000 0.02600000 0.11102000
v -0.03660000 0.02619119 0.11103883
v -0.03660000 0.02637503 0.11109460
v -0.03660000 0.02654446 0.11118516
v -0.03660000 0.02669296 0.11130704
v -0.03660000 0.02681484 0.11145554
v -0.03660000 0.02690540 0.11162497
v -0.03660000 0.02696117 0.11180881
v -0.03660000 0.02600000 0.11298000
v -0.03660000 0.02619119 0.11296117
v -0.03660000 0.02637503 0.11290540
v -0.03660000 0.02698000 0.11200000
v -0.03660000 0.02696117 0.11219119
v -0.03660000 0.02690540 0.11237503
v -0.03660000 0.02669296 0.11269296
v -0.03660000 0.02654446 0.11281484
v -0.03660000 0.02681484 0.11254446
v -0.03300000 0.02518516 0.11145554
v -0.03300000 0.02545554 0.11118516
v -0.03300000 0.02530704 0.11130704
v -0.03300000 0.02509460 0.11162497
v -0.03300000 0.02503883 0.11180881
v -0.03300000 0.02562497 0.11109460
v -0.03300000 0.02580881 0.11103883
v -0.03300000 0.02502000 0.11200000
v -0.03300000 0.02503883 0.11219119
v -0.03300000 0.02509460 0.11237503
v -0.03300000 0.02518516 0.11254446
v -0.03300000 0.02530704 0.11269296
v -0.03300000 0.02545554 0.11281484
v -0.03300000 0.02562497 0.11290540
v -0.03300000 0.02580881 0.11296117
v -0.03300000 0.02600000 0.11102000
v -0.03300000 0.02619119 0.11103883
v -0.03300000 0.02637503 0.11109460
v -0.03300000 0.02654446 0.11118516
v -0.03300000 0.02669296 0.11130704
v -0.03300000 0.02681484 0.11145554
v -0.03300000 0.02690540 0.11162497
v -0.03300000 0.02696117 0.11180881
v -0.03300000 0.02600000 0.11298000
v -0.03300000 0.02619119 0.11296117
v -0.03300000 0.02637503 0.11290540
v -0.03300000 0.02698000 0.11200000
v -0.03300000 0.02696117 0.11219119
v -0.03300000 0.02690540 0.11237503
v -0.03300000 0.02669296 0.11269296
v -0.03300000 0.02654446 0.11281484
v -0.03300000 0.02681484 0.11254446
f 2 1 4
f 1 2 3
f 8 2 4
f 8 4 5
f 2 7 6
f 2 19 7
f 35 1 3
f 2 35 3
f 4 37 5
f 33 4 1
f 37 8 5
f 34 2 6
f 39 6 7
f 48 7 16
f 10 8 9
f 13 8 10
f 8 13 2
f 13 10 11
f 13 11 12
f 27 2 13
f 24 13 14
f 24 14 15
f 26 13 24
f 8 41 9
f 41 10 9
f 10 43 11
f 11 44 12
f 44 13 12
f 13 45 14
f 14 47 15
f 47 24 15
f 7 17 16
f 17 7 19
f 17 19 18
f 2 27 19
f 19 21 20
f 19 22 21
f 19 27 22
f 22 27 23
f 17 48 16
f 50 17 18
f 19 50 18
f 52 19 20
f 21 52 20
f 53 21 22
f 22 23 54
f 27 59 23
f 26 24 25
f 27 13 26
f 27 26 32
f 27 29 28
f 27 32 29
f 32 26 30
f 30 26 31
f 25 24 56
f 58 26 25
f 26 63 31
f 60 27 28
f 29 60 28
f 32 61 29
f 63 30 31
f 32 30 64
f 35 33 1
f 2 34 35
f 4 33 36
f 37 4 36
f 8 37 40
f 34 6 38
f 6 39 38
f 39 7 48
f 39 33 34
f 34 33 35
f 33 37 36
f 33 41 37
f 39 34 38
f 51 33 39
f 41 8 40
f 10 41 42
f 43 10 42
f 43 44 11
f 45 13 44
f 14 45 46
f 47 14 46
f 56 24 47
f 37 41 40
f 33 45 41
f 41 43 42
f 41 45 43
f 43 45 44
f 33 62 45
f 45 47 46
f 45 56 47
f 49 48 17
f 50 49 17
f 19 51 50
f 51 19 52
f 53 52 21
f 53 22 54
f 54 23 55
f 23 59 55
f 49 39 48
f 51 39 49
f 51 49 50
f 62 33 51
f 53 51 52
f 51 53 59
f 59 53 54
f 62 51 59
f 59 54 55
f 25 56 57
f 58 25 57
f 26 58 63
f 59 27 60
f 32 64 61
f 61 60 29
f 62 30 63
f 30 62 64
f 45 62 56
f 56 58 57
f 58 56 62
f 61 59 60
f 62 59 61
f 58 62 63
f 62 61 64

