# https://github.com/mikedh/trimesh
v -0.03777004 0.03400000 0.12360000
v -0.03764025 0.03517266 0.12360000
v -0.03762462 0.03527168 0.12360000
v -0.03761070 0.03527209 0.12362260
v -0.03761403 0.03530037 0.12360000
v -0.03724264 0.03400000 0.12424264
v -0.03660000 0.03400000 0.12360000
v -0.03660000 0.03400000 0.12477004
v -0.03662260 0.03527209 0.12461070
v -0.03660000 0.03530037 0.12461403
v -0.03660000 0.03517266 0.12464025
v -0.03660000 0.03527168 0.12462462
v -0.03697906 0.03661886 0.12360000
v -0.03681426 0.03662731 0.12381426
v -0.03681426 0.03684158 0.12360000
v -0.03660000 0.03705584 0.12360000
v -0.03660000 0.03684158 0.12381426
v -0.03660000 0.03661886 0.12397906
f 4 1 6
f 5 1 2
f 1 4 2
f 2 4 3
f 5 2 3
f 4 5 3
f 16 1 5
f 1 8 6
f 5 4 14
f 8 1 7
f 1 16 7
f 4 6 9
f 16 8 7
f 8 9 6
f 8 16 10
f 9 8 11
f 8 10 11
f 10 9 12
f 9 11 12
f 11 10 12
f 5 14 13
f 4 9 14
f 16 5 13
f 14 10 18
f 13 14 15
f 16 13 15
f 14 16 15
f 16 14 17
f 18 16 17
f 14 18 17
f 10 16 18
f 9 10 14

