# https://github.com/mikedh/trimesh
v 0.03860000 0.03400000 0.04840000
v 0.03977004 0.03400000 0.04840000
v 0.03964025 0.03517266 0.04840000
v 0.03962462 0.03527168 0.04840000
v 0.03961403 0.03530037 0.04840000
v 0.03860000 0.03400000 0.05200000
v 0.03897906 0.03661886 0.04840000
v 0.03860000 0.03705584 0.04840000
v 0.03881426 0.03684158 0.04840000
v 0.03860000 0.03760000 0.04894416
v 0.03881426 0.03760000 0.04915842
v 0.03897906 0.03760000 0.04938114
v 0.03976463 0.03657860 0.04942140
v 0.03860000 0.03760000 0.05200000
v 0.03961403 0.03760000 0.05069963
v 0.03962462 0.03760000 0.05072832
v 0.03964025 0.03760000 0.05082734
v 0.03977004 0.03760000 0.05200000
v 0.03998882 0.03400000 0.04866658
v 0.04033069 0.03525076 0.04954655
v 0.04054328 0.03400000 0.04970390
v 0.04088471 0.03400000 0.05082946
v 0.04100000 0.03400000 0.05200000
v 0.04074912 0.03521401 0.05078599
v 0.04088471 0.03517054 0.05200000
v 0.04033069 0.03645345 0.05074924
v 0.03998882 0.03733342 0.05200000
v 0.04054328 0.03629610 0.05200000
f 1 9 2
f 10 1 6
f 19 1 2
f 19 2 3
f 2 4 3
f 4 2 9
f 4 7 5
f 13 4 5
f 1 23 6
f 6 23 14
f 9 1 8
f 1 10 8
f 4 9 7
f 9 13 7
f 10 9 8
f 9 10 11
f 12 9 11
f 10 12 11
f 13 9 12
f 10 15 12
f 7 13 5
f 15 13 12
f 10 6 14
f 10 14 18
f 18 15 10
f 13 15 16
f 15 17 16
f 14 27 18
f 15 18 17
f 17 27 16
f 18 27 17
f 3 20 19
f 23 1 19
f 19 20 21
f 3 4 20
f 4 13 20
f 23 19 21
f 20 24 21
f 21 24 22
f 23 21 22
f 23 22 25
f 22 24 25
f 20 26 24
f 23 25 28
f 24 28 25
f 13 26 20
f 23 27 14
f 27 28 26
f 16 26 13
f 27 26 16
f 28 24 26
f 27 23 28

