# https://github.com/mikedh/trimesh
v -0.03870000 0.02437863 0.11091664
v -0.03870000 0.02462114 0.11062114
v -0.03870000 0.02419843 0.11125377
v -0.03870000 0.02408747 0.11161957
v -0.03870000 0.02491664 0.11037863
v -0.03870000 0.02525377 0.11019843
v -0.03800000 0.02437863 0.11091664
v -0.03800000 0.02462114 0.11062114
v -0.03800000 0.02419843 0.11125377
v -0.03800000 0.02408747 0.11161957
v -0.03800000 0.02491664 0.11037863
v -0.03800000 0.02525377 0.11019843
v -0.03870000 0.02405000 0.11200000
v -0.03870000 0.02408747 0.11238043
v -0.03870000 0.02419843 0.11274623
v -0.03870000 0.02437863 0.11308336
v -0.03870000 0.02462114 0.11337886
v -0.03870000 0.02491664 0.11362137
v -0.03870000 0.02525377 0.11380157
v -0.03800000 0.02405000 0.11200000
v -0.03800000 0.02408747 0.11238043
v -0.03800000 0.02419843 0.11274623
v -0.03800000 0.02437863 0.11308336
v -0.03800000 0.02462114 0.11337886
v -0.03800000 0.02491664 0.11362137
v -0.03800000 0.02525377 0.11380157
v -0.03870000 0.02561957 0.11008747
v -0.03870000 0.02600000 0.11005000
v -0.03870000 0.02638043 0.11008747
v -0.03870000 0.02674623 0.11019843
v -0.03870000 0.02700000 0.11033408
v -0.03800000 0.02561957 0.11008747
v -0.03800000 0.02600000 0.11005000
v -0.03800000 0.02638043 0.11008747
v -0.03800000 0.02674623 0.11019843
v -0.03800000 0.02700000 0.11033408
v -0.03870000 0.02561957 0.11391253
v -0.03870000 0.02600000 0.11395000
v -0.03870000 0.02638043 0.11391253
v -0.03870000 0.02674623 0.11380157
v -0.03870000 0.02700000 0.11366592
v -0.03800000 0.02561957 0.11391253
v -0.03800000 0.02600000 0.11395000
v -0.03800000 0.02700000 0.11218368
v -0.03800000 0.02638043 0.11391253
v -0.03800000 0.02674623 0.11380157
v -0.03800000 0.02700000 0.11366592
v -0.03660000 0.02509460 0.11162497
v -0.03660000 0.02503883 0.11180881
v -0.03660000 0.02518516 0.11145554
v -0.03660000 0.02530704 0.11130704
v -0.03660000 0.02545554 0.11118516
v -0.03660000 0.02502000 0.11200000
v -0.03660000 0.02503883 0.11219119
v -0.03660000 0.02509460 0.11237503
v -0.03660000 0.02518516 0.11254446
v -0.03660000 0.02530704 0.11269296
v -0.03660000 0.02545554 0.11281484
v -0.03660000 0.02600000 0.11102000
v -0.03660000 0.02562497 0.11109460
v -0.03660000 0.02580881 0.11103883
v -0.03660000 0.02619119 0.11103883
v -0.03660000 0.02637503 0.11109460
v -0.03660000 0.02654446 0.11118516
v -0.03660000 0.02669296 0.11130704
v -0.03660000 0.02681484 0.11145554
v -0.03660000 0.02690540 0.11162497
v -0.03660000 0.02696117 0.11180881
v -0.03660000 0.02562497 0.11290540
v -0.03660000 0.02580881 0.11296117
v -0.03660000 0.02619119 0.11296117
v -0.03660000 0.02600000 0.11298000
v -0.03660000 0.02637503 0.11290540
v -0.03660000 0.02654446 0.11281484
v -0.03660000 0.02698000 0.11200000
v -0.03660000 0.02696117 0.11219119
v -0.03660000 0.02690540 0.11237503
v -0.03660000 0.02669296 0.11269296
v -0.03660000 0.02681484 0.11254446
f 3 2 1
f 2 7 1
f 8 2 5
f 7 2 8
f 13 2 3
f 3 10 4
f 7 3 1
f 13 3 4
f 10 13 4
f 10 3 9
f 9 3 7
f 13 10 20
f 12 5 6
f 13 28 2
f 2 28 5
f 6 5 28
f 32 6 27
f 11 8 5
f 5 12 11
f 32 12 6
f 14 15 13
f 13 20 14
f 17 13 15
f 21 15 14
f 15 23 16
f 20 21 14
f 15 21 22
f 23 15 22
f 17 15 16
f 23 17 16
f 17 24 18
f 24 17 23
f 38 28 13
f 13 17 38
f 19 17 18
f 19 18 26
f 38 17 19
f 19 42 37
f 18 24 25
f 26 18 25
f 19 26 42
f 6 28 27
f 28 32 27
f 34 28 29
f 32 28 33
f 28 34 33
f 28 31 29
f 34 29 30
f 30 29 31
f 31 36 30
f 34 30 35
f 35 30 36
f 44 36 31
f 28 38 31
f 38 19 37
f 42 38 37
f 38 43 39
f 38 42 43
f 43 45 39
f 31 38 41
f 47 31 41
f 31 47 44
f 41 38 39
f 39 46 40
f 41 39 40
f 46 41 40
f 45 46 39
f 47 41 46
f 7 8 50
f 53 20 10
f 9 7 48
f 9 48 10
f 8 11 52
f 12 32 60
f 11 12 52
f 10 48 49
f 53 10 49
f 60 52 12
f 48 7 50
f 8 51 50
f 51 8 52
f 51 53 48
f 48 53 49
f 51 48 50
f 60 51 52
f 59 53 51
f 53 21 20
f 21 55 22
f 55 23 22
f 56 24 23
f 24 58 25
f 58 26 25
f 21 53 54
f 55 21 54
f 56 23 55
f 57 24 56
f 24 57 58
f 53 55 54
f 53 57 55
f 55 57 56
f 53 72 57
f 57 69 58
f 69 26 58
f 59 32 33
f 34 59 33
f 34 35 63
f 63 35 36
f 44 75 36
f 60 32 61
f 32 59 61
f 59 34 62
f 59 51 60
f 59 60 61
f 63 59 62
f 53 59 75
f 34 63 62
f 63 36 64
f 36 65 64
f 65 36 66
f 36 67 66
f 67 36 68
f 36 75 68
f 65 59 63
f 65 63 64
f 75 59 65
f 67 65 66
f 75 65 67
f 75 67 68
f 42 26 70
f 42 72 43
f 72 45 43
f 47 75 44
f 46 45 73
f 73 47 46
f 57 72 69
f 72 70 69
f 53 75 72
f 72 73 71
f 26 69 70
f 72 42 70
f 45 72 71
f 75 47 76
f 47 78 79
f 77 47 79
f 47 77 76
f 72 78 73
f 72 75 78
f 73 78 74
f 77 75 76
f 78 75 77
f 78 77 79
f 73 45 71
f 47 73 74
f 78 47 74

