# https://github.com/mikedh/trimesh
v -0.00098000 0.00000000 0.00000000
v -0.00096117 0.00019119 0.00000000
v -0.00090540 0.00037503 0.00000000
v -0.00098000 0.00000000 0.00200000
v -0.00096117 0.00019119 0.00200000
v -0.00090540 0.00037503 0.00200000
v -0.00081484 0.00054446 0.00000000
v -0.00069296 0.00069296 0.00000000
v -0.00054446 0.00081484 0.00000000
v -0.00081484 0.00054446 0.00200000
v -0.00069296 0.00069296 0.00200000
v -0.00054446 0.00081484 0.00200000
v 0.00000000 0.00000000 0.00000000
v 0.00000000 0.00000000 0.00200000
v -0.00037503 0.00090540 0.00000000
v -0.00019119 0.00096117 0.00000000
v 0.00000000 0.00098000 0.00000000
v -0.00037503 0.00090540 0.00200000
v -0.00019119 0.00096117 0.00200000
v 0.00000000 0.00098000 0.00200000
f 3 1 2
f 1 5 2
f 8 1 3
f 5 3 2
f 3 10 7
f 8 13 1
f 13 4 1
f 1 4 5
f 4 6 5
f 6 3 5
f 6 10 3
f 4 11 6
f 8 3 7
f 10 8 7
f 15 8 9
f 8 12 9
f 6 11 10
f 11 8 10
f 8 11 12
f 4 20 11
f 11 18 12
f 4 13 14
f 20 4 14
f 13 20 14
f 17 8 15
f 12 15 9
f 16 15 18
f 17 13 8
f 17 20 13
f 17 15 16
f 20 17 16
f 18 15 12
f 16 18 19
f 18 11 20
f 20 16 19
f 18 20 19

