# https://github.com/mikedh/trimesh
v 0.00600000 0.00000000 0.00600000
v 0.00600000 0.00000000 0.02600000
v 0.00600000 0.00480000 0.00600000
v 0.00602306 0.00503411 0.00600000
v 0.00609134 0.00525922 0.00600000
v 0.00620224 0.00546668 0.00600000
v 0.00635147 0.00564853 0.00600000
v 0.00653332 0.00579776 0.00600000
v 0.00674078 0.00590866 0.00600000
v 0.00696589 0.00597694 0.00600000
v 0.00720000 0.00600000 0.00600000
v 0.00600000 0.00480000 0.02600000
v 0.00602306 0.00503411 0.02600000
v 0.00609134 0.00525922 0.02600000
v 0.00620224 0.00546668 0.02600000
v 0.00635147 0.00564853 0.02600000
v 0.00653332 0.00579776 0.02600000
v 0.00674078 0.00590866 0.02600000
v 0.00696589 0.00597694 0.02600000
v 0.00720000 0.00600000 0.02600000
v 0.01000000 0.00000000 0.00600000
v 0.01000000 0.00000000 0.02600000
v 0.00880000 0.00600000 0.00600000
v 0.00903411 0.00597694 0.00600000
v 0.00925922 0.00590866 0.00600000
v 0.00946668 0.00579776 0.00600000
v 0.01000000 0.00480000 0.00600000
v 0.00997694 0.00503411 0.00600000
v 0.00964853 0.00564853 0.00600000
v 0.00979776 0.00546668 0.00600000
v 0.00990866 0.00525922 0.00600000
v 0.00880000 0.00600000 0.02600000
v 0.00903411 0.00597694 0.02600000
v 0.00925922 0.00590866 0.02600000
v 0.00946668 0.00579776 0.02600000
v 0.01000000 0.00480000 0.02600000
v 0.00997694 0.00503411 0.02600000
v 0.00964853 0.00564853 0.02600000
v 0.00979776 0.00546668 0.02600000
v 0.00990866 0.00525922 0.02600000
f 1 2 3
f 2 1 21
f 11 21 1
f 11 1 3
f 6 3 4
f 6 4 5
f 3 6 10
f 8 6 7
f 11 3 10
f 6 8 10
f 10 8 9
f 3 12 4
f 4 13 5
f 15 6 5
f 6 16 7
f 16 8 7
f 8 18 9
f 18 10 9
f 11 10 20
f 3 2 12
f 2 15 12
f 4 12 13
f 5 13 14
f 15 5 14
f 6 15 16
f 16 17 8
f 17 18 8
f 19 10 18
f 12 15 13
f 13 15 14
f 15 17 16
f 15 19 17
f 17 19 18
f 2 35 15
f 10 19 20
f 20 32 11
f 15 35 19
f 19 32 20
f 2 21 22
f 35 2 22
f 36 22 21
f 24 11 23
f 11 24 31
f 11 32 23
f 32 24 23
f 21 11 31
f 21 31 27
f 36 21 27
f 24 25 26
f 31 24 26
f 27 31 28
f 31 26 30
f 30 26 29
f 24 33 25
f 35 26 25
f 37 27 28
f 31 37 28
f 38 30 29
f 26 38 29
f 39 31 30
f 24 32 33
f 19 35 32
f 35 22 36
f 25 33 34
f 35 25 34
f 36 27 37
f 37 31 40
f 39 30 38
f 26 35 38
f 31 39 40
f 32 35 33
f 33 35 34
f 39 36 37
f 35 39 38
f 35 36 39
f 39 37 40

