# https://github.com/mikedh/trimesh
v 0.03860000 -0.03760000 0.11800000
v 0.03977004 -0.03760000 0.11800000
v 0.03860000 -0.03760000 0.12000000
v 0.03860000 -0.03400000 0.11800000
v 0.03860000 -0.03400000 0.12000000
v 0.03998882 -0.03733342 0.11800000
v 0.04100000 -0.03753073 0.11830448
v 0.04100000 -0.03760000 0.11834151
v 0.04100000 -0.03678036 0.11807686
v 0.04100000 -0.03600000 0.11800000
v 0.04100000 -0.03760000 0.12000000
v 0.04100000 -0.03400000 0.11800000
v 0.04100000 -0.03400000 0.12000000
f 1 3 4
f 8 1 2
f 1 10 2
f 11 3 1
f 12 1 4
f 4 3 5
f 3 13 5
f 13 4 5
f 9 2 6
f 2 10 6
f 11 1 8
f 1 12 10
f 7 8 2
f 7 2 9
f 10 9 6
f 10 7 9
f 7 11 8
f 12 7 10
f 13 3 11
f 7 13 11
f 4 13 12
f 13 7 12

