# https://github.com/mikedh/trimesh
v 0.03860000 -0.03400000 0.12360000
v 0.03860000 -0.03400000 0.12544469
v 0.03860000 -0.03000000 0.12360000
v 0.03977004 -0.03000000 0.12360000
v 0.03924264 -0.03000000 0.12424264
v 0.03860000 -0.03000000 0.12477004
v 0.04100000 -0.03400000 0.12360000
v 0.04100000 -0.03234151 0.12360000
v 0.04100000 -0.03267412 0.12422228
v 0.04100000 -0.03317157 0.12482843
v 0.04100000 -0.03377772 0.12532588
v 0.04100000 -0.03400000 0.12544469
f 2 3 1
f 7 2 1
f 3 7 1
f 2 12 6
f 4 3 6
f 7 3 4
f 4 6 5
f 3 2 6
f 5 6 11
f 12 7 8
f 7 4 8
f 10 8 9
f 2 7 12
f 6 12 11
f 12 8 10
f 12 10 11
f 10 5 11
f 10 4 5
f 8 4 9
f 4 10 9

