# https://github.com/mikedh/trimesh
v -0.03854328 0.03400000 0.04970390
v -0.03798882 0.03400000 0.04866658
v -0.03833069 0.03525076 0.04954655
v -0.03888471 0.03400000 0.05082946
v -0.03900000 0.03400000 0.05200000
v -0.03874912 0.03521401 0.05078599
v -0.03888471 0.03517054 0.05200000
v -0.03854328 0.03629610 0.05200000
v -0.03833069 0.03645345 0.05074924
v -0.03798882 0.03733342 0.05200000
v -0.03777004 0.03400000 0.04840000
v -0.03764025 0.03517266 0.04840000
v -0.03762462 0.03527168 0.04840000
v -0.03761403 0.03530037 0.04840000
v -0.03660000 0.03400000 0.04840000
v -0.03660000 0.03400000 0.05200000
v -0.03776463 0.03657860 0.04942140
v -0.03697906 0.03661886 0.04840000
v -0.03681426 0.03684158 0.04840000
v -0.03660000 0.03705584 0.04840000
v -0.03681426 0.03760000 0.04915842
v -0.03660000 0.03760000 0.04894416
v -0.03697906 0.03760000 0.04938114
v -0.03761403 0.03760000 0.05069963
v -0.03762462 0.03760000 0.05072832
v -0.03764025 0.03760000 0.05082734
v -0.03777004 0.03760000 0.05200000
v -0.03660000 0.03760000 0.05200000
f 2 4 1
f 6 3 1
f 3 12 2
f 2 1 3
f 15 5 2
f 13 12 3
f 13 3 14
f 3 17 14
f 4 6 1
f 2 5 4
f 4 5 7
f 6 4 7
f 9 3 6
f 5 8 7
f 8 6 7
f 9 17 3
f 9 6 8
f 5 27 8
f 9 8 10
f 17 9 24
f 9 25 24
f 25 9 26
f 27 10 8
f 26 9 10
f 11 2 12
f 13 11 12
f 15 2 11
f 19 11 13
f 14 18 13
f 19 15 11
f 22 16 15
f 5 15 16
f 5 16 27
f 17 18 14
f 24 23 17
f 19 13 18
f 17 19 18
f 15 19 20
f 22 15 20
f 19 17 23
f 19 22 20
f 21 22 19
f 21 19 23
f 25 21 23
f 21 27 22
f 25 23 24
f 27 21 25
f 27 25 26
f 27 26 10
f 16 22 28
f 27 16 28
f 22 27 28

