# https://github.com/mikedh/trimesh
v -0.00992388 -0.00538268 0.00200000
v -0.00983147 -0.00555557 0.00200000
v -0.00970711 -0.00570711 0.00200000
v -0.00955557 -0.00583147 0.00200000
v -0.00998079 -0.00519509 0.00200000
v -0.01000000 -0.00500000 0.00200000
v -0.00938268 -0.00592388 0.00200000
v -0.00919509 -0.00598079 0.00200000
v -0.00900000 -0.00600000 0.00200000
v -0.00990866 -0.00525922 0.00300000
v -0.00979776 -0.00546668 0.00300000
v -0.00964853 -0.00564853 0.00300000
v -0.00997694 -0.00503411 0.00300000
v -0.01000000 -0.00480000 0.00300000
v -0.00946668 -0.00579776 0.00300000
v -0.00925922 -0.00590866 0.00300000
v -0.00903411 -0.00597694 0.00300000
v -0.00880000 -0.00600000 0.00300000
v -0.01000000 0.00000000 0.00200000
v -0.01000000 0.00000000 0.00300000
v -0.00600000 -0.00600000 0.00200000
v -0.00600000 -0.00598079 0.00219509
v -0.00600000 -0.00592388 0.00238268
v -0.00720000 -0.00600000 0.00300000
v -0.00600000 -0.00583147 0.00255557
v -0.00600000 -0.00570711 0.00270711
v -0.00696589 -0.00597694 0.00300000
v -0.00674078 -0.00590866 0.00300000
v -0.00653332 -0.00579776 0.00300000
v -0.00600000 -0.00555557 0.00283147
v -0.00635147 -0.00564853 0.00300000
v -0.00600000 -0.00538268 0.00292388
v -0.00620224 -0.00546668 0.00300000
v -0.00609134 -0.00525922 0.00300000
v -0.00600000 -0.00519509 0.00298079
v -0.00600000 -0.00500000 0.00300000
v -0.00600000 0.00000000 0.00200000
v -0.00600000 0.00000000 0.00300000
f 6 2 1
f 2 7 3
f 7 4 3
f 6 1 5
f 2 9 7
f 7 9 8
f 5 1 10
f 2 10 1
f 12 2 3
f 15 3 4
f 6 5 13
f 7 16 4
f 17 7 8
f 9 17 8
f 19 2 6
f 2 21 9
f 19 21 2
f 11 2 12
f 2 11 10
f 15 12 3
f 5 10 13
f 14 6 13
f 16 15 4
f 16 7 17
f 16 11 12
f 10 14 13
f 16 12 15
f 18 11 16
f 18 16 17
f 20 6 14
f 11 20 10
f 10 20 14
f 18 17 9
f 18 33 11
f 20 19 6
f 38 20 11
f 38 19 20
f 21 18 9
f 21 23 22
f 24 21 22
f 21 30 23
f 18 21 24
f 27 18 24
f 33 18 27
f 38 11 33
f 27 24 22
f 27 22 23
f 23 26 25
f 21 35 30
f 25 28 23
f 30 26 23
f 27 23 28
f 29 27 28
f 33 27 29
f 29 28 25
f 26 29 25
f 30 31 26
f 31 29 26
f 33 29 31
f 30 32 31
f 30 35 32
f 32 33 31
f 35 33 32
f 33 35 34
f 36 33 34
f 35 36 34
f 21 38 35
f 38 33 36
f 35 38 36
f 21 19 37
f 19 38 37
f 38 21 37

