# https://github.com/mikedh/trimesh
v 0.03860000 0.03400000 0.11800000
v 0.03860000 0.03400000 0.12000000
v 0.03860000 0.03760000 0.11800000
v 0.03977004 0.03760000 0.11800000
v 0.03860000 0.03760000 0.12000000
v 0.04100000 0.03400000 0.11800000
v 0.04100000 0.03400000 0.12000000
v 0.03998882 0.03733342 0.11800000
v 0.04100000 0.03600000 0.11800000
v 0.04100000 0.03678036 0.11807686
v 0.04100000 0.03753073 0.11830448
v 0.04100000 0.03760000 0.11834151
v 0.04100000 0.03760000 0.12000000
f 2 3 1
f 6 2 1
f 3 6 1
f 9 3 4
f 3 12 4
f 3 2 5
f 2 13 5
f 13 3 5
f 2 6 7
f 13 2 7
f 6 13 7
f 6 3 9
f 9 4 8
f 4 10 8
f 3 13 12
f 12 6 9
f 13 6 12
f 10 9 8
f 10 4 11
f 4 12 11
f 12 9 10
f 12 10 11

