# https://github.com/mikedh/trimesh
v 0.01200000 -0.03760000 0.12360000
v 0.01200000 -0.03760000 0.12477004
v 0.01200000 -0.03733342 0.12498882
v 0.01200000 -0.03629610 0.12554328
v 0.01200000 -0.03400000 0.12360000
v 0.01200000 -0.03517054 0.12588471
v 0.01200000 -0.03400000 0.12600000
v 0.02400000 -0.03760000 0.12360000
v 0.02400000 -0.03760000 0.12477004
v 0.02400000 -0.03733342 0.12498882
v 0.02400000 -0.03629610 0.12554328
v 0.02400000 -0.03400000 0.12360000
v 0.02400000 -0.03517054 0.12588471
v 0.02400000 -0.03400000 0.12600000
f 3 1 2
f 3 5 1
f 1 9 2
f 5 8 1
f 7 3 4
f 9 3 2
f 4 3 10
f 6 4 11
f 7 5 3
f 7 4 6
f 7 14 5
f 14 7 6
f 1 8 9
f 8 10 9
f 3 9 10
f 4 10 11
f 8 14 10
f 11 10 14
f 8 5 12
f 5 14 12
f 14 8 12
f 6 11 13
f 14 6 13
f 11 14 13

