# https://github.com/mikedh/trimesh
v 0.03500000 0.03760000 0.12000000
v 0.03500000 0.03760000 0.12360000
v 0.03500000 0.04000000 0.12000000
v 0.03617054 0.03988471 0.12000000
v 0.03500000 0.04000000 0.12200000
v 0.03500000 0.03965849 0.12360000
v 0.03500000 0.03969552 0.12353073
v 0.03500000 0.03992314 0.12278036
v 0.03860000 0.03760000 0.12000000
v 0.03860000 0.03760000 0.12360000
v 0.03860000 0.03944469 0.12000000
v 0.03860000 0.03969552 0.12046927
v 0.03860000 0.03992314 0.12121964
v 0.03860000 0.04000000 0.12200000
v 0.03860000 0.03965849 0.12360000
v 0.03860000 0.03969552 0.12353073
v 0.03860000 0.03992314 0.12278036
f 2 3 1
f 9 2 1
f 3 9 1
f 11 3 4
f 3 13 4
f 14 3 5
f 3 2 6
f 3 6 5
f 5 6 8
f 8 6 7
f 2 15 6
f 17 5 8
f 6 16 7
f 16 8 7
f 2 9 10
f 15 2 10
f 9 15 10
f 9 3 11
f 3 14 13
f 15 9 11
f 12 11 4
f 13 12 4
f 13 11 12
f 14 11 13
f 14 5 17
f 6 15 16
f 17 8 16
f 15 11 14
f 15 14 17
f 15 17 16

