# https://github.com/mikedh/trimesh
v 0.03860000 0.03760000 0.12000000
v 0.03860000 0.03760000 0.12360000
v 0.03860000 0.03944469 0.12000000
v 0.03860000 0.03969552 0.12046927
v 0.03860000 0.03992314 0.12121964
v 0.03860000 0.04000000 0.12200000
v 0.03860000 0.03965849 0.12360000
v 0.03860000 0.03969552 0.12353073
v 0.03860000 0.03992314 0.12278036
v 0.04100000 0.03760000 0.12000000
v 0.04100000 0.03760000 0.12360000
v 0.04100000 0.03944469 0.12000000
v 0.04100000 0.03969552 0.12046927
v 0.04100000 0.03992314 0.12121964
v 0.04100000 0.04000000 0.12200000
v 0.04100000 0.03965849 0.12360000
v 0.04100000 0.03969552 0.12353073
v 0.04100000 0.03992314 0.12278036
f 2 3 1
f 10 2 1
f 3 10 1
f 3 5 4
f 3 6 5
f 12 3 4
f 5 14 4
f 6 15 5
f 3 2 8
f 8 2 7
f 3 8 6
f 6 8 9
f 2 16 7
f 6 9 15
f 16 8 7
f 8 17 9
f 2 10 11
f 2 11 16
f 10 17 11
f 10 3 12
f 12 4 13
f 4 14 13
f 5 15 14
f 17 10 12
f 14 12 13
f 15 12 14
f 15 9 18
f 17 8 16
f 9 17 18
f 16 11 17
f 17 12 15
f 17 15 18

