# https://github.com/mikedh/trimesh
v -0.03561886 -0.03797906 0.12360000
v -0.03584158 -0.03781426 0.12360000
v -0.03605584 -0.03760000 0.12360000
v -0.03584158 -0.03760000 0.12381426
v -0.03562731 -0.03781426 0.12381426
v -0.03561886 -0.03760000 0.12397906
v -0.03427168 -0.03862462 0.12360000
v -0.03417266 -0.03864025 0.12360000
v -0.03430037 -0.03861403 0.12360000
v -0.03427209 -0.03861070 0.12362260
v -0.03300000 -0.03877004 0.12360000
v -0.03300000 -0.03824264 0.12424264
v -0.03300000 -0.03760000 0.12360000
v -0.03430037 -0.03760000 0.12461403
v -0.03427209 -0.03762260 0.12461070
v -0.03427168 -0.03760000 0.12462462
v -0.03417266 -0.03760000 0.12464025
v -0.03300000 -0.03760000 0.12477004
f 9 10 5
f 3 9 1
f 1 5 2
f 3 1 2
f 5 3 2
f 3 5 4
f 6 3 4
f 5 6 4
f 14 3 6
f 9 5 1
f 10 15 5
f 5 14 6
f 15 14 5
f 9 8 7
f 8 10 7
f 10 9 7
f 9 11 8
f 11 10 8
f 3 11 9
f 10 11 12
f 11 18 12
f 11 3 13
f 10 12 15
f 3 18 13
f 18 11 13
f 18 3 14
f 14 15 16
f 17 14 16
f 15 17 16
f 18 14 17
f 15 18 17
f 18 15 12

