# https://github.com/mikedh/trimesh
v 0.00000000 -0.00200000 -0.00340000
v 0.00000000 -0.00110000 -0.00340000
v 0.00115470 -0.00200000 -0.00340000
v 0.00000000 -0.00200000 -0.00180000
v 0.00000000 -0.00110000 -0.00180000
v 0.00115470 -0.00200000 -0.00180000
v 0.00110000 0.00000000 -0.00340000
v 0.00110000 0.00000000 -0.00180000
v 0.00230940 0.00000000 -0.00340000
v 0.00230940 0.00000000 -0.00180000
f 1 4 2
f 2 7 1
f 6 1 3
f 1 6 4
f 4 6 5
f 4 5 2
f 6 8 5
f 9 1 7
f 8 7 2
f 8 2 5
f 1 9 3
f 9 6 3
f 8 9 7
f 8 6 10
f 6 9 10
f 9 8 10

