# https://github.com/mikedh/trimesh
v 0.03860000 0.02700000 0.11623290
v 0.03860000 0.02700000 0.11800000
v 0.03860000 0.02892820 0.11400000
v 0.03860000 0.03000000 0.11400000
v 0.03860000 0.03000000 0.11800000
v 0.04100000 0.02700000 0.11623290
v 0.04100000 0.02700000 0.11800000
v 0.04100000 0.02892820 0.11400000
v 0.04100000 0.03000000 0.11400000
v 0.04100000 0.03000000 0.11800000
f 6 1 3
f 2 4 1
f 2 1 6
f 1 4 3
f 4 9 3
f 4 2 5
f 2 10 5
f 10 4 5
f 6 3 8
f 2 6 7
f 10 2 7
f 6 10 7
f 3 9 8
f 4 10 9
f 9 6 8
f 10 6 9

