# https://github.com/mikedh/trimesh
v 0.03500000 -0.04000000 0.05800000
v 0.03617054 -0.03988471 0.05800000
v 0.03500000 -0.04000000 0.06200000
v 0.03617054 -0.03988471 0.06200000
v 0.03500000 -0.03760000 0.05800000
v 0.03500000 -0.03760000 0.06200000
v 0.03729610 -0.03954328 0.05800000
v 0.03833342 -0.03898882 0.05800000
v 0.03729610 -0.03954328 0.06200000
v 0.03833342 -0.03898882 0.06200000
v 0.03860000 -0.03877004 0.05800000
v 0.03860000 -0.03760000 0.05800000
v 0.03860000 -0.03877004 0.06200000
v 0.03860000 -0.03760000 0.06200000
f 4 1 2
f 3 5 1
f 1 7 2
f 7 4 2
f 3 1 4
f 10 3 4
f 11 1 5
f 5 3 6
f 3 14 6
f 14 5 6
f 1 11 7
f 7 11 8
f 10 7 8
f 11 10 8
f 4 7 9
f 10 4 9
f 7 10 9
f 14 3 10
f 10 11 13
f 11 5 12
f 5 14 12
f 14 11 12
f 11 14 13
f 14 10 13

