# https://github.com/mikedh/trimesh
v 0.03860000 0.03400000 0.04722996
v 0.03860000 0.03517266 0.04735975
v 0.03860000 0.03527168 0.04737538
v 0.03860000 0.03530037 0.04738597
v 0.03862260 0.03527209 0.04738930
v 0.03860000 0.03400000 0.04840000
v 0.03860000 0.03661886 0.04802094
v 0.03860000 0.03684158 0.04818574
v 0.03860000 0.03705584 0.04840000
v 0.03881426 0.03662731 0.04818574
v 0.03881426 0.03684158 0.04840000
v 0.03897906 0.03661886 0.04840000
v 0.03924264 0.03400000 0.04775736
v 0.03977004 0.03400000 0.04840000
v 0.03961070 0.03527209 0.04837740
v 0.03961403 0.03530037 0.04840000
v 0.03964025 0.03517266 0.04840000
v 0.03962462 0.03527168 0.04840000
f 13 1 2
f 1 4 2
f 5 2 3
f 2 4 3
f 4 5 3
f 5 13 2
f 1 9 4
f 9 1 6
f 1 14 6
f 5 15 13
f 14 9 6
f 5 4 10
f 4 7 10
f 7 4 9
f 10 7 8
f 7 9 8
f 9 11 8
f 10 8 11
f 9 12 11
f 12 10 11
f 15 5 10
f 12 16 10
f 9 16 12
f 14 1 13
f 9 14 16
f 14 13 15
f 15 16 18
f 14 15 17
f 16 14 17
f 17 15 18
f 16 17 18
f 16 15 10

