# https://github.com/mikedh/trimesh
v -0.03660000 0.02700000 0.05510352
v -0.03660000 0.02791342 0.05538060
v -0.03660000 0.02700000 0.05800000
v -0.03660000 0.02877785 0.05584265
v -0.03660000 0.02953553 0.05646447
v -0.03660000 0.03000000 0.05703042
v -0.03660000 0.03000000 0.05800000
v -0.03300000 0.02700000 0.05510352
v -0.03300000 0.02791342 0.05538060
v -0.03300000 0.02700000 0.05800000
v -0.03300000 0.02877785 0.05584265
v -0.03300000 0.02953553 0.05646447
v -0.03300000 0.03000000 0.05703042
v -0.03300000 0.03000000 0.05800000
f 1 4 2
f 8 1 2
f 8 3 1
f 4 11 2
f 6 1 3
f 1 6 4
f 4 6 5
f 12 4 5
f 6 3 7
f 3 14 7
f 6 12 5
f 14 6 7
f 8 2 9
f 2 11 9
f 11 8 9
f 12 8 11
f 3 8 10
f 14 3 10
f 8 14 10
f 4 12 11
f 14 8 12
f 12 6 13
f 6 14 13
f 14 12 13

