# https://github.com/mikedh/trimesh
v -0.00230940 0.00000000 -0.00340000
v -0.00230940 0.00000000 -0.00180000
v -0.00110000 0.00000000 -0.00340000
v -0.00110000 0.00000000 -0.00180000
v -0.00115470 0.00200000 -0.00340000
v 0.00000000 0.00110000 -0.00340000
v 0.00000000 0.00200000 -0.00340000
v -0.00115470 0.00200000 -0.00180000
v 0.00000000 0.00110000 -0.00180000
v 0.00000000 0.00200000 -0.00180000
f 4 1 3
f 4 2 1
f 2 8 1
f 2 4 8
f 8 5 1
f 1 6 3
f 6 4 3
f 6 9 4
f 1 5 6
f 6 5 7
f 5 10 7
f 10 6 7
f 8 4 9
f 10 5 8
f 6 10 9
f 10 8 9

