# https://github.com/mikedh/trimesh
v -0.03660000 -0.02681484 0.11145554
v -0.03660000 -0.02654446 0.11118516
v -0.03660000 -0.02669296 0.11130704
v -0.03660000 -0.02690540 0.11162497
v -0.03660000 -0.02696117 0.11180881
v -0.03660000 -0.02637503 0.11109460
v -0.03660000 -0.02619119 0.11103883
v -0.03660000 -0.02698000 0.11200000
v -0.03660000 -0.02696117 0.11219119
v -0.03660000 -0.02690540 0.11237503
v -0.03660000 -0.02681484 0.11254446
v -0.03660000 -0.02669296 0.11269296
v -0.03660000 -0.02654446 0.11281484
v -0.03660000 -0.02637503 0.11290540
v -0.03660000 -0.02619119 0.11296117
v -0.03660000 -0.02600000 0.11102000
v -0.03660000 -0.02580881 0.11103883
v -0.03660000 -0.02562497 0.11109460
v -0.03660000 -0.02545554 0.11118516
v -0.03660000 -0.02530704 0.11130704
v -0.03660000 -0.02518516 0.11145554
v -0.03660000 -0.02509460 0.11162497
v -0.03660000 -0.02503883 0.11180881
v -0.03660000 -0.02600000 0.11298000
v -0.03660000 -0.02580881 0.11296117
v -0.03660000 -0.02562497 0.11290540
v -0.03660000 -0.02502000 0.11200000
v -0.03660000 -0.02503883 0.11219119
v -0.03660000 -0.02509460 0.11237503
v -0.03660000 -0.02530704 0.11269296
v -0.03660000 -0.02545554 0.11281484
v -0.03660000 -0.02518516 0.11254446
v -0.03300000 -0.02681484 0.11145554
v -0.03300000 -0.02654446 0.11118516
v -0.03300000 -0.02669296 0.11130704
v -0.03300000 -0.02690540 0.11162497
v -0.03300000 -0.02696117 0.11180881
v -0.03300000 -0.02637503 0.11109460
v -0.03300000 -0.02619119 0.11103883
v -0.03300000 -0.02698000 0.11200000
v -0.03300000 -0.02696117 0.11219119
v -0.03300000 -0.02690540 0.11237503
v -0.03300000 -0.02681484 0.11254446
v -0.03300000 -0.02669296 0.11269296
v -0.03300000 -0.02654446 0.11281484
v -0.03300000 -0.02637503 0.11290540
v -0.03300000 -0.02619119 0.11296117
v -0.03300000 -0.02600000 0.11102000
v -0.03300000 -0.02580881 0.11103883
v -0.03300000 -0.02562497 0.11109460
v -0.03300000 -0.02545554 0.11118516
v -0.03300000 -0.02530704 0.11130704
v -0.03300000 -0.02518516 0.11145554
v -0.03300000 -0.02509460 0.11162497
v -0.03300000 -0.02503883 0.11180881
v -0.03300000 -0.02600000 0.11298000
v -0.03300000 -0.02580881 0.11296117
v -0.03300000 -0.02562497 0.11290540
v -0.03300000 -0.02502000 0.11200000
v -0.03300000 -0.02503883 0.11219119
v -0.03300000 -0.02509460 0.11237503
v -0.03300000 -0.02530704 0.11269296
v -0.03300000 -0.02545554 0.11281484
v -0.03300000 -0.02518516 0.11254446
f 4 3 1
f 3 6 2
f 6 3 5
f 5 3 4
f 5 12 6
f 6 16 7
f 27 6 12
f 34 3 2
f 3 35 1
f 36 5 4
f 33 4 1
f 8 5 37
f 6 34 2
f 39 6 7
f 16 39 7
f 9 5 8
f 12 5 9
f 12 9 10
f 12 10 11
f 15 12 13
f 15 13 14
f 26 12 15
f 40 9 8
f 42 10 9
f 10 43 11
f 43 12 11
f 12 44 13
f 13 45 14
f 15 14 46
f 15 56 24
f 6 19 16
f 17 16 19
f 17 19 18
f 19 6 27
f 19 21 20
f 19 27 21
f 21 27 22
f 22 27 23
f 49 16 17
f 50 17 18
f 19 50 18
f 51 19 20
f 21 53 20
f 21 22 53
f 55 22 23
f 27 55 23
f 27 12 26
f 26 15 24
f 26 24 25
f 27 26 32
f 27 29 28
f 27 32 29
f 32 26 30
f 30 26 31
f 24 57 25
f 57 26 25
f 26 63 31
f 60 27 28
f 29 60 28
f 32 61 29
f 62 32 30
f 63 30 31
f 35 33 1
f 3 34 35
f 33 36 4
f 5 36 37
f 40 8 37
f 34 6 38
f 6 39 38
f 39 16 48
f 39 33 34
f 34 33 35
f 33 40 36
f 37 36 40
f 39 34 38
f 51 33 39
f 9 40 41
f 42 9 41
f 42 43 10
f 44 12 43
f 13 44 45
f 45 46 14
f 15 46 47
f 56 15 47
f 40 42 41
f 33 44 40
f 40 44 42
f 42 44 43
f 44 46 45
f 33 62 44
f 44 56 46
f 46 56 47
f 16 49 48
f 50 49 17
f 19 51 50
f 51 20 52
f 20 53 52
f 53 22 54
f 22 55 54
f 55 27 59
f 49 39 48
f 51 39 49
f 51 49 50
f 62 33 51
f 53 51 52
f 55 51 53
f 62 51 55
f 55 53 54
f 24 56 57
f 58 26 57
f 26 58 63
f 60 59 27
f 61 32 64
f 29 61 60
f 62 30 63
f 32 62 64
f 44 62 56
f 56 58 57
f 62 58 56
f 61 55 59
f 61 59 60
f 62 55 61
f 63 58 62
f 62 61 64

