# https://github.com/mikedh/trimesh
v -0.01000000 0.00000000 0.04000000
v -0.01000000 0.00000000 0.04360000
v -0.01000000 0.00500000 0.04000000
v -0.01000000 0.00519509 0.04001921
v -0.01000000 0.00538268 0.04007612
v -0.00990866 0.00525922 0.04000000
v -0.01000000 0.00555557 0.04016853
v -0.00979776 0.00546668 0.04000000
v -0.01000000 0.00570711 0.04029289
v -0.01000000 0.00583147 0.04044443
v -0.00964853 0.00564853 0.04000000
v -0.01000000 0.00592388 0.04061732
v -0.01000000 0.00598079 0.04080491
v -0.00946668 0.00579776 0.04000000
v -0.00925922 0.00590866 0.04000000
v -0.00903411 0.00597694 0.04000000
v -0.01000000 0.00600000 0.04100000
v -0.00880000 0.00600000 0.04000000
v -0.01000000 0.00600000 0.04360000
v -0.00600000 0.00000000 0.04000000
v -0.00600000 0.00000000 0.04360000
v -0.00720000 0.00600000 0.04000000
v -0.00696589 0.00597694 0.04000000
v -0.00674078 0.00590866 0.04000000
v -0.00653332 0.00579776 0.04000000
v -0.00600000 0.00500000 0.04000000
v -0.00600000 0.00519509 0.04001921
v -0.00635147 0.00564853 0.04000000
v -0.00620224 0.00546668 0.04000000
v -0.00609134 0.00525922 0.04000000
v -0.00600000 0.00538268 0.04007612
v -0.00600000 0.00555557 0.04016853
v -0.00600000 0.00570711 0.04029289
v -0.00600000 0.00583147 0.04044443
v -0.00600000 0.00592388 0.04061732
v -0.00600000 0.00598079 0.04080491
v -0.00600000 0.00600000 0.04100000
v -0.00600000 0.00600000 0.04360000
f 2 17 1
f 20 2 1
f 20 1 18
f 1 4 3
f 1 17 4
f 18 1 3
f 3 4 6
f 8 3 6
f 4 7 5
f 4 8 6
f 8 4 5
f 5 7 11
f 4 9 7
f 11 3 8
f 11 8 5
f 9 11 7
f 4 17 9
f 14 9 10
f 12 15 10
f 11 9 14
f 15 14 10
f 9 12 10
f 9 17 12
f 12 17 13
f 12 13 16
f 17 18 13
f 18 3 11
f 14 15 11
f 15 12 16
f 13 18 16
f 18 11 15
f 18 15 16
f 17 38 18
f 17 2 19
f 2 38 19
f 38 17 19
f 2 20 21
f 38 2 21
f 20 38 21
f 23 18 22
f 23 30 18
f 18 37 22
f 20 18 30
f 20 30 26
f 32 20 26
f 20 32 38
f 25 23 24
f 29 23 25
f 23 35 24
f 36 23 22
f 30 27 26
f 30 23 29
f 34 25 24
f 29 25 28
f 25 33 28
f 31 29 28
f 30 29 27
f 27 29 31
f 32 26 27
f 32 27 31
f 28 32 31
f 28 33 32
f 25 34 33
f 24 35 34
f 34 32 33
f 22 37 36
f 23 36 35
f 36 32 34
f 36 34 35
f 18 38 37
f 38 32 36
f 38 36 37

