# https://github.com/mikedh/trimesh
v 0.03500000 -0.03954328 0.04970390
v 0.03500000 -0.03898882 0.04866658
v 0.03625076 -0.03933069 0.04954655
v 0.03500000 -0.03988471 0.05082946
v 0.03500000 -0.04000000 0.05200000
v 0.03621401 -0.03974912 0.05078599
v 0.03617054 -0.03988471 0.05200000
v 0.03500000 -0.03877004 0.04840000
v 0.03500000 -0.03760000 0.04840000
v 0.03617266 -0.03864025 0.04840000
v 0.03627168 -0.03862462 0.04840000
v 0.03630037 -0.03861403 0.04840000
v 0.03500000 -0.03760000 0.05200000
v 0.03729610 -0.03954328 0.05200000
v 0.03745345 -0.03933069 0.05074924
v 0.03833342 -0.03898882 0.05200000
v 0.03757860 -0.03876463 0.04942140
v 0.03761886 -0.03797906 0.04840000
v 0.03784158 -0.03781426 0.04840000
v 0.03805584 -0.03760000 0.04840000
v 0.03860000 -0.03781426 0.04915842
v 0.03860000 -0.03760000 0.04894416
v 0.03860000 -0.03797906 0.04938114
v 0.03860000 -0.03861403 0.05069963
v 0.03860000 -0.03862462 0.05072832
v 0.03860000 -0.03864025 0.05082734
v 0.03860000 -0.03877004 0.05200000
v 0.03860000 -0.03760000 0.05200000
f 5 2 1
f 6 1 3
f 11 3 2
f 2 3 1
f 5 9 2
f 12 3 11
f 17 3 12
f 4 1 6
f 5 1 4
f 7 5 4
f 6 7 4
f 15 6 3
f 14 5 7
f 6 14 7
f 2 8 10
f 2 9 8
f 9 12 8
f 11 2 10
f 8 11 10
f 8 12 11
f 9 18 12
f 9 13 22
f 9 5 13
f 27 13 5
f 17 15 3
f 15 14 6
f 27 5 14
f 16 14 15
f 15 17 25
f 15 25 26
f 27 14 16
f 16 15 26
f 12 18 17
f 20 18 9
f 9 22 20
f 17 23 24
f 17 18 21
f 18 20 19
f 21 18 19
f 20 21 19
f 22 21 20
f 17 21 23
f 21 25 23
f 21 22 27
f 22 13 28
f 13 27 28
f 25 17 24
f 23 25 24
f 21 27 25
f 25 27 26
f 27 16 26
f 27 22 28

