# https://github.com/mikedh/trimesh
v 0.03200000 -0.03760000 0.12000000
v 0.03200000 -0.03760000 0.12144637
v 0.03200000 -0.03400000 0.12000000
v 0.03200000 -0.03544637 0.12360000
v 0.03200000 -0.03400000 0.12360000
v 0.03500000 -0.03760000 0.12000000
v 0.03500000 -0.03760000 0.12144637
v 0.03500000 -0.03400000 0.12000000
v 0.03500000 -0.03544637 0.12360000
v 0.03500000 -0.03400000 0.12360000
f 4 1 2
f 1 7 2
f 3 6 1
f 7 4 2
f 4 3 1
f 3 4 5
f 10 3 5
f 4 10 5
f 1 6 7
f 6 10 7
f 4 7 9
f 6 3 8
f 3 10 8
f 10 6 8
f 10 4 9
f 7 10 9

