# https://github.com/mikedh/trimesh
v 0.02400000 -0.04000000 0.11266025
v 0.02400000 -0.04000000 0.11400000
v 0.02400000 -0.03760000 0.11266025
v 0.02400000 -0.03760000 0.11400000
v 0.02699208 -0.04000000 0.11000000
v 0.02900000 -0.04000000 0.11000000
v 0.02900000 -0.04000000 0.11400000
v 0.02699208 -0.03760000 0.11000000
v 0.02900000 -0.03760000 0.11000000
v 0.02900000 -0.03760000 0.11400000
f 3 5 1
f 5 2 1
f 2 3 1
f 8 5 3
f 2 4 3
f 3 4 8
f 2 10 4
f 6 2 5
f 8 6 5
f 2 6 7
f 10 2 7
f 6 10 7
f 6 8 9
f 10 6 9
f 8 10 9
f 10 8 4

