# https://github.com/mikedh/trimesh
v 0.03500000 -0.03965849 0.12360000
v 0.03500000 -0.03932588 0.12422228
v 0.03500000 -0.03882843 0.12482843
v 0.03500000 -0.03760000 0.12360000
v 0.03500000 -0.03822228 0.12532588
v 0.03500000 -0.03760000 0.12565849
v 0.03860000 -0.03965849 0.12360000
v 0.03860000 -0.03932588 0.12422228
v 0.03860000 -0.03882843 0.12482843
v 0.03860000 -0.03760000 0.12360000
v 0.03860000 -0.03822228 0.12532588
v 0.03860000 -0.03760000 0.12565849
f 3 1 2
f 1 7 2
f 3 2 8
f 7 1 4
f 6 1 3
f 1 6 4
f 4 6 10
f 6 3 5
f 3 9 5
f 6 5 11
f 2 7 8
f 9 3 8
f 7 9 8
f 7 11 9
f 7 4 10
f 7 10 11
f 9 11 5
f 10 6 12
f 6 11 12
f 11 10 12

