# https://github.com/mikedh/trimesh
v 0.03500000 0.03760000 0.04722996
v 0.03617266 0.03760000 0.04735975
v 0.03627168 0.03760000 0.04737538
v 0.03627209 0.03762260 0.04738930
v 0.03630037 0.03760000 0.04738597
v 0.03500000 0.03760000 0.04840000
v 0.03500000 0.03824264 0.04775736
v 0.03500000 0.03877004 0.04840000
v 0.03627209 0.03861070 0.04837740
v 0.03630037 0.03861403 0.04840000
v 0.03617266 0.03864025 0.04840000
v 0.03627168 0.03862462 0.04840000
v 0.03761886 0.03760000 0.04802094
v 0.03762731 0.03781426 0.04818574
v 0.03784158 0.03760000 0.04818574
v 0.03805584 0.03760000 0.04840000
v 0.03784158 0.03781426 0.04840000
v 0.03761886 0.03797906 0.04840000
f 1 7 2
f 2 5 1
f 7 4 2
f 2 4 3
f 5 2 3
f 4 5 3
f 16 1 5
f 8 1 6
f 1 16 6
f 9 4 7
f 16 8 6
f 1 8 7
f 7 8 11
f 8 16 10
f 9 7 11
f 8 10 11
f 10 9 12
f 9 11 12
f 11 10 12
f 5 4 14
f 5 14 13
f 4 9 14
f 14 10 18
f 16 5 13
f 13 14 15
f 16 13 15
f 15 14 17
f 16 15 17
f 16 17 18
f 14 18 17
f 10 16 18
f 9 10 14

