# https://github.com/mikedh/trimesh
v 0.03860000 0.03760000 0.11800000
v 0.03977004 0.03760000 0.11800000
v 0.03924264 0.03824264 0.11800000
v 0.03860000 0.03760000 0.12000000
v 0.03860000 0.03877004 0.11800000
v 0.03860000 0.03944469 0.12000000
v 0.04100000 0.03760000 0.11834151
v 0.04100000 0.03822228 0.11867412
v 0.04100000 0.03760000 0.12000000
v 0.04100000 0.03882843 0.11917157
v 0.04100000 0.03932588 0.11977772
v 0.04100000 0.03944469 0.12000000
f 1 5 2
f 7 1 2
f 1 7 4
f 2 5 3
f 5 7 3
f 6 1 4
f 6 4 9
f 1 6 5
f 12 5 6
f 7 2 3
f 7 5 8
f 10 7 8
f 4 7 9
f 9 7 12
f 5 10 8
f 10 5 11
f 6 9 12
f 5 12 11
f 12 7 10
f 12 10 11

