# https://github.com/mikedh/trimesh
v -0.03900000 -0.02862817 0.05800000
v -0.03900000 -0.02814849 0.05728210
v -0.03900000 -0.02748008 0.05651992
v -0.03900000 -0.02700000 0.05609891
v -0.03900000 -0.02700000 0.05800000
v -0.03660000 -0.02862817 0.05800000
v -0.03660000 -0.02814849 0.05728210
v -0.03660000 -0.02748008 0.05651992
v -0.03660000 -0.02700000 0.05609891
v -0.03660000 -0.02700000 0.05800000
f 2 3 7
f 1 4 2
f 6 1 2
f 1 6 5
f 2 4 3
f 4 9 3
f 4 5 9
f 4 1 5
f 6 2 7
f 9 6 7
f 7 3 8
f 3 9 8
f 9 7 8
f 5 6 10
f 9 5 10
f 6 9 10

