# https://github.com/mikedh/trimesh
v 0.03500000 -0.03000000 0.12360000
v 0.03500000 -0.03000000 0.12600000
v 0.03617054 -0.03000000 0.12588471
v 0.03500000 -0.02700000 0.12360000
v 0.03500000 -0.02700000 0.12600000
v 0.03617054 -0.02700000 0.12588471
v 0.03860000 -0.03000000 0.12360000
v 0.03860000 -0.03000000 0.12477004
v 0.03729610 -0.03000000 0.12554328
v 0.03833342 -0.03000000 0.12498882
v 0.03860000 -0.02700000 0.12360000
v 0.03860000 -0.02700000 0.12477004
v 0.03729610 -0.02700000 0.12554328
v 0.03833342 -0.02700000 0.12498882
f 2 4 1
f 7 2 1
f 4 7 1
f 6 2 3
f 2 10 3
f 4 2 5
f 6 5 2
f 6 3 13
f 14 4 5
f 14 5 6
f 10 7 8
f 7 12 8
f 2 7 10
f 3 10 9
f 10 13 9
f 13 3 9
f 12 10 8
f 7 4 11
f 4 14 11
f 7 11 12
f 12 11 14
f 14 6 13
f 10 14 13
f 14 10 12

