# https://github.com/mikedh/trimesh
v -0.00600000 -0.03760000 0.12360000
v -0.00600000 -0.03760000 0.12477004
v -0.00600000 -0.03733342 0.12498882
v -0.00600000 -0.03629610 0.12554328
v -0.00600000 -0.03400000 0.12360000
v -0.00600000 -0.03517054 0.12588471
v -0.00600000 -0.03400000 0.12600000
v 0.00000000 -0.03760000 0.12360000
v 0.00000000 -0.03760000 0.12477004
v 0.00000000 -0.03733342 0.12498882
v 0.00000000 -0.03629610 0.12554328
v 0.00000000 -0.03400000 0.12360000
v 0.00000000 -0.03517054 0.12588471
v 0.00000000 -0.03400000 0.12600000
f 3 1 2
f 1 8 2
f 8 1 5
f 7 1 3
f 7 3 4
f 3 2 10
f 3 11 4
f 1 7 5
f 5 7 12
f 7 4 6
f 4 13 6
f 13 7 6
f 2 8 9
f 8 11 9
f 12 11 8
f 2 9 10
f 11 3 10
f 4 11 13
f 9 11 10
f 8 5 12
f 12 7 14
f 13 14 7
f 11 14 13
f 11 12 14

