# https://github.com/mikedh/trimesh
v 0.03210860 0.03000000 0.12360000
v 0.03200000 0.03230448 0.12046927
v 0.03200000 0.03255531 0.12000000
v 0.03200000 0.03207686 0.12121964
v 0.03200000 0.03400000 0.12000000
v 0.03200000 0.03200000 0.12200000
v 0.03200000 0.03207686 0.12278036
v 0.03200000 0.03230448 0.12353073
v 0.03200000 0.03234151 0.12360000
v 0.03200000 0.03400000 0.12360000
v 0.03500000 0.03000000 0.12360000
v 0.03500000 0.03255531 0.12000000
v 0.03500000 0.03400000 0.12000000
v 0.03500000 0.03400000 0.12360000
f 2 1 4
f 1 2 3
f 12 1 3
f 1 6 4
f 6 1 7
f 7 1 8
f 1 9 8
f 11 9 1
f 2 5 3
f 6 2 4
f 9 5 2
f 5 12 3
f 9 2 6
f 9 6 7
f 9 7 8
f 5 9 10
f 14 5 10
f 9 14 10
f 12 11 1
f 12 5 13
f 5 14 13
f 14 12 13
f 11 14 9
f 14 11 12

