# https://github.com/mikedh/trimesh
v -0.00081484 -0.00054446 -0.00340000
v -0.00054446 -0.00081484 -0.00340000
v -0.00069296 -0.00069296 -0.00340000
v -0.00081484 -0.00054446 -0.00100000
v -0.00054446 -0.00081484 -0.00100000
v -0.00069296 -0.00069296 -0.00100000
v -0.00090540 -0.00037503 -0.00340000
v -0.00096117 -0.00019119 -0.00340000
v -0.00098000 0.00000000 -0.00340000
v -0.00090540 -0.00037503 -0.00100000
v -0.00096117 -0.00019119 -0.00100000
v -0.00098000 0.00000000 -0.00100000
v -0.00037503 -0.00090540 -0.00340000
v -0.00019119 -0.00096117 -0.00340000
v 0.00000000 -0.00098000 -0.00340000
v -0.00037503 -0.00090540 -0.00100000
v -0.00019119 -0.00096117 -0.00100000
v 0.00000000 -0.00098000 -0.00100000
v 0.00000000 0.00000000 -0.00340000
v 0.00000000 0.00000000 -0.00100000
f 7 3 1
f 3 13 2
f 5 3 2
f 9 15 3
f 1 3 6
f 4 1 6
f 3 5 6
f 6 5 4
f 9 3 7
f 7 11 8
f 4 7 1
f 9 7 8
f 11 9 8
f 7 4 10
f 11 7 10
f 4 11 10
f 4 12 11
f 12 9 11
f 20 9 12
f 4 20 12
f 3 15 13
f 13 5 2
f 13 14 17
f 13 15 14
f 15 18 14
f 5 13 16
f 13 17 16
f 17 5 16
f 18 4 5
f 18 5 17
f 4 18 20
f 14 18 17
f 15 20 18
f 15 9 19
f 9 20 19
f 20 15 19

