# https://github.com/mikedh/trimesh
v -0.02400000 0.00600000 0.05200000
v -0.02400000 0.00600000 0.05300000
v -0.02398079 0.00600000 0.05319509
v -0.02392388 0.00600000 0.05338268
v -0.02383147 0.00600000 0.05355557
v -0.02370711 0.00600000 0.05370711
v -0.02355557 0.00600000 0.05383147
v -0.02338268 0.00600000 0.05392388
v -0.02319509 0.00600000 0.05398079
v -0.02300000 0.00600000 0.05400000
v -0.02400000 0.00700000 0.05200000
v -0.02398079 0.00719509 0.05200000
v -0.02392388 0.00738268 0.05200000
v -0.02383147 0.00755557 0.05200000
v -0.02370711 0.00770711 0.05200000
v -0.02355557 0.00783147 0.05200000
v -0.02338268 0.00792388 0.05200000
v -0.02319509 0.00798079 0.05200000
v -0.02300000 0.00800000 0.05200000
v -0.02400000 0.00700000 0.05300000
v -0.02398079 0.00700000 0.05319509
v -0.02398079 0.00719509 0.05300000
v -0.02395819 0.00720233 0.05320233
v -0.02392388 0.00700000 0.05338268
v -0.02388845 0.00720846 0.05340891
v -0.02392388 0.00738268 0.05300000
v -0.02388845 0.00740891 0.05320846
v -0.02379410 0.00742977 0.05342977
v -0.02383147 0.00700000 0.05355557
v -0.02370711 0.00700000 0.05370711
v -0.02376845 0.00721201 0.05360377
v -0.02355557 0.00700000 0.05383147
v -0.02360377 0.00721201 0.05376845
v -0.02338268 0.00700000 0.05392388
v -0.02319509 0.00700000 0.05398079
v -0.02340891 0.00720846 0.05388845
v -0.02320233 0.00720233 0.05395819
v -0.02363571 0.00743789 0.05363571
v -0.02342977 0.00742977 0.05379410
v -0.02320846 0.00740891 0.05388845
v -0.02300000 0.00700000 0.05400000
v -0.02300000 0.00719509 0.05398079
v -0.02300000 0.00738268 0.05392388
v -0.02383147 0.00755557 0.05300000
v -0.02376845 0.00760377 0.05321201
v -0.02370711 0.00770711 0.05300000
v -0.02363571 0.00763571 0.05343789
v -0.02355557 0.00783147 0.05300000
v -0.02360377 0.00776845 0.05321201
v -0.02338268 0.00792388 0.05300000
v -0.02319509 0.00798079 0.05300000
v -0.02340891 0.00788845 0.05320846
v -0.02320233 0.00795819 0.05320233
v -0.02342977 0.00779410 0.05342977
v -0.02320846 0.00788845 0.05340891
v -0.02300000 0.00800000 0.05300000
v -0.02300000 0.00798079 0.05319509
v -0.02300000 0.00792388 0.05338268
v -0.02343789 0.00763571 0.05363571
v -0.02321201 0.00760377 0.05376845
v -0.02321201 0.00776845 0.05360377
v -0.02300000 0.00770711 0.05370711
v -0.02300000 0.00755557 0.05383147
v -0.02300000 0.00783147 0.05355557
v -0.01600000 0.00600000 0.05200000
v -0.01600000 0.00600000 0.05300000
v -0.01601921 0.00600000 0.05319509
v -0.01607612 0.00600000 0.05338268
v -0.01616853 0.00600000 0.05355557
v -0.01629289 0.00600000 0.05370711
v -0.01700000 0.00600000 0.05400000
v -0.01680491 0.00600000 0.05398079
v -0.01661732 0.00600000 0.05392388
v -0.01644443 0.00600000 0.05383147
v -0.01600000 0.00700000 0.05200000
v -0.01601921 0.00719509 0.05200000
v -0.01607612 0.00738268 0.05200000
v -0.01616853 0.00755557 0.05200000
v -0.01629289 0.00770711 0.05200000
v -0.01700000 0.00800000 0.05200000
v -0.01680491 0.00798079 0.05200000
v -0.01661732 0.00792388 0.05200000
v -0.01644443 0.00783147 0.05200000
v -0.01600000 0.00700000 0.05300000
v -0.01601921 0.00700000 0.05319509
v -0.01601921 0.00719509 0.05300000
v -0.01604181 0.00720233 0.05320233
v -0.01607612 0.00700000 0.05338268
v -0.01611155 0.00720846 0.05340891
v -0.01607612 0.00738268 0.05300000
v -0.01611155 0.00740891 0.05320846
v -0.01620590 0.00742977 0.05342977
v -0.01616853 0.00700000 0.05355557
v -0.01629289 0.00700000 0.05370711
v -0.01623155 0.00721201 0.05360377
v -0.01700000 0.00700000 0.05400000
v -0.01680491 0.00700000 0.05398079
v -0.01661732 0.00700000 0.05392388
v -0.01700000 0.00719509 0.05398079
v -0.01679767 0.00720233 0.05395819
v -0.01659109 0.00720846 0.05388845
v -0.01644443 0.00700000 0.05383147
v -0.01639623 0.00721201 0.05376845
v -0.01636429 0.00743789 0.05363571
v -0.01657023 0.00742977 0.05379410
v -0.01700000 0.00738268 0.05392388
v -0.01679154 0.00740891 0.05388845
v -0.01616853 0.00755557 0.05300000
v -0.01623155 0.00760377 0.05321201
v -0.01629289 0.00770711 0.05300000
v -0.01636429 0.00763571 0.05343789
v -0.01700000 0.00800000 0.05300000
v -0.01680491 0.00798079 0.05300000
v -0.01661732 0.00792388 0.05300000
v -0.01700000 0.00798079 0.05319509
v -0.01679767 0.00795819 0.05320233
v -0.01659109 0.00788845 0.05320846
v -0.01644443 0.00783147 0.05300000
v -0.01639623 0.00776845 0.05321201
v -0.01657023 0.00779410 0.05342977
v -0.01700000 0.00792388 0.05338268
v -0.01679154 0.00788845 0.05340891
v -0.01700000 0.00770711 0.05370711
v -0.01656211 0.00763571 0.05363571
v -0.01700000 0.00755557 0.05383147
v -0.01678799 0.00760377 0.05376845
v -0.01678799 0.00776845 0.05360377
v -0.01700000 0.00783147 0.05355557
f 1 3 2
f 1 6 3
f 1 2 20
f 1 20 11
f 13 1 11
f 1 65 10
f 65 1 19
f 1 10 6
f 3 6 4
f 20 2 3
f 24 3 4
f 24 4 5
f 6 5 4
f 6 8 7
f 10 8 6
f 8 10 9
f 6 30 5
f 32 6 7
f 8 32 7
f 8 9 34
f 10 35 9
f 3 21 20
f 3 24 21
f 24 5 29
f 5 30 29
f 30 6 32
f 32 8 34
f 35 34 9
f 41 35 10
f 10 96 41
f 13 11 12
f 19 1 13
f 11 22 12
f 13 12 26
f 13 44 14
f 11 20 22
f 12 22 26
f 44 13 26
f 16 13 14
f 16 14 15
f 19 13 16
f 14 46 15
f 46 16 15
f 19 16 17
f 19 17 18
f 17 16 48
f 17 51 18
f 51 19 18
f 44 46 14
f 16 46 48
f 17 48 50
f 17 50 51
f 51 56 19
f 19 56 112
f 20 21 22
f 23 22 21
f 23 21 24
f 25 24 29
f 23 24 25
f 26 22 23
f 27 26 23
f 44 26 27
f 25 27 23
f 28 27 25
f 31 28 25
f 28 45 27
f 30 31 29
f 29 31 25
f 33 31 30
f 30 32 33
f 32 36 33
f 36 32 34
f 34 35 37
f 42 35 41
f 37 36 34
f 35 42 37
f 28 31 38
f 31 33 38
f 33 39 38
f 39 33 36
f 36 40 39
f 37 40 36
f 43 37 42
f 40 37 43
f 60 39 40
f 63 40 43
f 46 44 45
f 45 44 27
f 49 46 45
f 45 28 47
f 45 47 49
f 47 54 49
f 48 46 49
f 49 52 48
f 48 52 50
f 51 50 53
f 57 56 51
f 53 50 52
f 57 51 53
f 49 54 52
f 55 52 54
f 55 54 61
f 52 55 53
f 55 58 53
f 58 57 53
f 64 58 55
f 28 38 47
f 59 47 38
f 38 39 59
f 59 54 47
f 60 59 39
f 54 59 61
f 59 60 61
f 62 61 60
f 63 60 40
f 60 63 62
f 61 62 64
f 55 61 64
f 99 42 41
f 106 43 42
f 106 63 43
f 57 112 56
f 57 58 121
f 121 58 64
f 62 123 64
f 62 63 125
f 66 65 75
f 72 65 66
f 65 77 75
f 66 75 84
f 10 65 72
f 10 72 71
f 96 10 71
f 69 66 67
f 69 67 68
f 85 67 66
f 68 67 85
f 88 69 68
f 72 66 69
f 74 69 70
f 72 69 73
f 74 73 69
f 69 94 70
f 94 74 70
f 102 73 74
f 72 96 71
f 73 98 72
f 84 85 66
f 88 68 85
f 69 88 93
f 94 69 93
f 96 72 97
f 102 98 73
f 97 72 98
f 94 102 74
f 65 19 81
f 81 19 80
f 19 112 80
f 81 77 65
f 75 77 76
f 86 75 76
f 77 86 76
f 77 78 90
f 75 86 84
f 86 77 90
f 108 90 78
f 77 79 78
f 79 77 81
f 79 108 78
f 82 79 81
f 79 82 83
f 112 81 80
f 82 114 83
f 81 114 82
f 118 79 83
f 108 79 110
f 79 118 110
f 114 118 83
f 81 112 113
f 114 81 113
f 96 99 41
f 42 99 106
f 125 63 106
f 115 112 57
f 121 64 128
f 57 121 115
f 62 125 123
f 123 128 64
f 86 85 84
f 87 85 86
f 87 88 85
f 93 88 89
f 88 87 89
f 90 87 86
f 90 91 87
f 90 108 91
f 89 87 91
f 92 89 91
f 95 89 92
f 109 92 91
f 93 95 94
f 95 93 89
f 103 94 95
f 97 99 96
f 98 102 101
f 100 97 98
f 97 100 99
f 100 98 101
f 94 103 102
f 101 102 103
f 104 95 92
f 104 103 95
f 103 104 105
f 105 101 103
f 101 105 107
f 100 106 99
f 106 100 107
f 100 101 107
f 105 126 107
f 106 107 125
f 108 110 109
f 91 108 109
f 110 119 109
f 92 109 111
f 119 111 109
f 120 111 119
f 112 115 113
f 118 114 117
f 114 113 116
f 116 113 115
f 114 116 117
f 119 110 118
f 119 118 117
f 117 120 119
f 117 122 120
f 122 127 120
f 121 122 116
f 121 116 115
f 116 122 117
f 122 121 128
f 124 126 105
f 120 127 124
f 123 126 127
f 127 126 124
f 111 104 92
f 124 104 111
f 105 104 124
f 111 120 124
f 126 125 107
f 125 126 123
f 127 128 123
f 127 122 128

