# https://github.com/mikedh/trimesh
v -0.03900000 0.00600000 0.05425000
v -0.03900000 0.00600000 0.05800000
v -0.03900000 0.02200000 0.05425000
v -0.03900000 0.02301158 0.05431630
v -0.03900000 0.02400585 0.05451407
v -0.03900000 0.02496580 0.05483993
v -0.03900000 0.02587500 0.05528830
v -0.03900000 0.02671790 0.05585151
v -0.03900000 0.02700000 0.05609891
v -0.03900000 0.02700000 0.05800000
v -0.03660000 0.00600000 0.05425000
v -0.03660000 0.00600000 0.05800000
v -0.03660000 0.02200000 0.05425000
v -0.03660000 0.02301158 0.05431630
v -0.03660000 0.02400585 0.05451407
v -0.03660000 0.02496580 0.05483993
v -0.03660000 0.02587500 0.05528830
v -0.03660000 0.02671790 0.05585151
v -0.03660000 0.02700000 0.05609891
v -0.03660000 0.02700000 0.05800000
f 2 9 1
f 11 2 1
f 1 4 3
f 1 9 4
f 4 6 5
f 6 4 9
f 6 9 7
f 7 9 8
f 13 1 3
f 4 13 3
f 14 4 5
f 6 16 5
f 7 17 6
f 7 8 17
f 9 19 8
f 9 2 10
f 2 20 10
f 20 9 10
f 11 1 13
f 2 11 12
f 20 2 12
f 11 20 12
f 14 13 4
f 14 5 15
f 5 16 15
f 6 17 16
f 17 8 18
f 8 19 18
f 14 11 13
f 11 14 20
f 16 14 15
f 19 14 16
f 19 16 17
f 19 17 18
f 9 20 19
f 20 14 19

