# https://github.com/mikedh/trimesh
v 0.00600000 -0.00600000 0.00200000
v 0.00600000 -0.00598079 0.00219509
v 0.00600000 -0.00592388 0.00238268
v 0.00600000 -0.00583147 0.00255557
v 0.00600000 -0.00570711 0.00270711
v 0.00600000 -0.00555557 0.00283147
v 0.00600000 -0.00538268 0.00292388
v 0.00609134 -0.00525922 0.00300000
v 0.00620224 -0.00546668 0.00300000
v 0.00635147 -0.00564853 0.00300000
v 0.00600000 -0.00519509 0.00298079
v 0.00600000 -0.00500000 0.00300000
v 0.00653332 -0.00579776 0.00300000
v 0.00674078 -0.00590866 0.00300000
v 0.00696589 -0.00597694 0.00300000
v 0.00720000 -0.00600000 0.00300000
v 0.00600000 0.00000000 0.00200000
v 0.00600000 0.00000000 0.00300000
v 0.00900000 -0.00600000 0.00200000
v 0.00919509 -0.00598079 0.00200000
v 0.00938268 -0.00592388 0.00200000
v 0.00955557 -0.00583147 0.00200000
v 0.00970711 -0.00570711 0.00200000
v 0.00983147 -0.00555557 0.00200000
v 0.00992388 -0.00538268 0.00200000
v 0.00998079 -0.00519509 0.00200000
v 0.01000000 -0.00500000 0.00200000
v 0.00880000 -0.00600000 0.00300000
v 0.00903411 -0.00597694 0.00300000
v 0.00925922 -0.00590866 0.00300000
v 0.00946668 -0.00579776 0.00300000
v 0.00964853 -0.00564853 0.00300000
v 0.00979776 -0.00546668 0.00300000
v 0.00990866 -0.00525922 0.00300000
v 0.00997694 -0.00503411 0.00300000
v 0.01000000 -0.00480000 0.00300000
v 0.01000000 0.00000000 0.00200000
v 0.01000000 0.00000000 0.00300000
f 1 2 3
f 5 1 3
f 1 16 2
f 17 1 12
f 16 1 19
f 17 27 1
f 5 3 4
f 5 12 1
f 3 2 15
f 3 14 4
f 2 16 15
f 13 5 4
f 5 10 6
f 7 5 6
f 14 13 4
f 10 7 6
f 12 5 7
f 9 11 7
f 8 11 9
f 7 10 9
f 10 8 9
f 10 5 13
f 12 7 11
f 8 12 11
f 14 3 15
f 14 10 13
f 16 8 10
f 16 10 14
f 16 14 15
f 35 8 16
f 12 8 38
f 17 12 18
f 12 38 18
f 38 17 18
f 1 20 19
f 1 27 20
f 20 22 21
f 20 25 22
f 23 22 25
f 27 25 20
f 23 25 24
f 25 27 26
f 29 19 20
f 30 20 21
f 22 30 21
f 32 22 23
f 33 23 24
f 25 33 24
f 35 25 26
f 27 35 26
f 16 19 28
f 19 29 28
f 29 16 28
f 33 16 29
f 16 33 35
f 38 8 35
f 29 20 30
f 22 31 30
f 31 22 32
f 33 32 23
f 34 33 25
f 35 34 25
f 35 27 36
f 30 31 29
f 29 31 33
f 33 31 32
f 35 33 34
f 27 38 36
f 38 35 36
f 27 17 37
f 17 38 37
f 38 27 37

