# https://github.com/mikedh/trimesh
v 0.03860000 0.00000000 0.12000000
v 0.03860000 0.00000000 0.12360000
v 0.03977004 0.00000000 0.12360000
v 0.03860000 0.00600000 0.12000000
v 0.03860000 0.00600000 0.12360000
v 0.03977004 0.00600000 0.12360000
v 0.04100000 0.00000000 0.12000000
v 0.04088471 0.00000000 0.12117054
v 0.03998882 0.00000000 0.12333342
v 0.04054328 0.00000000 0.12229610
v 0.04100000 0.00600000 0.12000000
v 0.04088471 0.00600000 0.12117054
v 0.03998882 0.00600000 0.12333342
v 0.04054328 0.00600000 0.12229610
f 2 4 1
f 7 2 1
f 4 7 1
f 5 2 3
f 2 9 3
f 4 2 5
f 13 4 5
f 5 3 6
f 13 5 6
f 8 9 7
f 7 11 8
f 8 12 10
f 2 7 9
f 3 9 13
f 13 9 10
f 9 8 10
f 7 4 11
f 4 13 11
f 8 11 12
f 11 13 12
f 13 10 14
f 3 13 6
f 10 12 14
f 12 13 14

