# https://github.com/mikedh/trimesh
v 0.03500000 -0.03824264 0.04775736
v 0.03500000 -0.03877004 0.04840000
v 0.03617266 -0.03864025 0.04840000
v 0.03627168 -0.03862462 0.04840000
v 0.03627209 -0.03861070 0.04837740
v 0.03630037 -0.03861403 0.04840000
v 0.03500000 -0.03760000 0.04722996
v 0.03617266 -0.03760000 0.04735975
v 0.03627168 -0.03760000 0.04737538
v 0.03627209 -0.03762260 0.04738930
v 0.03630037 -0.03760000 0.04738597
v 0.03500000 -0.03760000 0.04840000
v 0.03761886 -0.03797906 0.04840000
v 0.03761886 -0.03760000 0.04802094
v 0.03762731 -0.03781426 0.04818574
v 0.03784158 -0.03781426 0.04840000
v 0.03784158 -0.03760000 0.04818574
v 0.03805584 -0.03760000 0.04840000
f 2 7 1
f 2 1 5
f 2 5 3
f 6 2 3
f 3 5 4
f 6 3 4
f 5 6 4
f 18 2 6
f 1 7 8
f 10 1 8
f 7 11 8
f 10 8 9
f 8 11 9
f 11 10 9
f 7 18 11
f 7 2 12
f 1 10 5
f 2 18 12
f 18 7 12
f 6 5 15
f 10 11 15
f 5 10 15
f 13 6 15
f 11 14 15
f 18 6 13
f 14 11 18
f 13 15 16
f 18 13 16
f 15 14 17
f 14 18 17
f 15 17 16
f 18 16 17

