# https://github.com/mikedh/trimesh
v 0.03860000 -0.03760000 0.06200000
v 0.03977004 -0.03760000 0.06200000
v 0.03860000 -0.03760000 0.08600000
v 0.03977004 -0.03760000 0.08600000
v 0.03860000 -0.03400000 0.06200000
v 0.03860000 -0.03400000 0.08600000
v 0.03998882 -0.03733342 0.06200000
v 0.04100000 -0.03760000 0.07134151
v 0.04054328 -0.03629610 0.06200000
v 0.03998882 -0.03733342 0.08600000
v 0.04100000 -0.03760000 0.07865849
v 0.04054328 -0.03629610 0.08600000
v 0.04088471 -0.03517054 0.06200000
v 0.04100000 -0.03400000 0.06200000
v 0.04088471 -0.03517054 0.08600000
v 0.04100000 -0.03400000 0.08600000
f 3 5 1
f 1 7 2
f 8 1 2
f 3 1 8
f 10 3 4
f 3 11 4
f 5 14 1
f 5 3 6
f 3 16 6
f 16 5 6
f 7 8 2
f 1 14 7
f 8 7 9
f 7 13 9
f 13 8 9
f 3 8 11
f 11 10 4
f 16 3 10
f 10 11 12
f 8 16 11
f 16 10 12
f 12 11 15
f 5 16 14
f 7 14 13
f 14 8 13
f 16 8 14
f 11 16 15
f 16 12 15

