# https://github.com/mikedh/trimesh
v 0.03860000 -0.00600000 0.04840000
v 0.03977004 -0.00600000 0.04840000
v 0.03860000 -0.00600000 0.05200000
v 0.03860000 0.00000000 0.04840000
v 0.03977004 0.00000000 0.04840000
v 0.03860000 0.00000000 0.05200000
v 0.03998882 -0.00600000 0.04866658
v 0.04054328 -0.00600000 0.04970390
v 0.04088471 -0.00600000 0.05082946
v 0.04100000 -0.00600000 0.05200000
v 0.03998882 0.00000000 0.04866658
v 0.04054328 0.00000000 0.04970390
v 0.04088471 0.00000000 0.05082946
v 0.04100000 0.00000000 0.05200000
f 1 4 2
f 4 1 3
f 7 1 2
f 1 10 3
f 3 10 6
f 2 4 5
f 4 12 5
f 6 12 4
f 4 3 6
f 10 1 7
f 7 2 5
f 8 7 11
f 10 7 8
f 10 8 9
f 8 13 9
f 13 10 9
f 7 5 11
f 12 8 11
f 5 12 11
f 8 12 13
f 6 10 14
f 12 6 14
f 13 14 10
f 12 14 13

