# https://github.com/mikedh/trimesh
v 0.03860000 0.03400000 0.05800000
v 0.03860000 0.03400000 0.06200000
v 0.03860000 0.03760000 0.05800000
v 0.03977004 0.03760000 0.05800000
v 0.03860000 0.03760000 0.06200000
v 0.03977004 0.03760000 0.06200000
v 0.04100000 0.03400000 0.05800000
v 0.04088471 0.03517054 0.05800000
v 0.04100000 0.03400000 0.06200000
v 0.04088471 0.03517054 0.06200000
v 0.03998882 0.03733342 0.05800000
v 0.04054328 0.03629610 0.05800000
v 0.03998882 0.03733342 0.06200000
v 0.04054328 0.03629610 0.06200000
f 2 3 1
f 7 2 1
f 3 7 1
f 11 3 4
f 3 6 4
f 3 2 5
f 2 13 5
f 3 5 6
f 6 5 13
f 7 8 10
f 7 12 8
f 2 7 9
f 13 2 9
f 9 7 10
f 14 10 8
f 13 9 10
f 7 3 11
f 6 11 4
f 12 11 13
f 7 11 12
f 12 14 8
f 12 13 14
f 13 11 6
f 13 10 14

