# https://github.com/mikedh/trimesh
v -0.03900000 -0.02975000 0.11000000
v -0.03900000 -0.02968370 0.11101158
v -0.03900000 -0.02948593 0.11200585
v -0.03900000 -0.02916007 0.11296580
v -0.03900000 -0.02871170 0.11387500
v -0.03900000 -0.02862817 0.11400000
v -0.03900000 -0.02700000 0.11000000
v -0.03900000 -0.02700000 0.11400000
v -0.03660000 -0.02975000 0.11000000
v -0.03660000 -0.02968370 0.11101158
v -0.03660000 -0.02948593 0.11200585
v -0.03660000 -0.02916007 0.11296580
v -0.03660000 -0.02871170 0.11387500
v -0.03660000 -0.02862817 0.11400000
v -0.03660000 -0.02700000 0.11000000
v -0.03660000 -0.02700000 0.11400000
f 3 1 2
f 6 7 1
f 1 9 2
f 3 2 11
f 7 9 1
f 6 1 3
f 6 3 4
f 6 4 5
f 3 11 4
f 4 12 5
f 14 6 5
f 7 6 8
f 16 7 8
f 6 16 8
f 2 9 10
f 11 2 10
f 9 11 10
f 4 11 12
f 5 12 13
f 14 5 13
f 9 14 11
f 11 14 12
f 9 16 14
f 12 14 13
f 9 7 15
f 7 16 15
f 16 9 15
f 16 6 14

