# https://github.com/mikedh/trimesh
v 0.01000000 -0.00583147 0.04044443
v 0.01000000 -0.00570711 0.04029289
v 0.01000000 -0.00555557 0.04016853
v 0.01000000 -0.00538268 0.04007612
v 0.01000000 -0.00592388 0.04061732
v 0.01000000 -0.00598079 0.04080491
v 0.01000000 -0.00519509 0.04001921
v 0.01000000 -0.00500000 0.04000000
v 0.01000000 -0.00600000 0.04100000
v 0.01000000 -0.00600000 0.04360000
v 0.01000000 0.00000000 0.04000000
v 0.01000000 0.00000000 0.04360000
v 0.01100000 -0.00583147 0.04044443
v 0.01100000 -0.00570711 0.04029289
v 0.01100000 -0.00555557 0.04016853
v 0.01100000 -0.00538268 0.04007612
v 0.01121201 -0.00576845 0.04039623
v 0.01120846 -0.00540891 0.04011155
v 0.01121201 -0.00560377 0.04023155
v 0.01100000 -0.00592388 0.04061732
v 0.01100000 -0.00598079 0.04080491
v 0.01120846 -0.00588845 0.04059109
v 0.01120233 -0.00595819 0.04079767
v 0.01100000 -0.00519509 0.04001921
v 0.01100000 -0.00500000 0.04000000
v 0.01120233 -0.00520233 0.04004181
v 0.01119509 -0.00500000 0.04001921
v 0.01143789 -0.00563571 0.04036429
v 0.01142977 -0.00542977 0.04020590
v 0.01142977 -0.00579410 0.04057023
v 0.01140891 -0.00588845 0.04079154
v 0.01140891 -0.00520846 0.04011155
v 0.01138268 -0.00500000 0.04007612
v 0.01100000 -0.00600000 0.04100000
v 0.01119509 -0.00598079 0.04100000
v 0.01138268 -0.00592388 0.04100000
v 0.01163571 -0.00543789 0.04036429
v 0.01160377 -0.00576845 0.04078799
v 0.01163571 -0.00563571 0.04056211
v 0.01155557 -0.00500000 0.04016853
v 0.01160377 -0.00521201 0.04023155
v 0.01170711 -0.00500000 0.04029289
v 0.01179410 -0.00542977 0.04057023
v 0.01176845 -0.00560377 0.04078799
v 0.01188845 -0.00540891 0.04079154
v 0.01176845 -0.00521201 0.04039623
v 0.01183147 -0.00500000 0.04044443
v 0.01188845 -0.00520846 0.04059109
v 0.01192388 -0.00500000 0.04061732
v 0.01195819 -0.00520233 0.04079767
v 0.01198079 -0.00500000 0.04080491
v 0.01155557 -0.00583147 0.04100000
v 0.01170711 -0.00570711 0.04100000
v 0.01183147 -0.00555557 0.04100000
v 0.01192388 -0.00538268 0.04100000
v 0.01198079 -0.00519509 0.04100000
v 0.01200000 -0.00500000 0.04100000
v 0.01100000 -0.00600000 0.04360000
v 0.01119509 -0.00598079 0.04360000
v 0.01138268 -0.00592388 0.04360000
v 0.01155557 -0.00583147 0.04360000
v 0.01170711 -0.00570711 0.04360000
v 0.01183147 -0.00555557 0.04360000
v 0.01192388 -0.00538268 0.04360000
v 0.01198079 -0.00519509 0.04360000
v 0.01200000 -0.00500000 0.04360000
v 0.01100000 0.00000000 0.04000000
v 0.01119509 0.00000000 0.04001921
v 0.01138268 0.00000000 0.04007612
v 0.01155557 0.00000000 0.04016853
v 0.01170711 0.00000000 0.04029289
v 0.01183147 0.00000000 0.04044443
v 0.01192388 0.00000000 0.04061732
v 0.01198079 0.00000000 0.04080491
v 0.01200000 0.00000000 0.04100000
v 0.01200000 0.00000000 0.04360000
f 1 3 2
f 3 7 4
f 3 8 7
f 6 1 5
f 6 3 1
f 13 1 2
f 16 3 4
f 3 15 2
f 7 16 4
f 1 20 5
f 20 6 5
f 21 9 6
f 8 25 7
f 10 3 6
f 3 11 8
f 25 8 11
f 10 11 3
f 2 15 14
f 2 14 13
f 3 16 15
f 16 7 24
f 1 13 20
f 20 21 6
f 24 7 25
f 34 9 21
f 10 6 9
f 34 10 9
f 58 10 34
f 58 60 10
f 25 11 67
f 11 68 67
f 11 10 12
f 10 76 12
f 76 11 12
f 14 17 13
f 15 16 18
f 24 26 16
f 15 19 14
f 19 17 14
f 19 15 18
f 16 26 18
f 13 22 20
f 20 23 21
f 17 22 13
f 23 20 22
f 23 35 21
f 27 24 25
f 26 24 27
f 17 19 28
f 28 30 17
f 19 18 29
f 18 26 32
f 29 18 32
f 19 29 28
f 41 29 32
f 22 17 30
f 30 31 22
f 23 22 31
f 36 23 31
f 38 31 30
f 26 27 33
f 32 26 33
f 33 40 32
f 34 21 35
f 36 35 23
f 31 52 36
f 25 67 27
f 33 27 69
f 69 40 33
f 37 28 29
f 37 29 41
f 28 37 39
f 46 37 41
f 37 46 43
f 28 39 30
f 39 38 30
f 38 52 31
f 39 44 38
f 38 44 53
f 37 43 39
f 44 39 43
f 40 41 32
f 42 41 40
f 41 42 46
f 43 46 48
f 43 48 45
f 44 43 45
f 54 44 45
f 48 50 45
f 45 50 55
f 47 46 42
f 47 48 46
f 48 47 49
f 48 49 50
f 49 51 50
f 51 56 50
f 52 38 53
f 53 44 54
f 45 55 54
f 50 56 55
f 51 57 56
f 40 71 42
f 42 71 47
f 47 73 49
f 73 51 49
f 51 75 57
f 58 34 35
f 36 60 35
f 61 36 52
f 58 35 59
f 64 10 60
f 60 58 59
f 35 60 59
f 60 36 61
f 76 10 64
f 53 61 52
f 63 53 54
f 55 63 54
f 65 55 56
f 65 56 57
f 53 62 61
f 53 63 62
f 61 62 60
f 64 60 62
f 55 64 63
f 64 55 65
f 64 62 63
f 57 66 65
f 65 66 64
f 57 76 66
f 76 64 66
f 27 67 68
f 68 69 27
f 70 40 69
f 11 72 68
f 68 70 69
f 11 76 72
f 40 70 71
f 72 47 71
f 47 72 73
f 51 73 74
f 75 51 74
f 68 72 70
f 71 70 72
f 72 75 73
f 73 75 74
f 75 72 76
f 75 76 57

