# https://github.com/mikedh/trimesh
v -0.02400000 -0.04000000 0.12000000
v -0.02400000 -0.03988471 0.12117054
v -0.02400000 -0.03954328 0.12229610
v -0.02400000 -0.03898882 0.12333342
v -0.02400000 -0.03760000 0.12000000
v -0.02400000 -0.03877004 0.12360000
v -0.02400000 -0.03760000 0.12360000
v -0.01200000 -0.04000000 0.12000000
v -0.01200000 -0.03988471 0.12117054
v -0.01200000 -0.03954328 0.12229610
v -0.01200000 -0.03898882 0.12333342
v -0.01200000 -0.03760000 0.12000000
v -0.01200000 -0.03877004 0.12360000
v -0.01200000 -0.03760000 0.12360000
f 6 1 2
f 1 8 2
f 2 9 3
f 8 1 5
f 6 2 3
f 6 3 4
f 3 11 4
f 11 6 4
f 6 5 1
f 5 6 7
f 14 5 7
f 6 14 7
f 2 8 9
f 8 11 9
f 3 9 10
f 11 3 10
f 6 11 13
f 9 11 10
f 8 14 11
f 8 5 12
f 5 14 12
f 14 8 12
f 14 6 13
f 11 14 13

