# https://github.com/mikedh/trimesh
v 0.03860000 -0.03877004 0.11800000
v 0.03860000 -0.03944469 0.12000000
v 0.03860000 -0.03760000 0.11800000
v 0.03924264 -0.03824264 0.11800000
v 0.03977004 -0.03760000 0.11800000
v 0.03860000 -0.03760000 0.12000000
v 0.04100000 -0.03944469 0.12000000
v 0.04100000 -0.03932588 0.11977772
v 0.04100000 -0.03882843 0.11917157
v 0.04100000 -0.03822228 0.11867412
v 0.04100000 -0.03760000 0.11834151
v 0.04100000 -0.03760000 0.12000000
f 2 3 1
f 7 2 1
f 2 7 6
f 1 3 5
f 1 5 4
f 11 1 4
f 3 11 5
f 3 6 11
f 3 2 6
f 1 9 8
f 9 1 10
f 7 1 8
f 9 7 8
f 11 7 9
f 1 11 10
f 5 11 4
f 11 9 10
f 6 7 12
f 11 6 12
f 7 11 12

