# https://github.com/mikedh/trimesh
v 0.03500000 0.03760000 0.04840000
v 0.03500000 0.03877004 0.04840000
v 0.03617266 0.03864025 0.04840000
v 0.03627168 0.03862462 0.04840000
v 0.03630037 0.03861403 0.04840000
v 0.03500000 0.03760000 0.05200000
v 0.03500000 0.03898882 0.04866658
v 0.03500000 0.03954328 0.04970390
v 0.03625076 0.03933069 0.04954655
v 0.03500000 0.03988471 0.05082946
v 0.03500000 0.04000000 0.05200000
v 0.03621401 0.03974912 0.05078599
v 0.03617054 0.03988471 0.05200000
v 0.03761886 0.03797906 0.04840000
v 0.03757860 0.03876463 0.04942140
v 0.03784158 0.03781426 0.04840000
v 0.03805584 0.03760000 0.04840000
v 0.03860000 0.03760000 0.04894416
v 0.03860000 0.03781426 0.04915842
v 0.03860000 0.03797906 0.04938114
v 0.03860000 0.03760000 0.05200000
v 0.03860000 0.03861403 0.05069963
v 0.03860000 0.03862462 0.05072832
v 0.03860000 0.03864025 0.05082734
v 0.03860000 0.03877004 0.05200000
v 0.03745345 0.03933069 0.05074924
v 0.03729610 0.03954328 0.05200000
v 0.03833342 0.03898882 0.05200000
f 1 7 2
f 2 7 3
f 4 2 3
f 7 4 3
f 17 1 2
f 1 18 6
f 4 16 2
f 4 5 14
f 11 1 6
f 11 6 21
f 7 9 4
f 1 11 7
f 9 7 8
f 7 11 8
f 12 9 8
f 4 9 5
f 9 15 5
f 12 8 10
f 10 8 11
f 11 13 10
f 13 12 10
f 12 26 9
f 11 27 13
f 27 12 13
f 18 1 17
f 17 2 16
f 16 4 14
f 15 16 14
f 15 14 5
f 16 15 20
f 18 17 16
f 18 16 19
f 16 20 19
f 20 18 19
f 20 22 18
f 15 22 20
f 6 18 21
f 21 18 25
f 25 18 22
f 22 15 23
f 28 21 25
f 25 22 23
f 25 23 24
f 23 28 24
f 28 25 24
f 26 15 9
f 28 11 21
f 27 28 26
f 26 12 27
f 11 28 27
f 15 26 23
f 26 28 23

