# https://github.com/mikedh/trimesh
v 0.03860000 -0.03000000 0.04840000
v 0.03977004 -0.03000000 0.04840000
v 0.03860000 -0.03000000 0.05200000
v 0.03860000 -0.02700000 0.04840000
v 0.03977004 -0.02700000 0.04840000
v 0.03860000 -0.02700000 0.05200000
v 0.03998882 -0.03000000 0.04866658
v 0.04054328 -0.03000000 0.04970390
v 0.04088471 -0.03000000 0.05082946
v 0.04100000 -0.03000000 0.05200000
v 0.03998882 -0.02700000 0.04866658
v 0.04054328 -0.02700000 0.04970390
v 0.04088471 -0.02700000 0.05082946
v 0.04100000 -0.02700000 0.05200000
f 1 4 2
f 7 1 2
f 6 1 3
f 1 10 3
f 10 6 3
f 6 4 1
f 2 4 5
f 4 11 5
f 4 6 14
f 10 1 7
f 7 2 11
f 7 11 8
f 10 7 8
f 8 12 9
f 10 8 9
f 14 10 9
f 11 2 5
f 8 11 12
f 4 14 11
f 11 14 12
f 6 10 14
f 9 12 13
f 14 9 13
f 12 14 13

