# https://github.com/mikedh/trimesh
v 0.03500000 0.03400000 0.12360000
v 0.03500000 0.03400000 0.12600000
v 0.03617054 0.03400000 0.12588471
v 0.03500000 0.03760000 0.12360000
v 0.03500000 0.03600000 0.12600000
v 0.03500000 0.03678036 0.12592314
v 0.03500000 0.03753073 0.12569552
v 0.03500000 0.03760000 0.12565849
v 0.03860000 0.03400000 0.12360000
v 0.03860000 0.03400000 0.12544469
v 0.03860000 0.03446927 0.12569552
v 0.03860000 0.03521964 0.12592314
v 0.03860000 0.03760000 0.12360000
v 0.03860000 0.03600000 0.12600000
v 0.03860000 0.03678036 0.12592314
v 0.03860000 0.03753073 0.12569552
v 0.03860000 0.03760000 0.12565849
f 2 4 1
f 9 2 1
f 4 9 1
f 2 10 3
f 12 2 3
f 5 2 14
f 4 2 8
f 8 2 5
f 8 5 6
f 8 6 7
f 5 14 6
f 17 4 8
f 16 8 7
f 6 16 7
f 2 9 10
f 14 2 12
f 10 11 3
f 11 12 3
f 10 12 11
f 9 17 10
f 10 14 12
f 9 4 13
f 4 17 13
f 17 9 13
f 15 6 14
f 6 15 16
f 17 8 16
f 17 14 10
f 14 17 15
f 15 17 16

