# https://github.com/mikedh/trimesh
v 0.03200000 -0.03760000 0.07134151
v 0.03200000 -0.03753073 0.07130448
v 0.03200000 -0.03678036 0.07107686
v 0.03200000 -0.03600000 0.07100000
v 0.03200000 -0.03760000 0.07865849
v 0.03200000 -0.03753073 0.07869552
v 0.03200000 -0.03678036 0.07892314
v 0.03200000 -0.03600000 0.07900000
v 0.03200000 -0.03521964 0.07107686
v 0.03200000 -0.03446927 0.07130448
v 0.03200000 -0.03400000 0.07155531
v 0.03200000 -0.03521964 0.07892314
v 0.03200000 -0.03446927 0.07869552
v 0.03200000 -0.03400000 0.07844469
v 0.03500000 -0.03760000 0.07134151
v 0.03500000 -0.03753073 0.07130448
v 0.03500000 -0.03678036 0.07107686
v 0.03500000 -0.03600000 0.07100000
v 0.03500000 -0.03760000 0.07865849
v 0.03500000 -0.03753073 0.07869552
v 0.03500000 -0.03678036 0.07892314
v 0.03500000 -0.03600000 0.07900000
v 0.03500000 -0.03521964 0.07107686
v 0.03500000 -0.03446927 0.07130448
v 0.03500000 -0.03400000 0.07155531
v 0.03500000 -0.03521964 0.07892314
v 0.03500000 -0.03446927 0.07869552
v 0.03500000 -0.03400000 0.07844469
f 1 3 2
f 1 4 3
f 4 1 11
f 8 11 1
f 15 1 2
f 3 17 2
f 4 18 3
f 8 1 5
f 7 5 6
f 8 5 7
f 1 19 5
f 5 19 6
f 7 6 21
f 22 8 7
f 4 11 9
f 9 11 10
f 4 9 18
f 9 10 24
f 11 25 10
f 8 12 14
f 11 8 14
f 14 12 13
f 8 22 12
f 12 26 13
f 28 11 14
f 28 14 13
f 15 2 16
f 2 17 16
f 1 15 19
f 3 18 17
f 17 15 16
f 18 15 17
f 25 15 18
f 6 19 20
f 21 6 20
f 22 7 21
f 19 21 20
f 19 22 21
f 15 28 19
f 19 28 22
f 18 9 23
f 23 9 24
f 10 25 24
f 11 28 25
f 25 18 23
f 28 15 25
f 25 23 24
f 12 22 26
f 13 26 27
f 28 13 27
f 22 28 26
f 26 28 27

