# https://github.com/mikedh/trimesh
v -0.03870000 -0.02791253 0.11161957
v -0.03870000 -0.02780157 0.11125377
v -0.03870000 -0.02762137 0.11091664
v -0.03870000 -0.02795000 0.11200000
v -0.03870000 -0.02791253 0.11238043
v -0.03870000 -0.02780157 0.11274623
v -0.03870000 -0.02762137 0.11308336
v -0.03870000 -0.02737886 0.11062114
v -0.03870000 -0.02708336 0.11037863
v -0.03870000 -0.02700000 0.11033408
v -0.03870000 -0.02737886 0.11337886
v -0.03870000 -0.02708336 0.11362137
v -0.03870000 -0.02700000 0.11366592
v -0.03800000 -0.02791253 0.11161957
v -0.03800000 -0.02780157 0.11125377
v -0.03800000 -0.02762137 0.11091664
v -0.03800000 -0.02795000 0.11200000
v -0.03800000 -0.02791253 0.11238043
v -0.03800000 -0.02780157 0.11274623
v -0.03800000 -0.02762137 0.11308336
v -0.03800000 -0.02737886 0.11062114
v -0.03800000 -0.02708336 0.11037863
v -0.03800000 -0.02700000 0.11033408
v -0.03800000 -0.02737886 0.11337886
v -0.03800000 -0.02708336 0.11362137
v -0.03800000 -0.02700000 0.11366592
f 4 2 1
f 4 3 2
f 10 3 4
f 2 15 1
f 17 4 1
f 3 16 2
f 3 8 16
f 6 4 5
f 7 4 6
f 13 4 7
f 4 17 5
f 6 5 19
f 6 19 7
f 11 7 20
f 3 10 8
f 8 10 9
f 8 9 21
f 10 23 9
f 10 13 23
f 13 10 4
f 13 7 11
f 13 11 12
f 11 25 12
f 25 13 12
f 2 16 15
f 1 15 14
f 17 1 14
f 15 17 14
f 16 17 15
f 23 17 16
f 5 17 18
f 19 5 18
f 7 19 20
f 17 19 18
f 17 24 19
f 24 20 19
f 16 8 21
f 21 9 22
f 9 23 22
f 23 16 21
f 23 21 22
f 24 11 20
f 11 24 25
f 26 23 13
f 26 13 25
f 17 23 26
f 17 26 24
f 25 24 26

