# https://github.com/mikedh/trimesh
v -0.03300000 -0.02700000 0.06200000
v -0.03300000 -0.02700000 0.06489648
v -0.03300000 -0.02697545 0.06490393
v -0.03300000 -0.02600000 0.06500000
v -0.03300000 -0.02502455 0.06490393
v -0.03300000 -0.02142688 0.06200000
v -0.03300000 -0.02184265 0.06277785
v -0.03300000 -0.02322215 0.06415735
v -0.03300000 -0.02408658 0.06461940
v -0.03300000 -0.02246447 0.06353553
v -0.03100000 -0.02700000 0.06200000
v -0.03100000 -0.02700000 0.06489648
v -0.03100000 -0.02697545 0.06490393
v -0.03100000 -0.02600000 0.06500000
v -0.03100000 -0.02502455 0.06490393
v -0.03100000 -0.02142688 0.06200000
v -0.03100000 -0.02184265 0.06277785
v -0.03100000 -0.02322215 0.06415735
v -0.03100000 -0.02408658 0.06461940
v -0.03100000 -0.02246447 0.06353553
f 3 6 1
f 6 11 1
f 3 1 2
f 9 3 4
f 9 4 5
f 1 12 2
f 12 3 2
f 3 14 4
f 4 15 5
f 15 9 5
f 6 9 10
f 6 10 7
f 17 6 7
f 10 17 7
f 6 3 9
f 10 9 8
f 18 10 8
f 9 18 8
f 1 11 12
f 3 12 13
f 14 3 13
f 14 15 4
f 19 9 15
f 11 19 12
f 12 14 13
f 19 14 12
f 14 19 15
f 11 6 16
f 16 6 17
f 20 17 10
f 11 16 19
f 19 16 20
f 20 16 17
f 9 19 18
f 20 10 18
f 19 20 18

