# https://github.com/mikedh/trimesh
v 0.00000000 0.00135000 -0.00180000
v 0.00135000 0.00000000 -0.00180000
v 0.00000000 0.00135000 -0.00100000
v 0.00135000 0.00000000 -0.00100000
v 0.00000000 0.00400000 -0.00180000
v 0.00039207 0.00398074 -0.00180000
v 0.00078036 0.00392314 -0.00180000
v 0.00116114 0.00382776 -0.00180000
v 0.00153073 0.00369552 -0.00180000
v 0.00188559 0.00352769 -0.00180000
v 0.00000000 0.00400000 -0.00100000
v 0.00039207 0.00398074 -0.00100000
v 0.00078036 0.00392314 -0.00100000
v 0.00116114 0.00382776 -0.00100000
v 0.00153073 0.00369552 -0.00100000
v 0.00188559 0.00352769 -0.00100000
v 0.00400000 0.00000000 -0.00180000
v 0.00398074 0.00039207 -0.00180000
v 0.00392314 0.00078036 -0.00180000
v 0.00382776 0.00116114 -0.00180000
v 0.00369552 0.00153073 -0.00180000
v 0.00352769 0.00188559 -0.00180000
v 0.00400000 0.00000000 -0.00100000
v 0.00398074 0.00039207 -0.00100000
v 0.00392314 0.00078036 -0.00100000
v 0.00382776 0.00116114 -0.00100000
v 0.00369552 0.00153073 -0.00100000
v 0.00352769 0.00188559 -0.00100000
v 0.00282843 0.00282843 -0.00180000
v 0.00222228 0.00332588 -0.00180000
v 0.00253757 0.00309204 -0.00180000
v 0.00332588 0.00222228 -0.00180000
v 0.00309204 0.00253757 -0.00180000
v 0.00282843 0.00282843 -0.00100000
v 0.00222228 0.00332588 -0.00100000
v 0.00253757 0.00309204 -0.00100000
v 0.00332588 0.00222228 -0.00100000
v 0.00309204 0.00253757 -0.00100000
f 4 1 2
f 1 17 2
f 1 9 17
f 3 1 4
f 23 3 4
f 3 5 1
f 7 5 6
f 1 5 9
f 9 5 7
f 5 12 6
f 12 7 6
f 9 7 8
f 10 30 9
f 7 14 8
f 14 9 8
f 9 15 10
f 3 34 11
f 5 3 11
f 5 11 12
f 13 7 12
f 7 13 14
f 11 13 12
f 11 15 13
f 15 9 14
f 35 10 16
f 10 15 16
f 15 14 13
f 15 11 34
f 15 35 16
f 17 4 2
f 17 19 18
f 17 21 19
f 23 17 18
f 19 25 18
f 25 19 20
f 17 29 21
f 21 20 19
f 21 32 22
f 32 28 22
f 21 27 20
f 28 21 22
f 3 23 34
f 17 23 4
f 23 18 24
f 18 25 24
f 25 23 24
f 27 23 25
f 25 20 26
f 20 27 26
f 27 21 28
f 34 23 27
f 27 25 26
f 28 37 27
f 17 9 29
f 29 34 33
f 29 9 30
f 29 30 31
f 35 30 10
f 30 36 31
f 36 29 31
f 21 29 32
f 32 29 33
f 32 33 37
f 34 29 36
f 35 36 30
f 15 34 35
f 35 34 36
f 37 33 38
f 32 37 28
f 33 34 38
f 34 27 37
f 34 37 38

