# https://github.com/mikedh/trimesh
v 0.03860000 0.03400000 0.06200000
v 0.03860000 0.03400000 0.08600000
v 0.03860000 0.03760000 0.06200000
v 0.03977004 0.03760000 0.06200000
v 0.03860000 0.03760000 0.08600000
v 0.03977004 0.03760000 0.08600000
v 0.04100000 0.03400000 0.06200000
v 0.04088471 0.03517054 0.06200000
v 0.04100000 0.03400000 0.08600000
v 0.04088471 0.03517054 0.08600000
v 0.03998882 0.03733342 0.06200000
v 0.04054328 0.03629610 0.06200000
v 0.04100000 0.03760000 0.07134151
v 0.03998882 0.03733342 0.08600000
v 0.04054328 0.03629610 0.08600000
v 0.04100000 0.03760000 0.07865849
f 2 3 1
f 7 2 1
f 3 7 1
f 2 9 5
f 11 3 4
f 3 13 4
f 3 2 5
f 3 5 16
f 5 14 6
f 16 5 6
f 7 12 8
f 13 7 8
f 2 7 9
f 7 16 9
f 14 9 10
f 9 16 10
f 7 3 11
f 13 11 4
f 3 16 13
f 7 11 12
f 12 13 8
f 16 7 13
f 11 13 12
f 5 9 14
f 14 16 6
f 14 10 15
f 10 16 15
f 16 14 15

