# https://github.com/mikedh/trimesh
v -0.03633342 -0.03898882 0.05200000
v -0.03529610 -0.03954328 0.05200000
v -0.03545345 -0.03933069 0.05074924
v -0.03660000 -0.03781426 0.04915842
v -0.03660000 -0.03760000 0.04894416
v -0.03605584 -0.03760000 0.04840000
v -0.03584158 -0.03781426 0.04840000
v -0.03660000 -0.03797906 0.04938114
v -0.03557860 -0.03876463 0.04942140
v -0.03561886 -0.03797906 0.04840000
v -0.03660000 -0.03861403 0.05069963
v -0.03660000 -0.03862462 0.05072832
v -0.03660000 -0.03864025 0.05082734
v -0.03660000 -0.03877004 0.05200000
v -0.03660000 -0.03760000 0.05200000
v -0.03425076 -0.03933069 0.04954655
v -0.03300000 -0.03954328 0.04970390
v -0.03300000 -0.03898882 0.04866658
v -0.03421401 -0.03974912 0.05078599
v -0.03417054 -0.03988471 0.05200000
v -0.03300000 -0.03988471 0.05082946
v -0.03300000 -0.04000000 0.05200000
v -0.03430037 -0.03861403 0.04840000
v -0.03427168 -0.03862462 0.04840000
v -0.03417266 -0.03864025 0.04840000
v -0.03300000 -0.03877004 0.04840000
v -0.03300000 -0.03760000 0.04840000
v -0.03300000 -0.03760000 0.05200000
f 3 9 16
f 11 3 12
f 3 13 12
f 11 9 3
f 14 1 2
f 13 3 1
f 3 19 2
f 22 14 2
f 3 2 1
f 9 11 8
f 5 6 7
f 5 7 4
f 8 5 4
f 7 8 4
f 7 9 8
f 6 10 7
f 11 5 8
f 9 10 23
f 7 10 9
f 26 10 6
f 5 27 6
f 13 11 12
f 14 5 11
f 14 11 13
f 14 13 1
f 5 14 15
f 28 5 15
f 14 28 15
f 16 9 23
f 24 16 23
f 24 25 16
f 19 16 17
f 18 22 17
f 25 18 16
f 18 17 16
f 27 22 18
f 19 3 16
f 2 19 20
f 22 2 20
f 19 17 21
f 21 17 22
f 20 19 21
f 22 20 21
f 10 24 23
f 10 26 24
f 6 27 26
f 27 5 28
f 24 26 25
f 26 18 25
f 27 18 26
f 22 28 14
f 22 27 28

