# https://github.com/mikedh/trimesh
v -0.02360377 -0.00721201 0.04863155
v -0.02376845 -0.00721201 0.04879623
v -0.02388845 -0.00720846 0.04899109
v -0.02379410 -0.00742977 0.04897023
v -0.02363571 -0.00763571 0.04896211
v -0.02363571 -0.00743789 0.04876429
v -0.02355557 -0.00700000 0.04856853
v -0.02370711 -0.00700000 0.04869289
v -0.02383147 -0.00700000 0.04884443
v -0.02392388 -0.00700000 0.04901732
v -0.02340891 -0.00720846 0.04851155
v -0.02342977 -0.00742977 0.04860590
v -0.02321201 -0.00760377 0.04863155
v -0.02320846 -0.00740891 0.04851155
v -0.02320233 -0.00720233 0.04844181
v -0.02343789 -0.00763571 0.04876429
v -0.02342977 -0.00779410 0.04897023
v -0.02321201 -0.00776845 0.04879623
v -0.02320846 -0.00788845 0.04899109
v -0.02338268 -0.00700000 0.04847612
v -0.02319509 -0.00700000 0.04841921
v -0.02376845 -0.00760377 0.04918799
v -0.02383147 -0.00755557 0.04940000
v -0.02388845 -0.00740891 0.04919154
v -0.02395819 -0.00720233 0.04919767
v -0.02392388 -0.00738268 0.04940000
v -0.02398079 -0.00719509 0.04940000
v -0.02360377 -0.00776845 0.04918799
v -0.02370711 -0.00770711 0.04940000
v -0.02355557 -0.00783147 0.04940000
v -0.02398079 -0.00700000 0.04920491
v -0.02400000 -0.00700000 0.04940000
v -0.02340891 -0.00788845 0.04919154
v -0.02338268 -0.00792388 0.04940000
v -0.02320233 -0.00795819 0.04919767
v -0.02319509 -0.00798079 0.04940000
v -0.02300000 -0.00755557 0.04856853
v -0.02300000 -0.00770711 0.04869289
v -0.02300000 -0.00738268 0.04847612
v -0.02300000 -0.00719509 0.04841921
v -0.02300000 -0.00783147 0.04884443
v -0.02300000 -0.00792388 0.04901732
v -0.02300000 -0.00700000 0.04840000
v -0.02300000 -0.00798079 0.04920491
v -0.02300000 -0.00800000 0.04940000
v -0.02383147 -0.00755557 0.05300000
v -0.02376845 -0.00760377 0.05321201
v -0.02392388 -0.00738268 0.05300000
v -0.02398079 -0.00719509 0.05300000
v -0.02388845 -0.00740891 0.05320846
v -0.02395819 -0.00720233 0.05320233
v -0.02370711 -0.00770711 0.05300000
v -0.02355557 -0.00783147 0.05300000
v -0.02360377 -0.00776845 0.05321201
v -0.02400000 -0.00700000 0.05300000
v -0.02398079 -0.00700000 0.05319509
v -0.02338268 -0.00792388 0.05300000
v -0.02340891 -0.00788845 0.05320846
v -0.02319509 -0.00798079 0.05300000
v -0.02320233 -0.00795819 0.05320233
v -0.02388845 -0.00720846 0.05340891
v -0.02379410 -0.00742977 0.05342977
v -0.02376845 -0.00721201 0.05360377
v -0.02363571 -0.00763571 0.05343789
v -0.02363571 -0.00743789 0.05363571
v -0.02360377 -0.00721201 0.05376845
v -0.02392388 -0.00700000 0.05338268
v -0.02383147 -0.00700000 0.05355557
v -0.02370711 -0.00700000 0.05370711
v -0.02355557 -0.00700000 0.05383147
v -0.02342977 -0.00779410 0.05342977
v -0.02343789 -0.00763571 0.05363571
v -0.02320846 -0.00788845 0.05340891
v -0.02321201 -0.00776845 0.05360377
v -0.02342977 -0.00742977 0.05379410
v -0.02340891 -0.00720846 0.05388845
v -0.02321201 -0.00760377 0.05376845
v -0.02320846 -0.00740891 0.05388845
v -0.02320233 -0.00720233 0.05395819
v -0.02338268 -0.00700000 0.05392388
v -0.02319509 -0.00700000 0.05398079
v -0.02300000 -0.00800000 0.05300000
v -0.02300000 -0.00798079 0.05319509
v -0.02300000 -0.00792388 0.05338268
v -0.02300000 -0.00783147 0.05355557
v -0.02300000 -0.00770711 0.05370711
v -0.02300000 -0.00755557 0.05383147
v -0.02300000 -0.00738268 0.05392388
v -0.02300000 -0.00719509 0.05398079
v -0.02300000 -0.00700000 0.05400000
v -0.02355557 0.00700000 0.04856853
v -0.02370711 0.00700000 0.04869289
v -0.02360377 0.00721201 0.04863155
v -0.02376845 0.00721201 0.04879623
v -0.02383147 0.00700000 0.04884443
v -0.02388845 0.00720846 0.04899109
v -0.02392388 0.00700000 0.04901732
v -0.02379410 0.00742977 0.04897023
v -0.02363571 0.00743789 0.04876429
v -0.02363571 0.00763571 0.04896211
v -0.02338268 0.00700000 0.04847612
v -0.02340891 0.00720846 0.04851155
v -0.02342977 0.00742977 0.04860590
v -0.02319509 0.00700000 0.04841921
v -0.02320233 0.00720233 0.04844181
v -0.02320846 0.00740891 0.04851155
v -0.02321201 0.00760377 0.04863155
v -0.02343789 0.00763571 0.04876429
v -0.02342977 0.00779410 0.04897023
v -0.02321201 0.00776845 0.04879623
v -0.02320846 0.00788845 0.04899109
v -0.02398079 0.00700000 0.04920491
v -0.02395819 0.00720233 0.04919767
v -0.02388845 0.00740891 0.04919154
v -0.02400000 0.00700000 0.04940000
v -0.02398079 0.00719509 0.04940000
v -0.02392388 0.00738268 0.04940000
v -0.02376845 0.00760377 0.04918799
v -0.02383147 0.00755557 0.04940000
v -0.02360377 0.00776845 0.04918799
v -0.02370711 0.00770711 0.04940000
v -0.02355557 0.00783147 0.04940000
v -0.02340891 0.00788845 0.04919154
v -0.02338268 0.00792388 0.04940000
v -0.02320233 0.00795819 0.04919767
v -0.02319509 0.00798079 0.04940000
v -0.02300000 0.00700000 0.04840000
v -0.02300000 0.00719509 0.04841921
v -0.02300000 0.00738268 0.04847612
v -0.02300000 0.00755557 0.04856853
v -0.02300000 0.00770711 0.04869289
v -0.02300000 0.00783147 0.04884443
v -0.02300000 0.00792388 0.04901732
v -0.02300000 0.00798079 0.04920491
v -0.02300000 0.00800000 0.04940000
v -0.02400000 0.00700000 0.05300000
v -0.02398079 0.00719509 0.05300000
v -0.02392388 0.00738268 0.05300000
v -0.02398079 0.00700000 0.05319509
v -0.02395819 0.00720233 0.05320233
v -0.02388845 0.00740891 0.05320846
v -0.02383147 0.00755557 0.05300000
v -0.02376845 0.00760377 0.05321201
v -0.02370711 0.00770711 0.05300000
v -0.02355557 0.00783147 0.05300000
v -0.02360377 0.00776845 0.05321201
v -0.02338268 0.00792388 0.05300000
v -0.02340891 0.00788845 0.05320846
v -0.02319509 0.00798079 0.05300000
v -0.02320233 0.00795819 0.05320233
v -0.02392388 0.00700000 0.05338268
v -0.02388845 0.00720846 0.05340891
v -0.02379410 0.00742977 0.05342977
v -0.02383147 0.00700000 0.05355557
v -0.02376845 0.00721201 0.05360377
v -0.02363571 0.00743789 0.05363571
v -0.02363571 0.00763571 0.05343789
v -0.02370711 0.00700000 0.05370711
v -0.02360377 0.00721201 0.05376845
v -0.02355557 0.00700000 0.05383147
v -0.02342977 0.00779410 0.05342977
v -0.02343789 0.00763571 0.05363571
v -0.02320846 0.00788845 0.05340891
v -0.02321201 0.00776845 0.05360377
v -0.02342977 0.00742977 0.05379410
v -0.02340891 0.00720846 0.05388845
v -0.02338268 0.00700000 0.05392388
v -0.02319509 0.00700000 0.05398079
v -0.02320233 0.00720233 0.05395819
v -0.02320846 0.00740891 0.05388845
v -0.02321201 0.00760377 0.05376845
v -0.02300000 0.00800000 0.05300000
v -0.02300000 0.00798079 0.05319509
v -0.02300000 0.00792388 0.05338268
v -0.02300000 0.00783147 0.05355557
v -0.02300000 0.00700000 0.05400000
v -0.02300000 0.00719509 0.05398079
v -0.02300000 0.00738268 0.05392388
v -0.02300000 0.00770711 0.05370711
v -0.02300000 0.00755557 0.05383147
v -0.01700000 -0.00755557 0.04856853
v -0.01700000 -0.00770711 0.04869289
v -0.01678799 -0.00760377 0.04863155
v -0.01700000 -0.00738268 0.04847612
v -0.01700000 -0.00719509 0.04841921
v -0.01679154 -0.00740891 0.04851155
v -0.01679767 -0.00720233 0.04844181
v -0.01659109 -0.00720846 0.04851155
v -0.01657023 -0.00742977 0.04860590
v -0.01700000 -0.00783147 0.04884443
v -0.01678799 -0.00776845 0.04879623
v -0.01700000 -0.00792388 0.04901732
v -0.01679154 -0.00788845 0.04899109
v -0.01656211 -0.00763571 0.04876429
v -0.01657023 -0.00779410 0.04897023
v -0.01700000 -0.00700000 0.04840000
v -0.01680491 -0.00700000 0.04841921
v -0.01661732 -0.00700000 0.04847612
v -0.01639623 -0.00721201 0.04863155
v -0.01636429 -0.00763571 0.04896211
v -0.01636429 -0.00743789 0.04876429
v -0.01623155 -0.00721201 0.04879623
v -0.01620590 -0.00742977 0.04897023
v -0.01611155 -0.00720846 0.04899109
v -0.01644443 -0.00700000 0.04856853
v -0.01629289 -0.00700000 0.04869289
v -0.01616853 -0.00700000 0.04884443
v -0.01607612 -0.00700000 0.04901732
v -0.01700000 -0.00798079 0.04920491
v -0.01679767 -0.00795819 0.04919767
v -0.01700000 -0.00800000 0.04940000
v -0.01680491 -0.00798079 0.04940000
v -0.01659109 -0.00788845 0.04919154
v -0.01661732 -0.00792388 0.04940000
v -0.01639623 -0.00776845 0.04918799
v -0.01644443 -0.00783147 0.04940000
v -0.01629289 -0.00770711 0.04940000
v -0.01623155 -0.00760377 0.04918799
v -0.01616853 -0.00755557 0.04940000
v -0.01611155 -0.00740891 0.04919154
v -0.01604181 -0.00720233 0.04919767
v -0.01607612 -0.00738268 0.04940000
v -0.01601921 -0.00719509 0.04940000
v -0.01601921 -0.00700000 0.04920491
v -0.01600000 -0.00700000 0.04940000
v -0.01700000 -0.00800000 0.05300000
v -0.01680491 -0.00798079 0.05300000
v -0.01700000 -0.00798079 0.05319509
v -0.01679767 -0.00795819 0.05320233
v -0.01661732 -0.00792388 0.05300000
v -0.01659109 -0.00788845 0.05320846
v -0.01644443 -0.00783147 0.05300000
v -0.01629289 -0.00770711 0.05300000
v -0.01639623 -0.00776845 0.05321201
v -0.01616853 -0.00755557 0.05300000
v -0.01623155 -0.00760377 0.05321201
v -0.01607612 -0.00738268 0.05300000
v -0.01601921 -0.00719509 0.05300000
v -0.01611155 -0.00740891 0.05320846
v -0.01604181 -0.00720233 0.05320233
v -0.01600000 -0.00700000 0.05300000
v -0.01601921 -0.00700000 0.05319509
v -0.01700000 -0.00792388 0.05338268
v -0.01679154 -0.00788845 0.05340891
v -0.01700000 -0.00783147 0.05355557
v -0.01678799 -0.00776845 0.05360377
v -0.01657023 -0.00779410 0.05342977
v -0.01656211 -0.00763571 0.05363571
v -0.01700000 -0.00770711 0.05370711
v -0.01678799 -0.00760377 0.05376845
v -0.01700000 -0.00755557 0.05383147
v -0.01700000 -0.00738268 0.05392388
v -0.01700000 -0.00719509 0.05398079
v -0.01679154 -0.00740891 0.05388845
v -0.01679767 -0.00720233 0.05395819
v -0.01657023 -0.00742977 0.05379410
v -0.01659109 -0.00720846 0.05388845
v -0.01700000 -0.00700000 0.05400000
v -0.01680491 -0.00700000 0.05398079
v -0.01661732 -0.00700000 0.05392388
v -0.01636429 -0.00763571 0.05343789
v -0.01636429 -0.00743789 0.05363571
v -0.01620590 -0.00742977 0.05342977
v -0.01611155 -0.00720846 0.05340891
v -0.01623155 -0.00721201 0.05360377
v -0.01639623 -0.00721201 0.05376845
v -0.01607612 -0.00700000 0.05338268
v -0.01616853 -0.00700000 0.05355557
v -0.01629289 -0.00700000 0.05370711
v -0.01644443 -0.00700000 0.05383147
v -0.01700000 0.00700000 0.04840000
v -0.01700000 0.00719509 0.04841921
v -0.01700000 0.00738268 0.04847612
v -0.01680491 0.00700000 0.04841921
v -0.01679767 0.00720233 0.04844181
v -0.01679154 0.00740891 0.04851155
v -0.01700000 0.00755557 0.04856853
v -0.01700000 0.00770711 0.04869289
v -0.01678799 0.00760377 0.04863155
v -0.01661732 0.00700000 0.04847612
v -0.01659109 0.00720846 0.04851155
v -0.01657023 0.00742977 0.04860590
v -0.01700000 0.00783147 0.04884443
v -0.01678799 0.00776845 0.04879623
v -0.01700000 0.00792388 0.04901732
v -0.01679154 0.00788845 0.04899109
v -0.01656211 0.00763571 0.04876429
v -0.01657023 0.00779410 0.04897023
v -0.01644443 0.00700000 0.04856853
v -0.01639623 0.00721201 0.04863155
v -0.01629289 0.00700000 0.04869289
v -0.01636429 0.00743789 0.04876429
v -0.01636429 0.00763571 0.04896211
v -0.01623155 0.00721201 0.04879623
v -0.01616853 0.00700000 0.04884443
v -0.01620590 0.00742977 0.04897023
v -0.01611155 0.00720846 0.04899109
v -0.01607612 0.00700000 0.04901732
v -0.01700000 0.00798079 0.04920491
v -0.01679767 0.00795819 0.04919767
v -0.01700000 0.00800000 0.04940000
v -0.01680491 0.00798079 0.04940000
v -0.01659109 0.00788845 0.04919154
v -0.01661732 0.00792388 0.04940000
v -0.01639623 0.00776845 0.04918799
v -0.01644443 0.00783147 0.04940000
v -0.01629289 0.00770711 0.04940000
v -0.01601921 0.00700000 0.04920491
v -0.01604181 0.00720233 0.04919767
v -0.01611155 0.00740891 0.04919154
v -0.01600000 0.00700000 0.04940000
v -0.01601921 0.00719509 0.04940000
v -0.01607612 0.00738268 0.04940000
v -0.01623155 0.00760377 0.04918799
v -0.01616853 0.00755557 0.04940000
v -0.01700000 0.00800000 0.05300000
v -0.01680491 0.00798079 0.05300000
v -0.01700000 0.00798079 0.05319509
v -0.01679767 0.00795819 0.05320233
v -0.01661732 0.00792388 0.05300000
v -0.01659109 0.00788845 0.05320846
v -0.01644443 0.00783147 0.05300000
v -0.01629289 0.00770711 0.05300000
v -0.01639623 0.00776845 0.05321201
v -0.01600000 0.00700000 0.05300000
v -0.01601921 0.00719509 0.05300000
v -0.01607612 0.00738268 0.05300000
v -0.01601921 0.00700000 0.05319509
v -0.01604181 0.00720233 0.05320233
v -0.01611155 0.00740891 0.05320846
v -0.01616853 0.00755557 0.05300000
v -0.01623155 0.00760377 0.05321201
v -0.01700000 0.00792388 0.05338268
v -0.01679154 0.00788845 0.05340891
v -0.01700000 0.00783147 0.05355557
v -0.01678799 0.00776845 0.05360377
v -0.01657023 0.00779410 0.05342977
v -0.01656211 0.00763571 0.05363571
v -0.01700000 0.00700000 0.05400000
v -0.01700000 0.00719509 0.05398079
v -0.01700000 0.00738268 0.05392388
v -0.01680491 0.00700000 0.05398079
v -0.01679767 0.00720233 0.05395819
v -0.01679154 0.00740891 0.05388845
v -0.01700000 0.00770711 0.05370711
v -0.01678799 0.00760377 0.05376845
v -0.01700000 0.00755557 0.05383147
v -0.01657023 0.00742977 0.05379410
v -0.01659109 0.00720846 0.05388845
v -0.01661732 0.00700000 0.05392388
v -0.01636429 0.00743789 0.05363571
v -0.01636429 0.00763571 0.05343789
v -0.01620590 0.00742977 0.05342977
v -0.01607612 0.00700000 0.05338268
v -0.01611155 0.00720846 0.05340891
v -0.01616853 0.00700000 0.05355557
v -0.01623155 0.00721201 0.05360377
v -0.01639623 0.00721201 0.05376845
v -0.01629289 0.00700000 0.05370711
v -0.01644443 0.00700000 0.05383147
f 6 12 16
f 1 7 11
f 1 6 2
f 1 2 8
f 1 12 6
f 1 8 7
f 2 4 3
f 2 9 8
f 2 3 9
f 3 10 9
f 3 25 10
f 3 4 24
f 4 6 5
f 5 6 16
f 5 16 17
f 4 5 22
f 5 17 28
f 2 6 4
f 12 13 16
f 13 18 16
f 7 20 11
f 11 14 12
f 11 15 14
f 11 20 15
f 15 20 21
f 1 11 12
f 12 14 13
f 13 14 37
f 13 38 18
f 13 37 38
f 14 15 39
f 15 21 40
f 15 40 39
f 14 39 37
f 21 43 40
f 17 18 19
f 16 18 17
f 17 19 33
f 18 41 19
f 18 38 41
f 19 42 35
f 19 41 42
f 22 23 24
f 22 29 23
f 3 24 25
f 24 26 25
f 10 25 31
f 25 27 31
f 4 22 24
f 25 26 27
f 23 26 24
f 27 32 31
f 5 28 22
f 22 28 29
f 28 33 30
f 28 30 29
f 17 33 28
f 19 35 33
f 33 35 34
f 30 33 34
f 34 35 36
f 35 44 36
f 35 42 44
f 36 44 45
f 23 29 46
f 26 48 27
f 27 55 32
f 23 46 26
f 29 30 53
f 30 34 57
f 34 36 57
f 36 45 59
f 7 8 92
f 8 9 92
f 9 10 97
f 7 101 20
f 20 104 21
f 21 127 43
f 10 31 112
f 31 32 112
f 37 182 38
f 38 182 41
f 39 40 184
f 37 39 181
f 40 43 196
f 41 190 42
f 42 209 44
f 44 211 45
f 45 211 82
f 27 48 49
f 26 46 48
f 27 49 55
f 29 52 46
f 29 53 52
f 30 57 53
f 36 59 57
f 45 82 59
f 46 52 47
f 46 47 50
f 48 51 49
f 46 50 48
f 49 56 55
f 48 50 51
f 50 61 51
f 49 51 56
f 51 67 56
f 47 62 50
f 52 53 54
f 47 52 54
f 47 54 64
f 53 58 54
f 53 57 58
f 57 59 60
f 54 58 71
f 57 60 58
f 58 60 73
f 59 82 83
f 59 83 60
f 60 83 84
f 51 61 67
f 61 68 67
f 50 62 61
f 61 62 63
f 61 63 68
f 63 69 68
f 47 64 62
f 54 71 64
f 62 64 65
f 64 71 72
f 64 72 65
f 62 65 63
f 65 72 75
f 63 65 66
f 63 66 69
f 65 75 66
f 66 70 69
f 66 76 70
f 58 73 71
f 71 73 74
f 71 74 72
f 60 84 73
f 73 84 85
f 73 85 74
f 74 85 86
f 72 77 75
f 72 74 77
f 66 75 76
f 75 77 78
f 70 76 80
f 75 78 76
f 76 78 79
f 76 79 80
f 79 81 80
f 74 86 77
f 77 86 87
f 77 87 78
f 78 88 79
f 79 89 81
f 78 87 88
f 79 88 89
f 81 89 90
f 32 55 136
f 55 56 139
f 56 67 139
f 67 68 154
f 68 69 154
f 69 70 160
f 70 80 160
f 80 81 168
f 81 90 176
f 82 228 83
f 83 228 84
f 84 245 85
f 85 245 86
f 86 249 87
f 87 252 88
f 88 252 89
f 89 253 90
f 90 258 176
f 7 92 91
f 9 95 92
f 9 97 95
f 10 112 97
f 7 91 101
f 20 101 104
f 21 104 127
f 32 115 112
f 32 136 115
f 91 93 102
f 92 94 93
f 93 94 99
f 91 92 93
f 93 99 103
f 99 108 103
f 92 95 94
f 94 95 96
f 94 96 98
f 95 97 96
f 96 97 113
f 96 114 98
f 94 98 99
f 98 100 99
f 99 100 108
f 100 109 108
f 98 118 100
f 100 120 109
f 91 102 101
f 101 102 105
f 101 105 104
f 102 103 106
f 102 106 105
f 93 103 102
f 103 107 106
f 103 108 107
f 107 108 110
f 104 105 128
f 105 106 129
f 104 128 127
f 105 129 128
f 106 130 129
f 106 107 130
f 107 110 131
f 107 131 130
f 108 109 110
f 109 111 110
f 109 123 111
f 110 111 132
f 110 132 131
f 111 125 133
f 111 133 132
f 97 112 113
f 112 116 113
f 96 113 114
f 113 117 114
f 98 114 118
f 112 115 116
f 113 116 117
f 114 117 119
f 114 119 118
f 118 119 121
f 100 118 120
f 118 121 120
f 120 122 123
f 120 121 122
f 109 120 123
f 111 123 125
f 123 124 125
f 122 124 123
f 124 126 125
f 125 126 134
f 125 134 133
f 126 135 134
f 115 136 116
f 116 137 117
f 117 138 119
f 119 144 121
f 121 144 122
f 122 147 124
f 124 149 126
f 126 149 135
f 43 127 271
f 127 128 271
f 128 129 273
f 129 130 273
f 130 131 278
f 131 132 283
f 132 133 283
f 133 134 299
f 134 135 299
f 55 139 136
f 67 151 139
f 67 154 151
f 69 158 154
f 69 160 158
f 80 167 160
f 80 168 167
f 81 176 168
f 116 136 137
f 117 137 138
f 119 138 142
f 119 142 144
f 122 144 145
f 122 145 147
f 124 147 149
f 135 149 172
f 136 139 137
f 137 140 138
f 138 141 142
f 137 139 140
f 139 151 140
f 138 140 141
f 140 152 141
f 141 153 143
f 142 143 144
f 141 143 142
f 144 146 145
f 143 146 144
f 143 157 146
f 145 146 148
f 145 148 147
f 147 150 149
f 146 161 148
f 147 148 150
f 148 163 150
f 149 173 172
f 149 150 173
f 150 174 173
f 140 151 152
f 151 154 152
f 141 152 153
f 152 154 155
f 154 158 155
f 152 155 153
f 153 155 156
f 143 153 157
f 146 157 161
f 153 156 157
f 157 162 161
f 156 162 157
f 155 158 159
f 155 159 156
f 158 160 159
f 156 159 165
f 159 160 166
f 156 165 162
f 148 161 163
f 161 162 164
f 161 164 163
f 150 163 174
f 163 175 174
f 163 164 175
f 164 179 175
f 159 166 165
f 165 170 171
f 160 167 166
f 166 167 169
f 167 168 169
f 165 166 170
f 166 169 170
f 162 165 171
f 162 171 164
f 168 177 169
f 169 178 170
f 168 176 177
f 170 178 180
f 169 177 178
f 164 171 179
f 171 180 179
f 170 180 171
f 135 172 316
f 172 173 316
f 173 174 333
f 174 175 333
f 176 339 177
f 178 341 180
f 177 341 178
f 175 179 345
f 179 180 345
f 37 181 182
f 40 185 184
f 39 184 181
f 40 196 185
f 41 182 190
f 42 190 192
f 42 192 209
f 44 209 211
f 43 271 196
f 181 186 183
f 181 183 182
f 182 183 191
f 184 185 187
f 181 184 186
f 185 196 197
f 184 187 186
f 185 197 187
f 183 194 191
f 183 189 194
f 186 187 188
f 186 188 189
f 187 197 198
f 187 198 188
f 188 198 205
f 183 186 189
f 188 199 189
f 182 191 190
f 190 191 193
f 190 193 192
f 192 193 210
f 191 195 193
f 191 194 195
f 193 195 213
f 189 201 194
f 188 205 199
f 189 199 201
f 199 205 206
f 199 202 201
f 199 206 202
f 194 201 200
f 194 200 195
f 200 201 203
f 195 200 215
f 200 203 218
f 201 202 203
f 202 204 203
f 202 206 207
f 202 207 204
f 203 204 220
f 204 207 208
f 204 208 221
f 192 210 209
f 209 210 212
f 209 212 211
f 193 213 210
f 210 213 214
f 195 215 213
f 210 214 212
f 213 216 214
f 213 215 216
f 200 218 215
f 215 218 217
f 215 217 216
f 218 220 219
f 217 218 219
f 203 220 218
f 204 221 220
f 220 221 222
f 208 224 221
f 221 224 223
f 219 220 222
f 221 223 222
f 223 224 225
f 211 212 227
f 212 214 227
f 214 216 230
f 216 217 233
f 217 219 233
f 219 222 237
f 222 223 237
f 223 225 238
f 196 271 197
f 197 280 198
f 198 280 205
f 205 291 206
f 206 295 207
f 207 295 208
f 208 308 224
f 224 308 225
f 82 211 226
f 82 226 228
f 84 228 243
f 84 243 245
f 86 245 249
f 87 249 251
f 87 251 252
f 89 252 253
f 90 253 258
f 211 227 226
f 214 230 227
f 216 232 230
f 216 233 232
f 219 235 233
f 219 237 235
f 223 238 237
f 225 241 238
f 226 227 228
f 228 229 243
f 227 229 228
f 227 230 229
f 230 232 231
f 229 230 231
f 229 231 244
f 231 234 247
f 232 233 234
f 231 232 234
f 233 236 234
f 234 236 261
f 233 235 236
f 235 239 236
f 235 237 239
f 237 238 240
f 238 241 242
f 236 239 263
f 237 240 239
f 239 240 264
f 238 242 240
f 240 242 267
f 243 244 245
f 229 244 243
f 245 246 249
f 244 246 245
f 231 247 244
f 244 247 246
f 246 247 248
f 249 250 251
f 246 250 249
f 250 254 251
f 251 254 252
f 252 255 253
f 253 259 258
f 252 254 255
f 253 255 259
f 246 248 250
f 248 256 250
f 250 256 254
f 256 266 257
f 254 257 255
f 254 256 257
f 255 260 259
f 255 257 260
f 257 270 260
f 234 261 247
f 236 263 261
f 247 261 248
f 248 261 262
f 261 263 262
f 262 263 265
f 239 264 263
f 240 267 264
f 264 267 268
f 263 264 265
f 264 268 265
f 265 268 269
f 248 262 256
f 256 262 266
f 266 269 270
f 262 265 266
f 265 269 266
f 257 266 270
f 225 325 241
f 241 325 242
f 258 259 339
f 259 260 350
f 260 270 350
f 242 354 267
f 267 356 268
f 268 356 269
f 269 360 270
f 128 272 271
f 128 273 272
f 130 277 273
f 130 278 277
f 131 283 278
f 133 285 283
f 133 299 285
f 135 301 299
f 135 316 301
f 197 271 274
f 197 274 280
f 205 280 289
f 205 289 291
f 206 291 295
f 208 295 298
f 208 298 308
f 225 308 311
f 225 311 325
f 271 272 274
f 272 273 275
f 273 277 276
f 272 275 274
f 273 276 275
f 276 277 279
f 277 278 279
f 278 284 279
f 274 275 280
f 275 281 280
f 275 276 281
f 276 282 281
f 280 281 289
f 276 279 282
f 281 282 290
f 279 284 287
f 279 287 282
f 278 283 284
f 283 286 284
f 283 285 286
f 285 300 286
f 284 288 287
f 284 286 288
f 286 303 288
f 281 290 289
f 289 290 291
f 282 292 290
f 290 294 291
f 290 292 294
f 282 287 292
f 292 296 294
f 287 293 292
f 287 288 293
f 292 293 296
f 288 305 293
f 293 314 296
f 291 294 295
f 294 297 295
f 294 296 297
f 296 310 297
f 295 297 298
f 297 309 298
f 285 299 300
f 299 302 300
f 299 301 302
f 286 300 303
f 300 304 303
f 288 303 305
f 300 302 304
f 303 304 306
f 303 306 305
f 293 305 314
f 305 307 314
f 305 306 307
f 296 314 310
f 298 309 308
f 308 309 312
f 297 310 309
f 309 310 313
f 308 312 311
f 310 315 313
f 309 313 312
f 310 314 315
f 307 315 314
f 301 317 302
f 302 320 304
f 304 320 306
f 306 322 307
f 313 315 331
f 311 312 326
f 312 313 326
f 307 331 315
f 176 258 339
f 173 318 316
f 173 333 318
f 175 335 333
f 175 345 335
f 177 339 340
f 180 341 347
f 177 340 341
f 180 347 345
f 242 325 328
f 242 328 354
f 259 342 339
f 259 350 342
f 270 360 350
f 267 354 356
f 269 356 359
f 269 359 360
f 301 316 317
f 302 317 320
f 306 320 322
f 307 322 323
f 307 323 331
f 311 326 325
f 313 331 327
f 313 327 326
f 316 318 317
f 318 333 319
f 317 318 319
f 317 319 320
f 320 321 322
f 319 321 320
f 319 334 321
f 321 337 324
f 322 324 323
f 321 324 322
f 323 324 332
f 324 352 332
f 325 326 328
f 327 331 330
f 326 327 329
f 330 332 353
f 326 329 328
f 328 329 354
f 327 330 329
f 329 330 355
f 323 332 331
f 330 331 332
f 333 335 334
f 319 333 334
f 335 345 336
f 334 335 336
f 321 334 337
f 336 338 337
f 334 336 337
f 339 342 340
f 341 344 347
f 340 343 341
f 340 342 343
f 341 343 344
f 345 347 346
f 336 345 346
f 344 346 347
f 344 348 346
f 348 349 358
f 342 350 343
f 343 350 349
f 343 349 344
f 344 349 348
f 349 350 360
f 336 346 338
f 338 346 348
f 351 357 353
f 324 337 352
f 332 352 353
f 337 338 352
f 338 351 352
f 351 353 352
f 330 353 355
f 329 355 354
f 354 355 356
f 355 357 356
f 356 357 359
f 353 357 355
f 358 360 359
f 348 358 351
f 357 358 359
f 351 358 357
f 349 360 358
f 338 348 351

