# https://github.com/mikedh/trimesh
v 0.02585368 0.04573117 0.08600000
v 0.02814632 0.04573117 0.08600000
v 0.02585368 0.04026883 0.08600000
v 0.02814632 0.04026883 0.08600000
v 0.02700000 0.04085368 0.10473117
v 0.02700000 0.04514632 0.10473117
v 0.02700000 0.04085368 0.06726883
v 0.02700000 0.04514632 0.06726883
v 0.02873117 0.04300000 0.06785368
v 0.02873117 0.04300000 0.10414632
v 0.02526883 0.04300000 0.06785368
v 0.02526883 0.04300000 0.10414632
v 0.02700000 0.04600000 0.08600000
v 0.02700000 0.04000000 0.08600000
v 0.02624377 0.04034377 0.10410000
v 0.02775623 0.04034377 0.10410000
v 0.02624377 0.04565623 0.10410000
v 0.02775623 0.04565623 0.10410000
v 0.02700000 0.04300000 0.10500000
v 0.02624377 0.04034377 0.06790000
v 0.02775623 0.04034377 0.06790000
v 0.02624377 0.04565623 0.06790000
v 0.02775623 0.04565623 0.06790000
v 0.02700000 0.04300000 0.06700000
v 0.02865623 0.04510000 0.06824377
v 0.02865623 0.04090000 0.06824377
v 0.02810000 0.04124377 0.06734377
v 0.02810000 0.04475623 0.06734377
v 0.02865623 0.04510000 0.10375623
v 0.02865623 0.04090000 0.10375623
v 0.02810000 0.04124377 0.10465623
v 0.02810000 0.04475623 0.10465623
v 0.02900000 0.04300000 0.08600000
v 0.02534377 0.04510000 0.06824377
v 0.02534377 0.04090000 0.06824377
v 0.02590000 0.04124377 0.06734377
v 0.02590000 0.04475623 0.06734377
v 0.02534377 0.04510000 0.10375623
v 0.02534377 0.04090000 0.10375623
v 0.02590000 0.04124377 0.10465623
v 0.02590000 0.04475623 0.10465623
v 0.02500000 0.04300000 0.08600000
v 0.02630812 0.04593149 0.08600000
v 0.02769188 0.04593149 0.08600000
v 0.02630812 0.04006851 0.08600000
v 0.02769188 0.04006851 0.08600000
v 0.02601900 0.04024720 0.10366781
v 0.02651088 0.04055120 0.10446368
v 0.02650757 0.04008810 0.10367316
v 0.02798100 0.04024720 0.10366781
v 0.02748912 0.04055120 0.10446368
v 0.02749243 0.04008810 0.10367316
v 0.02700000 0.04026883 0.10414632
v 0.02601900 0.04575280 0.10366781
v 0.02651088 0.04544880 0.10446368
v 0.02650757 0.04591190 0.10367316
v 0.02798100 0.04575280 0.10366781
v 0.02748912 0.04544880 0.10446368
v 0.02749243 0.04591190 0.10367316
v 0.02700000 0.04573117 0.10414632
v 0.02700000 0.04130812 0.10493149
v 0.02700000 0.04469188 0.10493149
v 0.02601900 0.04024720 0.06833219
v 0.02651088 0.04055120 0.06753632
v 0.02650757 0.04008810 0.06832684
v 0.02798100 0.04024720 0.06833219
v 0.02748912 0.04055120 0.06753632
v 0.02749243 0.04008810 0.06832684
v 0.02700000 0.04026883 0.06785368
v 0.02601900 0.04575280 0.06833219
v 0.02651088 0.04544880 0.06753632
v 0.02650757 0.04591190 0.06832684
v 0.02798100 0.04575280 0.06833219
v 0.02748912 0.04544880 0.06753632
v 0.02749243 0.04591190 0.06832684
v 0.02700000 0.04573117 0.06785368
v 0.02700000 0.04130812 0.06706851
v 0.02700000 0.04469188 0.06706851
v 0.02844880 0.04546368 0.06851088
v 0.02875280 0.04466781 0.06801900
v 0.02825801 0.04543874 0.06803441
v 0.02844880 0.04053632 0.06851088
v 0.02875280 0.04133219 0.06801900
v 0.02825801 0.04056126 0.06803441
v 0.02766781 0.04101900 0.06724720
v 0.02846368 0.04151088 0.06755120
v 0.02796559 0.04074199 0.06756126
v 0.02767316 0.04150757 0.06708810
v 0.02843874 0.04103441 0.06774199
v 0.02766781 0.04498100 0.06724720
v 0.02846368 0.04448912 0.06755120
v 0.02796559 0.04525801 0.06756126
v 0.02767316 0.04449243 0.06708810
v 0.02843874 0.04496559 0.06774199
v 0.02814632 0.04300000 0.06726883
v 0.02844880 0.04546368 0.10348912
v 0.02875280 0.04466781 0.10398100
v 0.02825801 0.04543874 0.10396559
v 0.02873117 0.04514632 0.08600000
v 0.02844880 0.04053632 0.10348912
v 0.02875280 0.04133219 0.10398100
v 0.02825801 0.04056126 0.10396559
v 0.02873117 0.04085368 0.08600000
v 0.02766781 0.04101900 0.10475280
v 0.02846368 0.04151088 0.10444880
v 0.02796559 0.04074199 0.10443874
v 0.02767316 0.04150757 0.10491190
v 0.02843874 0.04103441 0.10425801
v 0.02766781 0.04498100 0.10475280
v 0.02846368 0.04448912 0.10444880
v 0.02796559 0.04525801 0.10443874
v 0.02767316 0.04449243 0.10491190
v 0.02843874 0.04496559 0.10425801
v 0.02814632 0.04300000 0.10473117
v 0.02893149 0.04300000 0.06830812
v 0.02893149 0.04300000 0.10369188
v 0.02891190 0.04467316 0.06850757
v 0.02891190 0.04132684 0.06850757
v 0.02891190 0.04467316 0.10349243
v 0.02891190 0.04132684 0.10349243
v 0.02555120 0.04546368 0.06851088
v 0.02524720 0.04466781 0.06801900
v 0.02574199 0.04543874 0.06803441
v 0.02555120 0.04053632 0.06851088
v 0.02524720 0.04133219 0.06801900
v 0.02574199 0.04056126 0.06803441
v 0.02633219 0.04101900 0.06724720
v 0.02553632 0.04151088 0.06755120
v 0.02603441 0.04074199 0.06756126
v 0.02632684 0.04150757 0.06708810
v 0.02556126 0.04103441 0.06774199
v 0.02633219 0.04498100 0.06724720
v 0.02553632 0.04448912 0.06755120
v 0.02603441 0.04525801 0.06756126
v 0.02632684 0.04449243 0.06708810
v 0.02556126 0.04496559 0.06774199
v 0.02585368 0.04300000 0.06726883
v 0.02555120 0.04546368 0.10348912
v 0.02524720 0.04466781 0.10398100
v 0.02574199 0.04543874 0.10396559
v 0.02526883 0.04514632 0.08600000
v 0.02555120 0.04053632 0.10348912
v 0.02524720 0.04133219 0.10398100
v 0.02574199 0.04056126 0.10396559
v 0.02526883 0.04085368 0.08600000
v 0.02633219 0.04101900 0.10475280
v 0.02553632 0.04151088 0.10444880
v 0.02603441 0.04074199 0.10443874
v 0.02632684 0.04150757 0.10491190
v 0.02556126 0.04103441 0.10425801
v 0.02633219 0.04498100 0.10475280
v 0.02553632 0.04448912 0.10444880
v 0.02603441 0.04525801 0.10443874
v 0.02632684 0.04449243 0.10491190
v 0.02556126 0.04496559 0.10425801
v 0.02585368 0.04300000 0.10473117
v 0.02506851 0.04300000 0.06830812
v 0.02506851 0.04300000 0.10369188
v 0.02508810 0.04467316 0.06850757
v 0.02508810 0.04132684 0.06850757
v 0.02508810 0.04467316 0.10349243
v 0.02508810 0.04132684 0.10349243
f 100 82 103
f 142 145 124
f 124 3 142
f 117 119 33
f 63 3 124
f 3 63 45
f 45 63 65
f 14 49 45
f 45 65 14
f 4 82 100
f 52 49 14
f 14 46 52
f 14 65 68
f 68 46 14
f 100 103 120
f 47 142 3
f 3 45 47
f 47 45 49
f 15 47 49
f 73 2 79
f 119 117 99
f 99 117 79
f 19 62 154
f 119 99 96
f 79 2 96
f 96 99 79
f 162 142 39
f 145 142 162
f 65 63 20
f 100 120 30
f 142 47 144
f 39 142 144
f 144 150 39
f 47 15 144
f 2 73 44
f 13 59 44
f 11 125 157
f 105 110 114
f 10 110 105
f 57 96 2
f 2 44 57
f 57 44 59
f 119 96 29
f 157 125 160
f 42 157 160
f 160 162 42
f 145 162 160
f 124 145 160
f 72 43 13
f 125 131 35
f 124 160 35
f 35 160 125
f 118 103 82
f 118 120 103
f 33 120 118
f 126 20 63
f 126 63 124
f 124 35 126
f 126 35 131
f 50 4 100
f 46 4 50
f 50 52 46
f 104 51 106
f 68 21 66
f 82 4 66
f 66 4 46
f 46 68 66
f 26 118 82
f 83 118 26
f 79 117 25
f 81 73 79
f 79 25 81
f 81 25 94
f 137 130 36
f 43 54 56
f 56 59 13
f 13 43 56
f 1 54 43
f 112 62 19
f 101 10 105
f 105 108 101
f 101 30 120
f 101 108 30
f 33 119 116
f 116 120 33
f 116 101 120
f 10 101 116
f 110 10 97
f 119 29 97
f 97 116 119
f 10 116 97
f 98 29 96
f 96 57 98
f 159 141 121
f 161 141 159
f 159 157 42
f 42 161 159
f 13 44 75
f 75 72 13
f 75 44 73
f 74 8 71
f 88 95 27
f 27 95 86
f 115 118 83
f 115 117 33
f 33 118 115
f 49 52 53
f 53 15 49
f 106 51 16
f 52 50 16
f 16 53 52
f 51 53 16
f 114 112 107
f 107 112 19
f 84 66 21
f 82 66 84
f 84 26 82
f 24 88 77
f 77 130 24
f 69 68 65
f 65 20 69
f 69 21 68
f 36 130 127
f 130 77 127
f 127 77 7
f 31 104 106
f 106 108 31
f 31 108 105
f 31 107 104
f 105 114 31
f 114 107 31
f 102 108 106
f 102 50 100
f 106 16 102
f 102 16 50
f 100 30 102
f 30 108 102
f 92 81 94
f 92 94 28
f 28 95 93
f 93 88 24
f 93 95 88
f 128 137 36
f 125 11 128
f 36 131 128
f 128 131 125
f 59 56 60
f 121 1 70
f 70 123 121
f 43 72 70
f 70 1 43
f 121 141 138
f 138 1 121
f 138 161 38
f 138 141 161
f 54 1 138
f 32 114 110
f 32 112 114
f 41 156 154
f 113 97 29
f 29 98 113
f 110 97 113
f 113 98 111
f 113 32 110
f 111 32 113
f 121 123 34
f 34 159 121
f 23 75 73
f 73 81 23
f 81 92 23
f 23 92 74
f 72 75 76
f 74 71 76
f 76 23 74
f 75 23 76
f 83 86 9
f 9 115 83
f 21 69 67
f 15 53 48
f 48 53 51
f 89 27 86
f 89 86 83
f 83 26 89
f 26 84 89
f 129 131 36
f 36 127 129
f 129 126 131
f 20 126 129
f 74 92 90
f 90 8 74
f 90 92 28
f 28 93 90
f 135 137 37
f 24 130 135
f 130 137 135
f 59 60 18
f 18 57 59
f 111 98 18
f 18 98 57
f 111 18 58
f 58 18 60
f 17 56 54
f 17 60 56
f 22 70 72
f 72 76 22
f 22 76 71
f 22 71 134
f 134 123 22
f 123 70 22
f 54 138 140
f 140 17 54
f 38 155 140
f 140 138 38
f 109 32 111
f 112 32 109
f 111 58 109
f 62 112 109
f 151 154 62
f 151 41 154
f 158 161 42
f 42 162 158
f 39 150 143
f 143 162 39
f 143 158 162
f 12 158 143
f 38 161 139
f 139 155 38
f 161 158 139
f 139 158 12
f 159 34 122
f 122 11 157
f 157 159 122
f 80 25 117
f 94 25 80
f 117 115 80
f 115 9 80
f 91 95 28
f 91 80 9
f 86 95 91
f 91 9 86
f 28 94 91
f 94 80 91
f 87 84 21
f 21 67 87
f 87 89 84
f 27 89 87
f 20 129 64
f 64 69 20
f 64 127 7
f 64 129 127
f 7 67 64
f 64 67 69
f 8 90 78
f 78 90 93
f 78 93 24
f 24 135 78
f 132 71 8
f 8 78 132
f 132 78 135
f 134 71 132
f 132 37 134
f 132 135 37
f 155 41 153
f 41 151 153
f 153 140 155
f 17 140 153
f 6 109 58
f 62 109 6
f 6 151 62
f 152 41 155
f 155 139 152
f 152 139 12
f 156 41 152
f 11 122 133
f 37 137 133
f 133 128 11
f 137 128 133
f 136 34 123
f 136 122 34
f 136 123 134
f 136 133 122
f 134 37 136
f 37 133 136
f 88 27 85
f 27 87 85
f 85 87 67
f 85 67 7
f 85 77 88
f 7 77 85
f 104 107 61
f 61 107 19
f 148 40 150
f 150 144 148
f 148 144 15
f 15 48 148
f 12 143 147
f 147 40 156
f 147 143 150
f 150 40 147
f 156 152 147
f 147 152 12
f 55 153 151
f 151 6 55
f 17 153 55
f 60 17 55
f 55 58 60
f 55 6 58
f 146 148 48
f 40 148 146
f 156 40 149
f 40 146 149
f 149 146 61
f 154 156 149
f 19 154 149
f 149 61 19
f 5 48 51
f 51 104 5
f 104 61 5
f 61 146 5
f 5 146 48

