# https://github.com/mikedh/trimesh
v -0.02686175 -0.04085844 0.08600000
v 0.02886175 -0.04085844 0.08600000
v -0.02686175 -0.04514156 0.08600000
v 0.02886175 -0.04514156 0.08600000
v 0.00100000 -0.04436175 0.11264156
v 0.00100000 -0.04163825 0.11264156
v 0.00100000 -0.04436175 0.05935844
v 0.00100000 -0.04163825 0.05935844
v 0.02964156 -0.04300000 0.06013825
v 0.02964156 -0.04300000 0.11186175
v -0.02764156 -0.04300000 0.06013825
v -0.02764156 -0.04300000 0.11186175
v 0.00100000 -0.04050000 0.08600000
v 0.00100000 -0.04550000 0.08600000
v -0.02634164 -0.04504164 0.11180000
v 0.02834164 -0.04504164 0.11180000
v -0.02634164 -0.04095836 0.11180000
v 0.02834164 -0.04095836 0.11180000
v 0.00100000 -0.04300000 0.11300000
v -0.02634164 -0.04504164 0.06020000
v 0.02834164 -0.04504164 0.06020000
v -0.02634164 -0.04095836 0.06020000
v 0.02834164 -0.04095836 0.06020000
v 0.00100000 -0.04300000 0.05900000
v 0.02954164 -0.04170000 0.06065836
v 0.02954164 -0.04430000 0.06065836
v 0.02880000 -0.04384164 0.05945836
v 0.02880000 -0.04215836 0.05945836
v 0.02954164 -0.04170000 0.11134164
v 0.02954164 -0.04430000 0.11134164
v 0.02880000 -0.04384164 0.11254164
v 0.02880000 -0.04215836 0.11254164
v 0.03000000 -0.04300000 0.08600000
v -0.02754164 -0.04170000 0.06065836
v -0.02754164 -0.04430000 0.06065836
v -0.02680000 -0.04384164 0.05945836
v -0.02680000 -0.04215836 0.05945836
v -0.02754164 -0.04170000 0.11134164
v -0.02754164 -0.04430000 0.11134164
v -0.02680000 -0.04384164 0.11254164
v -0.02680000 -0.04215836 0.11254164
v -0.02800000 -0.04300000 0.08600000
v -0.02625584 -0.04059135 0.08600000
v 0.02825584 -0.04059135 0.08600000
v -0.02625584 -0.04540865 0.08600000
v 0.02825584 -0.04540865 0.08600000
v -0.02664133 -0.04517040 0.11122374
v -0.02598549 -0.04476507 0.11228491
v -0.02598990 -0.04538254 0.11123088
v 0.02864133 -0.04517040 0.11122374
v 0.02798549 -0.04476507 0.11228491
v 0.02798990 -0.04538254 0.11123088
v 0.00100000 -0.04514156 0.11186175
v -0.02664133 -0.04082960 0.11122374
v -0.02598549 -0.04123493 0.11228491
v -0.02598990 -0.04061746 0.11123088
v 0.02864133 -0.04082960 0.11122374
v 0.02798549 -0.04123493 0.11228491
v 0.02798990 -0.04061746 0.11123088
v 0.00100000 -0.04085844 0.11186175
v 0.00100000 -0.04375584 0.11290865
v 0.00100000 -0.04224416 0.11290865
v -0.02664133 -0.04517040 0.06077626
v -0.02598549 -0.04476507 0.05971509
v -0.02598990 -0.04538254 0.06076912
v 0.02864133 -0.04517040 0.06077626
v 0.02798549 -0.04476507 0.05971509
v 0.02798990 -0.04538254 0.06076912
v 0.00100000 -0.04514156 0.06013825
v -0.02664133 -0.04082960 0.06077626
v -0.02598549 -0.04123493 0.05971509
v -0.02598990 -0.04061746 0.06076912
v 0.02864133 -0.04082960 0.06077626
v 0.02798549 -0.04123493 0.05971509
v 0.02798990 -0.04061746 0.06076912
v 0.00100000 -0.04085844 0.06013825
v 0.00100000 -0.04375584 0.05909135
v 0.00100000 -0.04224416 0.05909135
v 0.02926507 -0.04121509 0.06101451
v 0.02967040 -0.04227626 0.06035867
v 0.02901068 -0.04124834 0.06037922
v 0.02926507 -0.04478491 0.06101451
v 0.02967040 -0.04372374 0.06035867
v 0.02901068 -0.04475166 0.06037922
v 0.02822374 -0.04414133 0.05932960
v 0.02928491 -0.04348549 0.05973493
v 0.02862078 -0.04451068 0.05974834
v 0.02823088 -0.04348990 0.05911746
v 0.02925166 -0.04412078 0.05998932
v 0.02822374 -0.04185867 0.05932960
v 0.02928491 -0.04251451 0.05973493
v 0.02862078 -0.04148932 0.05974834
v 0.02823088 -0.04251010 0.05911746
v 0.02925166 -0.04187922 0.05998932
v 0.02886175 -0.04300000 0.05935844
v 0.02926507 -0.04121509 0.11098549
v 0.02967040 -0.04227626 0.11164133
v 0.02901068 -0.04124834 0.11162078
v 0.02964156 -0.04163825 0.08600000
v 0.02926507 -0.04478491 0.11098549
v 0.02967040 -0.04372374 0.11164133
v 0.02901068 -0.04475166 0.11162078
v 0.02964156 -0.04436175 0.08600000
v 0.02822374 -0.04414133 0.11267040
v 0.02928491 -0.04348549 0.11226507
v 0.02862078 -0.04451068 0.11225166
v 0.02823088 -0.04348990 0.11288254
v 0.02925166 -0.04412078 0.11201068
v 0.02822374 -0.04185867 0.11267040
v 0.02928491 -0.04251451 0.11226507
v 0.02862078 -0.04148932 0.11225166
v 0.02823088 -0.04251010 0.11288254
v 0.02925166 -0.04187922 0.11201068
v 0.02886175 -0.04300000 0.11264156
v 0.02990865 -0.04300000 0.06074416
v 0.02990865 -0.04300000 0.11125584
v 0.02988254 -0.04226912 0.06101010
v 0.02988254 -0.04373088 0.06101010
v 0.02988254 -0.04226912 0.11098990
v 0.02988254 -0.04373088 0.11098990
v -0.02726507 -0.04121509 0.06101451
v -0.02767040 -0.04227626 0.06035867
v -0.02701068 -0.04124834 0.06037922
v -0.02726507 -0.04478491 0.06101451
v -0.02767040 -0.04372374 0.06035867
v -0.02701068 -0.04475166 0.06037922
v -0.02622374 -0.04414133 0.05932960
v -0.02728491 -0.04348549 0.05973493
v -0.02662078 -0.04451068 0.05974834
v -0.02623088 -0.04348990 0.05911746
v -0.02725166 -0.04412078 0.05998932
v -0.02622374 -0.04185867 0.05932960
v -0.02728491 -0.04251451 0.05973493
v -0.02662078 -0.04148932 0.05974834
v -0.02623088 -0.04251010 0.05911746
v -0.02725166 -0.04187922 0.05998932
v -0.02686175 -0.04300000 0.05935844
v -0.02726507 -0.04121509 0.11098549
v -0.02767040 -0.04227626 0.11164133
v -0.02701068 -0.04124834 0.11162078
v -0.02764156 -0.04163825 0.08600000
v -0.02726507 -0.04478491 0.11098549
v -0.02767040 -0.04372374 0.11164133
v -0.02701068 -0.04475166 0.11162078
v -0.02764156 -0.04436175 0.08600000
v -0.02622374 -0.04414133 0.11267040
v -0.02728491 -0.04348549 0.11226507
v -0.02662078 -0.04451068 0.11225166
v -0.02623088 -0.04348990 0.11288254
v -0.02725166 -0.04412078 0.11201068
v -0.02622374 -0.04185867 0.11267040
v -0.02728491 -0.04251451 0.11226507
v -0.02662078 -0.04148932 0.11225166
v -0.02623088 -0.04251010 0.11288254
v -0.02725166 -0.04187922 0.11201068
v -0.02686175 -0.04300000 0.11264156
v -0.02790865 -0.04300000 0.06074416
v -0.02790865 -0.04300000 0.11125584
v -0.02788254 -0.04226912 0.06101010
v -0.02788254 -0.04373088 0.06101010
v -0.02788254 -0.04226912 0.11098990
v -0.02788254 -0.04373088 0.11098990
f 14 65 68
f 45 65 14
f 69 68 65
f 49 45 14
f 14 52 49
f 157 160 42
f 33 120 118
f 118 120 103
f 64 69 65
f 77 130 24
f 24 88 77
f 68 69 67
f 67 64 7
f 69 64 67
f 53 49 52
f 49 53 48
f 150 39 144
f 61 107 19
f 51 53 52
f 5 48 51
f 51 48 53
f 14 68 46
f 46 52 14
f 103 120 100
f 7 64 127
f 127 77 7
f 130 77 127
f 85 67 7
f 7 77 85
f 85 77 88
f 65 45 63
f 124 145 160
f 142 144 39
f 145 124 142
f 150 144 148
f 49 48 15
f 48 148 15
f 15 148 144
f 19 107 112
f 5 51 104
f 104 61 5
f 107 61 104
f 42 160 162
f 160 145 162
f 162 142 39
f 145 142 162
f 135 130 137
f 24 130 135
f 135 78 24
f 54 56 43
f 57 96 2
f 2 96 79
f 16 51 52
f 33 118 115
f 117 115 80
f 117 119 33
f 33 115 117
f 137 130 36
f 130 127 36
f 68 67 21
f 103 100 82
f 82 100 4
f 82 118 103
f 67 85 87
f 87 21 67
f 84 21 87
f 122 11 157
f 45 49 47
f 144 142 47
f 49 15 47
f 47 15 144
f 116 120 33
f 33 119 116
f 97 116 119
f 10 116 97
f 158 161 42
f 42 162 158
f 54 43 1
f 19 112 62
f 62 112 109
f 149 61 19
f 73 2 79
f 57 2 44
f 44 59 57
f 44 73 75
f 2 73 44
f 93 88 24
f 24 78 93
f 95 88 93
f 50 16 52
f 4 100 50
f 52 46 50
f 50 46 4
f 79 117 25
f 25 117 80
f 99 96 119
f 79 96 99
f 119 117 99
f 99 117 79
f 137 36 128
f 20 64 65
f 65 63 20
f 68 21 66
f 66 21 84
f 84 82 66
f 66 82 4
f 66 46 68
f 4 46 66
f 118 82 26
f 26 82 84
f 27 87 85
f 27 88 95
f 27 85 88
f 159 122 157
f 34 122 159
f 159 157 42
f 42 161 159
f 161 141 159
f 11 122 133
f 137 128 133
f 133 128 11
f 3 124 63
f 3 63 45
f 3 142 124
f 3 47 142
f 45 47 3
f 30 100 120
f 10 97 110
f 110 105 10
f 70 43 72
f 70 1 43
f 161 38 138
f 138 141 161
f 54 1 138
f 1 70 121
f 34 159 121
f 121 159 141
f 121 138 1
f 141 138 121
f 8 71 74
f 75 74 76
f 72 75 76
f 74 71 76
f 76 71 72
f 17 55 56
f 17 56 54
f 109 58 6
f 6 62 109
f 151 62 6
f 6 55 151
f 58 55 6
f 60 55 58
f 60 59 56
f 58 59 60
f 56 55 60
f 154 62 151
f 19 62 154
f 154 149 19
f 5 61 146
f 61 149 146
f 146 48 5
f 146 148 48
f 56 59 13
f 13 43 56
f 59 44 13
f 13 75 72
f 72 43 13
f 13 44 75
f 95 93 28
f 28 91 95
f 11 128 125
f 160 157 125
f 157 11 125
f 95 91 86
f 86 27 95
f 101 30 120
f 120 116 101
f 101 116 10
f 10 105 101
f 16 50 102
f 102 50 100
f 100 30 102
f 98 96 57
f 114 112 107
f 105 110 114
f 151 55 153
f 55 17 153
f 161 158 139
f 139 38 161
f 139 155 38
f 72 71 22
f 22 70 72
f 71 134 22
f 90 8 74
f 90 28 93
f 90 93 78
f 78 8 90
f 149 154 156
f 23 74 75
f 75 73 23
f 80 91 94
f 94 25 80
f 91 28 94
f 131 128 36
f 131 125 128
f 83 115 118
f 118 26 83
f 37 135 137
f 137 133 37
f 136 133 122
f 136 122 34
f 136 37 133
f 134 37 136
f 106 104 51
f 51 16 106
f 16 102 106
f 30 101 108
f 108 102 30
f 108 101 105
f 108 106 102
f 18 98 57
f 57 59 18
f 18 59 58
f 96 98 29
f 119 96 29
f 29 97 119
f 111 58 109
f 111 18 58
f 98 18 111
f 140 17 54
f 140 153 17
f 54 138 140
f 155 153 140
f 38 155 140
f 140 138 38
f 40 146 149
f 149 156 40
f 150 148 40
f 148 146 40
f 41 154 151
f 41 156 154
f 151 153 41
f 41 153 155
f 12 139 158
f 28 90 92
f 92 94 28
f 92 90 74
f 74 23 92
f 125 131 35
f 35 124 160
f 160 125 35
f 129 36 127
f 129 131 36
f 129 127 64
f 64 20 129
f 9 91 80
f 80 115 9
f 9 86 91
f 9 83 86
f 115 83 9
f 86 83 89
f 84 87 89
f 87 27 89
f 27 86 89
f 89 26 84
f 89 83 26
f 135 37 132
f 132 37 134
f 132 134 71
f 71 8 132
f 78 135 132
f 132 8 78
f 123 121 70
f 134 136 123
f 70 22 123
f 123 22 134
f 34 121 123
f 123 136 34
f 104 106 31
f 106 108 31
f 31 108 105
f 107 104 31
f 31 114 107
f 105 114 31
f 32 111 109
f 109 112 32
f 112 114 32
f 32 114 110
f 113 110 97
f 98 111 113
f 97 29 113
f 113 29 98
f 113 32 110
f 111 32 113
f 143 158 162
f 143 12 158
f 143 39 150
f 143 162 39
f 147 40 156
f 150 40 147
f 147 143 150
f 12 143 147
f 156 41 152
f 152 147 156
f 12 147 152
f 152 41 155
f 155 139 152
f 139 12 152
f 81 23 73
f 81 92 23
f 81 73 79
f 94 92 81
f 79 25 81
f 25 94 81
f 126 20 63
f 126 129 20
f 63 124 126
f 131 129 126
f 124 35 126
f 126 35 131

