# https://github.com/mikedh/trimesh
v -0.01560799 0.05019475 0.06700000
v -0.00003484 0.07716825 0.06700000
v -0.01410876 0.04932917 0.06700000
v 0.00146440 0.07630267 0.06700000
v -0.00657543 0.06296213 0.06936559
v -0.00756817 0.06353529 0.06936559
v -0.00657543 0.06296213 0.06463441
v -0.00756817 0.06353529 0.06463441
v 0.00086100 0.07698871 0.06492684
v 0.00086100 0.07698871 0.06907316
v -0.01500459 0.04950871 0.06492684
v -0.01500459 0.04950871 0.06907316
v -0.00793782 0.06374871 0.06700000
v -0.00620577 0.06274871 0.06700000
v -0.01404369 0.04951682 0.06905000
v 0.00133443 0.07615249 0.06905000
v -0.01547802 0.05034493 0.06905000
v -0.00009991 0.07698061 0.06905000
v -0.00707180 0.06324871 0.06950000
v -0.01404369 0.04951682 0.06495000
v 0.00133443 0.07615249 0.06495000
v -0.01547802 0.05034493 0.06495000
v -0.00009991 0.07698061 0.06495000
v -0.00707180 0.06324871 0.06450000
v 0.00036595 0.07723126 0.06512188
v 0.00131857 0.07668126 0.06512188
v 0.00103066 0.07652635 0.06467188
v 0.00037575 0.07690446 0.06467188
v 0.00036595 0.07723126 0.06887812
v 0.00131857 0.07668126 0.06887812
v 0.00103066 0.07652635 0.06932812
v 0.00037575 0.07690446 0.06932812
v 0.00092820 0.07710512 0.06700000
v -0.01546217 0.04981616 0.06512188
v -0.01450954 0.04926616 0.06512188
v -0.01451934 0.04959296 0.06467188
v -0.01517425 0.04997107 0.06467188
v -0.01546217 0.04981616 0.06887812
v -0.01450954 0.04926616 0.06887812
v -0.01451934 0.04959296 0.06932812
v -0.01517425 0.04997107 0.06932812
v -0.01507180 0.04939230 0.06700000
v -0.01558113 0.05044161 0.06700000
v -0.00023519 0.07702156 0.06700000
v -0.01390841 0.04947587 0.06700000
v 0.00143753 0.07605581 0.06700000
v -0.01405806 0.04939534 0.06883390
v -0.01406673 0.04968433 0.06923184
v -0.01386703 0.04956713 0.06883658
v 0.00143244 0.07622568 0.06883390
v 0.00117783 0.07608869 0.06923184
v 0.00137919 0.07597434 0.06883658
v -0.00632218 0.06281592 0.06907316
v -0.01557603 0.05027175 0.06883390
v -0.01532143 0.05040874 0.06923184
v -0.01552278 0.05052308 0.06883658
v -0.00008553 0.07710208 0.06883390
v -0.00007687 0.07681309 0.06923184
v -0.00027657 0.07693030 0.06883658
v -0.00782142 0.06368150 0.06907316
v -0.00677220 0.06307574 0.06946574
v -0.00737139 0.06342168 0.06946574
v -0.01405806 0.04939534 0.06516610
v -0.01406673 0.04968433 0.06476816
v -0.01386703 0.04956713 0.06516342
v 0.00143244 0.07622568 0.06516610
v 0.00117783 0.07608869 0.06476816
v 0.00137919 0.07597434 0.06516342
v -0.00632218 0.06281592 0.06492684
v -0.01557603 0.05027175 0.06516610
v -0.01532143 0.05040874 0.06476816
v -0.01552278 0.05052308 0.06516342
v -0.00008553 0.07710208 0.06516610
v -0.00007687 0.07681309 0.06476816
v -0.00027657 0.07693030 0.06516342
v -0.00782142 0.06368150 0.06492684
v -0.00677220 0.06307574 0.06453426
v -0.00737139 0.06342168 0.06453426
v 0.00015661 0.07723236 0.06525544
v 0.00057724 0.07716503 0.06500950
v 0.00011971 0.07714351 0.06501721
v 0.00142420 0.07650052 0.06525544
v 0.00115557 0.07683113 0.06500950
v 0.00136570 0.07642414 0.06501721
v 0.00101994 0.07628301 0.06462360
v 0.00100592 0.07675061 0.06477560
v 0.00121434 0.07634270 0.06478063
v 0.00080972 0.07640747 0.06454405
v 0.00120600 0.07662069 0.06487099
v 0.00017037 0.07677351 0.06462360
v 0.00058233 0.07699517 0.06477560
v 0.00012486 0.07697171 0.06478063
v 0.00038327 0.07665369 0.06454405
v 0.00036978 0.07710348 0.06487099
v 0.00071478 0.07673546 0.06463441
v 0.00015661 0.07723236 0.06874456
v 0.00057724 0.07716503 0.06899050
v 0.00011971 0.07714351 0.06898279
v 0.00036463 0.07727529 0.06700000
v 0.00142420 0.07650052 0.06874456
v 0.00115557 0.07683113 0.06899050
v 0.00136570 0.07642414 0.06898279
v 0.00135737 0.07670213 0.06700000
v 0.00101994 0.07628301 0.06937640
v 0.00100592 0.07675061 0.06922440
v 0.00121434 0.07634270 0.06921937
v 0.00080972 0.07640747 0.06945595
v 0.00120600 0.07662069 0.06912901
v 0.00017037 0.07677351 0.06937640
v 0.00058233 0.07699517 0.06922440
v 0.00012486 0.07697171 0.06921937
v 0.00038327 0.07665369 0.06945595
v 0.00036978 0.07710348 0.06912901
v 0.00071478 0.07673546 0.06936559
v 0.00091108 0.07707545 0.06515406
v 0.00091108 0.07707545 0.06884594
v 0.00061469 0.07723526 0.06525379
v 0.00119766 0.07689868 0.06525379
v 0.00061469 0.07723526 0.06874621
v 0.00119766 0.07689868 0.06874621
v -0.01556779 0.04999690 0.06525544
v -0.01529917 0.04966630 0.06500950
v -0.01550929 0.05007328 0.06501721
v -0.01430020 0.04926506 0.06525544
v -0.01472083 0.04933239 0.06500950
v -0.01426331 0.04935391 0.06501721
v -0.01431396 0.04972391 0.06462360
v -0.01472592 0.04950226 0.06477560
v -0.01426846 0.04952572 0.06478063
v -0.01452686 0.04984374 0.06454405
v -0.01451337 0.04939394 0.06487099
v -0.01516353 0.05021441 0.06462360
v -0.01514951 0.04974682 0.06477560
v -0.01535793 0.05015472 0.06478063
v -0.01495331 0.05008995 0.06454405
v -0.01534959 0.04987673 0.06487099
v -0.01485838 0.04976196 0.06463441
v -0.01556779 0.04999690 0.06874456
v -0.01529917 0.04966630 0.06899050
v -0.01550929 0.05007328 0.06898279
v -0.01550096 0.04979529 0.06700000
v -0.01430020 0.04926506 0.06874456
v -0.01472083 0.04933239 0.06899050
v -0.01426331 0.04935391 0.06898279
v -0.01450822 0.04922213 0.06700000
v -0.01431396 0.04972391 0.06937640
v -0.01472592 0.04950226 0.06922440
v -0.01426846 0.04952572 0.06921937
v -0.01452686 0.04984374 0.06945595
v -0.01451337 0.04939394 0.06912901
v -0.01516353 0.05021441 0.06937640
v -0.01514951 0.04974682 0.06922440
v -0.01535793 0.05015472 0.06921937
v -0.01495331 0.05008995 0.06945595
v -0.01534959 0.04987673 0.06912901
v -0.01485838 0.04976196 0.06936559
v -0.01505467 0.04942197 0.06515406
v -0.01505467 0.04942197 0.06884594
v -0.01534126 0.04959874 0.06525379
v -0.01475829 0.04926216 0.06525379
v -0.01534126 0.04959874 0.06874621
v -0.01475829 0.04926216 0.06874621
f 14 65 68
f 52 49 14
f 56 59 13
f 69 68 65
f 127 77 7
f 7 77 85
f 13 59 44
f 42 160 162
f 157 160 42
f 120 118 33
f 61 107 19
f 49 52 53
f 88 77 24
f 88 85 77
f 51 53 52
f 59 56 60
f 6 62 109
f 64 69 65
f 64 127 7
f 68 69 67
f 7 85 67
f 67 64 7
f 69 64 67
f 5 51 104
f 104 61 5
f 107 61 104
f 29 97 119
f 33 118 115
f 43 56 13
f 13 72 43
f 5 61 146
f 151 62 6
f 59 60 58
f 6 109 58
f 139 161 158
f 42 162 158
f 158 161 42
f 137 135 130
f 77 127 130
f 24 77 130
f 130 135 24
f 24 135 78
f 78 135 132
f 132 8 78
f 71 8 132
f 71 134 22
f 132 134 71
f 22 72 71
f 95 88 93
f 93 88 24
f 24 78 93
f 13 44 75
f 75 72 13
f 20 64 65
f 127 64 129
f 129 20 126
f 64 20 129
f 45 65 14
f 14 49 45
f 63 124 126
f 63 20 65
f 126 20 63
f 65 45 63
f 126 124 35
f 68 67 21
f 87 67 85
f 84 21 87
f 87 21 67
f 14 68 46
f 46 52 14
f 84 82 66
f 68 21 66
f 66 21 84
f 66 46 68
f 26 82 84
f 99 29 119
f 96 29 99
f 70 43 72
f 70 72 22
f 19 62 154
f 62 151 154
f 96 2 57
f 57 44 59
f 57 2 44
f 111 58 109
f 143 158 162
f 55 151 6
f 6 58 55
f 55 58 60
f 55 60 56
f 56 17 55
f 141 138 121
f 56 43 54
f 54 17 56
f 38 161 139
f 139 155 38
f 38 141 161
f 138 141 38
f 90 78 8
f 90 93 78
f 8 71 74
f 74 90 8
f 44 2 73
f 73 75 44
f 127 129 36
f 36 130 127
f 36 128 137
f 137 130 36
f 131 129 126
f 126 35 131
f 128 36 131
f 131 36 129
f 49 15 47
f 47 45 49
f 145 162 160
f 124 142 145
f 160 35 145
f 145 35 124
f 27 87 85
f 85 88 27
f 27 88 95
f 95 86 27
f 84 87 89
f 89 26 84
f 89 27 86
f 87 27 89
f 52 46 50
f 101 10 105
f 118 120 103
f 103 100 82
f 103 26 118
f 82 26 103
f 33 119 116
f 116 120 33
f 119 97 116
f 97 10 116
f 116 101 120
f 10 101 116
f 105 10 110
f 110 10 97
f 122 11 157
f 149 61 19
f 19 154 149
f 149 146 61
f 98 29 96
f 96 57 98
f 39 143 162
f 162 145 39
f 39 145 142
f 150 143 39
f 139 158 12
f 158 143 12
f 153 55 17
f 151 55 153
f 1 70 121
f 121 138 1
f 43 70 1
f 138 54 1
f 1 54 43
f 146 148 48
f 48 148 15
f 5 146 48
f 48 51 5
f 53 51 48
f 49 53 48
f 48 15 49
f 72 75 76
f 76 71 72
f 75 74 76
f 76 74 71
f 23 74 75
f 75 73 23
f 125 35 160
f 125 131 35
f 128 131 125
f 125 11 128
f 160 157 125
f 157 11 125
f 15 148 144
f 144 47 15
f 142 47 144
f 144 148 150
f 150 39 144
f 144 39 142
f 3 142 124
f 124 63 3
f 3 63 45
f 3 47 142
f 45 47 3
f 118 26 83
f 26 89 83
f 83 89 86
f 83 115 118
f 82 100 4
f 4 66 82
f 46 66 4
f 4 50 46
f 100 50 4
f 106 104 51
f 112 109 62
f 19 107 112
f 112 62 19
f 159 122 157
f 161 141 159
f 159 157 42
f 42 161 159
f 113 110 97
f 113 98 111
f 97 29 113
f 29 98 113
f 111 98 18
f 58 111 18
f 18 98 57
f 59 58 18
f 18 57 59
f 41 154 151
f 41 153 155
f 151 153 41
f 147 143 150
f 147 12 143
f 140 54 138
f 155 153 140
f 138 38 140
f 140 38 155
f 17 54 140
f 140 153 17
f 117 25 99
f 117 99 119
f 117 119 33
f 33 115 117
f 99 25 79
f 79 2 96
f 96 99 79
f 79 73 2
f 91 86 95
f 104 106 31
f 107 104 31
f 16 106 51
f 16 51 52
f 52 50 16
f 102 50 100
f 102 16 50
f 106 16 102
f 109 112 32
f 32 111 109
f 110 113 32
f 32 113 111
f 105 110 114
f 114 112 107
f 107 31 114
f 114 31 105
f 110 32 114
f 114 32 112
f 34 136 122
f 122 159 34
f 34 141 121
f 34 159 141
f 37 136 134
f 37 134 132
f 132 135 37
f 37 135 137
f 121 70 123
f 134 136 123
f 22 134 123
f 123 70 22
f 123 34 121
f 136 34 123
f 146 149 40
f 40 148 146
f 150 148 40
f 40 147 150
f 12 147 152
f 152 41 155
f 152 155 139
f 139 12 152
f 81 23 73
f 81 79 25
f 73 79 81
f 80 117 115
f 25 117 80
f 30 102 100
f 120 101 30
f 30 103 120
f 100 103 30
f 108 101 105
f 106 102 108
f 105 31 108
f 108 31 106
f 108 30 101
f 102 30 108
f 136 37 133
f 11 122 133
f 122 136 133
f 133 37 137
f 137 128 133
f 128 11 133
f 154 41 156
f 41 152 156
f 156 149 154
f 156 152 147
f 156 40 149
f 147 40 156
f 93 90 28
f 95 93 28
f 28 91 95
f 74 23 92
f 23 81 92
f 90 74 92
f 92 28 90
f 115 83 9
f 9 83 86
f 86 91 9
f 91 80 9
f 9 80 115
f 94 80 91
f 94 92 81
f 94 81 25
f 25 80 94
f 91 28 94
f 28 92 94

