# https://github.com/mikedh/trimesh
v -0.02391725 -0.03697077 0.08600000
v 0.02791725 -0.03697077 0.08600000
v -0.02391725 -0.04902923 0.08600000
v 0.02791725 -0.04902923 0.08600000
v 0.00200000 -0.04691725 0.11202923
v 0.00200000 -0.03908275 0.11202923
v 0.00200000 -0.04691725 0.05997077
v 0.00200000 -0.03908275 0.05997077
v 0.03002923 -0.04300000 0.06208275
v 0.03002923 -0.04300000 0.10991725
v -0.02602923 -0.04300000 0.06208275
v -0.02602923 -0.04300000 0.10991725
v 0.00200000 -0.03600000 0.08600000
v 0.00200000 -0.05000000 0.08600000
v -0.02250861 -0.04875861 0.10975000
v 0.02650861 -0.04875861 0.10975000
v -0.02250861 -0.03724139 0.10975000
v 0.02650861 -0.03724139 0.10975000
v 0.00200000 -0.04300000 0.11300000
v -0.02250861 -0.04875861 0.06225000
v 0.02650861 -0.04875861 0.06225000
v -0.02250861 -0.03724139 0.06225000
v 0.02650861 -0.03724139 0.06225000
v 0.00200000 -0.04300000 0.05900000
v 0.02975861 -0.03925000 0.06349139
v 0.02975861 -0.04675000 0.06349139
v 0.02775000 -0.04550861 0.06024139
v 0.02775000 -0.04049139 0.06024139
v 0.02975861 -0.03925000 0.10850861
v 0.02975861 -0.04675000 0.10850861
v 0.02775000 -0.04550861 0.11175861
v 0.02775000 -0.04049139 0.11175861
v 0.03100000 -0.04300000 0.08600000
v -0.02575861 -0.03925000 0.06349139
v -0.02575861 -0.04675000 0.06349139
v -0.02375000 -0.04550861 0.06024139
v -0.02375000 -0.04049139 0.06024139
v -0.02575861 -0.03925000 0.10850861
v -0.02575861 -0.04675000 0.10850861
v -0.02375000 -0.04550861 0.11175861
v -0.02375000 -0.04049139 0.11175861
v -0.02700000 -0.04300000 0.08600000
v -0.02227623 -0.03624740 0.08600000
v 0.02627623 -0.03624740 0.08600000
v -0.02227623 -0.04975260 0.08600000
v 0.02627623 -0.04975260 0.08600000
v -0.02332028 -0.04910735 0.10818930
v -0.02154404 -0.04800957 0.11106330
v -0.02155599 -0.04968187 0.10820863
v 0.02732028 -0.04910735 0.10818930
v 0.02554404 -0.04800957 0.11106330
v 0.02555599 -0.04968187 0.10820863
v 0.00200000 -0.04902923 0.10991725
v -0.02332028 -0.03689265 0.10818930
v -0.02154404 -0.03799043 0.11106330
v -0.02155599 -0.03631813 0.10820863
v 0.02732028 -0.03689265 0.10818930
v 0.02554404 -0.03799043 0.11106330
v 0.02555599 -0.03631813 0.10820863
v 0.00200000 -0.03697077 0.10991725
v 0.00200000 -0.04527623 0.11275260
v 0.00200000 -0.04072377 0.11275260
v -0.02332028 -0.04910735 0.06381070
v -0.02154404 -0.04800957 0.06093670
v -0.02155599 -0.04968187 0.06379137
v 0.02732028 -0.04910735 0.06381070
v 0.02554404 -0.04800957 0.06093670
v 0.02555599 -0.04968187 0.06379137
v 0.00200000 -0.04902923 0.06208275
v -0.02332028 -0.03689265 0.06381070
v -0.02154404 -0.03799043 0.06093670
v -0.02155599 -0.03631813 0.06379137
v 0.02732028 -0.03689265 0.06381070
v 0.02554404 -0.03799043 0.06093670
v 0.02555599 -0.03631813 0.06379137
v 0.00200000 -0.03697077 0.06208275
v 0.00200000 -0.04527623 0.05924740
v 0.00200000 -0.04072377 0.05924740
v 0.02900957 -0.03793670 0.06445596
v 0.03010735 -0.04081070 0.06267972
v 0.02832060 -0.03802676 0.06273538
v 0.02900957 -0.04806330 0.06445596
v 0.03010735 -0.04518930 0.06267972
v 0.02832060 -0.04797324 0.06273538
v 0.02618930 -0.04632028 0.05989265
v 0.02906330 -0.04454404 0.06099043
v 0.02726462 -0.04732060 0.06102676
v 0.02620863 -0.04455599 0.05931813
v 0.02897324 -0.04626462 0.06167940
v 0.02618930 -0.03967972 0.05989265
v 0.02906330 -0.04145596 0.06099043
v 0.02726462 -0.03867940 0.06102676
v 0.02620863 -0.04144401 0.05931813
v 0.02897324 -0.03973538 0.06167940
v 0.02791725 -0.04300000 0.05997077
v 0.02900957 -0.03793670 0.10754404
v 0.03010735 -0.04081070 0.10932028
v 0.02832060 -0.03802676 0.10926462
v 0.03002923 -0.03908275 0.08600000
v 0.02900957 -0.04806330 0.10754404
v 0.03010735 -0.04518930 0.10932028
v 0.02832060 -0.04797324 0.10926462
v 0.03002923 -0.04691725 0.08600000
v 0.02618930 -0.04632028 0.11210735
v 0.02906330 -0.04454404 0.11100957
v 0.02726462 -0.04732060 0.11097324
v 0.02620863 -0.04455599 0.11268187
v 0.02897324 -0.04626462 0.11032060
v 0.02618930 -0.03967972 0.11210735
v 0.02906330 -0.04145596 0.11100957
v 0.02726462 -0.03867940 0.11097324
v 0.02620863 -0.04144401 0.11268187
v 0.02897324 -0.03973538 0.11032060
v 0.02791725 -0.04300000 0.11202923
v 0.03075260 -0.04300000 0.06372377
v 0.03075260 -0.04300000 0.10827623
v 0.03068187 -0.04079137 0.06444401
v 0.03068187 -0.04520863 0.06444401
v 0.03068187 -0.04079137 0.10755599
v 0.03068187 -0.04520863 0.10755599
v -0.02500957 -0.03793670 0.06445596
v -0.02610735 -0.04081070 0.06267972
v -0.02432060 -0.03802676 0.06273538
v -0.02500957 -0.04806330 0.06445596
v -0.02610735 -0.04518930 0.06267972
v -0.02432060 -0.04797324 0.06273538
v -0.02218930 -0.04632028 0.05989265
v -0.02506330 -0.04454404 0.06099043
v -0.02326462 -0.04732060 0.06102676
v -0.02220863 -0.04455599 0.05931813
v -0.02497324 -0.04626462 0.06167940
v -0.02218930 -0.03967972 0.05989265
v -0.02506330 -0.04145596 0.06099043
v -0.02326462 -0.03867940 0.06102676
v -0.02220863 -0.04144401 0.05931813
v -0.02497324 -0.03973538 0.06167940
v -0.02391725 -0.04300000 0.05997077
v -0.02500957 -0.03793670 0.10754404
v -0.02610735 -0.04081070 0.10932028
v -0.02432060 -0.03802676 0.10926462
v -0.02602923 -0.03908275 0.08600000
v -0.02500957 -0.04806330 0.10754404
v -0.02610735 -0.04518930 0.10932028
v -0.02432060 -0.04797324 0.10926462
v -0.02602923 -0.04691725 0.08600000
v -0.02218930 -0.04632028 0.11210735
v -0.02506330 -0.04454404 0.11100957
v -0.02326462 -0.04732060 0.11097324
v -0.02220863 -0.04455599 0.11268187
v -0.02497324 -0.04626462 0.11032060
v -0.02218930 -0.03967972 0.11210735
v -0.02506330 -0.04145596 0.11100957
v -0.02326462 -0.03867940 0.11097324
v -0.02220863 -0.04144401 0.11268187
v -0.02497324 -0.03973538 0.11032060
v -0.02391725 -0.04300000 0.11202923
v -0.02675260 -0.04300000 0.06372377
v -0.02675260 -0.04300000 0.10827623
v -0.02668187 -0.04079137 0.06444401
v -0.02668187 -0.04520863 0.06444401
v -0.02668187 -0.04079137 0.10755599
v -0.02668187 -0.04520863 0.10755599
f 14 65 68
f 52 49 14
f 69 68 65
f 127 77 7
f 7 77 85
f 49 52 53
f 61 107 19
f 5 61 146
f 68 69 67
f 7 85 67
f 88 77 24
f 88 85 77
f 45 65 14
f 14 49 45
f 51 53 52
f 13 56 59
f 75 72 13
f 13 72 43
f 43 56 13
f 42 162 158
f 14 68 46
f 46 52 14
f 149 61 19
f 149 146 61
f 160 124 145
f 42 157 160
f 160 162 42
f 145 162 160
f 3 124 63
f 65 45 63
f 63 45 3
f 5 51 104
f 104 61 5
f 107 61 104
f 119 116 33
f 98 57 18
f 18 57 59
f 44 57 2
f 59 57 44
f 13 59 44
f 44 75 13
f 27 88 95
f 85 88 27
f 87 67 85
f 85 27 87
f 87 27 89
f 26 83 118
f 89 83 26
f 49 53 48
f 5 146 48
f 48 51 5
f 53 51 48
f 47 45 49
f 3 45 47
f 125 160 157
f 64 69 65
f 64 127 7
f 7 67 64
f 64 67 69
f 137 135 130
f 77 127 130
f 24 77 130
f 130 135 24
f 24 135 78
f 78 135 132
f 132 8 78
f 90 78 8
f 72 75 76
f 11 125 157
f 37 135 137
f 132 135 37
f 132 37 134
f 134 37 136
f 98 18 111
f 96 119 99
f 96 57 98
f 2 57 96
f 97 10 116
f 116 119 97
f 2 96 79
f 79 96 99
f 56 43 54
f 122 11 157
f 118 83 115
f 33 118 115
f 86 27 95
f 86 83 89
f 89 27 86
f 68 67 21
f 67 87 21
f 144 47 15
f 49 48 15
f 15 47 49
f 3 47 142
f 145 124 142
f 142 124 3
f 142 47 144
f 142 162 145
f 40 149 156
f 146 149 40
f 148 48 146
f 148 150 144
f 144 15 148
f 148 15 48
f 146 40 148
f 148 40 150
f 124 160 35
f 160 125 35
f 137 130 36
f 36 130 127
f 91 86 95
f 95 88 93
f 78 90 93
f 93 88 24
f 24 78 93
f 74 90 8
f 74 92 90
f 74 76 75
f 133 37 137
f 136 37 133
f 133 122 136
f 11 122 133
f 123 134 136
f 132 134 71
f 71 8 132
f 72 76 71
f 71 74 8
f 76 74 71
f 154 62 151
f 156 149 154
f 154 149 19
f 19 62 154
f 107 114 112
f 109 62 112
f 19 107 112
f 112 62 19
f 32 111 109
f 109 112 32
f 32 112 114
f 106 104 51
f 33 116 120
f 120 118 33
f 103 118 120
f 29 96 98
f 119 96 29
f 29 97 119
f 60 59 56
f 56 55 60
f 1 54 43
f 138 54 1
f 138 141 161
f 42 158 161
f 151 55 153
f 33 115 117
f 117 119 33
f 99 119 117
f 117 79 99
f 25 79 117
f 89 26 84
f 84 87 89
f 84 21 87
f 144 150 39
f 39 142 144
f 162 142 39
f 137 36 128
f 128 133 137
f 11 133 128
f 125 11 128
f 126 63 124
f 124 35 126
f 83 86 9
f 9 115 83
f 86 91 9
f 2 79 73
f 73 44 2
f 75 44 73
f 81 79 25
f 81 73 79
f 90 92 28
f 28 93 90
f 28 91 95
f 95 93 28
f 136 122 34
f 34 123 136
f 134 123 22
f 22 71 134
f 72 71 22
f 41 154 151
f 41 153 155
f 151 153 41
f 156 154 41
f 111 32 113
f 98 111 113
f 113 29 98
f 97 29 113
f 110 32 114
f 110 113 32
f 10 97 110
f 97 113 110
f 16 51 52
f 16 106 51
f 104 106 31
f 107 104 31
f 31 114 107
f 58 18 59
f 59 60 58
f 109 111 58
f 58 111 18
f 58 60 55
f 123 34 121
f 121 141 138
f 138 1 121
f 150 40 147
f 147 40 156
f 138 161 38
f 155 38 139
f 139 38 161
f 158 12 139
f 139 161 158
f 17 153 55
f 17 55 56
f 56 54 17
f 140 54 138
f 155 153 140
f 138 38 140
f 140 38 155
f 140 17 54
f 153 17 140
f 68 21 66
f 21 84 66
f 66 46 68
f 4 46 66
f 162 39 143
f 143 39 150
f 150 147 143
f 143 147 12
f 143 158 162
f 143 12 158
f 63 126 20
f 65 63 20
f 20 64 65
f 127 64 129
f 129 36 127
f 64 20 129
f 129 20 126
f 80 9 91
f 25 117 80
f 80 117 115
f 115 9 80
f 92 74 23
f 73 81 23
f 23 81 92
f 23 74 75
f 75 73 23
f 159 122 157
f 159 34 122
f 159 157 42
f 141 121 159
f 159 121 34
f 42 161 159
f 159 161 141
f 156 41 152
f 152 147 156
f 12 147 152
f 152 41 155
f 155 139 152
f 152 139 12
f 106 16 102
f 30 120 101
f 116 10 101
f 101 120 116
f 151 62 6
f 6 62 109
f 6 55 151
f 6 58 55
f 109 58 6
f 123 121 70
f 72 22 70
f 70 22 123
f 70 121 1
f 70 43 72
f 70 1 43
f 82 84 26
f 82 66 84
f 4 66 82
f 82 118 103
f 82 26 118
f 131 128 36
f 36 129 131
f 125 128 131
f 131 129 126
f 131 35 125
f 131 126 35
f 92 81 94
f 94 80 91
f 91 28 94
f 94 28 92
f 94 81 25
f 25 80 94
f 50 16 52
f 50 102 16
f 52 46 50
f 50 46 4
f 105 101 10
f 114 31 105
f 10 110 105
f 105 110 114
f 108 102 30
f 30 101 108
f 106 102 108
f 101 105 108
f 108 31 106
f 108 105 31
f 100 50 4
f 30 102 100
f 102 50 100
f 100 82 103
f 4 82 100
f 103 120 100
f 100 120 30

