# https://github.com/mikedh/trimesh
v 0.00854562 -0.09021705 0.08600000
v 0.00938165 -0.09166509 0.08600000
v -0.00538165 -0.09825796 0.08600000
v -0.00454562 -0.09970600 0.08600000
v -0.00456969 -0.09875454 0.10179091
v 0.00856969 -0.09116851 0.10179091
v -0.00456969 -0.09875454 0.07020909
v 0.00856969 -0.09116851 0.07020909
v 0.00264546 -0.09607949 0.07066398
v 0.00264546 -0.09607949 0.10133602
v 0.00135454 -0.09384356 0.07066398
v 0.00135454 -0.09384356 0.10133602
v 0.00914471 -0.09083652 0.08600000
v -0.00514471 -0.09908652 0.08600000
v -0.00517947 -0.09849157 0.10130000
v -0.00464684 -0.09941410 0.10130000
v 0.00864684 -0.09050895 0.10130000
v 0.00917947 -0.09143148 0.10130000
v 0.00200000 -0.09496152 0.10200000
v -0.00517947 -0.09849157 0.07070000
v -0.00464684 -0.09941410 0.07070000
v 0.00864684 -0.09050895 0.07070000
v 0.00917947 -0.09143148 0.07070000
v 0.00200000 -0.09496152 0.07000000
v 0.00915480 -0.09225401 0.07096738
v -0.00392218 -0.09980401 0.07096738
v -0.00390694 -0.09929566 0.07026738
v 0.00870694 -0.09201303 0.07026738
v 0.00915480 -0.09225401 0.10103262
v -0.00392218 -0.09980401 0.10103262
v -0.00390694 -0.09929566 0.10173262
v 0.00870694 -0.09201303 0.10173262
v 0.00275000 -0.09626056 0.08600000
v 0.00792218 -0.09011904 0.07096738
v -0.00515480 -0.09766904 0.07096738
v -0.00470694 -0.09791002 0.07026738
v 0.00790694 -0.09062739 0.07026738
v 0.00792218 -0.09011904 0.10103262
v -0.00515480 -0.09766904 0.10103262
v -0.00470694 -0.09791002 0.10173262
v 0.00790694 -0.09062739 0.10173262
v 0.00125000 -0.09366249 0.08600000
v 0.00885728 -0.09044525 0.08600000
v 0.00933985 -0.09128109 0.08600000
v -0.00533985 -0.09864196 0.08600000
v -0.00485728 -0.09947780 0.08600000
v -0.00533193 -0.09837773 0.10096385
v -0.00493587 -0.09859082 0.10158287
v -0.00524909 -0.09876869 0.10096801
v -0.00462448 -0.09960306 0.10096385
v -0.00461100 -0.09915352 0.10158287
v -0.00492165 -0.09933584 0.10096801
v -0.00496363 -0.09898198 0.10133602
v 0.00862448 -0.09031999 0.10096385
v 0.00861100 -0.09076953 0.10158287
v 0.00892165 -0.09058721 0.10096801
v 0.00933193 -0.09154532 0.10096385
v 0.00893587 -0.09133222 0.10158287
v 0.00924909 -0.09115436 0.10096801
v 0.00896363 -0.09094107 0.10133602
v -0.00426359 -0.09857781 0.10194671
v 0.00826359 -0.09134524 0.10194671
v -0.00533193 -0.09837773 0.07103615
v -0.00493587 -0.09859082 0.07041713
v -0.00524909 -0.09876869 0.07103199
v -0.00462448 -0.09960306 0.07103615
v -0.00461100 -0.09915352 0.07041713
v -0.00492165 -0.09933584 0.07103199
v -0.00496363 -0.09898198 0.07066398
v 0.00862448 -0.09031999 0.07103615
v 0.00861100 -0.09076953 0.07041713
v 0.00892165 -0.09058721 0.07103199
v 0.00933193 -0.09154532 0.07103615
v 0.00893587 -0.09133222 0.07041713
v 0.00924909 -0.09115436 0.07103199
v 0.00896363 -0.09094107 0.07066398
v -0.00426359 -0.09857781 0.07005329
v 0.00826359 -0.09134524 0.07005329
v 0.00931911 -0.09197286 0.07117513
v 0.00890124 -0.09248713 0.07079256
v 0.00922811 -0.09185404 0.07080454
v -0.00424781 -0.09980572 0.07117513
v -0.00359351 -0.09970098 0.07079256
v -0.00430521 -0.09966751 0.07080454
v -0.00422641 -0.09909195 0.07019226
v -0.00358559 -0.09943675 0.07042871
v -0.00429720 -0.09940026 0.07043653
v -0.00389524 -0.09890556 0.07006852
v -0.00391622 -0.09960524 0.07057710
v 0.00869026 -0.09163451 0.07019226
v 0.00866845 -0.09236188 0.07042871
v 0.00899265 -0.09172736 0.07043653
v 0.00836325 -0.09182811 0.07006852
v 0.00897969 -0.09215979 0.07057710
v 0.00241801 -0.09568554 0.07020909
v 0.00931911 -0.09197286 0.10082487
v 0.00890124 -0.09248713 0.10120744
v 0.00922811 -0.09185404 0.10119546
v 0.00921514 -0.09228647 0.08600000
v -0.00424781 -0.09980572 0.10082487
v -0.00359351 -0.09970098 0.10120744
v -0.00430521 -0.09966751 0.10119546
v -0.00392423 -0.09987250 0.08600000
v -0.00422641 -0.09909195 0.10180774
v -0.00358559 -0.09943675 0.10157129
v -0.00429720 -0.09940026 0.10156347
v -0.00389524 -0.09890556 0.10193148
v -0.00391622 -0.09960524 0.10142290
v 0.00869026 -0.09163451 0.10180774
v 0.00866845 -0.09236188 0.10157129
v 0.00899265 -0.09172736 0.10156347
v 0.00836325 -0.09182811 0.10193148
v 0.00897969 -0.09215979 0.10142290
v 0.00241801 -0.09568554 0.10179091
v 0.00272336 -0.09621442 0.07101743
v 0.00272336 -0.09621442 0.10098257
v 0.00896672 -0.09259222 0.07117256
v -0.00353524 -0.09981023 0.07117256
v 0.00896672 -0.09259222 0.10082744
v -0.00353524 -0.09981023 0.10082744
v 0.00824781 -0.09011733 0.07117513
v 0.00759351 -0.09022207 0.07079256
v 0.00830521 -0.09025554 0.07080454
v -0.00531911 -0.09795019 0.07117513
v -0.00490124 -0.09743592 0.07079256
v -0.00522811 -0.09806900 0.07080454
v -0.00469026 -0.09828854 0.07019226
v -0.00466845 -0.09756117 0.07042871
v -0.00499265 -0.09819569 0.07043653
v -0.00436325 -0.09809494 0.07006852
v -0.00497969 -0.09776326 0.07057710
v 0.00822641 -0.09083110 0.07019226
v 0.00758559 -0.09048630 0.07042871
v 0.00829720 -0.09052279 0.07043653
v 0.00789524 -0.09101749 0.07006852
v 0.00791622 -0.09031781 0.07057710
v 0.00158199 -0.09423751 0.07020909
v 0.00824781 -0.09011733 0.10082487
v 0.00759351 -0.09022207 0.10120744
v 0.00830521 -0.09025554 0.10119546
v 0.00792423 -0.09005055 0.08600000
v -0.00531911 -0.09795019 0.10082487
v -0.00490124 -0.09743592 0.10120744
v -0.00522811 -0.09806900 0.10119546
v -0.00521514 -0.09763657 0.08600000
v -0.00469026 -0.09828854 0.10180774
v -0.00466845 -0.09756117 0.10157129
v -0.00499265 -0.09819569 0.10156347
v -0.00436325 -0.09809494 0.10193148
v -0.00497969 -0.09776326 0.10142290
v 0.00822641 -0.09083110 0.10180774
v 0.00758559 -0.09048630 0.10157129
v 0.00829720 -0.09052279 0.10156347
v 0.00789524 -0.09101749 0.10193148
v 0.00791622 -0.09031781 0.10142290
v 0.00158199 -0.09423751 0.10179091
v 0.00127664 -0.09370863 0.07101743
v 0.00127664 -0.09370863 0.10098257
v 0.00753524 -0.09011282 0.07117256
v -0.00496672 -0.09733083 0.07117256
v 0.00753524 -0.09011282 0.10082744
v -0.00496672 -0.09733083 0.10082744
f 157 160 42
f 120 118 33
f 33 118 115
f 42 160 162
f 160 145 162
f 45 65 14
f 42 162 158
f 118 120 103
f 4 46 66
f 14 46 52
f 42 158 161
f 118 103 82
f 4 66 82
f 125 35 160
f 160 157 125
f 157 11 125
f 63 20 65
f 126 20 63
f 65 45 63
f 45 3 63
f 83 115 118
f 83 9 115
f 65 20 69
f 149 61 19
f 143 158 162
f 116 120 33
f 33 119 116
f 110 112 114
f 114 105 110
f 110 105 10
f 107 105 114
f 19 61 107
f 107 112 19
f 114 112 107
f 133 135 137
f 126 35 131
f 35 125 131
f 124 63 3
f 124 35 126
f 126 63 124
f 124 145 160
f 160 35 124
f 118 82 26
f 26 83 118
f 65 69 68
f 68 66 46
f 14 65 68
f 68 46 14
f 130 135 24
f 137 135 130
f 61 149 146
f 97 110 10
f 97 116 119
f 10 116 97
f 101 30 120
f 10 105 101
f 120 116 101
f 101 116 10
f 4 82 100
f 100 82 103
f 100 103 120
f 120 30 100
f 24 135 78
f 78 93 24
f 95 93 91
f 122 11 157
f 122 133 11
f 43 13 72
f 56 13 43
f 139 161 158
f 137 130 128
f 128 131 125
f 128 125 11
f 128 133 137
f 11 133 128
f 129 20 126
f 126 131 129
f 40 149 147
f 40 146 149
f 47 3 45
f 119 99 96
f 59 13 56
f 44 13 59
f 105 107 31
f 61 146 5
f 30 101 108
f 108 101 105
f 105 31 108
f 108 31 106
f 4 100 50
f 50 46 4
f 50 52 46
f 115 9 80
f 9 91 80
f 159 122 157
f 159 157 42
f 42 161 159
f 135 133 37
f 132 78 135
f 135 37 132
f 132 37 134
f 133 122 136
f 136 37 133
f 134 37 136
f 56 43 54
f 38 138 161
f 161 139 38
f 12 143 147
f 158 143 12
f 147 152 12
f 152 139 12
f 12 139 158
f 154 149 19
f 154 41 152
f 83 26 89
f 77 130 24
f 66 68 21
f 21 68 69
f 64 69 20
f 20 129 64
f 131 128 36
f 36 129 131
f 36 128 130
f 147 143 150
f 150 40 147
f 112 110 32
f 110 97 113
f 113 32 110
f 111 32 113
f 18 111 98
f 111 113 98
f 104 31 107
f 106 31 104
f 104 107 61
f 61 5 104
f 106 104 51
f 51 104 5
f 48 5 146
f 48 51 5
f 102 100 30
f 30 108 102
f 102 108 106
f 102 50 100
f 93 78 90
f 115 80 117
f 33 115 117
f 117 119 33
f 117 99 119
f 161 138 141
f 141 159 161
f 122 159 34
f 34 136 122
f 155 139 152
f 152 41 155
f 155 38 139
f 19 112 62
f 62 154 19
f 156 152 147
f 147 149 156
f 156 154 152
f 149 154 156
f 60 59 56
f 18 59 60
f 153 155 41
f 84 26 82
f 84 89 26
f 84 82 66
f 87 89 84
f 66 21 84
f 84 21 87
f 88 77 24
f 24 93 88
f 88 93 95
f 69 64 67
f 67 21 69
f 87 21 67
f 127 64 129
f 127 36 130
f 129 36 127
f 130 77 127
f 39 143 162
f 39 150 143
f 146 40 148
f 40 150 148
f 148 48 146
f 112 32 109
f 109 32 111
f 109 62 112
f 57 59 18
f 18 98 57
f 57 98 96
f 57 96 2
f 57 2 44
f 44 59 57
f 29 113 97
f 29 98 113
f 96 98 29
f 29 97 119
f 119 96 29
f 49 47 45
f 49 45 14
f 14 52 49
f 106 51 16
f 50 102 16
f 16 102 106
f 52 50 16
f 78 132 8
f 74 90 8
f 8 90 78
f 94 80 91
f 72 76 22
f 138 54 1
f 1 54 43
f 154 62 151
f 55 153 151
f 41 154 151
f 151 153 41
f 17 153 55
f 56 54 17
f 17 60 56
f 55 60 17
f 140 54 138
f 155 153 140
f 138 38 140
f 38 155 140
f 140 17 54
f 153 17 140
f 27 89 87
f 77 88 85
f 87 67 85
f 85 27 87
f 88 27 85
f 3 47 142
f 145 124 142
f 142 124 3
f 142 162 145
f 142 39 162
f 48 148 15
f 47 49 15
f 62 109 6
f 6 151 62
f 55 151 6
f 51 48 53
f 53 49 52
f 52 16 53
f 53 16 51
f 48 15 53
f 53 15 49
f 71 76 74
f 74 8 71
f 71 22 76
f 134 22 71
f 71 132 134
f 71 8 132
f 92 90 74
f 25 117 80
f 80 94 25
f 136 34 123
f 134 136 123
f 123 22 134
f 83 89 86
f 89 27 86
f 9 83 86
f 95 91 86
f 86 91 9
f 86 88 95
f 86 27 88
f 7 67 64
f 7 127 77
f 64 127 7
f 7 85 67
f 77 85 7
f 144 148 150
f 144 142 47
f 47 15 144
f 144 15 148
f 150 39 144
f 39 142 144
f 58 60 55
f 55 6 58
f 18 60 58
f 58 111 18
f 58 109 111
f 58 6 109
f 28 94 91
f 28 92 94
f 90 92 28
f 28 91 93
f 93 90 28
f 94 92 81
f 81 25 94
f 121 123 34
f 159 141 121
f 121 34 159
f 121 141 138
f 138 1 121
f 75 76 72
f 72 13 75
f 75 13 44
f 23 92 74
f 23 81 92
f 74 76 23
f 76 75 23
f 25 81 79
f 79 96 99
f 2 96 79
f 99 117 79
f 117 25 79
f 123 121 70
f 72 22 70
f 22 123 70
f 70 121 1
f 70 43 72
f 70 1 43
f 81 23 73
f 73 23 75
f 73 79 81
f 2 79 73
f 44 2 73
f 73 75 44

