# https://github.com/mikedh/trimesh
v -0.02073716 -0.04352115 0.08600000
v 0.00518009 -0.08841115 0.08600000
v -0.03118009 -0.04955038 0.08600000
v -0.00526284 -0.09444038 0.08600000
v -0.01639244 -0.07093939 0.11202923
v -0.00960756 -0.06702214 0.11202923
v -0.01639244 -0.07093939 0.05997077
v -0.00960756 -0.06702214 0.05997077
v 0.00101462 -0.09325479 0.06208275
v 0.00101462 -0.09325479 0.10991725
v -0.02701462 -0.04470674 0.06208275
v -0.02701462 -0.04470674 0.10991725
v -0.00693782 -0.06548076 0.08600000
v -0.01906218 -0.07248076 0.08600000
v -0.03024141 -0.05063499 0.10975000
v -0.00573280 -0.09308515 0.10975000
v -0.02026720 -0.04487638 0.10975000
v 0.00424141 -0.08732654 0.10975000
v -0.01300000 -0.06898076 0.11300000
v -0.03024141 -0.05063499 0.06225000
v -0.00573280 -0.09308515 0.06225000
v -0.02026720 -0.04487638 0.06225000
v 0.00424141 -0.08732654 0.06225000
v -0.01300000 -0.06898076 0.05900000
v 0.00412690 -0.09114542 0.06349139
v -0.00236829 -0.09489542 0.06349139
v -0.00229752 -0.09253522 0.06024139
v 0.00204752 -0.09002661 0.06024139
v 0.00412690 -0.09114542 0.10850861
v -0.00236829 -0.09489542 0.10850861
v -0.00229752 -0.09253522 0.11175861
v 0.00204752 -0.09002661 0.11175861
v 0.00150000 -0.09409550 0.08600000
v -0.02363171 -0.04306610 0.06349139
v -0.03012690 -0.04681610 0.06349139
v -0.02804752 -0.04793491 0.06024139
v -0.02370248 -0.04542630 0.06024139
v -0.02363171 -0.04306610 0.10850861
v -0.03012690 -0.04681610 0.10850861
v -0.02804752 -0.04793491 0.11175861
v -0.02370248 -0.04542630 0.11175861
v -0.02750000 -0.04386603 0.08600000
v -0.01929019 -0.04458063 0.08600000
v 0.00498604 -0.08662830 0.08600000
v -0.03098604 -0.05133323 0.08600000
v -0.00670981 -0.09338090 0.08600000
v -0.03094925 -0.05010643 0.10818930
v -0.02911044 -0.05109581 0.11106330
v -0.03056466 -0.05192161 0.10820863
v -0.00562898 -0.09396244 0.10818930
v -0.00556640 -0.09187529 0.11106330
v -0.00700867 -0.09272178 0.10820863
v -0.01822147 -0.07199538 0.10991725
v -0.02037102 -0.04399909 0.10818930
v -0.02043360 -0.04608624 0.11106330
v -0.01899133 -0.04523974 0.10820863
v 0.00494925 -0.08785509 0.10818930
v 0.00311044 -0.08686572 0.11106330
v 0.00456466 -0.08603991 0.10820863
v -0.00777853 -0.06596615 0.10991725
v -0.01497128 -0.07011888 0.11275260
v -0.01102872 -0.06784265 0.11275260
v -0.03094925 -0.05010643 0.06381070
v -0.02911044 -0.05109581 0.06093670
v -0.03056466 -0.05192161 0.06379137
v -0.00562898 -0.09396244 0.06381070
v -0.00556640 -0.09187529 0.06093670
v -0.00700867 -0.09272178 0.06379137
v -0.01822147 -0.07199538 0.06208275
v -0.02037102 -0.04399909 0.06381070
v -0.02043360 -0.04608624 0.06093670
v -0.01899133 -0.04523974 0.06379137
v 0.00494925 -0.08785509 0.06381070
v 0.00311044 -0.08686572 0.06093670
v 0.00456466 -0.08603991 0.06379137
v -0.00777853 -0.06596615 0.06208275
v -0.01497128 -0.07011888 0.05924740
v -0.01102872 -0.06784265 0.05924740
v 0.00488973 -0.08984009 0.06445596
v 0.00294966 -0.09222779 0.06267972
v 0.00446726 -0.08928845 0.06273538
v -0.00388016 -0.09490339 0.06445596
v -0.00084231 -0.09441709 0.06267972
v -0.00414665 -0.09426169 0.06273538
v -0.00378079 -0.09158945 0.05989265
v -0.00080553 -0.09319029 0.06099043
v -0.00410945 -0.09302086 0.06102676
v -0.00224321 -0.09072404 0.05931813
v -0.00234062 -0.09397258 0.06167940
v 0.00197009 -0.08826917 0.05989265
v 0.00186883 -0.09164625 0.06099043
v 0.00337406 -0.08870026 0.06102676
v 0.00045184 -0.08916805 0.05931813
v 0.00331386 -0.09070797 0.06167940
v -0.00004137 -0.09142576 0.05997077
v 0.00488973 -0.08984009 0.10754404
v 0.00294966 -0.09222779 0.10932028
v 0.00446726 -0.08928845 0.10926462
v 0.00440706 -0.09129616 0.08600000
v -0.00388016 -0.09490339 0.10754404
v -0.00084231 -0.09441709 0.10932028
v -0.00414665 -0.09426169 0.10926462
v -0.00237782 -0.09521341 0.08600000
v -0.00378079 -0.09158945 0.11210735
v -0.00080553 -0.09319029 0.11100957
v -0.00410945 -0.09302086 0.11097324
v -0.00224321 -0.09072404 0.11268187
v -0.00234062 -0.09397258 0.11032060
v 0.00197009 -0.08826917 0.11210735
v 0.00186883 -0.09164625 0.11100957
v 0.00337406 -0.08870026 0.11097324
v 0.00045184 -0.08916805 0.11268187
v 0.00331386 -0.09070797 0.11032060
v -0.00004137 -0.09142576 0.11202923
v 0.00137630 -0.09388124 0.06372377
v 0.00137630 -0.09388124 0.10827623
v 0.00325366 -0.09271567 0.06444401
v -0.00057179 -0.09492430 0.06444401
v 0.00325366 -0.09271567 0.10755599
v -0.00057179 -0.09492430 0.10755599
v -0.02211984 -0.04305813 0.06445596
v -0.02515769 -0.04354444 0.06267972
v -0.02185335 -0.04369983 0.06273538
v -0.03088973 -0.04812144 0.06445596
v -0.02894966 -0.04573374 0.06267972
v -0.03046726 -0.04867307 0.06273538
v -0.02797009 -0.04969235 0.05989265
v -0.02786883 -0.04631528 0.06099043
v -0.02937406 -0.04926127 0.06102676
v -0.02645184 -0.04879347 0.05931813
v -0.02931386 -0.04725356 0.06167940
v -0.02221921 -0.04637208 0.05989265
v -0.02519447 -0.04477123 0.06099043
v -0.02189055 -0.04494066 0.06102676
v -0.02375679 -0.04723748 0.05931813
v -0.02365938 -0.04398894 0.06167940
v -0.02595863 -0.04653576 0.05997077
v -0.02211984 -0.04305813 0.10754404
v -0.02515769 -0.04354444 0.10932028
v -0.02185335 -0.04369983 0.10926462
v -0.02362218 -0.04274811 0.08600000
v -0.03088973 -0.04812144 0.10754404
v -0.02894966 -0.04573374 0.10932028
v -0.03046726 -0.04867307 0.10926462
v -0.03040706 -0.04666536 0.08600000
v -0.02797009 -0.04969235 0.11210735
v -0.02786883 -0.04631528 0.11100957
v -0.02937406 -0.04926127 0.11097324
v -0.02645184 -0.04879347 0.11268187
v -0.02931386 -0.04725356 0.11032060
v -0.02221921 -0.04637208 0.11210735
v -0.02519447 -0.04477123 0.11100957
v -0.02189055 -0.04494066 0.11097324
v -0.02375679 -0.04723748 0.11268187
v -0.02365938 -0.04398894 0.11032060
v -0.02595863 -0.04653576 0.11202923
v -0.02737630 -0.04408028 0.06372377
v -0.02737630 -0.04408028 0.10827623
v -0.02542821 -0.04303722 0.06444401
v -0.02925366 -0.04524585 0.06444401
v -0.02542821 -0.04303722 0.10755599
v -0.02925366 -0.04524585 0.10755599
f 14 65 68
f 52 49 14
f 69 68 65
f 127 77 7
f 7 77 85
f 49 52 53
f 61 107 19
f 5 61 146
f 68 69 67
f 7 85 67
f 88 77 24
f 88 85 77
f 45 65 14
f 14 49 45
f 51 53 52
f 13 56 59
f 75 72 13
f 13 72 43
f 43 56 13
f 42 162 158
f 14 68 46
f 46 52 14
f 149 61 19
f 149 146 61
f 160 124 145
f 42 157 160
f 160 162 42
f 145 162 160
f 3 124 63
f 65 45 63
f 63 45 3
f 5 51 104
f 104 61 5
f 107 61 104
f 119 116 33
f 98 57 18
f 18 57 59
f 44 57 2
f 59 57 44
f 13 59 44
f 44 75 13
f 27 88 95
f 85 88 27
f 87 67 85
f 85 27 87
f 87 27 89
f 26 83 118
f 89 83 26
f 49 53 48
f 5 146 48
f 48 51 5
f 53 51 48
f 47 45 49
f 3 45 47
f 125 160 157
f 64 69 65
f 64 127 7
f 7 67 64
f 64 67 69
f 137 135 130
f 77 127 130
f 24 77 130
f 130 135 24
f 24 135 78
f 78 135 132
f 132 8 78
f 90 78 8
f 72 75 76
f 11 125 157
f 37 135 137
f 132 135 37
f 132 37 134
f 134 37 136
f 98 18 111
f 96 119 99
f 96 57 98
f 2 57 96
f 97 10 116
f 116 119 97
f 2 96 79
f 79 96 99
f 56 43 54
f 122 11 157
f 118 83 115
f 33 118 115
f 86 27 95
f 86 83 89
f 89 27 86
f 68 67 21
f 67 87 21
f 144 47 15
f 49 48 15
f 15 47 49
f 3 47 142
f 145 124 142
f 142 124 3
f 142 47 144
f 142 162 145
f 40 149 156
f 146 149 40
f 148 48 146
f 148 150 144
f 144 15 148
f 148 15 48
f 146 40 148
f 148 40 150
f 124 160 35
f 160 125 35
f 137 130 36
f 36 130 127
f 91 86 95
f 95 88 93
f 78 90 93
f 93 88 24
f 24 78 93
f 74 90 8
f 74 92 90
f 74 76 75
f 133 37 137
f 136 37 133
f 133 122 136
f 11 122 133
f 123 134 136
f 132 134 71
f 71 8 132
f 72 76 71
f 71 74 8
f 76 74 71
f 154 62 151
f 156 149 154
f 154 149 19
f 19 62 154
f 107 114 112
f 109 62 112
f 19 107 112
f 112 62 19
f 32 111 109
f 109 112 32
f 32 112 114
f 106 104 51
f 33 116 120
f 120 118 33
f 103 118 120
f 29 96 98
f 119 96 29
f 29 97 119
f 60 59 56
f 56 55 60
f 1 54 43
f 138 54 1
f 138 141 161
f 42 158 161
f 151 55 153
f 33 115 117
f 117 119 33
f 99 119 117
f 117 79 99
f 25 79 117
f 89 26 84
f 84 87 89
f 84 21 87
f 144 150 39
f 39 142 144
f 162 142 39
f 137 36 128
f 128 133 137
f 11 133 128
f 125 11 128
f 126 63 124
f 124 35 126
f 83 86 9
f 9 115 83
f 86 91 9
f 2 79 73
f 73 44 2
f 75 44 73
f 81 79 25
f 81 73 79
f 90 92 28
f 28 93 90
f 28 91 95
f 95 93 28
f 136 122 34
f 34 123 136
f 134 123 22
f 22 71 134
f 72 71 22
f 41 154 151
f 41 153 155
f 151 153 41
f 156 154 41
f 111 32 113
f 98 111 113
f 113 29 98
f 97 29 113
f 110 32 114
f 110 113 32
f 10 97 110
f 97 113 110
f 16 51 52
f 16 106 51
f 104 106 31
f 107 104 31
f 31 114 107
f 58 18 59
f 59 60 58
f 109 111 58
f 58 111 18
f 58 60 55
f 123 34 121
f 121 141 138
f 138 1 121
f 150 40 147
f 147 40 156
f 138 161 38
f 155 38 139
f 139 38 161
f 158 12 139
f 139 161 158
f 17 153 55
f 17 55 56
f 56 54 17
f 140 54 138
f 155 153 140
f 138 38 140
f 140 38 155
f 140 17 54
f 153 17 140
f 68 21 66
f 21 84 66
f 66 46 68
f 4 46 66
f 162 39 143
f 143 39 150
f 150 147 143
f 143 147 12
f 143 158 162
f 143 12 158
f 63 126 20
f 65 63 20
f 20 64 65
f 127 64 129
f 129 36 127
f 64 20 129
f 129 20 126
f 80 9 91
f 25 117 80
f 80 117 115
f 115 9 80
f 92 74 23
f 73 81 23
f 23 81 92
f 23 74 75
f 75 73 23
f 159 122 157
f 159 34 122
f 159 157 42
f 141 121 159
f 159 121 34
f 42 161 159
f 159 161 141
f 156 41 152
f 152 147 156
f 12 147 152
f 152 41 155
f 155 139 152
f 152 139 12
f 106 16 102
f 30 120 101
f 116 10 101
f 101 120 116
f 151 62 6
f 6 62 109
f 6 55 151
f 6 58 55
f 109 58 6
f 123 121 70
f 72 22 70
f 70 22 123
f 70 121 1
f 70 43 72
f 70 1 43
f 82 84 26
f 82 66 84
f 4 66 82
f 82 118 103
f 82 26 118
f 131 128 36
f 36 129 131
f 125 128 131
f 131 129 126
f 131 35 125
f 131 126 35
f 92 81 94
f 94 80 91
f 91 28 94
f 94 28 92
f 94 81 25
f 25 80 94
f 50 16 52
f 50 102 16
f 52 46 50
f 50 46 4
f 105 101 10
f 114 31 105
f 10 110 105
f 105 110 114
f 108 102 30
f 30 101 108
f 106 102 108
f 101 105 108
f 108 31 106
f 108 105 31
f 100 50 4
f 30 102 100
f 102 50 100
f 100 82 103
f 4 82 100
f 103 120 100
f 100 120 30

