# https://github.com/mikedh/trimesh
v -0.01535765 0.05161798 0.08600000
v -0.00014221 0.07797189 0.08600000
v -0.01421382 0.05095759 0.08600000
v 0.00100162 0.07731150 0.08600000
v -0.00677493 0.06423202 0.09991039
v -0.00758110 0.06469746 0.09991039
v -0.00677493 0.06423202 0.07208961
v -0.00758110 0.06469746 0.07208961
v 0.00052718 0.07781053 0.07228456
v 0.00052718 0.07781053 0.09971544
v -0.01488321 0.05111895 0.07228456
v -0.01488321 0.05111895 0.09971544
v -0.00782753 0.06483974 0.08600000
v -0.00652850 0.06408974 0.08600000
v -0.01417044 0.05108268 0.09970000
v 0.00091497 0.07721138 0.09970000
v -0.01527100 0.05171809 0.09970000
v -0.00018559 0.07784679 0.09970000
v -0.00717801 0.06446474 0.10000000
v -0.01417044 0.05108268 0.07230000
v 0.00091497 0.07721138 0.07230000
v -0.01527100 0.05171809 0.07230000
v -0.00018559 0.07784679 0.07230000
v -0.00717801 0.06446474 0.07200000
v 0.00012498 0.07801389 0.07241459
v 0.00090440 0.07756389 0.07241459
v 0.00071246 0.07746062 0.07211459
v 0.00013151 0.07779603 0.07211459
v 0.00012498 0.07801389 0.09958541
v 0.00090440 0.07756389 0.09958541
v 0.00071246 0.07746062 0.09988541
v 0.00013151 0.07779603 0.09988541
v 0.00057199 0.07788813 0.08600000
v -0.01526043 0.05136558 0.07241459
v -0.01448101 0.05091558 0.07241459
v -0.01448754 0.05113345 0.07211459
v -0.01506849 0.05146886 0.07211459
v -0.01526043 0.05136558 0.09958541
v -0.01448101 0.05091558 0.09958541
v -0.01448754 0.05113345 0.09988541
v -0.01506849 0.05146886 0.09988541
v -0.01492801 0.05104134 0.08600000
v -0.01533974 0.05178255 0.08600000
v -0.00027578 0.07787409 0.08600000
v -0.01408025 0.05105538 0.08600000
v 0.00098371 0.07714693 0.08600000
v -0.01418002 0.05100170 0.09955594
v -0.01418580 0.05119436 0.09982123
v -0.01405267 0.05111622 0.09955772
v 0.00098031 0.07726017 0.09955594
v 0.00081057 0.07716884 0.09982123
v 0.00094481 0.07709261 0.09955772
v -0.00660610 0.06413454 0.09971544
v -0.01533634 0.05166930 0.09955594
v -0.01516660 0.05176063 0.09982123
v -0.01530084 0.05183686 0.09955772
v -0.00017601 0.07792777 0.09955594
v -0.00017023 0.07773511 0.09982123
v -0.00030336 0.07781325 0.09955772
v -0.00774993 0.06479493 0.09971544
v -0.00690612 0.06430776 0.09997716
v -0.00744991 0.06462172 0.09997716
v -0.01418002 0.05100170 0.07244406
v -0.01418580 0.05119436 0.07217877
v -0.01405267 0.05111622 0.07244228
v 0.00098031 0.07726017 0.07244406
v 0.00081057 0.07716884 0.07217877
v 0.00094481 0.07709261 0.07244228
v -0.00660610 0.06413454 0.07228456
v -0.01533634 0.05166930 0.07244406
v -0.01516660 0.05176063 0.07217877
v -0.01530084 0.05183686 0.07244228
v -0.00017601 0.07792777 0.07244406
v -0.00017023 0.07773511 0.07217877
v -0.00030336 0.07781325 0.07244228
v -0.00774993 0.06479493 0.07228456
v -0.00690612 0.06430776 0.07202284
v -0.00744991 0.06462172 0.07202284
v -0.00001458 0.07801463 0.07250363
v 0.00026584 0.07796974 0.07233967
v -0.00003918 0.07795539 0.07234480
v 0.00097482 0.07744340 0.07250363
v 0.00079573 0.07766380 0.07233967
v 0.00093582 0.07739248 0.07234480
v 0.00070531 0.07729839 0.07208240
v 0.00069596 0.07761012 0.07218373
v 0.00083491 0.07733819 0.07218709
v 0.00056517 0.07738137 0.07202937
v 0.00082935 0.07752351 0.07224733
v -0.00000541 0.07770873 0.07208240
v 0.00026923 0.07785650 0.07218373
v -0.00003574 0.07784086 0.07218709
v 0.00013652 0.07762884 0.07202937
v 0.00012753 0.07792871 0.07224733
v 0.00042970 0.07764169 0.07208961
v -0.00001458 0.07801463 0.09949637
v 0.00026584 0.07796974 0.09966033
v -0.00003918 0.07795539 0.09965520
v 0.00012410 0.07804325 0.08600000
v 0.00097482 0.07744340 0.09949637
v 0.00079573 0.07766380 0.09966033
v 0.00093582 0.07739248 0.09965520
v 0.00093026 0.07757781 0.08600000
v 0.00070531 0.07729839 0.09991760
v 0.00069596 0.07761012 0.09981627
v 0.00083491 0.07733819 0.09981291
v 0.00056517 0.07738137 0.09997063
v 0.00082935 0.07752351 0.09975267
v -0.00000541 0.07770873 0.09991760
v 0.00026923 0.07785650 0.09981627
v -0.00003574 0.07784086 0.09981291
v 0.00013652 0.07762884 0.09997063
v 0.00012753 0.07792871 0.09975267
v 0.00042970 0.07764169 0.09991039
v 0.00056057 0.07786835 0.07243604
v 0.00056057 0.07786835 0.09956396
v 0.00029081 0.07801656 0.07250252
v 0.00082380 0.07770884 0.07250252
v 0.00029081 0.07801656 0.09949748
v 0.00082380 0.07770884 0.09949748
v -0.01533085 0.05148607 0.07250363
v -0.01515176 0.05126567 0.07233967
v -0.01529185 0.05153699 0.07234480
v -0.01434145 0.05091485 0.07250363
v -0.01462187 0.05095973 0.07233967
v -0.01431685 0.05097408 0.07234480
v -0.01435062 0.05122075 0.07208240
v -0.01462526 0.05107298 0.07218373
v -0.01432029 0.05108862 0.07218709
v -0.01449255 0.05130063 0.07202937
v -0.01448356 0.05100077 0.07224733
v -0.01506134 0.05163108 0.07208240
v -0.01505199 0.05131935 0.07218373
v -0.01519094 0.05159129 0.07218709
v -0.01492119 0.05154811 0.07202937
v -0.01518538 0.05140596 0.07224733
v -0.01478573 0.05128778 0.07208961
v -0.01533085 0.05148607 0.09949637
v -0.01515176 0.05126567 0.09966033
v -0.01529185 0.05153699 0.09965520
v -0.01528629 0.05135167 0.08600000
v -0.01434145 0.05091485 0.09949637
v -0.01462187 0.05095973 0.09966033
v -0.01431685 0.05097408 0.09965520
v -0.01448013 0.05088623 0.08600000
v -0.01435062 0.05122075 0.09991760
v -0.01462526 0.05107298 0.09981627
v -0.01432029 0.05108862 0.09981291
v -0.01449255 0.05130063 0.09997063
v -0.01448356 0.05100077 0.09975267
v -0.01506134 0.05163108 0.09991760
v -0.01505199 0.05131935 0.09981627
v -0.01519094 0.05159129 0.09981291
v -0.01492119 0.05154811 0.09997063
v -0.01518538 0.05140596 0.09975267
v -0.01478573 0.05128778 0.09991039
v -0.01491660 0.05106112 0.07243604
v -0.01491660 0.05106112 0.09956396
v -0.01517982 0.05122063 0.07250252
v -0.01464684 0.05091292 0.07250252
v -0.01517982 0.05122063 0.09949748
v -0.01464684 0.05091292 0.09949748
f 14 65 68
f 45 65 14
f 69 68 65
f 49 45 14
f 14 52 49
f 157 160 42
f 33 120 118
f 118 120 103
f 64 69 65
f 77 130 24
f 24 88 77
f 68 69 67
f 67 64 7
f 69 64 67
f 53 49 52
f 49 53 48
f 150 39 144
f 61 107 19
f 51 53 52
f 5 48 51
f 51 48 53
f 14 68 46
f 46 52 14
f 103 120 100
f 7 64 127
f 127 77 7
f 130 77 127
f 137 130 36
f 36 128 137
f 130 127 36
f 160 157 125
f 85 67 7
f 7 77 85
f 85 77 88
f 66 46 68
f 4 46 66
f 160 124 145
f 65 45 63
f 150 144 148
f 49 48 15
f 48 148 15
f 15 148 144
f 117 119 33
f 19 107 112
f 5 51 104
f 104 61 5
f 107 61 104
f 143 39 150
f 54 56 43
f 137 128 133
f 159 157 42
f 42 161 159
f 2 96 79
f 57 96 2
f 16 51 52
f 129 127 64
f 129 36 127
f 35 124 160
f 160 125 35
f 142 144 39
f 142 145 124
f 147 143 150
f 149 61 19
f 118 83 115
f 115 83 9
f 33 118 115
f 115 117 33
f 98 96 57
f 119 117 99
f 99 117 79
f 99 96 119
f 79 96 99
f 116 120 33
f 33 119 116
f 114 112 107
f 120 116 101
f 101 116 10
f 39 143 162
f 162 142 39
f 145 142 162
f 160 145 162
f 42 160 162
f 128 125 11
f 11 125 157
f 11 133 128
f 73 2 79
f 57 2 44
f 44 59 57
f 44 73 75
f 2 73 44
f 72 75 76
f 95 88 93
f 93 88 24
f 50 16 52
f 4 100 50
f 52 46 50
f 50 46 4
f 20 129 64
f 20 64 65
f 65 63 20
f 128 36 131
f 36 129 131
f 131 125 128
f 131 35 125
f 82 118 103
f 4 66 82
f 103 100 82
f 82 100 4
f 9 83 86
f 109 58 6
f 154 149 19
f 156 149 154
f 155 140 38
f 45 49 47
f 144 142 47
f 49 15 47
f 47 15 144
f 146 148 48
f 146 48 5
f 5 61 146
f 61 149 146
f 119 96 29
f 96 98 29
f 111 58 109
f 133 11 122
f 136 133 122
f 157 159 122
f 122 11 157
f 54 43 1
f 141 159 161
f 141 121 159
f 75 73 23
f 13 43 56
f 56 59 13
f 59 44 13
f 72 43 13
f 13 75 72
f 13 44 75
f 37 133 136
f 137 133 37
f 78 93 24
f 78 132 8
f 72 76 71
f 8 132 71
f 79 117 25
f 91 86 95
f 9 86 91
f 81 73 79
f 81 94 92
f 92 23 81
f 81 23 73
f 79 25 81
f 81 25 94
f 124 35 126
f 35 131 126
f 126 63 124
f 126 131 129
f 126 20 63
f 129 20 126
f 67 85 87
f 151 6 55
f 55 6 58
f 62 6 151
f 151 154 62
f 62 112 109
f 109 6 62
f 19 112 62
f 62 154 19
f 156 154 41
f 41 154 151
f 143 147 12
f 124 63 3
f 3 63 45
f 3 142 124
f 3 47 142
f 45 47 3
f 40 146 149
f 156 147 40
f 40 149 156
f 40 147 150
f 150 148 40
f 148 146 40
f 119 29 97
f 97 116 119
f 10 116 97
f 18 98 57
f 18 111 98
f 58 111 18
f 18 59 58
f 57 59 18
f 106 104 51
f 51 16 106
f 107 104 31
f 31 114 107
f 31 106 108
f 104 106 31
f 101 108 30
f 30 100 120
f 120 101 30
f 159 121 34
f 34 122 159
f 136 122 34
f 121 123 34
f 34 123 136
f 70 123 121
f 121 1 70
f 70 43 72
f 70 1 43
f 161 38 138
f 138 141 161
f 54 1 138
f 138 1 121
f 121 141 138
f 138 140 54
f 38 140 138
f 74 23 92
f 8 71 74
f 74 71 76
f 74 76 75
f 75 23 74
f 137 37 135
f 135 37 132
f 135 130 137
f 132 78 135
f 24 130 135
f 135 78 24
f 136 123 134
f 134 71 132
f 134 37 136
f 132 37 134
f 80 25 117
f 94 25 80
f 80 91 94
f 9 91 80
f 80 115 9
f 117 115 80
f 95 93 28
f 28 91 95
f 92 94 28
f 94 91 28
f 67 87 21
f 68 67 21
f 21 66 68
f 84 82 66
f 66 21 84
f 84 21 87
f 27 87 85
f 27 85 88
f 27 88 95
f 95 86 27
f 17 55 56
f 17 56 54
f 54 140 17
f 140 155 153
f 151 55 153
f 153 41 151
f 155 41 153
f 153 17 140
f 55 17 153
f 58 59 60
f 60 59 56
f 60 55 58
f 56 55 60
f 139 38 161
f 139 155 38
f 158 161 42
f 42 162 158
f 158 139 161
f 12 139 158
f 158 162 143
f 143 12 158
f 10 97 110
f 16 50 102
f 102 106 16
f 102 50 100
f 108 106 102
f 100 30 102
f 102 30 108
f 105 108 101
f 105 31 108
f 105 101 10
f 114 31 105
f 10 110 105
f 105 110 114
f 123 70 22
f 71 134 22
f 22 134 123
f 72 71 22
f 22 70 72
f 92 28 90
f 90 28 93
f 90 74 92
f 8 74 90
f 90 78 8
f 93 78 90
f 82 84 26
f 26 83 118
f 118 82 26
f 89 86 83
f 89 84 87
f 89 27 86
f 87 27 89
f 83 26 89
f 89 26 84
f 152 139 12
f 156 41 152
f 152 41 155
f 155 139 152
f 152 147 156
f 152 12 147
f 112 114 32
f 114 110 32
f 109 112 32
f 32 111 109
f 98 111 113
f 113 110 97
f 113 29 98
f 113 97 29
f 111 32 113
f 113 32 110

