# https://github.com/mikedh/trimesh
v -0.00847936 0.09101856 0.08600000
v -0.00482497 0.09734814 0.08600000
v 0.00382497 0.08391465 0.08600000
v 0.00747936 0.09024424 0.08600000
v 0.00396383 0.08805420 0.10760390
v -0.00496383 0.09320859 0.10760390
v 0.00396383 0.08805420 0.06439610
v -0.00496383 0.09320859 0.06439610
v 0.00230195 0.09548452 0.06634561
v 0.00230195 0.09548452 0.10565439
v -0.00330195 0.08577827 0.06634561
v -0.00330195 0.08577827 0.10565439
v -0.00742820 0.09463140 0.08600000
v 0.00642820 0.08663140 0.08600000
v 0.00425878 0.08516563 0.10550000
v 0.00661288 0.08924306 0.10550000
v -0.00761288 0.09201974 0.10550000
v -0.00525878 0.09609716 0.10550000
v -0.00050000 0.09063140 0.10850000
v 0.00425878 0.08516563 0.06650000
v 0.00661288 0.08924306 0.06650000
v -0.00761288 0.09201974 0.06650000
v -0.00525878 0.09609716 0.06650000
v -0.00050000 0.09063140 0.06350000
v -0.00215308 0.09776819 0.06764590
v 0.00650718 0.09276819 0.06764590
v 0.00458775 0.09173544 0.06464590
v -0.00208775 0.09558954 0.06464590
v -0.00215308 0.09776819 0.10435410
v 0.00650718 0.09276819 0.10435410
v 0.00458775 0.09173544 0.10735410
v -0.00208775 0.09558954 0.10735410
v 0.00275000 0.09626056 0.08600000
v -0.00750718 0.08849461 0.06764590
v 0.00115308 0.08349461 0.06764590
v 0.00108775 0.08567326 0.06464590
v -0.00558775 0.08952736 0.06464590
v -0.00750718 0.08849461 0.10435410
v 0.00115308 0.08349461 0.10435410
v 0.00108775 0.08567326 0.10735410
v -0.00558775 0.08952736 0.10735410
v -0.00375000 0.08500223 0.08600000
v -0.00830023 0.09266427 0.08600000
v -0.00616063 0.09637016 0.08600000
v 0.00516063 0.08489263 0.08600000
v 0.00730023 0.08859853 0.08600000
v 0.00416294 0.08435583 0.10405935
v 0.00410517 0.08628243 0.10671228
v 0.00543651 0.08550105 0.10407719
v 0.00726627 0.08973096 0.10405935
v 0.00556891 0.08881769 0.10671228
v 0.00691126 0.08805541 0.10407719
v 0.00565216 0.08707944 0.10565439
v -0.00826627 0.09153184 0.10405935
v -0.00656891 0.09244511 0.10671228
v -0.00791126 0.09320739 0.10407719
v -0.00516294 0.09690697 0.10405935
v -0.00510517 0.09498037 0.10671228
v -0.00643651 0.09576175 0.10407719
v -0.00665216 0.09418335 0.10565439
v 0.00265199 0.08881160 0.10827163
v -0.00365199 0.09245120 0.10827163
v 0.00416294 0.08435583 0.06794065
v 0.00410517 0.08628243 0.06528772
v 0.00543651 0.08550105 0.06792281
v 0.00726627 0.08973096 0.06794065
v 0.00556891 0.08881769 0.06528772
v 0.00691126 0.08805541 0.06792281
v 0.00565216 0.08707944 0.06634561
v -0.00826627 0.09153184 0.06794065
v -0.00656891 0.09244511 0.06528772
v -0.00791126 0.09320739 0.06792281
v -0.00516294 0.09690697 0.06794065
v -0.00510517 0.09498037 0.06528772
v -0.00643651 0.09576175 0.06792281
v -0.00665216 0.09418335 0.06634561
v 0.00265199 0.08881160 0.06372837
v -0.00365199 0.09245120 0.06372837
v -0.00354865 0.09777554 0.06853627
v -0.00074448 0.09732664 0.06689667
v -0.00379464 0.09718320 0.06694805
v 0.00721133 0.09156326 0.06853627
v 0.00542049 0.09376729 0.06689667
v 0.00682135 0.09105406 0.06694805
v 0.00451628 0.09011318 0.06432399
v 0.00442281 0.09323048 0.06533732
v 0.00581225 0.09051111 0.06537085
v 0.00311481 0.09094292 0.06379366
v 0.00575668 0.09236438 0.06597329
v -0.00345693 0.09471651 0.06432399
v -0.00071053 0.09619422 0.06533732
v -0.00376030 0.09603782 0.06537085
v -0.00203762 0.09391768 0.06379366
v -0.00212753 0.09691633 0.06597329
v 0.00132719 0.09379619 0.06439610
v -0.00354865 0.09777554 0.10346373
v -0.00074448 0.09732664 0.10510333
v -0.00379464 0.09718320 0.10505195
v -0.00216188 0.09806171 0.08600000
v 0.00721133 0.09156326 0.10346373
v 0.00542049 0.09376729 0.10510333
v 0.00682135 0.09105406 0.10505195
v 0.00676578 0.09290733 0.08600000
v 0.00451628 0.09011318 0.10767601
v 0.00442281 0.09323048 0.10666268
v 0.00581225 0.09051111 0.10662915
v 0.00311481 0.09094292 0.10820634
v 0.00575668 0.09236438 0.10602671
v -0.00345693 0.09471651 0.10767601
v -0.00071053 0.09619422 0.10666268
v -0.00376030 0.09603782 0.10662915
v -0.00203762 0.09391768 0.10820634
v -0.00212753 0.09691633 0.10602671
v 0.00132719 0.09379619 0.10760390
v 0.00263582 0.09606279 0.06786040
v 0.00263582 0.09606279 0.10413960
v -0.00049477 0.09779484 0.06852524
v 0.00570111 0.09421765 0.06852524
v -0.00049477 0.09779484 0.10347476
v 0.00570111 0.09421765 0.10347476
v -0.00821133 0.08969953 0.06853627
v -0.00642049 0.08749550 0.06689667
v -0.00782135 0.09020874 0.06694805
v 0.00254865 0.08348726 0.06853627
v -0.00025552 0.08393615 0.06689667
v 0.00279464 0.08407959 0.06694805
v 0.00245693 0.08654628 0.06432399
v -0.00028947 0.08506858 0.06533732
v 0.00276030 0.08522497 0.06537085
v 0.00103762 0.08734512 0.06379366
v 0.00112753 0.08434646 0.06597329
v -0.00551628 0.09114961 0.06432399
v -0.00542281 0.08803231 0.06533732
v -0.00681225 0.09075168 0.06537085
v -0.00411481 0.09031987 0.06379366
v -0.00675668 0.08889842 0.06597329
v -0.00232719 0.08746661 0.06439610
v -0.00821133 0.08969953 0.10346373
v -0.00642049 0.08749550 0.10510333
v -0.00782135 0.09020874 0.10505195
v -0.00776578 0.08835547 0.08600000
v 0.00254865 0.08348726 0.10346373
v -0.00025552 0.08393615 0.10510333
v 0.00279464 0.08407959 0.10505195
v 0.00116188 0.08320108 0.08600000
v 0.00245693 0.08654628 0.10767601
v -0.00028947 0.08506858 0.10666268
v 0.00276030 0.08522497 0.10662915
v 0.00103762 0.08734512 0.10820634
v 0.00112753 0.08434646 0.10602671
v -0.00551628 0.09114961 0.10767601
v -0.00542281 0.08803231 0.10666268
v -0.00681225 0.09075168 0.10662915
v -0.00411481 0.09031987 0.10820634
v -0.00675668 0.08889842 0.10602671
v -0.00232719 0.08746661 0.10760390
v -0.00363582 0.08520001 0.06786040
v -0.00363582 0.08520001 0.10413960
v -0.00670111 0.08704515 0.06852524
v -0.00050523 0.08346795 0.06852524
v -0.00670111 0.08704515 0.10347476
v -0.00050523 0.08346795 0.10347476
f 35 126 124
f 159 157 42
f 159 141 121
f 118 115 33
f 118 103 82
f 33 115 117
f 79 99 117
f 45 65 14
f 63 3 124
f 124 126 63
f 65 45 63
f 63 45 3
f 14 65 68
f 13 72 43
f 121 1 70
f 70 43 72
f 1 43 70
f 142 162 145
f 142 145 124
f 124 3 142
f 42 157 160
f 160 162 42
f 145 162 160
f 124 145 160
f 160 35 124
f 75 72 13
f 26 118 82
f 85 88 27
f 79 117 25
f 71 74 8
f 82 4 66
f 14 68 46
f 46 66 4
f 68 66 46
f 82 103 100
f 100 4 82
f 65 63 20
f 20 63 126
f 77 88 85
f 77 130 24
f 24 88 77
f 54 43 1
f 161 159 42
f 141 159 161
f 3 45 47
f 47 142 3
f 73 2 79
f 44 75 13
f 2 73 44
f 44 73 75
f 126 35 131
f 11 128 125
f 125 160 157
f 157 11 125
f 128 131 125
f 35 160 125
f 125 131 35
f 115 118 83
f 118 26 83
f 34 159 121
f 133 128 11
f 121 70 123
f 134 136 123
f 123 34 121
f 136 34 123
f 115 83 9
f 72 75 76
f 74 71 76
f 120 100 103
f 120 118 33
f 103 118 120
f 84 26 82
f 82 66 84
f 69 68 65
f 64 67 69
f 65 20 69
f 69 20 64
f 7 67 64
f 85 67 7
f 7 77 85
f 13 43 56
f 43 54 56
f 141 161 138
f 140 54 138
f 138 54 1
f 121 141 138
f 138 1 121
f 42 162 158
f 158 161 42
f 49 45 14
f 49 47 45
f 162 142 39
f 142 47 144
f 144 39 142
f 150 39 144
f 75 73 23
f 74 76 23
f 23 76 75
f 36 131 128
f 159 34 122
f 122 34 136
f 136 133 122
f 122 133 11
f 157 159 122
f 122 11 157
f 128 133 137
f 130 36 137
f 137 36 128
f 130 137 135
f 24 130 135
f 135 78 24
f 22 71 134
f 22 123 70
f 134 123 22
f 22 70 72
f 72 76 22
f 22 76 71
f 86 9 83
f 74 23 92
f 102 100 30
f 100 120 30
f 87 67 85
f 85 27 87
f 59 44 13
f 13 56 59
f 140 138 38
f 38 138 161
f 14 46 52
f 52 49 14
f 127 36 130
f 127 7 64
f 130 77 127
f 77 7 127
f 134 71 132
f 132 71 8
f 8 78 132
f 78 135 132
f 37 137 133
f 37 135 137
f 37 132 135
f 37 133 136
f 37 136 134
f 134 132 37
f 9 86 91
f 79 25 81
f 81 73 79
f 81 23 73
f 81 92 23
f 102 30 108
f 27 86 89
f 89 87 27
f 84 87 89
f 89 86 83
f 89 83 26
f 26 84 89
f 21 84 66
f 21 87 84
f 67 87 21
f 21 66 68
f 68 69 21
f 21 69 67
f 2 44 57
f 44 59 57
f 162 39 143
f 143 39 150
f 143 158 162
f 143 12 158
f 161 158 139
f 158 12 139
f 139 38 161
f 50 46 4
f 50 52 46
f 4 100 50
f 50 100 102
f 131 36 129
f 36 127 129
f 126 131 129
f 129 127 64
f 129 20 126
f 64 20 129
f 95 91 86
f 95 27 88
f 95 86 27
f 94 81 25
f 92 81 94
f 150 144 148
f 101 30 120
f 101 108 30
f 2 57 96
f 96 99 79
f 79 2 96
f 17 56 54
f 17 54 140
f 147 143 150
f 12 143 147
f 152 139 12
f 12 147 152
f 152 147 156
f 140 38 155
f 38 139 155
f 139 152 155
f 93 95 88
f 93 88 24
f 24 78 93
f 80 25 117
f 80 94 25
f 91 94 80
f 9 91 80
f 80 117 115
f 115 9 80
f 15 144 47
f 15 148 144
f 47 49 15
f 49 52 53
f 53 15 49
f 52 50 16
f 16 53 52
f 51 53 16
f 16 50 102
f 102 108 106
f 106 16 102
f 51 16 106
f 106 108 31
f 5 51 104
f 51 106 104
f 31 107 104
f 104 106 31
f 99 96 119
f 33 117 119
f 119 117 99
f 18 57 59
f 6 58 55
f 60 59 56
f 55 58 60
f 56 17 60
f 60 17 55
f 60 18 59
f 58 18 60
f 140 155 153
f 153 17 140
f 55 17 153
f 156 149 154
f 19 62 154
f 154 149 19
f 91 95 28
f 95 93 28
f 92 94 28
f 28 94 91
f 150 148 40
f 40 147 150
f 156 147 40
f 40 149 156
f 5 104 61
f 61 104 107
f 61 107 19
f 19 149 61
f 15 53 48
f 148 15 48
f 48 51 5
f 48 53 51
f 116 120 33
f 33 119 116
f 116 101 120
f 114 107 31
f 98 96 57
f 57 18 98
f 41 152 156
f 156 154 41
f 41 155 152
f 41 153 155
f 92 28 90
f 90 28 93
f 74 92 90
f 8 74 90
f 90 78 8
f 90 93 78
f 146 40 148
f 149 40 146
f 148 48 146
f 146 48 5
f 5 61 146
f 146 61 149
f 29 119 96
f 96 98 29
f 111 18 58
f 111 98 18
f 153 41 151
f 151 41 154
f 55 153 151
f 151 6 55
f 62 6 151
f 151 154 62
f 105 110 114
f 105 114 31
f 31 108 105
f 108 101 105
f 113 29 98
f 98 111 113
f 107 114 112
f 19 107 112
f 112 62 19
f 101 116 10
f 110 105 10
f 10 105 101
f 119 29 97
f 29 113 97
f 97 113 110
f 110 10 97
f 97 116 119
f 97 10 116
f 110 113 32
f 32 113 111
f 114 110 32
f 32 112 114
f 109 32 111
f 112 32 109
f 109 111 58
f 58 6 109
f 109 6 62
f 62 112 109

