# https://github.com/mikedh/trimesh
v -0.03581433 0.04462663 0.08600000
v -0.02418567 0.04462663 0.08600000
v -0.03581433 0.03937337 0.08600000
v -0.02418567 0.03937337 0.08600000
v -0.03000000 0.04018567 0.11512663
v -0.03000000 0.04381433 0.11512663
v -0.03000000 0.04018567 0.05687337
v -0.03000000 0.04381433 0.05687337
v -0.02337337 0.04200000 0.05768567
v -0.02337337 0.04200000 0.11431433
v -0.03662663 0.04200000 0.05768567
v -0.03662663 0.04200000 0.11431433
v -0.03000000 0.04500000 0.08600000
v -0.03000000 0.03900000 0.08600000
v -0.03527254 0.03947746 0.11425000
v -0.02472746 0.03947746 0.11425000
v -0.03527254 0.04452254 0.11425000
v -0.02472746 0.04452254 0.11425000
v -0.03000000 0.04200000 0.11550000
v -0.03527254 0.03947746 0.05775000
v -0.02472746 0.03947746 0.05775000
v -0.03527254 0.04452254 0.05775000
v -0.02472746 0.04452254 0.05775000
v -0.03000000 0.04200000 0.05650000
v -0.02347746 0.04375000 0.05822746
v -0.02347746 0.04025000 0.05822746
v -0.02425000 0.04072746 0.05697746
v -0.02425000 0.04327254 0.05697746
v -0.02347746 0.04375000 0.11377254
v -0.02347746 0.04025000 0.11377254
v -0.02425000 0.04072746 0.11502254
v -0.02425000 0.04327254 0.11502254
v -0.02300000 0.04200000 0.08600000
v -0.03652254 0.04375000 0.05822746
v -0.03652254 0.04025000 0.05822746
v -0.03575000 0.04072746 0.05697746
v -0.03575000 0.04327254 0.05697746
v -0.03652254 0.04375000 0.11377254
v -0.03652254 0.04025000 0.11377254
v -0.03575000 0.04072746 0.11502254
v -0.03575000 0.04327254 0.11502254
v -0.03700000 0.04200000 0.08600000
v -0.03518317 0.04490485 0.08600000
v -0.02481683 0.04490485 0.08600000
v -0.03518317 0.03909515 0.08600000
v -0.02481683 0.03909515 0.08600000
v -0.03558472 0.03934333 0.11364973
v -0.03490156 0.03976555 0.11475512
v -0.03490615 0.03912236 0.11365716
v -0.02441528 0.03934333 0.11364973
v -0.02509844 0.03976555 0.11475512
v -0.02509385 0.03912236 0.11365716
v -0.03000000 0.03937337 0.11431433
v -0.03558472 0.04465667 0.11364973
v -0.03490156 0.04423445 0.11475512
v -0.03490615 0.04487764 0.11365716
v -0.02441528 0.04465667 0.11364973
v -0.02509844 0.04423445 0.11475512
v -0.02509385 0.04487764 0.11365716
v -0.03000000 0.04462663 0.11431433
v -0.03000000 0.04081683 0.11540485
v -0.03000000 0.04318317 0.11540485
v -0.03558472 0.03934333 0.05835027
v -0.03490156 0.03976555 0.05724488
v -0.03490615 0.03912236 0.05834284
v -0.02441528 0.03934333 0.05835027
v -0.02509844 0.03976555 0.05724488
v -0.02509385 0.03912236 0.05834284
v -0.03000000 0.03937337 0.05768567
v -0.03558472 0.04465667 0.05835027
v -0.03490156 0.04423445 0.05724488
v -0.03490615 0.04487764 0.05834284
v -0.02441528 0.04465667 0.05835027
v -0.02509844 0.04423445 0.05724488
v -0.02509385 0.04487764 0.05834284
v -0.03000000 0.04462663 0.05768567
v -0.03000000 0.04081683 0.05659515
v -0.03000000 0.04318317 0.05659515
v -0.02376555 0.04425512 0.05859844
v -0.02334333 0.04314973 0.05791528
v -0.02403054 0.04422048 0.05793669
v -0.02376555 0.03974488 0.05859844
v -0.02334333 0.04085027 0.05791528
v -0.02403054 0.03977952 0.05793669
v -0.02485027 0.04041528 0.05684333
v -0.02374488 0.04109844 0.05726555
v -0.02443669 0.04003054 0.05727952
v -0.02484284 0.04109385 0.05662236
v -0.02377952 0.04043669 0.05753054
v -0.02485027 0.04358472 0.05684333
v -0.02374488 0.04290156 0.05726555
v -0.02443669 0.04396946 0.05727952
v -0.02484284 0.04290615 0.05662236
v -0.02377952 0.04356331 0.05753054
v -0.02418567 0.04200000 0.05687337
v -0.02376555 0.04425512 0.11340156
v -0.02334333 0.04314973 0.11408472
v -0.02403054 0.04422048 0.11406331
v -0.02337337 0.04381433 0.08600000
v -0.02376555 0.03974488 0.11340156
v -0.02334333 0.04085027 0.11408472
v -0.02403054 0.03977952 0.11406331
v -0.02337337 0.04018567 0.08600000
v -0.02485027 0.04041528 0.11515667
v -0.02374488 0.04109844 0.11473445
v -0.02443669 0.04003054 0.11472048
v -0.02484284 0.04109385 0.11537764
v -0.02377952 0.04043669 0.11446946
v -0.02485027 0.04358472 0.11515667
v -0.02374488 0.04290156 0.11473445
v -0.02443669 0.04396946 0.11472048
v -0.02484284 0.04290615 0.11537764
v -0.02377952 0.04356331 0.11446946
v -0.02418567 0.04200000 0.11512663
v -0.02309515 0.04200000 0.05831683
v -0.02309515 0.04200000 0.11368317
v -0.02312236 0.04315716 0.05859385
v -0.02312236 0.04084284 0.05859385
v -0.02312236 0.04315716 0.11340615
v -0.02312236 0.04084284 0.11340615
v -0.03623445 0.04425512 0.05859844
v -0.03665667 0.04314973 0.05791528
v -0.03596946 0.04422048 0.05793669
v -0.03623445 0.03974488 0.05859844
v -0.03665667 0.04085027 0.05791528
v -0.03596946 0.03977952 0.05793669
v -0.03514973 0.04041528 0.05684333
v -0.03625512 0.04109844 0.05726555
v -0.03556331 0.04003054 0.05727952
v -0.03515716 0.04109385 0.05662236
v -0.03622048 0.04043669 0.05753054
v -0.03514973 0.04358472 0.05684333
v -0.03625512 0.04290156 0.05726555
v -0.03556331 0.04396946 0.05727952
v -0.03515716 0.04290615 0.05662236
v -0.03622048 0.04356331 0.05753054
v -0.03581433 0.04200000 0.05687337
v -0.03623445 0.04425512 0.11340156
v -0.03665667 0.04314973 0.11408472
v -0.03596946 0.04422048 0.11406331
v -0.03662663 0.04381433 0.08600000
v -0.03623445 0.03974488 0.11340156
v -0.03665667 0.04085027 0.11408472
v -0.03596946 0.03977952 0.11406331
v -0.03662663 0.04018567 0.08600000
v -0.03514973 0.04041528 0.11515667
v -0.03625512 0.04109844 0.11473445
v -0.03556331 0.04003054 0.11472048
v -0.03515716 0.04109385 0.11537764
v -0.03622048 0.04043669 0.11446946
v -0.03514973 0.04358472 0.11515667
v -0.03625512 0.04290156 0.11473445
v -0.03556331 0.04396946 0.11472048
v -0.03515716 0.04290615 0.11537764
v -0.03622048 0.04356331 0.11446946
v -0.03581433 0.04200000 0.11512663
v -0.03690485 0.04200000 0.05831683
v -0.03690485 0.04200000 0.11368317
v -0.03687764 0.04315716 0.05859385
v -0.03687764 0.04084284 0.05859385
v -0.03687764 0.04315716 0.11340615
v -0.03687764 0.04084284 0.11340615
f 42 157 160
f 14 45 65
f 65 45 63
f 63 45 3
f 49 45 14
f 66 46 68
f 14 65 68
f 68 46 14
f 124 3 142
f 63 3 124
f 124 126 63
f 48 15 53
f 53 15 49
f 4 46 66
f 50 46 4
f 4 100 50
f 104 61 5
f 82 4 66
f 103 100 82
f 100 4 82
f 75 44 73
f 13 44 75
f 75 72 13
f 59 44 13
f 13 56 59
f 13 72 43
f 43 56 13
f 159 157 42
f 125 160 157
f 145 124 142
f 160 124 145
f 49 15 47
f 142 3 47
f 47 3 45
f 45 49 47
f 52 53 49
f 52 46 50
f 14 46 52
f 52 49 14
f 120 100 103
f 19 154 149
f 149 61 19
f 50 100 102
f 99 79 96
f 117 79 99
f 73 79 81
f 73 44 2
f 2 79 73
f 96 79 2
f 72 75 76
f 142 47 144
f 144 47 15
f 56 43 54
f 54 17 56
f 121 159 141
f 121 141 138
f 20 65 63
f 63 126 20
f 88 27 85
f 130 127 36
f 36 137 130
f 128 137 36
f 11 125 157
f 128 125 11
f 131 125 128
f 128 36 131
f 101 120 116
f 116 120 33
f 30 102 100
f 100 120 30
f 30 120 101
f 51 104 5
f 51 5 48
f 48 53 51
f 25 79 117
f 25 81 79
f 23 75 73
f 73 81 23
f 23 76 75
f 44 59 57
f 57 2 44
f 96 2 57
f 156 149 154
f 156 152 147
f 147 40 156
f 156 40 149
f 70 43 72
f 19 112 62
f 62 154 19
f 129 20 126
f 126 131 129
f 129 36 127
f 129 131 36
f 64 129 127
f 20 129 64
f 66 68 21
f 77 127 130
f 88 85 77
f 77 130 24
f 24 88 77
f 126 124 35
f 125 131 35
f 35 131 126
f 35 124 160
f 160 125 35
f 103 82 118
f 118 120 103
f 33 120 118
f 109 58 6
f 109 62 112
f 6 62 109
f 112 32 109
f 6 58 55
f 101 105 108
f 108 30 101
f 102 30 108
f 61 104 107
f 107 112 19
f 19 61 107
f 119 99 96
f 117 99 119
f 33 117 119
f 119 116 33
f 110 105 10
f 10 105 101
f 101 116 10
f 149 40 146
f 48 5 146
f 5 61 146
f 61 149 146
f 150 40 147
f 147 143 150
f 50 102 16
f 16 52 50
f 53 52 16
f 16 51 53
f 80 25 117
f 147 152 12
f 12 143 147
f 140 54 138
f 17 54 140
f 6 55 151
f 154 62 151
f 151 62 6
f 1 54 43
f 138 54 1
f 1 121 138
f 1 70 121
f 43 70 1
f 157 159 122
f 122 11 157
f 121 70 123
f 130 137 135
f 137 37 135
f 24 130 135
f 135 78 24
f 87 85 27
f 85 87 67
f 67 87 21
f 113 32 110
f 56 17 60
f 17 55 60
f 60 59 56
f 60 55 58
f 31 108 105
f 31 107 104
f 104 51 106
f 102 108 106
f 106 16 102
f 51 16 106
f 106 31 104
f 108 31 106
f 114 105 110
f 112 107 114
f 114 32 112
f 110 32 114
f 114 31 105
f 107 31 114
f 116 119 97
f 97 10 116
f 110 10 97
f 97 113 110
f 148 146 40
f 40 150 148
f 148 150 144
f 48 146 148
f 148 15 48
f 148 144 15
f 142 144 39
f 39 150 143
f 144 150 39
f 115 118 83
f 115 80 117
f 115 117 33
f 33 118 115
f 92 23 81
f 93 88 24
f 24 78 93
f 138 141 161
f 161 159 42
f 141 159 161
f 154 151 41
f 41 156 154
f 152 156 41
f 41 155 152
f 153 140 155
f 153 151 55
f 153 55 17
f 17 140 153
f 155 41 153
f 153 41 151
f 11 122 133
f 133 37 137
f 133 137 128
f 128 11 133
f 121 123 34
f 159 121 34
f 34 122 159
f 22 70 72
f 22 123 70
f 72 76 22
f 89 86 83
f 89 87 27
f 27 86 89
f 127 77 7
f 7 64 127
f 7 77 85
f 7 67 64
f 85 67 7
f 64 67 69
f 69 68 65
f 65 20 69
f 20 64 69
f 69 21 68
f 69 67 21
f 96 57 98
f 111 109 32
f 32 113 111
f 113 98 111
f 58 109 111
f 28 92 94
f 94 92 81
f 81 25 94
f 25 80 94
f 23 92 74
f 76 23 74
f 90 92 28
f 28 93 90
f 90 74 92
f 8 74 90
f 90 78 8
f 90 93 78
f 91 94 80
f 28 94 91
f 138 161 38
f 38 140 138
f 155 140 38
f 143 12 158
f 158 161 42
f 123 22 134
f 26 89 83
f 26 118 82
f 83 118 26
f 84 82 66
f 87 89 84
f 66 21 84
f 21 87 84
f 84 26 82
f 89 26 84
f 113 97 29
f 29 98 113
f 96 98 29
f 29 119 96
f 29 97 119
f 18 98 57
f 18 111 98
f 58 111 18
f 18 57 59
f 59 60 18
f 18 60 58
f 80 115 9
f 9 115 83
f 83 86 9
f 86 91 9
f 9 91 80
f 95 91 86
f 88 93 95
f 95 27 88
f 95 86 27
f 95 93 28
f 28 91 95
f 155 38 139
f 139 38 161
f 152 155 139
f 139 12 152
f 139 158 12
f 161 158 139
f 143 158 162
f 160 145 162
f 42 160 162
f 162 158 42
f 162 39 143
f 162 145 142
f 142 39 162
f 132 135 37
f 37 134 132
f 8 78 132
f 78 135 132
f 136 133 122
f 123 134 136
f 122 34 136
f 136 34 123
f 37 133 136
f 136 134 37
f 71 134 22
f 71 132 134
f 8 132 71
f 71 22 76
f 71 74 8
f 76 74 71

