# https://github.com/mikedh/trimesh
v -0.03900000 -0.02871170 0.05812500
v -0.03900000 -0.02814849 0.05728210
v -0.03900000 -0.02671790 0.05585151
v -0.03900000 -0.02748008 0.05651992
v -0.03900000 -0.02680364 0.05805985
v -0.03900000 -0.02640969 0.05794035
v -0.03900000 -0.02916007 0.05903420
v -0.03900000 -0.02948593 0.05999415
v -0.03900000 -0.02794015 0.05919636
v -0.03900000 -0.02805965 0.05959031
v -0.03900000 -0.02810000 0.06000000
v -0.03900000 -0.02968370 0.06098842
v -0.03900000 -0.02975000 0.06200000
v -0.03900000 -0.02805965 0.06040969
v -0.03900000 -0.02794015 0.06080364
v -0.03900000 -0.02748492 0.05851508
v -0.03900000 -0.02774609 0.05883330
v -0.03900000 -0.02716670 0.05825391
v -0.03900000 -0.02774609 0.06116670
v -0.03900000 -0.02748492 0.06148492
v -0.03900000 -0.02716670 0.06174609
v -0.03900000 -0.02680364 0.06194015
v -0.03900000 -0.02640969 0.06205965
v -0.03900000 -0.02587500 0.05528830
v -0.03900000 -0.02496580 0.05483993
v -0.03900000 -0.02600000 0.05790000
v -0.03900000 -0.02559031 0.05794035
v -0.03900000 -0.02519636 0.05805985
v -0.03900000 -0.02400585 0.05451407
v -0.03900000 -0.02301158 0.05431630
v -0.03900000 -0.02483330 0.05825391
v -0.03900000 -0.02451508 0.05851508
v -0.03900000 -0.02425391 0.05883330
v -0.03900000 -0.02600000 0.06210000
v -0.03900000 -0.02559031 0.06205965
v -0.03900000 -0.02519636 0.06194015
v -0.03900000 -0.02425391 0.06116670
v -0.03900000 -0.02483330 0.06174609
v -0.03900000 -0.02451508 0.06148492
v -0.03900000 -0.02405985 0.05919636
v -0.03900000 -0.02394035 0.05959031
v -0.03900000 -0.02390000 0.06000000
v -0.03900000 -0.02394035 0.06040969
v -0.03900000 -0.02405985 0.06080364
v -0.03900000 -0.02200000 0.05425000
v -0.03800000 -0.02680364 0.05805985
v -0.03800000 -0.02640969 0.05794035
v -0.03800000 -0.02794015 0.05919636
v -0.03800000 -0.02805965 0.05959031
v -0.03800000 -0.02810000 0.06000000
v -0.03800000 -0.02805965 0.06040969
v -0.03800000 -0.02794015 0.06080364
v -0.03800000 -0.02748492 0.05851508
v -0.03800000 -0.02774609 0.05883330
v -0.03800000 -0.02716670 0.05825391
v -0.03800000 -0.02699776 0.05933332
v -0.03800000 -0.02710866 0.05954078
v -0.03800000 -0.02720000 0.06000000
v -0.03800000 -0.02717694 0.05976589
v -0.03800000 -0.02684853 0.05915147
v -0.03800000 -0.02666668 0.05900224
v -0.03800000 -0.02645922 0.05889134
v -0.03800000 -0.02623411 0.05882306
v -0.03800000 -0.02774609 0.06116670
v -0.03800000 -0.02717694 0.06023411
v -0.03800000 -0.02710866 0.06045922
v -0.03800000 -0.02699776 0.06066668
v -0.03800000 -0.02748492 0.06148492
v -0.03800000 -0.02716670 0.06174609
v -0.03800000 -0.02684853 0.06084853
v -0.03800000 -0.02666668 0.06099776
v -0.03800000 -0.02645922 0.06110866
v -0.03800000 -0.02623411 0.06117694
v -0.03800000 -0.02680364 0.06194015
v -0.03800000 -0.02640969 0.06205965
v -0.03800000 -0.02600000 0.05790000
v -0.03800000 -0.02559031 0.05794035
v -0.03800000 -0.02519636 0.05805985
v -0.03800000 -0.02600000 0.05880000
v -0.03800000 -0.02576589 0.05882306
v -0.03800000 -0.02554078 0.05889134
v -0.03800000 -0.02533332 0.05900224
v -0.03800000 -0.02515147 0.05915147
v -0.03800000 -0.02483330 0.05825391
v -0.03800000 -0.02451508 0.05851508
v -0.03800000 -0.02425391 0.05883330
v -0.03800000 -0.02500224 0.05933332
v -0.03800000 -0.02489134 0.05954078
v -0.03800000 -0.02482306 0.05976589
v -0.03800000 -0.02480000 0.06000000
v -0.03800000 -0.02576589 0.06117694
v -0.03800000 -0.02554078 0.06110866
v -0.03800000 -0.02515147 0.06084853
v -0.03800000 -0.02533332 0.06099776
v -0.03800000 -0.02600000 0.06120000
v -0.03800000 -0.02600000 0.06210000
v -0.03800000 -0.02559031 0.06205965
v -0.03800000 -0.02519636 0.06194015
v -0.03800000 -0.02500224 0.06066668
v -0.03800000 -0.02489134 0.06045922
v -0.03800000 -0.02482306 0.06023411
v -0.03800000 -0.02425391 0.06116670
v -0.03800000 -0.02483330 0.06174609
v -0.03800000 -0.02451508 0.06148492
v -0.03800000 -0.02405985 0.05919636
v -0.03800000 -0.02394035 0.05959031
v -0.03800000 -0.02390000 0.06000000
v -0.03800000 -0.02394035 0.06040969
v -0.03800000 -0.02405985 0.06080364
v -0.03900000 -0.02975000 0.11000000
v -0.03900000 -0.02968370 0.11101158
v -0.03900000 -0.02794015 0.11119636
v -0.03900000 -0.02805965 0.11159031
v -0.03900000 -0.02948593 0.11200585
v -0.03900000 -0.02916007 0.11296580
v -0.03900000 -0.02810000 0.11200000
v -0.03900000 -0.02805965 0.11240969
v -0.03900000 -0.02794015 0.11280364
v -0.03900000 -0.02748492 0.11051508
v -0.03900000 -0.02716670 0.11025391
v -0.03900000 -0.02774609 0.11083330
v -0.03900000 -0.02680364 0.11005985
v -0.03900000 -0.02640969 0.10994035
v -0.03900000 -0.02774609 0.11316670
v -0.03900000 -0.02748492 0.11348492
v -0.03900000 -0.02716670 0.11374609
v -0.03900000 -0.02871170 0.11387500
v -0.03900000 -0.02814849 0.11471790
v -0.03900000 -0.02748008 0.11548008
v -0.03900000 -0.02680364 0.11394015
v -0.03900000 -0.02640969 0.11405965
v -0.03900000 -0.02671790 0.11614849
v -0.03900000 -0.02600000 0.10990000
v -0.03900000 -0.02559031 0.10994035
v -0.03900000 -0.02519636 0.11005985
v -0.03900000 -0.02483330 0.11025391
v -0.03900000 -0.02451508 0.11051508
v -0.03900000 -0.02425391 0.11083330
v -0.03900000 -0.02483330 0.11374609
v -0.03900000 -0.02425391 0.11316670
v -0.03900000 -0.02451508 0.11348492
v -0.03900000 -0.02405985 0.11119636
v -0.03900000 -0.02394035 0.11159031
v -0.03900000 -0.02390000 0.11200000
v -0.03900000 -0.02394035 0.11240969
v -0.03900000 -0.02405985 0.11280364
v -0.03900000 -0.02600000 0.11410000
v -0.03900000 -0.02559031 0.11405965
v -0.03900000 -0.02519636 0.11394015
v -0.03900000 -0.02587500 0.11671170
v -0.03900000 -0.02496580 0.11716007
v -0.03900000 -0.02400585 0.11748593
v -0.03900000 -0.02301158 0.11768370
v -0.03900000 -0.02200000 0.11775000
v -0.03800000 -0.02794015 0.11119636
v -0.03800000 -0.02805965 0.11159031
v -0.03800000 -0.02810000 0.11200000
v -0.03800000 -0.02805965 0.11240969
v -0.03800000 -0.02794015 0.11280364
v -0.03800000 -0.02748492 0.11051508
v -0.03800000 -0.02716670 0.11025391
v -0.03800000 -0.02774609 0.11083330
v -0.03800000 -0.02710866 0.11154078
v -0.03800000 -0.02699776 0.11133332
v -0.03800000 -0.02717694 0.11176589
v -0.03800000 -0.02680364 0.11005985
v -0.03800000 -0.02640969 0.10994035
v -0.03800000 -0.02684853 0.11115147
v -0.03800000 -0.02666668 0.11100224
v -0.03800000 -0.02645922 0.11089134
v -0.03800000 -0.02623411 0.11082306
v -0.03800000 -0.02720000 0.11200000
v -0.03800000 -0.02717694 0.11223411
v -0.03800000 -0.02710866 0.11245922
v -0.03800000 -0.02699776 0.11266668
v -0.03800000 -0.02774609 0.11316670
v -0.03800000 -0.02748492 0.11348492
v -0.03800000 -0.02716670 0.11374609
v -0.03800000 -0.02684853 0.11284853
v -0.03800000 -0.02666668 0.11299776
v -0.03800000 -0.02645922 0.11310866
v -0.03800000 -0.02623411 0.11317694
v -0.03800000 -0.02680364 0.11394015
v -0.03800000 -0.02640969 0.11405965
v -0.03800000 -0.02600000 0.10990000
v -0.03800000 -0.02559031 0.10994035
v -0.03800000 -0.02600000 0.11080000
v -0.03800000 -0.02519636 0.11005985
v -0.03800000 -0.02576589 0.11082306
v -0.03800000 -0.02554078 0.11089134
v -0.03800000 -0.02533332 0.11100224
v -0.03800000 -0.02515147 0.11115147
v -0.03800000 -0.02483330 0.11025391
v -0.03800000 -0.02451508 0.11051508
v -0.03800000 -0.02500224 0.11133332
v -0.03800000 -0.02489134 0.11154078
v -0.03800000 -0.02482306 0.11176589
v -0.03800000 -0.02425391 0.11083330
v -0.03800000 -0.02600000 0.11320000
v -0.03800000 -0.02576589 0.11317694
v -0.03800000 -0.02554078 0.11310866
v -0.03800000 -0.02533332 0.11299776
v -0.03800000 -0.02515147 0.11284853
v -0.03800000 -0.02480000 0.11200000
v -0.03800000 -0.02482306 0.11223411
v -0.03800000 -0.02489134 0.11245922
v -0.03800000 -0.02500224 0.11266668
v -0.03800000 -0.02483330 0.11374609
v -0.03800000 -0.02425391 0.11316670
v -0.03800000 -0.02451508 0.11348492
v -0.03800000 -0.02405985 0.11119636
v -0.03800000 -0.02394035 0.11159031
v -0.03800000 -0.02390000 0.11200000
v -0.03800000 -0.02394035 0.11240969
v -0.03800000 -0.02405985 0.11280364
v -0.03800000 -0.02600000 0.11410000
v -0.03800000 -0.02559031 0.11405965
v -0.03800000 -0.02519636 0.11394015
v -0.03900000 0.02200000 0.05425000
v -0.03900000 0.02301158 0.05431630
v -0.03900000 0.02400585 0.05451407
v -0.03900000 0.02496580 0.05483993
v -0.03900000 0.02587500 0.05528830
v -0.03900000 0.02519636 0.05805985
v -0.03900000 0.02559031 0.05794035
v -0.03900000 0.02600000 0.05790000
v -0.03900000 0.02405985 0.05919636
v -0.03900000 0.02394035 0.05959031
v -0.03900000 0.02390000 0.06000000
v -0.03900000 0.02394035 0.06040969
v -0.03900000 0.02405985 0.06080364
v -0.03900000 0.02451508 0.05851508
v -0.03900000 0.02425391 0.05883330
v -0.03900000 0.02483330 0.05825391
v -0.03900000 0.02425391 0.06116670
v -0.03900000 0.02451508 0.06148492
v -0.03900000 0.02483330 0.06174609
v -0.03900000 0.02519636 0.06194015
v -0.03900000 0.02559031 0.06205965
v -0.03900000 0.02600000 0.06210000
v -0.03900000 0.02671790 0.05585151
v -0.03900000 0.02640969 0.05794035
v -0.03900000 0.02680364 0.05805985
v -0.03900000 0.02748008 0.05651992
v -0.03900000 0.02814849 0.05728210
v -0.03900000 0.02871170 0.05812500
v -0.03900000 0.02716670 0.05825391
v -0.03900000 0.02748492 0.05851508
v -0.03900000 0.02774609 0.05883330
v -0.03900000 0.02640969 0.06205965
v -0.03900000 0.02680364 0.06194015
v -0.03900000 0.02774609 0.06116670
v -0.03900000 0.02716670 0.06174609
v -0.03900000 0.02748492 0.06148492
v -0.03900000 0.02794015 0.05919636
v -0.03900000 0.02805965 0.05959031
v -0.03900000 0.02810000 0.06000000
v -0.03900000 0.02916007 0.05903420
v -0.03900000 0.02948593 0.05999415
v -0.03900000 0.02805965 0.06040969
v -0.03900000 0.02794015 0.06080364
v -0.03900000 0.02968370 0.06098842
v -0.03900000 0.02975000 0.06200000
v -0.03800000 0.02519636 0.05805985
v -0.03800000 0.02559031 0.05794035
v -0.03800000 0.02600000 0.05790000
v -0.03800000 0.02405985 0.05919636
v -0.03800000 0.02394035 0.05959031
v -0.03800000 0.02390000 0.06000000
v -0.03800000 0.02394035 0.06040969
v -0.03800000 0.02405985 0.06080364
v -0.03800000 0.02451508 0.05851508
v -0.03800000 0.02425391 0.05883330
v -0.03800000 0.02483330 0.05825391
v -0.03800000 0.02500224 0.05933332
v -0.03800000 0.02489134 0.05954078
v -0.03800000 0.02482306 0.05976589
v -0.03800000 0.02480000 0.06000000
v -0.03800000 0.02515147 0.05915147
v -0.03800000 0.02533332 0.05900224
v -0.03800000 0.02554078 0.05889134
v -0.03800000 0.02576589 0.05882306
v -0.03800000 0.02600000 0.05880000
v -0.03800000 0.02425391 0.06116670
v -0.03800000 0.02482306 0.06023411
v -0.03800000 0.02489134 0.06045922
v -0.03800000 0.02500224 0.06066668
v -0.03800000 0.02451508 0.06148492
v -0.03800000 0.02483330 0.06174609
v -0.03800000 0.02515147 0.06084853
v -0.03800000 0.02533332 0.06099776
v -0.03800000 0.02554078 0.06110866
v -0.03800000 0.02576589 0.06117694
v -0.03800000 0.02519636 0.06194015
v -0.03800000 0.02600000 0.06120000
v -0.03800000 0.02559031 0.06205965
v -0.03800000 0.02600000 0.06210000
v -0.03800000 0.02640969 0.05794035
v -0.03800000 0.02680364 0.05805985
v -0.03800000 0.02623411 0.05882306
v -0.03800000 0.02645922 0.05889134
v -0.03800000 0.02666668 0.05900224
v -0.03800000 0.02684853 0.05915147
v -0.03800000 0.02716670 0.05825391
v -0.03800000 0.02748492 0.05851508
v -0.03800000 0.02774609 0.05883330
v -0.03800000 0.02699776 0.05933332
v -0.03800000 0.02710866 0.05954078
v -0.03800000 0.02717694 0.05976589
v -0.03800000 0.02720000 0.06000000
v -0.03800000 0.02623411 0.06117694
v -0.03800000 0.02645922 0.06110866
v -0.03800000 0.02666668 0.06099776
v -0.03800000 0.02684853 0.06084853
v -0.03800000 0.02640969 0.06205965
v -0.03800000 0.02680364 0.06194015
v -0.03800000 0.02717694 0.06023411
v -0.03800000 0.02699776 0.06066668
v -0.03800000 0.02710866 0.06045922
v -0.03800000 0.02774609 0.06116670
v -0.03800000 0.02716670 0.06174609
v -0.03800000 0.02748492 0.06148492
v -0.03800000 0.02794015 0.05919636
v -0.03800000 0.02805965 0.05959031
v -0.03800000 0.02810000 0.06000000
v -0.03800000 0.02805965 0.06040969
v -0.03800000 0.02794015 0.06080364
v -0.03900000 0.02200000 0.11775000
v -0.03900000 0.02405985 0.11119636
v -0.03900000 0.02394035 0.11159031
v -0.03900000 0.02390000 0.11200000
v -0.03900000 0.02394035 0.11240969
v -0.03900000 0.02405985 0.11280364
v -0.03900000 0.02451508 0.11051508
v -0.03900000 0.02483330 0.11025391
v -0.03900000 0.02425391 0.11083330
v -0.03900000 0.02519636 0.11005985
v -0.03900000 0.02559031 0.10994035
v -0.03900000 0.02600000 0.10990000
v -0.03900000 0.02425391 0.11316670
v -0.03900000 0.02451508 0.11348492
v -0.03900000 0.02483330 0.11374609
v -0.03900000 0.02301158 0.11768370
v -0.03900000 0.02400585 0.11748593
v -0.03900000 0.02519636 0.11394015
v -0.03900000 0.02559031 0.11405965
v -0.03900000 0.02600000 0.11410000
v -0.03900000 0.02496580 0.11716007
v -0.03900000 0.02587500 0.11671170
v -0.03900000 0.02640969 0.10994035
v -0.03900000 0.02680364 0.11005985
v -0.03900000 0.02716670 0.11025391
v -0.03900000 0.02748492 0.11051508
v -0.03900000 0.02774609 0.11083330
v -0.03900000 0.02716670 0.11374609
v -0.03900000 0.02774609 0.11316670
v -0.03900000 0.02748492 0.11348492
v -0.03900000 0.02794015 0.11119636
v -0.03900000 0.02805965 0.11159031
v -0.03900000 0.02975000 0.11000000
v -0.03900000 0.02968370 0.11101158
v -0.03900000 0.02810000 0.11200000
v -0.03900000 0.02805965 0.11240969
v -0.03900000 0.02794015 0.11280364
v -0.03900000 0.02948593 0.11200585
v -0.03900000 0.02916007 0.11296580
v -0.03900000 0.02640969 0.11405965
v -0.03900000 0.02680364 0.11394015
v -0.03900000 0.02748008 0.11548008
v -0.03900000 0.02671790 0.11614849
v -0.03900000 0.02814849 0.11471790
v -0.03900000 0.02871170 0.11387500
v -0.03800000 0.02405985 0.11119636
v -0.03800000 0.02394035 0.11159031
v -0.03800000 0.02390000 0.11200000
v -0.03800000 0.02394035 0.11240969
v -0.03800000 0.02405985 0.11280364
v -0.03800000 0.02451508 0.11051508
v -0.03800000 0.02483330 0.11025391
v -0.03800000 0.02425391 0.11083330
v -0.03800000 0.02482306 0.11176589
v -0.03800000 0.02489134 0.11154078
v -0.03800000 0.02500224 0.11133332
v -0.03800000 0.02519636 0.11005985
v -0.03800000 0.02559031 0.10994035
v -0.03800000 0.02600000 0.10990000
v -0.03800000 0.02600000 0.11080000
v -0.03800000 0.02533332 0.11100224
v -0.03800000 0.02515147 0.11115147
v -0.03800000 0.02554078 0.11089134
v -0.03800000 0.02576589 0.11082306
v -0.03800000 0.02480000 0.11200000
v -0.03800000 0.02482306 0.11223411
v -0.03800000 0.02489134 0.11245922
v -0.03800000 0.02500224 0.11266668
v -0.03800000 0.02425391 0.11316670
v -0.03800000 0.02451508 0.11348492
v -0.03800000 0.02483330 0.11374609
v -0.03800000 0.02515147 0.11284853
v -0.03800000 0.02533332 0.11299776
v -0.03800000 0.02554078 0.11310866
v -0.03800000 0.02576589 0.11317694
v -0.03800000 0.02600000 0.11320000
v -0.03800000 0.02519636 0.11394015
v -0.03800000 0.02559031 0.11405965
v -0.03800000 0.02600000 0.11410000
v -0.03800000 0.02640969 0.10994035
v -0.03800000 0.02680364 0.11005985
v -0.03800000 0.02623411 0.11082306
v -0.03800000 0.02645922 0.11089134
v -0.03800000 0.02666668 0.11100224
v -0.03800000 0.02684853 0.11115147
v -0.03800000 0.02716670 0.11025391
v -0.03800000 0.02748492 0.11051508
v -0.03800000 0.02699776 0.11133332
v -0.03800000 0.02710866 0.11154078
v -0.03800000 0.02717694 0.11176589
v -0.03800000 0.02774609 0.11083330
v -0.03800000 0.02623411 0.11317694
v -0.03800000 0.02645922 0.11310866
v -0.03800000 0.02666668 0.11299776
v -0.03800000 0.02684853 0.11284853
v -0.03800000 0.02717694 0.11223411
v -0.03800000 0.02720000 0.11200000
v -0.03800000 0.02710866 0.11245922
v -0.03800000 0.02699776 0.11266668
v -0.03800000 0.02716670 0.11374609
v -0.03800000 0.02774609 0.11316670
v -0.03800000 0.02748492 0.11348492
v -0.03800000 0.02794015 0.11119636
v -0.03800000 0.02805965 0.11159031
v -0.03800000 0.02810000 0.11200000
v -0.03800000 0.02805965 0.11240969
v -0.03800000 0.02794015 0.11280364
v -0.03800000 0.02640969 0.11405965
v -0.03800000 0.02680364 0.11394015
v -0.03660000 -0.02871170 0.05812500
v -0.03660000 -0.02814849 0.05728210
v -0.03660000 -0.02671790 0.05585151
v -0.03660000 -0.02748008 0.05651992
v -0.03660000 -0.02916007 0.05903420
v -0.03660000 -0.02948593 0.05999415
v -0.03660000 -0.02968370 0.06098842
v -0.03660000 -0.02975000 0.06200000
v -0.03660000 -0.02699776 0.05933332
v -0.03660000 -0.02710866 0.05954078
v -0.03660000 -0.02720000 0.06000000
v -0.03660000 -0.02717694 0.05976589
v -0.03660000 -0.02684853 0.05915147
v -0.03660000 -0.02666668 0.05900224
v -0.03660000 -0.02645922 0.05889134
v -0.03660000 -0.02623411 0.05882306
v -0.03660000 -0.02717694 0.06023411
v -0.03660000 -0.02710866 0.06045922
v -0.03660000 -0.02699776 0.06066668
v -0.03660000 -0.02684853 0.06084853
v -0.03660000 -0.02666668 0.06099776
v -0.03660000 -0.02645922 0.06110866
v -0.03660000 -0.02623411 0.06117694
v -0.03660000 -0.02587500 0.05528830
v -0.03660000 -0.02496580 0.05483993
v -0.03660000 -0.02400585 0.05451407
v -0.03660000 -0.02301158 0.05431630
v -0.03660000 -0.02600000 0.05880000
v -0.03660000 -0.02576589 0.05882306
v -0.03660000 -0.02554078 0.05889134
v -0.03660000 -0.02533332 0.05900224
v -0.03660000 -0.02515147 0.05915147
v -0.03660000 -0.02500224 0.05933332
v -0.03660000 -0.02489134 0.05954078
v -0.03660000 -0.02482306 0.05976589
v -0.03660000 -0.02480000 0.06000000
v -0.03660000 -0.02576589 0.06117694
v -0.03660000 -0.02554078 0.06110866
v -0.03660000 -0.02515147 0.06084853
v -0.03660000 -0.02533332 0.06099776
v -0.03660000 -0.02600000 0.06120000
v -0.03660000 -0.02500224 0.06066668
v -0.03660000 -0.02489134 0.06045922
v -0.03660000 -0.02482306 0.06023411
v -0.03660000 -0.02200000 0.05425000
v -0.03660000 -0.02975000 0.11000000
v -0.03660000 -0.02968370 0.11101158
v -0.03660000 -0.02948593 0.11200585
v -0.03660000 -0.02916007 0.11296580
v -0.03660000 -0.02710866 0.11154078
v -0.03660000 -0.02699776 0.11133332
v -0.03660000 -0.02717694 0.11176589
v -0.03660000 -0.02684853 0.11115147
v -0.03660000 -0.02666668 0.11100224
v -0.03660000 -0.02645922 0.11089134
v -0.03660000 -0.02623411 0.11082306
v -0.03660000 -0.02720000 0.11200000
v -0.03660000 -0.02717694 0.11223411
v -0.03660000 -0.02710866 0.11245922
v -0.03660000 -0.02699776 0.11266668
v -0.03660000 -0.02684853 0.11284853
v -0.03660000 -0.02666668 0.11299776
v -0.03660000 -0.02645922 0.11310866
v -0.03660000 -0.02623411 0.11317694
v -0.03660000 -0.02871170 0.11387500
v -0.03660000 -0.02814849 0.11471790
v -0.03660000 -0.02748008 0.11548008
v -0.03660000 -0.02671790 0.11614849
v -0.03660000 -0.02600000 0.11080000
v -0.03660000 -0.02576589 0.11082306
v -0.03660000 -0.02554078 0.11089134
v -0.03660000 -0.02533332 0.11100224
v -0.03660000 -0.02515147 0.11115147
v -0.03660000 -0.02500224 0.11133332
v -0.03660000 -0.02489134 0.11154078
v -0.03660000 -0.02482306 0.11176589
v -0.03660000 -0.02600000 0.11320000
v -0.03660000 -0.02576589 0.11317694
v -0.03660000 -0.02554078 0.11310866
v -0.03660000 -0.02533332 0.11299776
v -0.03660000 -0.02515147 0.11284853
v -0.03660000 -0.02480000 0.11200000
v -0.03660000 -0.02482306 0.11223411
v -0.03660000 -0.02489134 0.11245922
v -0.03660000 -0.02500224 0.11266668
v -0.03660000 -0.02587500 0.11671170
v -0.03660000 -0.02496580 0.11716007
v -0.03660000 -0.02400585 0.11748593
v -0.03660000 -0.02301158 0.11768370
v -0.03660000 -0.02200000 0.11775000
v -0.03660000 0.02200000 0.05425000
v -0.03660000 0.02301158 0.05431630
v -0.03660000 0.02400585 0.05451407
v -0.03660000 0.02496580 0.05483993
v -0.03660000 0.02587500 0.05528830
v -0.03660000 0.02500224 0.05933332
v -0.03660000 0.02489134 0.05954078
v -0.03660000 0.02482306 0.05976589
v -0.03660000 0.02480000 0.06000000
v -0.03660000 0.02515147 0.05915147
v -0.03660000 0.02533332 0.05900224
v -0.03660000 0.02554078 0.05889134
v -0.03660000 0.02576589 0.05882306
v -0.03660000 0.02600000 0.05880000
v -0.03660000 0.02482306 0.06023411
v -0.03660000 0.02489134 0.06045922
v -0.03660000 0.02500224 0.06066668
v -0.03660000 0.02515147 0.06084853
v -0.03660000 0.02533332 0.06099776
v -0.03660000 0.02554078 0.06110866
v -0.03660000 0.02576589 0.06117694
v -0.03660000 0.02600000 0.06120000
v -0.03660000 0.02671790 0.05585151
v -0.03660000 0.02748008 0.05651992
v -0.03660000 0.02814849 0.05728210
v -0.03660000 0.02871170 0.05812500
v -0.03660000 0.02623411 0.05882306
v -0.03660000 0.02645922 0.05889134
v -0.03660000 0.02666668 0.05900224
v -0.03660000 0.02684853 0.05915147
v -0.03660000 0.02699776 0.05933332
v -0.03660000 0.02710866 0.05954078
v -0.03660000 0.02717694 0.05976589
v -0.03660000 0.02720000 0.06000000
v -0.03660000 0.02623411 0.06117694
v -0.03660000 0.02645922 0.06110866
v -0.03660000 0.02666668 0.06099776
v -0.03660000 0.02684853 0.06084853
v -0.03660000 0.02717694 0.06023411
v -0.03660000 0.02699776 0.06066668
v -0.03660000 0.02710866 0.06045922
v -0.03660000 0.02916007 0.05903420
v -0.03660000 0.02948593 0.05999415
v -0.03660000 0.02968370 0.06098842
v -0.03660000 0.02975000 0.06200000
v -0.03660000 0.02200000 0.11775000
v -0.03660000 0.02482306 0.11176589
v -0.03660000 0.02489134 0.11154078
v -0.03660000 0.02500224 0.11133332
v -0.03660000 0.02600000 0.11080000
v -0.03660000 0.02533332 0.11100224
v -0.03660000 0.02515147 0.11115147
v -0.03660000 0.02554078 0.11089134
v -0.03660000 0.02576589 0.11082306
v -0.03660000 0.02480000 0.11200000
v -0.03660000 0.02482306 0.11223411
v -0.03660000 0.02489134 0.11245922
v -0.03660000 0.02500224 0.11266668
v -0.03660000 0.02515147 0.11284853
v -0.03660000 0.02533332 0.11299776
v -0.03660000 0.02554078 0.11310866
v -0.03660000 0.02576589 0.11317694
v -0.03660000 0.02600000 0.11320000
v -0.03660000 0.02301158 0.11768370
v -0.03660000 0.02400585 0.11748593
v -0.03660000 0.02496580 0.11716007
v -0.03660000 0.02587500 0.11671170
v -0.03660000 0.02623411 0.11082306
v -0.03660000 0.02645922 0.11089134
v -0.03660000 0.02666668 0.11100224
v -0.03660000 0.02684853 0.11115147
v -0.03660000 0.02699776 0.11133332
v -0.03660000 0.02710866 0.11154078
v -0.03660000 0.02717694 0.11176589
v -0.03660000 0.02623411 0.11317694
v -0.03660000 0.02645922 0.11310866
v -0.03660000 0.02666668 0.11299776
v -0.03660000 0.02684853 0.11284853
v -0.03660000 0.02717694 0.11223411
v -0.03660000 0.02720000 0.11200000
v -0.03660000 0.02710866 0.11245922
v -0.03660000 0.02699776 0.11266668
v -0.03660000 0.02975000 0.11000000
v -0.03660000 0.02968370 0.11101158
v -0.03660000 0.02948593 0.11200585
v -0.03660000 0.02916007 0.11296580
v -0.03660000 0.02748008 0.11548008
v -0.03660000 0.02671790 0.11614849
v -0.03660000 0.02814849 0.11471790
v -0.03660000 0.02871170 0.11387500
f 1 5 2
f 1 18 5
f 2 5 6
f 2 6 26
f 7 8 10
f 1 7 17
f 1 17 16
f 7 9 17
f 7 10 9
f 8 11 10
f 8 14 11
f 8 15 14
f 8 19 15
f 8 20 19
f 1 16 18
f 2 233 4
f 3 4 225
f 3 245 24
f 24 244 25
f 2 26 228
f 228 26 27
f 228 27 28
f 228 28 31
f 228 31 32
f 230 32 33
f 230 33 40
f 41 230 40
f 237 41 42
f 237 43 44
f 43 237 42
f 237 44 37
f 29 223 30
f 25 241 29
f 30 222 45
f 8 12 360
f 12 13 361
f 8 360 20
f 360 21 20
f 360 22 21
f 360 23 22
f 360 34 23
f 360 35 34
f 360 36 35
f 360 38 36
f 360 39 38
f 360 37 39
f 2 4 438
f 1 2 437
f 3 24 439
f 3 440 4
f 1 441 7
f 7 442 8
f 8 443 12
f 12 444 13
f 24 25 460
f 25 29 461
f 29 30 462
f 30 45 463
f 45 219 481
f 13 110 122
f 13 122 123
f 13 123 133
f 13 133 134
f 13 134 135
f 13 135 136
f 110 111 121
f 111 114 113
f 110 119 120
f 110 120 122
f 110 121 119
f 111 112 121
f 111 113 112
f 114 115 117
f 114 116 113
f 114 117 116
f 115 118 117
f 115 127 118
f 127 124 118
f 127 125 124
f 127 126 125
f 127 128 130
f 127 130 126
f 128 131 130
f 128 147 131
f 152 153 154
f 13 136 336
f 332 136 137
f 332 137 138
f 332 138 142
f 143 332 142
f 341 143 144
f 145 341 144
f 128 129 349
f 129 132 348
f 132 150 344
f 128 370 147
f 370 148 147
f 369 149 148
f 369 139 149
f 150 151 343
f 151 152 328
f 152 154 328
f 371 145 146
f 371 146 140
f 369 141 139
f 369 140 141
f 13 482 110
f 110 483 111
f 111 484 114
f 114 485 115
f 115 501 127
f 127 502 128
f 128 503 129
f 129 504 132
f 132 522 150
f 150 523 151
f 151 524 152
f 152 525 153
f 153 526 154
f 4 233 232
f 4 232 234
f 2 227 233
f 2 228 227
f 45 221 219
f 45 222 221
f 30 223 222
f 4 234 224
f 4 224 225
f 3 225 226
f 3 226 245
f 29 241 223
f 25 244 241
f 24 245 244
f 228 32 229
f 32 230 229
f 230 41 231
f 41 235 231
f 41 236 235
f 41 237 236
f 360 237 37
f 219 221 220
f 245 226 242
f 245 242 243
f 246 243 247
f 245 243 246
f 246 247 248
f 246 248 249
f 246 249 255
f 246 255 258
f 258 255 256
f 259 256 257
f 259 257 260
f 258 256 259
f 262 260 261
f 262 261 252
f 263 252 254
f 263 253 251
f 263 254 253
f 259 260 262
f 262 252 263
f 360 238 237
f 360 239 238
f 360 240 239
f 360 250 240
f 360 251 250
f 263 251 360
f 219 220 527
f 220 221 528
f 221 222 529
f 222 223 530
f 223 241 531
f 241 244 549
f 244 245 550
f 245 246 551
f 246 258 552
f 258 259 568
f 259 262 569
f 262 263 570
f 263 360 571
f 13 336 334
f 13 334 335
f 13 335 337
f 13 337 338
f 13 338 339
f 13 339 350
f 13 350 351
f 13 351 352
f 13 352 353
f 13 353 365
f 12 361 360
f 13 365 361
f 151 328 343
f 132 344 348
f 150 343 344
f 136 329 336
f 330 136 331
f 136 330 329
f 136 332 331
f 332 143 333
f 143 340 333
f 143 341 340
f 145 342 341
f 145 345 342
f 145 346 345
f 145 347 346
f 371 347 145
f 129 348 349
f 128 349 370
f 369 148 370
f 369 371 140
f 372 357 355
f 365 353 354
f 365 354 358
f 365 358 359
f 365 359 362
f 365 362 363
f 366 363 364
f 366 364 356
f 372 356 357
f 366 356 372
f 365 363 366
f 371 367 347
f 371 368 367
f 372 355 368
f 371 372 368
f 154 572 328
f 328 590 343
f 343 591 344
f 344 592 348
f 348 593 349
f 360 361 609
f 361 365 610
f 365 366 611
f 366 372 612
f 369 370 613
f 349 614 370
f 371 616 372
f 369 615 371
f 2 438 437
f 3 439 440
f 24 460 439
f 4 440 438
f 1 437 441
f 7 441 442
f 8 442 443
f 12 443 444
f 25 461 460
f 29 462 461
f 30 463 462
f 45 481 463
f 13 444 482
f 437 449 441
f 441 447 442
f 442 447 453
f 442 453 454
f 441 449 445
f 437 451 450
f 437 452 451
f 437 464 452
f 437 450 449
f 441 446 448
f 441 445 446
f 441 448 447
f 442 454 455
f 442 455 456
f 438 440 537
f 439 460 551
f 460 461 550
f 439 552 440
f 437 438 535
f 437 544 464
f 544 465 464
f 544 466 465
f 544 467 466
f 544 468 467
f 462 463 531
f 461 462 549
f 463 481 530
f 571 469 468
f 571 470 469
f 571 471 470
f 571 472 471
f 442 609 443
f 443 610 444
f 442 456 609
f 609 456 457
f 609 457 458
f 609 458 459
f 609 459 477
f 609 480 472
f 609 479 480
f 609 478 479
f 609 477 473
f 609 473 474
f 609 474 476
f 609 476 475
f 609 475 478
f 110 482 483
f 111 483 484
f 114 484 485
f 115 485 501
f 127 501 502
f 128 502 503
f 129 503 504
f 132 504 522
f 150 522 523
f 151 523 524
f 152 524 525
f 153 525 526
f 154 526 572
f 482 489 483
f 483 493 484
f 483 487 486
f 483 486 488
f 483 488 493
f 484 494 485
f 484 493 494
f 485 499 501
f 482 490 489
f 482 491 490
f 482 492 491
f 482 505 492
f 483 489 487
f 485 494 495
f 485 495 496
f 485 496 497
f 485 497 498
f 485 498 499
f 501 499 500
f 501 500 513
f 524 526 525
f 444 581 482
f 482 585 505
f 585 506 505
f 585 507 506
f 585 508 507
f 585 509 508
f 615 516 517
f 501 614 502
f 502 593 503
f 503 592 504
f 504 591 522
f 501 513 613
f 613 513 514
f 613 514 515
f 613 515 516
f 522 590 523
f 523 572 524
f 524 572 526
f 616 510 509
f 616 511 510
f 616 512 511
f 616 518 512
f 615 521 520
f 615 519 518
f 615 520 519
f 615 517 521
f 481 219 527
f 220 528 527
f 221 529 528
f 222 530 529
f 223 531 530
f 241 549 531
f 244 550 549
f 245 551 550
f 246 552 551
f 258 568 552
f 259 569 568
f 262 570 569
f 263 571 570
f 438 536 532
f 438 533 534
f 438 534 535
f 438 532 533
f 437 535 541
f 437 541 542
f 437 542 543
f 437 543 544
f 481 527 529
f 481 529 530
f 463 530 531
f 440 538 537
f 440 539 538
f 440 540 539
f 440 552 540
f 462 531 549
f 461 549 550
f 460 550 551
f 439 551 552
f 438 537 536
f 468 544 545
f 468 545 546
f 468 546 547
f 468 547 548
f 571 468 548
f 571 609 472
f 527 528 529
f 552 553 540
f 552 554 553
f 568 555 554
f 568 556 555
f 568 557 556
f 568 558 557
f 568 559 558
f 570 564 566
f 571 548 561
f 571 561 562
f 571 562 563
f 571 563 564
f 552 568 554
f 569 560 559
f 568 569 559
f 570 565 560
f 570 567 565
f 570 566 567
f 569 570 560
f 570 571 564
f 571 360 609
f 328 572 590
f 343 590 591
f 344 591 592
f 348 592 593
f 361 610 609
f 365 611 610
f 366 612 611
f 372 616 612
f 369 613 615
f 349 593 614
f 370 614 613
f 371 615 616
f 444 578 575
f 444 577 578
f 444 579 577
f 444 580 579
f 444 576 580
f 444 575 574
f 444 574 573
f 444 573 581
f 444 594 576
f 444 595 594
f 444 596 595
f 444 597 596
f 444 611 597
f 443 609 610
f 444 610 611
f 482 581 582
f 482 582 583
f 482 583 584
f 482 584 585
f 523 590 572
f 504 592 591
f 522 591 590
f 509 585 586
f 509 586 587
f 509 587 588
f 509 588 589
f 616 509 589
f 615 518 616
f 501 613 614
f 503 593 592
f 502 614 593
f 613 516 615
f 611 598 597
f 611 599 598
f 612 605 606
f 612 608 607
f 612 607 605
f 616 603 604
f 616 589 601
f 616 601 602
f 616 602 603
f 612 604 608
f 611 600 599
f 611 606 600
f 611 612 606
f 612 616 604
f 57 59 448
f 57 446 56
f 59 58 447
f 58 65 453
f 60 449 61
f 61 450 62
f 62 451 63
f 63 452 79
f 60 56 445
f 65 66 454
f 66 67 455
f 67 70 456
f 70 71 457
f 71 72 458
f 72 73 459
f 73 95 477
f 79 464 80
f 80 465 81
f 81 466 82
f 82 467 83
f 83 468 87
f 87 469 88
f 88 470 89
f 89 471 90
f 90 472 101
f 95 91 473
f 91 92 474
f 92 94 476
f 93 475 94
f 100 479 99
f 101 480 100
f 93 99 478
f 56 446 445
f 57 448 446
f 59 447 448
f 58 453 447
f 62 450 451
f 61 449 450
f 63 451 452
f 79 452 464
f 60 445 449
f 65 454 453
f 66 455 454
f 67 456 455
f 70 457 456
f 71 458 457
f 72 459 458
f 73 477 459
f 80 464 465
f 81 465 466
f 82 466 467
f 83 467 468
f 87 468 469
f 88 469 470
f 89 470 471
f 90 471 472
f 101 472 480
f 95 473 477
f 91 474 473
f 92 476 474
f 93 478 475
f 94 475 476
f 99 479 478
f 100 480 479
f 55 5 18
f 46 6 5
f 47 26 6
f 49 9 10
f 50 10 11
f 51 11 14
f 52 14 15
f 54 16 17
f 48 17 9
f 53 18 16
f 64 15 19
f 68 19 20
f 69 20 21
f 74 21 22
f 75 22 23
f 96 23 34
f 76 27 26
f 77 28 27
f 78 31 28
f 84 32 31
f 85 33 32
f 86 40 33
f 97 34 35
f 98 35 36
f 103 36 38
f 104 38 39
f 102 39 37
f 105 41 40
f 106 42 41
f 107 43 42
f 108 44 43
f 109 37 44
f 55 46 5
f 46 47 6
f 47 76 26
f 48 9 49
f 49 10 50
f 50 11 51
f 51 14 52
f 53 16 54
f 48 54 17
f 53 55 18
f 52 15 64
f 64 19 68
f 68 20 69
f 69 21 74
f 74 22 75
f 75 23 96
f 76 77 27
f 77 78 28
f 78 84 31
f 84 85 32
f 85 86 33
f 96 34 97
f 97 35 98
f 102 37 109
f 103 38 104
f 98 36 103
f 102 104 39
f 86 105 40
f 105 106 41
f 106 107 42
f 108 109 44
f 107 108 43
f 55 78 46
f 46 77 47
f 48 61 54
f 48 60 61
f 48 49 56
f 49 59 57
f 49 50 59
f 50 51 58
f 50 58 59
f 48 56 60
f 49 57 56
f 53 54 85
f 54 61 62
f 54 62 63
f 54 63 79
f 53 84 55
f 54 79 85
f 51 52 65
f 51 65 58
f 52 64 67
f 52 66 65
f 52 67 66
f 64 70 67
f 64 71 70
f 64 68 72
f 64 72 71
f 72 68 73
f 73 68 95
f 68 69 104
f 69 74 103
f 74 75 98
f 47 77 76
f 46 78 77
f 55 84 78
f 53 85 84
f 79 80 85
f 80 81 85
f 81 82 86
f 82 83 86
f 81 86 85
f 83 87 86
f 87 105 86
f 87 88 105
f 88 89 105
f 89 106 105
f 89 90 106
f 90 101 107
f 90 107 106
f 95 102 91
f 91 102 92
f 95 68 102
f 75 96 97
f 74 98 103
f 75 97 98
f 68 104 102
f 69 103 104
f 92 102 94
f 93 94 109
f 93 109 99
f 101 100 108
f 100 99 108
f 101 108 107
f 99 109 108
f 94 102 109
f 276 277 534
f 275 532 279
f 275 276 533
f 278 535 277
f 278 285 541
f 279 536 280
f 280 537 281
f 281 538 282
f 282 539 283
f 285 286 542
f 286 287 543
f 287 290 544
f 290 291 545
f 291 292 546
f 292 293 547
f 293 295 548
f 283 540 300
f 300 553 301
f 301 554 302
f 302 555 303
f 303 556 307
f 307 557 308
f 308 558 309
f 309 559 310
f 310 560 317
f 295 311 561
f 311 312 562
f 312 313 563
f 313 314 564
f 318 566 314
f 317 565 319
f 319 567 318
f 276 534 533
f 275 533 532
f 277 535 534
f 278 541 535
f 280 536 537
f 281 537 538
f 282 538 539
f 283 539 540
f 279 532 536
f 285 542 541
f 286 543 542
f 287 544 543
f 290 545 544
f 291 546 545
f 292 547 546
f 293 548 547
f 300 540 553
f 301 553 554
f 302 554 555
f 303 555 556
f 307 556 557
f 308 557 558
f 309 558 559
f 310 559 560
f 317 560 565
f 295 561 548
f 311 562 561
f 312 563 562
f 313 564 563
f 314 566 564
f 319 565 567
f 318 567 566
f 274 224 234
f 264 225 224
f 265 226 225
f 267 233 227
f 268 227 228
f 269 228 229
f 270 229 230
f 271 230 231
f 272 234 232
f 273 232 233
f 284 231 235
f 288 235 236
f 289 236 237
f 294 237 238
f 296 238 239
f 297 239 240
f 266 242 226
f 298 243 242
f 299 247 243
f 304 248 247
f 305 249 248
f 306 255 249
f 315 240 250
f 316 250 251
f 327 252 261
f 322 253 254
f 321 251 253
f 320 254 252
f 323 256 255
f 324 257 256
f 325 260 257
f 326 261 260
f 274 264 224
f 264 265 225
f 265 266 226
f 267 227 268
f 268 228 269
f 269 229 270
f 270 230 271
f 271 231 284
f 272 232 273
f 267 273 233
f 272 274 234
f 284 235 288
f 288 236 289
f 289 237 294
f 294 238 296
f 296 239 297
f 266 298 242
f 298 299 243
f 299 304 247
f 304 305 248
f 305 306 249
f 306 323 255
f 297 240 315
f 315 250 316
f 321 316 251
f 327 320 252
f 321 253 322
f 320 322 254
f 323 324 256
f 324 325 257
f 325 326 260
f 326 327 261
f 274 299 264
f 264 298 265
f 265 298 266
f 267 280 273
f 267 279 280
f 273 280 281
f 267 268 275
f 268 276 275
f 268 277 276
f 268 269 277
f 269 270 278
f 269 278 277
f 267 275 279
f 272 304 274
f 272 273 305
f 273 281 282
f 273 282 283
f 273 283 305
f 270 271 285
f 270 285 278
f 271 286 285
f 271 284 287
f 271 287 286
f 284 290 287
f 284 291 290
f 284 292 291
f 284 288 292
f 288 293 292
f 288 295 293
f 288 289 322
f 289 294 321
f 294 296 316
f 296 297 315
f 264 299 298
f 274 304 299
f 272 305 304
f 283 300 305
f 300 301 305
f 301 302 306
f 302 303 306
f 301 306 305
f 303 307 306
f 307 323 306
f 307 308 323
f 308 309 323
f 323 309 324
f 324 309 310
f 310 317 325
f 324 310 325
f 295 320 311
f 311 320 312
f 312 320 313
f 288 320 295
f 289 321 322
f 294 316 321
f 296 315 316
f 288 322 320
f 319 318 326
f 313 327 314
f 318 314 327
f 317 319 326
f 317 326 325
f 318 327 326
f 313 320 327
f 164 163 486
f 163 165 488
f 168 164 487
f 168 489 169
f 169 490 170
f 170 491 171
f 171 492 187
f 165 172 493
f 172 173 494
f 173 174 495
f 174 175 496
f 175 179 497
f 179 180 498
f 180 181 499
f 181 182 500
f 182 199 513
f 187 505 189
f 189 506 190
f 190 507 191
f 191 508 192
f 192 509 195
f 195 510 196
f 196 511 197
f 199 200 514
f 200 201 515
f 201 202 516
f 202 203 517
f 197 512 204
f 205 204 518
f 206 520 207
f 203 207 521
f 205 519 206
f 164 486 487
f 163 488 486
f 168 487 489
f 169 489 490
f 170 490 491
f 171 491 492
f 187 492 505
f 165 493 488
f 172 494 493
f 173 495 494
f 174 496 495
f 175 497 496
f 179 498 497
f 180 499 498
f 181 500 499
f 182 513 500
f 189 505 506
f 190 506 507
f 191 507 508
f 192 508 509
f 195 509 510
f 196 510 511
f 197 511 512
f 203 521 517
f 199 514 513
f 200 515 514
f 201 516 515
f 202 517 516
f 204 512 518
f 205 518 519
f 207 520 521
f 206 519 520
f 156 112 113
f 157 113 116
f 158 116 117
f 159 117 118
f 162 119 121
f 161 122 120
f 160 120 119
f 155 121 112
f 166 123 122
f 167 133 123
f 176 118 124
f 177 124 125
f 178 125 126
f 183 126 130
f 184 130 131
f 216 131 147
f 185 134 133
f 186 135 134
f 188 136 135
f 193 137 136
f 194 138 137
f 198 142 138
f 209 141 140
f 210 139 141
f 211 143 142
f 212 144 143
f 213 145 144
f 214 146 145
f 215 140 146
f 217 147 148
f 218 148 149
f 208 149 139
f 155 112 156
f 156 113 157
f 157 116 158
f 158 117 159
f 160 119 162
f 160 161 120
f 162 121 155
f 166 122 161
f 166 167 123
f 167 185 133
f 159 118 176
f 176 124 177
f 177 125 178
f 178 126 183
f 183 130 184
f 184 131 216
f 185 186 134
f 186 188 135
f 188 193 136
f 193 194 137
f 194 198 138
f 208 139 210
f 209 140 215
f 209 210 141
f 198 211 142
f 211 212 143
f 212 213 144
f 213 214 145
f 214 215 146
f 216 147 217
f 217 148 218
f 218 149 208
f 162 155 169
f 155 156 164
f 156 157 165
f 156 165 163
f 155 164 168
f 155 168 169
f 156 163 164
f 160 162 194
f 166 186 167
f 166 161 188
f 160 193 161
f 162 187 194
f 162 169 170
f 162 170 171
f 162 171 187
f 157 158 172
f 157 172 165
f 172 158 173
f 173 158 159
f 173 159 174
f 159 175 174
f 159 176 175
f 176 179 175
f 176 177 181
f 176 180 179
f 176 181 180
f 177 182 181
f 177 199 182
f 177 178 210
f 178 183 208
f 183 184 218
f 167 186 185
f 166 188 186
f 161 193 188
f 160 194 193
f 187 189 194
f 189 190 194
f 190 198 194
f 190 191 198
f 191 192 198
f 192 195 198
f 195 196 211
f 195 211 198
f 196 197 211
f 197 204 212
f 197 212 211
f 177 209 199
f 199 209 200
f 200 209 201
f 177 210 209
f 178 208 210
f 203 215 207
f 205 213 204
f 204 213 212
f 205 214 213
f 205 206 214
f 206 207 214
f 207 215 214
f 201 209 202
f 202 215 203
f 202 209 215
f 184 216 217
f 184 217 218
f 183 218 208
f 383 575 389
f 382 381 573
f 383 382 574
f 388 389 578
f 388 577 390
f 390 579 391
f 391 580 387
f 381 392 581
f 392 393 582
f 393 394 583
f 394 395 584
f 395 399 585
f 399 400 586
f 400 401 587
f 401 402 588
f 402 403 589
f 387 576 409
f 409 594 410
f 410 595 411
f 411 596 412
f 412 597 415
f 415 598 416
f 416 599 417
f 426 608 422
f 403 419 601
f 419 420 602
f 420 421 603
f 421 422 604
f 417 600 424
f 424 606 423
f 426 425 607
f 423 605 425
f 382 573 574
f 383 574 575
f 388 578 577
f 389 575 578
f 390 577 579
f 391 579 580
f 387 580 576
f 381 581 573
f 392 582 581
f 393 583 582
f 394 584 583
f 395 585 584
f 399 586 585
f 400 587 586
f 401 588 587
f 402 589 588
f 409 576 594
f 410 594 595
f 411 595 596
f 412 596 597
f 415 597 598
f 416 598 599
f 417 599 600
f 422 608 604
f 403 601 589
f 419 602 601
f 421 604 603
f 420 603 602
f 424 600 606
f 423 606 605
f 425 605 607
f 426 607 608
f 373 336 329
f 374 329 330
f 375 330 331
f 376 331 332
f 377 332 333
f 380 334 336
f 378 335 334
f 379 337 335
f 384 338 337
f 385 339 338
f 396 333 340
f 397 340 341
f 398 341 342
f 404 342 345
f 405 345 346
f 406 346 347
f 386 350 339
f 407 351 350
f 408 352 351
f 413 353 352
f 414 354 353
f 418 358 354
f 429 355 357
f 434 356 364
f 428 357 356
f 430 359 358
f 431 362 359
f 432 363 362
f 433 364 363
f 435 347 367
f 436 367 368
f 427 368 355
f 374 330 375
f 373 329 374
f 375 331 376
f 376 332 377
f 377 333 396
f 378 334 380
f 379 384 337
f 378 379 335
f 373 380 336
f 384 385 338
f 385 386 339
f 396 340 397
f 397 341 398
f 398 342 404
f 404 345 405
f 405 346 406
f 386 407 350
f 407 408 351
f 408 413 352
f 413 414 353
f 414 418 354
f 418 430 358
f 427 355 429
f 428 356 434
f 428 429 357
f 430 431 359
f 431 432 362
f 432 433 363
f 433 434 364
f 406 347 435
f 435 367 436
f 436 368 427
f 373 388 380
f 373 374 383
f 374 375 381
f 374 382 383
f 374 381 382
f 373 383 389
f 373 389 388
f 380 388 390
f 378 413 379
f 378 380 414
f 384 407 385
f 379 408 384
f 385 407 386
f 380 387 414
f 380 390 391
f 380 391 387
f 375 376 392
f 375 392 381
f 376 393 392
f 376 377 393
f 377 394 393
f 377 395 394
f 377 396 395
f 396 399 395
f 396 397 401
f 396 400 399
f 396 401 400
f 397 402 401
f 397 403 402
f 397 398 429
f 398 404 427
f 404 405 436
f 405 406 435
f 384 408 407
f 379 413 408
f 378 414 413
f 414 387 409
f 414 409 410
f 410 411 418
f 414 410 418
f 411 412 418
f 412 415 418
f 415 416 430
f 416 417 430
f 415 430 418
f 417 424 431
f 417 431 430
f 397 428 403
f 398 427 429
f 403 428 419
f 419 428 420
f 420 428 421
f 397 429 428
f 426 433 425
f 426 422 434
f 424 423 432
f 424 432 431
f 423 433 432
f 423 425 433
f 426 434 433
f 421 434 422
f 421 428 434
f 405 435 436
f 404 436 427

