# https://github.com/mikedh/trimesh
v 0.02548038 0.01148038 0.05948038
v 0.02522058 0.01155000 0.06000000
v 0.02555000 0.01122058 0.06000000
v 0.02522058 0.01200000 0.05955000
v 0.02555000 0.01200000 0.05922058
v 0.02548038 0.01251962 0.05948038
v 0.02510000 0.01200000 0.06000000
v 0.02522058 0.01245000 0.06000000
v 0.02600000 0.01122058 0.05955000
v 0.02600000 0.01155000 0.05922058
v 0.02600000 0.01110000 0.06000000
v 0.02645000 0.01122058 0.06000000
v 0.02600000 0.01200000 0.05910000
v 0.02600000 0.01245000 0.05922058
v 0.02645000 0.01200000 0.05922058
v 0.02548038 0.01148038 0.06051962
v 0.02522058 0.01200000 0.06045000
v 0.02555000 0.01200000 0.06077942
v 0.02600000 0.01122058 0.06045000
v 0.02600000 0.01155000 0.06077942
v 0.02651962 0.01148038 0.05948038
v 0.02677942 0.01155000 0.06000000
v 0.02677942 0.01200000 0.05955000
v 0.02651962 0.01148038 0.06051962
v 0.02948038 0.01851962 0.06348038
v 0.03041524 0.01708217 0.06382682
v 0.03000000 0.01845000 0.06322058
v 0.03045000 0.01800000 0.06322058
v 0.03000000 0.01877942 0.06355000
v 0.02954067 0.01746029 0.06455981
v 0.02922058 0.01800000 0.06445000
v 0.02922058 0.01845000 0.06400000
v 0.02955000 0.01877942 0.06400000
v 0.02948038 0.01851962 0.06451962
v 0.02955000 0.01800000 0.06477942
v 0.03002912 0.01706087 0.06431942
v 0.03023522 0.01702159 0.06415681
v 0.03021384 0.01702173 0.06421384
v 0.02983529 0.01730293 0.06461471
v 0.03000000 0.01890000 0.06400000
v 0.03000000 0.01877942 0.06445000
v 0.03045000 0.01877942 0.06400000
v 0.03000000 0.01845000 0.06477942
v 0.03455000 0.00400000 0.06052058
v 0.03448038 0.00348038 0.06078038
v 0.03422058 0.00400000 0.06085000
v 0.03448038 0.00451962 0.06078038
v 0.03500000 0.00355000 0.06052058
v 0.03500000 0.00400000 0.06040000
v 0.03500000 0.00322058 0.06085000
v 0.03500000 0.00445000 0.06052058
v 0.03545000 0.00400000 0.06052058
v 0.03551962 0.00348038 0.06078038
v 0.03577942 0.00400000 0.06085000
v 0.03551962 0.00451962 0.06078038
v 0.03410000 0.00400000 0.06130000
v 0.03422058 0.00355000 0.06130000
v 0.03455000 0.00322058 0.06130000
v 0.03448038 0.00348038 0.06181962
v 0.03422058 0.00400000 0.06175000
v 0.03500000 0.00310000 0.06130000
v 0.03500000 0.00322058 0.06175000
v 0.03545000 0.00322058 0.06130000
v 0.03577942 0.00355000 0.06130000
v 0.03590000 0.00400000 0.06130000
v 0.03551962 0.00348038 0.06181962
v 0.03577942 0.00400000 0.06175000
v 0.03577942 0.00445000 0.06130000
v 0.03500000 0.00355000 0.06207942
v 0.03310000 0.01000000 0.06500000
v 0.03322058 0.01000000 0.06455000
v 0.03353674 0.01009283 0.06423384
v 0.03354699 0.01011995 0.06423393
v 0.03396151 0.01026940 0.06413849
v 0.03401356 0.01036864 0.06417041
v 0.03441325 0.01025727 0.06425733
v 0.03453359 0.01043575 0.06442867
v 0.03477942 0.01000000 0.06455000
v 0.03482261 0.01019088 0.06484021
v 0.03322058 0.00955000 0.06500000
v 0.03348038 0.00948038 0.06551962
v 0.03322058 0.01000000 0.06545000
v 0.03355000 0.01000000 0.06577942
v 0.03400000 0.00955000 0.06577942
v 0.03400000 0.01000000 0.06590000
v 0.03451962 0.00948038 0.06551962
v 0.03445000 0.01000000 0.06577942
v 0.03490000 0.01000000 0.06500000
v 0.03477942 0.01000000 0.06545000
v 0.03063941 0.01778999 0.06340999
v 0.03053960 0.01737013 0.06358031
v 0.03053960 0.01719027 0.06376018
v 0.03054744 0.01747111 0.06349894
v 0.03051962 0.01851962 0.06348038
v 0.03218443 0.01640902 0.06591557
v 0.03231320 0.01635164 0.06545738
v 0.03229542 0.01633486 0.06553028
v 0.03222783 0.01632797 0.06578522
v 0.03253235 0.01637646 0.06523823
v 0.03262200 0.01649600 0.06514858
v 0.03282708 0.01660764 0.06510530
v 0.03292759 0.01667773 0.06508570
v 0.03302536 0.01682249 0.06507464
v 0.03228586 0.01654305 0.06638472
v 0.03230512 0.01653881 0.06640277
v 0.03248038 0.01751962 0.06651962
v 0.03300000 0.01790000 0.06600000
v 0.03255000 0.01700000 0.06677942
v 0.03300000 0.01700000 0.06690000
v 0.03300000 0.01777942 0.06645000
v 0.03300000 0.01745000 0.06677942
v 0.03345000 0.01700000 0.06522058
v 0.03351962 0.01751962 0.06548038
v 0.03377942 0.01700000 0.06555000
v 0.03345000 0.01777942 0.06600000
v 0.03377942 0.01745000 0.06600000
v 0.03345000 0.01700000 0.06677942
v 0.03351962 0.01751962 0.06651962
v 0.03377942 0.01700000 0.06645000
v 0.03390000 0.01700000 0.06600000
f 1 4 5
f 1 5 10
f 1 3 2
f 1 2 4
f 4 2 7
f 1 9 3
f 4 6 5
f 5 6 14
f 4 8 6
f 4 7 8
f 1 10 9
f 10 5 13
f 9 10 21
f 10 13 15
f 10 15 21
f 3 9 11
f 9 21 12
f 9 12 11
f 5 14 13
f 13 14 15
f 3 16 2
f 2 17 7
f 16 17 2
f 3 19 16
f 16 18 17
f 16 20 18
f 7 17 8
f 3 11 19
f 11 12 19
f 19 12 24
f 16 19 20
f 19 24 20
f 21 15 23
f 21 22 12
f 21 23 22
f 12 22 24
f 14 28 15
f 6 27 14
f 6 8 32
f 8 17 31
f 17 18 31
f 20 24 39
f 20 35 18
f 15 28 23
f 22 92 24
f 22 23 92
f 14 27 28
f 6 32 25
f 6 25 27
f 8 31 32
f 24 26 37
f 24 37 38
f 23 93 91
f 23 28 90
f 23 90 93
f 23 91 92
f 24 92 26
f 20 39 30
f 20 30 35
f 18 35 31
f 24 36 39
f 24 38 36
f 32 34 33
f 41 34 43
f 32 33 25
f 29 25 33
f 27 25 29
f 28 27 94
f 27 29 94
f 29 33 40
f 29 40 42
f 94 29 42
f 31 34 32
f 34 41 33
f 31 35 34
f 40 33 41
f 35 30 105
f 37 26 99
f 39 36 98
f 38 37 97
f 38 97 36
f 90 28 103
f 94 112 28
f 42 40 107
f 92 91 101
f 91 93 102
f 90 102 93
f 92 101 26
f 42 115 94
f 100 26 101
f 91 102 101
f 100 99 26
f 90 103 102
f 103 28 112
f 112 94 113
f 95 30 98
f 96 97 37
f 96 37 99
f 36 97 98
f 104 30 95
f 104 105 30
f 39 98 30
f 34 35 106
f 34 106 43
f 43 111 41
f 41 110 40
f 35 105 108
f 106 35 108
f 111 43 106
f 115 113 94
f 115 42 107
f 107 40 110
f 110 41 111
f 111 106 108
f 108 109 111
f 109 117 111
f 114 112 113
f 114 116 120
f 119 120 116
f 117 119 118
f 80 82 70
f 86 89 87
f 100 72 71
f 100 101 73
f 70 98 71
f 82 95 70
f 83 108 82
f 95 98 70
f 96 99 71
f 96 71 97
f 100 71 99
f 71 98 97
f 104 95 82
f 104 82 105
f 82 108 105
f 108 83 109
f 110 115 107
f 110 111 118
f 103 75 74
f 100 73 72
f 74 73 101
f 112 76 75
f 78 77 114
f 114 77 76
f 74 101 102
f 74 102 103
f 103 112 75
f 78 114 79
f 88 79 114
f 88 119 89
f 85 109 83
f 85 87 109
f 89 117 87
f 76 112 114
f 88 114 120
f 119 88 120
f 109 87 117
f 117 89 119
f 113 116 114
f 115 116 113
f 110 118 115
f 118 119 116
f 116 115 118
f 111 117 118
f 45 46 44
f 45 57 46
f 44 46 47
f 44 49 48
f 48 49 52
f 45 48 50
f 45 50 58
f 45 44 48
f 48 53 50
f 44 51 49
f 49 51 52
f 44 47 51
f 50 53 63
f 48 52 53
f 52 54 53
f 53 54 64
f 51 55 52
f 52 55 54
f 56 46 57
f 45 58 57
f 57 58 59
f 57 59 60
f 47 73 51
f 56 70 46
f 56 57 70
f 57 60 80
f 46 71 47
f 50 61 58
f 58 61 62
f 50 63 61
f 61 63 62
f 58 62 59
f 59 62 69
f 62 66 69
f 53 64 63
f 63 64 66
f 54 65 64
f 64 65 67
f 62 63 66
f 64 67 66
f 54 68 65
f 51 76 55
f 65 89 67
f 54 55 78
f 54 78 68
f 65 68 79
f 51 73 74
f 51 74 75
f 51 75 76
f 60 59 81
f 59 69 84
f 66 84 69
f 66 67 89
f 46 70 71
f 57 80 70
f 47 72 73
f 47 71 72
f 60 82 80
f 60 81 82
f 59 84 81
f 65 88 89
f 55 76 77
f 55 77 78
f 68 78 79
f 65 79 88
f 66 86 84
f 66 89 86
f 81 83 82
f 83 81 84
f 84 85 83
f 85 84 87
f 86 87 84

