# https://github.com/mikedh/trimesh
v 0.00684530 -0.00200000 0.04160000
v 0.00684530 -0.00200000 0.04320000
v 0.00779516 -0.00102982 0.04160000
v 0.00779516 -0.00102982 0.04320000
v 0.00712696 -0.00058335 0.04160000
v 0.00741665 -0.00087304 0.04160000
v 0.00718516 -0.00054446 0.04080000
v 0.00730704 -0.00069296 0.04080000
v 0.00725754 -0.00074246 0.04160000
v 0.00712696 -0.00058335 0.04320000
v 0.00741665 -0.00087304 0.04320000
v 0.00725754 -0.00074246 0.04320000
v 0.00709460 -0.00037503 0.04080000
v 0.00702993 -0.00040182 0.04160000
v 0.00703883 -0.00019119 0.04080000
v 0.00697018 -0.00020484 0.04160000
v 0.00702993 -0.00040182 0.04320000
v 0.00697018 -0.00020484 0.04320000
v 0.00745554 -0.00081484 0.04080000
v 0.00762497 -0.00090540 0.04080000
v 0.00759818 -0.00097007 0.04160000
v 0.00780881 -0.00096117 0.04080000
v 0.00759818 -0.00097007 0.04320000
v 0.00642021 -0.00105558 0.05080000
v 0.00665650 -0.00134350 0.05080000
v 0.00642021 -0.00105558 0.05240000
v 0.00665650 -0.00134350 0.05240000
v 0.00624463 -0.00072710 0.05080000
v 0.00624463 -0.00072710 0.05240000
v 0.00613651 -0.00037067 0.05080000
v 0.00613651 -0.00037067 0.05240000
v 0.00694442 -0.00157979 0.05080000
v 0.00727290 -0.00175537 0.05080000
v 0.00694442 -0.00157979 0.05240000
v 0.00727290 -0.00175537 0.05240000
v 0.00762933 -0.00186349 0.05080000
v 0.00762933 -0.00186349 0.05240000
v 0.00718516 -0.00054446 0.05080000
v 0.00730704 -0.00069296 0.05080000
v 0.00709460 -0.00037503 0.05080000
v 0.00703883 -0.00019119 0.05080000
v 0.00745554 -0.00081484 0.05080000
v 0.00762497 -0.00090540 0.05080000
v 0.00780881 -0.00096117 0.05080000
v 0.00569060 0.00000000 0.04160000
v 0.00569060 0.00000000 0.04320000
v 0.00702000 0.00000000 0.04080000
v 0.00703883 0.00019119 0.04080000
v 0.00695000 0.00000000 0.04160000
v 0.00697018 0.00020484 0.04160000
v 0.00709460 0.00037503 0.04080000
v 0.00702993 0.00040182 0.04160000
v 0.00695000 0.00000000 0.04320000
v 0.00697018 0.00020484 0.04320000
v 0.00702993 0.00040182 0.04320000
v 0.00712696 0.00058335 0.04160000
v 0.00718516 0.00054446 0.04080000
v 0.00730704 0.00069296 0.04080000
v 0.00725754 0.00074246 0.04160000
v 0.00741665 0.00087304 0.04160000
v 0.00712696 0.00058335 0.04320000
v 0.00725754 0.00074246 0.04320000
v 0.00741665 0.00087304 0.04320000
v 0.00745554 0.00081484 0.04080000
v 0.00762497 0.00090540 0.04080000
v 0.00759818 0.00097007 0.04160000
v 0.00780881 0.00096117 0.04080000
v 0.00759818 0.00097007 0.04320000
v 0.00684530 0.00200000 0.04160000
v 0.00684530 0.00200000 0.04320000
v 0.00779516 0.00102982 0.04160000
v 0.00779516 0.00102982 0.04320000
v 0.00610000 0.00000000 0.05080000
v 0.00613651 0.00037067 0.05080000
v 0.00610000 0.00000000 0.05240000
v 0.00613651 0.00037067 0.05240000
v 0.00624463 0.00072710 0.05080000
v 0.00624463 0.00072710 0.05240000
v 0.00642021 0.00105558 0.05080000
v 0.00665650 0.00134350 0.05080000
v 0.00642021 0.00105558 0.05240000
v 0.00665650 0.00134350 0.05240000
v 0.00702000 0.00000000 0.05080000
v 0.00703883 0.00019119 0.05080000
v 0.00709460 0.00037503 0.05080000
v 0.00718516 0.00054446 0.05080000
v 0.00730704 0.00069296 0.05080000
v 0.00745554 0.00081484 0.05080000
v 0.00762497 0.00090540 0.05080000
v 0.00780881 0.00096117 0.05080000
v 0.00694442 0.00157979 0.05080000
v 0.00727290 0.00175537 0.05080000
v 0.00694442 0.00157979 0.05240000
v 0.00727290 0.00175537 0.05240000
v 0.00762933 0.00186349 0.05080000
v 0.00762933 0.00186349 0.05240000
v 0.00800000 -0.00105000 0.04160000
v 0.00820484 -0.00102982 0.04160000
v 0.00800000 -0.00105000 0.04320000
v 0.00820484 -0.00102982 0.04320000
v 0.00800000 -0.00098000 0.04080000
v 0.00819119 -0.00096117 0.04080000
v 0.00837503 -0.00090540 0.04080000
v 0.00854446 -0.00081484 0.04080000
v 0.00840182 -0.00097007 0.04160000
v 0.00840182 -0.00097007 0.04320000
v 0.00858335 -0.00087304 0.04160000
v 0.00869296 -0.00069296 0.04080000
v 0.00881484 -0.00054446 0.04080000
v 0.00874246 -0.00074246 0.04160000
v 0.00887304 -0.00058335 0.04160000
v 0.00858335 -0.00087304 0.04320000
v 0.00874246 -0.00074246 0.04320000
v 0.00887304 -0.00058335 0.04320000
v 0.00890540 -0.00037503 0.04080000
v 0.00897007 -0.00040182 0.04160000
v 0.00896117 -0.00019119 0.04080000
v 0.00902982 -0.00020484 0.04160000
v 0.00897007 -0.00040182 0.04320000
v 0.00902982 -0.00020484 0.04320000
v 0.00915470 -0.00200000 0.04160000
v 0.00915470 -0.00200000 0.04320000
v 0.00800000 -0.00190000 0.05080000
v 0.00837067 -0.00186349 0.05080000
v 0.00800000 -0.00190000 0.05240000
v 0.00837067 -0.00186349 0.05240000
v 0.00872710 -0.00175537 0.05080000
v 0.00905558 -0.00157979 0.05080000
v 0.00872710 -0.00175537 0.05240000
v 0.00905558 -0.00157979 0.05240000
v 0.00800000 -0.00098000 0.05080000
v 0.00819119 -0.00096117 0.05080000
v 0.00837503 -0.00090540 0.05080000
v 0.00854446 -0.00081484 0.05080000
v 0.00869296 -0.00069296 0.05080000
v 0.00881484 -0.00054446 0.05080000
v 0.00890540 -0.00037503 0.05080000
v 0.00896117 -0.00019119 0.05080000
v 0.00934350 -0.00134350 0.05080000
v 0.00957979 -0.00105558 0.05080000
v 0.00934350 -0.00134350 0.05240000
v 0.00957979 -0.00105558 0.05240000
v 0.00975537 -0.00072710 0.05080000
v 0.00975537 -0.00072710 0.05240000
v 0.00986349 -0.00037067 0.05080000
v 0.00986349 -0.00037067 0.05240000
v 0.00800000 0.00098000 0.04080000
v 0.00819119 0.00096117 0.04080000
v 0.00837503 0.00090540 0.04080000
v 0.00854446 0.00081484 0.04080000
v 0.00840182 0.00097007 0.04160000
v 0.00840182 0.00097007 0.04320000
v 0.00898000 0.00000000 0.04080000
v 0.00896117 0.00019119 0.04080000
v 0.00905000 0.00000000 0.04160000
v 0.00902982 0.00020484 0.04160000
v 0.00890540 0.00037503 0.04080000
v 0.00897007 0.00040182 0.04160000
v 0.00905000 0.00000000 0.04320000
v 0.00902982 0.00020484 0.04320000
v 0.00897007 0.00040182 0.04320000
v 0.00869296 0.00069296 0.04080000
v 0.00881484 0.00054446 0.04080000
v 0.00874246 0.00074246 0.04160000
v 0.00858335 0.00087304 0.04160000
v 0.00887304 0.00058335 0.04160000
v 0.00874246 0.00074246 0.04320000
v 0.00858335 0.00087304 0.04320000
v 0.00887304 0.00058335 0.04320000
v 0.00800000 0.00105000 0.04160000
v 0.00820484 0.00102982 0.04160000
v 0.00800000 0.00105000 0.04320000
v 0.00820484 0.00102982 0.04320000
v 0.01030940 0.00000000 0.04160000
v 0.01030940 0.00000000 0.04320000
v 0.00915470 0.00200000 0.04160000
v 0.00915470 0.00200000 0.04320000
v 0.00800000 0.00098000 0.05080000
v 0.00819119 0.00096117 0.05080000
v 0.00837503 0.00090540 0.05080000
v 0.00854446 0.00081484 0.05080000
v 0.00898000 0.00000000 0.05080000
v 0.00896117 0.00019119 0.05080000
v 0.00890540 0.00037503 0.05080000
v 0.00869296 0.00069296 0.05080000
v 0.00881484 0.00054446 0.05080000
v 0.00800000 0.00190000 0.05080000
v 0.00837067 0.00186349 0.05080000
v 0.00800000 0.00190000 0.05240000
v 0.00837067 0.00186349 0.05240000
v 0.00872710 0.00175537 0.05080000
v 0.00905558 0.00157979 0.05080000
v 0.00872710 0.00175537 0.05240000
v 0.00905558 0.00157979 0.05240000
v 0.00990000 0.00000000 0.05080000
v 0.00986349 0.00037067 0.05080000
v 0.00990000 0.00000000 0.05240000
v 0.00986349 0.00037067 0.05240000
v 0.00975537 0.00072710 0.05080000
v 0.00975537 0.00072710 0.05240000
v 0.00934350 0.00134350 0.05080000
v 0.00957979 0.00105558 0.05080000
v 0.00934350 0.00134350 0.05240000
v 0.00957979 0.00105558 0.05240000
f 15 51 13
f 7 13 57
f 7 58 8
f 19 8 64
f 19 65 20
f 22 20 67
f 22 147 101
f 7 8 38
f 19 39 8
f 7 40 13
f 15 13 41
f 15 83 47
f 19 20 42
f 22 43 20
f 22 101 44
f 19 42 39
f 8 39 38
f 13 40 41
f 15 41 83
f 7 38 40
f 20 43 42
f 22 44 43
f 44 101 131
f 15 47 48
f 15 48 51
f 13 51 57
f 7 57 58
f 8 58 64
f 19 64 65
f 20 65 67
f 22 67 147
f 47 84 48
f 48 85 51
f 51 86 57
f 57 87 58
f 58 88 64
f 64 89 65
f 65 90 67
f 67 178 147
f 47 83 84
f 48 84 85
f 51 85 86
f 57 86 87
f 58 87 88
f 64 88 89
f 65 89 90
f 67 90 178
f 101 148 102
f 102 149 103
f 103 150 104
f 104 162 108
f 108 163 109
f 109 157 115
f 115 154 117
f 101 102 131
f 102 103 132
f 103 104 133
f 104 108 134
f 108 109 135
f 109 115 136
f 115 117 137
f 117 153 138
f 102 132 131
f 103 133 132
f 104 134 133
f 108 135 134
f 109 136 135
f 115 137 136
f 117 138 137
f 138 153 182
f 101 147 148
f 102 148 149
f 103 149 150
f 104 150 162
f 108 162 163
f 109 163 157
f 115 157 154
f 117 154 153
f 147 179 148
f 149 148 180
f 149 181 150
f 153 154 182
f 157 183 154
f 157 163 184
f 162 150 185
f 162 186 163
f 147 178 179
f 148 179 180
f 149 180 181
f 163 186 184
f 154 183 182
f 157 184 183
f 162 185 186
f 150 181 185
f 24 25 26
f 32 27 25
f 26 25 27
f 28 29 31
f 28 30 77
f 28 31 30
f 30 75 73
f 30 31 75
f 29 78 31
f 24 29 28
f 24 26 29
f 24 28 79
f 24 80 25
f 26 81 29
f 26 27 82
f 32 33 34
f 32 34 27
f 33 36 35
f 34 33 35
f 32 38 33
f 33 39 42
f 33 43 36
f 36 131 123
f 35 36 37
f 36 123 37
f 37 123 125
f 33 42 43
f 36 43 44
f 36 44 131
f 32 40 38
f 32 41 40
f 32 83 41
f 33 38 39
f 34 35 94
f 32 25 91
f 34 93 27
f 35 37 96
f 37 125 189
f 30 73 74
f 30 74 77
f 73 76 74
f 73 75 76
f 31 76 75
f 31 78 76
f 74 76 78
f 74 78 77
f 28 77 79
f 24 79 80
f 29 81 78
f 26 82 81
f 25 80 91
f 77 81 79
f 77 78 81
f 27 93 82
f 79 81 82
f 79 82 80
f 80 82 93
f 32 91 83
f 83 91 84
f 84 91 85
f 91 86 85
f 86 92 87
f 34 94 93
f 35 96 94
f 37 189 96
f 87 92 88
f 91 92 86
f 80 93 91
f 91 93 94
f 91 94 92
f 92 94 96
f 88 92 89
f 89 95 90
f 90 95 178
f 89 92 95
f 95 187 178
f 92 96 95
f 95 189 187
f 95 96 189
f 123 131 124
f 124 133 127
f 123 124 125
f 124 126 125
f 124 127 126
f 124 131 132
f 124 132 133
f 127 133 134
f 126 127 129
f 127 128 129
f 128 139 130
f 129 128 130
f 127 136 128
f 127 134 135
f 125 126 190
f 127 135 136
f 136 137 128
f 137 138 128
f 128 138 182
f 126 129 193
f 129 130 194
f 130 139 141
f 139 140 141
f 141 140 142
f 128 201 139
f 130 141 203
f 140 143 142
f 142 143 144
f 139 202 140
f 140 199 143
f 141 142 204
f 142 144 200
f 143 145 144
f 143 196 145
f 144 145 146
f 145 195 146
f 144 146 198
f 146 195 197
f 125 190 189
f 126 193 190
f 128 182 192
f 128 192 201
f 130 203 194
f 185 191 186
f 182 183 192
f 184 192 183
f 184 186 192
f 129 194 193
f 178 187 179
f 180 179 188
f 180 191 181
f 179 187 188
f 180 188 191
f 187 190 188
f 187 189 190
f 188 190 193
f 185 181 191
f 186 191 192
f 191 193 194
f 188 193 191
f 191 194 192
f 203 192 194
f 139 201 202
f 140 202 199
f 141 204 203
f 142 200 204
f 199 202 200
f 200 202 204
f 143 199 196
f 145 196 195
f 195 196 197
f 144 198 200
f 146 197 198
f 196 198 197
f 196 199 198
f 198 199 200
f 201 203 204
f 201 192 203
f 201 204 202
f 1 2 46
f 1 46 45
f 1 5 9
f 1 6 21
f 1 21 3
f 1 9 6
f 2 12 10
f 2 23 11
f 2 4 23
f 2 11 12
f 1 121 2
f 1 3 121
f 2 122 4
f 1 16 14
f 1 14 5
f 1 49 16
f 2 17 18
f 2 10 17
f 2 18 53
f 45 46 70
f 1 45 69
f 2 70 46
f 45 70 69
f 1 69 49
f 2 53 70
f 49 69 50
f 50 69 52
f 52 69 56
f 53 54 70
f 54 55 70
f 55 61 70
f 56 69 59
f 59 69 60
f 60 69 66
f 66 69 71
f 61 62 70
f 62 63 70
f 63 68 70
f 68 72 70
f 69 170 71
f 69 171 170
f 70 72 172
f 70 172 173
f 69 70 177
f 2 121 122
f 3 97 121
f 97 98 121
f 4 122 99
f 99 122 100
f 98 105 121
f 105 107 121
f 107 110 121
f 110 111 121
f 100 122 106
f 106 122 112
f 112 122 113
f 113 122 114
f 111 116 121
f 116 118 121
f 118 155 121
f 114 122 119
f 119 122 120
f 120 122 159
f 121 174 122
f 122 174 175
f 121 155 176
f 122 177 159
f 155 156 176
f 158 166 176
f 156 158 176
f 159 177 160
f 161 177 169
f 160 177 161
f 69 176 171
f 69 177 176
f 70 173 177
f 164 165 176
f 151 171 176
f 151 176 165
f 164 176 166
f 167 177 168
f 152 177 173
f 152 168 177
f 167 169 177
f 121 176 174
f 122 175 177
f 174 176 175
f 176 177 175
f 3 4 97
f 3 23 4
f 4 99 97
f 6 9 12
f 5 10 9
f 5 17 10
f 6 12 11
f 9 10 12
f 5 14 17
f 14 16 18
f 16 49 53
f 14 18 17
f 16 53 18
f 6 11 21
f 3 21 23
f 21 11 23
f 49 50 54
f 50 52 55
f 49 54 53
f 50 55 54
f 52 61 55
f 52 56 61
f 56 59 62
f 59 60 63
f 56 62 61
f 59 63 62
f 60 66 68
f 60 68 63
f 66 72 68
f 66 71 72
f 71 170 172
f 71 172 72
f 97 99 98
f 98 100 105
f 98 99 100
f 105 106 107
f 105 100 106
f 107 106 112
f 107 112 110
f 110 113 111
f 111 114 116
f 110 112 113
f 111 113 114
f 116 119 118
f 118 120 155
f 116 114 119
f 118 119 120
f 120 159 155
f 151 152 171
f 151 165 168
f 151 168 152
f 155 159 156
f 156 160 158
f 158 161 166
f 156 159 160
f 158 160 161
f 164 166 169
f 164 167 165
f 164 169 167
f 165 167 168
f 166 161 169
f 170 171 173
f 170 173 172
f 171 152 173

