# https://github.com/mikedh/trimesh
v -0.00976845 -0.00560377 0.00078799
v -0.00983147 -0.00555557 0.00100000
v -0.00979410 -0.00542977 0.00057023
v -0.00988845 -0.00540891 0.00079154
v -0.00992388 -0.00538268 0.00100000
v -0.00983147 -0.00555557 0.00200000
v -0.00976845 -0.00560377 0.00221201
v -0.00979776 -0.00546668 0.00235889
v -0.00978667 -0.00548020 0.00236665
v -0.00992388 -0.00538268 0.00200000
v -0.00988845 -0.00540891 0.00220846
v -0.00982063 -0.00542390 0.00236754
v -0.00988845 -0.00529703 0.00232034
v -0.00990866 -0.00525922 0.00229651
v -0.00938268 -0.00592388 0.00100000
v -0.00955557 -0.00583147 0.00100000
v -0.00940891 -0.00588845 0.00079154
v -0.00963571 -0.00563571 0.00056211
v -0.00942977 -0.00579410 0.00057023
v -0.00943789 -0.00563571 0.00036429
v -0.00960377 -0.00576845 0.00078799
v -0.00970711 -0.00570711 0.00100000
v -0.00920846 -0.00588845 0.00059109
v -0.00920233 -0.00595819 0.00079767
v -0.00919509 -0.00598079 0.00100000
v -0.00921202 -0.00576845 0.00039623
v -0.00938268 -0.00592388 0.00200000
v -0.00955557 -0.00583147 0.00200000
v -0.00940891 -0.00588845 0.00220846
v -0.00942390 -0.00582063 0.00236754
v -0.00970711 -0.00570711 0.00200000
v -0.00960377 -0.00576845 0.00221201
v -0.00966479 -0.00562871 0.00238840
v -0.00964853 -0.00564853 0.00238044
v -0.00962871 -0.00566479 0.00238840
v -0.00948020 -0.00578667 0.00236665
v -0.00946668 -0.00579776 0.00235889
v -0.00919509 -0.00598079 0.00200000
v -0.00920233 -0.00595819 0.00220233
v -0.00925922 -0.00590866 0.00229651
v -0.00920525 -0.00592503 0.00230055
v -0.00929703 -0.00588845 0.00232034
v -0.00913409 -0.00594661 0.00226317
v -0.00903411 -0.00597694 0.00219642
v -0.00963571 -0.00543789 0.00036429
v -0.00942977 -0.00542977 0.00020590
v -0.00921202 -0.00560377 0.00023155
v -0.00920846 -0.00540891 0.00011155
v -0.00988845 -0.00520846 0.00059109
v -0.00976845 -0.00521201 0.00039623
v -0.00995819 -0.00520233 0.00079767
v -0.00998079 -0.00519509 0.00100000
v -0.00992388 -0.00500000 0.00061732
v -0.00983147 -0.00500000 0.00044443
v -0.00998079 -0.00500000 0.00080491
v -0.01000000 -0.00500000 0.00100000
v -0.00998079 -0.00519509 0.00200000
v -0.00995819 -0.00520233 0.00220233
v -0.00994661 -0.00513409 0.00226317
v -0.00992503 -0.00520525 0.00230055
v -0.01000000 -0.00500000 0.00200000
v -0.00997694 -0.00503411 0.00219642
v -0.00998030 -0.00500000 0.00219668
v -0.00998079 -0.00499509 0.00219509
v -0.00998079 -0.00500000 0.00219509
v -0.01000000 -0.00480000 0.00120000
v -0.01000000 -0.00480000 0.00200000
v -0.00960377 -0.00521201 0.00023155
v -0.00940891 -0.00520846 0.00011155
v -0.00970711 -0.00500000 0.00029289
v -0.00955557 -0.00500000 0.00016853
v -0.00938268 -0.00500000 0.00007612
v -0.00920233 -0.00520233 0.00004181
v -0.00919509 -0.00500000 0.00001921
v -0.00900000 -0.00592388 0.00061732
v -0.00900000 -0.00583147 0.00044443
v -0.00900000 -0.00598079 0.00080491
v -0.00900000 -0.00600000 0.00100000
v -0.00900000 -0.00570711 0.00029289
v -0.00900000 -0.00600000 0.00200000
v -0.00880000 -0.00600000 0.00200000
v -0.00900000 -0.00598030 0.00219668
v -0.00899509 -0.00598079 0.00219509
v -0.00900000 -0.00598079 0.00219509
v -0.00900000 -0.00555557 0.00016853
v -0.00900000 -0.00538268 0.00007612
v -0.00900000 -0.00519509 0.00001921
v -0.00900000 -0.00500000 0.00000000
v -0.00720000 -0.00600000 0.00200000
v -0.00700491 -0.00598079 0.00219509
v -0.00696589 -0.00597694 0.00220776
v -0.00679097 -0.00592388 0.00238268
v -0.00674078 -0.00590866 0.00241117
v -0.00659638 -0.00583147 0.00255557
v -0.00653332 -0.00579776 0.00259664
v -0.00642285 -0.00570711 0.00270711
v -0.00635147 -0.00564853 0.00275518
v -0.00627518 -0.00555557 0.00283147
v -0.00620224 -0.00546668 0.00287898
v -0.00615734 -0.00538268 0.00292388
v -0.00609134 -0.00525922 0.00296133
v -0.00607189 -0.00519509 0.00298079
v -0.00602306 -0.00503411 0.00299664
v -0.00601970 -0.00500000 0.00300000
v -0.00600000 -0.00480000 0.00300000
v -0.00084853 -0.00084853 0.00000000
v -0.00023411 -0.00117694 0.00000000
v -0.00066668 -0.00099776 0.00000000
v -0.00045922 -0.00110866 0.00000000
v -0.00084853 -0.00084853 0.00300000
v -0.00023411 -0.00117694 0.00300000
v -0.00066668 -0.00099776 0.00300000
v -0.00045922 -0.00110866 0.00300000
v -0.00099776 -0.00066668 0.00000000
v -0.00110866 -0.00045922 0.00000000
v -0.00117694 -0.00023411 0.00000000
v -0.00099776 -0.00066668 0.00300000
v -0.00110866 -0.00045922 0.00300000
v -0.00117694 -0.00023411 0.00300000
v -0.01142977 -0.00542977 0.04020589
v -0.01121202 -0.00560377 0.04023155
v -0.01100000 -0.00555557 0.04016853
v -0.01120846 -0.00540891 0.04011155
v -0.01100000 -0.00538268 0.04007612
v -0.01160377 -0.00521201 0.04023155
v -0.01140891 -0.00520846 0.04011155
v -0.01155557 -0.00500000 0.04016853
v -0.01138268 -0.00500000 0.04007612
v -0.01120233 -0.00520233 0.04004181
v -0.01100000 -0.00519509 0.04001921
v -0.01119509 -0.00500000 0.04001921
v -0.01100000 -0.00500000 0.04000000
v -0.00979776 -0.00546668 0.04012102
v -0.00984266 -0.00538268 0.04007612
v -0.00990866 -0.00525922 0.04003867
v -0.00964853 -0.00564853 0.04024482
v -0.00972482 -0.00555557 0.04016853
v -0.00992811 -0.00519509 0.04001921
v -0.00997694 -0.00503411 0.04000336
v -0.00998030 -0.00500000 0.04000000
v -0.01000000 -0.00480000 0.04000000
v -0.01163571 -0.00563571 0.04056211
v -0.01170711 -0.00570711 0.04100000
v -0.01140891 -0.00588845 0.04079154
v -0.01155557 -0.00583147 0.04100000
v -0.01138268 -0.00592388 0.04100000
v -0.01160377 -0.00576845 0.04078799
v -0.01143789 -0.00563571 0.04036429
v -0.01142977 -0.00579410 0.04057023
v -0.01176845 -0.00560377 0.04078799
v -0.01163571 -0.00543789 0.04036429
v -0.01183147 -0.00555557 0.04100000
v -0.01188845 -0.00540891 0.04079154
v -0.01179410 -0.00542977 0.04057023
v -0.01192388 -0.00538268 0.04100000
v -0.01120233 -0.00595819 0.04079766
v -0.01120846 -0.00588845 0.04059109
v -0.01100000 -0.00598079 0.04080491
v -0.01100000 -0.00592388 0.04061732
v -0.01100000 -0.00583147 0.04044443
v -0.01119509 -0.00598079 0.04100000
v -0.01100000 -0.00600000 0.04100000
v -0.01121202 -0.00576845 0.04039623
v -0.01100000 -0.00570711 0.04029289
v -0.01170711 -0.00570711 0.04500000
v -0.01163571 -0.00563571 0.04543789
v -0.01155557 -0.00583147 0.04500000
v -0.01138268 -0.00592388 0.04500000
v -0.01140891 -0.00588845 0.04520846
v -0.01160377 -0.00576845 0.04521201
v -0.01143789 -0.00563571 0.04563571
v -0.01142977 -0.00579410 0.04542977
v -0.01183147 -0.00555557 0.04500000
v -0.01176845 -0.00560377 0.04521201
v -0.01163571 -0.00543789 0.04563571
v -0.01192388 -0.00538268 0.04500000
v -0.01188845 -0.00540891 0.04520846
v -0.01179410 -0.00542977 0.04542977
v -0.01142977 -0.00542977 0.04579411
v -0.01119509 -0.00598079 0.04500000
v -0.01120233 -0.00595819 0.04520234
v -0.01100000 -0.00600000 0.04500000
v -0.01100000 -0.00598079 0.04519509
v -0.01120846 -0.00588845 0.04540891
v -0.01100000 -0.00592388 0.04538268
v -0.01100000 -0.00583147 0.04555557
v -0.01121202 -0.00576845 0.04560377
v -0.01100000 -0.00570711 0.04570711
v -0.01121202 -0.00560377 0.04576845
v -0.01100000 -0.00555557 0.04583147
v -0.01120846 -0.00540891 0.04588845
v -0.01100000 -0.00538268 0.04592388
v -0.01188845 -0.00520846 0.04059109
v -0.01195819 -0.00520233 0.04079766
v -0.01176845 -0.00521201 0.04039623
v -0.01198079 -0.00519509 0.04100000
v -0.01183147 -0.00500000 0.04044443
v -0.01192388 -0.00500000 0.04061732
v -0.01198079 -0.00500000 0.04080491
v -0.01170711 -0.00500000 0.04029289
v -0.01200000 -0.00500000 0.04100000
v -0.01198079 -0.00519509 0.04500000
v -0.01195819 -0.00520233 0.04520234
v -0.01188845 -0.00520846 0.04540891
v -0.01176845 -0.00521201 0.04560377
v -0.01200000 -0.00500000 0.04500000
v -0.01198079 -0.00500000 0.04519509
v -0.01192388 -0.00500000 0.04538268
v -0.01183147 -0.00500000 0.04555557
v -0.01170711 -0.00500000 0.04570711
v -0.01160377 -0.00521201 0.04576845
v -0.01140891 -0.00520846 0.04588845
v -0.01155557 -0.00500000 0.04583147
v -0.01138268 -0.00500000 0.04592388
v -0.01120233 -0.00520233 0.04595819
v -0.01100000 -0.00519509 0.04598079
v -0.01119509 -0.00500000 0.04598079
v -0.01100000 -0.00500000 0.04600000
v -0.00940362 -0.00583147 0.04044443
v -0.00957715 -0.00570711 0.04029289
v -0.00946668 -0.00579776 0.04040336
v -0.00925922 -0.00590866 0.04058883
v -0.00920903 -0.00592388 0.04061732
v -0.00903411 -0.00597694 0.04079224
v -0.00635147 -0.00564853 0.04024482
v -0.00627518 -0.00555557 0.04016853
v -0.00620224 -0.00546668 0.04012102
v -0.00615734 -0.00538268 0.04007612
v -0.00609134 -0.00525922 0.04003867
v -0.00607189 -0.00519509 0.04001921
v -0.00602306 -0.00503411 0.04000336
v -0.00601970 -0.00500000 0.04000000
v -0.00899509 -0.00598079 0.04080491
v -0.00880000 -0.00600000 0.04100000
v -0.00720000 -0.00600000 0.04100000
v -0.00700491 -0.00598079 0.04080491
v -0.00696589 -0.00597694 0.04079224
v -0.00679097 -0.00592388 0.04061732
v -0.00674078 -0.00590866 0.04058883
v -0.00659638 -0.00583147 0.04044443
v -0.00653332 -0.00579776 0.04040336
v -0.00642285 -0.00570711 0.04029289
v -0.00924130 -0.00215000 0.04150000
v -0.00924130 -0.00215000 0.04330000
v -0.00901627 -0.00042095 0.04000000
v -0.00907886 -0.00021460 0.04000000
v -0.00910866 -0.00045922 0.04050000
v -0.00901627 -0.00042095 0.04050000
v -0.00910866 -0.00045922 0.04150000
v -0.00917694 -0.00023411 0.04050000
v -0.00907886 -0.00021460 0.04050000
v -0.00917694 -0.00023411 0.04150000
v -0.00910866 -0.00045922 0.04330000
v -0.00910866 -0.00045922 0.04600000
v -0.00917694 -0.00023411 0.04330000
v -0.00917694 -0.00023411 0.04600000
v -0.00675870 -0.00215000 0.04150000
v -0.00675870 -0.00215000 0.04330000
v -0.00877782 -0.00077782 0.04000000
v -0.00842095 -0.00101627 0.04000000
v -0.00861113 -0.00091462 0.04000000
v -0.00821460 -0.00107886 0.04000000
v -0.00800000 -0.00110000 0.04000000
v -0.00778540 -0.00107886 0.04000000
v -0.00757905 -0.00101627 0.04000000
v -0.00891462 -0.00061113 0.04000000
v -0.00738887 -0.00091462 0.04000000
v -0.00722218 -0.00077782 0.04000000
v -0.00708538 -0.00061113 0.04000000
v -0.00698373 -0.00042095 0.04000000
v -0.00692114 -0.00021460 0.04000000
v -0.00866668 -0.00099776 0.04050000
v -0.00866668 -0.00099776 0.04150000
v -0.00884853 -0.00084853 0.04050000
v -0.00877782 -0.00077782 0.04050000
v -0.00884853 -0.00084853 0.04150000
v -0.00845922 -0.00110866 0.04050000
v -0.00842095 -0.00101627 0.04050000
v -0.00845922 -0.00110866 0.04150000
v -0.00861113 -0.00091462 0.04050000
v -0.00823411 -0.00117694 0.04050000
v -0.00800000 -0.00120000 0.04050000
v -0.00823411 -0.00117694 0.04150000
v -0.00800000 -0.00120000 0.04150000
v -0.00776589 -0.00117694 0.04050000
v -0.00776589 -0.00117694 0.04150000
v -0.00821460 -0.00107886 0.04050000
v -0.00800000 -0.00110000 0.04050000
v -0.00778540 -0.00107886 0.04050000
v -0.00754078 -0.00110866 0.04050000
v -0.00757905 -0.00101627 0.04050000
v -0.00754078 -0.00110866 0.04150000
v -0.00866668 -0.00099776 0.04330000
v -0.00884853 -0.00084853 0.04330000
v -0.00845922 -0.00110866 0.04330000
v -0.00866668 -0.00099776 0.04600000
v -0.00884853 -0.00084853 0.04600000
v -0.00845922 -0.00110866 0.04600000
v -0.00823411 -0.00117694 0.04330000
v -0.00800000 -0.00120000 0.04330000
v -0.00776589 -0.00117694 0.04330000
v -0.00823411 -0.00117694 0.04600000
v -0.00800000 -0.00120000 0.04600000
v -0.00776589 -0.00117694 0.04600000
v -0.00754078 -0.00110866 0.04330000
v -0.00754078 -0.00110866 0.04600000
v -0.00899776 -0.00066668 0.04050000
v -0.00891462 -0.00061113 0.04050000
v -0.00899776 -0.00066668 0.04150000
v -0.00899776 -0.00066668 0.04330000
v -0.00899776 -0.00066668 0.04600000
v -0.00733332 -0.00099776 0.04050000
v -0.00733332 -0.00099776 0.04150000
v -0.00738887 -0.00091462 0.04050000
v -0.00715147 -0.00084853 0.04050000
v -0.00722218 -0.00077782 0.04050000
v -0.00715147 -0.00084853 0.04150000
v -0.00733332 -0.00099776 0.04330000
v -0.00715147 -0.00084853 0.04330000
v -0.00733332 -0.00099776 0.04600000
v -0.00715147 -0.00084853 0.04600000
v -0.00700224 -0.00066668 0.04050000
v -0.00708538 -0.00061113 0.04050000
v -0.00700224 -0.00066668 0.04150000
v -0.00698373 -0.00042095 0.04050000
v -0.00689134 -0.00045922 0.04050000
v -0.00689134 -0.00045922 0.04150000
v -0.00692114 -0.00021460 0.04050000
v -0.00682306 -0.00023411 0.04050000
v -0.00682306 -0.00023411 0.04150000
v -0.00700224 -0.00066668 0.04330000
v -0.00689134 -0.00045922 0.04330000
v -0.00700224 -0.00066668 0.04600000
v -0.00689134 -0.00045922 0.04600000
v -0.00682306 -0.00023411 0.04330000
v -0.00682306 -0.00023411 0.04600000
v -0.00600000 -0.00480000 0.04000000
v -0.01000000 0.00480000 0.00120000
v -0.01000000 0.00480000 0.00200000
v -0.00992388 0.00500000 0.00061732
v -0.00983147 0.00500000 0.00044443
v -0.00998079 0.00500000 0.00080491
v -0.01000000 0.00500000 0.00100000
v -0.00988845 0.00520846 0.00059109
v -0.00976845 0.00521201 0.00039623
v -0.00995819 0.00520233 0.00079767
v -0.00998079 0.00519509 0.00100000
v -0.01000000 0.00500000 0.00200000
v -0.00998079 0.00499509 0.00219509
v -0.00998030 0.00500000 0.00219668
v -0.00998079 0.00500000 0.00219509
v -0.00997694 0.00503411 0.00219642
v -0.00998079 0.00519509 0.00200000
v -0.00994661 0.00513409 0.00226317
v -0.00995819 0.00520233 0.00220233
v -0.00992503 0.00520525 0.00230055
v -0.00970711 0.00500000 0.00029289
v -0.00955557 0.00500000 0.00016853
v -0.00938268 0.00500000 0.00007612
v -0.00960377 0.00521201 0.00023155
v -0.00940891 0.00520846 0.00011155
v -0.00919509 0.00500000 0.00001921
v -0.00920233 0.00520233 0.00004181
v -0.00979410 0.00542977 0.00057023
v -0.00992388 0.00538268 0.00100000
v -0.00988845 0.00540891 0.00079154
v -0.00983147 0.00555557 0.00100000
v -0.00976845 0.00560377 0.00078799
v -0.00992388 0.00538268 0.00200000
v -0.00990866 0.00525922 0.00229651
v -0.00988845 0.00529703 0.00232034
v -0.00988845 0.00540891 0.00220846
v -0.00982063 0.00542390 0.00236754
v -0.00983147 0.00555557 0.00200000
v -0.00979776 0.00546668 0.00235889
v -0.00978667 0.00548020 0.00236665
v -0.00976845 0.00560377 0.00221201
v -0.00942977 0.00542977 0.00020590
v -0.00963571 0.00543789 0.00036429
v -0.00920846 0.00540891 0.00011155
v -0.00921202 0.00560377 0.00023155
v -0.00963571 0.00563571 0.00056211
v -0.00943789 0.00563571 0.00036429
v -0.00942977 0.00579410 0.00057023
v -0.00970711 0.00570711 0.00100000
v -0.00960377 0.00576845 0.00078799
v -0.00955557 0.00583147 0.00100000
v -0.00940891 0.00588845 0.00079154
v -0.00938268 0.00592388 0.00100000
v -0.00921202 0.00576845 0.00039623
v -0.00920846 0.00588845 0.00059109
v -0.00920233 0.00595819 0.00079767
v -0.00919509 0.00598079 0.00100000
v -0.00970711 0.00570711 0.00200000
v -0.00966479 0.00562871 0.00238840
v -0.00964853 0.00564853 0.00238044
v -0.00962871 0.00566479 0.00238840
v -0.00960377 0.00576845 0.00221201
v -0.00948020 0.00578667 0.00236665
v -0.00946668 0.00579776 0.00235889
v -0.00955557 0.00583147 0.00200000
v -0.00938268 0.00592388 0.00200000
v -0.00942390 0.00582063 0.00236754
v -0.00940891 0.00588845 0.00220846
v -0.00919509 0.00598079 0.00200000
v -0.00929703 0.00588845 0.00232034
v -0.00925922 0.00590866 0.00229651
v -0.00920525 0.00592503 0.00230055
v -0.00920233 0.00595819 0.00220233
v -0.00913409 0.00594661 0.00226317
v -0.00903411 0.00597694 0.00219642
v -0.00900000 0.00500000 0.00000000
v -0.00900000 0.00519509 0.00001921
v -0.00900000 0.00538268 0.00007612
v -0.00900000 0.00555557 0.00016853
v -0.00900000 0.00570711 0.00029289
v -0.00900000 0.00583147 0.00044443
v -0.00900000 0.00592388 0.00061732
v -0.00900000 0.00598079 0.00080491
v -0.00900000 0.00600000 0.00100000
v -0.00900000 0.00600000 0.00200000
v -0.00880000 0.00600000 0.00200000
v -0.00900000 0.00598030 0.00219668
v -0.00899509 0.00598079 0.00219509
v -0.00900000 0.00598079 0.00219509
v -0.00601970 0.00500000 0.00300000
v -0.00602306 0.00503411 0.00299664
v -0.00607189 0.00519509 0.00298079
v -0.00720000 0.00600000 0.00200000
v -0.00700491 0.00598079 0.00219509
v -0.00696589 0.00597694 0.00220776
v -0.00679097 0.00592388 0.00238268
v -0.00627518 0.00555557 0.00283147
v -0.00642285 0.00570711 0.00270711
v -0.00653332 0.00579776 0.00259664
v -0.00659638 0.00583147 0.00255557
v -0.00674078 0.00590866 0.00241117
v -0.00635147 0.00564853 0.00275518
v -0.00609134 0.00525922 0.00296133
v -0.00615734 0.00538268 0.00292388
v -0.00620224 0.00546668 0.00287898
v -0.00120000 0.00000000 0.00000000
v -0.00117694 0.00023411 0.00000000
v -0.00110866 0.00045922 0.00000000
v -0.00099776 0.00066668 0.00000000
v -0.00120000 0.00000000 0.00300000
v -0.00117694 0.00023411 0.00300000
v -0.00110866 0.00045922 0.00300000
v -0.00099776 0.00066668 0.00300000
v -0.00084853 0.00084853 0.00000000
v -0.00066668 0.00099776 0.00000000
v -0.00045922 0.00110866 0.00000000
v -0.00023411 0.00117694 0.00000000
v -0.00084853 0.00084853 0.00300000
v -0.00066668 0.00099776 0.00300000
v -0.00045922 0.00110866 0.00300000
v -0.00023411 0.00117694 0.00300000
v -0.00600000 0.00480000 0.00300000
v -0.00910000 0.00000000 0.04000000
v -0.00907886 0.00021460 0.04000000
v -0.00901627 0.00042095 0.04000000
v -0.01048261 0.00000000 0.04150000
v -0.01015000 0.00057609 0.04150000
v -0.00920000 0.00000000 0.04050000
v -0.00910000 0.00000000 0.04050000
v -0.00920000 0.00000000 0.04150000
v -0.00917694 0.00023411 0.04050000
v -0.00907886 0.00021460 0.04050000
v -0.00917694 0.00023411 0.04150000
v -0.00910866 0.00045922 0.04050000
v -0.00901627 0.00042095 0.04050000
v -0.00910866 0.00045922 0.04150000
v -0.01048261 0.00000000 0.04330000
v -0.01015000 0.00057609 0.04330000
v -0.00920000 0.00000000 0.04330000
v -0.00924130 0.00021862 0.04330000
v -0.00917694 0.00023411 0.04330000
v -0.00920000 0.00000000 0.04600000
v -0.00917694 0.00023411 0.04600000
v -0.00910866 0.00045922 0.04330000
v -0.00910866 0.00045922 0.04600000
v -0.00941037 0.00185717 0.04150000
v -0.00924130 0.00200531 0.04150000
v -0.00926132 0.00211533 0.04150000
v -0.00912388 0.00215000 0.04150000
v -0.00924130 0.00200531 0.04330000
v -0.00912388 0.00215000 0.04330000
v -0.00891462 0.00061113 0.04000000
v -0.00877782 0.00077782 0.04000000
v -0.00861113 0.00091462 0.04000000
v -0.00842095 0.00101627 0.04000000
v -0.00821460 0.00107886 0.04000000
v -0.00800000 0.00110000 0.04000000
v -0.00778540 0.00107886 0.04000000
v -0.00757905 0.00101627 0.04000000
v -0.00690000 0.00000000 0.04000000
v -0.00692114 0.00021460 0.04000000
v -0.00698373 0.00042095 0.04000000
v -0.00708538 0.00061113 0.04000000
v -0.00738887 0.00091462 0.04000000
v -0.00722218 0.00077782 0.04000000
v -0.00891462 0.00061113 0.04050000
v -0.00899776 0.00066668 0.04050000
v -0.00899776 0.00066668 0.04150000
v -0.00899776 0.00066668 0.04330000
v -0.00899776 0.00066668 0.04600000
v -0.00884853 0.00084853 0.04050000
v -0.00877782 0.00077782 0.04050000
v -0.00884853 0.00084853 0.04150000
v -0.00866668 0.00099776 0.04050000
v -0.00866668 0.00099776 0.04150000
v -0.00861113 0.00091462 0.04050000
v -0.00845922 0.00110866 0.04050000
v -0.00842095 0.00101627 0.04050000
v -0.00845922 0.00110866 0.04150000
v -0.00821460 0.00107886 0.04050000
v -0.00800000 0.00110000 0.04050000
v -0.00778540 0.00107886 0.04050000
v -0.00757905 0.00101627 0.04050000
v -0.00754078 0.00110866 0.04050000
v -0.00754078 0.00110866 0.04150000
v -0.00823411 0.00117694 0.04050000
v -0.00800000 0.00120000 0.04050000
v -0.00823411 0.00117694 0.04150000
v -0.00800000 0.00120000 0.04150000
v -0.00776589 0.00117694 0.04050000
v -0.00776589 0.00117694 0.04150000
v -0.00884853 0.00084853 0.04330000
v -0.00866668 0.00099776 0.04330000
v -0.00845922 0.00110866 0.04330000
v -0.00884853 0.00084853 0.04600000
v -0.00866668 0.00099776 0.04600000
v -0.00845922 0.00110866 0.04600000
v -0.00754078 0.00110866 0.04330000
v -0.00754078 0.00110866 0.04600000
v -0.00823411 0.00117694 0.04330000
v -0.00800000 0.00120000 0.04330000
v -0.00776589 0.00117694 0.04330000
v -0.00823411 0.00117694 0.04600000
v -0.00800000 0.00120000 0.04600000
v -0.00776589 0.00117694 0.04600000
v -0.00690000 0.00000000 0.04050000
v -0.00680000 0.00000000 0.04050000
v -0.00680000 0.00000000 0.04150000
v -0.00692114 0.00021460 0.04050000
v -0.00682306 0.00023411 0.04050000
v -0.00682306 0.00023411 0.04150000
v -0.00698373 0.00042095 0.04050000
v -0.00689134 0.00045922 0.04050000
v -0.00689134 0.00045922 0.04150000
v -0.00708538 0.00061113 0.04050000
v -0.00700224 0.00066668 0.04050000
v -0.00700224 0.00066668 0.04150000
v -0.00680000 0.00000000 0.04330000
v -0.00682306 0.00023411 0.04330000
v -0.00680000 0.00000000 0.04600000
v -0.00682306 0.00023411 0.04600000
v -0.00689134 0.00045922 0.04330000
v -0.00675870 0.00040072 0.04330000
v -0.00700224 0.00066668 0.04330000
v -0.00689134 0.00045922 0.04600000
v -0.00700224 0.00066668 0.04600000
v -0.00738887 0.00091462 0.04050000
v -0.00722218 0.00077782 0.04050000
v -0.00715147 0.00084853 0.04050000
v -0.00715147 0.00084853 0.04150000
v -0.00733332 0.00099776 0.04050000
v -0.00733332 0.00099776 0.04150000
v -0.00675870 0.00147927 0.04150000
v -0.00715147 0.00084853 0.04330000
v -0.00733332 0.00099776 0.04330000
v -0.00737395 0.00108435 0.04330000
v -0.00715147 0.00084853 0.04600000
v -0.00733332 0.00099776 0.04600000
v -0.00728207 0.00124349 0.04330000
v -0.00675870 0.00147927 0.04330000
v -0.00800198 0.00215000 0.04330000
v -0.00717071 0.00215000 0.04150000
v -0.01155557 0.00500000 0.04016853
v -0.01138268 0.00500000 0.04007612
v -0.01160377 0.00521201 0.04023155
v -0.01140891 0.00520846 0.04011155
v -0.01119509 0.00500000 0.04001921
v -0.01100000 0.00500000 0.04000000
v -0.01120233 0.00520233 0.04004181
v -0.01100000 0.00519509 0.04001921
v -0.01142977 0.00542977 0.04020589
v -0.01120846 0.00540891 0.04011155
v -0.01100000 0.00538268 0.04007612
v -0.01121202 0.00560377 0.04023155
v -0.01100000 0.00555557 0.04016853
v -0.01000000 0.00480000 0.04000000
v -0.00998030 0.00500000 0.04000000
v -0.00997694 0.00503411 0.04000336
v -0.00992811 0.00519509 0.04001921
v -0.00990866 0.00525922 0.04003867
v -0.00984266 0.00538268 0.04007612
v -0.00979776 0.00546668 0.04012102
v -0.00972482 0.00555557 0.04016853
v -0.00964853 0.00564853 0.04024482
v -0.01183147 0.00500000 0.04044443
v -0.01192388 0.00500000 0.04061732
v -0.01198079 0.00500000 0.04080491
v -0.01170711 0.00500000 0.04029289
v -0.01200000 0.00500000 0.04100000
v -0.01188845 0.00520846 0.04059109
v -0.01195819 0.00520233 0.04079766
v -0.01176845 0.00521201 0.04039623
v -0.01198079 0.00519509 0.04100000
v -0.01200000 0.00500000 0.04500000
v -0.01198079 0.00500000 0.04519509
v -0.01192388 0.00500000 0.04538268
v -0.01183147 0.00500000 0.04555557
v -0.01170711 0.00500000 0.04570711
v -0.01198079 0.00519509 0.04500000
v -0.01195819 0.00520233 0.04520234
v -0.01188845 0.00520846 0.04540891
v -0.01176845 0.00521201 0.04560377
v -0.01155557 0.00500000 0.04583147
v -0.01138268 0.00500000 0.04592388
v -0.01160377 0.00521201 0.04576845
v -0.01140891 0.00520846 0.04588845
v -0.01119509 0.00500000 0.04598079
v -0.01100000 0.00500000 0.04600000
v -0.01120233 0.00520233 0.04595819
v -0.01100000 0.00519509 0.04598079
v -0.01188845 0.00540891 0.04079154
v -0.01179410 0.00542977 0.04057023
v -0.01192388 0.00538268 0.04100000
v -0.01163571 0.00543789 0.04036429
v -0.01176845 0.00560377 0.04078799
v -0.01183147 0.00555557 0.04100000
v -0.01163571 0.00563571 0.04056211
v -0.01170711 0.00570711 0.04100000
v -0.01143789 0.00563571 0.04036429
v -0.01160377 0.00576845 0.04078799
v -0.01142977 0.00579410 0.04057023
v -0.01140891 0.00588845 0.04079154
v -0.01155557 0.00583147 0.04100000
v -0.01138268 0.00592388 0.04100000
v -0.01121202 0.00576845 0.04039623
v -0.01100000 0.00570711 0.04029289
v -0.01120846 0.00588845 0.04059109
v -0.01120233 0.00595819 0.04079766
v -0.01100000 0.00583147 0.04044443
v -0.01100000 0.00592388 0.04061732
v -0.01100000 0.00598079 0.04080491
v -0.01119509 0.00598079 0.04100000
v -0.01100000 0.00600000 0.04100000
v -0.01192388 0.00538268 0.04500000
v -0.01188845 0.00540891 0.04520846
v -0.01179410 0.00542977 0.04542977
v -0.01183147 0.00555557 0.04500000
v -0.01176845 0.00560377 0.04521201
v -0.01163571 0.00543789 0.04563571
v -0.01142977 0.00542977 0.04579411
v -0.01170711 0.00570711 0.04500000
v -0.01163571 0.00563571 0.04543789
v -0.01160377 0.00576845 0.04521201
v -0.01143789 0.00563571 0.04563571
v -0.01142977 0.00579410 0.04542977
v -0.01155557 0.00583147 0.04500000
v -0.01140891 0.00588845 0.04520846
v -0.01138268 0.00592388 0.04500000
v -0.01120846 0.00540891 0.04588845
v -0.01100000 0.00538268 0.04592388
v -0.01121202 0.00560377 0.04576845
v -0.01100000 0.00555557 0.04583147
v -0.01121202 0.00576845 0.04560377
v -0.01100000 0.00570711 0.04570711
v -0.01119509 0.00598079 0.04500000
v -0.01120233 0.00595819 0.04520234
v -0.01100000 0.00600000 0.04500000
v -0.01100000 0.00598079 0.04519509
v -0.01120846 0.00588845 0.04540891
v -0.01100000 0.00583147 0.04555557
v -0.01100000 0.00592388 0.04538268
v -0.01015000 0.00600000 0.04150000
v -0.00957715 0.00570711 0.04029289
v -0.00946668 0.00579776 0.04040336
v -0.00940362 0.00583147 0.04044443
v -0.00925922 0.00590866 0.04058883
v -0.00920903 0.00592388 0.04061732
v -0.00903411 0.00597694 0.04079224
v -0.01015000 0.00600000 0.04330000
v -0.00601970 0.00500000 0.04000000
v -0.00602306 0.00503411 0.04000336
v -0.00607189 0.00519509 0.04001921
v -0.00609134 0.00525922 0.04003867
v -0.00615734 0.00538268 0.04007612
v -0.00620224 0.00546668 0.04012102
v -0.00627518 0.00555557 0.04016853
v -0.00635147 0.00564853 0.04024482
v -0.00899509 0.00598079 0.04080491
v -0.00880000 0.00600000 0.04100000
v -0.00720000 0.00600000 0.04100000
v -0.00700491 0.00598079 0.04080491
v -0.00696589 0.00597694 0.04079224
v -0.00679097 0.00592388 0.04061732
v -0.00642285 0.00570711 0.04029289
v -0.00653332 0.00579776 0.04040336
v -0.00659638 0.00583147 0.04044443
v -0.00674078 0.00590866 0.04058883
v -0.00551739 0.00000000 0.04150000
v -0.00585000 0.00057609 0.04150000
v -0.00551739 0.00000000 0.04330000
v -0.00585000 0.00057609 0.04330000
v -0.00600000 0.00480000 0.04000000
v -0.00585000 0.00600000 0.04150000
v -0.00585000 0.00600000 0.04330000
v 0.00000000 -0.00120000 0.00000000
v 0.00023411 -0.00117694 0.00000000
v 0.00045922 -0.00110866 0.00000000
v 0.00066668 -0.00099776 0.00000000
v 0.00084853 -0.00084853 0.00000000
v 0.00000000 -0.00120000 0.00300000
v 0.00023411 -0.00117694 0.00300000
v 0.00045922 -0.00110866 0.00300000
v 0.00066668 -0.00099776 0.00300000
v 0.00084853 -0.00084853 0.00300000
v 0.00099776 -0.00066668 0.00000000
v 0.00110866 -0.00045922 0.00000000
v 0.00117694 -0.00023411 0.00000000
v 0.00099776 -0.00066668 0.00300000
v 0.00110866 -0.00045922 0.00300000
v 0.00117694 -0.00023411 0.00300000
v 0.00635147 -0.00564853 0.00275518
v 0.00674078 -0.00590866 0.00241117
v 0.00659638 -0.00583147 0.00255557
v 0.00653332 -0.00579776 0.00259664
v 0.00642285 -0.00570711 0.00270711
v 0.00627518 -0.00555557 0.00283147
v 0.00679097 -0.00592388 0.00238268
v 0.00696589 -0.00597694 0.00220776
v 0.00700491 -0.00598079 0.00219509
v 0.00720000 -0.00600000 0.00200000
v 0.00620224 -0.00546668 0.00287898
v 0.00615734 -0.00538268 0.00292388
v 0.00609134 -0.00525922 0.00296133
v 0.00607189 -0.00519509 0.00298079
v 0.00602306 -0.00503411 0.00299664
v 0.00601970 -0.00500000 0.00300000
v 0.00600000 -0.00480000 0.00300000
v 0.00880000 -0.00600000 0.00200000
v 0.00899509 -0.00598079 0.00219509
v 0.00900000 -0.00592388 0.00061732
v 0.00900000 -0.00583147 0.00044443
v 0.00920846 -0.00588845 0.00059109
v 0.00900000 -0.00598079 0.00080491
v 0.00900000 -0.00600000 0.00100000
v 0.00920233 -0.00595819 0.00079767
v 0.00919509 -0.00598079 0.00100000
v 0.00900000 -0.00570711 0.00029289
v 0.00921202 -0.00576845 0.00039623
v 0.00938268 -0.00592388 0.00100000
v 0.00940891 -0.00588845 0.00079154
v 0.00955557 -0.00583147 0.00100000
v 0.00942977 -0.00579410 0.00057023
v 0.00943789 -0.00563571 0.00036429
v 0.00963571 -0.00563571 0.00056211
v 0.00960377 -0.00576845 0.00078799
v 0.00970711 -0.00570711 0.00100000
v 0.00900000 -0.00600000 0.00200000
v 0.00919509 -0.00598079 0.00200000
v 0.00900000 -0.00598030 0.00219668
v 0.00900000 -0.00598079 0.00219509
v 0.00903411 -0.00597694 0.00219642
v 0.00913409 -0.00594661 0.00226317
v 0.00920233 -0.00595819 0.00220233
v 0.00920525 -0.00592503 0.00230055
v 0.00925922 -0.00590866 0.00229651
v 0.00929703 -0.00588845 0.00232034
v 0.00938268 -0.00592388 0.00200000
v 0.00955557 -0.00583147 0.00200000
v 0.00940891 -0.00588845 0.00220846
v 0.00942390 -0.00582063 0.00236754
v 0.00970711 -0.00570711 0.00200000
v 0.00946668 -0.00579776 0.00235889
v 0.00948020 -0.00578667 0.00236665
v 0.00960377 -0.00576845 0.00221201
v 0.00962871 -0.00566479 0.00238840
v 0.00964853 -0.00564853 0.00238044
v 0.00966479 -0.00562871 0.00238840
v 0.00900000 -0.00555557 0.00016853
v 0.00921202 -0.00560377 0.00023155
v 0.00900000 -0.00538268 0.00007612
v 0.00920846 -0.00540891 0.00011155
v 0.00963571 -0.00543789 0.00036429
v 0.00942977 -0.00542977 0.00020590
v 0.00976845 -0.00560377 0.00078799
v 0.00983147 -0.00555557 0.00100000
v 0.00979410 -0.00542977 0.00057023
v 0.00988845 -0.00540891 0.00079154
v 0.00992388 -0.00538268 0.00100000
v 0.00983147 -0.00555557 0.00200000
v 0.00976845 -0.00560377 0.00221201
v 0.00978667 -0.00548020 0.00236665
v 0.00979776 -0.00546668 0.00235889
v 0.00992388 -0.00538268 0.00200000
v 0.00982063 -0.00542390 0.00236754
v 0.00988845 -0.00540891 0.00220846
v 0.00988845 -0.00529703 0.00232034
v 0.00990866 -0.00525922 0.00229651
v 0.00900000 -0.00519509 0.00001921
v 0.00920233 -0.00520233 0.00004181
v 0.00900000 -0.00500000 0.00000000
v 0.00919509 -0.00500000 0.00001921
v 0.00940891 -0.00520846 0.00011155
v 0.00960377 -0.00521201 0.00023155
v 0.00938268 -0.00500000 0.00007612
v 0.00955557 -0.00500000 0.00016853
v 0.00970711 -0.00500000 0.00029289
v 0.00976845 -0.00521201 0.00039623
v 0.00988845 -0.00520846 0.00059109
v 0.00995819 -0.00520233 0.00079767
v 0.00998079 -0.00519509 0.00100000
v 0.00983147 -0.00500000 0.00044443
v 0.00992388 -0.00500000 0.00061732
v 0.00998079 -0.00500000 0.00080491
v 0.01000000 -0.00500000 0.00100000
v 0.00998079 -0.00519509 0.00200000
v 0.00992503 -0.00520525 0.00230055
v 0.00995819 -0.00520233 0.00220233
v 0.00994661 -0.00513409 0.00226317
v 0.01000000 -0.00500000 0.00200000
v 0.00997694 -0.00503411 0.00219642
v 0.00998030 -0.00500000 0.00219668
v 0.00998079 -0.00499509 0.00219509
v 0.00998079 -0.00500000 0.00219509
v 0.01000000 -0.00480000 0.00200000
v 0.01000000 -0.00480000 0.00198000
v 0.00635147 -0.00564853 0.04024482
v 0.00627518 -0.00555557 0.04016853
v 0.00620224 -0.00546668 0.04012102
v 0.00615734 -0.00538268 0.04007612
v 0.00609134 -0.00525922 0.04003867
v 0.00607189 -0.00519509 0.04001921
v 0.00602306 -0.00503411 0.04000336
v 0.00601970 -0.00500000 0.04000000
v 0.00600000 -0.00480000 0.04000000
v 0.00674078 -0.00590866 0.04058883
v 0.00659638 -0.00583147 0.04044443
v 0.00653332 -0.00579776 0.04040336
v 0.00642285 -0.00570711 0.04029289
v 0.00679097 -0.00592388 0.04061732
v 0.00696589 -0.00597694 0.04079224
v 0.00700491 -0.00598079 0.04080491
v 0.00720000 -0.00600000 0.04100000
v 0.00899509 -0.00598079 0.04080491
v 0.00880000 -0.00600000 0.04100000
v 0.00964853 -0.00564853 0.04024482
v 0.00972482 -0.00555557 0.04016853
v 0.00979776 -0.00546668 0.04012102
v 0.00984266 -0.00538268 0.04007612
v 0.00990866 -0.00525922 0.04003867
v 0.00992811 -0.00519509 0.04001921
v 0.00997694 -0.00503411 0.04000336
v 0.00998030 -0.00500000 0.04000000
v 0.01000000 -0.00480000 0.04000000
v 0.01100000 -0.00555557 0.04016853
v 0.01121202 -0.00560377 0.04023155
v 0.01100000 -0.00538268 0.04007612
v 0.01120846 -0.00540891 0.04011155
v 0.01142977 -0.00542977 0.04020589
v 0.01100000 -0.00519509 0.04001921
v 0.01120233 -0.00520233 0.04004181
v 0.01100000 -0.00500000 0.04000000
v 0.01119509 -0.00500000 0.04001921
v 0.01140891 -0.00520846 0.04011155
v 0.01160377 -0.00521201 0.04023155
v 0.01138268 -0.00500000 0.04007612
v 0.01155557 -0.00500000 0.04016853
v 0.00903411 -0.00597694 0.04079224
v 0.00925922 -0.00590866 0.04058883
v 0.00920903 -0.00592388 0.04061732
v 0.00940362 -0.00583147 0.04044443
v 0.00946668 -0.00579776 0.04040336
v 0.00957715 -0.00570711 0.04029289
v 0.01100000 -0.00598079 0.04080491
v 0.01100000 -0.00592388 0.04061732
v 0.01100000 -0.00583147 0.04044443
v 0.01120233 -0.00595819 0.04079766
v 0.01120846 -0.00588845 0.04059109
v 0.01100000 -0.00600000 0.04100000
v 0.01119509 -0.00598079 0.04100000
v 0.01100000 -0.00570711 0.04029289
v 0.01121202 -0.00576845 0.04039623
v 0.01140891 -0.00588845 0.04079154
v 0.01138268 -0.00592388 0.04100000
v 0.01155557 -0.00583147 0.04100000
v 0.01142977 -0.00579410 0.04057023
v 0.01160377 -0.00576845 0.04078799
v 0.01143789 -0.00563571 0.04036429
v 0.01163571 -0.00563571 0.04056211
v 0.01170711 -0.00570711 0.04100000
v 0.01176845 -0.00560377 0.04078799
v 0.01163571 -0.00543789 0.04036429
v 0.01183147 -0.00555557 0.04100000
v 0.01179410 -0.00542977 0.04057023
v 0.01188845 -0.00540891 0.04079154
v 0.01192388 -0.00538268 0.04100000
v 0.01100000 -0.00600000 0.04500000
v 0.01100000 -0.00598079 0.04519509
v 0.01119509 -0.00598079 0.04500000
v 0.01120233 -0.00595819 0.04520234
v 0.01100000 -0.00592388 0.04538268
v 0.01100000 -0.00583147 0.04555557
v 0.01120846 -0.00588845 0.04540891
v 0.01100000 -0.00570711 0.04570711
v 0.01121202 -0.00576845 0.04560377
v 0.01100000 -0.00555557 0.04583147
v 0.01121202 -0.00560377 0.04576845
v 0.01100000 -0.00538268 0.04592388
v 0.01120846 -0.00540891 0.04588845
v 0.01138268 -0.00592388 0.04500000
v 0.01140891 -0.00588845 0.04520846
v 0.01155557 -0.00583147 0.04500000
v 0.01160377 -0.00576845 0.04521201
v 0.01142977 -0.00579410 0.04542977
v 0.01143789 -0.00563571 0.04563571
v 0.01170711 -0.00570711 0.04500000
v 0.01163571 -0.00563571 0.04543789
v 0.01142977 -0.00542977 0.04579411
v 0.01176845 -0.00560377 0.04521201
v 0.01183147 -0.00555557 0.04500000
v 0.01163571 -0.00543789 0.04563571
v 0.01188845 -0.00540891 0.04520846
v 0.01192388 -0.00538268 0.04500000
v 0.01179410 -0.00542977 0.04542977
v 0.01176845 -0.00521201 0.04039623
v 0.01188845 -0.00520846 0.04059109
v 0.01195819 -0.00520233 0.04079766
v 0.01198079 -0.00519509 0.04100000
v 0.01170711 -0.00500000 0.04029289
v 0.01183147 -0.00500000 0.04044443
v 0.01192388 -0.00500000 0.04061732
v 0.01198079 -0.00500000 0.04080491
v 0.01200000 -0.00500000 0.04100000
v 0.01100000 -0.00519509 0.04598079
v 0.01120233 -0.00520233 0.04595819
v 0.01100000 -0.00500000 0.04600000
v 0.01119509 -0.00500000 0.04598079
v 0.01140891 -0.00520846 0.04588845
v 0.01160377 -0.00521201 0.04576845
v 0.01138268 -0.00500000 0.04592388
v 0.01155557 -0.00500000 0.04583147
v 0.01198079 -0.00519509 0.04500000
v 0.01195819 -0.00520233 0.04520234
v 0.01176845 -0.00521201 0.04560377
v 0.01188845 -0.00520846 0.04540891
v 0.01200000 -0.00500000 0.04500000
v 0.01198079 -0.00500000 0.04519509
v 0.01170711 -0.00500000 0.04570711
v 0.01183147 -0.00500000 0.04555557
v 0.01192388 -0.00500000 0.04538268
v 0.00675870 -0.00215000 0.04150000
v 0.00675870 -0.00215000 0.04330000
v 0.00722218 -0.00077782 0.04000000
v 0.00738887 -0.00091462 0.04000000
v 0.00708538 -0.00061113 0.04000000
v 0.00698373 -0.00042095 0.04000000
v 0.00692114 -0.00021460 0.04000000
v 0.00757905 -0.00101627 0.04000000
v 0.00778540 -0.00107886 0.04000000
v 0.00800000 -0.00110000 0.04000000
v 0.00821460 -0.00107886 0.04000000
v 0.00842095 -0.00101627 0.04000000
v 0.00861113 -0.00091462 0.04000000
v 0.00877782 -0.00077782 0.04000000
v 0.00891462 -0.00061113 0.04000000
v 0.00733332 -0.00099776 0.04050000
v 0.00733332 -0.00099776 0.04150000
v 0.00715147 -0.00084853 0.04050000
v 0.00722218 -0.00077782 0.04050000
v 0.00738887 -0.00091462 0.04050000
v 0.00715147 -0.00084853 0.04150000
v 0.00733332 -0.00099776 0.04330000
v 0.00715147 -0.00084853 0.04330000
v 0.00733332 -0.00099776 0.04600000
v 0.00715147 -0.00084853 0.04600000
v 0.00700224 -0.00066668 0.04050000
v 0.00708538 -0.00061113 0.04050000
v 0.00700224 -0.00066668 0.04150000
v 0.00689134 -0.00045922 0.04050000
v 0.00698373 -0.00042095 0.04050000
v 0.00689134 -0.00045922 0.04150000
v 0.00682306 -0.00023411 0.04050000
v 0.00692114 -0.00021460 0.04050000
v 0.00682306 -0.00023411 0.04150000
v 0.00700224 -0.00066668 0.04330000
v 0.00689134 -0.00045922 0.04330000
v 0.00700224 -0.00066668 0.04600000
v 0.00689134 -0.00045922 0.04600000
v 0.00682306 -0.00023411 0.04330000
v 0.00682306 -0.00023411 0.04600000
v 0.00776589 -0.00117694 0.04050000
v 0.00776589 -0.00117694 0.04150000
v 0.00800000 -0.00120000 0.04050000
v 0.00823411 -0.00117694 0.04050000
v 0.00800000 -0.00120000 0.04150000
v 0.00823411 -0.00117694 0.04150000
v 0.00754078 -0.00110866 0.04050000
v 0.00757905 -0.00101627 0.04050000
v 0.00778540 -0.00107886 0.04050000
v 0.00754078 -0.00110866 0.04150000
v 0.00800000 -0.00110000 0.04050000
v 0.00821460 -0.00107886 0.04050000
v 0.00842095 -0.00101627 0.04050000
v 0.00845922 -0.00110866 0.04050000
v 0.00845922 -0.00110866 0.04150000
v 0.00861113 -0.00091462 0.04050000
v 0.00866668 -0.00099776 0.04050000
v 0.00866668 -0.00099776 0.04150000
v 0.00877782 -0.00077782 0.04050000
v 0.00884853 -0.00084853 0.04050000
v 0.00884853 -0.00084853 0.04150000
v 0.00776589 -0.00117694 0.04330000
v 0.00800000 -0.00120000 0.04330000
v 0.00823411 -0.00117694 0.04330000
v 0.00776589 -0.00117694 0.04600000
v 0.00800000 -0.00120000 0.04600000
v 0.00823411 -0.00117694 0.04600000
v 0.00754078 -0.00110866 0.04330000
v 0.00754078 -0.00110866 0.04600000
v 0.00845922 -0.00110866 0.04330000
v 0.00866668 -0.00099776 0.04330000
v 0.00884853 -0.00084853 0.04330000
v 0.00845922 -0.00110866 0.04600000
v 0.00866668 -0.00099776 0.04600000
v 0.00884853 -0.00084853 0.04600000
v 0.00899776 -0.00066668 0.04050000
v 0.00891462 -0.00061113 0.04050000
v 0.00899776 -0.00066668 0.04150000
v 0.00899776 -0.00066668 0.04330000
v 0.00899776 -0.00066668 0.04600000
v 0.00924130 -0.00215000 0.04150000
v 0.00924130 -0.00215000 0.04330000
v 0.00901627 -0.00042095 0.04000000
v 0.00907886 -0.00021460 0.04000000
v 0.00901627 -0.00042095 0.04050000
v 0.00910866 -0.00045922 0.04050000
v 0.00910866 -0.00045922 0.04150000
v 0.00907886 -0.00021460 0.04050000
v 0.00917694 -0.00023411 0.04050000
v 0.00917694 -0.00023411 0.04150000
v 0.00910866 -0.00045922 0.04330000
v 0.00910866 -0.00045922 0.04600000
v 0.00917694 -0.00023411 0.04330000
v 0.00917694 -0.00023411 0.04600000
v 0.00120000 0.00000000 0.00000000
v 0.00117694 0.00023411 0.00000000
v 0.00110866 0.00045922 0.00000000
v 0.00099776 0.00066668 0.00000000
v 0.00120000 0.00000000 0.00300000
v 0.00117694 0.00023411 0.00300000
v 0.00110866 0.00045922 0.00300000
v 0.00099776 0.00066668 0.00300000
v 0.00045922 0.00110866 0.00000000
v 0.00066668 0.00099776 0.00000000
v 0.00000000 0.00120000 0.00000000
v 0.00023411 0.00117694 0.00000000
v 0.00084853 0.00084853 0.00000000
v 0.00045922 0.00110866 0.00300000
v 0.00066668 0.00099776 0.00300000
v 0.00000000 0.00120000 0.00300000
v 0.00023411 0.00117694 0.00300000
v 0.00084853 0.00084853 0.00300000
v 0.00600000 0.00480000 0.00300000
v 0.00601970 0.00500000 0.00300000
v 0.00602306 0.00503411 0.00299664
v 0.00607189 0.00519509 0.00298079
v 0.00627518 0.00555557 0.00283147
v 0.00635147 0.00564853 0.00275518
v 0.00642285 0.00570711 0.00270711
v 0.00653332 0.00579776 0.00259664
v 0.00659638 0.00583147 0.00255557
v 0.00674078 0.00590866 0.00241117
v 0.00679097 0.00592388 0.00238268
v 0.00696589 0.00597694 0.00220776
v 0.00700491 0.00598079 0.00219509
v 0.00720000 0.00600000 0.00200000
v 0.00609134 0.00525922 0.00296133
v 0.00615734 0.00538268 0.00292388
v 0.00620224 0.00546668 0.00287898
v 0.00880000 0.00600000 0.00200000
v 0.00899509 0.00598079 0.00219509
v 0.00900000 0.00500000 0.00000000
v 0.00919509 0.00500000 0.00001921
v 0.00900000 0.00519509 0.00001921
v 0.00920233 0.00520233 0.00004181
v 0.00938268 0.00500000 0.00007612
v 0.00955557 0.00500000 0.00016853
v 0.00970711 0.00500000 0.00029289
v 0.00940891 0.00520846 0.00011155
v 0.00960377 0.00521201 0.00023155
v 0.01000000 0.00480000 0.00200000
v 0.00983147 0.00500000 0.00044443
v 0.00992388 0.00500000 0.00061732
v 0.00998079 0.00500000 0.00080491
v 0.01000000 0.00500000 0.00100000
v 0.00976845 0.00521201 0.00039623
v 0.00988845 0.00520846 0.00059109
v 0.00995819 0.00520233 0.00079767
v 0.00998079 0.00519509 0.00100000
v 0.01000000 0.00500000 0.00200000
v 0.00998079 0.00499509 0.00219509
v 0.00998030 0.00500000 0.00219668
v 0.00998079 0.00500000 0.00219509
v 0.00997694 0.00503411 0.00219642
v 0.00998079 0.00519509 0.00200000
v 0.00992503 0.00520525 0.00230055
v 0.00994661 0.00513409 0.00226317
v 0.00995819 0.00520233 0.00220233
v 0.00900000 0.00538268 0.00007612
v 0.00920846 0.00540891 0.00011155
v 0.00900000 0.00555557 0.00016853
v 0.00921202 0.00560377 0.00023155
v 0.00942977 0.00542977 0.00020590
v 0.00963571 0.00543789 0.00036429
v 0.00900000 0.00570711 0.00029289
v 0.00921202 0.00576845 0.00039623
v 0.00900000 0.00583147 0.00044443
v 0.00900000 0.00592388 0.00061732
v 0.00920846 0.00588845 0.00059109
v 0.00900000 0.00598079 0.00080491
v 0.00900000 0.00600000 0.00100000
v 0.00920233 0.00595819 0.00079767
v 0.00919509 0.00598079 0.00100000
v 0.00943789 0.00563571 0.00036429
v 0.00942977 0.00579410 0.00057023
v 0.00963571 0.00563571 0.00056211
v 0.00970711 0.00570711 0.00100000
v 0.00960377 0.00576845 0.00078799
v 0.00940891 0.00588845 0.00079154
v 0.00955557 0.00583147 0.00100000
v 0.00938268 0.00592388 0.00100000
v 0.00900000 0.00600000 0.00200000
v 0.00919509 0.00598079 0.00200000
v 0.00900000 0.00598030 0.00219668
v 0.00900000 0.00598079 0.00219509
v 0.00903411 0.00597694 0.00219642
v 0.00913409 0.00594661 0.00226317
v 0.00929703 0.00588845 0.00232034
v 0.00920525 0.00592503 0.00230055
v 0.00925922 0.00590866 0.00229651
v 0.00920233 0.00595819 0.00220233
v 0.00970711 0.00570711 0.00200000
v 0.00946668 0.00579776 0.00235889
v 0.00948020 0.00578667 0.00236665
v 0.00962871 0.00566479 0.00238840
v 0.00964853 0.00564853 0.00238044
v 0.00966479 0.00562871 0.00238840
v 0.00960377 0.00576845 0.00221201
v 0.00955557 0.00583147 0.00200000
v 0.00938268 0.00592388 0.00200000
v 0.00942390 0.00582063 0.00236754
v 0.00940891 0.00588845 0.00220846
v 0.00979410 0.00542977 0.00057023
v 0.00992388 0.00538268 0.00100000
v 0.00988845 0.00540891 0.00079154
v 0.00983147 0.00555557 0.00100000
v 0.00976845 0.00560377 0.00078799
v 0.00992388 0.00538268 0.00200000
v 0.00990866 0.00525922 0.00229651
v 0.00988845 0.00529703 0.00232034
v 0.00982063 0.00542390 0.00236754
v 0.00988845 0.00540891 0.00220846
v 0.00983147 0.00555557 0.00200000
v 0.00978667 0.00548020 0.00236665
v 0.00979776 0.00546668 0.00235889
v 0.00976845 0.00560377 0.00221201
v 0.00551739 0.00000000 0.04150000
v 0.00585000 0.00057609 0.04150000
v 0.00551739 0.00000000 0.04330000
v 0.00585000 0.00057609 0.04330000
v 0.00585000 0.00600000 0.04150000
v 0.00585000 0.00600000 0.04330000
v 0.00690000 0.00000000 0.04000000
v 0.00692114 0.00021460 0.04000000
v 0.00698373 0.00042095 0.04000000
v 0.00708538 0.00061113 0.04000000
v 0.00722218 0.00077782 0.04000000
v 0.00738887 0.00091462 0.04000000
v 0.00891462 0.00061113 0.04000000
v 0.00757905 0.00101627 0.04000000
v 0.00778540 0.00107886 0.04000000
v 0.00800000 0.00110000 0.04000000
v 0.00821460 0.00107886 0.04000000
v 0.00861113 0.00091462 0.04000000
v 0.00842095 0.00101627 0.04000000
v 0.00877782 0.00077782 0.04000000
v 0.00680000 0.00000000 0.04050000
v 0.00690000 0.00000000 0.04050000
v 0.00675870 0.00000000 0.04150000
v 0.00680000 0.00000000 0.04150000
v 0.00682306 0.00023411 0.04050000
v 0.00692114 0.00021460 0.04050000
v 0.00682306 0.00023411 0.04150000
v 0.00689134 0.00045922 0.04050000
v 0.00698373 0.00042095 0.04050000
v 0.00689134 0.00045922 0.04150000
v 0.00708538 0.00061113 0.04050000
v 0.00700224 0.00066668 0.04050000
v 0.00700224 0.00066668 0.04150000
v 0.00675870 0.00000000 0.04330000
v 0.00680000 0.00000000 0.04330000
v 0.00680349 0.00003540 0.04330000
v 0.00682306 0.00023411 0.04330000
v 0.00680000 0.00000000 0.04600000
v 0.00682306 0.00023411 0.04600000
v 0.00689134 0.00045922 0.04330000
v 0.00700224 0.00066668 0.04330000
v 0.00689134 0.00045922 0.04600000
v 0.00700224 0.00066668 0.04600000
v 0.00722218 0.00077782 0.04050000
v 0.00715147 0.00084853 0.04050000
v 0.00738887 0.00091462 0.04050000
v 0.00715147 0.00084853 0.04150000
v 0.00733332 0.00099776 0.04050000
v 0.00733332 0.00099776 0.04150000
v 0.00715147 0.00084853 0.04330000
v 0.00733332 0.00099776 0.04330000
v 0.00715147 0.00084853 0.04600000
v 0.00733332 0.00099776 0.04600000
v 0.00891462 0.00061113 0.04050000
v 0.00899776 0.00066668 0.04050000
v 0.00899776 0.00066668 0.04150000
v 0.00899776 0.00066668 0.04330000
v 0.00899776 0.00066668 0.04600000
v 0.00757905 0.00101627 0.04050000
v 0.00754078 0.00110866 0.04050000
v 0.00778540 0.00107886 0.04050000
v 0.00754078 0.00110866 0.04150000
v 0.00800000 0.00110000 0.04050000
v 0.00821460 0.00107886 0.04050000
v 0.00776589 0.00117694 0.04050000
v 0.00776589 0.00117694 0.04150000
v 0.00800000 0.00120000 0.04050000
v 0.00823411 0.00117694 0.04050000
v 0.00800000 0.00120000 0.04150000
v 0.00823411 0.00117694 0.04150000
v 0.00861113 0.00091462 0.04050000
v 0.00842095 0.00101627 0.04050000
v 0.00845922 0.00110866 0.04050000
v 0.00845922 0.00110866 0.04150000
v 0.00877782 0.00077782 0.04050000
v 0.00884853 0.00084853 0.04050000
v 0.00884853 0.00084853 0.04150000
v 0.00866668 0.00099776 0.04050000
v 0.00866668 0.00099776 0.04150000
v 0.00754078 0.00110866 0.04330000
v 0.00754078 0.00110866 0.04600000
v 0.00776589 0.00117694 0.04330000
v 0.00800000 0.00120000 0.04330000
v 0.00824410 0.00117391 0.04330000
v 0.00823411 0.00117694 0.04330000
v 0.00776589 0.00117694 0.04600000
v 0.00800000 0.00120000 0.04600000
v 0.00823411 0.00117694 0.04600000
v 0.00845922 0.00110866 0.04330000
v 0.00884853 0.00084853 0.04330000
v 0.00866668 0.00099776 0.04330000
v 0.00845922 0.00110866 0.04600000
v 0.00884853 0.00084853 0.04600000
v 0.00866668 0.00099776 0.04600000
v 0.00910000 0.00000000 0.04000000
v 0.00907886 0.00021460 0.04000000
v 0.00901627 0.00042095 0.04000000
v 0.00910000 0.00000000 0.04050000
v 0.00920000 0.00000000 0.04050000
v 0.00920000 0.00000000 0.04150000
v 0.00924130 0.00000000 0.04150000
v 0.00907886 0.00021460 0.04050000
v 0.00917694 0.00023411 0.04050000
v 0.00917694 0.00023411 0.04150000
v 0.00901627 0.00042095 0.04050000
v 0.00910866 0.00045922 0.04050000
v 0.00910866 0.00045922 0.04150000
v 0.01048261 0.00000000 0.04150000
v 0.01015000 0.00057609 0.04150000
v 0.00920000 0.00000000 0.04330000
v 0.00917694 0.00023411 0.04330000
v 0.00920000 0.00000000 0.04600000
v 0.00917694 0.00023411 0.04600000
v 0.00910866 0.00045922 0.04330000
v 0.00910866 0.00045922 0.04600000
v 0.01048261 0.00000000 0.04330000
v 0.01015000 0.00057609 0.04330000
v 0.00924130 0.00147927 0.04150000
v 0.00924130 0.00147927 0.04330000
v 0.00904168 0.00180424 0.04330000
v 0.00600000 0.00480000 0.04000000
v 0.00601970 0.00500000 0.04000000
v 0.00602306 0.00503411 0.04000336
v 0.00607189 0.00519509 0.04001921
v 0.00609134 0.00525922 0.04003867
v 0.00615734 0.00538268 0.04007612
v 0.00620224 0.00546668 0.04012102
v 0.00627518 0.00555557 0.04016853
v 0.00635147 0.00564853 0.04024482
v 0.00642285 0.00570711 0.04029289
v 0.00653332 0.00579776 0.04040336
v 0.00659638 0.00583147 0.04044443
v 0.00674078 0.00590866 0.04058883
v 0.00679097 0.00592388 0.04061732
v 0.00696589 0.00597694 0.04079224
v 0.00700491 0.00598079 0.04080491
v 0.00720000 0.00600000 0.04100000
v 0.00899509 0.00598079 0.04080491
v 0.00880000 0.00600000 0.04100000
v 0.01000000 0.00480000 0.04000000
v 0.00998030 0.00500000 0.04000000
v 0.00997694 0.00503411 0.04000336
v 0.00992811 0.00519509 0.04001921
v 0.00972482 0.00555557 0.04016853
v 0.00964853 0.00564853 0.04024482
v 0.00990866 0.00525922 0.04003867
v 0.00984266 0.00538268 0.04007612
v 0.00979776 0.00546668 0.04012102
v 0.01100000 0.00500000 0.04000000
v 0.01119509 0.00500000 0.04001921
v 0.01100000 0.00519509 0.04001921
v 0.01120233 0.00520233 0.04004181
v 0.01138268 0.00500000 0.04007612
v 0.01155557 0.00500000 0.04016853
v 0.01140891 0.00520846 0.04011155
v 0.01160377 0.00521201 0.04023155
v 0.01100000 0.00538268 0.04007612
v 0.01120846 0.00540891 0.04011155
v 0.01100000 0.00555557 0.04016853
v 0.01121202 0.00560377 0.04023155
v 0.01142977 0.00542977 0.04020589
v 0.00903411 0.00597694 0.04079224
v 0.00925922 0.00590866 0.04058883
v 0.00920903 0.00592388 0.04061732
v 0.00946668 0.00579776 0.04040336
v 0.00957715 0.00570711 0.04029289
v 0.00940362 0.00583147 0.04044443
v 0.01015000 0.00600000 0.04150000
v 0.01015000 0.00600000 0.04330000
v 0.01170711 0.00500000 0.04029289
v 0.01183147 0.00500000 0.04044443
v 0.01192388 0.00500000 0.04061732
v 0.01198079 0.00500000 0.04080491
v 0.01200000 0.00500000 0.04100000
v 0.01176845 0.00521201 0.04039623
v 0.01188845 0.00520846 0.04059109
v 0.01195819 0.00520233 0.04079766
v 0.01198079 0.00519509 0.04100000
v 0.01100000 0.00500000 0.04600000
v 0.01119509 0.00500000 0.04598079
v 0.01100000 0.00519509 0.04598079
v 0.01120233 0.00520233 0.04595819
v 0.01138268 0.00500000 0.04592388
v 0.01155557 0.00500000 0.04583147
v 0.01140891 0.00520846 0.04588845
v 0.01160377 0.00521201 0.04576845
v 0.01200000 0.00500000 0.04500000
v 0.01198079 0.00500000 0.04519509
v 0.01170711 0.00500000 0.04570711
v 0.01183147 0.00500000 0.04555557
v 0.01192388 0.00500000 0.04538268
v 0.01198079 0.00519509 0.04500000
v 0.01195819 0.00520233 0.04520234
v 0.01176845 0.00521201 0.04560377
v 0.01188845 0.00520846 0.04540891
v 0.01100000 0.00570711 0.04029289
v 0.01121202 0.00576845 0.04039623
v 0.01100000 0.00583147 0.04044443
v 0.01100000 0.00592388 0.04061732
v 0.01100000 0.00598079 0.04080491
v 0.01120846 0.00588845 0.04059109
v 0.01120233 0.00595819 0.04079766
v 0.01100000 0.00600000 0.04100000
v 0.01119509 0.00598079 0.04100000
v 0.01179410 0.00542977 0.04057023
v 0.01188845 0.00540891 0.04079154
v 0.01192388 0.00538268 0.04100000
v 0.01163571 0.00543789 0.04036429
v 0.01176845 0.00560377 0.04078799
v 0.01183147 0.00555557 0.04100000
v 0.01142977 0.00579410 0.04057023
v 0.01143789 0.00563571 0.04036429
v 0.01160377 0.00576845 0.04078799
v 0.01140891 0.00588845 0.04079154
v 0.01138268 0.00592388 0.04100000
v 0.01155557 0.00583147 0.04100000
v 0.01163571 0.00563571 0.04056211
v 0.01170711 0.00570711 0.04100000
v 0.01100000 0.00538268 0.04592388
v 0.01120846 0.00540891 0.04588845
v 0.01100000 0.00555557 0.04583147
v 0.01121202 0.00560377 0.04576845
v 0.01100000 0.00570711 0.04570711
v 0.01121202 0.00576845 0.04560377
v 0.01100000 0.00600000 0.04500000
v 0.01100000 0.00598079 0.04519509
v 0.01119509 0.00598079 0.04500000
v 0.01120233 0.00595819 0.04520234
v 0.01100000 0.00583147 0.04555557
v 0.01100000 0.00592388 0.04538268
v 0.01120846 0.00588845 0.04540891
v 0.01142977 0.00542977 0.04579411
v 0.01188845 0.00540891 0.04520846
v 0.01192388 0.00538268 0.04500000
v 0.01179410 0.00542977 0.04542977
v 0.01176845 0.00560377 0.04521201
v 0.01183147 0.00555557 0.04500000
v 0.01163571 0.00543789 0.04563571
v 0.01160377 0.00576845 0.04521201
v 0.01142977 0.00579410 0.04542977
v 0.01143789 0.00563571 0.04563571
v 0.01140891 0.00588845 0.04520846
v 0.01138268 0.00592388 0.04500000
v 0.01155557 0.00583147 0.04500000
v 0.01170711 0.00570711 0.04500000
v 0.01163571 0.00563571 0.04543789
f 1 4 3
f 1 22 2
f 2 5 4
f 1 2 4
f 2 10 5
f 3 4 49
f 3 49 50
f 5 52 51
f 5 10 52
f 4 5 51
f 4 51 49
f 2 31 6
f 6 31 7
f 2 6 10
f 6 11 10
f 6 7 11
f 7 8 11
f 7 9 8
f 10 57 52
f 10 58 57
f 10 11 58
f 11 12 13
f 8 12 11
f 11 13 14
f 11 14 58
f 17 21 19
f 16 21 17
f 15 16 17
f 15 28 16
f 1 18 21
f 18 19 21
f 18 20 19
f 16 22 21
f 16 31 22
f 1 21 22
f 2 22 31
f 19 26 23
f 17 19 23
f 23 75 24
f 23 26 76
f 23 76 75
f 15 17 24
f 15 24 25
f 17 23 24
f 15 25 38
f 24 77 25
f 24 75 77
f 25 77 78
f 25 78 38
f 19 20 26
f 20 47 26
f 26 79 76
f 26 47 79
f 15 27 28
f 28 29 32
f 27 29 28
f 29 37 32
f 29 42 30
f 29 30 37
f 16 28 31
f 28 32 31
f 7 31 32
f 32 36 35
f 7 32 34
f 7 34 33
f 32 35 34
f 32 37 36
f 15 38 27
f 27 39 29
f 27 38 39
f 38 78 80
f 38 84 39
f 38 80 84
f 29 39 42
f 39 40 42
f 39 41 40
f 39 44 43
f 39 43 41
f 39 84 44
f 44 84 82
f 1 3 18
f 18 45 20
f 3 45 18
f 20 45 46
f 3 50 45
f 45 50 68
f 45 68 46
f 46 68 69
f 20 46 47
f 46 48 47
f 47 85 79
f 47 48 85
f 48 86 85
f 46 69 48
f 48 69 73
f 48 73 86
f 73 87 86
f 7 33 9
f 49 51 53
f 49 53 54
f 49 54 50
f 50 54 70
f 51 52 55
f 51 55 53
f 52 56 55
f 52 57 56
f 56 61 66
f 56 57 61
f 57 58 65
f 57 65 61
f 58 60 59
f 58 59 62
f 58 62 65
f 14 60 58
f 61 65 64
f 61 64 67
f 62 63 65
f 63 64 65
f 61 67 66
f 50 70 68
f 68 70 71
f 68 71 69
f 69 71 72
f 69 72 73
f 72 74 73
f 73 74 87
f 74 88 87
f 80 83 84
f 80 81 83
f 82 84 83
f 8 133 12
f 12 133 13
f 13 133 14
f 34 35 221
f 33 34 136
f 36 37 221
f 35 36 221
f 30 221 37
f 40 219 42
f 30 42 219
f 43 44 224
f 44 82 224
f 82 83 224
f 40 41 224
f 41 43 224
f 9 33 136
f 8 9 136
f 59 60 139
f 59 139 62
f 14 138 60
f 62 140 63
f 63 141 64
f 64 141 67
f 81 233 83
f 81 89 235
f 89 90 235
f 90 91 237
f 91 92 237
f 92 93 239
f 93 94 239
f 94 95 241
f 95 96 225
f 96 97 225
f 97 98 225
f 98 99 227
f 99 100 227
f 100 101 229
f 101 102 231
f 102 103 231
f 103 104 231
f 104 105 337
f 53 341 54
f 55 56 342
f 53 55 342
f 56 66 338
f 66 67 338
f 54 357 70
f 70 358 71
f 71 359 72
f 72 359 74
f 74 412 88
f 67 141 338
f 75 76 747
f 75 749 77
f 77 750 78
f 78 750 80
f 76 79 747
f 80 750 81
f 81 750 89
f 89 735 90
f 90 735 91
f 91 733 92
f 92 729 93
f 79 85 784
f 85 86 786
f 86 87 786
f 93 729 94
f 94 729 95
f 95 731 96
f 96 732 97
f 97 732 98
f 98 732 99
f 99 738 100
f 100 740 101
f 87 88 806
f 101 740 102
f 102 740 103
f 103 742 104
f 104 743 105
f 88 108 109
f 88 106 108
f 88 107 711
f 88 109 107
f 88 116 115
f 88 442 116
f 88 443 442
f 88 114 106
f 88 115 114
f 88 444 443
f 105 118 458
f 88 711 712
f 88 712 713
f 105 113 112
f 105 111 113
f 105 716 111
f 105 717 716
f 105 718 717
f 105 117 118
f 105 112 110
f 105 110 117
f 106 110 108
f 106 117 110
f 107 109 113
f 107 111 711
f 107 113 111
f 111 716 711
f 108 112 109
f 108 110 112
f 109 112 113
f 106 114 117
f 114 115 118
f 115 119 118
f 114 118 117
f 115 116 119
f 116 442 446
f 116 446 119
f 8 137 133
f 14 133 134
f 14 134 135
f 30 219 221
f 34 220 136
f 34 221 220
f 40 223 222
f 40 222 219
f 40 224 223
f 83 233 224
f 8 136 137
f 60 138 139
f 14 135 138
f 62 139 140
f 63 140 141
f 81 234 233
f 81 235 234
f 90 236 235
f 90 237 236
f 92 238 237
f 92 239 238
f 94 241 240
f 94 240 239
f 95 242 241
f 95 225 242
f 98 226 225
f 98 227 226
f 100 228 227
f 100 229 228
f 101 231 230
f 101 230 229
f 104 232 231
f 104 337 232
f 120 123 121
f 120 125 126
f 120 126 123
f 123 126 129
f 121 122 164
f 121 123 122
f 122 123 124
f 123 129 124
f 124 129 130
f 122 137 164
f 122 124 133
f 124 130 135
f 125 200 127
f 125 127 126
f 126 127 128
f 126 128 129
f 128 131 129
f 129 131 130
f 130 131 132
f 130 132 140
f 136 164 137
f 122 133 137
f 124 134 133
f 124 135 134
f 130 140 139
f 130 138 135
f 130 139 138
f 132 141 140
f 143 150 147
f 142 147 150
f 144 146 145
f 144 147 149
f 144 145 147
f 146 156 161
f 144 157 156
f 144 156 146
f 149 163 157
f 144 149 157
f 143 147 145
f 142 149 147
f 142 148 149
f 148 163 149
f 121 163 148
f 143 145 165
f 143 165 152
f 145 146 167
f 146 161 180
f 150 152 153
f 150 153 154
f 152 155 153
f 143 152 150
f 142 150 154
f 142 154 151
f 153 193 154
f 154 193 195
f 153 155 194
f 153 194 193
f 155 196 194
f 151 154 195
f 125 151 195
f 142 151 148
f 120 148 151
f 120 121 148
f 120 151 125
f 152 176 155
f 155 202 196
f 156 159 158
f 156 158 161
f 158 162 161
f 156 157 159
f 157 160 159
f 157 163 160
f 160 163 164
f 121 164 163
f 161 162 180
f 146 168 167
f 146 180 168
f 145 167 165
f 165 170 174
f 166 174 170
f 167 168 169
f 167 169 170
f 168 180 181
f 168 181 169
f 169 181 184
f 169 172 170
f 169 184 172
f 172 184 187
f 165 167 170
f 166 170 172
f 166 172 171
f 171 172 187
f 171 187 189
f 152 173 176
f 152 165 173
f 155 176 202
f 173 174 177
f 173 177 176
f 165 174 173
f 174 178 177
f 166 178 174
f 166 175 178
f 176 177 203
f 176 203 202
f 177 204 203
f 177 178 204
f 178 205 204
f 175 205 178
f 175 211 205
f 166 171 175
f 171 179 175
f 171 189 179
f 179 189 191
f 175 179 211
f 179 212 211
f 179 191 212
f 191 215 212
f 162 182 180
f 180 182 183
f 180 183 181
f 181 183 185
f 181 185 184
f 184 185 186
f 184 186 187
f 186 188 187
f 187 188 189
f 188 190 189
f 189 190 191
f 190 192 191
f 191 192 215
f 192 216 215
f 193 197 195
f 193 198 197
f 193 194 198
f 194 196 199
f 194 199 198
f 196 201 199
f 195 197 200
f 125 195 200
f 196 202 201
f 201 202 206
f 202 203 207
f 202 207 206
f 203 208 207
f 203 204 208
f 204 205 209
f 204 209 208
f 205 210 209
f 205 211 210
f 210 211 213
f 211 212 213
f 212 214 213
f 212 215 214
f 214 215 217
f 215 216 217
f 216 218 217
f 158 159 224
f 158 233 162
f 159 160 219
f 160 164 221
f 160 221 219
f 159 222 223
f 159 219 222
f 164 220 221
f 136 220 164
f 158 224 233
f 159 223 224
f 162 233 234
f 127 200 579
f 127 579 128
f 128 583 131
f 131 583 132
f 132 584 141
f 197 198 602
f 198 199 602
f 199 201 603
f 197 601 200
f 201 206 605
f 206 207 611
f 207 208 612
f 208 209 613
f 209 210 614
f 210 213 614
f 213 214 620
f 214 217 623
f 217 218 623
f 218 298 296
f 218 296 297
f 218 303 302
f 218 302 298
f 218 254 256
f 218 256 478
f 218 478 479
f 218 297 311
f 218 311 254
f 245 246 248
f 246 459 251
f 245 461 246
f 246 251 248
f 459 465 251
f 218 304 303
f 218 306 304
f 259 280 261
f 260 261 278
f 260 287 262
f 262 288 263
f 263 289 264
f 264 291 265
f 259 266 275
f 245 308 266
f 259 489 266
f 259 261 490
f 245 266 488
f 260 491 261
f 260 262 492
f 262 263 493
f 263 264 494
f 264 265 495
f 265 314 267
f 267 316 268
f 268 323 269
f 269 325 270
f 265 267 500
f 267 268 501
f 268 269 499
f 270 328 271
f 269 270 498
f 270 271 497
f 271 542 496
f 259 275 280
f 261 280 278
f 260 278 287
f 262 287 288
f 263 288 289
f 264 289 291
f 265 291 314
f 266 308 275
f 245 248 308
f 267 314 316
f 268 316 323
f 269 323 325
f 270 325 328
f 271 328 542
f 162 902 182
f 182 902 183
f 183 903 185
f 185 906 186
f 186 909 188
f 188 909 190
f 190 911 192
f 192 939 216
f 216 939 218
f 225 226 832
f 226 227 833
f 227 228 833
f 228 229 835
f 229 230 835
f 230 231 837
f 231 232 838
f 232 337 839
f 238 239 841
f 237 238 847
f 236 237 847
f 235 236 848
f 162 234 902
f 239 240 841
f 240 241 842
f 241 242 842
f 225 832 242
f 234 235 902
f 218 941 306
f 105 708 337
f 337 708 840
f 941 320 306
f 941 321 320
f 941 333 321
f 941 334 333
f 941 336 334
f 941 556 336
f 941 557 556
f 941 561 557
f 941 562 561
f 941 573 562
f 941 574 573
f 53 342 340
f 53 340 341
f 54 341 357
f 56 338 343
f 56 343 342
f 70 357 358
f 71 358 359
f 74 359 362
f 74 362 412
f 88 412 444
f 141 339 338
f 338 339 348
f 338 348 343
f 340 344 341
f 340 346 344
f 341 345 357
f 341 344 345
f 340 342 346
f 342 343 347
f 342 347 346
f 343 348 347
f 339 349 348
f 348 349 351
f 349 350 351
f 350 352 351
f 347 348 353
f 348 351 353
f 351 355 353
f 351 352 355
f 352 354 355
f 354 356 355
f 355 356 370
f 345 360 357
f 357 360 358
f 358 360 361
f 358 361 359
f 359 361 363
f 359 363 362
f 362 363 413
f 362 413 412
f 344 364 345
f 344 366 364
f 346 347 365
f 347 353 365
f 344 346 366
f 346 365 366
f 364 366 368
f 365 367 366
f 366 367 368
f 365 369 367
f 367 385 368
f 367 374 385
f 353 369 365
f 353 355 369
f 355 372 369
f 355 370 371
f 355 371 372
f 371 373 372
f 372 373 375
f 367 369 374
f 369 372 374
f 372 377 374
f 374 377 394
f 372 375 377
f 375 376 377
f 345 379 360
f 345 364 379
f 360 378 361
f 360 379 378
f 364 382 379
f 364 368 382
f 379 382 383
f 378 379 383
f 361 380 363
f 361 378 380
f 363 380 414
f 363 414 413
f 378 381 380
f 378 383 381
f 380 381 415
f 380 415 414
f 381 416 415
f 376 395 377
f 368 386 382
f 382 384 383
f 382 386 384
f 368 385 386
f 385 387 386
f 385 401 387
f 384 386 388
f 386 387 388
f 387 389 388
f 387 401 389
f 381 383 390
f 383 384 390
f 381 390 416
f 390 417 416
f 384 391 390
f 384 388 391
f 390 391 417
f 391 418 417
f 391 392 418
f 388 389 392
f 388 392 391
f 389 393 392
f 389 402 393
f 392 393 419
f 392 419 418
f 393 420 419
f 393 421 420
f 374 394 385
f 377 398 394
f 385 394 401
f 394 398 401
f 377 395 396
f 377 396 398
f 396 397 398
f 397 399 398
f 398 399 400
f 389 401 402
f 398 404 401
f 401 404 402
f 398 400 404
f 400 403 404
f 403 406 404
f 393 402 405
f 402 404 409
f 402 409 405
f 393 405 421
f 405 409 425
f 405 425 421
f 404 406 407
f 404 407 409
f 407 408 409
f 408 410 409
f 409 410 411
f 409 411 425
f 411 423 425
f 421 425 424
f 421 424 422
f 423 424 425
f 339 592 349
f 349 593 350
f 350 593 352
f 352 594 354
f 354 594 356
f 356 594 370
f 370 596 371
f 371 597 373
f 373 598 375
f 375 598 376
f 376 599 395
f 395 600 396
f 396 600 397
f 397 600 399
f 399 600 400
f 400 680 403
f 403 680 406
f 406 680 407
f 407 682 408
f 410 684 411
f 411 684 423
f 408 684 410
f 423 694 424
f 422 424 695
f 422 695 429
f 426 687 458
f 426 427 687
f 427 428 688
f 428 439 688
f 429 696 430
f 431 699 432
f 430 696 431
f 432 699 437
f 439 440 691
f 433 692 441
f 433 438 692
f 440 441 691
f 434 701 438
f 434 435 701
f 436 437 702
f 435 436 702
f 412 445 444
f 412 450 445
f 412 451 450
f 412 452 451
f 118 119 458
f 442 443 447
f 442 447 446
f 443 448 447
f 443 444 448
f 444 445 449
f 444 449 448
f 445 454 449
f 445 450 454
f 450 455 454
f 450 451 455
f 451 452 456
f 451 456 455
f 452 453 457
f 453 1060 1065
f 452 457 456
f 453 1065 457
f 119 446 458
f 446 447 458
f 447 448 458
f 448 449 458
f 449 454 458
f 454 455 458
f 455 456 458
f 105 458 708
f 412 1087 452
f 456 1068 458
f 412 413 1087
f 426 458 1069
f 426 1070 427
f 427 1070 428
f 413 414 1114
f 414 415 1114
f 415 416 1116
f 416 417 1122
f 417 418 1123
f 418 419 1125
f 419 420 1125
f 420 421 1126
f 421 422 1126
f 422 429 1126
f 429 430 1081
f 430 431 1079
f 431 432 1079
f 433 441 1084
f 433 1074 438
f 434 438 1074
f 435 1075 436
f 434 1075 435
f 436 1078 437
f 432 437 1078
f 428 1083 439
f 439 1083 440
f 440 1084 441
f 141 592 339
f 246 460 459
f 459 460 465
f 246 461 460
f 460 461 468
f 460 468 465
f 461 471 468
f 218 479 624
f 128 579 580
f 128 580 583
f 132 583 584
f 141 584 592
f 197 602 601
f 199 603 602
f 201 605 603
f 200 601 604
f 200 604 579
f 206 610 605
f 206 611 610
f 207 612 611
f 208 613 612
f 209 614 613
f 213 619 614
f 213 620 619
f 214 623 620
f 218 624 623
f 624 479 481
f 624 481 506
f 624 506 531
f 624 531 532
f 624 532 533
f 624 533 539
f 624 539 540
f 245 488 461
f 266 489 488
f 259 490 489
f 261 491 490
f 260 492 491
f 461 488 471
f 488 489 502
f 262 493 492
f 263 494 493
f 264 495 494
f 265 500 495
f 489 490 508
f 490 491 512
f 491 492 514
f 492 493 516
f 493 494 517
f 494 495 518
f 495 500 519
f 267 501 500
f 268 499 501
f 270 497 498
f 269 498 499
f 271 496 497
f 496 545 497
f 497 548 498
f 499 564 501
f 498 551 499
f 500 501 563
f 488 502 471
f 489 508 502
f 490 512 508
f 491 514 512
f 492 516 514
f 493 517 516
f 494 518 517
f 495 519 518
f 496 542 545
f 497 545 548
f 499 551 564
f 498 548 551
f 501 564 563
f 500 563 519
f 624 541 535
f 624 540 541
f 624 535 574
f 349 592 593
f 352 593 594
f 370 594 595
f 370 595 596
f 371 596 597
f 373 597 598
f 376 598 599
f 395 599 600
f 400 600 679
f 400 679 680
f 407 680 681
f 407 681 682
f 408 682 683
f 408 683 684
f 423 684 694
f 424 694 695
f 429 695 696
f 458 686 708
f 458 687 686
f 427 688 687
f 439 689 688
f 431 696 697
f 431 697 698
f 431 698 699
f 437 699 703
f 439 690 689
f 439 691 690
f 441 692 691
f 438 693 692
f 438 700 693
f 438 701 700
f 435 702 701
f 437 703 702
f 579 604 581
f 579 582 580
f 579 581 582
f 580 585 583
f 580 582 585
f 583 586 584
f 583 585 586
f 584 586 593
f 581 587 582
f 582 588 585
f 582 587 588
f 587 590 588
f 585 589 586
f 585 588 589
f 588 591 589
f 588 590 591
f 590 642 591
f 586 589 595
f 589 591 597
f 591 642 599
f 584 593 592
f 586 594 593
f 586 595 594
f 589 596 595
f 589 597 596
f 591 598 597
f 591 599 598
f 599 642 600
f 601 602 606
f 601 606 608
f 602 603 607
f 603 605 609
f 602 607 606
f 603 609 607
f 601 608 604
f 581 604 608
f 605 615 609
f 605 610 615
f 610 611 615
f 611 612 616
f 611 616 615
f 612 617 616
f 612 613 617
f 613 618 617
f 613 614 618
f 614 621 618
f 614 619 621
f 619 620 622
f 619 622 621
f 620 623 625
f 620 625 622
f 623 624 626
f 623 626 625
f 606 628 608
f 606 607 627
f 607 609 629
f 607 629 627
f 606 627 628
f 581 608 630
f 608 628 630
f 627 631 628
f 627 629 632
f 627 632 631
f 628 633 630
f 628 631 633
f 631 632 634
f 581 630 587
f 587 630 635
f 630 633 635
f 587 635 590
f 609 650 629
f 629 650 632
f 631 636 633
f 631 634 636
f 633 637 635
f 633 636 637
f 634 639 636
f 590 635 641
f 635 637 641
f 636 638 637
f 636 639 638
f 638 639 640
f 637 643 641
f 637 638 643
f 638 644 643
f 638 640 644
f 640 648 644
f 632 657 634
f 634 657 639
f 639 664 640
f 640 664 648
f 590 641 642
f 641 645 642
f 641 643 645
f 643 646 645
f 643 644 646
f 644 647 646
f 644 648 647
f 647 648 649
f 642 645 679
f 648 671 649
f 649 673 685
f 609 615 650
f 632 650 653
f 632 653 657
f 615 616 650
f 616 617 651
f 616 651 650
f 617 618 652
f 617 652 651
f 618 621 655
f 618 655 652
f 650 651 653
f 651 654 653
f 653 654 657
f 651 652 654
f 652 655 658
f 652 658 654
f 621 622 656
f 621 656 655
f 622 625 665
f 622 665 656
f 655 656 660
f 655 660 658
f 656 665 667
f 656 667 660
f 639 657 662
f 639 662 664
f 648 664 671
f 654 659 657
f 654 658 659
f 657 659 662
f 658 660 661
f 658 661 659
f 660 667 669
f 660 669 661
f 659 663 662
f 662 663 664
f 663 672 664
f 663 675 672
f 664 672 671
f 659 661 663
f 661 675 663
f 661 669 675
f 625 626 666
f 625 666 665
f 665 666 668
f 665 668 667
f 667 668 670
f 649 671 673
f 667 670 669
f 669 670 676
f 671 674 673
f 671 672 674
f 672 677 674
f 669 676 675
f 675 676 677
f 672 675 677
f 645 646 681
f 646 647 683
f 647 649 694
f 600 642 679
f 645 680 679
f 645 681 680
f 646 682 681
f 646 683 682
f 649 678 695
f 649 685 678
f 647 684 683
f 647 694 684
f 649 695 694
f 695 678 709
f 673 710 685
f 695 709 696
f 624 574 941
f 624 1350 626
f 626 1390 666
f 666 1390 668
f 668 1392 670
f 670 1400 676
f 673 674 1396
f 674 677 1397
f 676 1400 677
f 686 1293 708
f 686 687 1293
f 687 688 1294
f 688 689 1295
f 690 691 1297
f 689 690 1297
f 691 692 1297
f 692 693 1299
f 693 700 1299
f 699 1303 703
f 697 1305 698
f 696 1307 697
f 698 1305 699
f 700 701 1301
f 702 703 1303
f 701 702 1303
f 673 1396 710
f 696 709 1396
f 1396 709 710
f 92 733 728
f 92 728 729
f 95 730 731
f 95 729 730
f 96 731 727
f 96 727 732
f 99 732 737
f 89 736 735
f 91 734 733
f 91 735 734
f 99 737 738
f 100 738 739
f 100 739 740
f 103 740 741
f 103 741 742
f 104 742 743
f 88 713 806
f 105 743 718
f 75 746 749
f 75 747 746
f 77 749 750
f 79 753 747
f 79 784 753
f 89 750 736
f 85 786 784
f 87 804 786
f 87 806 804
f 718 743 719
f 719 743 720
f 720 743 724
f 724 743 725
f 725 743 726
f 726 743 1054
f 743 1055 1054
f 711 716 712
f 712 717 713
f 712 716 717
f 713 717 718
f 713 718 714
f 714 719 715
f 714 718 719
f 715 720 721
f 715 719 720
f 721 724 722
f 722 725 723
f 720 724 721
f 722 724 725
f 723 726 1050
f 723 725 726
f 726 1054 1050
f 743 1056 1055
f 713 714 806
f 714 715 806
f 715 721 806
f 721 722 806
f 736 750 744
f 744 750 763
f 744 763 745
f 745 763 766
f 745 766 765
f 746 748 751
f 746 747 748
f 747 754 748
f 748 754 758
f 748 758 756
f 746 751 749
f 749 752 750
f 749 751 752
f 750 752 763
f 751 755 752
f 748 756 751
f 751 756 755
f 752 755 764
f 747 753 754
f 753 785 754
f 754 759 758
f 754 785 759
f 756 758 761
f 755 756 757
f 756 761 757
f 755 757 774
f 758 760 761
f 758 759 760
f 760 790 761
f 757 761 762
f 757 762 774
f 761 790 762
f 752 764 763
f 763 764 766
f 764 769 766
f 755 773 764
f 764 773 769
f 769 773 775
f 765 766 767
f 766 769 767
f 767 769 768
f 768 769 770
f 769 771 770
f 769 775 771
f 771 775 772
f 755 774 773
f 773 774 775
f 774 780 775
f 772 775 776
f 775 780 776
f 762 777 774
f 774 777 780
f 762 795 777
f 777 796 780
f 776 780 778
f 778 780 779
f 779 780 781
f 780 782 781
f 780 796 782
f 782 796 783
f 753 784 785
f 784 786 787
f 784 787 785
f 759 785 789
f 785 787 789
f 786 804 805
f 786 805 787
f 787 808 789
f 787 805 808
f 759 789 788
f 759 788 760
f 760 792 790
f 760 788 792
f 788 789 809
f 789 808 809
f 788 813 792
f 788 809 813
f 783 796 797
f 790 792 793
f 762 790 791
f 762 791 795
f 790 793 791
f 791 793 794
f 791 794 799
f 792 814 793
f 792 813 814
f 793 815 794
f 793 814 815
f 794 815 816
f 794 816 799
f 777 795 796
f 791 799 795
f 795 801 796
f 795 799 801
f 796 798 797
f 796 801 798
f 799 823 801
f 799 816 821
f 799 821 823
f 798 801 800
f 800 801 802
f 801 823 802
f 802 823 803
f 804 806 807
f 804 807 805
f 805 807 810
f 805 810 808
f 808 810 811
f 808 811 809
f 809 811 812
f 809 812 813
f 813 817 814
f 812 817 813
f 814 818 815
f 814 817 818
f 815 819 816
f 815 818 819
f 816 819 820
f 816 820 821
f 820 825 821
f 821 829 823
f 821 825 829
f 803 823 822
f 822 823 824
f 823 826 824
f 823 829 826
f 825 828 829
f 820 831 825
f 825 830 828
f 826 829 827
f 827 829 828
f 825 831 830
f 729 842 730
f 728 842 729
f 730 843 731
f 727 731 843
f 737 834 738
f 732 832 737
f 727 832 732
f 738 834 739
f 734 735 847
f 735 736 847
f 728 733 846
f 733 734 846
f 739 837 740
f 740 837 741
f 741 839 742
f 742 839 743
f 736 744 850
f 744 745 850
f 745 765 849
f 765 767 873
f 767 768 873
f 770 771 874
f 771 772 874
f 772 776 874
f 768 770 873
f 776 778 877
f 778 779 851
f 779 781 851
f 781 782 851
f 782 783 851
f 783 797 852
f 797 798 853
f 798 800 853
f 800 802 854
f 802 803 855
f 803 822 857
f 822 824 857
f 824 826 857
f 826 827 858
f 827 828 858
f 828 830 859
f 722 1087 806
f 806 1088 807
f 807 1088 810
f 810 1091 811
f 811 1093 812
f 812 1097 817
f 817 1097 818
f 818 1099 819
f 819 1100 820
f 820 1100 831
f 830 831 1096
f 743 840 1068
f 226 833 832
f 228 834 833
f 230 836 835
f 228 835 834
f 230 837 836
f 231 838 837
f 232 839 838
f 337 840 839
f 238 841 845
f 240 842 841
f 242 843 842
f 242 844 843
f 242 832 844
f 238 845 846
f 238 846 847
f 236 847 848
f 235 848 902
f 183 902 903
f 185 903 906
f 186 906 907
f 186 907 909
f 190 909 911
f 192 911 913
f 192 913 939
f 218 939 941
f 624 941 979
f 728 841 842
f 730 842 843
f 727 843 844
f 727 844 832
f 737 832 833
f 737 833 834
f 739 834 835
f 739 835 836
f 728 845 841
f 728 846 845
f 734 847 846
f 736 848 847
f 739 836 837
f 741 837 838
f 741 838 839
f 743 839 840
f 736 850 848
f 745 849 850
f 765 873 849
f 770 875 873
f 770 874 875
f 776 876 874
f 776 877 876
f 778 878 877
f 778 851 878
f 783 852 851
f 797 853 852
f 800 854 853
f 802 855 854
f 803 856 855
f 803 857 856
f 826 858 857
f 828 859 858
f 851 852 886
f 852 853 860
f 853 854 860
f 854 855 862
f 855 856 862
f 856 857 865
f 857 858 865
f 858 859 867
f 852 860 886
f 854 862 860
f 856 865 862
f 860 861 886
f 860 863 861
f 860 862 863
f 862 866 863
f 862 865 866
f 861 863 864
f 863 869 864
f 863 866 869
f 864 869 870
f 858 867 865
f 865 868 866
f 865 867 868
f 866 871 869
f 866 868 871
f 869 872 870
f 869 871 872
f 870 872 934
f 849 884 850
f 873 875 879
f 849 873 879
f 848 850 902
f 874 880 875
f 874 876 880
f 876 877 881
f 877 878 881
f 851 886 878
f 849 879 884
f 875 880 879
f 876 881 880
f 850 884 902
f 878 886 881
f 879 880 882
f 879 885 884
f 879 882 885
f 880 883 882
f 880 881 883
f 881 887 883
f 881 886 887
f 861 887 886
f 884 885 904
f 882 889 885
f 882 883 888
f 882 888 889
f 883 887 891
f 883 891 888
f 888 890 889
f 888 891 892
f 888 892 890
f 887 893 891
f 861 893 887
f 890 892 895
f 891 894 892
f 891 893 894
f 892 896 895
f 892 894 896
f 885 889 904
f 889 890 917
f 890 895 921
f 895 898 921
f 861 864 893
f 893 897 894
f 864 897 893
f 864 870 897
f 895 896 898
f 894 899 896
f 894 897 899
f 896 900 898
f 896 899 900
f 898 900 901
f 897 930 899
f 870 930 897
f 899 931 900
f 899 930 931
f 900 932 901
f 900 931 932
f 901 932 933
f 898 901 928
f 901 933 928
f 884 904 902
f 902 904 903
f 903 905 906
f 903 904 905
f 905 908 906
f 906 908 907
f 907 908 910
f 907 910 909
f 909 910 912
f 909 912 911
f 911 912 914
f 911 914 913
f 913 914 940
f 913 940 939
f 889 915 904
f 889 917 915
f 890 921 917
f 904 915 905
f 905 916 908
f 905 915 916
f 915 917 916
f 916 917 918
f 908 919 910
f 908 916 919
f 916 918 919
f 917 921 918
f 910 919 920
f 910 920 912
f 918 922 919
f 919 922 920
f 918 921 924
f 918 924 922
f 898 925 921
f 898 928 925
f 928 933 947
f 912 920 923
f 912 923 914
f 920 922 926
f 920 926 923
f 914 923 943
f 914 943 940
f 923 926 944
f 923 944 943
f 921 925 924
f 924 925 927
f 925 928 927
f 922 924 929
f 922 929 926
f 924 927 929
f 927 928 948
f 928 947 948
f 927 948 950
f 926 929 949
f 926 949 944
f 927 950 929
f 929 950 949
f 870 934 930
f 930 934 935
f 930 935 931
f 931 935 936
f 931 936 932
f 932 937 933
f 932 936 937
f 933 937 938
f 933 938 951
f 939 940 942
f 939 942 941
f 933 951 947
f 940 943 945
f 940 945 942
f 943 944 946
f 943 946 945
f 944 953 946
f 947 952 948
f 947 951 952
f 948 952 955
f 949 954 953
f 944 949 953
f 949 950 954
f 950 955 954
f 948 955 950
f 830 1311 859
f 941 1024 979
f 941 1021 1020
f 941 1020 1024
f 958 975 959
f 960 961 982
f 958 960 974
f 961 962 985
f 962 1178 988
f 960 1181 961
f 961 1180 962
f 958 1182 960
f 958 959 1183
f 959 1003 963
f 963 1004 964
f 964 1006 965
f 965 1007 966
f 966 1008 967
f 967 1011 968
f 968 1014 969
f 959 963 1185
f 963 964 1186
f 964 965 1187
f 965 966 1188
f 969 1032 970
f 970 1040 1038
f 966 967 1190
f 967 968 1189
f 968 969 1191
f 969 970 1184
f 970 1038 1268
f 959 975 1003
f 958 974 975
f 961 985 982
f 960 982 974
f 962 988 985
f 1178 1193 988
f 963 1003 1004
f 964 1004 1006
f 965 1006 1007
f 966 1007 1008
f 967 1008 1011
f 968 1011 1014
f 969 1014 1032
f 970 1032 1040
f 859 1311 867
f 867 1320 868
f 868 1324 871
f 871 1324 872
f 941 1022 1021
f 941 1028 1022
f 941 1029 1028
f 941 1030 1029
f 941 1035 1030
f 941 1047 1035
f 941 1049 1047
f 872 1341 934
f 934 1341 935
f 935 1343 936
f 936 1343 937
f 937 1345 938
f 941 942 1351
f 938 1358 951
f 942 945 1354
f 945 946 1354
f 951 1359 952
f 952 1359 955
f 946 953 1360
f 953 954 1360
f 954 955 1361
f 1038 1043 1039
f 1038 1039 1267
f 1039 1269 1266
f 1038 1040 1043
f 1039 1043 1269
f 941 1350 1049
f 1050 1054 1051
f 1051 1055 1052
f 1051 1054 1055
f 1052 1056 1053
f 1053 1057 1062
f 1053 1056 1057
f 1052 1055 1056
f 1058 1059 1064
f 1058 1064 1063
f 1059 1067 1064
f 1060 1061 1066
f 1058 1063 1061
f 1060 1066 1065
f 1061 1063 1066
f 1059 1062 1067
f 1057 1067 1062
f 1057 1068 1067
f 1064 1067 1068
f 1056 1068 1057
f 452 1087 453
f 453 1087 1060
f 456 457 1068
f 457 1065 1068
f 1065 1066 1068
f 1063 1068 1066
f 1063 1064 1068
f 743 1068 1056
f 722 723 1087
f 1052 1053 1087
f 1053 1062 1087
f 723 1050 1087
f 1050 1051 1087
f 1051 1052 1087
f 1058 1061 1087
f 1060 1087 1061
f 1059 1087 1062
f 1058 1087 1059
f 458 1068 1069
f 426 1069 1070
f 428 1070 1071
f 428 1071 1082
f 433 1084 1072
f 433 1072 1073
f 433 1073 1074
f 434 1074 1075
f 436 1076 1077
f 436 1075 1076
f 430 1080 1081
f 436 1077 1078
f 432 1078 1079
f 430 1079 1080
f 428 1082 1083
f 440 1083 1084
f 413 1089 1087
f 413 1114 1089
f 415 1116 1114
f 416 1120 1116
f 416 1122 1120
f 417 1123 1122
f 418 1125 1123
f 420 1126 1125
f 429 1081 1126
f 806 1087 1088
f 810 1088 1091
f 811 1091 1092
f 811 1092 1093
f 812 1093 1097
f 818 1097 1098
f 818 1098 1099
f 819 1099 1100
f 831 1105 1096
f 831 1100 1105
f 830 1096 1311
f 1081 1085 1126
f 1085 1137 1126
f 1085 1086 1137
f 1086 1140 1137
f 1086 1139 1140
f 1087 1089 1088
f 1088 1089 1090
f 1088 1090 1091
f 1090 1094 1091
f 1091 1094 1092
f 1092 1094 1095
f 1092 1095 1093
f 1093 1095 1101
f 1093 1101 1097
f 1097 1101 1102
f 1097 1102 1098
f 1098 1102 1103
f 1098 1103 1099
f 1099 1104 1100
f 1099 1103 1104
f 1100 1104 1105
f 1096 1105 1108
f 1096 1108 1106
f 1106 1108 1107
f 1107 1108 1109
f 1104 1110 1105
f 1105 1110 1108
f 1108 1110 1113
f 1111 1113 1164
f 1108 1113 1109
f 1109 1113 1112
f 1111 1112 1113
f 1089 1114 1090
f 1090 1114 1115
f 1090 1115 1094
f 1094 1115 1118
f 1114 1116 1115
f 1115 1116 1117
f 1116 1120 1117
f 1115 1117 1118
f 1117 1129 1118
f 1094 1118 1095
f 1095 1118 1119
f 1095 1119 1101
f 1101 1119 1158
f 1118 1129 1119
f 1119 1131 1158
f 1119 1129 1131
f 1131 1162 1158
f 1152 1169 1171
f 1117 1120 1121
f 1120 1122 1121
f 1117 1121 1129
f 1121 1130 1129
f 1122 1123 1124
f 1121 1122 1124
f 1123 1127 1124
f 1121 1124 1130
f 1124 1134 1130
f 1123 1125 1127
f 1125 1126 1128
f 1125 1128 1127
f 1126 1137 1128
f 1124 1127 1134
f 1127 1128 1136
f 1127 1136 1134
f 1128 1138 1136
f 1129 1130 1131
f 1130 1133 1131
f 1131 1133 1162
f 1132 1162 1133
f 1132 1133 1135
f 1132 1135 1154
f 1130 1134 1133
f 1134 1136 1135
f 1133 1134 1135
f 1135 1136 1155
f 1128 1137 1138
f 1137 1140 1138
f 1138 1140 1146
f 1136 1138 1155
f 1138 1146 1155
f 1146 1157 1155
f 1139 1141 1140
f 1140 1141 1146
f 1142 1144 1146
f 1141 1142 1146
f 1143 1157 1145
f 1144 1145 1146
f 1145 1157 1146
f 1132 1147 1168
f 1147 1153 1171
f 1132 1154 1147
f 1147 1154 1153
f 1148 1149 1153
f 1150 1151 1153
f 1151 1152 1171
f 1151 1171 1153
f 1149 1150 1153
f 1135 1155 1154
f 1154 1155 1157
f 1153 1154 1157
f 1148 1157 1156
f 1143 1156 1157
f 1148 1153 1157
f 1101 1158 1102
f 1102 1158 1160
f 1102 1160 1103
f 1103 1160 1159
f 1103 1159 1104
f 1104 1159 1110
f 1158 1162 1160
f 1160 1162 1161
f 1159 1160 1161
f 1159 1161 1163
f 1132 1161 1162
f 1132 1168 1161
f 1113 1163 1167
f 1110 1159 1163
f 1110 1163 1113
f 1113 1167 1164
f 1164 1167 1165
f 1166 1167 1170
f 1165 1167 1166
f 1161 1168 1163
f 1167 1168 1171
f 1163 1168 1167
f 1147 1171 1168
f 1169 1170 1171
f 1167 1171 1170
f 1068 1292 1069
f 1069 1294 1070
f 1070 1294 1071
f 1071 1294 1082
f 1082 1296 1083
f 1083 1298 1084
f 1072 1084 1298
f 1072 1300 1073
f 1073 1300 1074
f 1074 1300 1075
f 1075 1302 1076
f 1076 1302 1077
f 1079 1306 1080
f 1077 1304 1078
f 1078 1306 1079
f 1080 1308 1081
f 1081 1308 1085
f 1085 1310 1086
f 1139 1310 1141
f 1086 1310 1139
f 1096 1106 1313
f 1106 1107 1313
f 1107 1109 1313
f 1111 1164 1314
f 1109 1112 1313
f 1111 1313 1112
f 1152 1319 1169
f 1151 1315 1152
f 1141 1335 1142
f 1142 1335 1144
f 1143 1338 1156
f 1143 1145 1338
f 1144 1334 1145
f 1148 1156 1336
f 1149 1336 1150
f 1148 1336 1149
f 1150 1336 1151
f 1164 1165 1319
f 1165 1166 1319
f 1169 1319 1170
f 1166 1170 1319
f 624 979 980
f 624 980 992
f 624 992 993
f 624 993 995
f 708 1292 840
f 624 995 1209
f 624 1209 1210
f 624 1210 1213
f 624 1213 1214
f 624 1214 1223
f 624 1223 1224
f 624 1224 1252
f 624 1252 1257
f 624 1257 1350
f 708 1293 1292
f 687 1294 1293
f 688 1295 1294
f 689 1296 1295
f 689 1297 1296
f 692 1298 1297
f 692 1299 1298
f 700 1300 1299
f 700 1301 1300
f 701 1302 1301
f 701 1303 1302
f 699 1304 1303
f 699 1305 1304
f 696 1176 1308
f 696 1177 1176
f 697 1306 1305
f 697 1307 1306
f 696 1308 1307
f 626 1350 1352
f 696 1396 1177
f 626 1352 1390
f 668 1390 1392
f 670 1392 1394
f 670 1394 1400
f 674 1397 1396
f 677 1400 1401
f 677 1401 1397
f 840 1292 1068
f 962 1179 1178
f 1178 1179 1193
f 962 1180 1179
f 961 1181 1180
f 1179 1180 1197
f 960 1182 1181
f 958 1183 1182
f 959 1185 1183
f 1180 1181 1200
f 1181 1182 1202
f 1182 1183 1215
f 1183 1185 1217
f 963 1186 1185
f 964 1187 1186
f 965 1188 1187
f 966 1190 1188
f 967 1189 1190
f 970 1268 1184
f 968 1191 1189
f 969 1184 1191
f 1184 1268 1225
f 1184 1246 1191
f 1185 1186 1230
f 1186 1187 1232
f 1187 1188 1234
f 1188 1190 1235
f 1189 1243 1190
f 1189 1191 1242
f 1179 1197 1193
f 1180 1200 1197
f 1181 1202 1200
f 1182 1215 1202
f 1183 1217 1215
f 1268 1276 1225
f 1184 1225 1246
f 1185 1230 1217
f 1186 1232 1230
f 1187 1234 1232
f 1188 1235 1234
f 1190 1243 1235
f 1189 1242 1243
f 1191 1246 1242
f 1350 1257 1258
f 1039 1266 1267
f 1038 1267 1268
f 1266 1273 1267
f 1267 1276 1268
f 1266 1269 1273
f 1267 1273 1276
f 867 1311 1320
f 868 1320 1321
f 868 1321 1324
f 872 1324 1325
f 872 1325 1341
f 1350 1229 1286
f 1350 1264 1229
f 1350 1283 1049
f 1350 1284 1283
f 1350 1286 1284
f 1350 1259 1263
f 1350 1258 1259
f 1350 1265 1264
f 1350 1263 1265
f 935 1341 1342
f 935 1342 1343
f 937 1343 1344
f 937 1344 1345
f 938 1345 1358
f 941 1351 1350
f 942 1354 1351
f 946 1355 1354
f 946 1360 1355
f 951 1358 1359
f 954 1361 1360
f 955 1362 1361
f 955 1359 1362
f 1069 1292 1293
f 1069 1293 1294
f 1082 1294 1295
f 1082 1295 1296
f 1083 1296 1297
f 1083 1297 1298
f 1072 1298 1299
f 1072 1299 1300
f 1075 1300 1301
f 1075 1301 1302
f 1077 1302 1303
f 1077 1303 1304
f 1078 1304 1305
f 1078 1305 1306
f 1080 1306 1307
f 1080 1307 1308
f 1085 1308 1310
f 1141 1310 1309
f 1096 1312 1311
f 1096 1313 1312
f 1164 1317 1314
f 1111 1314 1313
f 1152 1315 1319
f 1151 1316 1315
f 1141 1309 1333
f 1141 1333 1335
f 1145 1334 1338
f 1144 1335 1334
f 1151 1337 1316
f 1151 1336 1337
f 1156 1338 1336
f 1164 1318 1317
f 1164 1319 1318
f 1308 1176 1310
f 1310 1176 1339
f 1311 1312 1320
f 1313 1314 1322
f 1312 1313 1322
f 1315 1316 1330
f 1314 1317 1328
f 1317 1318 1328
f 1318 1319 1328
f 1315 1330 1319
f 1312 1322 1320
f 1320 1322 1321
f 1321 1322 1323
f 1321 1323 1324
f 1323 1326 1324
f 1324 1326 1325
f 1325 1326 1327
f 1325 1327 1341
f 1314 1328 1322
f 1319 1330 1328
f 1322 1328 1323
f 1323 1328 1329
f 1328 1330 1329
f 1329 1330 1331
f 1330 1367 1331
f 1316 1367 1330
f 1323 1329 1326
f 1326 1329 1332
f 1326 1332 1327
f 1329 1331 1332
f 1309 1310 1374
f 1333 1370 1335
f 1309 1371 1333
f 1316 1337 1367
f 1336 1369 1337
f 1334 1369 1338
f 1334 1335 1370
f 1336 1338 1369
f 1310 1339 1374
f 1334 1370 1369
f 1333 1371 1370
f 1309 1374 1371
f 1374 1339 1340
f 1396 1340 1177
f 1327 1346 1341
f 1341 1346 1342
f 1342 1347 1343
f 1342 1346 1347
f 1343 1348 1344
f 1344 1349 1345
f 1343 1347 1348
f 1344 1348 1349
f 1345 1349 1358
f 1350 1351 1352
f 1351 1353 1352
f 1349 1363 1358
f 1351 1354 1353
f 1353 1354 1356
f 1354 1355 1356
f 1355 1357 1356
f 1355 1360 1357
f 1358 1363 1359
f 1359 1364 1362
f 1359 1363 1364
f 1360 1361 1365
f 1357 1360 1365
f 1361 1362 1366
f 1361 1366 1365
f 1362 1364 1366
f 1337 1369 1367
f 1331 1367 1368
f 1367 1369 1368
f 1368 1369 1372
f 1369 1370 1372
f 1370 1373 1372
f 1370 1371 1373
f 1371 1374 1375
f 1371 1375 1373
f 1374 1340 1396
f 1374 1396 1375
f 1327 1332 1379
f 1331 1383 1332
f 1332 1383 1379
f 1379 1383 1388
f 1327 1379 1346
f 1346 1379 1376
f 1346 1376 1347
f 1347 1377 1348
f 1348 1378 1349
f 1348 1377 1378
f 1347 1376 1377
f 1376 1379 1388
f 1376 1388 1380
f 1380 1389 1381
f 1376 1380 1377
f 1377 1381 1378
f 1377 1380 1381
f 1349 1378 1363
f 1381 1389 1408
f 1378 1381 1408
f 1331 1368 1383
f 1368 1382 1383
f 1382 1388 1383
f 1382 1384 1388
f 1384 1387 1389
f 1368 1372 1382
f 1372 1385 1382
f 1372 1373 1385
f 1373 1386 1385
f 1373 1375 1386
f 1382 1385 1384
f 1384 1385 1387
f 1385 1386 1387
f 1380 1388 1384
f 1380 1384 1389
f 1387 1415 1389
f 1375 1414 1386
f 1386 1414 1387
f 1352 1353 1390
f 1353 1391 1390
f 1390 1391 1392
f 1391 1393 1392
f 1392 1393 1394
f 1375 1396 1398
f 1393 1395 1394
f 1394 1395 1400
f 1396 1397 1398
f 1397 1401 1399
f 1397 1399 1398
f 1395 1402 1400
f 1400 1402 1401
f 1399 1401 1402
f 1363 1378 1405
f 1378 1408 1405
f 1353 1356 1391
f 1356 1403 1391
f 1356 1357 1403
f 1357 1409 1403
f 1391 1403 1393
f 1393 1403 1412
f 1403 1409 1412
f 1409 1417 1412
f 1363 1405 1364
f 1364 1404 1366
f 1364 1405 1404
f 1357 1365 1409
f 1365 1406 1409
f 1365 1366 1406
f 1366 1404 1406
f 1407 1408 1416
f 1404 1405 1408
f 1404 1408 1407
f 1406 1417 1409
f 1406 1407 1417
f 1404 1407 1406
f 1375 1398 1414
f 1387 1414 1415
f 1389 1416 1408
f 1389 1415 1416
f 1410 1416 1415
f 1393 1412 1395
f 1395 1412 1411
f 1411 1412 1417
f 1410 1411 1417
f 1399 1402 1413
f 1399 1413 1414
f 1398 1399 1414
f 1410 1415 1413
f 1413 1415 1414
f 1395 1411 1402
f 1402 1411 1413
f 1410 1413 1411
f 1407 1416 1410
f 1407 1410 1417
f 307 308 247
f 307 249 309
f 247 308 248
f 307 247 249
f 252 249 247
f 247 248 251
f 250 252 247
f 247 251 465
f 250 464 466
f 250 247 470
f 250 466 252
f 310 253 254
f 310 254 311
f 253 256 254
f 255 256 253
f 255 475 478
f 255 478 256
f 281 277 279
f 281 279 283
f 272 276 273
f 274 275 307
f 274 280 275
f 274 272 280
f 274 276 272
f 274 309 276
f 277 278 272
f 277 272 273
f 272 278 280
f 277 287 278
f 281 287 277
f 277 273 279
f 281 282 288
f 281 283 282
f 282 289 288
f 282 284 285
f 282 283 284
f 282 285 289
f 285 286 290
f 284 286 285
f 290 286 292
f 281 288 287
f 285 291 289
f 285 290 291
f 290 314 291
f 299 295 298
f 299 298 302
f 294 297 293
f 295 293 296
f 293 297 296
f 294 311 297
f 295 296 298
f 299 302 300
f 300 303 301
f 301 304 305
f 300 302 303
f 301 303 304
f 305 304 306
f 307 275 308
f 274 307 309
f 294 310 311
f 290 292 312
f 290 312 314
f 312 313 315
f 292 313 312
f 312 316 314
f 312 315 316
f 315 313 317
f 315 317 322
f 305 306 318
f 318 320 319
f 319 321 331
f 318 306 320
f 319 320 321
f 315 323 316
f 315 322 323
f 322 325 323
f 322 324 326
f 322 317 324
f 322 326 328
f 322 328 325
f 326 327 329
f 326 324 327
f 326 542 328
f 327 330 329
f 326 329 546
f 329 330 543
f 543 330 544
f 331 333 332
f 332 334 335
f 331 321 333
f 332 333 334
f 335 336 554
f 335 334 336
f 554 336 556
f 464 467 466
f 250 467 464
f 247 465 470
f 250 470 467
f 466 467 469
f 470 465 468
f 467 470 469
f 470 468 503
f 503 468 471
f 470 503 472
f 469 470 472
f 503 504 472
f 475 477 479
f 475 479 478
f 477 481 479
f 477 480 481
f 480 505 506
f 480 506 481
f 503 471 502
f 503 502 507
f 507 502 508
f 503 507 504
f 505 531 506
f 507 508 510
f 510 508 512
f 507 510 509
f 504 507 509
f 510 511 509
f 510 512 513
f 513 512 514
f 510 513 511
f 513 514 522
f 522 514 516
f 513 515 511
f 513 522 515
f 522 524 515
f 526 517 518
f 520 526 518
f 520 518 519
f 522 516 523
f 523 516 517
f 522 523 524
f 523 517 526
f 523 526 525
f 523 525 524
f 520 527 526
f 525 526 527
f 520 521 527
f 505 528 531
f 528 529 532
f 529 530 533
f 528 532 531
f 529 533 532
f 530 536 539
f 530 539 533
f 536 537 540
f 537 538 541
f 534 535 538
f 536 540 539
f 537 541 540
f 538 535 541
f 326 549 542
f 326 546 549
f 329 543 546
f 543 547 546
f 543 544 547
f 549 545 542
f 549 548 545
f 546 547 550
f 549 551 548
f 546 550 549
f 549 550 553
f 549 552 551
f 549 553 552
f 552 564 551
f 552 553 566
f 554 556 555
f 555 557 558
f 555 556 557
f 558 561 560
f 560 562 570
f 558 557 561
f 560 561 562
f 552 565 564
f 565 563 564
f 567 563 565
f 565 566 568
f 567 519 563
f 520 519 567
f 520 567 521
f 567 565 568
f 567 568 521
f 552 566 565
f 571 570 573
f 534 571 574
f 534 574 535
f 571 573 574
f 570 562 573
f 243 276 309
f 243 473 244
f 243 309 249
f 243 249 252
f 243 252 466
f 244 310 294
f 244 253 310
f 244 255 253
f 244 475 255
f 243 462 473
f 243 483 462
f 243 466 483
f 244 473 476
f 244 476 475
f 243 244 257
f 244 258 257
f 243 257 283
f 283 257 284
f 284 257 286
f 244 299 258
f 299 300 258
f 300 301 258
f 243 273 276
f 243 279 273
f 243 283 279
f 244 294 293
f 244 293 295
f 244 295 299
f 257 292 286
f 257 313 292
f 257 317 313
f 257 324 317
f 257 327 324
f 257 330 327
f 257 544 330
f 257 258 704
f 258 301 305
f 258 305 318
f 258 318 319
f 258 319 331
f 258 331 332
f 258 332 335
f 258 335 554
f 257 569 544
f 257 704 569
f 258 554 559
f 258 559 706
f 258 706 704
f 462 474 473
f 462 463 474
f 466 469 483
f 473 474 476
f 475 476 477
f 476 480 477
f 462 483 463
f 469 472 483
f 472 504 483
f 463 483 482
f 504 509 483
f 476 486 480
f 480 486 505
f 505 486 528
f 511 485 483
f 482 483 484
f 529 486 487
f 509 511 483
f 511 515 485
f 515 524 485
f 528 486 529
f 529 577 530
f 530 577 536
f 577 534 538
f 577 572 534
f 544 569 547
f 547 569 550
f 704 705 569
f 554 555 559
f 555 558 559
f 559 558 560
f 706 559 707
f 550 569 553
f 553 569 566
f 568 566 569
f 521 578 527
f 521 568 578
f 560 570 575
f 534 572 571
f 572 575 571
f 571 575 570
f 559 560 575
f 559 576 707
f 524 525 485
f 525 527 485
f 485 527 578
f 529 487 577
f 536 577 537
f 537 577 538
f 568 569 578
f 704 706 705
f 706 707 705
f 474 486 476
f 483 485 484
f 463 678 474
f 463 482 678
f 474 685 486
f 559 575 576
f 572 685 575
f 575 685 576
f 705 709 569
f 707 576 710
f 482 484 678
f 484 485 678
f 486 685 487
f 487 685 577
f 474 678 685
f 485 578 678
f 577 685 572
f 576 685 710
f 569 709 578
f 578 709 678
f 705 707 710
f 705 710 709
f 973 983 976
f 1002 1003 971
f 1002 971 972
f 971 1003 975
f 971 976 972
f 1002 972 1005
f 973 971 975
f 973 975 974
f 973 976 971
f 973 974 981
f 1023 977 979
f 978 980 977
f 978 992 980
f 977 980 979
f 1023 979 1024
f 981 974 982
f 973 981 983
f 981 982 984
f 981 986 983
f 981 984 986
f 984 982 985
f 984 989 986
f 984 985 988
f 984 987 989
f 984 988 1193
f 984 1199 987
f 987 1192 1195
f 987 1195 989
f 978 990 992
f 990 991 993
f 990 993 992
f 991 995 993
f 991 994 995
f 994 1206 1209
f 994 1209 995
f 996 1002 1005
f 996 997 998
f 996 1005 997
f 996 998 1006
f 998 1007 1006
f 998 999 1007
f 998 1000 999
f 997 1000 998
f 999 1000 1001
f 1002 1004 1003
f 996 1004 1002
f 996 1006 1004
f 999 1001 1009
f 1009 1001 1010
f 999 1008 1007
f 999 1009 1008
f 1009 1010 1012
f 1009 1011 1008
f 1009 1012 1011
f 1010 1013 1012
f 1012 1013 1015
f 1012 1014 1011
f 1012 1015 1014
f 1015 1016 1031
f 1015 1013 1016
f 1017 1023 1024
f 1017 1020 1018
f 1018 1021 1019
f 1017 1024 1020
f 1018 1020 1021
f 1019 1021 1022
f 1019 1022 1025
f 1025 1022 1028
f 1025 1028 1026
f 1026 1029 1027
f 1027 1030 1034
f 1026 1028 1029
f 1027 1029 1030
f 1015 1032 1014
f 1015 1031 1032
f 1031 1040 1032
f 1031 1016 1033
f 1034 1030 1035
f 1031 1033 1041
f 1031 1043 1040
f 1031 1041 1043
f 1041 1042 1044
f 1041 1033 1042
f 1041 1269 1043
f 1042 1045 1044
f 1041 1044 1274
f 1044 1045 1270
f 1270 1045 1271
f 1034 1035 1046
f 1046 1047 1048
f 1046 1035 1047
f 1048 1049 1281
f 1048 1047 1049
f 1281 1049 1283
f 987 1196 1192
f 984 1193 1199
f 987 1199 1196
f 1192 1196 1198
f 1192 1198 1195
f 1199 1193 1197
f 1196 1201 1198
f 1196 1199 1201
f 1203 1197 1200
f 1199 1197 1203
f 1199 1204 1201
f 1203 1200 1202
f 1199 1203 1204
f 1203 1202 1216
f 1203 1218 1204
f 1216 1202 1215
f 1206 1207 1210
f 1207 1208 1210
f 1206 1210 1209
f 1208 1213 1210
f 1208 1211 1213
f 1211 1212 1214
f 1211 1214 1213
f 1212 1223 1214
f 1203 1216 1218
f 1216 1215 1219
f 1219 1215 1217
f 1216 1220 1218
f 1216 1219 1220
f 1219 1217 1231
f 1219 1231 1233
f 1219 1233 1220
f 1212 1221 1223
f 1221 1222 1224
f 1222 1251 1252
f 1221 1224 1223
f 1222 1252 1224
f 1226 1246 1225
f 1226 1227 1247
f 1228 1229 1261
f 1231 1217 1230
f 1231 1230 1236
f 1236 1230 1232
f 1239 1234 1235
f 1236 1232 1238
f 1231 1236 1237
f 1231 1237 1233
f 1236 1240 1237
f 1238 1232 1234
f 1236 1238 1240
f 1238 1234 1239
f 1238 1239 1241
f 1238 1241 1240
f 1244 1239 1235
f 1244 1235 1243
f 1249 1243 1242
f 1244 1243 1249
f 1244 1249 1250
f 1244 1250 1245
f 1247 1249 1242
f 1247 1242 1246
f 1247 1248 1249
f 1226 1247 1246
f 1227 1248 1247
f 1249 1248 1250
f 1244 1245 1239
f 1239 1245 1241
f 1251 1253 1257
f 1253 1254 1258
f 1254 1256 1259
f 1251 1257 1252
f 1253 1258 1257
f 1254 1259 1258
f 1260 1262 1265
f 1261 1264 1262
f 1260 1265 1263
f 1261 1229 1264
f 1262 1264 1265
f 1255 1263 1256
f 1260 1263 1255
f 1256 1263 1259
f 1041 1277 1269
f 1044 1270 1274
f 1041 1274 1277
f 1270 1271 1274
f 1271 1275 1274
f 1277 1273 1269
f 1277 1276 1273
f 1277 1274 1275
f 1277 1225 1276
f 1277 1278 1226
f 1277 1275 1278
f 1277 1226 1225
f 1226 1278 1227
f 1281 1283 1282
f 1285 1282 1284
f 1282 1283 1284
f 1285 1286 1228
f 1285 1284 1286
f 1228 1286 1229
f 956 1172 1174
f 956 957 1036
f 956 1036 997
f 957 1037 1036
f 997 1036 1000
f 1000 1036 1001
f 957 1017 1018
f 957 1018 1019
f 957 1019 1037
f 956 1174 957
f 956 972 976
f 956 976 983
f 956 1005 972
f 956 997 1005
f 956 983 986
f 956 986 989
f 956 989 1195
f 957 978 977
f 957 990 978
f 957 977 1023
f 957 1023 1017
f 957 991 990
f 957 994 991
f 957 1205 994
f 956 1194 1172
f 956 1195 1194
f 957 1174 1205
f 994 1205 1206
f 1001 1036 1010
f 1010 1036 1013
f 1036 1016 1013
f 1019 1025 1037
f 1025 1026 1037
f 1037 1026 1027
f 1036 1033 1016
f 1036 1037 1279
f 1036 1042 1033
f 1036 1045 1042
f 1036 1272 1045
f 1037 1027 1034
f 1037 1034 1046
f 1037 1046 1048
f 1037 1048 1281
f 1036 1279 1272
f 1045 1272 1271
f 1037 1287 1279
f 1037 1281 1290
f 1037 1290 1287
f 1172 1173 1174
f 1174 1173 1175
f 1172 1194 1173
f 1174 1175 1205
f 1205 1207 1206
f 1228 1261 1291
f 1260 1255 1291
f 1260 1291 1262
f 1261 1262 1291
f 1272 1280 1289
f 1272 1279 1280
f 1279 1287 1288
f 1279 1288 1280
f 1285 1290 1282
f 1281 1282 1290
f 1287 1290 1288
f 1285 1228 1291
f 1285 1291 1290
f 1173 1176 1175
f 1175 1176 1177
f 1194 1195 1198
f 1194 1176 1173
f 1194 1198 1176
f 1198 1201 1176
f 1205 1175 1177
f 1205 1177 1207
f 1207 1177 1208
f 1208 1177 1211
f 1201 1204 1176
f 1204 1218 1176
f 1218 1220 1176
f 1220 1233 1176
f 1233 1237 1176
f 1237 1240 1176
f 1240 1241 1176
f 1211 1177 1212
f 1212 1177 1221
f 1221 1177 1222
f 1222 1177 1251
f 1251 1177 1253
f 1253 1177 1254
f 1254 1177 1256
f 1255 1256 1177
f 1248 1176 1250
f 1245 1250 1176
f 1245 1176 1241
f 1248 1289 1176
f 1255 1177 1291
f 1271 1272 1289
f 1278 1275 1289
f 1271 1289 1275
f 1278 1289 1227
f 1227 1289 1248
f 1280 1288 1340
f 1280 1339 1289
f 1288 1290 1340
f 1289 1339 1176
f 1291 1177 1340
f 1291 1340 1290
f 1280 1340 1339

