# https://github.com/mikedh/trimesh
v -0.02374161 -0.00250007 0.04550000
v -0.02374161 -0.00250007 0.04600000
v -0.02250007 -0.00374161 0.04550000
v -0.02250007 -0.00374161 0.04600000
v -0.02318198 -0.00318198 0.04550000
v -0.02318198 -0.00318198 0.04600000
v -0.02240416 -0.00240416 0.04600000
v -0.02415746 -0.00172208 0.04550000
v -0.02415746 -0.00172208 0.04600000
v -0.02441353 -0.00087791 0.04550000
v -0.02441353 -0.00087791 0.04600000
v -0.02282700 -0.00188894 0.04600000
v -0.02314119 -0.00130112 0.04600000
v -0.02333467 -0.00066331 0.04600000
v -0.02172208 -0.00415746 0.04550000
v -0.02172208 -0.00415746 0.04600000
v -0.02188894 -0.00282700 0.04600000
v -0.02130112 -0.00314119 0.04600000
v -0.02087791 -0.00441353 0.04550000
v -0.02087791 -0.00441353 0.04600000
v -0.02066331 -0.00333467 0.04600000
v -0.02141421 -0.00141421 0.04550000
v -0.02184776 -0.00076537 0.04550000
v -0.02196157 -0.00039018 0.04550000
v -0.02166294 -0.00111114 0.04550000
v -0.02076537 -0.00184776 0.04550000
v -0.02111114 -0.00166294 0.04550000
v -0.02039018 -0.00196157 0.04550000
v -0.02374161 -0.00250007 0.05080000
v -0.02374161 -0.00250007 0.05130000
v -0.02250007 -0.00374161 0.05080000
v -0.02250007 -0.00374161 0.05130000
v -0.02318198 -0.00318198 0.05080000
v -0.02318198 -0.00318198 0.05130000
v -0.02240416 -0.00240416 0.05080000
v -0.02415746 -0.00172208 0.05080000
v -0.02415746 -0.00172208 0.05130000
v -0.02441353 -0.00087791 0.05080000
v -0.02441353 -0.00087791 0.05130000
v -0.02282700 -0.00188894 0.05080000
v -0.02314119 -0.00130112 0.05080000
v -0.02333467 -0.00066331 0.05080000
v -0.02172208 -0.00415746 0.05080000
v -0.02172208 -0.00415746 0.05130000
v -0.02188894 -0.00282700 0.05080000
v -0.02130112 -0.00314119 0.05080000
v -0.02087791 -0.00441353 0.05080000
v -0.02087791 -0.00441353 0.05130000
v -0.02066331 -0.00333467 0.05080000
v -0.02141421 -0.00141421 0.05130000
v -0.02184776 -0.00076537 0.05130000
v -0.02196157 -0.00039018 0.05130000
v -0.02166294 -0.00111114 0.05130000
v -0.02076537 -0.00184776 0.05130000
v -0.02111114 -0.00166294 0.05130000
v -0.02039018 -0.00196157 0.05130000
v -0.02450000 0.00000000 0.04550000
v -0.02450000 0.00000000 0.04600000
v -0.02441353 0.00087791 0.04550000
v -0.02441353 0.00087791 0.04600000
v -0.02340000 0.00000000 0.04600000
v -0.02415746 0.00172208 0.04550000
v -0.02415746 0.00172208 0.04600000
v -0.02333467 0.00066331 0.04600000
v -0.02314119 0.00130112 0.04600000
v -0.02282700 0.00188894 0.04600000
v -0.02374161 0.00250007 0.04550000
v -0.02374161 0.00250007 0.04600000
v -0.02318198 0.00318198 0.04550000
v -0.02318198 0.00318198 0.04600000
v -0.02240416 0.00240416 0.04600000
v -0.02250007 0.00374161 0.04550000
v -0.02250007 0.00374161 0.04600000
v -0.02200000 0.00000000 0.04550000
v -0.02196157 0.00039018 0.04550000
v -0.02184776 0.00076537 0.04550000
v -0.02166294 0.00111114 0.04550000
v -0.02141421 0.00141421 0.04550000
v -0.02111114 0.00166294 0.04550000
v -0.02076537 0.00184776 0.04550000
v -0.02039018 0.00196157 0.04550000
v -0.02188894 0.00282700 0.04600000
v -0.02130112 0.00314119 0.04600000
v -0.02172208 0.00415746 0.04550000
v -0.02172208 0.00415746 0.04600000
v -0.02066331 0.00333467 0.04600000
v -0.02087791 0.00441353 0.04550000
v -0.02087791 0.00441353 0.04600000
v -0.02450000 0.00000000 0.05080000
v -0.02450000 0.00000000 0.05130000
v -0.02441353 0.00087791 0.05080000
v -0.02441353 0.00087791 0.05130000
v -0.02340000 0.00000000 0.05080000
v -0.02415746 0.00172208 0.05080000
v -0.02415746 0.00172208 0.05130000
v -0.02333467 0.00066331 0.05080000
v -0.02314119 0.00130112 0.05080000
v -0.02282700 0.00188894 0.05080000
v -0.02374161 0.00250007 0.05080000
v -0.02374161 0.00250007 0.05130000
v -0.02318198 0.00318198 0.05080000
v -0.02318198 0.00318198 0.05130000
v -0.02240416 0.00240416 0.05080000
v -0.02250007 0.00374161 0.05080000
v -0.02250007 0.00374161 0.05130000
v -0.02200000 0.00000000 0.05130000
v -0.02196157 0.00039018 0.05130000
v -0.02184776 0.00076537 0.05130000
v -0.02166294 0.00111114 0.05130000
v -0.02141421 0.00141421 0.05130000
v -0.02111114 0.00166294 0.05130000
v -0.02076537 0.00184776 0.05130000
v -0.02039018 0.00196157 0.05130000
v -0.02188894 0.00282700 0.05080000
v -0.02130112 0.00314119 0.05080000
v -0.02172208 0.00415746 0.05080000
v -0.02172208 0.00415746 0.05130000
v -0.02066331 0.00333467 0.05080000
v -0.02087791 0.00441353 0.05080000
v -0.02087791 0.00441353 0.05130000
v -0.02000000 -0.00450000 0.04550000
v -0.02000000 -0.00450000 0.04600000
v -0.02000000 -0.00340000 0.04600000
v -0.01912209 -0.00441353 0.04550000
v -0.01912209 -0.00441353 0.04600000
v -0.01933669 -0.00333467 0.04600000
v -0.01827792 -0.00415746 0.04550000
v -0.01827792 -0.00415746 0.04600000
v -0.01869888 -0.00314119 0.04600000
v -0.01811106 -0.00282700 0.04600000
v -0.02000000 -0.00200000 0.04550000
v -0.01960982 -0.00196157 0.04550000
v -0.01923463 -0.00184776 0.04550000
v -0.01888886 -0.00166294 0.04550000
v -0.01858579 -0.00141421 0.04550000
v -0.01833706 -0.00111114 0.04550000
v -0.01815224 -0.00076537 0.04550000
v -0.01803843 -0.00039018 0.04550000
v -0.01749993 -0.00374161 0.04550000
v -0.01749993 -0.00374161 0.04600000
v -0.01759584 -0.00240416 0.04600000
v -0.01681802 -0.00318198 0.04550000
v -0.01681802 -0.00318198 0.04600000
v -0.01625839 -0.00250007 0.04550000
v -0.01625839 -0.00250007 0.04600000
v -0.01717300 -0.00188894 0.04600000
v -0.01685881 -0.00130112 0.04600000
v -0.01666533 -0.00066331 0.04600000
v -0.01584254 -0.00172208 0.04550000
v -0.01584254 -0.00172208 0.04600000
v -0.01558647 -0.00087791 0.04550000
v -0.01558647 -0.00087791 0.04600000
v -0.02000000 -0.00450000 0.05080000
v -0.02000000 -0.00450000 0.05130000
v -0.02000000 -0.00340000 0.05080000
v -0.01912209 -0.00441353 0.05080000
v -0.01912209 -0.00441353 0.05130000
v -0.01933669 -0.00333467 0.05080000
v -0.01827792 -0.00415746 0.05080000
v -0.01827792 -0.00415746 0.05130000
v -0.01869888 -0.00314119 0.05080000
v -0.01811106 -0.00282700 0.05080000
v -0.02000000 -0.00200000 0.05130000
v -0.01960982 -0.00196157 0.05130000
v -0.01923463 -0.00184776 0.05130000
v -0.01888886 -0.00166294 0.05130000
v -0.01858579 -0.00141421 0.05130000
v -0.01833706 -0.00111114 0.05130000
v -0.01815224 -0.00076537 0.05130000
v -0.01803843 -0.00039018 0.05130000
v -0.01749993 -0.00374161 0.05080000
v -0.01749993 -0.00374161 0.05130000
v -0.01759584 -0.00240416 0.05080000
v -0.01681802 -0.00318198 0.05080000
v -0.01681802 -0.00318198 0.05130000
v -0.01625839 -0.00250007 0.05080000
v -0.01625839 -0.00250007 0.05130000
v -0.01717300 -0.00188894 0.05080000
v -0.01685881 -0.00130112 0.05080000
v -0.01666533 -0.00066331 0.05080000
v -0.01584254 -0.00172208 0.05080000
v -0.01584254 -0.00172208 0.05130000
v -0.01558647 -0.00087791 0.05080000
v -0.01558647 -0.00087791 0.05130000
v -0.02000000 0.00200000 0.04550000
v -0.01960982 0.00196157 0.04550000
v -0.01888886 0.00166294 0.04550000
v -0.01923463 0.00184776 0.04550000
v -0.01833706 0.00111114 0.04550000
v -0.01803843 0.00039018 0.04550000
v -0.01800000 0.00000000 0.04550000
v -0.01815224 0.00076537 0.04550000
v -0.01858579 0.00141421 0.04550000
v -0.01933669 0.00333467 0.04600000
v -0.02000000 0.00340000 0.04600000
v -0.02000000 0.00450000 0.04550000
v -0.02000000 0.00450000 0.04600000
v -0.01912209 0.00441353 0.04550000
v -0.01912209 0.00441353 0.04600000
v -0.01869888 0.00314119 0.04600000
v -0.01811106 0.00282700 0.04600000
v -0.01827792 0.00415746 0.04550000
v -0.01827792 0.00415746 0.04600000
v -0.01666533 0.00066331 0.04600000
v -0.01685881 0.00130112 0.04600000
v -0.01717300 0.00188894 0.04600000
v -0.01660000 0.00000000 0.04600000
v -0.01550000 0.00000000 0.04550000
v -0.01550000 0.00000000 0.04600000
v -0.01558647 0.00087791 0.04550000
v -0.01558647 0.00087791 0.04600000
v -0.01584254 0.00172208 0.04550000
v -0.01584254 0.00172208 0.04600000
v -0.01759584 0.00240416 0.04600000
v -0.01681802 0.00318198 0.04550000
v -0.01681802 0.00318198 0.04600000
v -0.01749993 0.00374161 0.04550000
v -0.01749993 0.00374161 0.04600000
v -0.01625839 0.00250007 0.04550000
v -0.01625839 0.00250007 0.04600000
v -0.02000000 0.00200000 0.05130000
v -0.01960982 0.00196157 0.05130000
v -0.01888886 0.00166294 0.05130000
v -0.01923463 0.00184776 0.05130000
v -0.01833706 0.00111114 0.05130000
v -0.01803843 0.00039018 0.05130000
v -0.01800000 0.00000000 0.05130000
v -0.01815224 0.00076537 0.05130000
v -0.01858579 0.00141421 0.05130000
v -0.01933669 0.00333467 0.05080000
v -0.02000000 0.00340000 0.05080000
v -0.02000000 0.00450000 0.05080000
v -0.02000000 0.00450000 0.05130000
v -0.01912209 0.00441353 0.05080000
v -0.01912209 0.00441353 0.05130000
v -0.01869888 0.00314119 0.05080000
v -0.01811106 0.00282700 0.05080000
v -0.01827792 0.00415746 0.05080000
v -0.01827792 0.00415746 0.05130000
v -0.01666533 0.00066331 0.05080000
v -0.01685881 0.00130112 0.05080000
v -0.01717300 0.00188894 0.05080000
v -0.01660000 0.00000000 0.05080000
v -0.01550000 0.00000000 0.05080000
v -0.01550000 0.00000000 0.05130000
v -0.01558647 0.00087791 0.05080000
v -0.01558647 0.00087791 0.05130000
v -0.01584254 0.00172208 0.05080000
v -0.01584254 0.00172208 0.05130000
v -0.01759584 0.00240416 0.05080000
v -0.01681802 0.00318198 0.05080000
v -0.01681802 0.00318198 0.05130000
v -0.01749993 0.00374161 0.05080000
v -0.01749993 0.00374161 0.05130000
v -0.01625839 0.00250007 0.05080000
v -0.01625839 0.00250007 0.05130000
f 1 5 2
f 3 4 6
f 2 5 6
f 3 6 5
f 4 12 6
f 4 17 7
f 4 7 12
f 1 9 8
f 8 9 11
f 8 11 10
f 1 2 9
f 2 6 14
f 10 11 58
f 10 58 57
f 8 10 62
f 9 63 11
f 1 8 67
f 2 68 9
f 2 14 61
f 6 13 14
f 6 12 13
f 1 69 5
f 3 5 72
f 4 15 16
f 3 15 4
f 4 16 17
f 15 19 16
f 16 19 20
f 16 18 17
f 16 20 18
f 3 25 15
f 15 22 27
f 15 27 26
f 19 121 20
f 15 26 19
f 18 20 21
f 20 121 122
f 20 122 123
f 19 131 121
f 20 123 21
f 19 26 28
f 19 28 131
f 3 23 25
f 3 24 23
f 3 74 24
f 15 25 22
f 10 57 59
f 57 58 60
f 11 60 58
f 57 60 59
f 10 59 62
f 8 62 67
f 11 63 60
f 9 68 63
f 2 61 70
f 1 67 69
f 2 70 68
f 59 60 63
f 59 63 62
f 62 63 68
f 62 68 67
f 5 69 72
f 61 64 70
f 64 65 70
f 65 66 70
f 67 68 70
f 67 70 69
f 69 70 73
f 66 71 70
f 70 71 73
f 71 82 73
f 69 73 72
f 3 84 74
f 3 72 84
f 84 75 74
f 84 76 75
f 84 77 76
f 84 78 77
f 73 82 83
f 87 79 78
f 84 87 78
f 72 73 85
f 73 83 85
f 72 85 84
f 83 86 85
f 84 85 88
f 84 88 87
f 87 80 79
f 87 81 80
f 196 185 81
f 87 88 197
f 85 86 88
f 87 196 81
f 86 195 88
f 87 197 196
f 88 195 197
f 121 124 122
f 122 125 123
f 121 132 124
f 123 125 126
f 122 124 125
f 125 128 126
f 121 131 132
f 124 132 133
f 124 133 134
f 124 127 125
f 125 127 128
f 126 128 129
f 127 139 128
f 128 139 140
f 128 140 129
f 124 135 127
f 124 134 135
f 129 140 130
f 127 135 136
f 127 136 137
f 127 137 138
f 127 138 191
f 127 217 139
f 127 191 217
f 139 142 140
f 130 140 141
f 140 143 141
f 141 143 146
f 140 142 143
f 142 144 143
f 143 144 145
f 143 147 146
f 143 148 147
f 139 215 142
f 143 207 148
f 144 149 145
f 145 149 150
f 149 151 150
f 150 151 152
f 142 219 144
f 143 145 220
f 143 220 207
f 144 212 149
f 149 210 151
f 151 208 152
f 145 150 213
f 150 152 211
f 152 208 209
f 202 189 193
f 217 191 190
f 217 190 192
f 217 192 189
f 198 186 185
f 198 188 186
f 196 198 185
f 194 199 195
f 196 197 199
f 195 199 197
f 198 202 188
f 194 200 199
f 196 199 198
f 202 187 188
f 202 193 187
f 202 217 189
f 199 200 203
f 200 201 203
f 198 199 203
f 198 203 202
f 202 218 217
f 201 218 203
f 202 203 218
f 139 217 215
f 142 215 219
f 205 216 206
f 204 216 205
f 144 219 212
f 204 207 220
f 145 213 220
f 151 210 208
f 149 212 210
f 208 210 209
f 152 209 211
f 150 211 213
f 209 210 211
f 213 219 220
f 204 220 216
f 210 212 211
f 211 212 213
f 212 219 213
f 206 218 214
f 201 214 218
f 215 217 216
f 215 216 220
f 206 216 218
f 216 217 218
f 215 220 219
f 14 93 61
f 12 41 13
f 7 40 12
f 13 42 14
f 17 18 45
f 7 17 35
f 18 21 46
f 21 123 49
f 12 40 41
f 7 35 40
f 13 41 42
f 14 42 93
f 17 45 35
f 18 46 45
f 49 123 155
f 21 49 46
f 61 96 64
f 64 97 65
f 65 98 66
f 66 103 71
f 71 114 82
f 82 115 83
f 83 118 86
f 86 231 195
f 61 93 96
f 64 96 97
f 65 97 98
f 66 98 103
f 71 103 114
f 82 114 115
f 83 115 118
f 86 118 231
f 123 126 155
f 126 129 158
f 129 130 161
f 130 141 162
f 141 146 173
f 146 147 178
f 147 148 179
f 148 207 180
f 126 158 155
f 129 161 158
f 130 162 161
f 141 173 162
f 146 178 173
f 147 179 178
f 148 180 179
f 180 207 243
f 194 195 230
f 194 236 200
f 201 250 214
f 200 237 201
f 204 205 240
f 206 214 242
f 205 206 241
f 204 243 207
f 194 230 236
f 195 231 230
f 200 236 237
f 201 237 250
f 204 240 243
f 205 241 240
f 214 250 242
f 206 242 241
f 29 33 30
f 31 32 34
f 30 33 34
f 31 34 33
f 29 41 33
f 31 33 35
f 31 35 45
f 33 40 35
f 29 37 36
f 36 37 39
f 36 39 38
f 29 30 37
f 29 42 41
f 38 39 90
f 36 38 94
f 38 90 89
f 37 95 39
f 29 36 99
f 29 93 42
f 30 100 37
f 33 41 40
f 30 34 102
f 32 105 34
f 32 43 44
f 31 46 43
f 31 43 32
f 43 47 44
f 44 47 48
f 43 46 49
f 44 48 55
f 31 45 46
f 32 44 51
f 44 55 50
f 43 49 47
f 47 153 48
f 47 155 153
f 48 153 154
f 47 49 155
f 48 154 56
f 48 54 55
f 48 56 54
f 154 163 56
f 44 53 51
f 32 51 52
f 32 52 106
f 44 50 53
f 32 106 107
f 38 89 91
f 39 92 90
f 89 90 92
f 38 91 94
f 36 94 99
f 89 92 91
f 39 95 92
f 37 100 95
f 29 101 93
f 29 99 101
f 30 102 100
f 91 92 95
f 91 95 94
f 94 95 100
f 94 100 99
f 93 101 96
f 34 105 102
f 96 101 97
f 97 101 98
f 99 100 102
f 98 101 104
f 99 102 101
f 101 102 105
f 98 104 103
f 103 104 114
f 101 105 104
f 32 107 117
f 32 117 105
f 117 107 108
f 117 108 109
f 117 109 110
f 117 110 111
f 104 116 114
f 104 105 117
f 104 117 116
f 114 116 115
f 115 116 119
f 117 111 120
f 116 117 120
f 116 120 119
f 120 111 112
f 120 112 113
f 120 113 221
f 115 119 118
f 119 120 233
f 118 232 231
f 120 221 233
f 118 119 232
f 119 233 232
f 153 158 156
f 153 156 154
f 153 155 158
f 154 157 163
f 154 156 157
f 156 158 161
f 157 164 163
f 157 165 164
f 157 166 165
f 156 159 157
f 157 159 160
f 156 161 159
f 159 161 162
f 157 160 166
f 159 171 160
f 159 162 171
f 160 171 172
f 160 167 166
f 160 168 167
f 160 169 168
f 160 170 169
f 160 172 254
f 160 254 170
f 171 174 172
f 162 173 171
f 171 173 178
f 171 178 174
f 172 174 175
f 174 176 175
f 175 176 177
f 174 178 179
f 174 179 180
f 174 180 243
f 172 175 252
f 176 181 177
f 177 181 182
f 181 183 182
f 182 183 184
f 174 255 176
f 175 177 256
f 174 243 255
f 176 248 181
f 181 246 183
f 177 182 249
f 183 244 184
f 182 184 247
f 184 244 245
f 254 227 170
f 239 229 225
f 254 226 227
f 254 228 226
f 239 225 228
f 233 221 222
f 235 222 224
f 235 224 223
f 230 231 234
f 233 222 235
f 231 232 234
f 232 233 235
f 230 234 238
f 232 235 234
f 239 223 229
f 236 253 237
f 239 228 254
f 230 238 236
f 235 223 239
f 234 235 239
f 234 239 238
f 236 238 253
f 238 254 253
f 238 239 254
f 172 252 254
f 175 256 252
f 241 242 251
f 240 255 243
f 176 255 248
f 177 249 256
f 183 246 244
f 181 248 246
f 184 245 247
f 244 246 245
f 182 247 249
f 245 246 247
f 240 241 255
f 249 255 256
f 246 248 247
f 247 248 249
f 248 255 249
f 242 250 251
f 237 253 250
f 250 253 251
f 241 251 255
f 251 253 252
f 251 252 256
f 252 253 254
f 251 256 255
f 22 25 53
f 27 22 50
f 25 23 51
f 24 74 106
f 23 24 52
f 26 27 55
f 28 26 54
f 28 56 131
f 53 50 22
f 27 50 55
f 51 53 25
f 23 52 51
f 24 106 52
f 55 54 26
f 54 56 28
f 131 56 163
f 74 75 107
f 75 76 108
f 76 77 109
f 77 78 110
f 78 79 111
f 79 80 112
f 80 81 113
f 81 185 221
f 74 107 106
f 75 108 107
f 109 108 76
f 77 110 109
f 111 110 78
f 112 111 79
f 80 113 112
f 221 113 81
f 132 131 163
f 133 132 164
f 134 133 165
f 135 134 166
f 136 135 167
f 137 136 168
f 138 137 169
f 138 170 191
f 163 164 132
f 133 164 165
f 165 166 134
f 166 167 135
f 136 167 168
f 168 169 137
f 138 169 170
f 191 170 227
f 185 186 222
f 186 188 224
f 188 187 223
f 192 190 226
f 191 227 190
f 189 192 228
f 187 193 229
f 193 189 225
f 185 222 221
f 224 222 186
f 223 224 188
f 190 227 226
f 192 226 228
f 228 225 189
f 187 229 223
f 225 229 193

