# https://github.com/mikedh/trimesh
v -0.01563509 -0.01463509 0.05296491
v -0.01595263 -0.01400000 0.05305000
v -0.01595263 -0.01455000 0.05360000
v -0.01563509 -0.01463509 0.05423509
v -0.01610000 -0.01400000 0.05360000
v -0.01595263 -0.01400000 0.05415000
v -0.01500000 -0.01455000 0.05264737
v -0.01500000 -0.01495263 0.05305000
v -0.01555000 -0.01400000 0.05264737
v -0.01500000 -0.01400000 0.05250000
v -0.01452857 -0.01345000 0.05264737
v -0.01418346 -0.01304737 0.05305000
v -0.01300000 -0.01455000 0.05264737
v -0.01300000 -0.01495263 0.05305000
v -0.01300000 -0.01400000 0.05250000
v -0.01300000 -0.01345000 0.05264737
v -0.01300000 -0.01304737 0.05305000
v -0.01555000 -0.01495263 0.05360000
v -0.01500000 -0.01510000 0.05360000
v -0.01500000 -0.01495263 0.05415000
v -0.01500000 -0.01455000 0.05455263
v -0.01555000 -0.01400000 0.05455263
v -0.01500000 -0.01400000 0.05470000
v -0.01418346 -0.01304737 0.05415000
v -0.01452857 -0.01345000 0.05455263
v -0.01300000 -0.01510000 0.05360000
v -0.01300000 -0.01495263 0.05415000
v -0.01300000 -0.01455000 0.05455263
v -0.01300000 -0.01400000 0.05470000
v -0.01405714 -0.01290000 0.05360000
v -0.01300000 -0.01290000 0.05360000
v -0.01300000 -0.01304737 0.05415000
v -0.01300000 -0.01345000 0.05455263
v -0.02063509 -0.00063509 0.04266491
v -0.02000000 -0.00055000 0.04234737
v -0.02000000 -0.00095263 0.04275000
v -0.02095263 -0.00055000 0.04330000
v -0.02055000 -0.00095263 0.04330000
v -0.02000000 -0.00110000 0.04330000
v -0.02055000 0.00000000 0.04234737
v -0.02095263 0.00000000 0.04275000
v -0.02063509 0.00063509 0.04266491
v -0.02000000 0.00000000 0.04220000
v -0.02000000 0.00055000 0.04234737
v -0.02000000 0.00095263 0.04275000
v -0.02110000 0.00000000 0.04330000
v -0.02095263 0.00055000 0.04330000
v -0.02055000 0.00095263 0.04330000
v -0.02000000 0.00110000 0.04330000
v -0.01936491 -0.00063509 0.04266491
v -0.01945000 -0.00095263 0.04330000
v -0.01904737 -0.00055000 0.04330000
v -0.01945000 0.00000000 0.04234737
v -0.01904737 0.00000000 0.04275000
v -0.01936491 0.00063509 0.04266491
v -0.01945000 0.00095263 0.04330000
v -0.01904737 0.00055000 0.04330000
v -0.01890000 0.00000000 0.04330000
v -0.02095263 -0.00055000 0.04800000
v -0.02055000 -0.00095263 0.04800000
v -0.02000000 -0.00110000 0.04800000
v -0.02110000 0.00000000 0.04800000
v -0.02095263 0.00055000 0.04800000
v -0.02055000 0.00095263 0.04800000
v -0.02000000 0.00110000 0.04800000
v -0.01945000 -0.00095263 0.04800000
v -0.01904737 -0.00055000 0.04800000
v -0.01945000 0.00095263 0.04800000
v -0.01904737 0.00055000 0.04800000
v -0.01890000 0.00000000 0.04800000
v -0.01695263 -0.00700000 0.05305000
v -0.01684768 -0.00713903 0.05296491
v -0.01655000 -0.00700000 0.05264737
v -0.01600000 -0.00700000 0.05250000
v -0.01705583 -0.00730920 0.05360000
v -0.01695263 -0.00700000 0.05415000
v -0.01684768 -0.00713903 0.05423509
v -0.01655000 -0.00700000 0.05455263
v -0.01600000 -0.00700000 0.05470000
v -0.02095263 -0.00055000 0.05150000
v -0.02055000 -0.00095263 0.05150000
v -0.02000000 -0.00110000 0.05150000
v -0.02110000 0.00000000 0.05150000
v -0.02095263 0.00055000 0.05150000
v -0.02055000 0.00095263 0.05150000
v -0.02000000 0.00110000 0.05150000
v -0.01945000 -0.00095263 0.05150000
v -0.01913246 -0.00063509 0.05135308
v -0.01904737 -0.00055000 0.05145381
v -0.01945000 0.00095263 0.05150000
v -0.01913246 0.00063509 0.05135308
v -0.01904737 0.00055000 0.05145381
v -0.01890000 0.00000000 0.05125948
v -0.02063509 -0.00063509 0.05213509
v -0.02095263 0.00000000 0.05205000
v -0.02063509 0.00063509 0.05213509
v -0.01911721 -0.00100985 0.05264737
v -0.01934210 -0.00110000 0.05288160
v -0.01945314 -0.00105961 0.05296491
v -0.01950965 -0.00103362 0.05305000
v -0.01967109 -0.00095263 0.05334571
v -0.01893057 -0.00095263 0.05259079
v -0.01869104 -0.00072091 0.05250000
v -0.01856560 -0.00063509 0.05254347
v -0.01834548 -0.00024388 0.05264737
v -0.01836491 0.00063509 0.05296491
v -0.01809033 -0.00000560 0.05296491
v -0.01804737 0.00000000 0.05305000
v -0.01990461 -0.00066204 0.05360000
v -0.01972407 -0.00063509 0.05404823
v -0.01995263 0.00000000 0.05415000
v -0.01963509 -0.00063509 0.05423509
v -0.01955000 0.00095263 0.05360000
v -0.01963509 0.00063509 0.05423509
v -0.01900000 0.00110000 0.05360000
v -0.01845000 0.00095263 0.05360000
v -0.01900000 0.00095263 0.05415000
v -0.01836491 0.00063509 0.05423509
v -0.01955000 0.00000000 0.05455263
v -0.01900000 0.00000000 0.05470000
v -0.01845000 0.00000000 0.05455263
v -0.01900000 0.00055000 0.05455263
v -0.01804737 0.00000000 0.05415000
v -0.01804737 0.00055000 0.05360000
v -0.01545000 -0.00700000 0.05264737
v -0.01536491 -0.00636491 0.05296491
v -0.01504737 -0.00700000 0.05305000
v -0.01490000 -0.00700000 0.05360000
v -0.01504737 -0.00645000 0.05360000
v -0.01536491 -0.00636491 0.05423509
v -0.01504737 -0.00700000 0.05415000
v -0.01545000 -0.00700000 0.05455263
v -0.00163509 -0.02163509 0.05336491
v -0.00100000 -0.02155000 0.05304737
v -0.00100000 -0.02100000 0.05290000
v -0.00155000 -0.02100000 0.05304737
v -0.00036491 -0.02163509 0.05336491
v -0.00045000 -0.02100000 0.05304737
v -0.00209637 -0.02101090 0.05400727
v -0.00195263 -0.02155000 0.05400000
v -0.00195263 -0.02100000 0.05345000
v -0.00195263 -0.02100000 0.05455000
v 0.00000000 -0.02455000 0.05504737
v 0.00055000 -0.02400000 0.05504737
v -0.00110000 -0.02400000 0.05600000
v -0.00063509 -0.02463509 0.05536491
v -0.00095263 -0.02455000 0.05600000
v -0.00055000 -0.02495263 0.05600000
v -0.00063509 -0.02463509 0.05663509
v -0.00095263 -0.02400000 0.05655000
v -0.00055000 -0.02400000 0.05695263
v -0.00063509 -0.02336491 0.05663509
v 0.00000000 -0.02495263 0.05545000
v 0.00000000 -0.02510000 0.05600000
v 0.00063509 -0.02463509 0.05536491
v 0.00055000 -0.02495263 0.05600000
v 0.00095263 -0.02455000 0.05600000
v 0.00095263 -0.02400000 0.05545000
v 0.00110000 -0.02400000 0.05600000
v 0.00000000 -0.02495263 0.05655000
v 0.00000000 -0.02455000 0.05695263
v 0.00000000 -0.02400000 0.05710000
v 0.00063509 -0.02463509 0.05663509
v 0.00095263 -0.02400000 0.05655000
v 0.00055000 -0.02400000 0.05695263
v 0.00095263 -0.02345000 0.05600000
v 0.00000000 -0.02345000 0.05695263
v 0.00063509 -0.02336491 0.05663509
v -0.00155000 -0.02100000 0.05495263
v -0.00146356 -0.02087948 0.05497813
v -0.00106814 -0.02076151 0.05508637
v -0.00035745 -0.02038731 0.05465001
v -0.00096045 -0.02056866 0.05503173
v -0.00055120 -0.02064581 0.05493239
v -0.00004737 -0.02100000 0.05345000
v -0.00004737 -0.02045000 0.05400000
v 0.00010000 -0.02100000 0.05400000
v -0.00014818 -0.02064717 0.05452984
v -0.00327556 -0.01455000 0.05264737
v -0.00338333 -0.01458333 0.05268071
v -0.00367622 -0.01496744 0.05310528
v -0.00362601 -0.01495263 0.05305000
v -0.00300000 -0.01400000 0.05250000
v -0.00245000 -0.01400000 0.05264737
v -0.00204737 -0.01400000 0.05305000
v -0.00300000 -0.01345000 0.05264737
v -0.00300000 -0.01304737 0.05305000
v -0.00236491 -0.01336491 0.05296491
v -0.00378596 -0.01510000 0.05360000
v -0.00379785 -0.01509171 0.05363095
v -0.00369516 -0.01495263 0.05415000
v -0.00369516 -0.01490113 0.05420149
v -0.00342429 -0.01455000 0.05455263
v -0.00342048 -0.01445332 0.05457853
v -0.00204737 -0.01400000 0.05415000
v -0.00300000 -0.01400000 0.05470000
v -0.00245000 -0.01400000 0.05455263
v -0.00300000 -0.01290000 0.05360000
v -0.00245000 -0.01304737 0.05360000
v -0.00300000 -0.01304737 0.05415000
v -0.00204737 -0.01345000 0.05360000
v -0.00236491 -0.01336491 0.05423509
v -0.00300000 -0.01345000 0.05455263
f 34 38 37
f 34 35 36
f 35 50 36
f 36 39 38
f 34 36 38
f 36 51 39
f 34 41 40
f 40 41 42
f 37 46 41
f 34 37 41
f 41 46 47
f 41 47 42
f 42 47 48
f 35 40 43
f 34 40 35
f 40 44 43
f 35 43 53
f 43 44 53
f 40 42 44
f 42 45 44
f 44 45 55
f 42 48 45
f 45 48 49
f 45 49 56
f 36 50 51
f 50 52 51
f 35 53 50
f 50 53 54
f 53 55 54
f 50 54 52
f 44 55 53
f 45 56 55
f 54 55 57
f 55 56 57
f 52 54 58
f 54 57 58
f 37 38 60
f 38 39 60
f 37 59 46
f 46 62 47
f 47 64 48
f 48 64 49
f 39 51 66
f 51 52 67
f 49 68 56
f 56 68 57
f 52 58 70
f 57 69 58
f 37 60 59
f 39 61 60
f 39 66 61
f 46 59 62
f 47 62 63
f 47 63 64
f 49 64 65
f 49 65 68
f 51 67 66
f 57 68 69
f 52 70 67
f 58 69 70
f 59 60 81
f 60 61 82
f 61 66 82
f 59 83 62
f 62 83 63
f 63 85 64
f 64 86 65
f 65 86 68
f 66 67 89
f 68 90 69
f 67 70 93
f 69 92 70
f 59 81 80
f 60 82 81
f 59 80 83
f 63 83 84
f 63 84 85
f 64 85 86
f 66 87 82
f 66 88 87
f 66 89 88
f 68 86 90
f 69 91 92
f 69 90 91
f 67 93 89
f 70 92 93
f 80 81 94
f 80 95 83
f 80 94 95
f 84 95 96
f 84 96 85
f 81 82 101
f 81 101 94
f 82 100 101
f 94 101 109
f 94 109 110
f 83 95 84
f 85 113 86
f 94 111 95
f 95 114 96
f 85 96 114
f 85 114 113
f 82 87 98
f 87 88 102
f 87 97 98
f 87 102 97
f 88 89 104
f 88 103 102
f 88 104 103
f 82 99 100
f 82 98 99
f 86 116 90
f 89 93 104
f 93 105 104
f 93 107 105
f 93 108 107
f 93 106 108
f 91 106 92
f 92 106 93
f 90 106 91
f 86 113 115
f 86 115 116
f 90 116 106
f 94 110 111
f 95 111 114
f 115 113 117
f 120 122 119
f 119 122 114
f 117 114 122
f 118 117 122
f 118 122 121
f 118 124 116
f 73 98 97
f 71 101 100
f 71 100 99
f 98 72 99
f 71 99 72
f 71 75 101
f 98 73 72
f 73 97 74
f 102 74 97
f 102 103 74
f 104 125 103
f 104 105 125
f 126 105 107
f 107 108 127
f 125 74 103
f 126 125 105
f 126 107 127
f 108 129 127
f 124 108 106
f 101 75 109
f 110 109 75
f 110 75 111
f 76 112 111
f 112 77 119
f 119 111 112
f 114 111 119
f 117 113 114
f 115 117 116
f 118 116 117
f 122 120 121
f 75 76 111
f 76 77 112
f 78 119 77
f 78 79 119
f 119 79 120
f 121 120 132
f 118 130 131
f 123 131 129
f 79 132 120
f 130 118 132
f 108 124 129
f 124 123 129
f 131 123 118
f 118 121 132
f 124 106 116
f 124 118 123
f 125 126 127
f 128 127 129
f 131 128 129
f 131 130 132
f 3 6 5
f 8 19 18
f 18 19 20
f 4 18 20
f 4 20 21
f 4 21 22
f 2 5 71
f 2 71 9
f 9 71 72
f 9 72 73
f 9 73 74
f 5 6 75
f 6 22 76
f 5 75 71
f 6 76 75
f 22 77 76
f 22 78 77
f 22 79 78
f 9 74 10
f 10 125 11
f 11 125 12
f 12 127 30
f 10 74 125
f 12 125 127
f 24 131 25
f 24 30 131
f 22 23 79
f 23 25 132
f 30 127 128
f 30 128 131
f 23 132 79
f 25 131 132
f 1 2 9
f 1 3 2
f 1 18 3
f 3 18 4
f 2 3 5
f 3 4 6
f 4 22 6
f 1 7 8
f 1 8 18
f 1 9 7
f 7 9 10
f 7 13 8
f 7 10 13
f 10 11 16
f 8 14 26
f 8 13 14
f 10 15 13
f 10 16 15
f 11 12 16
f 12 17 16
f 12 31 17
f 8 26 19
f 19 26 20
f 20 27 21
f 21 23 22
f 21 28 23
f 23 33 25
f 20 26 27
f 21 27 28
f 23 28 29
f 23 29 33
f 12 30 31
f 24 32 30
f 30 32 31
f 24 33 32
f 24 25 33
f 13 179 14
f 13 15 179
f 16 186 15
f 16 17 186
f 180 14 179
f 181 14 182
f 181 189 14
f 180 182 14
f 15 183 179
f 183 15 186
f 187 186 17
f 187 17 198
f 26 14 189
f 190 27 26
f 27 191 28
f 28 196 29
f 31 198 17
f 31 32 198
f 32 33 200
f 33 29 203
f 190 26 189
f 190 191 27
f 192 28 191
f 192 193 28
f 194 28 193
f 194 196 28
f 203 29 196
f 200 198 32
f 203 200 33
f 183 186 184
f 185 184 188
f 188 184 186
f 185 188 201
f 203 196 197
f 197 195 202
f 199 200 202
f 201 188 199
f 201 199 202
f 202 195 201
f 202 200 203
f 136 141 181
f 135 136 183
f 134 136 135
f 135 183 138
f 138 185 175
f 140 190 141
f 139 190 140
f 139 142 190
f 142 169 192
f 169 170 196
f 136 181 182
f 136 180 179
f 136 179 183
f 136 182 180
f 138 183 184
f 187 188 186
f 188 187 199
f 138 184 185
f 175 185 201
f 141 189 181
f 141 190 189
f 142 191 190
f 142 192 191
f 170 171 196
f 169 193 192
f 169 194 193
f 169 196 194
f 171 197 196
f 187 198 199
f 199 198 200
f 203 197 202
f 175 201 176
f 176 195 178
f 172 178 197
f 172 197 174
f 171 173 197
f 173 174 197
f 176 201 195
f 178 195 197
f 133 141 136
f 133 136 134
f 134 135 138
f 134 138 137
f 139 145 142
f 133 140 141
f 133 146 147
f 134 143 146
f 133 134 146
f 133 147 140
f 139 140 147
f 134 155 143
f 134 137 155
f 137 138 155
f 138 175 158
f 138 144 155
f 138 158 144
f 159 175 177
f 158 175 159
f 146 153 148
f 146 148 147
f 145 147 150
f 147 148 149
f 147 149 150
f 148 160 149
f 149 161 151
f 149 151 150
f 151 167 152
f 139 147 145
f 142 145 150
f 142 150 151
f 142 151 169
f 151 170 169
f 151 152 170
f 152 167 171
f 143 153 146
f 143 155 153
f 153 155 156
f 148 153 154
f 153 156 154
f 155 158 157
f 155 157 156
f 144 158 155
f 157 158 159
f 148 154 160
f 154 156 160
f 156 163 160
f 149 160 161
f 160 163 161
f 161 163 165
f 151 161 162
f 151 162 167
f 161 165 162
f 165 168 167
f 162 165 167
f 156 157 163
f 157 164 163
f 157 159 164
f 164 166 168
f 159 166 164
f 163 164 165
f 164 168 165
f 159 176 166
f 166 176 168
f 167 168 174
f 175 176 177
f 159 177 176
f 168 176 178
f 152 171 170
f 167 173 171
f 167 174 173
f 168 178 172
f 168 172 174

