# https://github.com/mikedh/trimesh
v 0.00800000 -0.01700000 0.05080000
v 0.00800000 -0.00220000 0.05080000
v 0.00842920 -0.00215773 0.05080000
v 0.00884190 -0.00203253 0.05080000
v 0.00922225 -0.00182923 0.05080000
v 0.00955563 -0.00155563 0.05080000
v 0.00982923 -0.00122225 0.05080000
v 0.01003253 -0.00084190 0.05080000
v 0.01015773 -0.00042920 0.05080000
v 0.00800000 -0.01700000 0.05130000
v 0.00800000 -0.00220000 0.05130000
v 0.00842920 -0.00215773 0.05130000
v 0.00884190 -0.00203253 0.05130000
v 0.00922225 -0.00182923 0.05130000
v 0.00955563 -0.00155563 0.05130000
v 0.00982923 -0.00122225 0.05130000
v 0.01003253 -0.00084190 0.05130000
v 0.01015773 -0.00042920 0.05130000
v 0.00884190 0.00203253 0.05080000
v 0.00922225 0.00182923 0.05080000
v 0.00800000 0.00220000 0.05080000
v 0.00842920 0.00215773 0.05080000
v 0.01003253 0.00084190 0.05080000
v 0.00955563 0.00155563 0.05080000
v 0.00982923 0.00122225 0.05080000
v 0.01020000 0.00000000 0.05080000
v 0.01015773 0.00042920 0.05080000
v 0.00800000 0.01700000 0.05080000
v 0.00884190 0.00203253 0.05130000
v 0.00922225 0.00182923 0.05130000
v 0.00800000 0.00220000 0.05130000
v 0.00842920 0.00215773 0.05130000
v 0.01003253 0.00084190 0.05130000
v 0.00955563 0.00155563 0.05130000
v 0.00982923 0.00122225 0.05130000
v 0.01020000 0.00000000 0.05130000
v 0.01015773 0.00042920 0.05130000
v 0.00800000 0.01700000 0.05130000
v 0.03000000 -0.01700000 0.05080000
v 0.03000000 -0.01700000 0.05130000
v 0.03000000 0.01700000 0.05080000
v 0.03000000 0.01700000 0.05130000
f 1 10 2
f 1 2 3
f 1 3 39
f 1 39 10
f 39 3 4
f 39 4 5
f 39 5 6
f 39 6 7
f 39 7 8
f 39 8 9
f 39 9 26
f 39 26 27
f 39 25 24
f 39 27 23
f 39 23 25
f 10 11 2
f 10 40 11
f 40 12 11
f 40 13 12
f 40 14 13
f 40 15 14
f 40 16 15
f 40 17 16
f 40 18 17
f 40 36 18
f 40 37 36
f 40 34 35
f 40 33 37
f 40 35 33
f 28 22 21
f 28 19 22
f 28 24 20
f 28 20 19
f 28 21 31
f 28 39 24
f 38 31 32
f 38 32 29
f 38 30 34
f 38 29 30
f 28 31 38
f 38 34 40
f 28 38 42
f 39 41 40
f 10 39 40
f 28 41 39
f 28 42 41
f 38 40 42
f 40 41 42
f 2 11 3
f 4 3 12
f 5 4 13
f 6 5 14
f 7 6 15
f 8 7 16
f 9 8 17
f 9 18 26
f 3 11 12
f 4 12 13
f 5 13 14
f 6 14 15
f 7 15 16
f 8 16 17
f 9 17 18
f 26 18 36
f 22 19 29
f 19 20 30
f 21 22 32
f 25 23 33
f 20 24 34
f 24 25 35
f 26 36 27
f 23 27 37
f 22 29 32
f 19 30 29
f 20 34 30
f 31 21 32
f 24 35 34
f 25 33 35
f 27 36 37
f 23 37 33

