# https://github.com/mikedh/trimesh
v -0.03160000 -0.03200000 0.04840000
v -0.03160000 -0.03200000 0.05080000
v -0.03160000 -0.01800000 0.05080000
v -0.02960000 -0.01800000 0.05080000
v -0.03160000 -0.03400000 0.06600000
v -0.02960000 -0.03400000 0.06600000
v -0.03160000 -0.03011415 0.07082214
v -0.03160000 -0.02994005 0.07060999
v -0.03160000 -0.03032320 0.07132682
v -0.03160000 -0.03035010 0.07159994
v -0.03160000 -0.03024353 0.07106419
v -0.02960000 -0.03085928 0.06969075
v -0.02960000 -0.03119506 0.07009990
v -0.02960000 -0.02998334 0.06910547
v -0.02960000 -0.03045014 0.06935497
v -0.02960000 -0.03144457 0.07056670
v -0.02960000 -0.03159822 0.07107320
v -0.02960000 -0.03165010 0.07159994
v -0.03160000 -0.03032320 0.07187307
v -0.03160000 -0.03024353 0.07213570
v -0.03160000 -0.03011415 0.07237774
v -0.03160000 -0.02994005 0.07258989
v -0.02960000 -0.03159822 0.07212669
v -0.02960000 -0.03144457 0.07263319
v -0.02960000 -0.03119506 0.07309998
v -0.02960000 -0.03085928 0.07350913
v -0.02960000 -0.03045014 0.07384491
v -0.02960000 -0.02998334 0.07409442
v -0.03160000 -0.02948585 0.07030651
v -0.03160000 -0.02972789 0.07043588
v -0.03160000 -0.02922322 0.07022684
v -0.03160000 -0.02895010 0.07019994
v -0.03160000 -0.02867697 0.07022684
v -0.03160000 -0.02841434 0.07030651
v -0.03160000 -0.02817230 0.07043588
v -0.03160000 -0.02796015 0.07060999
v -0.03160000 -0.02778604 0.07082214
v -0.03160000 -0.02765666 0.07106419
v -0.03160000 -0.02757700 0.07132682
v -0.03160000 -0.02755010 0.07159994
v -0.02960000 -0.02947684 0.06895182
v -0.02960000 -0.02895010 0.06889994
v -0.02960000 -0.02842335 0.06895182
v -0.02960000 -0.02791685 0.06910547
v -0.02960000 -0.02745006 0.06935497
v -0.02960000 -0.02704091 0.06969075
v -0.02960000 -0.02670513 0.07009990
v -0.02960000 -0.02645562 0.07056670
v -0.02960000 -0.02630198 0.07107320
v -0.02960000 -0.02625010 0.07159994
v -0.03160000 -0.02972789 0.07276400
v -0.03160000 -0.02948585 0.07289337
v -0.03160000 -0.02922322 0.07297304
v -0.03160000 -0.02895010 0.07299994
v -0.03160000 -0.02765666 0.07213570
v -0.03160000 -0.02796015 0.07258989
v -0.03160000 -0.02778604 0.07237774
v -0.03160000 -0.02867697 0.07297304
v -0.03160000 -0.02841434 0.07289337
v -0.03160000 -0.02817230 0.07276400
v -0.03160000 -0.02757700 0.07187307
v -0.02960000 -0.02947684 0.07424806
v -0.02960000 -0.02895010 0.07429994
v -0.02960000 -0.02842335 0.07424806
v -0.02960000 -0.02791685 0.07409442
v -0.02960000 -0.02670513 0.07309998
v -0.02960000 -0.02704091 0.07350913
v -0.02960000 -0.02630198 0.07212669
v -0.02960000 -0.02645562 0.07263319
v -0.02960000 -0.02745006 0.07384491
v -0.02460000 -0.03085928 0.06969075
v -0.02460000 -0.03119506 0.07009990
v -0.02460000 -0.02998334 0.06910547
v -0.02460000 -0.03045014 0.06935497
v -0.02460000 -0.03144457 0.07056670
v -0.02460000 -0.03159822 0.07107320
v -0.02460000 -0.03165010 0.07159994
v -0.02460000 -0.03011415 0.07082214
v -0.02460000 -0.02994005 0.07060999
v -0.02460000 -0.03032320 0.07132682
v -0.02460000 -0.03035010 0.07159994
v -0.02460000 -0.03024353 0.07106419
v -0.02460000 -0.03159822 0.07212669
v -0.02460000 -0.03144457 0.07263319
v -0.02460000 -0.03119506 0.07309998
v -0.02460000 -0.03085928 0.07350913
v -0.02460000 -0.03032320 0.07187307
v -0.02460000 -0.03024353 0.07213570
v -0.02460000 -0.03011415 0.07237774
v -0.02460000 -0.02994005 0.07258989
v -0.02460000 -0.03045014 0.07384491
v -0.02460000 -0.02998334 0.07409442
v -0.02460000 -0.02947684 0.06895182
v -0.02460000 -0.02895010 0.06889994
v -0.02460000 -0.02842335 0.06895182
v -0.02460000 -0.02791685 0.06910547
v -0.02460000 -0.02948585 0.07030651
v -0.02460000 -0.02972789 0.07043588
v -0.02460000 -0.02922322 0.07022684
v -0.02460000 -0.02895010 0.07019994
v -0.02460000 -0.02867697 0.07022684
v -0.02460000 -0.02841434 0.07030651
v -0.02460000 -0.02817230 0.07043588
v -0.02460000 -0.02796015 0.07060999
v -0.02460000 -0.02778604 0.07082214
v -0.02460000 -0.02765666 0.07106419
v -0.02460000 -0.02745006 0.06935497
v -0.02460000 -0.02704091 0.06969075
v -0.02460000 -0.02670513 0.07009990
v -0.02460000 -0.02757700 0.07132682
v -0.02460000 -0.02755010 0.07159994
v -0.02460000 -0.02645562 0.07056670
v -0.02460000 -0.02630198 0.07107320
v -0.02460000 -0.02625010 0.07159994
v -0.02460000 -0.02972789 0.07276400
v -0.02460000 -0.02948585 0.07289337
v -0.02460000 -0.02922322 0.07297304
v -0.02460000 -0.02895010 0.07299994
v -0.02460000 -0.02765666 0.07213570
v -0.02460000 -0.02796015 0.07258989
v -0.02460000 -0.02778604 0.07237774
v -0.02460000 -0.02867697 0.07297304
v -0.02460000 -0.02841434 0.07289337
v -0.02460000 -0.02817230 0.07276400
v -0.02460000 -0.02947684 0.07424806
v -0.02460000 -0.02895010 0.07429994
v -0.02460000 -0.02842335 0.07424806
v -0.02460000 -0.02791685 0.07409442
v -0.02460000 -0.02757700 0.07187307
v -0.02460000 -0.02670513 0.07309998
v -0.02460000 -0.02704091 0.07350913
v -0.02460000 -0.02630198 0.07212669
v -0.02460000 -0.02645562 0.07263319
v -0.02460000 -0.02745006 0.07384491
v -0.03160000 -0.01800000 0.06600000
v -0.02960000 -0.01800000 0.06600000
v -0.03160000 -0.02177646 0.07510222
v -0.03160000 -0.02139158 0.07502567
v -0.02960000 -0.02177646 0.07510222
v -0.02960000 -0.02139158 0.07502567
v -0.03160000 -0.02100000 0.07500000
v -0.02960000 -0.02100000 0.07500000
v -0.03160000 -0.01400000 0.05080000
v -0.02960000 -0.01400000 0.05080000
v -0.02247487 -0.00247487 0.04840000
v -0.02194450 -0.00291014 0.04840000
v -0.02247487 -0.00247487 0.05080000
v -0.02194450 -0.00291014 0.05080000
v -0.02291014 -0.00194450 0.04840000
v -0.02323358 -0.00133939 0.04840000
v -0.02343275 -0.00068282 0.04840000
v -0.02291014 -0.00194450 0.05080000
v -0.02323358 -0.00133939 0.05080000
v -0.02343275 -0.00068282 0.05080000
v -0.02133939 -0.00323358 0.04840000
v -0.02068282 -0.00343275 0.04840000
v -0.02000000 -0.00350000 0.04840000
v -0.02133939 -0.00323358 0.05080000
v -0.02068282 -0.00343275 0.05080000
v -0.02000000 -0.00350000 0.05080000
v -0.01931718 -0.00343275 0.04840000
v -0.01866061 -0.00323358 0.04840000
v -0.01805550 -0.00291014 0.04840000
v -0.01931718 -0.00343275 0.05080000
v -0.01866061 -0.00323358 0.05080000
v -0.01805550 -0.00291014 0.05080000
v -0.01752513 -0.00247487 0.04840000
v -0.01752513 -0.00247487 0.05080000
v -0.01708986 -0.00194450 0.04840000
v -0.01676642 -0.00133939 0.04840000
v -0.01656725 -0.00068282 0.04840000
v -0.01708986 -0.00194450 0.05080000
v -0.01676642 -0.00133939 0.05080000
v -0.01656725 -0.00068282 0.05080000
v -0.03160000 -0.01400000 0.06600000
v -0.02960000 -0.01400000 0.06600000
v -0.01300000 -0.01800000 0.05080000
v -0.01300000 -0.01800000 0.05600000
v -0.00500000 -0.01800000 0.05080000
v -0.00500000 -0.01800000 0.05600000
v -0.01300000 -0.01516406 0.05282220
v -0.01300000 -0.01498995 0.05261005
v -0.01300000 -0.01529343 0.05306424
v -0.01300000 -0.01537310 0.05332687
v -0.01300000 -0.01540000 0.05360000
v -0.01300000 -0.01537310 0.05387313
v -0.01300000 -0.01529343 0.05413576
v -0.01300000 -0.01516406 0.05437780
v -0.01300000 -0.01498995 0.05458995
v -0.01300000 -0.01477780 0.05243594
v -0.01300000 -0.01453576 0.05230657
v -0.01300000 -0.01427313 0.05222690
v -0.01300000 -0.01400000 0.05220000
v -0.01300000 -0.01372687 0.05222690
v -0.01300000 -0.01346424 0.05230657
v -0.01300000 -0.01322220 0.05243594
v -0.01300000 -0.01301005 0.05261005
v -0.01300000 -0.01283594 0.05282220
v -0.01300000 -0.01477780 0.05476406
v -0.01300000 -0.01453576 0.05489343
v -0.01300000 -0.01427313 0.05497310
v -0.01300000 -0.01400000 0.05500000
v -0.01300000 -0.01372687 0.05497310
v -0.01300000 -0.01346424 0.05489343
v -0.01300000 -0.01283594 0.05437780
v -0.01300000 -0.01301005 0.05458995
v -0.01300000 -0.01322220 0.05476406
v -0.01300000 -0.01000000 0.05080000
v -0.01300000 -0.01270657 0.05306424
v -0.01300000 -0.01262690 0.05332687
v -0.01300000 -0.01260000 0.05360000
v -0.01300000 -0.01262690 0.05387313
v -0.01300000 -0.01270657 0.05413576
v -0.01300000 -0.01000000 0.05600000
v -0.00910866 -0.00045922 0.04840000
v -0.00917694 -0.00023411 0.04840000
v -0.00845922 -0.00110866 0.04840000
v -0.00823411 -0.00117694 0.04840000
v -0.00899776 -0.00066668 0.04840000
v -0.00884853 -0.00084853 0.04840000
v -0.00866668 -0.00099776 0.04840000
v -0.00910866 -0.00045922 0.05080000
v -0.00917694 -0.00023411 0.05080000
v -0.00845922 -0.00110866 0.05080000
v -0.00823411 -0.00117694 0.05080000
v -0.00899776 -0.00066668 0.05080000
v -0.00884853 -0.00084853 0.05080000
v -0.00866668 -0.00099776 0.05080000
v -0.00500000 -0.01516406 0.05282220
v -0.00500000 -0.01498995 0.05261005
v -0.00500000 -0.01529343 0.05306424
v -0.00500000 -0.01537310 0.05332687
v -0.00500000 -0.01540000 0.05360000
v -0.00500000 -0.01537310 0.05387313
v -0.00500000 -0.01529343 0.05413576
v -0.00500000 -0.01516406 0.05437780
v -0.00500000 -0.01498995 0.05458995
v -0.00500000 -0.01477780 0.05243594
v -0.00500000 -0.01453576 0.05230657
v -0.00500000 -0.01427313 0.05222690
v -0.00500000 -0.01400000 0.05220000
v -0.00500000 -0.01372687 0.05222690
v -0.00500000 -0.01346424 0.05230657
v -0.00500000 -0.01322220 0.05243594
v -0.00500000 -0.01301005 0.05261005
v -0.00500000 -0.01283594 0.05282220
v -0.00500000 -0.01477780 0.05476406
v -0.00500000 -0.01453576 0.05489343
v -0.00500000 -0.01427313 0.05497310
v -0.00500000 -0.01400000 0.05500000
v -0.00500000 -0.01372687 0.05497310
v -0.00500000 -0.01346424 0.05489343
v -0.00500000 -0.01283594 0.05437780
v -0.00500000 -0.01301005 0.05458995
v -0.00500000 -0.01322220 0.05476406
v -0.00500000 -0.01000000 0.05080000
v -0.00500000 -0.01270657 0.05306424
v -0.00500000 -0.01262690 0.05332687
v -0.00500000 -0.01260000 0.05360000
v -0.00500000 -0.01262690 0.05387313
v -0.00500000 -0.01270657 0.05413576
v -0.00500000 -0.01000000 0.05600000
v -0.00800000 -0.00120000 0.04840000
v -0.00776589 -0.00117694 0.04840000
v -0.00754078 -0.00110866 0.04840000
v -0.00733332 -0.00099776 0.04840000
v -0.00715147 -0.00084853 0.04840000
v -0.00700224 -0.00066668 0.04840000
v -0.00689134 -0.00045922 0.04840000
v -0.00682306 -0.00023411 0.04840000
v -0.00800000 -0.00120000 0.05080000
v -0.00776589 -0.00117694 0.05080000
v -0.00754078 -0.00110866 0.05080000
v -0.00733332 -0.00099776 0.05080000
v -0.00715147 -0.00084853 0.05080000
v -0.00700224 -0.00066668 0.05080000
v -0.00689134 -0.00045922 0.05080000
v -0.00682306 -0.00023411 0.05080000
v -0.03160000 -0.02338006 0.07617372
v -0.03160000 -0.02377164 0.07685195
v -0.03160000 -0.02359808 0.07650000
v -0.03160000 -0.02397433 0.07760842
v -0.03160000 -0.02389778 0.07722354
v -0.03160000 -0.02400000 0.07800000
v -0.03160000 -0.02312132 0.07587868
v -0.03160000 -0.02250000 0.07540192
v -0.03160000 -0.02282628 0.07561994
v -0.03160000 -0.02214805 0.07522836
v -0.02960000 -0.02338006 0.07617372
v -0.02960000 -0.02377164 0.07685195
v -0.02960000 -0.02359808 0.07650000
v -0.02960000 -0.02397433 0.07760842
v -0.02960000 -0.02389778 0.07722354
v -0.02960000 -0.02400000 0.07800000
v -0.02960000 -0.02312132 0.07587868
v -0.02960000 -0.02250000 0.07540192
v -0.02960000 -0.02282628 0.07561994
v -0.02960000 -0.02214805 0.07522836
v -0.03160000 -0.02989001 0.09346009
v -0.03160000 -0.03030006 0.09445004
v -0.03160000 -0.03006412 0.09367224
v -0.03160000 -0.03019349 0.09391428
v -0.03160000 -0.03027316 0.09417691
v -0.03160000 -0.03027316 0.09472316
v -0.03160000 -0.03019349 0.09498579
v -0.03160000 -0.03006412 0.09522783
v -0.02960000 -0.03139453 0.09341679
v -0.02960000 -0.03114503 0.09295000
v -0.02960000 -0.03040010 0.09220507
v -0.02960000 -0.03080925 0.09254085
v -0.02960000 -0.02993330 0.09195556
v -0.02960000 -0.03154818 0.09392329
v -0.02960000 -0.03160006 0.09445004
v -0.02960000 -0.03154818 0.09497678
v -0.02960000 -0.02942680 0.09180192
v -0.02960000 -0.02890006 0.09175004
v -0.02960000 -0.02837331 0.09180192
v -0.03160000 -0.02943581 0.09315660
v -0.03160000 -0.02967786 0.09328598
v -0.03160000 -0.02917318 0.09307694
v -0.03160000 -0.02890006 0.09305004
v -0.03160000 -0.02862693 0.09307694
v -0.03160000 -0.02836430 0.09315660
v -0.03160000 -0.02812226 0.09328598
v -0.03160000 -0.02791011 0.09346009
v -0.03160000 -0.02773600 0.09367224
v -0.03160000 -0.02773600 0.09522783
v -0.03160000 -0.02760663 0.09391428
v -0.03160000 -0.02752696 0.09417691
v -0.03160000 -0.02750006 0.09445004
v -0.03160000 -0.02752696 0.09472316
v -0.03160000 -0.02760663 0.09498579
v -0.02960000 -0.02786681 0.09195556
v -0.02960000 -0.02740002 0.09220507
v -0.02960000 -0.02699087 0.09254085
v -0.02960000 -0.02665509 0.09295000
v -0.02960000 -0.02640558 0.09341679
v -0.02960000 -0.02625194 0.09392329
v -0.02960000 -0.02620006 0.09445004
v -0.02960000 -0.02625194 0.09497678
v -0.02460000 -0.03139453 0.09341679
v -0.02460000 -0.03114503 0.09295000
v -0.02460000 -0.03040010 0.09220507
v -0.02460000 -0.03080925 0.09254085
v -0.02460000 -0.02993330 0.09195556
v -0.02460000 -0.02989001 0.09346009
v -0.02460000 -0.03154818 0.09392329
v -0.02460000 -0.03160006 0.09445004
v -0.02460000 -0.03154818 0.09497678
v -0.02460000 -0.03030006 0.09445004
v -0.02460000 -0.03006412 0.09367224
v -0.02460000 -0.03019349 0.09391428
v -0.02460000 -0.03027316 0.09417691
v -0.02460000 -0.03027316 0.09472316
v -0.02460000 -0.03019349 0.09498579
v -0.02460000 -0.03006412 0.09522783
v -0.02460000 -0.02942680 0.09180192
v -0.02460000 -0.02890006 0.09175004
v -0.02460000 -0.02837331 0.09180192
v -0.02460000 -0.02943581 0.09315660
v -0.02460000 -0.02967786 0.09328598
v -0.02460000 -0.02917318 0.09307694
v -0.02460000 -0.02890006 0.09305004
v -0.02460000 -0.02786681 0.09195556
v -0.02460000 -0.02862693 0.09307694
v -0.02460000 -0.02836430 0.09315660
v -0.02460000 -0.02812226 0.09328598
v -0.02460000 -0.02791011 0.09346009
v -0.02460000 -0.02773600 0.09367224
v -0.02460000 -0.02773600 0.09522783
v -0.02460000 -0.02740002 0.09220507
v -0.02460000 -0.02699087 0.09254085
v -0.02460000 -0.02665509 0.09295000
v -0.02460000 -0.02640558 0.09341679
v -0.02460000 -0.02760663 0.09391428
v -0.02460000 -0.02752696 0.09417691
v -0.02460000 -0.02750006 0.09445004
v -0.02460000 -0.02752696 0.09472316
v -0.02460000 -0.02760663 0.09498579
v -0.02460000 -0.02625194 0.09392329
v -0.02460000 -0.02620006 0.09445004
v -0.02460000 -0.02625194 0.09497678
v -0.03160000 -0.02989001 0.09543999
v -0.02960000 -0.03139453 0.09548328
v -0.02960000 -0.03114503 0.09595008
v -0.02960000 -0.03080925 0.09635922
v -0.02960000 -0.03040010 0.09669500
v -0.02960000 -0.02993330 0.09694451
v -0.03160000 -0.03400000 0.10200000
v -0.02960000 -0.03400000 0.10200000
v -0.03160000 -0.02967786 0.09561409
v -0.03160000 -0.02943581 0.09574347
v -0.03160000 -0.02917318 0.09582314
v -0.03160000 -0.02890006 0.09585004
v -0.03160000 -0.02862693 0.09582314
v -0.03160000 -0.02836430 0.09574347
v -0.03160000 -0.02791011 0.09543999
v -0.03160000 -0.02812226 0.09561409
v -0.02960000 -0.02786681 0.09694451
v -0.02960000 -0.02942680 0.09709816
v -0.02960000 -0.02890006 0.09715004
v -0.02960000 -0.02837331 0.09709816
v -0.02960000 -0.02665509 0.09595008
v -0.02960000 -0.02740002 0.09669500
v -0.02960000 -0.02699087 0.09635922
v -0.02960000 -0.02640558 0.09548328
v -0.02460000 -0.03139453 0.09548328
v -0.02460000 -0.03114503 0.09595008
v -0.02460000 -0.02989001 0.09543999
v -0.02460000 -0.03080925 0.09635922
v -0.02460000 -0.03040010 0.09669500
v -0.02460000 -0.02993330 0.09694451
v -0.02460000 -0.02967786 0.09561409
v -0.02460000 -0.02943581 0.09574347
v -0.02460000 -0.02917318 0.09582314
v -0.02460000 -0.02890006 0.09585004
v -0.02460000 -0.02862693 0.09582314
v -0.02460000 -0.02836430 0.09574347
v -0.02460000 -0.02791011 0.09543999
v -0.02460000 -0.02812226 0.09561409
v -0.02460000 -0.02786681 0.09694451
v -0.02460000 -0.02942680 0.09709816
v -0.02460000 -0.02890006 0.09715004
v -0.02460000 -0.02837331 0.09709816
v -0.02460000 -0.02665509 0.09595008
v -0.02460000 -0.02740002 0.09669500
v -0.02460000 -0.02699087 0.09635922
v -0.02460000 -0.02640558 0.09548328
v -0.03160000 -0.02400000 0.09000000
v -0.03160000 -0.02397433 0.09039158
v -0.03160000 -0.02389778 0.09077646
v -0.03160000 -0.02377164 0.09114805
v -0.03160000 -0.02359808 0.09150000
v -0.03160000 -0.02338006 0.09182628
v -0.02960000 -0.02400000 0.09000000
v -0.02960000 -0.02397433 0.09039158
v -0.02960000 -0.02389778 0.09077646
v -0.02960000 -0.02377164 0.09114805
v -0.02960000 -0.02359808 0.09150000
v -0.02960000 -0.02338006 0.09182628
v -0.03160000 -0.02312132 0.09212132
v -0.03160000 -0.02282628 0.09238006
v -0.03160000 -0.02250000 0.09259808
v -0.03160000 -0.02214805 0.09277164
v -0.03160000 -0.02177646 0.09289778
v -0.03160000 -0.02139158 0.09297433
v -0.02960000 -0.02312132 0.09212132
v -0.02960000 -0.02282628 0.09238006
v -0.02960000 -0.02250000 0.09259808
v -0.02960000 -0.02214805 0.09277164
v -0.02960000 -0.02177646 0.09289778
v -0.02960000 -0.02139158 0.09297433
v -0.03160000 -0.02100000 0.09300000
v -0.02960000 -0.02100000 0.09300000
v -0.03160000 0.01400000 0.05080000
v -0.02960000 0.01400000 0.05080000
v -0.02350000 0.00000000 0.04840000
v -0.02343275 0.00068282 0.04840000
v -0.02323358 0.00133939 0.04840000
v -0.02291014 0.00194450 0.04840000
v -0.02350000 0.00000000 0.05080000
v -0.02343275 0.00068282 0.05080000
v -0.02323358 0.00133939 0.05080000
v -0.02291014 0.00194450 0.05080000
v -0.02247487 0.00247487 0.04840000
v -0.02194450 0.00291014 0.04840000
v -0.02247487 0.00247487 0.05080000
v -0.02194450 0.00291014 0.05080000
v -0.02133939 0.00323358 0.04840000
v -0.02068282 0.00343275 0.04840000
v -0.02000000 0.00350000 0.04840000
v -0.02133939 0.00323358 0.05080000
v -0.02068282 0.00343275 0.05080000
v -0.02000000 0.00350000 0.05080000
v -0.01931718 0.00343275 0.04840000
v -0.01805550 0.00291014 0.04840000
v -0.01866061 0.00323358 0.04840000
v -0.01931718 0.00343275 0.05080000
v -0.01805550 0.00291014 0.05080000
v -0.01866061 0.00323358 0.05080000
v -0.01708986 0.00194450 0.04840000
v -0.01650000 0.00000000 0.04840000
v -0.01656725 0.00068282 0.04840000
v -0.01676642 0.00133939 0.04840000
v -0.01708986 0.00194450 0.05080000
v -0.01650000 0.00000000 0.05080000
v -0.01656725 0.00068282 0.05080000
v -0.01676642 0.00133939 0.05080000
v -0.01752513 0.00247487 0.04840000
v -0.01752513 0.00247487 0.05080000
v -0.03160000 0.01400000 0.06600000
v -0.02960000 0.01400000 0.06600000
v -0.03160000 0.01800000 0.05080000
v -0.02960000 0.01800000 0.05080000
v -0.03160000 0.03200000 0.04840000
v -0.03160000 0.03200000 0.05080000
v -0.03160000 0.01800000 0.06600000
v -0.02960000 0.01800000 0.06600000
v -0.03160000 0.02100000 0.07500000
v -0.02960000 0.02100000 0.07500000
v -0.03160000 0.02139158 0.07502567
v -0.03160000 0.02177646 0.07510222
v -0.02960000 0.02139158 0.07502567
v -0.02960000 0.02177646 0.07510222
v -0.03160000 0.03400000 0.06600000
v -0.02960000 0.03400000 0.06600000
v -0.03160000 0.02760650 0.07106419
v -0.03160000 0.02752683 0.07132682
v -0.03160000 0.02749993 0.07159994
v -0.03160000 0.02812213 0.07043588
v -0.03160000 0.02773587 0.07082214
v -0.03160000 0.02790998 0.07060999
v -0.03160000 0.02836417 0.07030651
v -0.03160000 0.02862680 0.07022684
v -0.03160000 0.02889993 0.07019994
v -0.03160000 0.02917305 0.07022684
v -0.03160000 0.02943568 0.07030651
v -0.03160000 0.02967773 0.07043588
v -0.02960000 0.02699074 0.06969075
v -0.02960000 0.02665496 0.07009990
v -0.02960000 0.02739989 0.06935497
v -0.02960000 0.02640545 0.07056670
v -0.02960000 0.02625181 0.07107320
v -0.02960000 0.02619993 0.07159994
v -0.02960000 0.02786668 0.06910547
v -0.02960000 0.02837318 0.06895182
v -0.02960000 0.02889993 0.06889994
v -0.02960000 0.02942667 0.06895182
v -0.03160000 0.02752683 0.07187307
v -0.03160000 0.02760650 0.07213570
v -0.03160000 0.02773587 0.07237774
v -0.03160000 0.02790998 0.07258989
v -0.03160000 0.02812213 0.07276400
v -0.03160000 0.02836417 0.07289337
v -0.03160000 0.02862680 0.07297304
v -0.03160000 0.02889993 0.07299994
v -0.03160000 0.02917305 0.07297304
v -0.03160000 0.02943568 0.07289337
v -0.03160000 0.02967773 0.07276400
v -0.02960000 0.02625181 0.07212669
v -0.02960000 0.02640545 0.07263319
v -0.02960000 0.02665496 0.07309998
v -0.02960000 0.02699074 0.07350913
v -0.02960000 0.02739989 0.07384491
v -0.02960000 0.02786668 0.07409442
v -0.02960000 0.02837318 0.07424806
v -0.02960000 0.02889993 0.07429994
v -0.02960000 0.02942667 0.07424806
v -0.03160000 0.02988988 0.07060999
v -0.03160000 0.03006399 0.07082214
v -0.03160000 0.03019336 0.07106419
v -0.03160000 0.03027303 0.07132682
v -0.03160000 0.03029993 0.07159994
v -0.02960000 0.02993317 0.06910547
v -0.02960000 0.03039997 0.06935497
v -0.02960000 0.03080912 0.06969075
v -0.02960000 0.03114490 0.07009990
v -0.02960000 0.03139440 0.07056670
v -0.02960000 0.03154805 0.07107320
v -0.02960000 0.03159993 0.07159994
v -0.03160000 0.03027303 0.07187307
v -0.03160000 0.03019336 0.07213570
v -0.03160000 0.02988988 0.07258989
v -0.03160000 0.03006399 0.07237774
v -0.02960000 0.03080912 0.07350913
v -0.02960000 0.03154805 0.07212669
v -0.02960000 0.03139440 0.07263319
v -0.02960000 0.03114490 0.07309998
v -0.02960000 0.02993317 0.07409442
v -0.02960000 0.03039997 0.07384491
v -0.02460000 0.02699074 0.06969075
v -0.02460000 0.02665496 0.07009990
v -0.02460000 0.02739989 0.06935497
v -0.02460000 0.02640545 0.07056670
v -0.02460000 0.02625181 0.07107320
v -0.02460000 0.02619993 0.07159994
v -0.02460000 0.02760650 0.07106419
v -0.02460000 0.02752683 0.07132682
v -0.02460000 0.02749993 0.07159994
v -0.02460000 0.02786668 0.06910547
v -0.02460000 0.02837318 0.06895182
v -0.02460000 0.02889993 0.06889994
v -0.02460000 0.02942667 0.06895182
v -0.02460000 0.02812213 0.07043588
v -0.02460000 0.02773587 0.07082214
v -0.02460000 0.02790998 0.07060999
v -0.02460000 0.02836417 0.07030651
v -0.02460000 0.02862680 0.07022684
v -0.02460000 0.02889993 0.07019994
v -0.02460000 0.02917305 0.07022684
v -0.02460000 0.02943568 0.07030651
v -0.02460000 0.02967773 0.07043588
v -0.02460000 0.02625181 0.07212669
v -0.02460000 0.02640545 0.07263319
v -0.02460000 0.02752683 0.07187307
v -0.02460000 0.02760650 0.07213570
v -0.02460000 0.02665496 0.07309998
v -0.02460000 0.02699074 0.07350913
v -0.02460000 0.02739989 0.07384491
v -0.02460000 0.02773587 0.07237774
v -0.02460000 0.02790998 0.07258989
v -0.02460000 0.02812213 0.07276400
v -0.02460000 0.02836417 0.07289337
v -0.02460000 0.02862680 0.07297304
v -0.02460000 0.02889993 0.07299994
v -0.02460000 0.02917305 0.07297304
v -0.02460000 0.02943568 0.07289337
v -0.02460000 0.02967773 0.07276400
v -0.02460000 0.02786668 0.07409442
v -0.02460000 0.02837318 0.07424806
v -0.02460000 0.02889993 0.07429994
v -0.02460000 0.02942667 0.07424806
v -0.02460000 0.02993317 0.06910547
v -0.02460000 0.03039997 0.06935497
v -0.02460000 0.03080912 0.06969075
v -0.02460000 0.03114490 0.07009990
v -0.02460000 0.02988988 0.07060999
v -0.02460000 0.03006399 0.07082214
v -0.02460000 0.03019336 0.07106419
v -0.02460000 0.03027303 0.07132682
v -0.02460000 0.03029993 0.07159994
v -0.02460000 0.03139440 0.07056670
v -0.02460000 0.03154805 0.07107320
v -0.02460000 0.03159993 0.07159994
v -0.02460000 0.03027303 0.07187307
v -0.02460000 0.03019336 0.07213570
v -0.02460000 0.02988988 0.07258989
v -0.02460000 0.03006399 0.07237774
v -0.02460000 0.03080912 0.07350913
v -0.02460000 0.03154805 0.07212669
v -0.02460000 0.03139440 0.07263319
v -0.02460000 0.03114490 0.07309998
v -0.02460000 0.02993317 0.07409442
v -0.02460000 0.03039997 0.07384491
v -0.00920000 0.00000000 0.04840000
v -0.00917694 0.00023411 0.04840000
v -0.00910866 0.00045922 0.04840000
v -0.00899776 0.00066668 0.04840000
v -0.00884853 0.00084853 0.04840000
v -0.00866668 0.00099776 0.04840000
v -0.00845922 0.00110866 0.04840000
v -0.00823411 0.00117694 0.04840000
v -0.00920000 0.00000000 0.05080000
v -0.00917694 0.00023411 0.05080000
v -0.00910866 0.00045922 0.05080000
v -0.00899776 0.00066668 0.05080000
v -0.00884853 0.00084853 0.05080000
v -0.00866668 0.00099776 0.05080000
v -0.00845922 0.00110866 0.05080000
v -0.00823411 0.00117694 0.05080000
v -0.00733332 0.00099776 0.04840000
v -0.00715147 0.00084853 0.04840000
v -0.00800000 0.00120000 0.04840000
v -0.00776589 0.00117694 0.04840000
v -0.00754078 0.00110866 0.04840000
v -0.00680000 0.00000000 0.04840000
v -0.00682306 0.00023411 0.04840000
v -0.00689134 0.00045922 0.04840000
v -0.00700224 0.00066668 0.04840000
v -0.00733332 0.00099776 0.05080000
v -0.00715147 0.00084853 0.05080000
v -0.00800000 0.00120000 0.05080000
v -0.00776589 0.00117694 0.05080000
v -0.00754078 0.00110866 0.05080000
v -0.00680000 0.00000000 0.05080000
v -0.00682306 0.00023411 0.05080000
v -0.00689134 0.00045922 0.05080000
v -0.00700224 0.00066668 0.05080000
v -0.03160000 0.02214805 0.07522836
v -0.03160000 0.02250000 0.07540192
v -0.03160000 0.02282628 0.07561994
v -0.03160000 0.02312132 0.07587868
v -0.03160000 0.02338006 0.07617372
v -0.03160000 0.02359808 0.07650000
v -0.03160000 0.02377164 0.07685195
v -0.03160000 0.02389778 0.07722354
v -0.03160000 0.02397433 0.07760842
v -0.03160000 0.02400000 0.07800000
v -0.02960000 0.02214805 0.07522836
v -0.02960000 0.02250000 0.07540192
v -0.02960000 0.02282628 0.07561994
v -0.02960000 0.02312132 0.07587868
v -0.02960000 0.02338006 0.07617372
v -0.02960000 0.02359808 0.07650000
v -0.02960000 0.02377164 0.07685195
v -0.02960000 0.02389778 0.07722354
v -0.02960000 0.02397433 0.07760842
v -0.02960000 0.02400000 0.07800000
v -0.03160000 0.02100000 0.09300000
v -0.02960000 0.02100000 0.09300000
v -0.03160000 0.02400000 0.09000000
v -0.03160000 0.02389778 0.09077646
v -0.03160000 0.02397433 0.09039158
v -0.03160000 0.02359808 0.09150000
v -0.03160000 0.02377164 0.09114805
v -0.03160000 0.02338006 0.09182628
v -0.02960000 0.02400000 0.09000000
v -0.02960000 0.02389778 0.09077646
v -0.02960000 0.02397433 0.09039158
v -0.02960000 0.02359808 0.09150000
v -0.02960000 0.02377164 0.09114805
v -0.02960000 0.02338006 0.09182628
v -0.03160000 0.02214805 0.09277164
v -0.03160000 0.02139158 0.09297433
v -0.03160000 0.02177646 0.09289778
v -0.03160000 0.02250000 0.09259808
v -0.03160000 0.02282628 0.09238006
v -0.03160000 0.02312132 0.09212132
v -0.02960000 0.02214805 0.09277164
v -0.02960000 0.02139158 0.09297433
v -0.02960000 0.02177646 0.09289778
v -0.02960000 0.02250000 0.09259808
v -0.02960000 0.02282628 0.09238006
v -0.02960000 0.02312132 0.09212132
v -0.02960000 0.02837318 0.09185195
v -0.02960000 0.02889993 0.09180007
v -0.02960000 0.02942667 0.09185195
v -0.03160000 0.02760650 0.09396432
v -0.03160000 0.02752683 0.09422695
v -0.03160000 0.02749993 0.09450007
v -0.03160000 0.02752683 0.09477320
v -0.03160000 0.02760650 0.09503583
v -0.03160000 0.02812213 0.09333602
v -0.03160000 0.02790998 0.09351012
v -0.03160000 0.02862680 0.09312697
v -0.03160000 0.02836417 0.09320664
v -0.03160000 0.02889993 0.09310007
v -0.03160000 0.02917305 0.09312697
v -0.03160000 0.02943568 0.09320664
v -0.03160000 0.02967773 0.09333602
v -0.03160000 0.02773587 0.09372228
v -0.03160000 0.02773587 0.09527787
v -0.02960000 0.02640545 0.09346683
v -0.02960000 0.02699074 0.09259089
v -0.02960000 0.02739989 0.09225511
v -0.02960000 0.02665496 0.09300003
v -0.02960000 0.02625181 0.09397333
v -0.02960000 0.02619993 0.09450007
v -0.02960000 0.02625181 0.09502682
v -0.02960000 0.02786668 0.09200560
v -0.03160000 0.02988988 0.09351012
v -0.03160000 0.03006399 0.09372228
v -0.03160000 0.03019336 0.09396432
v -0.03160000 0.03027303 0.09422695
v -0.03160000 0.03027303 0.09477320
v -0.03160000 0.03019336 0.09503583
v -0.03160000 0.03006399 0.09527787
v -0.03160000 0.03029993 0.09450007
v -0.02960000 0.02993317 0.09200560
v -0.02960000 0.03039997 0.09225511
v -0.02960000 0.03080912 0.09259089
v -0.02960000 0.03114490 0.09300003
v -0.02960000 0.03139440 0.09346683
v -0.02960000 0.03154805 0.09397333
v -0.02960000 0.03159993 0.09450007
v -0.02960000 0.03154805 0.09502682
v -0.02460000 0.02837318 0.09185195
v -0.02460000 0.02889993 0.09180007
v -0.02460000 0.02942667 0.09185195
v -0.02460000 0.02640545 0.09346683
v -0.02460000 0.02699074 0.09259089
v -0.02460000 0.02739989 0.09225511
v -0.02460000 0.02665496 0.09300003
v -0.02460000 0.02625181 0.09397333
v -0.02460000 0.02619993 0.09450007
v -0.02460000 0.02625181 0.09502682
v -0.02460000 0.02760650 0.09396432
v -0.02460000 0.02752683 0.09422695
v -0.02460000 0.02749993 0.09450007
v -0.02460000 0.02752683 0.09477320
v -0.02460000 0.02760650 0.09503583
v -0.02460000 0.02786668 0.09200560
v -0.02460000 0.02812213 0.09333602
v -0.02460000 0.02790998 0.09351012
v -0.02460000 0.02862680 0.09312697
v -0.02460000 0.02836417 0.09320664
v -0.02460000 0.02889993 0.09310007
v -0.02460000 0.02917305 0.09312697
v -0.02460000 0.02943568 0.09320664
v -0.02460000 0.02967773 0.09333602
v -0.02460000 0.02773587 0.09372228
v -0.02460000 0.02773587 0.09527787
v -0.02460000 0.02993317 0.09200560
v -0.02460000 0.03039997 0.09225511
v -0.02460000 0.03080912 0.09259089
v -0.02460000 0.02988988 0.09351012
v -0.02460000 0.03114490 0.09300003
v -0.02460000 0.03139440 0.09346683
v -0.02460000 0.03006399 0.09372228
v -0.02460000 0.03019336 0.09396432
v -0.02460000 0.03027303 0.09422695
v -0.02460000 0.03027303 0.09477320
v -0.02460000 0.03019336 0.09503583
v -0.02460000 0.03006399 0.09527787
v -0.02460000 0.03029993 0.09450007
v -0.02460000 0.03154805 0.09397333
v -0.02460000 0.03159993 0.09450007
v -0.02460000 0.03154805 0.09502682
v -0.03160000 0.02790998 0.09549002
v -0.03160000 0.02812213 0.09566413
v -0.03160000 0.02836417 0.09579351
v -0.03160000 0.02862680 0.09587317
v -0.03160000 0.02889993 0.09590007
v -0.03160000 0.02917305 0.09587317
v -0.03160000 0.02967773 0.09566413
v -0.03160000 0.02943568 0.09579351
v -0.02960000 0.02640545 0.09553332
v -0.02960000 0.02665496 0.09600011
v -0.02960000 0.02699074 0.09640926
v -0.02960000 0.02739989 0.09674504
v -0.02960000 0.02786668 0.09699455
v -0.02960000 0.02837318 0.09714819
v -0.02960000 0.02889993 0.09720007
v -0.02960000 0.02942667 0.09714819
v -0.03160000 0.02988988 0.09549002
v -0.02960000 0.03080912 0.09640926
v -0.02960000 0.03039997 0.09674504
v -0.02960000 0.03114490 0.09600011
v -0.02960000 0.03139440 0.09553332
v -0.02960000 0.02993317 0.09699455
v -0.03160000 0.03400000 0.10200000
v -0.02960000 0.03400000 0.10200000
v -0.02460000 0.02640545 0.09553332
v -0.02460000 0.02665496 0.09600011
v -0.02460000 0.02699074 0.09640926
v -0.02460000 0.02739989 0.09674504
v -0.02460000 0.02790998 0.09549002
v -0.02460000 0.02812213 0.09566413
v -0.02460000 0.02836417 0.09579351
v -0.02460000 0.02862680 0.09587317
v -0.02460000 0.02889993 0.09590007
v -0.02460000 0.02917305 0.09587317
v -0.02460000 0.02967773 0.09566413
v -0.02460000 0.02943568 0.09579351
v -0.02460000 0.02786668 0.09699455
v -0.02460000 0.02837318 0.09714819
v -0.02460000 0.02889993 0.09720007
v -0.02460000 0.02942667 0.09714819
v -0.02460000 0.02988988 0.09549002
v -0.02460000 0.03080912 0.09640926
v -0.02460000 0.03039997 0.09674504
v -0.02460000 0.03114490 0.09600011
v -0.02460000 0.03139440 0.09553332
v -0.02460000 0.02993317 0.09699455
v 0.00700224 -0.00066668 0.04840000
v 0.00689134 -0.00045922 0.04840000
v 0.00682306 -0.00023411 0.04840000
v 0.00715147 -0.00084853 0.04840000
v 0.00733332 -0.00099776 0.04840000
v 0.00700224 -0.00066668 0.05080000
v 0.00689134 -0.00045922 0.05080000
v 0.00682306 -0.00023411 0.05080000
v 0.00715147 -0.00084853 0.05080000
v 0.00733332 -0.00099776 0.05080000
v 0.00754078 -0.00110866 0.04840000
v 0.00776589 -0.00117694 0.04840000
v 0.00800000 -0.00120000 0.04840000
v 0.00823411 -0.00117694 0.04840000
v 0.00845922 -0.00110866 0.04840000
v 0.00866668 -0.00099776 0.04840000
v 0.00884853 -0.00084853 0.04840000
v 0.00899776 -0.00066668 0.04840000
v 0.00910866 -0.00045922 0.04840000
v 0.00917694 -0.00023411 0.04840000
v 0.00754078 -0.00110866 0.05080000
v 0.00776589 -0.00117694 0.05080000
v 0.00800000 -0.00120000 0.05080000
v 0.00823411 -0.00117694 0.05080000
v 0.00845922 -0.00110866 0.05080000
v 0.00866668 -0.00099776 0.05080000
v 0.00884853 -0.00084853 0.05080000
v 0.00899776 -0.00066668 0.05080000
v 0.00910866 -0.00045922 0.05080000
v 0.00917694 -0.00023411 0.05080000
v 0.02000000 -0.02800000 0.05080000
v 0.02240000 -0.02800000 0.05080000
v 0.02000000 -0.02100000 0.05080000
v 0.02240000 -0.02100000 0.05080000
v 0.03100000 -0.03200000 0.04840000
v 0.03100000 -0.03200000 0.05080000
v 0.02000000 -0.02800000 0.06200000
v 0.02240000 -0.02800000 0.06200000
v 0.02000000 -0.02800000 0.06900000
v 0.02262690 -0.02477313 0.06200000
v 0.02260000 -0.02450000 0.06200000
v 0.02283594 -0.02527780 0.06200000
v 0.02270657 -0.02503576 0.06200000
v 0.02301005 -0.02548995 0.06200000
v 0.02262690 -0.02422687 0.06200000
v 0.02270657 -0.02396424 0.06200000
v 0.02283594 -0.02372220 0.06200000
v 0.02301005 -0.02351005 0.06200000
v 0.02000000 -0.02100000 0.06200000
v 0.02240000 -0.02100000 0.06200000
v 0.02262690 -0.02477313 0.06900000
v 0.02260000 -0.02450000 0.06900000
v 0.02283594 -0.02527780 0.06900000
v 0.02270657 -0.02503576 0.06900000
v 0.02301005 -0.02548995 0.06900000
v 0.02262690 -0.02422687 0.06900000
v 0.02270657 -0.02396424 0.06900000
v 0.02283594 -0.02372220 0.06900000
v 0.02301005 -0.02351005 0.06900000
v 0.02000000 -0.02100000 0.06900000
v 0.02322220 -0.02566406 0.06200000
v 0.02346424 -0.02579343 0.06200000
v 0.02372687 -0.02587310 0.06200000
v 0.02400000 -0.02590000 0.06200000
v 0.02427313 -0.02587310 0.06200000
v 0.02453576 -0.02579343 0.06200000
v 0.02477780 -0.02566406 0.06200000
v 0.02800000 -0.02800000 0.06200000
v 0.02322220 -0.02566406 0.06900000
v 0.02346424 -0.02579343 0.06900000
v 0.02372687 -0.02587310 0.06900000
v 0.02400000 -0.02590000 0.06900000
v 0.02427313 -0.02587310 0.06900000
v 0.02453576 -0.02579343 0.06900000
v 0.02477780 -0.02566406 0.06900000
v 0.02800000 -0.02800000 0.06900000
v 0.02498995 -0.02548995 0.06200000
v 0.02498995 -0.02351005 0.06200000
v 0.02322220 -0.02333594 0.06200000
v 0.02346424 -0.02320657 0.06200000
v 0.02372687 -0.02312690 0.06200000
v 0.02400000 -0.02310000 0.06200000
v 0.02427313 -0.02312690 0.06200000
v 0.02453576 -0.02320657 0.06200000
v 0.02477780 -0.02333594 0.06200000
v 0.02516406 -0.02527780 0.06200000
v 0.02529343 -0.02503576 0.06200000
v 0.02537310 -0.02477313 0.06200000
v 0.02540000 -0.02450000 0.06200000
v 0.02537310 -0.02422687 0.06200000
v 0.02529343 -0.02396424 0.06200000
v 0.02516406 -0.02372220 0.06200000
v 0.02800000 -0.02100000 0.06200000
v 0.02498995 -0.02548995 0.06900000
v 0.02498995 -0.02351005 0.06900000
v 0.02322220 -0.02333594 0.06900000
v 0.02346424 -0.02320657 0.06900000
v 0.02372687 -0.02312690 0.06900000
v 0.02400000 -0.02310000 0.06900000
v 0.02427313 -0.02312690 0.06900000
v 0.02453576 -0.02320657 0.06900000
v 0.02477780 -0.02333594 0.06900000
v 0.02516406 -0.02527780 0.06900000
v 0.02529343 -0.02503576 0.06900000
v 0.02537310 -0.02477313 0.06900000
v 0.02540000 -0.02450000 0.06900000
v 0.02537310 -0.02422687 0.06900000
v 0.02529343 -0.02396424 0.06900000
v 0.02516406 -0.02372220 0.06900000
v 0.02800000 -0.02100000 0.06900000
v 0.00680000 0.00000000 0.04840000
v 0.00682306 0.00023411 0.04840000
v 0.00689134 0.00045922 0.04840000
v 0.00700224 0.00066668 0.04840000
v 0.00715147 0.00084853 0.04840000
v 0.00733332 0.00099776 0.04840000
v 0.00680000 0.00000000 0.05080000
v 0.00682306 0.00023411 0.05080000
v 0.00689134 0.00045922 0.05080000
v 0.00700224 0.00066668 0.05080000
v 0.00715147 0.00084853 0.05080000
v 0.00733332 0.00099776 0.05080000
v 0.00754078 0.00110866 0.04840000
v 0.00776589 0.00117694 0.04840000
v 0.00800000 0.00120000 0.04840000
v 0.00823411 0.00117694 0.04840000
v 0.00845922 0.00110866 0.04840000
v 0.00866668 0.00099776 0.04840000
v 0.00884853 0.00084853 0.04840000
v 0.00920000 0.00000000 0.04840000
v 0.00917694 0.00023411 0.04840000
v 0.00910866 0.00045922 0.04840000
v 0.00899776 0.00066668 0.04840000
v 0.00754078 0.00110866 0.05080000
v 0.00776589 0.00117694 0.05080000
v 0.00800000 0.00120000 0.05080000
v 0.00823411 0.00117694 0.05080000
v 0.00845922 0.00110866 0.05080000
v 0.00866668 0.00099776 0.05080000
v 0.00884853 0.00084853 0.05080000
v 0.00920000 0.00000000 0.05080000
v 0.00917694 0.00023411 0.05080000
v 0.00910866 0.00045922 0.05080000
v 0.00899776 0.00066668 0.05080000
v 0.03100000 0.03200000 0.04840000
v 0.03100000 0.03200000 0.05080000
f 147 146 145
f 152 147 145
f 147 148 146
f 153 149 150
f 154 153 150
f 153 152 149
f 154 150 151
f 461 151 457
f 461 154 151
f 152 145 149
f 158 156 155
f 158 159 156
f 148 155 146
f 148 158 155
f 159 157 156
f 159 160 157
f 160 161 157
f 164 162 161
f 160 164 161
f 164 165 162
f 162 165 163
f 165 166 163
f 167 163 166
f 169 167 168
f 167 166 168
f 170 169 172
f 169 168 172
f 171 170 173
f 170 172 173
f 171 174 482
f 171 173 174
f 482 174 486
f 462 457 458
f 462 461 457
f 463 462 458
f 463 458 459
f 464 459 460
f 464 463 459
f 467 464 460
f 467 460 465
f 468 465 466
f 468 467 465
f 466 469 472
f 472 468 466
f 469 470 473
f 473 472 469
f 470 471 474
f 470 474 473
f 471 475 478
f 471 478 474
f 475 480 478
f 477 476 479
f 480 477 479
f 475 477 480
f 489 481 485
f 481 488 485
f 482 486 483
f 484 483 487
f 483 486 487
f 481 484 488
f 484 487 488
f 476 489 490
f 476 490 479
f 489 485 490
f 1 2 3
f 1 3 143
f 2 4 3
f 2 177 4
f 1 143 455
f 4 177 144
f 1 155 156
f 1 156 157
f 1 150 149
f 1 151 150
f 1 457 151
f 1 145 146
f 1 149 145
f 1 146 155
f 143 144 456
f 144 148 147
f 144 158 148
f 144 159 158
f 144 152 153
f 144 153 154
f 144 147 152
f 144 154 461
f 144 461 462
f 144 462 463
f 1 157 161
f 144 208 165
f 144 177 208
f 144 160 159
f 144 164 160
f 144 165 164
f 208 166 165
f 208 168 166
f 1 879 2
f 2 880 177
f 1 161 879
f 208 172 168
f 256 173 172
f 171 215 170
f 171 482 216
f 256 174 173
f 256 486 174
f 256 488 487
f 256 487 486
f 256 485 488
f 208 256 172
f 170 215 219
f 171 216 215
f 482 635 216
f 170 219 220
f 170 220 221
f 879 161 162
f 879 162 163
f 879 163 167
f 879 167 169
f 879 169 170
f 256 226 222
f 256 227 226
f 256 228 227
f 256 224 228
f 256 225 224
f 256 271 225
f 256 272 271
f 256 273 272
f 256 274 273
f 256 275 274
f 256 276 275
f 256 277 276
f 256 278 277
f 256 665 278
f 1 455 493
f 1 495 457
f 1 493 496
f 143 456 455
f 144 463 456
f 456 463 464
f 456 464 467
f 456 467 468
f 456 468 472
f 456 472 473
f 1 496 495
f 495 458 457
f 495 459 458
f 495 460 459
f 456 473 494
f 495 465 460
f 495 466 465
f 495 469 466
f 495 470 469
f 495 471 470
f 494 473 474
f 494 474 478
f 494 478 480
f 494 480 479
f 494 479 490
f 494 490 485
f 256 494 485
f 495 476 477
f 495 475 471
f 495 477 475
f 256 496 494
f 495 641 476
f 496 222 223
f 496 223 643
f 495 642 641
f 496 643 644
f 496 644 645
f 496 645 646
f 496 646 647
f 496 647 648
f 496 648 649
f 496 649 650
f 493 494 496
f 482 483 635
f 484 637 483
f 481 638 484
f 489 640 481
f 476 641 489
f 256 222 496
f 483 636 635
f 483 637 636
f 484 638 637
f 481 639 638
f 489 641 640
f 481 640 639
f 495 653 642
f 495 654 653
f 495 651 655
f 495 655 654
f 495 652 651
f 495 659 652
f 496 650 662
f 496 662 663
f 496 664 660
f 496 663 664
f 496 660 661
f 496 661 668
f 496 668 878
f 495 879 659
f 496 878 850
f 495 847 846
f 495 955 847
f 495 846 845
f 496 851 852
f 496 852 961
f 496 850 851
f 495 956 955
f 495 957 956
f 495 958 957
f 495 959 958
f 496 961 962
f 496 962 963
f 496 963 964
f 496 964 965
f 496 965 966
f 496 966 978
f 496 978 979
f 496 979 980
f 496 980 981
f 496 981 982
f 496 982 983
f 495 496 990
f 177 875 179
f 2 879 880
f 177 880 875
f 179 875 877
f 179 877 878
f 879 170 221
f 256 878 665
f 179 878 256
f 879 217 218
f 879 221 217
f 879 218 263
f 879 263 264
f 879 264 265
f 879 265 266
f 879 266 267
f 879 267 268
f 879 268 269
f 879 269 270
f 879 270 656
f 879 656 657
f 879 657 658
f 879 658 659
f 878 666 665
f 878 668 667
f 878 667 666
f 495 845 879
f 879 845 848
f 879 848 849
f 879 849 855
f 878 853 850
f 878 854 853
f 878 866 865
f 878 865 854
f 878 867 866
f 878 868 867
f 878 869 868
f 878 870 869
f 878 871 870
f 878 872 871
f 878 873 872
f 878 874 873
f 878 985 874
f 875 880 876
f 879 855 856
f 879 856 857
f 879 857 858
f 879 858 859
f 879 859 860
f 879 860 861
f 879 861 862
f 879 862 863
f 879 863 864
f 879 864 974
f 879 975 976
f 879 974 975
f 879 976 977
f 876 880 990
f 879 989 880
f 876 990 878
f 989 960 959
f 989 967 960
f 495 989 959
f 496 983 990
f 495 990 989
f 878 990 985
f 989 968 967
f 989 969 968
f 989 970 969
f 989 972 971
f 989 971 970
f 989 973 972
f 989 977 973
f 990 983 984
f 990 984 988
f 990 986 985
f 990 987 986
f 990 988 987
f 879 977 989
f 880 989 990
f 6 15 12
f 6 14 15
f 6 41 14
f 5 135 6
f 6 136 41
f 5 7 8
f 5 11 7
f 5 30 29
f 5 29 31
f 5 8 30
f 5 9 11
f 5 31 32
f 5 32 33
f 5 33 34
f 5 34 35
f 6 13 16
f 6 12 13
f 6 16 17
f 6 17 18
f 5 35 137
f 137 35 36
f 137 36 37
f 5 137 138
f 286 38 39
f 137 37 38
f 285 61 55
f 286 39 40
f 287 40 61
f 280 56 60
f 282 60 59
f 284 59 58
f 281 57 56
f 279 55 57
f 66 289 67
f 67 290 70
f 6 135 136
f 41 136 42
f 42 136 43
f 43 136 44
f 44 136 45
f 45 136 46
f 46 136 47
f 47 136 48
f 48 136 49
f 49 136 50
f 50 136 68
f 68 136 298
f 5 138 141
f 279 285 55
f 285 287 61
f 279 57 281
f 286 288 38
f 286 40 287
f 137 38 288
f 68 296 69
f 66 69 295
f 68 298 296
f 69 296 297
f 69 297 295
f 66 295 289
f 136 176 142
f 136 139 298
f 136 140 139
f 136 142 140
f 5 499 135
f 5 141 499
f 175 491 176
f 142 176 492
f 135 499 175
f 5 6 389
f 5 389 9
f 389 10 9
f 389 19 10
f 6 18 390
f 25 26 308
f 26 27 310
f 27 28 309
f 28 62 315
f 62 63 315
f 63 64 315
f 64 65 315
f 65 70 315
f 70 290 315
f 389 20 19
f 389 21 20
f 389 22 21
f 389 51 22
f 389 52 51
f 389 53 52
f 389 54 53
f 389 58 54
f 18 23 390
f 23 24 390
f 24 25 390
f 25 308 307
f 26 310 308
f 28 311 309
f 28 315 311
f 27 309 310
f 284 58 389
f 292 315 293
f 290 293 315
f 292 294 315
f 284 319 318
f 284 301 299
f 284 302 301
f 284 299 319
f 284 318 320
f 284 320 321
f 284 321 322
f 284 322 323
f 294 316 315
f 294 317 316
f 280 60 283
f 280 281 56
f 282 283 60
f 282 59 284
f 67 289 291
f 67 291 290
f 284 323 429
f 294 435 317
f 6 390 389
f 25 307 390
f 284 389 302
f 317 435 333
f 333 435 334
f 334 435 335
f 335 435 336
f 429 323 324
f 429 324 325
f 429 325 326
f 429 326 328
f 429 328 329
f 429 329 330
f 430 330 331
f 431 331 332
f 389 433 432
f 389 434 433
f 432 332 327
f 432 327 397
f 336 435 337
f 337 437 338
f 404 405 450
f 389 303 302
f 389 300 303
f 389 304 300
f 389 305 304
f 389 306 305
f 389 383 306
f 389 391 383
f 389 392 391
f 389 393 392
f 389 398 396
f 389 397 398
f 389 394 393
f 389 395 394
f 389 396 395
f 307 312 390
f 312 313 390
f 313 314 390
f 314 384 390
f 384 385 390
f 385 386 390
f 386 387 390
f 387 388 390
f 390 399 404
f 388 400 390
f 390 400 401
f 390 401 402
f 390 402 399
f 389 432 397
f 389 441 434
f 389 442 441
f 389 443 442
f 389 444 443
f 389 445 444
f 389 446 445
f 390 404 450
f 390 450 451
f 390 451 452
f 429 330 430
f 337 435 436
f 337 436 437
f 338 437 438
f 430 331 431
f 431 332 432
f 338 438 439
f 338 439 339
f 339 439 440
f 340 440 447
f 340 447 448
f 406 448 449
f 339 440 340
f 340 448 406
f 403 406 449
f 403 449 405
f 405 449 450
f 389 453 446
f 390 452 454
f 390 454 690
f 389 390 821
f 389 821 453
f 176 491 492
f 142 492 498
f 175 499 491
f 142 498 506
f 142 521 519
f 142 519 520
f 142 525 521
f 142 526 525
f 142 522 523
f 142 523 500
f 142 520 522
f 142 506 526
f 497 505 498
f 491 499 497
f 497 499 501
f 497 501 502
f 497 502 669
f 497 669 511
f 497 510 513
f 497 512 510
f 497 511 512
f 497 513 514
f 669 670 507
f 670 671 508
f 671 672 529
f 672 673 529
f 673 674 530
f 500 523 503
f 503 523 504
f 504 524 679
f 504 523 524
f 524 540 680
f 540 541 681
f 524 680 679
f 540 681 680
f 541 682 681
f 541 683 682
f 541 542 683
f 497 514 505
f 498 505 506
f 506 527 526
f 506 528 527
f 506 554 528
f 506 555 554
f 506 556 555
f 669 507 511
f 670 508 507
f 671 509 508
f 671 529 509
f 673 530 529
f 674 531 530
f 675 532 531
f 675 533 532
f 675 534 533
f 542 543 685
f 543 544 687
f 505 514 515
f 505 515 516
f 505 516 517
f 505 517 518
f 505 518 549
f 505 549 550
f 505 550 551
f 505 551 552
f 506 557 556
f 506 558 557
f 506 559 558
f 506 560 559
f 390 690 822
f 453 821 689
f 390 822 821
f 674 675 531
f 542 684 683
f 542 685 684
f 543 686 685
f 543 687 686
f 544 688 687
f 678 691 726
f 688 715 697
f 544 545 688
f 545 749 688
f 545 546 749
f 546 547 749
f 547 548 749
f 505 822 506
f 821 552 553
f 821 553 561
f 505 552 821
f 548 569 749
f 569 570 750
f 565 751 570
f 565 568 752
f 506 822 560
f 675 821 534
f 675 676 821
f 676 677 821
f 677 678 821
f 678 726 725
f 678 725 727
f 678 727 728
f 678 728 729
f 678 729 730
f 678 730 741
f 678 741 742
f 678 742 743
f 688 716 715
f 688 717 716
f 688 749 717
f 821 535 534
f 821 536 535
f 821 537 536
f 821 538 537
f 821 539 538
f 821 563 539
f 821 564 563
f 821 561 562
f 821 562 564
f 560 822 566
f 566 822 567
f 567 822 568
f 569 750 749
f 570 751 750
f 565 752 751
f 568 753 752
f 691 693 719
f 692 719 693
f 697 736 699
f 698 699 736
f 698 733 701
f 692 695 721
f 700 737 702
f 713 714 738
f 702 738 714
f 712 713 807
f 700 701 733
f 700 733 737
f 702 737 738
f 709 712 807
f 713 738 739
f 713 739 807
f 709 807 808
f 709 808 809
f 689 821 704
f 690 710 822
f 678 743 821
f 697 734 736
f 697 740 735
f 697 735 734
f 697 715 740
f 691 731 724
f 691 718 731
f 691 719 718
f 692 720 719
f 692 721 720
f 691 724 723
f 691 723 726
f 695 722 721
f 695 732 722
f 695 799 732
f 694 696 821
f 694 821 695
f 698 736 733
f 505 821 822
f 568 822 753
f 704 821 705
f 703 705 821
f 706 821 707
f 703 821 706
f 707 821 708
f 696 708 821
f 695 821 799
f 709 809 810
f 710 711 822
f 709 822 711
f 709 810 822
f 821 743 744
f 821 744 748
f 821 800 799
f 821 801 800
f 821 802 801
f 821 803 802
f 821 804 803
f 821 747 815
f 821 815 805
f 821 748 745
f 821 745 746
f 821 746 747
f 821 806 804
f 821 805 806
f 810 811 822
f 817 822 820
f 816 822 817
f 753 822 754
f 754 822 755
f 755 822 756
f 756 822 819
f 816 818 822
f 818 819 822
f 811 812 822
f 812 813 822
f 813 814 822
f 814 820 822
f 3 4 135
f 4 136 135
f 3 175 143
f 143 176 144
f 4 144 136
f 3 135 175
f 143 175 176
f 136 144 176
f 455 456 491
f 455 497 493
f 456 494 492
f 456 492 491
f 455 491 497
f 492 494 498
f 493 498 494
f 493 497 498
f 137 288 298
f 137 139 138
f 138 140 141
f 137 298 139
f 138 139 140
f 140 142 141
f 141 142 499
f 279 281 291
f 280 290 281
f 279 291 289
f 281 290 291
f 282 292 283
f 280 283 293
f 282 284 294
f 283 292 293
f 280 293 290
f 282 294 292
f 285 295 287
f 286 287 297
f 286 296 288
f 279 289 285
f 285 289 295
f 287 295 297
f 286 297 296
f 288 296 298
f 284 435 294
f 284 429 435
f 429 430 436
f 429 436 435
f 430 431 437
f 431 432 438
f 432 433 439
f 433 434 440
f 430 437 436
f 431 438 437
f 432 439 438
f 433 440 439
f 434 447 440
f 434 441 447
f 441 442 448
f 442 443 449
f 443 444 450
f 444 445 451
f 445 446 452
f 441 448 447
f 442 449 448
f 443 450 449
f 444 451 450
f 445 452 451
f 446 454 452
f 446 453 454
f 453 690 454
f 142 500 499
f 499 500 501
f 501 503 502
f 502 504 669
f 500 503 501
f 502 503 504
f 504 679 669
f 453 689 690
f 669 679 670
f 670 680 671
f 671 681 672
f 672 682 673
f 670 679 680
f 671 680 681
f 672 681 682
f 673 682 683
f 673 683 674
f 674 684 675
f 674 683 684
f 675 684 685
f 675 685 676
f 676 686 677
f 677 687 678
f 676 685 686
f 677 686 687
f 678 687 688
f 678 688 691
f 688 697 691
f 689 710 690
f 696 702 708
f 691 697 693
f 693 697 699
f 692 698 695
f 692 693 699
f 694 695 701
f 694 700 696
f 695 698 701
f 692 699 698
f 694 701 700
f 696 700 702
f 689 704 710
f 704 705 711
f 703 709 705
f 703 706 712
f 706 707 713
f 707 708 714
f 703 712 709
f 704 711 710
f 705 709 711
f 706 713 712
f 707 714 713
f 702 714 708
f 12 72 13
f 14 74 15
f 14 41 73
f 12 15 71
f 13 75 16
f 16 76 17
f 17 77 18
f 18 83 23
f 23 84 24
f 24 85 25
f 25 86 26
f 26 91 27
f 27 92 28
f 41 42 93
f 42 43 94
f 43 44 95
f 44 45 96
f 45 46 107
f 46 47 108
f 47 48 109
f 48 49 112
f 49 50 113
f 50 68 114
f 28 125 62
f 62 126 63
f 63 127 64
f 64 128 65
f 66 67 130
f 68 69 132
f 66 133 69
f 65 134 70
f 67 70 131
f 12 71 72
f 14 73 74
f 15 74 71
f 16 75 76
f 13 72 75
f 17 76 77
f 18 77 83
f 75 82 76
f 76 81 77
f 72 98 75
f 75 98 79
f 75 78 82
f 75 79 78
f 72 97 98
f 72 99 97
f 72 100 99
f 76 82 80
f 76 80 81
f 77 81 87
f 23 83 84
f 24 84 85
f 25 85 86
f 26 86 91
f 27 91 92
f 28 92 125
f 77 87 83
f 83 88 84
f 83 87 88
f 84 88 89
f 84 89 90
f 84 90 115
f 84 115 85
f 85 115 116
f 85 116 117
f 85 117 118
f 41 93 73
f 42 94 93
f 43 95 94
f 44 96 95
f 45 107 96
f 46 108 107
f 47 109 108
f 48 112 109
f 49 113 112
f 50 114 113
f 73 93 95
f 73 96 74
f 93 94 95
f 73 95 96
f 71 74 107
f 71 108 72
f 72 109 100
f 74 96 107
f 71 107 108
f 72 108 109
f 109 101 100
f 109 102 101
f 109 103 102
f 112 104 103
f 109 112 103
f 112 105 104
f 112 106 105
f 112 113 106
f 113 110 106
f 114 111 110
f 113 114 110
f 114 132 111
f 62 125 126
f 63 126 127
f 64 127 128
f 65 128 134
f 66 130 133
f 67 131 130
f 68 132 114
f 69 133 132
f 70 134 131
f 85 130 86
f 85 118 130
f 86 130 131
f 130 118 122
f 130 122 123
f 130 123 124
f 86 131 91
f 91 134 92
f 92 128 125
f 125 127 126
f 91 131 134
f 92 134 128
f 125 128 127
f 132 129 111
f 132 119 129
f 133 124 120
f 133 120 121
f 133 121 119
f 132 133 119
f 130 124 133
f 311 315 345
f 308 310 342
f 307 308 341
f 309 344 310
f 309 311 343
f 307 347 312
f 312 348 313
f 313 349 314
f 315 316 357
f 316 317 358
f 317 333 359
f 333 334 364
f 334 335 371
f 335 336 372
f 336 337 373
f 337 338 374
f 338 339 380
f 339 340 381
f 340 406 382
f 310 344 342
f 307 341 347
f 308 342 341
f 309 343 344
f 311 345 343
f 312 347 348
f 313 348 349
f 314 349 407
f 341 342 361
f 341 361 346
f 341 346 351
f 342 360 361
f 342 362 360
f 341 352 347
f 347 350 348
f 348 354 349
f 349 355 407
f 341 351 352
f 347 352 353
f 347 353 350
f 348 350 354
f 349 354 355
f 407 355 356
f 315 357 345
f 316 358 357
f 317 359 358
f 333 364 359
f 345 357 359
f 357 358 359
f 345 359 364
f 334 371 364
f 335 372 371
f 336 373 372
f 337 374 373
f 338 380 374
f 339 381 380
f 340 382 381
f 343 371 344
f 343 345 364
f 342 344 372
f 342 363 362
f 342 373 363
f 343 364 371
f 344 371 372
f 342 372 373
f 373 365 363
f 373 366 365
f 373 367 366
f 374 368 367
f 374 369 368
f 373 374 367
f 374 375 369
f 380 376 375
f 374 380 375
f 381 377 376
f 380 381 376
f 382 379 378
f 428 370 379
f 382 378 377
f 381 382 377
f 382 428 379
f 314 407 384
f 384 408 385
f 385 410 386
f 386 411 387
f 387 412 388
f 388 422 400
f 400 423 401
f 401 424 402
f 399 402 421
f 403 405 425
f 404 427 405
f 399 426 404
f 403 428 406
f 384 407 408
f 385 408 410
f 386 410 411
f 387 411 412
f 388 412 422
f 407 413 408
f 407 356 409
f 407 409 413
f 408 413 414
f 408 414 415
f 399 421 426
f 400 422 423
f 401 423 424
f 402 424 421
f 403 425 428
f 404 426 427
f 405 427 425
f 382 406 428
f 408 415 416
f 408 425 410
f 408 416 425
f 410 427 411
f 411 426 412
f 425 416 417
f 425 417 418
f 425 418 420
f 411 427 426
f 412 426 421
f 410 425 427
f 412 421 422
f 422 424 423
f 421 424 422
f 428 420 419
f 428 419 370
f 425 420 428
f 715 716 757
f 716 717 758
f 717 749 759
f 733 736 760
f 735 740 762
f 734 735 761
f 734 763 736
f 733 764 737
f 737 765 738
f 738 766 739
f 715 772 740
f 749 750 783
f 750 751 784
f 751 752 785
f 752 753 787
f 753 754 788
f 754 755 796
f 755 756 797
f 756 819 798
f 715 757 772
f 716 758 757
f 717 759 758
f 757 759 772
f 757 758 759
f 734 761 763
f 735 762 761
f 736 763 760
f 733 760 764
f 737 764 765
f 738 765 766
f 739 766 823
f 740 772 762
f 760 763 773
f 760 774 781
f 760 773 774
f 760 767 764
f 764 769 765
f 764 768 769
f 760 781 767
f 764 767 768
f 765 770 766
f 765 769 770
f 766 771 823
f 766 770 771
f 823 771 782
f 761 785 763
f 762 772 783
f 761 762 784
f 763 776 773
f 763 775 776
f 763 777 775
f 759 783 772
f 762 783 784
f 761 784 785
f 763 787 777
f 763 785 787
f 787 778 777
f 749 783 759
f 750 784 783
f 751 785 784
f 752 787 785
f 753 788 787
f 754 796 788
f 755 797 796
f 756 798 797
f 787 779 778
f 787 780 779
f 788 786 780
f 788 789 786
f 787 788 780
f 788 790 789
f 796 791 790
f 797 795 791
f 798 792 795
f 798 793 792
f 843 794 793
f 788 796 790
f 796 797 791
f 797 798 795
f 798 843 793
f 739 823 807
f 807 824 808
f 808 825 809
f 809 826 810
f 810 835 811
f 811 836 812
f 812 837 813
f 813 838 814
f 817 820 841
f 816 817 840
f 818 843 819
f 816 842 818
f 814 844 820
f 807 823 824
f 808 824 825
f 809 825 826
f 810 826 835
f 811 835 836
f 812 836 837
f 813 837 838
f 814 838 844
f 823 828 824
f 823 782 827
f 823 827 828
f 824 828 829
f 824 829 830
f 824 830 831
f 824 842 825
f 825 840 826
f 826 841 835
f 824 831 842
f 842 831 832
f 825 842 840
f 835 841 844
f 826 840 841
f 835 844 836
f 836 838 837
f 836 844 838
f 820 844 841
f 817 841 840
f 818 842 843
f 798 819 843
f 816 840 842
f 842 832 834
f 842 834 833
f 843 839 794
f 843 833 839
f 842 833 843
f 521 525 573
f 519 572 520
f 519 521 571
f 520 574 522
f 522 575 523
f 523 576 524
f 525 526 580
f 526 527 581
f 527 528 582
f 528 554 583
f 524 593 540
f 540 594 541
f 541 597 542
f 542 598 543
f 543 599 544
f 544 609 545
f 545 610 546
f 546 611 547
f 547 612 548
f 554 555 613
f 555 556 614
f 556 557 615
f 557 558 616
f 558 559 622
f 559 560 623
f 560 566 624
f 566 567 630
f 567 568 631
f 565 632 568
f 569 634 570
f 548 633 569
f 565 570 629
f 519 571 572
f 521 573 571
f 522 574 575
f 523 575 576
f 524 576 593
f 520 572 574
f 525 580 573
f 526 581 580
f 527 582 581
f 528 583 582
f 572 584 574
f 574 577 575
f 574 584 586
f 574 586 585
f 574 585 577
f 575 579 576
f 575 578 579
f 576 579 595
f 575 577 578
f 573 580 613
f 580 581 583
f 571 615 572
f 571 573 614
f 581 582 583
f 580 583 613
f 573 613 614
f 572 616 589
f 571 614 615
f 572 615 616
f 572 587 584
f 572 588 587
f 572 589 588
f 616 590 589
f 540 593 594
f 541 594 597
f 542 597 598
f 543 598 599
f 544 599 609
f 545 609 610
f 546 610 611
f 547 611 612
f 548 612 633
f 576 595 593
f 593 596 594
f 593 595 596
f 594 596 600
f 594 600 601
f 594 601 602
f 594 602 597
f 597 602 603
f 597 603 604
f 597 604 605
f 597 632 598
f 597 605 632
f 632 605 606
f 598 632 629
f 598 629 599
f 599 634 609
f 609 633 610
f 610 612 611
f 599 629 634
f 609 634 633
f 610 633 612
f 554 613 583
f 555 614 613
f 556 615 614
f 557 616 615
f 558 622 616
f 559 623 622
f 560 624 623
f 616 591 590
f 616 592 591
f 622 617 592
f 616 622 592
f 622 618 617
f 622 619 618
f 623 620 619
f 624 621 620
f 622 623 619
f 623 624 620
f 624 630 621
f 566 630 624
f 567 631 630
f 568 632 631
f 565 629 632
f 569 633 634
f 570 634 629
f 630 626 625
f 630 625 621
f 631 608 627
f 631 627 628
f 631 628 626
f 632 606 607
f 632 607 608
f 631 632 608
f 630 631 626
f 177 178 184
f 177 179 178
f 178 179 180
f 179 234 180
f 177 191 208
f 192 193 208
f 177 181 182
f 177 184 183
f 177 183 181
f 177 182 190
f 177 190 191
f 178 185 184
f 178 186 185
f 178 187 186
f 178 188 187
f 178 189 188
f 191 192 208
f 193 194 208
f 194 195 208
f 195 196 208
f 196 197 208
f 197 198 208
f 198 209 208
f 208 209 210
f 208 210 211
f 208 211 212
f 212 213 214
f 205 214 213
f 205 206 214
f 208 212 214
f 208 214 262
f 178 199 189
f 178 200 199
f 178 201 200
f 178 214 201
f 201 214 202
f 202 214 203
f 203 214 204
f 204 214 207
f 206 207 214
f 178 180 214
f 179 241 240
f 179 242 241
f 179 256 243
f 179 230 229
f 179 231 232
f 179 232 233
f 179 229 231
f 179 233 234
f 179 238 230
f 179 239 238
f 179 240 239
f 179 243 242
f 180 234 235
f 180 235 236
f 180 236 237
f 208 262 256
f 243 256 244
f 244 256 245
f 245 256 246
f 246 256 257
f 256 258 257
f 256 262 258
f 258 262 259
f 259 262 260
f 260 262 261
f 253 261 262
f 253 262 254
f 180 237 247
f 180 247 248
f 180 248 249
f 180 249 250
f 180 250 251
f 180 251 262
f 180 262 214
f 251 252 262
f 252 255 262
f 254 262 255
f 182 230 190
f 181 183 231
f 181 229 182
f 183 184 232
f 184 185 233
f 185 186 234
f 186 187 235
f 187 188 236
f 188 189 237
f 190 238 191
f 191 239 192
f 192 240 193
f 193 241 194
f 194 242 195
f 195 243 196
f 196 244 197
f 197 245 198
f 198 246 209
f 189 199 247
f 199 200 248
f 200 201 249
f 201 202 250
f 202 203 251
f 203 204 252
f 204 207 255
f 206 254 207
f 205 253 206
f 209 257 210
f 210 258 211
f 211 259 212
f 212 260 213
f 205 213 261
f 181 231 229
f 182 229 230
f 183 232 231
f 184 233 232
f 185 234 233
f 186 235 234
f 187 236 235
f 188 237 236
f 189 247 237
f 191 238 239
f 190 230 238
f 192 239 240
f 193 240 241
f 194 241 242
f 195 242 243
f 196 243 244
f 197 244 245
f 198 245 246
f 199 248 247
f 200 249 248
f 201 250 249
f 202 251 250
f 203 252 251
f 204 255 252
f 205 261 253
f 206 253 254
f 207 254 255
f 209 246 257
f 210 257 258
f 211 258 259
f 212 259 260
f 213 260 261
f 881 882 883
f 882 887 886
f 882 884 887
f 882 885 884
f 882 888 905
f 882 886 888
f 882 905 906
f 881 883 904
f 883 899 897
f 883 897 898
f 883 913 899
f 883 898 895
f 883 895 896
f 883 896 900
f 883 914 913
f 881 904 893
f 882 894 885
f 885 894 889
f 889 894 890
f 890 894 891
f 891 894 892
f 892 894 923
f 894 924 923
f 893 904 954
f 883 900 904
f 900 901 904
f 901 902 904
f 902 903 904
f 903 940 904
f 904 940 941
f 904 941 942
f 904 942 943
f 904 943 944
f 904 944 945
f 882 912 883
f 882 906 912
f 906 907 912
f 907 908 912
f 908 909 912
f 909 910 912
f 910 911 912
f 911 921 912
f 912 921 930
f 912 930 931
f 912 931 932
f 883 912 920
f 912 937 920
f 883 920 914
f 914 920 915
f 915 920 916
f 916 920 917
f 917 920 918
f 918 920 919
f 919 920 938
f 920 947 938
f 920 948 947
f 920 949 948
f 894 925 924
f 894 926 925
f 894 927 926
f 894 928 927
f 894 937 928
f 932 933 937
f 928 937 929
f 922 929 937
f 922 937 936
f 933 934 937
f 934 935 937
f 935 936 937
f 893 954 894
f 894 954 937
f 912 932 937
f 920 937 954
f 904 945 954
f 949 954 950
f 945 946 954
f 939 954 946
f 939 953 954
f 950 954 951
f 951 954 952
f 952 954 953
f 920 954 949
f 888 899 905
f 899 913 905
f 884 895 887
f 884 885 896
f 886 897 888
f 886 887 898
f 885 889 900
f 889 890 901
f 890 891 902
f 891 892 903
f 892 923 940
f 887 895 898
f 884 896 895
f 886 898 897
f 888 897 899
f 885 900 896
f 889 901 900
f 890 902 901
f 891 903 902
f 892 940 903
f 905 913 906
f 906 914 907
f 907 915 908
f 908 916 909
f 909 917 910
f 910 918 911
f 911 919 921
f 906 913 914
f 907 914 915
f 908 915 916
f 909 916 917
f 910 917 918
f 911 918 919
f 919 938 921
f 921 938 930
f 922 936 953
f 922 939 929
f 923 924 941
f 924 925 942
f 925 926 943
f 926 927 944
f 927 928 945
f 928 929 946
f 930 947 931
f 931 948 932
f 932 949 933
f 934 951 935
f 933 950 934
f 935 952 936
f 930 938 947
f 929 939 946
f 922 953 939
f 923 941 940
f 924 942 941
f 925 943 942
f 926 944 943
f 927 945 944
f 928 946 945
f 931 947 948
f 932 948 949
f 933 949 950
f 935 951 952
f 934 950 951
f 936 952 953
f 875 876 881
f 876 878 882
f 875 881 893
f 876 882 881
f 875 893 877
f 877 894 878
f 878 894 882
f 877 893 894
f 30 8 79
f 8 7 78
f 82 7 11
f 80 11 9
f 81 9 10
f 87 10 19
f 88 19 20
f 89 20 21
f 90 21 22
f 115 22 51
f 29 30 98
f 31 29 97
f 32 31 99
f 33 32 100
f 34 33 101
f 35 34 102
f 36 35 103
f 37 36 104
f 38 37 105
f 39 38 106
f 40 39 110
f 61 40 111
f 116 51 52
f 117 52 53
f 118 53 54
f 122 54 58
f 57 55 119
f 60 56 120
f 56 57 121
f 123 58 59
f 59 60 124
f 55 61 129
f 79 98 30
f 82 78 7
f 8 78 79
f 81 80 9
f 87 81 10
f 80 82 11
f 88 87 19
f 89 88 20
f 90 89 21
f 115 90 22
f 98 97 29
f 31 97 99
f 32 99 100
f 33 100 101
f 101 102 34
f 35 102 103
f 103 104 36
f 104 105 37
f 38 105 106
f 106 110 39
f 40 110 111
f 111 129 61
f 116 115 51
f 117 116 52
f 118 117 53
f 122 118 54
f 129 119 55
f 56 121 120
f 57 119 121
f 123 122 58
f 124 123 59
f 120 124 60
f 319 299 346
f 299 301 351
f 303 300 350
f 301 302 352
f 302 303 353
f 300 304 354
f 304 305 355
f 305 306 356
f 320 318 360
f 318 319 361
f 321 320 362
f 322 321 363
f 323 322 365
f 324 323 366
f 325 324 367
f 326 325 368
f 328 326 369
f 327 332 379
f 397 327 370
f 329 328 375
f 330 329 376
f 331 330 377
f 332 331 378
f 299 351 346
f 350 353 303
f 352 351 301
f 353 352 302
f 300 354 350
f 355 354 304
f 305 356 355
f 409 356 306
f 361 360 318
f 320 360 362
f 346 361 319
f 321 362 363
f 322 363 365
f 365 366 323
f 324 366 367
f 367 368 325
f 368 369 326
f 328 369 375
f 379 370 327
f 375 376 329
f 330 376 377
f 377 378 331
f 378 379 332
f 306 383 409
f 383 391 413
f 391 392 414
f 392 393 415
f 393 394 416
f 394 395 417
f 396 398 420
f 395 396 418
f 398 397 419
f 413 409 383
f 391 414 413
f 415 414 392
f 393 416 415
f 394 417 416
f 420 418 396
f 395 418 417
f 419 420 398
f 397 370 419
f 718 719 768
f 719 720 769
f 720 721 770
f 721 722 771
f 723 724 774
f 725 726 776
f 726 723 773
f 727 725 775
f 728 727 777
f 729 728 778
f 730 729 779
f 741 730 780
f 724 731 781
f 731 718 767
f 722 732 782
f 742 741 786
f 743 742 789
f 744 743 790
f 748 744 791
f 746 745 792
f 747 746 793
f 745 748 795
f 768 767 718
f 769 768 719
f 720 770 769
f 721 771 770
f 724 781 774
f 774 773 723
f 725 776 775
f 773 776 726
f 727 775 777
f 728 777 778
f 778 779 729
f 730 779 780
f 767 781 731
f 722 782 771
f 780 786 741
f 786 789 742
f 743 789 790
f 790 791 744
f 748 791 795
f 792 793 746
f 793 794 747
f 795 792 745
f 732 799 827
f 799 800 828
f 800 801 829
f 801 802 830
f 802 803 831
f 803 804 832
f 806 805 833
f 804 806 834
f 815 747 794
f 805 815 839
f 827 782 732
f 828 827 799
f 800 829 828
f 801 830 829
f 802 831 830
f 803 832 831
f 839 833 805
f 804 834 832
f 833 834 806
f 815 794 839
f 507 508 578
f 508 509 579
f 509 529 595
f 510 512 586
f 512 511 585
f 511 507 577
f 513 510 584
f 514 513 587
f 515 514 588
f 516 515 589
f 517 516 590
f 518 517 591
f 549 518 592
f 529 530 596
f 530 531 600
f 531 532 601
f 602 532 533
f 603 533 534
f 604 534 535
f 605 535 536
f 606 536 537
f 607 537 538
f 608 538 539
f 617 550 549
f 618 551 550
f 619 552 551
f 620 553 552
f 621 561 553
f 625 562 561
f 626 564 562
f 628 563 564
f 627 539 563
f 578 577 507
f 579 578 508
f 509 595 579
f 586 584 510
f 512 585 586
f 577 585 511
f 584 587 513
f 514 587 588
f 515 588 589
f 516 589 590
f 590 591 517
f 518 591 592
f 596 595 529
f 530 600 596
f 601 600 531
f 602 601 532
f 603 602 533
f 604 603 534
f 605 604 535
f 606 605 536
f 607 606 537
f 608 607 538
f 627 608 539
f 592 617 549
f 617 618 550
f 618 619 551
f 619 620 552
f 620 621 553
f 621 625 561
f 625 626 562
f 628 627 563
f 626 628 564
f 215 216 223
f 216 635 643
f 215 223 222
f 216 643 223
f 218 217 224
f 263 218 225
f 217 228 224
f 218 224 225
f 220 219 226
f 221 220 227
f 219 215 222
f 217 221 228
f 219 222 226
f 220 226 227
f 221 227 228
f 264 263 271
f 265 264 272
f 265 273 266
f 263 225 271
f 264 271 272
f 265 272 273
f 266 274 267
f 266 273 274
f 267 274 275
f 268 267 275
f 269 268 276
f 270 269 277
f 270 278 656
f 268 275 276
f 269 276 277
f 270 277 278
f 656 278 665
f 635 636 644
f 636 637 645
f 635 644 643
f 636 645 644
f 637 638 646
f 638 639 647
f 639 640 648
f 637 646 645
f 638 647 646
f 639 648 647
f 640 649 648
f 640 641 649
f 641 642 650
f 641 650 649
f 642 662 650
f 655 651 660
f 651 652 661
f 651 661 660
f 642 653 662
f 653 654 663
f 654 655 664
f 653 663 662
f 654 664 663
f 655 660 664
f 659 658 667
f 656 665 657
f 658 657 666
f 652 659 668
f 657 665 666
f 658 666 667
f 652 668 661
f 659 667 668
f 854 865 855
f 852 846 847
f 851 845 846
f 961 847 955
f 853 849 848
f 850 848 845
f 854 855 849
f 851 850 845
f 852 851 846
f 961 852 847
f 853 854 849
f 850 853 848
f 865 856 855
f 866 857 856
f 867 858 857
f 868 859 858
f 865 866 856
f 866 867 857
f 867 868 858
f 868 869 859
f 869 860 859
f 870 861 860
f 871 862 861
f 872 863 862
f 873 864 863
f 864 874 974
f 869 870 860
f 870 871 861
f 871 872 862
f 872 873 863
f 873 874 864
f 874 985 974
f 962 955 956
f 963 956 957
f 964 957 958
f 965 958 959
f 966 959 960
f 962 961 955
f 963 962 956
f 964 963 957
f 965 964 958
f 966 965 959
f 978 966 960
f 978 960 967
f 979 967 968
f 980 968 969
f 981 969 970
f 982 970 971
f 979 978 967
f 980 979 968
f 981 980 969
f 982 981 970
f 983 971 972
f 988 973 977
f 984 972 973
f 974 985 975
f 987 977 976
f 986 976 975
f 984 983 972
f 988 984 973
f 985 986 975
f 986 987 976
f 987 988 977
f 983 982 971

