# https://github.com/mikedh/trimesh
v 0.02318567 -0.03287337 0.08600000
v 0.02681433 -0.03287337 0.08600000
v 0.02318567 -0.05312663 0.08600000
v 0.02681433 -0.05312663 0.08600000
v 0.02500000 -0.05231433 0.10712663
v 0.02500000 -0.03368567 0.10712663
v 0.02500000 -0.05231433 0.06487337
v 0.02500000 -0.03368567 0.06487337
v 0.02762663 -0.04300000 0.06568567
v 0.02762663 -0.04300000 0.10631433
v 0.02237337 -0.04300000 0.06568567
v 0.02237337 -0.04300000 0.10631433
v 0.02500000 -0.03250000 0.08600000
v 0.02500000 -0.05350000 0.08600000
v 0.02372746 -0.05302254 0.10625000
v 0.02627254 -0.05302254 0.10625000
v 0.02372746 -0.03297746 0.10625000
v 0.02627254 -0.03297746 0.10625000
v 0.02500000 -0.04300000 0.10750000
v 0.02372746 -0.05302254 0.06575000
v 0.02627254 -0.05302254 0.06575000
v 0.02372746 -0.03297746 0.06575000
v 0.02627254 -0.03297746 0.06575000
v 0.02500000 -0.04300000 0.06450000
v 0.02752254 -0.03375000 0.06622746
v 0.02752254 -0.05225000 0.06622746
v 0.02675000 -0.05177254 0.06497746
v 0.02675000 -0.03422746 0.06497746
v 0.02752254 -0.03375000 0.10577254
v 0.02752254 -0.05225000 0.10577254
v 0.02675000 -0.05177254 0.10702254
v 0.02675000 -0.03422746 0.10702254
v 0.02800000 -0.04300000 0.08600000
v 0.02247746 -0.03375000 0.06622746
v 0.02247746 -0.05225000 0.06622746
v 0.02325000 -0.05177254 0.06497746
v 0.02325000 -0.03422746 0.06497746
v 0.02247746 -0.03375000 0.10577254
v 0.02247746 -0.05225000 0.10577254
v 0.02325000 -0.05177254 0.10702254
v 0.02325000 -0.03422746 0.10702254
v 0.02200000 -0.04300000 0.08600000
v 0.02381683 -0.03259515 0.08600000
v 0.02618317 -0.03259515 0.08600000
v 0.02381683 -0.05340485 0.08600000
v 0.02618317 -0.05340485 0.08600000
v 0.02341528 -0.05315667 0.10564973
v 0.02409844 -0.05273445 0.10675512
v 0.02409385 -0.05337764 0.10565716
v 0.02658472 -0.05315667 0.10564973
v 0.02590156 -0.05273445 0.10675512
v 0.02590615 -0.05337764 0.10565716
v 0.02500000 -0.05312663 0.10631433
v 0.02341528 -0.03284333 0.10564973
v 0.02409844 -0.03326555 0.10675512
v 0.02409385 -0.03262236 0.10565716
v 0.02658472 -0.03284333 0.10564973
v 0.02590156 -0.03326555 0.10675512
v 0.02590615 -0.03262236 0.10565716
v 0.02500000 -0.03287337 0.10631433
v 0.02500000 -0.05168317 0.10740485
v 0.02500000 -0.03431683 0.10740485
v 0.02341528 -0.05315667 0.06635027
v 0.02409844 -0.05273445 0.06524488
v 0.02409385 -0.05337764 0.06634284
v 0.02658472 -0.05315667 0.06635027
v 0.02590156 -0.05273445 0.06524488
v 0.02590615 -0.05337764 0.06634284
v 0.02500000 -0.05312663 0.06568567
v 0.02341528 -0.03284333 0.06635027
v 0.02409844 -0.03326555 0.06524488
v 0.02409385 -0.03262236 0.06634284
v 0.02658472 -0.03284333 0.06635027
v 0.02590156 -0.03326555 0.06524488
v 0.02590615 -0.03262236 0.06634284
v 0.02500000 -0.03287337 0.06568567
v 0.02500000 -0.05168317 0.06459515
v 0.02500000 -0.03431683 0.06459515
v 0.02723445 -0.03324488 0.06659844
v 0.02765667 -0.03435027 0.06591528
v 0.02696946 -0.03327952 0.06593669
v 0.02723445 -0.05275512 0.06659844
v 0.02765667 -0.05164973 0.06591528
v 0.02696946 -0.05272048 0.06593669
v 0.02614973 -0.05208472 0.06484333
v 0.02725512 -0.05140156 0.06526555
v 0.02656331 -0.05246946 0.06527952
v 0.02615716 -0.05140615 0.06462236
v 0.02722048 -0.05206331 0.06553054
v 0.02614973 -0.03391528 0.06484333
v 0.02725512 -0.03459844 0.06526555
v 0.02656331 -0.03353054 0.06527952
v 0.02615716 -0.03459385 0.06462236
v 0.02722048 -0.03393669 0.06553054
v 0.02681433 -0.04300000 0.06487337
v 0.02723445 -0.03324488 0.10540156
v 0.02765667 -0.03435027 0.10608472
v 0.02696946 -0.03327952 0.10606331
v 0.02762663 -0.03368567 0.08600000
v 0.02723445 -0.05275512 0.10540156
v 0.02765667 -0.05164973 0.10608472
v 0.02696946 -0.05272048 0.10606331
v 0.02762663 -0.05231433 0.08600000
v 0.02614973 -0.05208472 0.10715667
v 0.02725512 -0.05140156 0.10673445
v 0.02656331 -0.05246946 0.10672048
v 0.02615716 -0.05140615 0.10737764
v 0.02722048 -0.05206331 0.10646946
v 0.02614973 -0.03391528 0.10715667
v 0.02725512 -0.03459844 0.10673445
v 0.02656331 -0.03353054 0.10672048
v 0.02615716 -0.03459385 0.10737764
v 0.02722048 -0.03393669 0.10646946
v 0.02681433 -0.04300000 0.10712663
v 0.02790485 -0.04300000 0.06631683
v 0.02790485 -0.04300000 0.10568317
v 0.02787764 -0.03434284 0.06659385
v 0.02787764 -0.05165716 0.06659385
v 0.02787764 -0.03434284 0.10540615
v 0.02787764 -0.05165716 0.10540615
v 0.02276555 -0.03324488 0.06659844
v 0.02234333 -0.03435027 0.06591528
v 0.02303054 -0.03327952 0.06593669
v 0.02276555 -0.05275512 0.06659844
v 0.02234333 -0.05164973 0.06591528
v 0.02303054 -0.05272048 0.06593669
v 0.02385027 -0.05208472 0.06484333
v 0.02274488 -0.05140156 0.06526555
v 0.02343669 -0.05246946 0.06527952
v 0.02384284 -0.05140615 0.06462236
v 0.02277952 -0.05206331 0.06553054
v 0.02385027 -0.03391528 0.06484333
v 0.02274488 -0.03459844 0.06526555
v 0.02343669 -0.03353054 0.06527952
v 0.02384284 -0.03459385 0.06462236
v 0.02277952 -0.03393669 0.06553054
v 0.02318567 -0.04300000 0.06487337
v 0.02276555 -0.03324488 0.10540156
v 0.02234333 -0.03435027 0.10608472
v 0.02303054 -0.03327952 0.10606331
v 0.02237337 -0.03368567 0.08600000
v 0.02276555 -0.05275512 0.10540156
v 0.02234333 -0.05164973 0.10608472
v 0.02303054 -0.05272048 0.10606331
v 0.02237337 -0.05231433 0.08600000
v 0.02385027 -0.05208472 0.10715667
v 0.02274488 -0.05140156 0.10673445
v 0.02343669 -0.05246946 0.10672048
v 0.02384284 -0.05140615 0.10737764
v 0.02277952 -0.05206331 0.10646946
v 0.02385027 -0.03391528 0.10715667
v 0.02274488 -0.03459844 0.10673445
v 0.02343669 -0.03353054 0.10672048
v 0.02384284 -0.03459385 0.10737764
v 0.02277952 -0.03393669 0.10646946
v 0.02318567 -0.04300000 0.10712663
v 0.02209515 -0.04300000 0.06631683
v 0.02209515 -0.04300000 0.10568317
v 0.02212236 -0.03434284 0.06659385
v 0.02212236 -0.05165716 0.06659385
v 0.02212236 -0.03434284 0.10540615
v 0.02212236 -0.05165716 0.10540615
f 42 160 162
f 120 118 33
f 161 159 42
f 118 120 103
f 4 46 66
f 93 88 24
f 33 117 119
f 145 162 160
f 149 61 19
f 19 154 149
f 124 145 160
f 65 63 20
f 130 135 24
f 137 135 130
f 118 103 82
f 4 66 82
f 42 162 158
f 158 161 42
f 152 12 147
f 100 103 120
f 4 82 100
f 100 82 103
f 14 46 52
f 52 49 14
f 162 39 143
f 147 12 143
f 143 158 162
f 12 158 143
f 157 160 42
f 42 159 157
f 133 135 137
f 78 93 24
f 24 135 78
f 114 112 107
f 107 105 114
f 31 105 107
f 19 61 107
f 107 112 19
f 116 119 97
f 116 120 33
f 33 119 116
f 114 105 110
f 110 112 114
f 40 149 147
f 75 44 73
f 75 72 13
f 13 44 75
f 97 119 29
f 13 72 43
f 43 56 13
f 160 157 125
f 125 157 11
f 88 85 77
f 127 130 77
f 24 88 77
f 77 130 24
f 118 82 26
f 88 93 95
f 95 86 88
f 27 85 88
f 88 86 27
f 89 87 27
f 27 86 89
f 27 87 85
f 33 118 115
f 115 117 33
f 89 86 83
f 118 26 83
f 83 26 89
f 83 115 118
f 41 152 154
f 155 152 41
f 139 152 155
f 12 152 139
f 161 158 139
f 139 158 12
f 156 149 154
f 147 149 156
f 154 152 156
f 156 152 147
f 16 52 50
f 4 100 50
f 50 46 4
f 50 52 46
f 49 52 53
f 53 52 16
f 49 53 15
f 15 53 48
f 148 144 15
f 15 48 148
f 3 124 63
f 147 143 150
f 150 144 148
f 150 40 147
f 148 40 150
f 150 143 39
f 39 144 150
f 70 43 72
f 1 43 70
f 122 133 11
f 122 157 159
f 11 157 122
f 159 34 122
f 31 107 104
f 104 106 31
f 104 107 61
f 108 105 31
f 31 106 108
f 120 116 101
f 105 108 101
f 62 154 19
f 19 112 62
f 146 40 148
f 149 40 146
f 148 48 146
f 61 149 146
f 121 138 1
f 1 70 121
f 121 34 159
f 36 130 127
f 84 82 66
f 84 87 89
f 89 26 84
f 84 26 82
f 66 21 84
f 84 21 87
f 7 64 127
f 7 77 85
f 127 77 7
f 86 95 91
f 91 95 93
f 151 41 154
f 154 62 151
f 151 62 6
f 49 15 47
f 47 15 144
f 45 65 14
f 14 49 45
f 45 63 65
f 45 3 63
f 49 47 45
f 45 47 3
f 5 104 61
f 5 146 48
f 61 146 5
f 102 50 100
f 102 108 106
f 102 106 16
f 16 50 102
f 97 110 10
f 10 116 97
f 10 110 105
f 10 101 116
f 105 101 10
f 112 110 32
f 109 62 112
f 6 62 109
f 112 32 109
f 109 32 111
f 113 110 97
f 97 29 113
f 113 32 110
f 111 32 113
f 72 75 76
f 93 78 90
f 92 90 74
f 23 75 73
f 23 92 74
f 23 76 75
f 74 76 23
f 81 25 94
f 94 92 81
f 81 23 73
f 92 23 81
f 96 29 119
f 138 140 54
f 1 138 54
f 56 43 54
f 54 43 1
f 38 139 155
f 38 140 138
f 155 140 38
f 38 138 161
f 161 139 38
f 161 138 141
f 159 161 141
f 138 121 141
f 141 121 159
f 128 125 11
f 128 133 137
f 11 133 128
f 137 130 128
f 130 36 128
f 127 64 129
f 129 64 20
f 129 36 127
f 68 21 66
f 68 66 46
f 14 65 68
f 68 46 14
f 85 87 67
f 87 21 67
f 67 7 85
f 64 7 67
f 80 91 94
f 80 25 117
f 94 25 80
f 117 115 80
f 155 41 153
f 41 151 153
f 153 140 155
f 3 47 142
f 142 144 39
f 142 47 144
f 162 145 142
f 142 39 162
f 145 124 142
f 124 3 142
f 136 122 34
f 133 122 136
f 135 133 37
f 37 136 134
f 133 136 37
f 22 70 72
f 72 76 22
f 8 90 78
f 74 90 8
f 104 5 51
f 16 106 51
f 106 104 51
f 51 53 16
f 48 53 51
f 51 5 48
f 30 101 108
f 108 102 30
f 30 102 100
f 30 100 120
f 120 101 30
f 6 109 58
f 58 109 111
f 94 91 28
f 90 92 28
f 28 92 94
f 28 91 93
f 93 90 28
f 79 81 73
f 25 81 79
f 117 25 79
f 98 113 29
f 29 96 98
f 98 96 57
f 111 113 98
f 63 124 126
f 126 20 63
f 126 129 20
f 131 128 36
f 36 129 131
f 125 128 131
f 129 126 131
f 21 68 69
f 69 67 21
f 69 68 65
f 64 67 69
f 65 20 69
f 20 64 69
f 115 83 9
f 9 83 86
f 86 91 9
f 91 80 9
f 9 80 115
f 6 58 55
f 55 58 60
f 55 151 6
f 55 153 151
f 34 121 123
f 123 136 34
f 123 121 70
f 134 136 123
f 70 22 123
f 123 22 134
f 135 37 132
f 132 37 134
f 132 78 135
f 132 8 78
f 71 22 76
f 71 76 74
f 74 8 71
f 8 132 71
f 134 22 71
f 71 132 134
f 60 58 18
f 18 58 111
f 111 98 18
f 18 98 57
f 44 57 2
f 73 44 2
f 57 96 2
f 96 79 2
f 2 79 73
f 99 79 96
f 99 119 117
f 99 96 119
f 117 79 99
f 35 126 124
f 35 131 126
f 125 131 35
f 35 124 160
f 160 125 35
f 140 153 17
f 17 54 140
f 153 55 17
f 56 54 17
f 17 60 56
f 17 55 60
f 59 18 57
f 60 18 59
f 56 60 59
f 59 57 44
f 13 56 59
f 59 44 13

