# https://github.com/mikedh/trimesh
v -0.03258840 0.06104357 0.08600000
v -0.01892039 0.08471726 0.08600000
v -0.03138384 0.06034811 0.08600000
v -0.01771582 0.08402180 0.08600000
v -0.02474680 0.07229868 0.10139546
v -0.02555742 0.07276669 0.10139546
v -0.02474680 0.07229868 0.07060454
v -0.02555742 0.07276669 0.07060454
v -0.01820438 0.08456650 0.07083199
v -0.01820438 0.08456650 0.10116801
v -0.03209984 0.06049887 0.07083199
v -0.03209984 0.06049887 0.10116801
v -0.02584493 0.07293269 0.08600000
v -0.02445929 0.07213269 0.08600000
v -0.03133323 0.06049406 0.10115000
v -0.01781691 0.08390500 0.10115000
v -0.03248731 0.06116037 0.10115000
v -0.01897100 0.08457131 0.10115000
v -0.02515211 0.07253269 0.10150000
v -0.03133323 0.06049406 0.07085000
v -0.01781691 0.08390500 0.07085000
v -0.03248731 0.06116037 0.07085000
v -0.01897100 0.08457131 0.07085000
v -0.02515211 0.07253269 0.07050000
v -0.01860867 0.08476626 0.07098369
v -0.01782925 0.08431626 0.07098369
v -0.01805318 0.08419578 0.07063369
v -0.01860105 0.08451209 0.07063369
v -0.01860867 0.08476626 0.10101631
v -0.01782925 0.08431626 0.10101631
v -0.01805318 0.08419578 0.10136631
v -0.01860105 0.08451209 0.10136631
v -0.01815211 0.08465704 0.08600000
v -0.03247498 0.06074911 0.07098369
v -0.03169556 0.06029911 0.07098369
v -0.03170318 0.06055328 0.07063369
v -0.03225105 0.06086960 0.07063369
v -0.03247498 0.06074911 0.10101631
v -0.03169556 0.06029911 0.10101631
v -0.03170318 0.06055328 0.10136631
v -0.03225105 0.06086960 0.10136631
v -0.03215211 0.06040833 0.08600000
v -0.03256750 0.06123557 0.08600000
v -0.01907622 0.08460316 0.08600000
v -0.03122801 0.06046221 0.08600000
v -0.01773672 0.08382980 0.08600000
v -0.03134441 0.06039958 0.10098192
v -0.03135115 0.06062435 0.10129143
v -0.03119582 0.06053319 0.10098401
v -0.01774068 0.08396192 0.10098192
v -0.01793871 0.08385537 0.10129143
v -0.01778210 0.08376644 0.10098401
v -0.02454983 0.07218496 0.10116801
v -0.03256354 0.06110345 0.10098192
v -0.03236551 0.06121000 0.10129143
v -0.03252212 0.06129893 0.10098401
v -0.01895982 0.08466579 0.10098192
v -0.01895308 0.08444102 0.10129143
v -0.01910840 0.08453218 0.10098401
v -0.02575439 0.07288041 0.10116801
v -0.02489985 0.07238704 0.10147336
v -0.02540437 0.07267833 0.10147336
v -0.03134441 0.06039958 0.07101808
v -0.03135115 0.06062435 0.07070857
v -0.03119582 0.06053319 0.07101599
v -0.01774068 0.08396192 0.07101808
v -0.01793871 0.08385537 0.07070857
v -0.01778210 0.08376644 0.07101599
v -0.02454983 0.07218496 0.07083199
v -0.03256354 0.06110345 0.07101808
v -0.03236551 0.06121000 0.07070857
v -0.03252212 0.06129893 0.07101599
v -0.01895982 0.08466579 0.07101808
v -0.01895308 0.08444102 0.07070857
v -0.01910840 0.08453218 0.07101599
v -0.02575439 0.07288041 0.07083199
v -0.02489985 0.07238704 0.07052664
v -0.02540437 0.07267833 0.07052664
v -0.01877148 0.08476712 0.07108756
v -0.01844433 0.08471475 0.07089628
v -0.01880018 0.08469802 0.07090227
v -0.01774709 0.08417569 0.07108756
v -0.01795602 0.08443283 0.07089628
v -0.01779259 0.08411628 0.07090227
v -0.01806152 0.08400651 0.07059613
v -0.01807242 0.08437020 0.07071435
v -0.01791032 0.08405294 0.07071827
v -0.01822502 0.08410332 0.07053426
v -0.01791680 0.08426915 0.07078855
v -0.01876078 0.08441024 0.07059613
v -0.01844037 0.08458263 0.07071435
v -0.01879618 0.08456439 0.07071827
v -0.01859520 0.08431704 0.07053426
v -0.01860569 0.08466688 0.07078855
v -0.01831811 0.08436953 0.07060454
v -0.01877148 0.08476712 0.10091244
v -0.01844433 0.08471475 0.10110372
v -0.01880018 0.08469802 0.10109773
v -0.01860969 0.08480051 0.08600000
v -0.01774709 0.08417569 0.10091244
v -0.01795602 0.08443283 0.10110372
v -0.01779259 0.08411628 0.10109773
v -0.01779907 0.08433250 0.08600000
v -0.01806152 0.08400651 0.10140387
v -0.01807242 0.08437020 0.10128565
v -0.01791032 0.08405294 0.10128173
v -0.01822502 0.08410332 0.10146574
v -0.01791680 0.08426915 0.10121145
v -0.01876078 0.08441024 0.10140387
v -0.01844037 0.08458263 0.10128565
v -0.01879618 0.08456439 0.10128173
v -0.01859520 0.08431704 0.10146574
v -0.01860569 0.08466688 0.10121145
v -0.01831811 0.08436953 0.10139546
v -0.01816543 0.08463397 0.07100871
v -0.01816543 0.08463397 0.10099129
v -0.01841520 0.08476937 0.07108628
v -0.01792329 0.08448537 0.07108628
v -0.01841520 0.08476937 0.10091372
v -0.01792329 0.08448537 0.10091372
v -0.03255713 0.06088968 0.07108756
v -0.03234820 0.06063255 0.07089628
v -0.03251163 0.06094909 0.07090227
v -0.03153274 0.06029825 0.07108756
v -0.03185989 0.06035062 0.07089628
v -0.03150404 0.06036736 0.07090227
v -0.03154344 0.06065514 0.07059613
v -0.03186385 0.06048274 0.07071435
v -0.03150805 0.06050098 0.07071827
v -0.03170903 0.06074833 0.07053426
v -0.03169854 0.06039849 0.07078855
v -0.03224271 0.06105886 0.07059613
v -0.03223180 0.06069517 0.07071435
v -0.03239390 0.06101243 0.07071827
v -0.03207920 0.06096206 0.07053426
v -0.03238742 0.06079622 0.07078855
v -0.03198612 0.06069584 0.07060454
v -0.03255713 0.06088968 0.10091244
v -0.03234820 0.06063255 0.10110372
v -0.03251163 0.06094909 0.10109773
v -0.03250515 0.06073287 0.08600000
v -0.03153274 0.06029825 0.10091244
v -0.03185989 0.06035062 0.10110372
v -0.03150404 0.06036736 0.10109773
v -0.03169453 0.06026486 0.08600000
v -0.03154344 0.06065514 0.10140387
v -0.03186385 0.06048274 0.10128565
v -0.03150805 0.06050098 0.10128173
v -0.03170903 0.06074833 0.10146574
v -0.03169854 0.06039849 0.10121145
v -0.03224271 0.06105886 0.10140387
v -0.03223180 0.06069517 0.10128565
v -0.03239390 0.06101243 0.10128173
v -0.03207920 0.06096206 0.10146574
v -0.03238742 0.06079622 0.10121145
v -0.03198612 0.06069584 0.10139546
v -0.03213879 0.06043140 0.07100871
v -0.03213879 0.06043140 0.10099129
v -0.03238094 0.06058000 0.07108628
v -0.03188903 0.06029600 0.07108628
v -0.03238094 0.06058000 0.10091372
v -0.03188903 0.06029600 0.10091372
f 14 65 68
f 45 65 14
f 69 68 65
f 49 45 14
f 14 52 49
f 65 45 63
f 64 69 65
f 77 130 24
f 24 88 77
f 68 69 67
f 67 64 7
f 69 64 67
f 45 49 47
f 53 49 52
f 157 160 42
f 51 53 52
f 24 130 135
f 14 68 46
f 46 52 14
f 103 120 100
f 100 82 103
f 4 82 100
f 103 82 118
f 33 120 118
f 118 120 103
f 7 64 127
f 127 77 7
f 130 77 127
f 124 160 35
f 126 63 124
f 124 35 126
f 126 35 131
f 85 67 7
f 7 77 85
f 85 77 88
f 88 27 85
f 66 82 4
f 66 46 68
f 4 46 66
f 124 63 3
f 3 63 45
f 45 47 3
f 61 146 5
f 61 107 19
f 159 157 42
f 42 161 159
f 19 107 112
f 5 51 104
f 104 61 5
f 107 61 104
f 42 160 162
f 54 56 43
f 117 119 33
f 57 96 2
f 2 96 79
f 95 27 88
f 16 51 52
f 133 128 11
f 131 128 36
f 130 127 36
f 125 35 160
f 131 35 125
f 125 128 131
f 11 128 125
f 125 157 11
f 160 157 125
f 63 126 20
f 65 63 20
f 20 64 65
f 129 127 64
f 129 126 131
f 131 36 129
f 129 36 127
f 64 20 129
f 129 20 126
f 26 118 82
f 26 83 118
f 146 148 48
f 5 146 48
f 49 53 48
f 48 51 5
f 53 51 48
f 141 159 161
f 98 96 57
f 116 120 33
f 33 119 116
f 114 112 107
f 120 116 101
f 101 116 10
f 144 148 150
f 124 3 142
f 47 144 142
f 142 3 47
f 150 148 40
f 40 148 146
f 149 61 19
f 146 61 149
f 149 40 146
f 40 149 156
f 79 117 25
f 25 117 80
f 33 118 115
f 115 117 33
f 115 83 9
f 118 83 115
f 9 80 115
f 80 117 115
f 99 96 119
f 79 96 99
f 119 117 99
f 99 117 79
f 73 2 79
f 57 2 44
f 44 59 57
f 44 73 75
f 2 73 44
f 24 135 78
f 91 80 9
f 93 95 88
f 93 88 24
f 24 78 93
f 50 16 52
f 4 100 50
f 52 46 50
f 50 46 4
f 9 83 86
f 27 95 86
f 86 91 9
f 95 91 86
f 137 135 130
f 128 133 137
f 130 36 137
f 137 36 128
f 82 66 84
f 84 26 82
f 138 141 161
f 119 96 29
f 96 98 29
f 111 58 109
f 15 48 148
f 148 144 15
f 15 144 47
f 15 47 49
f 49 48 15
f 162 142 39
f 39 144 150
f 39 142 144
f 145 162 160
f 145 160 124
f 145 142 162
f 124 142 145
f 152 139 12
f 152 156 41
f 19 112 62
f 62 112 109
f 94 25 80
f 80 91 94
f 75 73 23
f 13 43 56
f 56 59 13
f 59 44 13
f 72 43 13
f 13 75 72
f 13 44 75
f 132 71 8
f 132 78 135
f 8 78 132
f 72 75 76
f 76 71 72
f 92 94 28
f 28 94 91
f 28 91 95
f 95 93 28
f 21 84 66
f 68 67 21
f 21 66 68
f 67 85 87
f 87 21 67
f 84 21 87
f 87 85 27
f 161 139 38
f 38 138 161
f 54 43 1
f 1 138 54
f 119 29 97
f 97 116 119
f 10 116 97
f 18 98 57
f 18 111 98
f 58 111 18
f 18 59 58
f 57 59 18
f 106 104 51
f 51 16 106
f 101 108 30
f 30 100 120
f 120 101 30
f 107 104 31
f 31 114 107
f 31 106 108
f 104 106 31
f 105 101 10
f 105 108 101
f 105 31 108
f 114 31 105
f 143 39 150
f 162 39 143
f 147 156 152
f 152 12 147
f 40 156 147
f 150 40 147
f 147 143 150
f 12 143 147
f 158 139 161
f 158 12 139
f 158 161 42
f 42 162 158
f 162 143 158
f 158 143 12
f 60 59 56
f 58 59 60
f 60 55 58
f 56 55 60
f 154 41 156
f 151 41 154
f 154 156 149
f 154 62 151
f 154 149 19
f 19 62 154
f 151 55 153
f 153 41 151
f 58 55 6
f 109 58 6
f 6 55 151
f 151 62 6
f 6 62 109
f 81 73 79
f 81 94 92
f 92 23 81
f 81 23 73
f 79 25 81
f 25 94 81
f 74 23 92
f 8 71 74
f 71 76 74
f 75 23 74
f 74 76 75
f 72 71 22
f 136 34 123
f 92 28 90
f 90 28 93
f 90 74 92
f 8 74 90
f 90 78 8
f 90 93 78
f 27 86 89
f 89 87 27
f 89 86 83
f 84 87 89
f 83 26 89
f 26 84 89
f 123 34 121
f 141 138 121
f 138 1 121
f 159 141 121
f 121 34 159
f 10 97 110
f 110 105 10
f 114 105 110
f 16 50 102
f 102 106 16
f 102 50 100
f 108 106 102
f 100 30 102
f 102 30 108
f 17 153 55
f 17 56 54
f 17 55 56
f 152 41 155
f 41 153 155
f 155 139 152
f 155 38 139
f 72 22 70
f 70 22 123
f 123 121 70
f 70 121 1
f 70 43 72
f 70 1 43
f 133 136 37
f 37 132 135
f 135 137 37
f 37 137 133
f 122 136 133
f 122 133 11
f 159 34 122
f 34 136 122
f 11 157 122
f 157 159 122
f 71 132 134
f 134 136 123
f 134 22 71
f 123 22 134
f 132 37 134
f 134 37 136
f 112 114 32
f 114 110 32
f 109 112 32
f 32 111 109
f 98 111 113
f 113 110 97
f 113 29 98
f 113 97 29
f 111 32 113
f 113 32 110
f 138 38 140
f 38 155 140
f 54 138 140
f 140 155 153
f 140 17 54
f 153 17 140

