# https://github.com/mikedh/trimesh
v -0.01466801 -0.05460454 0.08600000
v 0.01266801 -0.05460454 0.08600000
v -0.01466801 -0.05599546 0.08600000
v 0.01266801 -0.05599546 0.08600000
v -0.00100000 -0.05576801 0.10139546
v -0.00100000 -0.05483199 0.10139546
v -0.00100000 -0.05576801 0.07060454
v -0.00100000 -0.05483199 0.07060454
v 0.01289546 -0.05530000 0.07083199
v 0.01289546 -0.05530000 0.10116801
v -0.01489546 -0.05530000 0.07083199
v -0.01489546 -0.05530000 0.10116801
v -0.00100000 -0.05450000 0.08600000
v -0.00100000 -0.05610000 0.08600000
v -0.01451631 -0.05596631 0.10115000
v 0.01251631 -0.05596631 0.10115000
v -0.01451631 -0.05463369 0.10115000
v 0.01251631 -0.05463369 0.10115000
v -0.00100000 -0.05530000 0.10150000
v -0.01451631 -0.05596631 0.07085000
v 0.01251631 -0.05596631 0.07085000
v -0.01451631 -0.05463369 0.07085000
v 0.01251631 -0.05463369 0.07085000
v -0.00100000 -0.05530000 0.07050000
v 0.01286631 -0.05485000 0.07098369
v 0.01286631 -0.05575000 0.07098369
v 0.01265000 -0.05561631 0.07063369
v 0.01265000 -0.05498369 0.07063369
v 0.01286631 -0.05485000 0.10101631
v 0.01286631 -0.05575000 0.10101631
v 0.01265000 -0.05561631 0.10136631
v 0.01265000 -0.05498369 0.10136631
v 0.01300000 -0.05530000 0.08600000
v -0.01486631 -0.05485000 0.07098369
v -0.01486631 -0.05575000 0.07098369
v -0.01465000 -0.05561631 0.07063369
v -0.01465000 -0.05498369 0.07063369
v -0.01486631 -0.05485000 0.10101631
v -0.01486631 -0.05575000 0.10101631
v -0.01465000 -0.05561631 0.10136631
v -0.01465000 -0.05498369 0.10136631
v -0.01500000 -0.05530000 0.08600000
v -0.01449129 -0.05452664 0.08600000
v 0.01249129 -0.05452664 0.08600000
v -0.01449129 -0.05607336 0.08600000
v 0.01249129 -0.05607336 0.08600000
v -0.01460372 -0.05600387 0.10098192
v -0.01441244 -0.05588565 0.10129143
v -0.01441372 -0.05606574 0.10098401
v 0.01260372 -0.05600387 0.10098192
v 0.01241244 -0.05588565 0.10129143
v 0.01241372 -0.05606574 0.10098401
v -0.00100000 -0.05599546 0.10116801
v -0.01460372 -0.05459613 0.10098192
v -0.01441244 -0.05471435 0.10129143
v -0.01441372 -0.05453426 0.10098401
v 0.01260372 -0.05459613 0.10098192
v 0.01241244 -0.05471435 0.10129143
v 0.01241372 -0.05453426 0.10098401
v -0.00100000 -0.05460454 0.10116801
v -0.00100000 -0.05559129 0.10147336
v -0.00100000 -0.05500871 0.10147336
v -0.01460372 -0.05600387 0.07101808
v -0.01441244 -0.05588565 0.07070857
v -0.01441372 -0.05606574 0.07101599
v 0.01260372 -0.05600387 0.07101808
v 0.01241244 -0.05588565 0.07070857
v 0.01241372 -0.05606574 0.07101599
v -0.00100000 -0.05599546 0.07083199
v -0.01460372 -0.05459613 0.07101808
v -0.01441244 -0.05471435 0.07070857
v -0.01441372 -0.05453426 0.07101599
v 0.01260372 -0.05459613 0.07101808
v 0.01241244 -0.05471435 0.07070857
v 0.01241372 -0.05453426 0.07101599
v -0.00100000 -0.05460454 0.07083199
v -0.00100000 -0.05559129 0.07052664
v -0.00100000 -0.05500871 0.07052664
v 0.01278565 -0.05470857 0.07108756
v 0.01290387 -0.05501808 0.07089628
v 0.01271145 -0.05471827 0.07090227
v 0.01278565 -0.05589143 0.07108756
v 0.01290387 -0.05558192 0.07089628
v 0.01271145 -0.05588173 0.07090227
v 0.01248192 -0.05570372 0.07059613
v 0.01279143 -0.05551244 0.07071435
v 0.01259773 -0.05581145 0.07071827
v 0.01248401 -0.05551372 0.07053426
v 0.01278173 -0.05569773 0.07078855
v 0.01248192 -0.05489628 0.07059613
v 0.01279143 -0.05508756 0.07071435
v 0.01259773 -0.05478855 0.07071827
v 0.01248401 -0.05508628 0.07053426
v 0.01278173 -0.05490227 0.07078855
v 0.01266801 -0.05530000 0.07060454
v 0.01278565 -0.05470857 0.10091244
v 0.01290387 -0.05501808 0.10110372
v 0.01271145 -0.05471827 0.10109773
v 0.01289546 -0.05483199 0.08600000
v 0.01278565 -0.05589143 0.10091244
v 0.01290387 -0.05558192 0.10110372
v 0.01271145 -0.05588173 0.10109773
v 0.01289546 -0.05576801 0.08600000
v 0.01248192 -0.05570372 0.10140387
v 0.01279143 -0.05551244 0.10128565
v 0.01259773 -0.05581145 0.10128173
v 0.01248401 -0.05551372 0.10146574
v 0.01278173 -0.05569773 0.10121145
v 0.01248192 -0.05489628 0.10140387
v 0.01279143 -0.05508756 0.10128565
v 0.01259773 -0.05478855 0.10128173
v 0.01248401 -0.05508628 0.10146574
v 0.01278173 -0.05490227 0.10121145
v 0.01266801 -0.05530000 0.10139546
v 0.01297336 -0.05530000 0.07100871
v 0.01297336 -0.05530000 0.10099129
v 0.01296574 -0.05501599 0.07108628
v 0.01296574 -0.05558401 0.07108628
v 0.01296574 -0.05501599 0.10091372
v 0.01296574 -0.05558401 0.10091372
v -0.01478565 -0.05470857 0.07108756
v -0.01490387 -0.05501808 0.07089628
v -0.01471145 -0.05471827 0.07090227
v -0.01478565 -0.05589143 0.07108756
v -0.01490387 -0.05558192 0.07089628
v -0.01471145 -0.05588173 0.07090227
v -0.01448192 -0.05570372 0.07059613
v -0.01479143 -0.05551244 0.07071435
v -0.01459773 -0.05581145 0.07071827
v -0.01448401 -0.05551372 0.07053426
v -0.01478173 -0.05569773 0.07078855
v -0.01448192 -0.05489628 0.07059613
v -0.01479143 -0.05508756 0.07071435
v -0.01459773 -0.05478855 0.07071827
v -0.01448401 -0.05508628 0.07053426
v -0.01478173 -0.05490227 0.07078855
v -0.01466801 -0.05530000 0.07060454
v -0.01478565 -0.05470857 0.10091244
v -0.01490387 -0.05501808 0.10110372
v -0.01471145 -0.05471827 0.10109773
v -0.01489546 -0.05483199 0.08600000
v -0.01478565 -0.05589143 0.10091244
v -0.01490387 -0.05558192 0.10110372
v -0.01471145 -0.05588173 0.10109773
v -0.01489546 -0.05576801 0.08600000
v -0.01448192 -0.05570372 0.10140387
v -0.01479143 -0.05551244 0.10128565
v -0.01459773 -0.05581145 0.10128173
v -0.01448401 -0.05551372 0.10146574
v -0.01478173 -0.05569773 0.10121145
v -0.01448192 -0.05489628 0.10140387
v -0.01479143 -0.05508756 0.10128565
v -0.01459773 -0.05478855 0.10128173
v -0.01448401 -0.05508628 0.10146574
v -0.01478173 -0.05490227 0.10121145
v -0.01466801 -0.05530000 0.10139546
v -0.01497336 -0.05530000 0.07100871
v -0.01497336 -0.05530000 0.10099129
v -0.01496574 -0.05501599 0.07108628
v -0.01496574 -0.05558401 0.07108628
v -0.01496574 -0.05501599 0.10091372
v -0.01496574 -0.05558401 0.10091372
f 14 65 68
f 45 65 14
f 69 68 65
f 49 45 14
f 14 52 49
f 65 45 63
f 64 69 65
f 77 130 24
f 24 88 77
f 68 69 67
f 67 64 7
f 69 64 67
f 45 49 47
f 53 49 52
f 157 160 42
f 51 53 52
f 24 130 135
f 14 68 46
f 46 52 14
f 103 120 100
f 100 82 103
f 4 82 100
f 103 82 118
f 33 120 118
f 118 120 103
f 7 64 127
f 127 77 7
f 130 77 127
f 124 160 35
f 126 63 124
f 124 35 126
f 126 35 131
f 85 67 7
f 7 77 85
f 85 77 88
f 88 27 85
f 66 82 4
f 66 46 68
f 4 46 66
f 124 63 3
f 3 63 45
f 45 47 3
f 61 146 5
f 61 107 19
f 159 157 42
f 42 161 159
f 19 107 112
f 5 51 104
f 104 61 5
f 107 61 104
f 42 160 162
f 54 56 43
f 117 119 33
f 57 96 2
f 2 96 79
f 95 27 88
f 16 51 52
f 133 128 11
f 131 128 36
f 130 127 36
f 125 35 160
f 131 35 125
f 125 128 131
f 11 128 125
f 125 157 11
f 160 157 125
f 63 126 20
f 65 63 20
f 20 64 65
f 129 127 64
f 129 126 131
f 131 36 129
f 129 36 127
f 64 20 129
f 129 20 126
f 26 118 82
f 26 83 118
f 146 148 48
f 5 146 48
f 49 53 48
f 48 51 5
f 53 51 48
f 141 159 161
f 98 96 57
f 116 120 33
f 33 119 116
f 114 112 107
f 120 116 101
f 101 116 10
f 144 148 150
f 124 3 142
f 47 144 142
f 142 3 47
f 150 148 40
f 40 148 146
f 149 61 19
f 146 61 149
f 149 40 146
f 40 149 156
f 79 117 25
f 25 117 80
f 33 118 115
f 115 117 33
f 115 83 9
f 118 83 115
f 9 80 115
f 80 117 115
f 99 96 119
f 79 96 99
f 119 117 99
f 99 117 79
f 73 2 79
f 57 2 44
f 44 59 57
f 44 73 75
f 2 73 44
f 24 135 78
f 91 80 9
f 93 95 88
f 93 88 24
f 24 78 93
f 50 16 52
f 4 100 50
f 52 46 50
f 50 46 4
f 9 83 86
f 27 95 86
f 86 91 9
f 95 91 86
f 137 135 130
f 128 133 137
f 130 36 137
f 137 36 128
f 82 66 84
f 84 26 82
f 138 141 161
f 119 96 29
f 96 98 29
f 111 58 109
f 15 48 148
f 148 144 15
f 15 144 47
f 15 47 49
f 49 48 15
f 162 142 39
f 39 144 150
f 39 142 144
f 145 162 160
f 145 160 124
f 145 142 162
f 124 142 145
f 152 139 12
f 152 156 41
f 19 112 62
f 62 112 109
f 94 25 80
f 80 91 94
f 75 73 23
f 13 43 56
f 56 59 13
f 59 44 13
f 72 43 13
f 13 75 72
f 13 44 75
f 132 71 8
f 132 78 135
f 8 78 132
f 72 75 76
f 76 71 72
f 92 94 28
f 28 94 91
f 28 91 95
f 95 93 28
f 21 84 66
f 68 67 21
f 21 66 68
f 67 85 87
f 87 21 67
f 84 21 87
f 87 85 27
f 161 139 38
f 38 138 161
f 54 43 1
f 1 138 54
f 119 29 97
f 97 116 119
f 10 116 97
f 18 98 57
f 18 111 98
f 58 111 18
f 18 59 58
f 57 59 18
f 106 104 51
f 51 16 106
f 101 108 30
f 30 100 120
f 120 101 30
f 107 104 31
f 31 114 107
f 31 106 108
f 104 106 31
f 105 101 10
f 105 108 101
f 105 31 108
f 114 31 105
f 143 39 150
f 162 39 143
f 147 156 152
f 152 12 147
f 40 156 147
f 150 40 147
f 147 143 150
f 12 143 147
f 158 139 161
f 158 12 139
f 158 161 42
f 42 162 158
f 162 143 158
f 158 143 12
f 60 59 56
f 58 59 60
f 60 55 58
f 56 55 60
f 154 41 156
f 151 41 154
f 154 156 149
f 154 62 151
f 154 149 19
f 19 62 154
f 151 55 153
f 153 41 151
f 58 55 6
f 109 58 6
f 6 55 151
f 151 62 6
f 6 62 109
f 81 73 79
f 81 94 92
f 92 23 81
f 81 23 73
f 79 25 81
f 25 94 81
f 74 23 92
f 8 71 74
f 71 76 74
f 75 23 74
f 74 76 75
f 72 71 22
f 136 34 123
f 92 28 90
f 90 28 93
f 90 74 92
f 8 74 90
f 90 78 8
f 90 93 78
f 27 86 89
f 89 87 27
f 89 86 83
f 84 87 89
f 83 26 89
f 26 84 89
f 123 34 121
f 141 138 121
f 138 1 121
f 159 141 121
f 121 34 159
f 10 97 110
f 110 105 10
f 114 105 110
f 16 50 102
f 102 106 16
f 102 50 100
f 108 106 102
f 100 30 102
f 102 30 108
f 17 153 55
f 17 56 54
f 17 55 56
f 152 41 155
f 41 153 155
f 155 139 152
f 155 38 139
f 72 22 70
f 70 22 123
f 123 121 70
f 70 121 1
f 70 43 72
f 70 1 43
f 133 136 37
f 37 132 135
f 135 137 37
f 37 137 133
f 122 136 133
f 122 133 11
f 159 34 122
f 34 136 122
f 11 157 122
f 157 159 122
f 71 132 134
f 134 136 123
f 134 22 71
f 123 22 134
f 132 37 134
f 134 37 136
f 112 114 32
f 114 110 32
f 109 112 32
f 32 111 109
f 98 111 113
f 113 110 97
f 113 29 98
f 113 97 29
f 111 32 113
f 113 32 110
f 138 38 140
f 38 155 140
f 54 138 140
f 140 155 153
f 140 17 54
f 153 17 140

