# https://github.com/mikedh/trimesh
v -0.01534006 -0.05052272 0.06200000
v 0.01334006 -0.05052272 0.06200000
v -0.01534006 -0.05747728 0.06200000
v 0.01334006 -0.05747728 0.06200000
v -0.00100000 -0.05634006 0.06597728
v -0.00100000 -0.05165994 0.06597728
v -0.00100000 -0.05634006 0.05802272
v -0.00100000 -0.05165994 0.05802272
v 0.01447728 -0.05400000 0.05915994
v 0.01447728 -0.05400000 0.06484006
v -0.01647728 -0.05400000 0.05915994
v -0.01647728 -0.05400000 0.06484006
v -0.00100000 -0.05000000 0.06200000
v -0.00100000 -0.05800000 0.06200000
v -0.01458156 -0.05733156 0.06475000
v 0.01258156 -0.05733156 0.06475000
v -0.01458156 -0.05066844 0.06475000
v 0.01258156 -0.05066844 0.06475000
v -0.00100000 -0.05400000 0.06650000
v -0.01458156 -0.05733156 0.05925000
v 0.01258156 -0.05733156 0.05925000
v -0.01458156 -0.05066844 0.05925000
v 0.01258156 -0.05066844 0.05925000
v -0.00100000 -0.05400000 0.05750000
v 0.01433156 -0.05175000 0.05991844
v 0.01433156 -0.05625000 0.05991844
v 0.01325000 -0.05558156 0.05816844
v 0.01325000 -0.05241844 0.05816844
v 0.01433156 -0.05175000 0.06408156
v 0.01433156 -0.05625000 0.06408156
v 0.01325000 -0.05558156 0.06583156
v 0.01325000 -0.05241844 0.06583156
v 0.01500000 -0.05400000 0.06200000
v -0.01633156 -0.05175000 0.05991844
v -0.01633156 -0.05625000 0.05991844
v -0.01525000 -0.05558156 0.05816844
v -0.01525000 -0.05241844 0.05816844
v -0.01633156 -0.05175000 0.06408156
v -0.01633156 -0.05625000 0.06408156
v -0.01525000 -0.05558156 0.06583156
v -0.01525000 -0.05241844 0.06583156
v -0.01700000 -0.05400000 0.06200000
v -0.01445643 -0.05013322 0.06200000
v 0.01245643 -0.05013322 0.06200000
v -0.01445643 -0.05786678 0.06200000
v 0.01245643 -0.05786678 0.06200000
v -0.01501861 -0.05751934 0.06390962
v -0.01406218 -0.05692823 0.06545716
v -0.01406861 -0.05782870 0.06392003
v 0.01301861 -0.05751934 0.06390962
v 0.01206218 -0.05692823 0.06545716
v 0.01206861 -0.05782870 0.06392003
v -0.00100000 -0.05747728 0.06484006
v -0.01501861 -0.05048066 0.06390962
v -0.01406218 -0.05107177 0.06545716
v -0.01406861 -0.05017130 0.06392003
v 0.01301861 -0.05048066 0.06390962
v 0.01206218 -0.05107177 0.06545716
v 0.01206861 -0.05017130 0.06392003
v -0.00100000 -0.05052272 0.06484006
v -0.00100000 -0.05545643 0.06636678
v -0.00100000 -0.05254357 0.06636678
v -0.01501861 -0.05751934 0.06009038
v -0.01406218 -0.05692823 0.05854284
v -0.01406861 -0.05782870 0.06007997
v 0.01301861 -0.05751934 0.06009038
v 0.01206218 -0.05692823 0.05854284
v 0.01206861 -0.05782870 0.06007997
v -0.00100000 -0.05747728 0.05915994
v -0.01501861 -0.05048066 0.06009038
v -0.01406218 -0.05107177 0.05854284
v -0.01406861 -0.05017130 0.06007997
v 0.01301861 -0.05048066 0.06009038
v 0.01206218 -0.05107177 0.05854284
v 0.01206861 -0.05017130 0.06007997
v -0.00100000 -0.05052272 0.05915994
v -0.00100000 -0.05545643 0.05763322
v -0.00100000 -0.05254357 0.05763322
v 0.01392823 -0.05104284 0.06043782
v 0.01451934 -0.05259038 0.05948139
v 0.01355725 -0.05109133 0.05951136
v 0.01392823 -0.05695716 0.06043782
v 0.01451934 -0.05540962 0.05948139
v 0.01355725 -0.05690867 0.05951136
v 0.01240962 -0.05601861 0.05798066
v 0.01395716 -0.05506218 0.05857177
v 0.01298864 -0.05655725 0.05859133
v 0.01242003 -0.05506861 0.05767130
v 0.01390867 -0.05598864 0.05894275
v 0.01240962 -0.05198139 0.05798066
v 0.01395716 -0.05293782 0.05857177
v 0.01298864 -0.05144275 0.05859133
v 0.01242003 -0.05293139 0.05767130
v 0.01390867 -0.05201136 0.05894275
v 0.01334006 -0.05400000 0.05802272
v 0.01392823 -0.05104284 0.06356218
v 0.01451934 -0.05259038 0.06451861
v 0.01355725 -0.05109133 0.06448864
v 0.01447728 -0.05165994 0.06200000
v 0.01392823 -0.05695716 0.06356218
v 0.01451934 -0.05540962 0.06451861
v 0.01355725 -0.05690867 0.06448864
v 0.01447728 -0.05634006 0.06200000
v 0.01240962 -0.05601861 0.06601934
v 0.01395716 -0.05506218 0.06542823
v 0.01298864 -0.05655725 0.06540867
v 0.01242003 -0.05506861 0.06632870
v 0.01390867 -0.05598864 0.06505725
v 0.01240962 -0.05198139 0.06601934
v 0.01395716 -0.05293782 0.06542823
v 0.01298864 -0.05144275 0.06540867
v 0.01242003 -0.05293139 0.06632870
v 0.01390867 -0.05201136 0.06505725
v 0.01334006 -0.05400000 0.06597728
v 0.01486678 -0.05400000 0.06004357
v 0.01486678 -0.05400000 0.06395643
v 0.01482870 -0.05257997 0.06043139
v 0.01482870 -0.05542003 0.06043139
v 0.01482870 -0.05257997 0.06356861
v 0.01482870 -0.05542003 0.06356861
v -0.01592823 -0.05104284 0.06043782
v -0.01651934 -0.05259038 0.05948139
v -0.01555725 -0.05109133 0.05951136
v -0.01592823 -0.05695716 0.06043782
v -0.01651934 -0.05540962 0.05948139
v -0.01555725 -0.05690867 0.05951136
v -0.01440962 -0.05601861 0.05798066
v -0.01595716 -0.05506218 0.05857177
v -0.01498864 -0.05655725 0.05859133
v -0.01442003 -0.05506861 0.05767130
v -0.01590867 -0.05598864 0.05894275
v -0.01440962 -0.05198139 0.05798066
v -0.01595716 -0.05293782 0.05857177
v -0.01498864 -0.05144275 0.05859133
v -0.01442003 -0.05293139 0.05767130
v -0.01590867 -0.05201136 0.05894275
v -0.01534006 -0.05400000 0.05802272
v -0.01592823 -0.05104284 0.06356218
v -0.01651934 -0.05259038 0.06451861
v -0.01555725 -0.05109133 0.06448864
v -0.01647728 -0.05165994 0.06200000
v -0.01592823 -0.05695716 0.06356218
v -0.01651934 -0.05540962 0.06451861
v -0.01555725 -0.05690867 0.06448864
v -0.01647728 -0.05634006 0.06200000
v -0.01440962 -0.05601861 0.06601934
v -0.01595716 -0.05506218 0.06542823
v -0.01498864 -0.05655725 0.06540867
v -0.01442003 -0.05506861 0.06632870
v -0.01590867 -0.05598864 0.06505725
v -0.01440962 -0.05198139 0.06601934
v -0.01595716 -0.05293782 0.06542823
v -0.01498864 -0.05144275 0.06540867
v -0.01442003 -0.05293139 0.06632870
v -0.01590867 -0.05201136 0.06505725
v -0.01534006 -0.05400000 0.06597728
v -0.01686678 -0.05400000 0.06004357
v -0.01686678 -0.05400000 0.06395643
v -0.01682870 -0.05257997 0.06043139
v -0.01682870 -0.05542003 0.06043139
v -0.01682870 -0.05257997 0.06356861
v -0.01682870 -0.05542003 0.06356861
f 64 67 69
f 53 51 48
f 7 67 64
f 24 77 130
f 88 77 24
f 48 51 5
f 149 61 19
f 19 61 107
f 137 130 36
f 135 130 137
f 24 130 135
f 135 78 24
f 27 88 95
f 160 162 42
f 142 144 39
f 39 144 150
f 14 45 65
f 64 69 65
f 49 45 14
f 49 53 48
f 100 30 102
f 48 5 146
f 146 5 61
f 61 149 146
f 74 8 71
f 137 36 128
f 125 11 128
f 37 135 137
f 88 27 85
f 67 7 85
f 85 7 77
f 77 88 85
f 86 27 95
f 83 89 86
f 86 89 27
f 42 159 157
f 157 160 42
f 157 11 125
f 125 160 157
f 162 39 143
f 143 39 150
f 150 147 143
f 68 65 69
f 68 69 67
f 68 46 14
f 14 65 68
f 53 49 52
f 51 53 52
f 14 46 52
f 52 49 14
f 15 49 48
f 47 144 142
f 45 49 47
f 47 15 144
f 49 15 47
f 6 62 109
f 161 159 42
f 108 102 30
f 150 144 148
f 48 146 148
f 148 15 48
f 144 15 148
f 152 147 156
f 156 41 152
f 154 149 19
f 19 62 154
f 156 149 154
f 154 41 156
f 109 62 112
f 19 107 112
f 112 62 19
f 120 118 33
f 76 74 71
f 127 36 130
f 127 129 36
f 64 129 127
f 127 7 64
f 77 7 127
f 127 130 77
f 125 128 131
f 36 129 131
f 131 128 36
f 122 157 159
f 11 157 122
f 135 37 132
f 71 8 132
f 8 78 132
f 78 135 132
f 83 118 26
f 26 89 83
f 67 85 87
f 27 89 87
f 87 85 27
f 51 52 16
f 100 102 50
f 50 52 46
f 102 16 50
f 50 16 52
f 33 117 119
f 117 99 119
f 55 60 56
f 13 43 56
f 43 54 56
f 72 76 71
f 72 43 13
f 1 54 43
f 58 60 55
f 55 6 58
f 58 6 109
f 42 162 158
f 158 161 42
f 162 143 158
f 139 161 158
f 104 5 51
f 61 5 104
f 104 107 61
f 40 147 150
f 40 148 146
f 150 148 40
f 40 146 149
f 40 149 156
f 156 147 40
f 62 6 151
f 151 154 62
f 151 6 55
f 55 153 151
f 41 154 151
f 151 153 41
f 109 112 32
f 90 78 8
f 8 74 90
f 73 44 2
f 57 98 96
f 18 98 57
f 57 96 2
f 2 44 57
f 63 65 45
f 35 160 125
f 125 131 35
f 162 160 145
f 145 124 142
f 142 39 145
f 145 39 162
f 160 35 145
f 145 35 124
f 11 122 133
f 133 37 137
f 137 128 133
f 133 128 11
f 34 122 159
f 134 132 37
f 71 132 134
f 103 26 118
f 118 120 103
f 103 30 100
f 103 120 30
f 46 68 66
f 96 98 29
f 29 99 96
f 29 119 99
f 55 56 17
f 17 56 54
f 17 153 55
f 140 17 54
f 153 17 140
f 22 72 71
f 22 134 123
f 71 134 22
f 70 22 123
f 72 22 70
f 43 72 70
f 70 1 43
f 12 152 139
f 12 143 147
f 147 152 12
f 12 158 143
f 139 158 12
f 101 105 108
f 101 108 30
f 30 120 101
f 114 112 107
f 114 105 110
f 110 32 114
f 114 32 112
f 107 104 31
f 31 114 107
f 105 114 31
f 108 105 31
f 102 108 106
f 106 104 51
f 51 16 106
f 106 16 102
f 108 31 106
f 106 31 104
f 109 32 111
f 111 58 109
f 111 98 18
f 18 58 111
f 92 90 74
f 94 28 92
f 92 28 90
f 115 118 83
f 115 80 117
f 115 117 33
f 33 118 115
f 74 76 75
f 76 72 75
f 44 73 75
f 13 44 75
f 75 72 13
f 79 73 2
f 2 96 79
f 96 99 79
f 59 57 44
f 59 44 13
f 13 56 59
f 59 56 60
f 18 57 59
f 60 58 59
f 59 58 18
f 64 65 20
f 65 63 20
f 20 129 64
f 126 131 129
f 126 63 124
f 124 35 126
f 126 35 131
f 129 20 126
f 126 20 63
f 142 124 3
f 3 47 142
f 45 47 3
f 3 63 45
f 124 63 3
f 159 161 141
f 141 34 159
f 136 133 122
f 123 134 136
f 136 34 123
f 122 34 136
f 37 133 136
f 136 134 37
f 26 103 82
f 82 103 100
f 21 68 67
f 21 66 68
f 67 87 21
f 119 29 97
f 38 161 139
f 38 141 161
f 139 152 155
f 153 140 155
f 155 152 41
f 41 153 155
f 155 38 139
f 140 38 155
f 93 28 95
f 90 28 93
f 95 88 93
f 78 90 93
f 93 88 24
f 24 78 93
f 94 80 91
f 91 28 94
f 95 28 91
f 91 86 95
f 23 92 74
f 74 75 23
f 23 75 73
f 117 80 25
f 25 99 117
f 25 79 99
f 25 80 94
f 94 92 81
f 73 79 81
f 81 23 73
f 92 23 81
f 81 25 94
f 79 25 81
f 34 141 121
f 1 70 121
f 123 34 121
f 121 70 123
f 84 87 89
f 84 82 66
f 84 21 87
f 66 21 84
f 89 26 84
f 26 82 84
f 4 50 46
f 100 50 4
f 46 66 4
f 4 82 100
f 66 82 4
f 113 29 98
f 113 97 29
f 110 97 113
f 98 111 113
f 113 32 110
f 113 111 32
f 116 101 120
f 119 97 116
f 116 120 33
f 33 119 116
f 141 38 138
f 1 121 138
f 138 121 141
f 54 1 138
f 138 140 54
f 138 38 140
f 9 115 83
f 83 86 9
f 80 115 9
f 9 91 80
f 86 91 9
f 105 101 10
f 110 105 10
f 10 97 110
f 10 116 97
f 101 116 10

