# https://github.com/mikedh/trimesh
v 0.04369854 -0.03129870 0.08600000
v 0.04630146 -0.03129870 0.08600000
v 0.04369854 -0.05470130 0.08600000
v 0.04630146 -0.05470130 0.08600000
v 0.04500000 -0.05405146 0.10320130
v 0.04500000 -0.03194854 0.10320130
v 0.04500000 -0.05405146 0.06879870
v 0.04500000 -0.03194854 0.06879870
v 0.04695130 -0.04300000 0.06944854
v 0.04695130 -0.04300000 0.10255146
v 0.04304870 -0.04300000 0.06944854
v 0.04304870 -0.04300000 0.10255146
v 0.04500000 -0.03100000 0.08600000
v 0.04500000 -0.05500000 0.08600000
v 0.04413197 -0.05461803 0.10250000
v 0.04586803 -0.05461803 0.10250000
v 0.04413197 -0.03138197 0.10250000
v 0.04586803 -0.03138197 0.10250000
v 0.04500000 -0.04300000 0.10350000
v 0.04413197 -0.05461803 0.06950000
v 0.04586803 -0.05461803 0.06950000
v 0.04413197 -0.03138197 0.06950000
v 0.04586803 -0.03138197 0.06950000
v 0.04500000 -0.04300000 0.06850000
v 0.04686803 -0.03200000 0.06988197
v 0.04686803 -0.05400000 0.06988197
v 0.04625000 -0.05361803 0.06888197
v 0.04625000 -0.03238197 0.06888197
v 0.04686803 -0.03200000 0.10211803
v 0.04686803 -0.05400000 0.10211803
v 0.04625000 -0.05361803 0.10311803
v 0.04625000 -0.03238197 0.10311803
v 0.04725000 -0.04300000 0.08600000
v 0.04313197 -0.03200000 0.06988197
v 0.04313197 -0.05400000 0.06988197
v 0.04375000 -0.05361803 0.06888197
v 0.04375000 -0.03238197 0.06888197
v 0.04313197 -0.03200000 0.10211803
v 0.04313197 -0.05400000 0.10211803
v 0.04375000 -0.05361803 0.10311803
v 0.04375000 -0.03238197 0.10311803
v 0.04275000 -0.04300000 0.08600000
v 0.04420347 -0.03107612 0.08600000
v 0.04579653 -0.03107612 0.08600000
v 0.04420347 -0.05492388 0.08600000
v 0.04579653 -0.05492388 0.08600000
v 0.04388222 -0.05472534 0.10201978
v 0.04442876 -0.05438756 0.10290409
v 0.04442508 -0.05490211 0.10202573
v 0.04611778 -0.05472534 0.10201978
v 0.04557124 -0.05438756 0.10290409
v 0.04557492 -0.05490211 0.10202573
v 0.04500000 -0.05470130 0.10255146
v 0.04388222 -0.03127466 0.10201978
v 0.04442876 -0.03161244 0.10290409
v 0.04442508 -0.03109789 0.10202573
v 0.04611778 -0.03127466 0.10201978
v 0.04557124 -0.03161244 0.10290409
v 0.04557492 -0.03109789 0.10202573
v 0.04500000 -0.03129870 0.10255146
v 0.04500000 -0.05354653 0.10342388
v 0.04500000 -0.03245347 0.10342388
v 0.04388222 -0.05472534 0.06998022
v 0.04442876 -0.05438756 0.06909591
v 0.04442508 -0.05490211 0.06997427
v 0.04611778 -0.05472534 0.06998022
v 0.04557124 -0.05438756 0.06909591
v 0.04557492 -0.05490211 0.06997427
v 0.04500000 -0.05470130 0.06944854
v 0.04388222 -0.03127466 0.06998022
v 0.04442876 -0.03161244 0.06909591
v 0.04442508 -0.03109789 0.06997427
v 0.04611778 -0.03127466 0.06998022
v 0.04557124 -0.03161244 0.06909591
v 0.04557492 -0.03109789 0.06997427
v 0.04500000 -0.03129870 0.06944854
v 0.04500000 -0.05354653 0.06857612
v 0.04500000 -0.03245347 0.06857612
v 0.04663756 -0.03159591 0.07017876
v 0.04697534 -0.03248022 0.06963222
v 0.04642557 -0.03162362 0.06964935
v 0.04663756 -0.05440409 0.07017876
v 0.04697534 -0.05351978 0.06963222
v 0.04642557 -0.05437638 0.06964935
v 0.04576978 -0.05386778 0.06877466
v 0.04665409 -0.05332124 0.06911244
v 0.04610065 -0.05417557 0.06912362
v 0.04577573 -0.05332492 0.06859789
v 0.04662638 -0.05385065 0.06932443
v 0.04576978 -0.03213222 0.06877466
v 0.04665409 -0.03267876 0.06911244
v 0.04610065 -0.03182443 0.06912362
v 0.04577573 -0.03267508 0.06859789
v 0.04662638 -0.03214935 0.06932443
v 0.04630146 -0.04300000 0.06879870
v 0.04663756 -0.03159591 0.10182124
v 0.04697534 -0.03248022 0.10236778
v 0.04642557 -0.03162362 0.10235065
v 0.04695130 -0.03194854 0.08600000
v 0.04663756 -0.05440409 0.10182124
v 0.04697534 -0.05351978 0.10236778
v 0.04642557 -0.05437638 0.10235065
v 0.04695130 -0.05405146 0.08600000
v 0.04576978 -0.05386778 0.10322534
v 0.04665409 -0.05332124 0.10288756
v 0.04610065 -0.05417557 0.10287638
v 0.04577573 -0.05332492 0.10340211
v 0.04662638 -0.05385065 0.10267557
v 0.04576978 -0.03213222 0.10322534
v 0.04665409 -0.03267876 0.10288756
v 0.04610065 -0.03182443 0.10287638
v 0.04577573 -0.03267508 0.10340211
v 0.04662638 -0.03214935 0.10267557
v 0.04630146 -0.04300000 0.10320130
v 0.04717388 -0.04300000 0.06995347
v 0.04717388 -0.04300000 0.10204653
v 0.04715211 -0.03247427 0.07017508
v 0.04715211 -0.05352573 0.07017508
v 0.04715211 -0.03247427 0.10182492
v 0.04715211 -0.05352573 0.10182492
v 0.04336244 -0.03159591 0.07017876
v 0.04302466 -0.03248022 0.06963222
v 0.04357443 -0.03162362 0.06964935
v 0.04336244 -0.05440409 0.07017876
v 0.04302466 -0.05351978 0.06963222
v 0.04357443 -0.05437638 0.06964935
v 0.04423022 -0.05386778 0.06877466
v 0.04334591 -0.05332124 0.06911244
v 0.04389935 -0.05417557 0.06912362
v 0.04422427 -0.05332492 0.06859789
v 0.04337362 -0.05385065 0.06932443
v 0.04423022 -0.03213222 0.06877466
v 0.04334591 -0.03267876 0.06911244
v 0.04389935 -0.03182443 0.06912362
v 0.04422427 -0.03267508 0.06859789
v 0.04337362 -0.03214935 0.06932443
v 0.04369854 -0.04300000 0.06879870
v 0.04336244 -0.03159591 0.10182124
v 0.04302466 -0.03248022 0.10236778
v 0.04357443 -0.03162362 0.10235065
v 0.04304870 -0.03194854 0.08600000
v 0.04336244 -0.05440409 0.10182124
v 0.04302466 -0.05351978 0.10236778
v 0.04357443 -0.05437638 0.10235065
v 0.04304870 -0.05405146 0.08600000
v 0.04423022 -0.05386778 0.10322534
v 0.04334591 -0.05332124 0.10288756
v 0.04389935 -0.05417557 0.10287638
v 0.04422427 -0.05332492 0.10340211
v 0.04337362 -0.05385065 0.10267557
v 0.04423022 -0.03213222 0.10322534
v 0.04334591 -0.03267876 0.10288756
v 0.04389935 -0.03182443 0.10287638
v 0.04422427 -0.03267508 0.10340211
v 0.04337362 -0.03214935 0.10267557
v 0.04369854 -0.04300000 0.10320130
v 0.04282612 -0.04300000 0.06995347
v 0.04282612 -0.04300000 0.10204653
v 0.04284789 -0.03247427 0.07017508
v 0.04284789 -0.05352573 0.07017508
v 0.04284789 -0.03247427 0.10182492
v 0.04284789 -0.05352573 0.10182492
f 157 160 42
f 120 118 33
f 33 118 115
f 42 160 162
f 160 145 162
f 116 120 33
f 45 65 14
f 42 162 158
f 118 120 103
f 4 46 66
f 14 46 52
f 124 145 160
f 160 35 124
f 130 128 137
f 19 61 107
f 114 107 105
f 149 61 19
f 147 149 156
f 118 103 82
f 4 66 82
f 83 115 118
f 83 9 115
f 86 88 95
f 86 83 89
f 9 83 86
f 3 124 63
f 65 45 63
f 45 3 63
f 36 130 127
f 128 130 36
f 125 35 160
f 11 128 125
f 160 157 125
f 157 11 125
f 142 162 145
f 145 124 142
f 142 124 3
f 33 115 117
f 159 157 42
f 84 87 89
f 84 82 66
f 66 21 84
f 84 21 87
f 89 87 27
f 27 86 89
f 88 86 27
f 126 124 35
f 126 63 124
f 88 27 85
f 85 27 87
f 24 88 77
f 77 130 24
f 88 85 77
f 77 85 7
f 127 130 77
f 77 7 127
f 68 21 66
f 68 66 46
f 14 65 68
f 68 46 14
f 127 7 64
f 104 107 61
f 101 10 105
f 120 116 101
f 116 10 101
f 147 12 143
f 143 158 162
f 143 12 158
f 93 88 24
f 95 88 93
f 154 149 19
f 156 149 154
f 89 83 26
f 82 84 26
f 26 84 89
f 118 82 26
f 26 83 118
f 35 125 131
f 131 126 35
f 131 125 128
f 128 36 131
f 67 64 7
f 87 21 67
f 67 85 87
f 7 85 67
f 63 126 20
f 65 63 20
f 61 149 146
f 51 48 53
f 16 53 52
f 51 53 16
f 106 104 51
f 51 16 106
f 106 16 102
f 100 103 120
f 4 82 100
f 100 82 103
f 13 44 75
f 44 73 75
f 19 107 112
f 112 107 114
f 156 154 152
f 152 147 156
f 152 12 147
f 79 99 117
f 117 25 79
f 127 64 129
f 126 131 129
f 129 20 126
f 64 20 129
f 129 36 127
f 129 131 36
f 69 68 65
f 64 67 69
f 65 20 69
f 69 20 64
f 21 68 69
f 69 67 21
f 51 104 5
f 5 104 61
f 5 48 51
f 5 146 48
f 61 146 5
f 147 143 150
f 47 3 45
f 47 142 3
f 104 106 31
f 31 105 107
f 107 104 31
f 108 101 105
f 108 106 102
f 105 31 108
f 108 31 106
f 50 100 102
f 50 16 52
f 102 16 50
f 4 100 50
f 50 46 4
f 50 52 46
f 78 93 24
f 115 9 80
f 80 117 115
f 80 25 117
f 94 25 80
f 93 78 90
f 72 75 76
f 76 22 72
f 72 22 70
f 13 75 72
f 62 154 19
f 19 112 62
f 110 112 114
f 114 105 110
f 105 10 110
f 158 12 139
f 12 152 139
f 70 22 123
f 123 22 134
f 137 128 133
f 133 128 11
f 13 72 43
f 70 1 43
f 43 72 70
f 121 1 70
f 70 123 121
f 121 123 34
f 159 141 121
f 121 34 159
f 81 25 94
f 81 79 25
f 73 79 81
f 39 150 143
f 162 142 39
f 39 143 162
f 147 150 40
f 149 147 40
f 40 146 149
f 48 146 148
f 146 40 148
f 148 40 150
f 52 53 49
f 49 47 45
f 49 45 14
f 14 52 49
f 102 100 30
f 101 108 30
f 30 108 102
f 120 101 30
f 30 100 120
f 71 22 76
f 134 22 71
f 91 80 9
f 91 86 95
f 9 86 91
f 94 80 91
f 95 93 91
f 97 10 116
f 97 110 10
f 158 139 161
f 42 158 161
f 161 159 42
f 161 141 159
f 41 152 154
f 154 62 151
f 151 41 154
f 153 41 151
f 140 153 17
f 122 133 11
f 122 11 157
f 157 159 122
f 159 34 122
f 134 71 132
f 92 81 94
f 48 148 15
f 47 49 15
f 15 53 48
f 15 49 53
f 142 47 144
f 144 148 150
f 144 39 142
f 150 39 144
f 47 15 144
f 144 15 148
f 109 62 112
f 13 43 56
f 119 97 116
f 119 116 33
f 33 117 119
f 117 99 119
f 17 153 55
f 153 151 55
f 38 161 139
f 155 139 152
f 153 140 155
f 152 41 155
f 155 41 153
f 155 38 139
f 140 38 155
f 136 123 134
f 133 122 136
f 34 123 136
f 136 122 34
f 135 132 78
f 135 130 137
f 137 133 135
f 24 130 135
f 135 78 24
f 8 90 78
f 8 132 71
f 78 132 8
f 94 91 28
f 90 92 28
f 28 92 94
f 93 90 28
f 28 91 93
f 54 140 17
f 17 56 54
f 54 43 1
f 54 56 43
f 60 56 17
f 17 55 60
f 60 55 58
f 62 109 6
f 6 151 62
f 6 109 58
f 6 55 151
f 58 55 6
f 134 132 37
f 133 136 37
f 37 136 134
f 37 135 133
f 132 135 37
f 74 92 90
f 90 8 74
f 74 71 76
f 74 8 71
f 58 109 111
f 97 119 29
f 2 73 44
f 2 79 73
f 138 38 140
f 140 54 138
f 138 54 1
f 138 121 141
f 1 121 138
f 141 161 138
f 161 38 138
f 18 60 58
f 18 111 98
f 58 111 18
f 76 75 23
f 23 74 76
f 23 75 73
f 81 92 23
f 73 81 23
f 92 74 23
f 32 111 109
f 112 110 32
f 32 109 112
f 110 97 113
f 98 111 113
f 97 29 113
f 113 29 98
f 113 32 110
f 111 32 113
f 98 29 96
f 96 119 99
f 96 29 119
f 99 79 96
f 79 2 96
f 56 60 59
f 60 18 59
f 59 44 13
f 13 56 59
f 98 96 57
f 57 18 98
f 57 59 18
f 57 96 2
f 57 2 44
f 44 59 57

