# https://github.com/mikedh/trimesh
v 0.02821696 -0.03064284 0.08600000
v 0.04178304 -0.03064284 0.08600000
v 0.02821696 -0.05535716 0.08600000
v 0.04178304 -0.05535716 0.08600000
v 0.03500000 -0.05178304 0.10985716
v 0.03500000 -0.03421696 0.10985716
v 0.03500000 -0.05178304 0.06214284
v 0.03500000 -0.03421696 0.06214284
v 0.04535716 -0.04300000 0.06571696
v 0.04535716 -0.04300000 0.10628304
v 0.02464284 -0.04300000 0.06571696
v 0.02464284 -0.04300000 0.10628304
v 0.03500000 -0.02900000 0.08600000
v 0.03500000 -0.05700000 0.08600000
v 0.03060081 -0.05489919 0.10600000
v 0.03939919 -0.05489919 0.10600000
v 0.03060081 -0.03110081 0.10600000
v 0.03939919 -0.03110081 0.10600000
v 0.03500000 -0.04300000 0.11150000
v 0.03060081 -0.05489919 0.06600000
v 0.03939919 -0.05489919 0.06600000
v 0.03060081 -0.03110081 0.06600000
v 0.03939919 -0.03110081 0.06600000
v 0.03500000 -0.04300000 0.06050000
v 0.04489919 -0.03450000 0.06810081
v 0.04489919 -0.05150000 0.06810081
v 0.04150000 -0.04939919 0.06260081
v 0.04150000 -0.03660081 0.06260081
v 0.04489919 -0.03450000 0.10389919
v 0.04489919 -0.05150000 0.10389919
v 0.04150000 -0.04939919 0.10939919
v 0.04150000 -0.03660081 0.10939919
v 0.04700000 -0.04300000 0.08600000
v 0.02510081 -0.03450000 0.06810081
v 0.02510081 -0.05150000 0.06810081
v 0.02850000 -0.04939919 0.06260081
v 0.02850000 -0.03660081 0.06260081
v 0.02510081 -0.03450000 0.10389919
v 0.02510081 -0.05150000 0.10389919
v 0.02850000 -0.04939919 0.10939919
v 0.02850000 -0.03660081 0.10939919
v 0.02300000 -0.04300000 0.08600000
v 0.03099407 -0.02941868 0.08600000
v 0.03900593 -0.02941868 0.08600000
v 0.03099407 -0.05658132 0.08600000
v 0.03900593 -0.05658132 0.08600000
v 0.02922723 -0.05548935 0.10335881
v 0.03223316 -0.05363159 0.10822251
v 0.03221294 -0.05646162 0.10339152
v 0.04077277 -0.05548935 0.10335881
v 0.03776684 -0.05363159 0.10822251
v 0.03778706 -0.05646162 0.10339152
v 0.03500000 -0.05535716 0.10628304
v 0.02922723 -0.03051065 0.10335881
v 0.03223316 -0.03236841 0.10822251
v 0.03221294 -0.02953838 0.10339152
v 0.04077277 -0.03051065 0.10335881
v 0.03776684 -0.03236841 0.10822251
v 0.03778706 -0.02953838 0.10339152
v 0.03500000 -0.03064284 0.10628304
v 0.03500000 -0.04900593 0.11108132
v 0.03500000 -0.03699407 0.11108132
v 0.02922723 -0.05548935 0.06864119
v 0.03223316 -0.05363159 0.06377749
v 0.03221294 -0.05646162 0.06860848
v 0.04077277 -0.05548935 0.06864119
v 0.03776684 -0.05363159 0.06377749
v 0.03778706 -0.05646162 0.06860848
v 0.03500000 -0.05535716 0.06571696
v 0.02922723 -0.03051065 0.06864119
v 0.03223316 -0.03236841 0.06377749
v 0.03221294 -0.02953838 0.06860848
v 0.04077277 -0.03051065 0.06864119
v 0.03776684 -0.03236841 0.06377749
v 0.03778706 -0.02953838 0.06860848
v 0.03500000 -0.03064284 0.06571696
v 0.03500000 -0.04900593 0.06091868
v 0.03500000 -0.03699407 0.06091868
v 0.04363159 -0.03227749 0.06973316
v 0.04548935 -0.03714119 0.06672723
v 0.04246564 -0.03242990 0.06682142
v 0.04363159 -0.05372251 0.06973316
v 0.04548935 -0.04885881 0.06672723
v 0.04246564 -0.05357010 0.06682142
v 0.03885881 -0.05077277 0.06201065
v 0.04372251 -0.04776684 0.06386841
v 0.04067858 -0.05246564 0.06392990
v 0.03889152 -0.04778706 0.06103838
v 0.04357010 -0.05067858 0.06503436
v 0.03885881 -0.03522723 0.06201065
v 0.04372251 -0.03823316 0.06386841
v 0.04067858 -0.03353436 0.06392990
v 0.03889152 -0.03821294 0.06103838
v 0.04357010 -0.03532142 0.06503436
v 0.04178304 -0.04300000 0.06214284
v 0.04363159 -0.03227749 0.10226684
v 0.04548935 -0.03714119 0.10527277
v 0.04246564 -0.03242990 0.10517858
v 0.04535716 -0.03421696 0.08600000
v 0.04363159 -0.05372251 0.10226684
v 0.04548935 -0.04885881 0.10527277
v 0.04246564 -0.05357010 0.10517858
v 0.04535716 -0.05178304 0.08600000
v 0.03885881 -0.05077277 0.10998935
v 0.04372251 -0.04776684 0.10813159
v 0.04067858 -0.05246564 0.10807010
v 0.03889152 -0.04778706 0.11096162
v 0.04357010 -0.05067858 0.10696564
v 0.03885881 -0.03522723 0.10998935
v 0.04372251 -0.03823316 0.10813159
v 0.04067858 -0.03353436 0.10807010
v 0.03889152 -0.03821294 0.11096162
v 0.04357010 -0.03532142 0.10696564
v 0.04178304 -0.04300000 0.10985716
v 0.04658132 -0.04300000 0.06849407
v 0.04658132 -0.04300000 0.10350593
v 0.04646162 -0.03710848 0.06971294
v 0.04646162 -0.04889152 0.06971294
v 0.04646162 -0.03710848 0.10228706
v 0.04646162 -0.04889152 0.10228706
v 0.02636841 -0.03227749 0.06973316
v 0.02451065 -0.03714119 0.06672723
v 0.02753436 -0.03242990 0.06682142
v 0.02636841 -0.05372251 0.06973316
v 0.02451065 -0.04885881 0.06672723
v 0.02753436 -0.05357010 0.06682142
v 0.03114119 -0.05077277 0.06201065
v 0.02627749 -0.04776684 0.06386841
v 0.02932142 -0.05246564 0.06392990
v 0.03110848 -0.04778706 0.06103838
v 0.02642990 -0.05067858 0.06503436
v 0.03114119 -0.03522723 0.06201065
v 0.02627749 -0.03823316 0.06386841
v 0.02932142 -0.03353436 0.06392990
v 0.03110848 -0.03821294 0.06103838
v 0.02642990 -0.03532142 0.06503436
v 0.02821696 -0.04300000 0.06214284
v 0.02636841 -0.03227749 0.10226684
v 0.02451065 -0.03714119 0.10527277
v 0.02753436 -0.03242990 0.10517858
v 0.02464284 -0.03421696 0.08600000
v 0.02636841 -0.05372251 0.10226684
v 0.02451065 -0.04885881 0.10527277
v 0.02753436 -0.05357010 0.10517858
v 0.02464284 -0.05178304 0.08600000
v 0.03114119 -0.05077277 0.10998935
v 0.02627749 -0.04776684 0.10813159
v 0.02932142 -0.05246564 0.10807010
v 0.03110848 -0.04778706 0.11096162
v 0.02642990 -0.05067858 0.10696564
v 0.03114119 -0.03522723 0.10998935
v 0.02627749 -0.03823316 0.10813159
v 0.02932142 -0.03353436 0.10807010
v 0.03110848 -0.03821294 0.11096162
v 0.02642990 -0.03532142 0.10696564
v 0.02821696 -0.04300000 0.10985716
v 0.02341868 -0.04300000 0.06849407
v 0.02341868 -0.04300000 0.10350593
v 0.02353838 -0.03710848 0.06971294
v 0.02353838 -0.04889152 0.06971294
v 0.02353838 -0.03710848 0.10228706
v 0.02353838 -0.04889152 0.10228706
f 35 145 160
f 157 160 42
f 118 103 26
f 42 160 162
f 162 145 39
f 162 160 145
f 120 118 33
f 30 103 120
f 103 118 120
f 35 160 125
f 125 157 11
f 160 157 125
f 83 118 26
f 14 65 68
f 100 103 30
f 30 120 101
f 33 118 115
f 115 83 9
f 118 83 115
f 45 63 65
f 45 65 14
f 63 45 3
f 3 45 47
f 128 125 11
f 128 137 36
f 159 157 42
f 9 83 86
f 36 137 130
f 66 68 21
f 21 84 66
f 103 100 82
f 26 103 82
f 82 84 26
f 66 84 82
f 14 68 46
f 46 68 66
f 65 63 20
f 63 126 20
f 146 148 48
f 5 146 48
f 61 146 5
f 108 101 105
f 105 31 108
f 108 31 106
f 30 101 108
f 105 101 10
f 143 162 39
f 143 147 12
f 124 145 35
f 63 3 124
f 35 126 124
f 124 126 63
f 39 145 142
f 142 3 47
f 145 124 142
f 142 124 3
f 47 144 142
f 142 144 39
f 125 128 131
f 35 125 131
f 131 126 35
f 131 128 36
f 137 37 135
f 135 130 137
f 135 78 24
f 24 130 135
f 122 159 34
f 11 157 122
f 157 159 122
f 89 86 83
f 89 83 26
f 26 84 89
f 27 86 89
f 77 130 24
f 24 88 77
f 95 86 27
f 27 88 95
f 4 82 100
f 66 82 4
f 4 46 66
f 36 130 127
f 127 77 7
f 130 77 127
f 152 139 12
f 152 156 41
f 12 147 152
f 147 156 152
f 155 152 41
f 139 152 155
f 12 139 158
f 158 143 12
f 162 143 158
f 42 162 158
f 19 61 107
f 107 112 19
f 109 111 58
f 62 112 109
f 19 112 62
f 110 10 97
f 105 10 110
f 72 70 43
f 72 43 13
f 13 75 72
f 22 70 72
f 148 146 40
f 40 156 147
f 106 16 102
f 102 108 106
f 102 100 30
f 30 108 102
f 14 46 52
f 51 16 106
f 51 5 48
f 116 101 120
f 116 10 101
f 116 120 33
f 33 119 116
f 116 119 97
f 97 10 116
f 99 119 117
f 117 25 99
f 117 119 33
f 33 115 117
f 94 28 92
f 149 146 61
f 149 61 19
f 149 40 146
f 156 40 149
f 150 144 148
f 147 143 150
f 148 40 150
f 150 40 147
f 39 144 150
f 150 143 39
f 22 72 76
f 76 72 75
f 92 28 90
f 78 8 90
f 123 70 22
f 22 134 123
f 71 134 22
f 22 76 71
f 132 8 78
f 78 135 132
f 132 71 8
f 134 71 132
f 37 134 132
f 132 135 37
f 11 122 133
f 133 37 137
f 133 128 11
f 137 128 133
f 27 89 87
f 87 89 84
f 84 21 87
f 21 67 87
f 65 20 69
f 69 68 65
f 69 21 68
f 69 67 21
f 64 127 7
f 64 69 20
f 7 67 64
f 67 69 64
f 41 151 153
f 153 155 41
f 34 159 141
f 61 5 104
f 104 107 61
f 5 51 104
f 104 51 106
f 106 31 104
f 31 107 104
f 17 153 55
f 55 153 151
f 113 110 97
f 109 112 32
f 32 111 109
f 110 113 32
f 32 113 111
f 112 107 114
f 105 110 114
f 114 31 105
f 114 107 31
f 114 32 112
f 110 32 114
f 47 45 49
f 49 45 14
f 14 52 49
f 50 102 16
f 16 52 50
f 100 102 50
f 50 4 100
f 46 4 50
f 50 52 46
f 2 57 96
f 25 94 81
f 81 94 92
f 28 94 91
f 91 95 28
f 9 86 91
f 86 95 91
f 25 117 80
f 80 94 25
f 80 91 94
f 9 91 80
f 80 115 9
f 80 117 115
f 19 62 154
f 154 149 19
f 154 62 151
f 156 149 154
f 154 151 41
f 41 156 154
f 92 90 74
f 74 90 8
f 8 71 74
f 74 71 76
f 28 95 93
f 93 90 28
f 93 95 88
f 78 90 93
f 24 78 93
f 93 88 24
f 136 123 134
f 136 133 122
f 136 122 34
f 34 123 136
f 136 134 37
f 37 133 136
f 85 88 27
f 27 87 85
f 85 87 67
f 85 67 7
f 7 77 85
f 85 77 88
f 129 20 126
f 129 64 20
f 126 131 129
f 127 64 129
f 129 131 36
f 36 127 129
f 34 141 121
f 121 123 34
f 70 123 121
f 121 141 138
f 161 141 159
f 161 158 139
f 161 159 42
f 42 158 161
f 140 54 138
f 155 153 140
f 140 153 17
f 17 54 140
f 6 62 109
f 109 58 6
f 151 62 6
f 58 55 6
f 6 55 151
f 29 113 97
f 97 119 29
f 29 119 99
f 99 96 29
f 18 58 111
f 59 18 57
f 111 113 98
f 96 57 98
f 98 29 96
f 113 29 98
f 98 18 111
f 57 18 98
f 47 49 15
f 48 148 15
f 15 144 47
f 148 144 15
f 53 51 48
f 53 49 52
f 53 52 16
f 16 51 53
f 48 15 53
f 53 15 49
f 79 81 73
f 25 81 79
f 73 2 79
f 99 25 79
f 79 96 99
f 79 2 96
f 23 76 75
f 23 74 76
f 75 73 23
f 73 81 23
f 23 81 92
f 92 74 23
f 1 54 43
f 43 70 1
f 138 54 1
f 1 121 138
f 70 121 1
f 138 141 38
f 141 161 38
f 38 161 139
f 139 155 38
f 38 140 138
f 155 140 38
f 57 2 44
f 44 59 57
f 44 73 75
f 44 2 73
f 44 75 13
f 13 59 44
f 56 54 17
f 43 54 56
f 13 43 56
f 56 59 13
f 58 18 60
f 18 59 60
f 60 55 58
f 59 56 60
f 17 55 60
f 60 56 17

