# https://github.com/mikedh/trimesh
v -0.01007961 -0.04804811 0.08600000
v 0.00358840 -0.07172180 0.08600000
v -0.01128418 -0.04874357 0.08600000
v 0.00238384 -0.07241726 0.08600000
v -0.00425320 -0.06046669 0.10139546
v -0.00344258 -0.05999868 0.10139546
v -0.00425320 -0.06046669 0.07060454
v -0.00344258 -0.05999868 0.07060454
v 0.00309984 -0.07226650 0.07083199
v 0.00309984 -0.07226650 0.10116801
v -0.01079562 -0.04819887 0.07083199
v -0.01079562 -0.04819887 0.10116801
v -0.00315507 -0.05983269 0.08600000
v -0.00454071 -0.06063269 0.08600000
v -0.01118309 -0.04886037 0.10115000
v 0.00233323 -0.07227131 0.10115000
v -0.01002900 -0.04819406 0.10115000
v 0.00348731 -0.07160500 0.10115000
v -0.00384789 -0.06023269 0.10150000
v -0.01118309 -0.04886037 0.07085000
v 0.00233323 -0.07227131 0.07085000
v -0.01002900 -0.04819406 0.07085000
v 0.00348731 -0.07160500 0.07085000
v -0.00384789 -0.06023269 0.07050000
v 0.00347498 -0.07201626 0.07098369
v 0.00269556 -0.07246626 0.07098369
v 0.00270318 -0.07221209 0.07063369
v 0.00325105 -0.07189578 0.07063369
v 0.00347498 -0.07201626 0.10101631
v 0.00269556 -0.07246626 0.10101631
v 0.00270318 -0.07221209 0.10136631
v 0.00325105 -0.07189578 0.10136631
v 0.00315211 -0.07235704 0.08600000
v -0.01039133 -0.04799911 0.07098369
v -0.01117075 -0.04844911 0.07098369
v -0.01094682 -0.04856960 0.07063369
v -0.01039895 -0.04825328 0.07063369
v -0.01039133 -0.04799911 0.10101631
v -0.01117075 -0.04844911 0.10101631
v -0.01094682 -0.04856960 0.10136631
v -0.01039895 -0.04825328 0.10136631
v -0.01084789 -0.04810833 0.08600000
v -0.00992378 -0.04816221 0.08600000
v 0.00356750 -0.07152980 0.08600000
v -0.01126328 -0.04893557 0.08600000
v 0.00222801 -0.07230316 0.08600000
v -0.01125932 -0.04880345 0.10098192
v -0.01106129 -0.04891000 0.10129143
v -0.01121790 -0.04899893 0.10098401
v 0.00234441 -0.07236579 0.10098192
v 0.00235115 -0.07214102 0.10129143
v 0.00219582 -0.07223218 0.10098401
v -0.00445017 -0.06058041 0.10116801
v -0.01004018 -0.04809958 0.10098192
v -0.01004692 -0.04832435 0.10129143
v -0.00989160 -0.04823319 0.10098401
v 0.00356354 -0.07166192 0.10098192
v 0.00336551 -0.07155537 0.10129143
v 0.00352212 -0.07146644 0.10098401
v -0.00324561 -0.05988496 0.10116801
v -0.00410015 -0.06037833 0.10147336
v -0.00359563 -0.06008704 0.10147336
v -0.01125932 -0.04880345 0.07101808
v -0.01106129 -0.04891000 0.07070857
v -0.01121790 -0.04899893 0.07101599
v 0.00234441 -0.07236579 0.07101808
v 0.00235115 -0.07214102 0.07070857
v 0.00219582 -0.07223218 0.07101599
v -0.00445017 -0.06058041 0.07083199
v -0.01004018 -0.04809958 0.07101808
v -0.01004692 -0.04832435 0.07070857
v -0.00989160 -0.04823319 0.07101599
v 0.00356354 -0.07166192 0.07101808
v 0.00336551 -0.07155537 0.07070857
v 0.00352212 -0.07146644 0.07101599
v -0.00324561 -0.05988496 0.07083199
v -0.00410015 -0.06037833 0.07052664
v -0.00359563 -0.06008704 0.07052664
v 0.00355713 -0.07187569 0.07108756
v 0.00334820 -0.07213283 0.07089628
v 0.00351163 -0.07181628 0.07090227
v 0.00253274 -0.07246712 0.07108756
v 0.00285989 -0.07241475 0.07089628
v 0.00250404 -0.07239802 0.07090227
v 0.00254344 -0.07211024 0.07059613
v 0.00286385 -0.07228263 0.07071435
v 0.00250805 -0.07226439 0.07071827
v 0.00270903 -0.07201704 0.07053426
v 0.00269854 -0.07236688 0.07078855
v 0.00324271 -0.07170651 0.07059613
v 0.00323180 -0.07207020 0.07071435
v 0.00339390 -0.07175294 0.07071827
v 0.00307920 -0.07180332 0.07053426
v 0.00338742 -0.07196915 0.07078855
v 0.00298612 -0.07206953 0.07060454
v 0.00355713 -0.07187569 0.10091244
v 0.00334820 -0.07213283 0.10110372
v 0.00351163 -0.07181628 0.10109773
v 0.00350515 -0.07203250 0.08600000
v 0.00253274 -0.07246712 0.10091244
v 0.00285989 -0.07241475 0.10110372
v 0.00250404 -0.07239802 0.10109773
v 0.00269453 -0.07250051 0.08600000
v 0.00254344 -0.07211024 0.10140387
v 0.00286385 -0.07228263 0.10128565
v 0.00250805 -0.07226439 0.10128173
v 0.00270903 -0.07201704 0.10146574
v 0.00269854 -0.07236688 0.10121145
v 0.00324271 -0.07170651 0.10140387
v 0.00323180 -0.07207020 0.10128565
v 0.00339390 -0.07175294 0.10128173
v 0.00307920 -0.07180332 0.10146574
v 0.00338742 -0.07196915 0.10121145
v 0.00298612 -0.07206953 0.10139546
v 0.00313879 -0.07233397 0.07100871
v 0.00313879 -0.07233397 0.10099129
v 0.00338094 -0.07218537 0.07108628
v 0.00288903 -0.07246937 0.07108628
v 0.00338094 -0.07218537 0.10091372
v 0.00288903 -0.07246937 0.10091372
v -0.01022852 -0.04799825 0.07108756
v -0.01055567 -0.04805062 0.07089628
v -0.01019982 -0.04806736 0.07090227
v -0.01125291 -0.04858968 0.07108756
v -0.01104398 -0.04833255 0.07089628
v -0.01120741 -0.04864909 0.07090227
v -0.01093848 -0.04875886 0.07059613
v -0.01092758 -0.04839517 0.07071435
v -0.01108968 -0.04871243 0.07071827
v -0.01077498 -0.04866206 0.07053426
v -0.01108320 -0.04849622 0.07078855
v -0.01023922 -0.04835514 0.07059613
v -0.01055963 -0.04818274 0.07071435
v -0.01020382 -0.04820098 0.07071827
v -0.01040480 -0.04844833 0.07053426
v -0.01039431 -0.04809849 0.07078855
v -0.01068189 -0.04839584 0.07060454
v -0.01022852 -0.04799825 0.10091244
v -0.01055567 -0.04805062 0.10110372
v -0.01019982 -0.04806736 0.10109773
v -0.01039031 -0.04796486 0.08600000
v -0.01125291 -0.04858968 0.10091244
v -0.01104398 -0.04833255 0.10110372
v -0.01120741 -0.04864909 0.10109773
v -0.01120093 -0.04843287 0.08600000
v -0.01093848 -0.04875886 0.10140387
v -0.01092758 -0.04839517 0.10128565
v -0.01108968 -0.04871243 0.10128173
v -0.01077498 -0.04866206 0.10146574
v -0.01108320 -0.04849622 0.10121145
v -0.01023922 -0.04835514 0.10140387
v -0.01055963 -0.04818274 0.10128565
v -0.01020382 -0.04820098 0.10128173
v -0.01040480 -0.04844833 0.10146574
v -0.01039431 -0.04809849 0.10121145
v -0.01068189 -0.04839584 0.10139546
v -0.01083457 -0.04813140 0.07100871
v -0.01083457 -0.04813140 0.10099129
v -0.01058480 -0.04799600 0.07108628
v -0.01107671 -0.04828000 0.07108628
v -0.01058480 -0.04799600 0.10091372
v -0.01107671 -0.04828000 0.10091372
f 14 65 68
f 45 65 14
f 69 68 65
f 49 45 14
f 14 52 49
f 65 45 63
f 64 69 65
f 77 130 24
f 24 88 77
f 68 69 67
f 67 64 7
f 69 64 67
f 45 49 47
f 53 49 52
f 157 160 42
f 51 53 52
f 24 130 135
f 14 68 46
f 46 52 14
f 103 120 100
f 100 82 103
f 4 82 100
f 103 82 118
f 33 120 118
f 118 120 103
f 7 64 127
f 127 77 7
f 130 77 127
f 124 160 35
f 126 63 124
f 124 35 126
f 126 35 131
f 85 67 7
f 7 77 85
f 85 77 88
f 88 27 85
f 66 82 4
f 66 46 68
f 4 46 66
f 124 63 3
f 3 63 45
f 45 47 3
f 61 146 5
f 61 107 19
f 159 157 42
f 42 161 159
f 19 107 112
f 5 51 104
f 104 61 5
f 107 61 104
f 42 160 162
f 54 56 43
f 117 119 33
f 57 96 2
f 2 96 79
f 95 27 88
f 16 51 52
f 133 128 11
f 131 128 36
f 130 127 36
f 125 35 160
f 131 35 125
f 125 128 131
f 11 128 125
f 125 157 11
f 160 157 125
f 63 126 20
f 65 63 20
f 20 64 65
f 129 127 64
f 129 126 131
f 131 36 129
f 129 36 127
f 64 20 129
f 129 20 126
f 26 118 82
f 26 83 118
f 146 148 48
f 5 146 48
f 49 53 48
f 48 51 5
f 53 51 48
f 141 159 161
f 98 96 57
f 116 120 33
f 33 119 116
f 114 112 107
f 120 116 101
f 101 116 10
f 144 148 150
f 124 3 142
f 47 144 142
f 142 3 47
f 150 148 40
f 40 148 146
f 149 61 19
f 146 61 149
f 149 40 146
f 40 149 156
f 79 117 25
f 25 117 80
f 33 118 115
f 115 117 33
f 115 83 9
f 118 83 115
f 9 80 115
f 80 117 115
f 99 96 119
f 79 96 99
f 119 117 99
f 99 117 79
f 73 2 79
f 57 2 44
f 44 59 57
f 44 73 75
f 2 73 44
f 24 135 78
f 91 80 9
f 93 95 88
f 93 88 24
f 24 78 93
f 50 16 52
f 4 100 50
f 52 46 50
f 50 46 4
f 9 83 86
f 27 95 86
f 86 91 9
f 95 91 86
f 137 135 130
f 128 133 137
f 130 36 137
f 137 36 128
f 82 66 84
f 84 26 82
f 138 141 161
f 119 96 29
f 96 98 29
f 111 58 109
f 15 48 148
f 148 144 15
f 15 144 47
f 15 47 49
f 49 48 15
f 162 142 39
f 39 144 150
f 39 142 144
f 145 162 160
f 145 160 124
f 145 142 162
f 124 142 145
f 152 139 12
f 152 156 41
f 19 112 62
f 62 112 109
f 94 25 80
f 80 91 94
f 75 73 23
f 13 43 56
f 56 59 13
f 59 44 13
f 72 43 13
f 13 75 72
f 13 44 75
f 132 71 8
f 132 78 135
f 8 78 132
f 72 75 76
f 76 71 72
f 92 94 28
f 28 94 91
f 28 91 95
f 95 93 28
f 21 84 66
f 68 67 21
f 21 66 68
f 67 85 87
f 87 21 67
f 84 21 87
f 87 85 27
f 161 139 38
f 38 138 161
f 54 43 1
f 1 138 54
f 119 29 97
f 97 116 119
f 10 116 97
f 18 98 57
f 18 111 98
f 58 111 18
f 18 59 58
f 57 59 18
f 106 104 51
f 51 16 106
f 101 108 30
f 30 100 120
f 120 101 30
f 107 104 31
f 31 114 107
f 31 106 108
f 104 106 31
f 105 101 10
f 105 108 101
f 105 31 108
f 114 31 105
f 143 39 150
f 162 39 143
f 147 156 152
f 152 12 147
f 40 156 147
f 150 40 147
f 147 143 150
f 12 143 147
f 158 139 161
f 158 12 139
f 158 161 42
f 42 162 158
f 162 143 158
f 158 143 12
f 60 59 56
f 58 59 60
f 60 55 58
f 56 55 60
f 154 41 156
f 151 41 154
f 154 156 149
f 154 62 151
f 154 149 19
f 19 62 154
f 151 55 153
f 153 41 151
f 58 55 6
f 109 58 6
f 6 55 151
f 151 62 6
f 6 62 109
f 81 73 79
f 81 94 92
f 92 23 81
f 81 23 73
f 79 25 81
f 25 94 81
f 74 23 92
f 8 71 74
f 71 76 74
f 75 23 74
f 74 76 75
f 72 71 22
f 136 34 123
f 92 28 90
f 90 28 93
f 90 74 92
f 8 74 90
f 90 78 8
f 90 93 78
f 27 86 89
f 89 87 27
f 89 86 83
f 84 87 89
f 83 26 89
f 26 84 89
f 123 34 121
f 141 138 121
f 138 1 121
f 159 141 121
f 121 34 159
f 10 97 110
f 110 105 10
f 114 105 110
f 16 50 102
f 102 106 16
f 102 50 100
f 108 106 102
f 100 30 102
f 102 30 108
f 17 153 55
f 17 56 54
f 17 55 56
f 152 41 155
f 41 153 155
f 155 139 152
f 155 38 139
f 72 22 70
f 70 22 123
f 123 121 70
f 70 121 1
f 70 43 72
f 70 1 43
f 133 136 37
f 37 132 135
f 135 137 37
f 37 137 133
f 122 136 133
f 122 133 11
f 159 34 122
f 34 136 122
f 11 157 122
f 157 159 122
f 71 132 134
f 134 136 123
f 134 22 71
f 123 22 134
f 132 37 134
f 134 37 136
f 112 114 32
f 114 110 32
f 109 112 32
f 32 111 109
f 98 111 113
f 113 110 97
f 113 29 98
f 113 97 29
f 111 32 113
f 113 32 110
f 138 38 140
f 38 155 140
f 54 138 140
f 140 155 153
f 140 17 54
f 153 17 140

