# https://github.com/mikedh/trimesh
v 0.01397137 -0.08796537 0.08600000
v 0.01804453 -0.09502029 0.08600000
v 0.01247213 -0.08883096 0.08600000
v 0.01654529 -0.09588588 0.08600000
v 0.01476196 -0.09221220 0.08986559
v 0.01575470 -0.09163905 0.08986559
v 0.01476196 -0.09221220 0.08213441
v 0.01575470 -0.09163905 0.08213441
v 0.01744112 -0.09570633 0.08242684
v 0.01744112 -0.09570633 0.08957316
v 0.01307554 -0.08814492 0.08242684
v 0.01307554 -0.08814492 0.08957316
v 0.01612436 -0.09142563 0.08600000
v 0.01439230 -0.09242563 0.08600000
v 0.01260210 -0.08898114 0.08955000
v 0.01648022 -0.09569823 0.08955000
v 0.01403644 -0.08815302 0.08955000
v 0.01791456 -0.09487011 0.08955000
v 0.01525833 -0.09192563 0.09000000
v 0.01260210 -0.08898114 0.08245000
v 0.01648022 -0.09569823 0.08245000
v 0.01403644 -0.08815302 0.08245000
v 0.01791456 -0.09487011 0.08245000
v 0.01525833 -0.09192563 0.08200000
v 0.01789870 -0.09539888 0.08262188
v 0.01694607 -0.09594888 0.08262188
v 0.01695587 -0.09562209 0.08217188
v 0.01761079 -0.09524397 0.08217188
v 0.01789870 -0.09539888 0.08937812
v 0.01694607 -0.09594888 0.08937812
v 0.01695587 -0.09562209 0.08982812
v 0.01761079 -0.09524397 0.08982812
v 0.01750833 -0.09582274 0.08600000
v 0.01357059 -0.08790237 0.08262188
v 0.01261796 -0.08845237 0.08262188
v 0.01290587 -0.08860728 0.08217188
v 0.01356079 -0.08822917 0.08217188
v 0.01357059 -0.08790237 0.08937812
v 0.01261796 -0.08845237 0.08937812
v 0.01290587 -0.08860728 0.08982812
v 0.01356079 -0.08822917 0.08982812
v 0.01300833 -0.08802851 0.08600000
v 0.01417172 -0.08811207 0.08600000
v 0.01801766 -0.09477344 0.08600000
v 0.01249900 -0.08907782 0.08600000
v 0.01634494 -0.09573918 0.08600000
v 0.01250409 -0.08890795 0.08933390
v 0.01275870 -0.08904494 0.08973184
v 0.01255735 -0.08915928 0.08933658
v 0.01649459 -0.09581970 0.08933390
v 0.01650326 -0.09553071 0.08973184
v 0.01630356 -0.09564792 0.08933658
v 0.01450871 -0.09235842 0.08957316
v 0.01402207 -0.08803155 0.08933390
v 0.01401340 -0.08832054 0.08973184
v 0.01421310 -0.08820333 0.08933658
v 0.01801257 -0.09494330 0.08933390
v 0.01775796 -0.09480631 0.08973184
v 0.01795931 -0.09469197 0.08933658
v 0.01600795 -0.09149283 0.08957316
v 0.01495874 -0.09209860 0.08996574
v 0.01555792 -0.09175266 0.08996574
v 0.01250409 -0.08890795 0.08266610
v 0.01275870 -0.08904494 0.08226816
v 0.01255735 -0.08915928 0.08266342
v 0.01649459 -0.09581970 0.08266610
v 0.01650326 -0.09553071 0.08226816
v 0.01630356 -0.09564792 0.08266342
v 0.01450871 -0.09235842 0.08242684
v 0.01402207 -0.08803155 0.08266610
v 0.01401340 -0.08832054 0.08226816
v 0.01421310 -0.08820333 0.08266342
v 0.01801257 -0.09494330 0.08266610
v 0.01775796 -0.09480631 0.08226816
v 0.01795931 -0.09469197 0.08266342
v 0.01600795 -0.09149283 0.08242684
v 0.01495874 -0.09209860 0.08203426
v 0.01555792 -0.09175266 0.08203426
v 0.01800433 -0.09521814 0.08275544
v 0.01773570 -0.09554875 0.08250950
v 0.01794583 -0.09514176 0.08251721
v 0.01673674 -0.09594999 0.08275544
v 0.01715736 -0.09588265 0.08250950
v 0.01669984 -0.09586114 0.08251721
v 0.01675050 -0.09549113 0.08212360
v 0.01716246 -0.09571279 0.08227560
v 0.01670499 -0.09568933 0.08228063
v 0.01696339 -0.09537131 0.08204405
v 0.01694991 -0.09582111 0.08237099
v 0.01760007 -0.09500063 0.08212360
v 0.01758605 -0.09546823 0.08227560
v 0.01779446 -0.09506032 0.08228063
v 0.01738985 -0.09512509 0.08204405
v 0.01778613 -0.09533831 0.08237099
v 0.01729491 -0.09545308 0.08213441
v 0.01800433 -0.09521814 0.08924456
v 0.01773570 -0.09554875 0.08949050
v 0.01794583 -0.09514176 0.08948279
v 0.01793749 -0.09541975 0.08600000
v 0.01673674 -0.09594999 0.08924456
v 0.01715736 -0.09588265 0.08949050
v 0.01669984 -0.09586114 0.08948279
v 0.01694475 -0.09599291 0.08600000
v 0.01675050 -0.09549113 0.08987640
v 0.01716246 -0.09571279 0.08972440
v 0.01670499 -0.09568933 0.08971937
v 0.01696339 -0.09537131 0.08995595
v 0.01694991 -0.09582111 0.08962901
v 0.01760007 -0.09500063 0.08987640
v 0.01758605 -0.09546823 0.08972440
v 0.01779446 -0.09506032 0.08971937
v 0.01738985 -0.09512509 0.08995595
v 0.01778613 -0.09533831 0.08962901
v 0.01729491 -0.09545308 0.08986559
v 0.01749120 -0.09579307 0.08265406
v 0.01749120 -0.09579307 0.08934594
v 0.01777779 -0.09561630 0.08275379
v 0.01719482 -0.09595288 0.08275379
v 0.01777779 -0.09561630 0.08924621
v 0.01719482 -0.09595288 0.08924621
v 0.01377992 -0.08790127 0.08275544
v 0.01335930 -0.08796860 0.08250950
v 0.01381682 -0.08799012 0.08251721
v 0.01251234 -0.08863311 0.08275544
v 0.01278096 -0.08830250 0.08250950
v 0.01257083 -0.08870949 0.08251721
v 0.01291659 -0.08885062 0.08212360
v 0.01293061 -0.08838302 0.08227560
v 0.01272220 -0.08879093 0.08228063
v 0.01312681 -0.08872616 0.08204405
v 0.01273053 -0.08851294 0.08237099
v 0.01376616 -0.08836012 0.08212360
v 0.01335420 -0.08813846 0.08227560
v 0.01381167 -0.08816192 0.08228063
v 0.01355327 -0.08847994 0.08204405
v 0.01356676 -0.08803015 0.08237099
v 0.01322175 -0.08839817 0.08213441
v 0.01377992 -0.08790127 0.08924456
v 0.01335930 -0.08796860 0.08949050
v 0.01381682 -0.08799012 0.08948279
v 0.01357191 -0.08785834 0.08600000
v 0.01251234 -0.08863311 0.08924456
v 0.01278096 -0.08830250 0.08949050
v 0.01257083 -0.08870949 0.08948279
v 0.01257917 -0.08843150 0.08600000
v 0.01291659 -0.08885062 0.08987640
v 0.01293061 -0.08838302 0.08972440
v 0.01272220 -0.08879093 0.08971937
v 0.01312681 -0.08872616 0.08995595
v 0.01273053 -0.08851294 0.08962901
v 0.01376616 -0.08836012 0.08987640
v 0.01335420 -0.08813846 0.08972440
v 0.01381167 -0.08816192 0.08971937
v 0.01355327 -0.08847994 0.08995595
v 0.01356676 -0.08803015 0.08962901
v 0.01322175 -0.08839817 0.08986559
v 0.01302546 -0.08805818 0.08265406
v 0.01302546 -0.08805818 0.08934594
v 0.01332184 -0.08789837 0.08275379
v 0.01273887 -0.08823495 0.08275379
v 0.01332184 -0.08789837 0.08924621
v 0.01273887 -0.08823495 0.08924621
f 14 65 68
f 52 49 14
f 69 68 65
f 127 77 7
f 7 77 85
f 49 52 53
f 61 107 19
f 5 61 146
f 68 69 67
f 7 85 67
f 88 77 24
f 88 85 77
f 45 65 14
f 14 49 45
f 51 53 52
f 120 118 33
f 103 118 120
f 13 56 59
f 75 72 13
f 13 72 43
f 43 56 13
f 42 162 158
f 14 68 46
f 46 52 14
f 149 61 19
f 149 146 61
f 160 124 145
f 145 162 160
f 42 157 160
f 160 162 42
f 3 124 63
f 65 45 63
f 63 45 3
f 5 51 104
f 104 61 5
f 107 61 104
f 103 120 100
f 98 57 18
f 18 57 59
f 44 57 2
f 59 57 44
f 13 59 44
f 44 75 13
f 27 88 95
f 85 88 27
f 87 67 85
f 85 27 87
f 87 27 89
f 26 83 118
f 89 83 26
f 49 53 48
f 5 146 48
f 48 51 5
f 53 51 48
f 47 45 49
f 3 45 47
f 125 160 157
f 64 69 65
f 64 127 7
f 7 67 64
f 64 67 69
f 137 135 130
f 77 127 130
f 24 77 130
f 130 135 24
f 24 135 78
f 78 135 132
f 132 8 78
f 90 78 8
f 72 75 76
f 11 125 157
f 37 135 137
f 132 135 37
f 132 37 134
f 134 37 136
f 4 100 50
f 52 46 50
f 50 46 4
f 96 57 98
f 2 57 96
f 116 120 33
f 98 18 111
f 2 96 79
f 79 96 99
f 56 43 54
f 86 27 95
f 86 83 89
f 89 27 86
f 118 83 115
f 33 118 115
f 68 67 21
f 67 87 21
f 144 47 15
f 49 48 15
f 15 47 49
f 3 47 142
f 145 124 142
f 142 124 3
f 142 47 144
f 142 162 145
f 40 149 156
f 146 149 40
f 148 48 146
f 148 150 144
f 144 15 148
f 148 15 48
f 146 40 148
f 148 40 150
f 124 160 35
f 160 125 35
f 137 130 36
f 36 130 127
f 91 86 95
f 95 88 93
f 78 90 93
f 93 88 24
f 24 78 93
f 74 90 8
f 74 92 90
f 74 76 75
f 136 37 133
f 133 37 137
f 123 134 136
f 132 134 71
f 71 8 132
f 72 76 71
f 71 74 8
f 76 74 71
f 154 62 151
f 156 149 154
f 154 149 19
f 19 62 154
f 107 114 112
f 109 62 112
f 19 107 112
f 112 62 19
f 10 116 97
f 29 96 98
f 119 116 33
f 99 96 119
f 96 29 119
f 97 116 119
f 119 29 97
f 110 10 97
f 110 114 105
f 105 10 110
f 60 59 56
f 56 55 60
f 1 54 43
f 138 54 1
f 138 141 161
f 42 158 161
f 151 55 153
f 89 26 84
f 84 87 89
f 84 21 87
f 144 150 39
f 39 142 144
f 162 142 39
f 137 36 128
f 128 133 137
f 11 133 128
f 125 11 128
f 126 63 124
f 124 35 126
f 2 79 73
f 73 44 2
f 75 44 73
f 81 79 25
f 81 73 79
f 90 92 28
f 28 93 90
f 28 91 95
f 95 93 28
f 159 161 141
f 159 157 42
f 42 161 159
f 134 123 22
f 22 71 134
f 72 71 22
f 41 154 151
f 41 153 155
f 151 153 41
f 156 154 41
f 31 108 105
f 107 104 31
f 31 114 107
f 105 114 31
f 106 104 51
f 106 31 104
f 108 31 106
f 30 100 120
f 120 116 101
f 116 10 101
f 101 10 105
f 105 108 101
f 101 30 120
f 108 30 101
f 99 119 117
f 33 115 117
f 117 119 33
f 117 79 99
f 25 79 117
f 115 80 117
f 117 80 25
f 32 111 109
f 109 112 32
f 32 112 114
f 114 110 32
f 98 111 113
f 113 110 97
f 113 29 98
f 97 29 113
f 111 32 113
f 113 32 110
f 58 18 59
f 59 60 58
f 109 111 58
f 58 111 18
f 58 60 55
f 121 159 141
f 121 141 138
f 138 1 121
f 150 40 147
f 147 40 156
f 138 161 38
f 155 38 139
f 139 38 161
f 158 12 139
f 139 161 158
f 17 153 55
f 17 55 56
f 56 54 17
f 140 54 138
f 155 153 140
f 138 38 140
f 140 38 155
f 140 17 54
f 153 17 140
f 68 21 66
f 21 84 66
f 66 46 68
f 4 46 66
f 162 39 143
f 143 39 150
f 150 147 143
f 143 147 12
f 143 158 162
f 143 12 158
f 63 126 20
f 65 63 20
f 20 64 65
f 127 64 129
f 129 36 127
f 64 20 129
f 129 20 126
f 9 115 83
f 83 86 9
f 86 91 9
f 91 80 9
f 9 80 115
f 25 80 94
f 94 81 25
f 94 80 91
f 92 81 94
f 91 28 94
f 94 28 92
f 23 81 92
f 92 74 23
f 73 81 23
f 23 74 75
f 75 73 23
f 156 41 152
f 152 147 156
f 12 147 152
f 152 41 155
f 155 139 152
f 152 139 12
f 16 106 51
f 16 51 52
f 52 50 16
f 102 50 100
f 108 106 102
f 100 30 102
f 102 30 108
f 102 16 50
f 106 16 102
f 151 62 6
f 6 62 109
f 6 55 151
f 6 58 55
f 109 58 6
f 123 121 70
f 72 22 70
f 70 22 123
f 70 121 1
f 70 43 72
f 70 1 43
f 159 121 34
f 34 123 136
f 34 121 123
f 82 84 26
f 82 66 84
f 4 66 82
f 103 100 82
f 82 100 4
f 82 118 103
f 82 26 118
f 131 128 36
f 36 129 131
f 125 128 131
f 131 129 126
f 131 35 125
f 131 126 35
f 122 34 136
f 159 34 122
f 136 133 122
f 122 133 11
f 122 11 157
f 157 159 122

