# https://github.com/mikedh/trimesh
v -0.01572586 -0.04339577 0.08600000
v 0.00779432 -0.08413392 0.08600000
v -0.03379432 -0.05382761 0.08600000
v -0.01027414 -0.09456575 0.08600000
v -0.01907965 -0.07249085 0.11443183
v -0.00692035 -0.06547067 0.11443183
v -0.01907965 -0.07249085 0.05756817
v -0.00692035 -0.06547067 0.05756817
v 0.00046592 -0.09230441 0.06097982
v 0.00046592 -0.09230441 0.11102018
v -0.02646592 -0.04565711 0.06097982
v -0.02646592 -0.04565711 0.11102018
v -0.00260770 -0.06298076 0.08600000
v -0.02339230 -0.07498076 0.08600000
v -0.03227798 -0.05557967 0.11075000
v -0.01103331 -0.09237653 0.11075000
v -0.01496669 -0.04558499 0.11075000
v 0.00627798 -0.08238185 0.11075000
v -0.01300000 -0.06898076 0.11600000
v -0.03227798 -0.05557967 0.06125000
v -0.01103331 -0.09237653 0.06125000
v -0.01496669 -0.04558499 0.06125000
v 0.00627798 -0.08238185 0.06125000
v -0.01300000 -0.06898076 0.05600000
v 0.00609301 -0.08855083 0.06325532
v -0.00559833 -0.09530083 0.06325532
v -0.00548401 -0.09148819 0.05800532
v 0.00273401 -0.08674351 0.05800532
v 0.00609301 -0.08855083 0.10874468
v -0.00559833 -0.09530083 0.10874468
v -0.00548401 -0.09148819 0.11399468
v 0.00273401 -0.08674351 0.11399468
v 0.00125000 -0.09366249 0.08600000
v -0.02040167 -0.04266070 0.06325532
v -0.03209301 -0.04941070 0.06325532
v -0.02873401 -0.05121801 0.05800532
v -0.02051599 -0.04647333 0.05800532
v -0.02040167 -0.04266070 0.10874468
v -0.03209301 -0.04941070 0.10874468
v -0.02873401 -0.05121801 0.11399468
v -0.02051599 -0.04647333 0.11399468
v -0.02725000 -0.04429904 0.08600000
v -0.01338845 -0.04510724 0.08600000
v 0.00748085 -0.08125393 0.08600000
v -0.03348085 -0.05670760 0.08600000
v -0.01261155 -0.09285428 0.08600000
v -0.03342143 -0.05472585 0.10822887
v -0.03045103 -0.05632407 0.11287149
v -0.03280016 -0.05765806 0.10826009
v -0.01086560 -0.09379369 0.10822887
v -0.01076450 -0.09042215 0.11287149
v -0.01309433 -0.09178956 0.10826009
v -0.02203423 -0.07419668 0.11102018
v -0.01513440 -0.04416783 0.10822887
v -0.01523550 -0.04753938 0.11287149
v -0.01290567 -0.04617197 0.10826009
v 0.00742143 -0.08323567 0.10822887
v 0.00445103 -0.08163745 0.11287149
v 0.00680016 -0.08030346 0.10826009
v -0.00396577 -0.06376485 0.11102018
v -0.01678392 -0.07116541 0.11560035
v -0.00921608 -0.06679611 0.11560035
v -0.03342143 -0.05472585 0.06377113
v -0.03045103 -0.05632407 0.05912851
v -0.03280016 -0.05765806 0.06373991
v -0.01086560 -0.09379369 0.06377113
v -0.01076450 -0.09042215 0.05912851
v -0.01309433 -0.09178956 0.06373991
v -0.02203423 -0.07419668 0.06097982
v -0.01513440 -0.04416783 0.06377113
v -0.01523550 -0.04753938 0.05912851
v -0.01290567 -0.04617197 0.06373991
v 0.00742143 -0.08323567 0.06377113
v 0.00445103 -0.08163745 0.05912851
v 0.00680016 -0.08030346 0.06373991
v -0.00396577 -0.06376485 0.06097982
v -0.01678392 -0.07116541 0.05639965
v -0.00921608 -0.06679611 0.05639965
v 0.00732528 -0.08644221 0.06481347
v 0.00419131 -0.09029926 0.06194417
v 0.00664281 -0.08555110 0.06203408
v -0.00804059 -0.09531369 0.06481347
v -0.00313330 -0.09452813 0.06194417
v -0.00847107 -0.09427711 0.06203408
v -0.00788007 -0.08996040 0.05744198
v -0.00307387 -0.09254638 0.05921530
v -0.00841097 -0.09227269 0.05927399
v -0.00539628 -0.08856244 0.05651391
v -0.00555363 -0.09381008 0.06032825
v 0.00260894 -0.08390457 0.05744198
v 0.00244536 -0.08935985 0.05921530
v 0.00487688 -0.08460094 0.05927399
v 0.00015637 -0.08535661 0.05651391
v 0.00477964 -0.08784416 0.06032825
v -0.00123991 -0.08934983 0.05756817
v 0.00732528 -0.08644221 0.10718653
v 0.00419131 -0.09029926 0.11005583
v 0.00664281 -0.08555110 0.10996592
v 0.00654557 -0.08879433 0.08600000
v -0.00804059 -0.09531369 0.10718653
v -0.00313330 -0.09452813 0.11005583
v -0.00847107 -0.09427711 0.10996592
v -0.00561373 -0.09581450 0.08600000
v -0.00788007 -0.08996040 0.11455802
v -0.00307387 -0.09254638 0.11278470
v -0.00841097 -0.09227269 0.11272601
v -0.00539628 -0.08856244 0.11548609
v -0.00555363 -0.09381008 0.11167175
v 0.00260894 -0.08390457 0.11455802
v 0.00244536 -0.08935985 0.11278470
v 0.00487688 -0.08460094 0.11272601
v 0.00015637 -0.08535661 0.11548609
v 0.00477964 -0.08784416 0.11167175
v -0.00123991 -0.08934983 0.11443183
v 0.00105018 -0.09331638 0.06363070
v 0.00105018 -0.09331638 0.10836930
v 0.00468239 -0.09108739 0.06479417
v -0.00269630 -0.09534747 0.06479417
v 0.00468239 -0.09108739 0.10720583
v -0.00269630 -0.09534747 0.10720583
v -0.01795941 -0.04264783 0.06481347
v -0.02286670 -0.04343340 0.06194417
v -0.01752893 -0.04368441 0.06203408
v -0.03332528 -0.05151932 0.06481347
v -0.03019131 -0.04766226 0.06194417
v -0.03264281 -0.05241042 0.06203408
v -0.02860894 -0.05405695 0.05744198
v -0.02844536 -0.04860167 0.05921530
v -0.03087688 -0.05336058 0.05927399
v -0.02615637 -0.05260491 0.05651391
v -0.03077964 -0.05011736 0.06032825
v -0.01811993 -0.04800112 0.05744198
v -0.02292613 -0.04541514 0.05921530
v -0.01758903 -0.04568883 0.05927399
v -0.02060372 -0.04939908 0.05651391
v -0.02044637 -0.04415144 0.06032825
v -0.02476009 -0.04861169 0.05756817
v -0.01795941 -0.04264783 0.10718653
v -0.02286670 -0.04343340 0.11005583
v -0.01752893 -0.04368441 0.10996592
v -0.02038627 -0.04214702 0.08600000
v -0.03332528 -0.05151932 0.10718653
v -0.03019131 -0.04766226 0.11005583
v -0.03264281 -0.05241042 0.10996592
v -0.03254557 -0.04916720 0.08600000
v -0.02860894 -0.05405695 0.11455802
v -0.02844536 -0.04860167 0.11278470
v -0.03087688 -0.05336058 0.11272601
v -0.02615637 -0.05260491 0.11548609
v -0.03077964 -0.05011736 0.11167175
v -0.01811993 -0.04800112 0.11455802
v -0.02292613 -0.04541514 0.11278470
v -0.01758903 -0.04568883 0.11272601
v -0.02060372 -0.04939908 0.11548609
v -0.02044637 -0.04415144 0.11167175
v -0.02476009 -0.04861169 0.11443183
v -0.02705018 -0.04464514 0.06363070
v -0.02705018 -0.04464514 0.10836930
v -0.02330370 -0.04261405 0.06479417
v -0.03068239 -0.04687414 0.06479417
v -0.02330370 -0.04261405 0.10720583
v -0.03068239 -0.04687414 0.10720583
f 63 65 45
f 45 65 14
f 63 45 3
f 3 45 47
f 4 46 66
f 50 46 4
f 14 46 52
f 52 46 50
f 66 46 68
f 14 65 68
f 68 46 14
f 75 72 13
f 142 3 47
f 103 118 120
f 33 116 120
f 120 118 33
f 13 72 43
f 43 56 13
f 13 56 59
f 82 4 66
f 61 146 5
f 61 107 19
f 125 157 11
f 20 65 63
f 127 64 129
f 64 20 129
f 159 157 42
f 11 157 122
f 157 159 122
f 39 162 145
f 145 142 39
f 50 4 100
f 100 82 103
f 4 82 100
f 33 118 115
f 44 75 13
f 13 59 44
f 60 59 56
f 96 79 2
f 99 79 96
f 19 62 154
f 154 62 151
f 26 118 103
f 103 82 26
f 9 115 83
f 83 115 118
f 118 26 83
f 83 26 89
f 84 82 66
f 84 26 82
f 89 26 84
f 52 53 49
f 47 45 49
f 49 45 14
f 14 52 49
f 5 146 48
f 48 51 5
f 53 51 48
f 19 107 112
f 112 62 19
f 157 125 160
f 145 162 160
f 42 157 160
f 160 162 42
f 66 68 21
f 21 84 66
f 127 77 7
f 7 64 127
f 7 77 85
f 7 67 64
f 85 67 7
f 64 67 69
f 69 68 65
f 65 20 69
f 69 20 64
f 69 21 68
f 67 21 69
f 127 129 36
f 36 129 131
f 11 122 133
f 70 123 121
f 70 43 72
f 121 123 34
f 34 122 159
f 56 43 54
f 42 162 158
f 162 39 143
f 12 158 143
f 143 158 162
f 144 142 47
f 144 39 142
f 2 79 73
f 73 44 2
f 75 44 73
f 33 115 117
f 57 96 2
f 2 44 57
f 57 44 59
f 119 117 99
f 119 116 33
f 33 117 119
f 146 61 149
f 149 61 19
f 19 154 149
f 88 27 85
f 88 77 24
f 85 77 88
f 9 83 86
f 86 83 89
f 89 27 86
f 87 67 85
f 89 84 87
f 85 27 87
f 87 27 89
f 87 21 67
f 84 21 87
f 15 49 53
f 53 48 15
f 47 49 15
f 15 144 47
f 32 113 111
f 110 113 32
f 101 120 116
f 5 51 104
f 104 61 5
f 107 61 104
f 114 112 107
f 114 105 110
f 110 32 114
f 114 32 112
f 63 3 124
f 124 142 145
f 3 142 124
f 127 36 130
f 130 36 137
f 130 137 135
f 130 77 127
f 130 135 24
f 24 77 130
f 137 36 128
f 11 133 128
f 128 133 137
f 128 36 131
f 128 125 11
f 131 125 128
f 136 133 122
f 122 34 136
f 136 34 123
f 123 70 22
f 22 70 72
f 156 149 154
f 41 154 151
f 41 156 154
f 140 54 138
f 1 70 121
f 121 138 1
f 43 70 1
f 138 54 1
f 1 54 43
f 141 138 121
f 121 34 141
f 141 34 159
f 161 141 159
f 161 159 42
f 42 158 161
f 148 48 146
f 148 15 48
f 144 15 148
f 150 143 39
f 39 144 150
f 144 148 150
f 90 8 74
f 74 8 71
f 25 79 99
f 99 117 25
f 17 60 56
f 17 55 60
f 56 54 17
f 54 140 17
f 6 55 151
f 151 62 6
f 18 57 59
f 59 60 18
f 96 57 98
f 111 113 98
f 98 18 111
f 57 18 98
f 99 96 29
f 29 119 99
f 96 98 29
f 29 98 113
f 93 88 24
f 27 88 95
f 95 86 27
f 88 93 95
f 109 32 111
f 112 32 109
f 62 112 109
f 109 6 62
f 110 105 10
f 105 101 10
f 10 101 116
f 106 104 51
f 35 160 125
f 35 125 131
f 145 160 35
f 35 124 145
f 131 129 126
f 63 124 126
f 126 20 63
f 126 129 20
f 126 35 131
f 124 35 126
f 71 8 132
f 156 41 152
f 152 41 155
f 151 55 153
f 153 140 155
f 153 41 151
f 155 41 153
f 55 17 153
f 153 17 140
f 38 140 138
f 155 140 38
f 138 141 38
f 141 161 38
f 149 156 40
f 146 149 40
f 40 148 146
f 40 150 148
f 72 75 76
f 76 74 71
f 76 22 72
f 71 22 76
f 90 74 92
f 80 25 117
f 80 115 9
f 80 117 115
f 60 55 58
f 55 6 58
f 58 18 60
f 6 109 58
f 111 18 58
f 58 109 111
f 97 29 113
f 119 29 97
f 97 113 110
f 110 10 97
f 116 119 97
f 97 10 116
f 78 8 90
f 90 93 78
f 135 132 78
f 78 132 8
f 24 135 78
f 78 93 24
f 50 100 102
f 104 106 31
f 107 104 31
f 31 114 107
f 105 114 31
f 37 132 135
f 135 137 37
f 137 133 37
f 133 136 37
f 134 136 123
f 71 132 134
f 123 22 134
f 134 22 71
f 134 37 136
f 132 37 134
f 155 38 139
f 139 38 161
f 139 152 155
f 12 152 139
f 139 158 12
f 139 161 158
f 147 40 156
f 147 152 12
f 156 152 147
f 150 40 147
f 12 143 147
f 143 150 147
f 79 25 81
f 81 73 79
f 92 81 94
f 25 80 94
f 94 81 25
f 30 102 100
f 120 101 30
f 103 120 30
f 30 100 103
f 16 106 51
f 16 102 106
f 50 102 16
f 16 52 50
f 16 53 52
f 16 51 53
f 106 102 108
f 108 101 105
f 105 31 108
f 108 31 106
f 108 30 101
f 102 30 108
f 23 92 74
f 23 81 92
f 73 81 23
f 75 73 23
f 23 76 75
f 74 76 23
f 28 93 90
f 90 92 28
f 92 94 28
f 28 95 93
f 95 28 91
f 9 86 91
f 86 95 91
f 91 28 94
f 91 80 9
f 91 94 80

