# https://github.com/mikedh/trimesh
v -0.01117708 0.09239141 0.08600000
v -0.00936275 0.09553391 0.08600000
v 0.00636275 0.08226478 0.08600000
v 0.00817708 0.08540729 0.08600000
v 0.00656644 0.08424218 0.10712663
v -0.00956644 0.09355651 0.10712663
v 0.00656644 0.08424218 0.06487337
v -0.00956644 0.09355651 0.06487337
v -0.00018669 0.09117407 0.06568567
v -0.00018669 0.09117407 0.10631433
v -0.00281331 0.08662462 0.06568567
v -0.00281331 0.08662462 0.10631433
v -0.01059327 0.09414935 0.08600000
v 0.00759327 0.08364935 0.08600000
v 0.00654351 0.08278602 0.10625000
v 0.00781605 0.08499013 0.10625000
v -0.01081605 0.09280856 0.10625000
v -0.00954351 0.09501267 0.10625000
v -0.00150000 0.08889935 0.10750000
v 0.00654351 0.08278602 0.06575000
v 0.00781605 0.08499013 0.06575000
v -0.01081605 0.09280856 0.06575000
v -0.00954351 0.09501267 0.06575000
v -0.00150000 0.08889935 0.06450000
v -0.00824946 0.09570893 0.06622746
v 0.00777201 0.08645893 0.06622746
v 0.00697224 0.08602862 0.06497746
v -0.00822224 0.09480116 0.06497746
v -0.00824946 0.09570893 0.10577254
v 0.00777201 0.08645893 0.10577254
v 0.00697224 0.08602862 0.10702254
v -0.00822224 0.09480116 0.10702254
v 0.00000000 0.09149742 0.08600000
v -0.01077201 0.09133976 0.06622746
v 0.00524946 0.08208976 0.06622746
v 0.00522224 0.08299753 0.06497746
v -0.00997224 0.09177007 0.06497746
v -0.01077201 0.09133976 0.10577254
v 0.00524946 0.08208976 0.10577254
v 0.00522224 0.08299753 0.10702254
v -0.00997224 0.09177007 0.10702254
v -0.00300000 0.08630127 0.08600000
v -0.01110244 0.09307712 0.08600000
v -0.00991928 0.09512642 0.08600000
v 0.00691928 0.08267227 0.08600000
v 0.00810244 0.08472158 0.08600000
v 0.00650357 0.08244860 0.10564973
v 0.00647950 0.08325135 0.10675512
v 0.00703423 0.08292578 0.10565716
v 0.00808830 0.08519342 0.10564973
v 0.00738106 0.08481289 0.10675512
v 0.00794038 0.08449527 0.10565716
v 0.00726992 0.08383603 0.10631433
v -0.01108830 0.09260527 0.10564973
v -0.01038106 0.09298580 0.10675512
v -0.01094038 0.09330342 0.10565716
v -0.00950357 0.09535009 0.10564973
v -0.00947950 0.09454734 0.10675512
v -0.01003423 0.09487292 0.10565716
v -0.01026992 0.09396266 0.10631433
v 0.00601984 0.08455776 0.10740485
v -0.00901984 0.09324093 0.10740485
v 0.00650357 0.08244860 0.06635027
v 0.00647950 0.08325135 0.06524488
v 0.00703423 0.08292578 0.06634284
v 0.00808830 0.08519342 0.06635027
v 0.00738106 0.08481289 0.06524488
v 0.00794038 0.08449527 0.06634284
v 0.00726992 0.08383603 0.06568567
v -0.01108830 0.09260527 0.06635027
v -0.01038106 0.09298580 0.06524488
v -0.01094038 0.09330342 0.06634284
v -0.00950357 0.09535009 0.06635027
v -0.00947950 0.09454734 0.06524488
v -0.01003423 0.09487292 0.06634284
v -0.01026992 0.09396266 0.06568567
v 0.00601984 0.08455776 0.06459515
v -0.00901984 0.09324093 0.06459515
v -0.00883095 0.09571200 0.06659844
v -0.00766255 0.09552496 0.06591528
v -0.00893345 0.09546519 0.06593669
v 0.00806540 0.08595688 0.06659844
v 0.00731922 0.08687523 0.06591528
v 0.00790291 0.08574471 0.06593669
v 0.00694246 0.08535268 0.06484333
v 0.00690352 0.08665156 0.06526555
v 0.00748245 0.08551848 0.06527952
v 0.00635852 0.08569840 0.06462236
v 0.00745930 0.08629068 0.06553054
v -0.00879273 0.09443740 0.06484333
v -0.00764840 0.09505311 0.06526555
v -0.00891914 0.09498795 0.06527952
v -0.00820136 0.09410455 0.06462236
v -0.00823882 0.09535399 0.06553054
v -0.00059284 0.09047060 0.06487337
v -0.00883095 0.09571200 0.10540156
v -0.00766255 0.09552496 0.10608472
v -0.00893345 0.09546519 0.10606331
v -0.00825313 0.09583124 0.08600000
v 0.00806540 0.08595688 0.10540156
v 0.00731922 0.08687523 0.10608472
v 0.00790291 0.08574471 0.10606331
v 0.00787976 0.08651691 0.08600000
v 0.00694246 0.08535268 0.10715667
v 0.00690352 0.08665156 0.10673445
v 0.00748245 0.08551848 0.10672048
v 0.00635852 0.08569840 0.10737764
v 0.00745930 0.08629068 0.10646946
v -0.00879273 0.09443740 0.10715667
v -0.00764840 0.09505311 0.10673445
v -0.00891914 0.09498795 0.10672048
v -0.00820136 0.09410455 0.10737764
v -0.00823882 0.09535399 0.10646946
v -0.00059284 0.09047060 0.10712663
v -0.00004758 0.09141502 0.06631683
v -0.00004758 0.09141502 0.10568317
v -0.00755850 0.09572004 0.06659385
v 0.00743614 0.08706287 0.06659385
v -0.00755850 0.09572004 0.10540615
v 0.00743614 0.08706287 0.10540615
v -0.01106540 0.09184181 0.06659844
v -0.01031922 0.09092347 0.06591528
v -0.01090291 0.09205398 0.06593669
v 0.00583095 0.08208670 0.06659844
v 0.00466255 0.08227374 0.06591528
v 0.00593345 0.08233350 0.06593669
v 0.00579273 0.08336129 0.06484333
v 0.00464840 0.08274558 0.06526555
v 0.00591914 0.08281075 0.06527952
v 0.00520136 0.08369414 0.06462236
v 0.00523882 0.08244470 0.06553054
v -0.00994246 0.09244601 0.06484333
v -0.00990352 0.09114714 0.06526555
v -0.01048245 0.09228021 0.06527952
v -0.00935852 0.09210029 0.06462236
v -0.01045930 0.09150801 0.06553054
v -0.00240716 0.08732809 0.06487337
v -0.01106540 0.09184181 0.10540156
v -0.01031922 0.09092347 0.10608472
v -0.01090291 0.09205398 0.10606331
v -0.01087976 0.09128178 0.08600000
v 0.00583095 0.08208670 0.10540156
v 0.00466255 0.08227374 0.10608472
v 0.00593345 0.08233350 0.10606331
v 0.00525313 0.08196746 0.08600000
v 0.00579273 0.08336129 0.10715667
v 0.00464840 0.08274558 0.10673445
v 0.00591914 0.08281075 0.10672048
v 0.00520136 0.08369414 0.10737764
v 0.00523882 0.08244470 0.10646946
v -0.00994246 0.09244601 0.10715667
v -0.00990352 0.09114714 0.10673445
v -0.01048245 0.09228021 0.10672048
v -0.00935852 0.09210029 0.10737764
v -0.01045930 0.09150801 0.10646946
v -0.00240716 0.08732809 0.10712663
v -0.00295242 0.08638368 0.06631683
v -0.00295242 0.08638368 0.10568317
v -0.01043614 0.09073582 0.06659385
v 0.00455850 0.08207865 0.06659385
v -0.01043614 0.09073582 0.10540615
v 0.00455850 0.08207865 0.10540615
f 42 160 162
f 120 118 33
f 161 159 42
f 118 120 103
f 4 46 66
f 93 88 24
f 33 117 119
f 145 162 160
f 149 61 19
f 19 154 149
f 124 145 160
f 65 63 20
f 130 135 24
f 137 135 130
f 118 103 82
f 4 66 82
f 42 162 158
f 158 161 42
f 152 12 147
f 100 103 120
f 4 82 100
f 100 82 103
f 14 46 52
f 52 49 14
f 162 39 143
f 147 12 143
f 143 158 162
f 12 158 143
f 157 160 42
f 42 159 157
f 133 135 137
f 78 93 24
f 24 135 78
f 114 112 107
f 107 105 114
f 31 105 107
f 19 61 107
f 107 112 19
f 116 119 97
f 116 120 33
f 33 119 116
f 114 105 110
f 110 112 114
f 40 149 147
f 75 44 73
f 75 72 13
f 13 44 75
f 97 119 29
f 13 72 43
f 43 56 13
f 160 157 125
f 125 157 11
f 88 85 77
f 127 130 77
f 24 88 77
f 77 130 24
f 118 82 26
f 88 93 95
f 95 86 88
f 27 85 88
f 88 86 27
f 89 87 27
f 27 86 89
f 27 87 85
f 33 118 115
f 115 117 33
f 89 86 83
f 118 26 83
f 83 26 89
f 83 115 118
f 41 152 154
f 155 152 41
f 139 152 155
f 12 152 139
f 161 158 139
f 139 158 12
f 156 149 154
f 147 149 156
f 154 152 156
f 156 152 147
f 16 52 50
f 4 100 50
f 50 46 4
f 50 52 46
f 49 52 53
f 53 52 16
f 49 53 15
f 15 53 48
f 148 144 15
f 15 48 148
f 3 124 63
f 147 143 150
f 150 144 148
f 150 40 147
f 148 40 150
f 150 143 39
f 39 144 150
f 70 43 72
f 1 43 70
f 122 133 11
f 122 157 159
f 11 157 122
f 159 34 122
f 31 107 104
f 104 106 31
f 104 107 61
f 108 105 31
f 31 106 108
f 120 116 101
f 105 108 101
f 62 154 19
f 19 112 62
f 146 40 148
f 149 40 146
f 148 48 146
f 61 149 146
f 121 138 1
f 1 70 121
f 121 34 159
f 36 130 127
f 84 82 66
f 84 87 89
f 89 26 84
f 84 26 82
f 66 21 84
f 84 21 87
f 7 64 127
f 7 77 85
f 127 77 7
f 86 95 91
f 91 95 93
f 151 41 154
f 154 62 151
f 151 62 6
f 49 15 47
f 47 15 144
f 45 65 14
f 14 49 45
f 45 63 65
f 45 3 63
f 49 47 45
f 45 47 3
f 5 104 61
f 5 146 48
f 61 146 5
f 102 50 100
f 102 108 106
f 102 106 16
f 16 50 102
f 97 110 10
f 10 116 97
f 10 110 105
f 10 101 116
f 105 101 10
f 112 110 32
f 109 62 112
f 6 62 109
f 112 32 109
f 109 32 111
f 113 110 97
f 97 29 113
f 113 32 110
f 111 32 113
f 72 75 76
f 93 78 90
f 92 90 74
f 23 75 73
f 23 92 74
f 23 76 75
f 74 76 23
f 81 25 94
f 94 92 81
f 81 23 73
f 92 23 81
f 96 29 119
f 138 140 54
f 1 138 54
f 56 43 54
f 54 43 1
f 38 139 155
f 38 140 138
f 155 140 38
f 38 138 161
f 161 139 38
f 161 138 141
f 159 161 141
f 138 121 141
f 141 121 159
f 128 125 11
f 128 133 137
f 11 133 128
f 137 130 128
f 130 36 128
f 127 64 129
f 129 64 20
f 129 36 127
f 68 21 66
f 68 66 46
f 14 65 68
f 68 46 14
f 85 87 67
f 87 21 67
f 67 7 85
f 64 7 67
f 80 91 94
f 80 25 117
f 94 25 80
f 117 115 80
f 155 41 153
f 41 151 153
f 153 140 155
f 3 47 142
f 142 144 39
f 142 47 144
f 162 145 142
f 142 39 162
f 145 124 142
f 124 3 142
f 136 122 34
f 133 122 136
f 135 133 37
f 37 136 134
f 133 136 37
f 22 70 72
f 72 76 22
f 8 90 78
f 74 90 8
f 104 5 51
f 16 106 51
f 106 104 51
f 51 53 16
f 48 53 51
f 51 5 48
f 30 101 108
f 108 102 30
f 30 102 100
f 30 100 120
f 120 101 30
f 6 109 58
f 58 109 111
f 94 91 28
f 90 92 28
f 28 92 94
f 28 91 93
f 93 90 28
f 79 81 73
f 25 81 79
f 117 25 79
f 98 113 29
f 29 96 98
f 98 96 57
f 111 113 98
f 63 124 126
f 126 20 63
f 126 129 20
f 131 128 36
f 36 129 131
f 125 128 131
f 129 126 131
f 21 68 69
f 69 67 21
f 69 68 65
f 64 67 69
f 65 20 69
f 20 64 69
f 115 83 9
f 9 83 86
f 86 91 9
f 91 80 9
f 9 80 115
f 6 58 55
f 55 58 60
f 55 151 6
f 55 153 151
f 34 121 123
f 123 136 34
f 123 121 70
f 134 136 123
f 70 22 123
f 123 22 134
f 135 37 132
f 132 37 134
f 132 78 135
f 132 8 78
f 71 22 76
f 71 76 74
f 74 8 71
f 8 132 71
f 134 22 71
f 71 132 134
f 60 58 18
f 18 58 111
f 111 98 18
f 18 98 57
f 44 57 2
f 73 44 2
f 57 96 2
f 96 79 2
f 2 79 73
f 99 79 96
f 99 119 117
f 99 96 119
f 117 79 99
f 35 126 124
f 35 131 126
f 125 131 35
f 35 124 160
f 160 125 35
f 140 153 17
f 17 54 140
f 153 55 17
f 56 54 17
f 17 60 56
f 17 55 60
f 59 18 57
f 60 18 59
f 56 60 59
f 59 57 44
f 13 56 59
f 59 44 13

