# https://github.com/mikedh/trimesh
v -0.00976845 -0.00560377 0.00078799
v -0.00983147 -0.00555557 0.00100000
v -0.00979410 -0.00542977 0.00057023
v -0.00988845 -0.00540891 0.00079154
v -0.00992388 -0.00538268 0.00100000
v -0.00983147 -0.00555557 0.00200000
v -0.00976845 -0.00560377 0.00221201
v -0.00979776 -0.00546668 0.00235889
v -0.00978667 -0.00548020 0.00236665
v -0.00992388 -0.00538268 0.00200000
v -0.00988845 -0.00540891 0.00220846
v -0.00982063 -0.00542390 0.00236754
v -0.00988845 -0.00529703 0.00232034
v -0.00990866 -0.00525922 0.00229651
v -0.00938268 -0.00592388 0.00100000
v -0.00955557 -0.00583147 0.00100000
v -0.00940891 -0.00588845 0.00079154
v -0.00963571 -0.00563571 0.00056211
v -0.00942977 -0.00579410 0.00057023
v -0.00943789 -0.00563571 0.00036429
v -0.00960377 -0.00576845 0.00078799
v -0.00970711 -0.00570711 0.00100000
v -0.00920846 -0.00588845 0.00059109
v -0.00920233 -0.00595819 0.00079767
v -0.00919509 -0.00598079 0.00100000
v -0.00921201 -0.00576845 0.00039623
v -0.00938268 -0.00592388 0.00200000
v -0.00955557 -0.00583147 0.00200000
v -0.00940891 -0.00588845 0.00220846
v -0.00942390 -0.00582063 0.00236754
v -0.00970711 -0.00570711 0.00200000
v -0.00960377 -0.00576845 0.00221201
v -0.00966479 -0.00562871 0.00238840
v -0.00964853 -0.00564853 0.00238044
v -0.00962871 -0.00566479 0.00238840
v -0.00948020 -0.00578667 0.00236665
v -0.00946668 -0.00579776 0.00235889
v -0.00919509 -0.00598079 0.00200000
v -0.00920233 -0.00595819 0.00220233
v -0.00925922 -0.00590866 0.00229651
v -0.00920525 -0.00592503 0.00230055
v -0.00929703 -0.00588845 0.00232034
v -0.00913409 -0.00594661 0.00226317
v -0.00903411 -0.00597694 0.00219642
v -0.00963571 -0.00543789 0.00036429
v -0.00942977 -0.00542977 0.00020590
v -0.00921201 -0.00560377 0.00023155
v -0.00920846 -0.00540891 0.00011155
v -0.00988845 -0.00520846 0.00059109
v -0.00976845 -0.00521201 0.00039623
v -0.00995819 -0.00520233 0.00079767
v -0.00998079 -0.00519509 0.00100000
v -0.00992388 -0.00500000 0.00061732
v -0.00983147 -0.00500000 0.00044443
v -0.00998079 -0.00500000 0.00080491
v -0.01000000 -0.00500000 0.00100000
v -0.00998079 -0.00519509 0.00200000
v -0.00995819 -0.00520233 0.00220233
v -0.00994661 -0.00513409 0.00226317
v -0.00992503 -0.00520525 0.00230055
v -0.01000000 -0.00500000 0.00200000
v -0.00997694 -0.00503411 0.00219642
v -0.00998079 -0.00500000 0.00219509
v -0.00998079 -0.00499509 0.00219509
v -0.00998030 -0.00500000 0.00219668
v -0.01000000 -0.00480000 0.00120000
v -0.01000000 -0.00480000 0.00200000
v -0.00960377 -0.00521201 0.00023155
v -0.00940891 -0.00520846 0.00011155
v -0.00970711 -0.00500000 0.00029289
v -0.00955557 -0.00500000 0.00016853
v -0.00938268 -0.00500000 0.00007612
v -0.00920233 -0.00520233 0.00004181
v -0.00919509 -0.00500000 0.00001921
v -0.00900000 -0.00592388 0.00061732
v -0.00900000 -0.00583147 0.00044443
v -0.00900000 -0.00598079 0.00080491
v -0.00900000 -0.00600000 0.00100000
v -0.00900000 -0.00570711 0.00029289
v -0.00900000 -0.00600000 0.00200000
v -0.00880000 -0.00600000 0.00200000
v -0.00900000 -0.00598079 0.00219509
v -0.00900000 -0.00598030 0.00219668
v -0.00899509 -0.00598079 0.00219509
v -0.00900000 -0.00555557 0.00016853
v -0.00900000 -0.00538268 0.00007612
v -0.00900000 -0.00519509 0.00001921
v -0.00900000 -0.00500000 0.00000000
v -0.00720000 -0.00600000 0.00200000
v -0.00700491 -0.00598079 0.00219509
v -0.00696589 -0.00597694 0.00220776
v -0.00679097 -0.00592388 0.00238268
v -0.00674078 -0.00590866 0.00241117
v -0.00659638 -0.00583147 0.00255557
v -0.00653332 -0.00579776 0.00259664
v -0.00642285 -0.00570711 0.00270711
v -0.00635147 -0.00564853 0.00275518
v -0.00627518 -0.00555557 0.00283147
v -0.00620224 -0.00546668 0.00287898
v -0.00615734 -0.00538268 0.00292388
v -0.00609134 -0.00525922 0.00296133
v -0.00607189 -0.00519509 0.00298079
v -0.00602306 -0.00503411 0.00299664
v -0.00601970 -0.00500000 0.00300000
v -0.00600000 -0.00480000 0.00300000
v -0.00084853 -0.00084853 0.00000000
v -0.00023411 -0.00117694 0.00000000
v -0.00066668 -0.00099776 0.00000000
v -0.00045922 -0.00110866 0.00000000
v -0.00084853 -0.00084853 0.00300000
v -0.00023411 -0.00117694 0.00300000
v -0.00066668 -0.00099776 0.00300000
v -0.00045922 -0.00110866 0.00300000
v -0.00099776 -0.00066668 0.00000000
v -0.00110866 -0.00045922 0.00000000
v -0.00117694 -0.00023411 0.00000000
v -0.00099776 -0.00066668 0.00300000
v -0.00110866 -0.00045922 0.00300000
v -0.00117694 -0.00023411 0.00300000
v -0.01142977 -0.00542977 0.04020590
v -0.01121201 -0.00560377 0.04023155
v -0.01100000 -0.00555557 0.04016853
v -0.01120846 -0.00540891 0.04011155
v -0.01100000 -0.00538268 0.04007612
v -0.01160377 -0.00521201 0.04023155
v -0.01140891 -0.00520846 0.04011155
v -0.01155557 -0.00500000 0.04016853
v -0.01138268 -0.00500000 0.04007612
v -0.01120233 -0.00520233 0.04004181
v -0.01100000 -0.00519509 0.04001921
v -0.01119509 -0.00500000 0.04001921
v -0.01100000 -0.00500000 0.04000000
v -0.00979776 -0.00546668 0.04012102
v -0.00984266 -0.00538268 0.04007612
v -0.00990866 -0.00525922 0.04003867
v -0.00964853 -0.00564853 0.04024482
v -0.00972482 -0.00555557 0.04016853
v -0.00992811 -0.00519509 0.04001921
v -0.00997694 -0.00503411 0.04000336
v -0.00998030 -0.00500000 0.04000000
v -0.01000000 -0.00480000 0.04000000
v -0.01163571 -0.00563571 0.04056211
v -0.01170711 -0.00570711 0.04100000
v -0.01140891 -0.00588845 0.04079154
v -0.01155557 -0.00583147 0.04100000
v -0.01138268 -0.00592388 0.04100000
v -0.01160377 -0.00576845 0.04078799
v -0.01143789 -0.00563571 0.04036429
v -0.01142977 -0.00579410 0.04057023
v -0.01176845 -0.00560377 0.04078799
v -0.01163571 -0.00543789 0.04036429
v -0.01183147 -0.00555557 0.04100000
v -0.01188845 -0.00540891 0.04079154
v -0.01179410 -0.00542977 0.04057023
v -0.01192388 -0.00538268 0.04100000
v -0.01120233 -0.00595819 0.04079767
v -0.01120846 -0.00588845 0.04059109
v -0.01100000 -0.00598079 0.04080491
v -0.01100000 -0.00592388 0.04061732
v -0.01100000 -0.00583147 0.04044443
v -0.01119509 -0.00598079 0.04100000
v -0.01100000 -0.00600000 0.04100000
v -0.01121201 -0.00576845 0.04039623
v -0.01100000 -0.00570711 0.04029289
v -0.01170711 -0.00570711 0.04500000
v -0.01163571 -0.00563571 0.04543789
v -0.01155557 -0.00583147 0.04500000
v -0.01138268 -0.00592388 0.04500000
v -0.01140891 -0.00588845 0.04520846
v -0.01160377 -0.00576845 0.04521201
v -0.01143789 -0.00563571 0.04563571
v -0.01142977 -0.00579410 0.04542977
v -0.01183147 -0.00555557 0.04500000
v -0.01176845 -0.00560377 0.04521201
v -0.01163571 -0.00543789 0.04563571
v -0.01192388 -0.00538268 0.04500000
v -0.01188845 -0.00540891 0.04520846
v -0.01179410 -0.00542977 0.04542977
v -0.01142977 -0.00542977 0.04579410
v -0.01119509 -0.00598079 0.04500000
v -0.01120233 -0.00595819 0.04520233
v -0.01100000 -0.00600000 0.04500000
v -0.01100000 -0.00598079 0.04519509
v -0.01120846 -0.00588845 0.04540891
v -0.01100000 -0.00592388 0.04538268
v -0.01100000 -0.00583147 0.04555557
v -0.01121201 -0.00576845 0.04560377
v -0.01100000 -0.00570711 0.04570711
v -0.01121201 -0.00560377 0.04576845
v -0.01100000 -0.00555557 0.04583147
v -0.01120846 -0.00540891 0.04588845
v -0.01100000 -0.00538268 0.04592388
v -0.01188845 -0.00520846 0.04059109
v -0.01195819 -0.00520233 0.04079767
v -0.01176845 -0.00521201 0.04039623
v -0.01198079 -0.00519509 0.04100000
v -0.01183147 -0.00500000 0.04044443
v -0.01192388 -0.00500000 0.04061732
v -0.01198079 -0.00500000 0.04080491
v -0.01170711 -0.00500000 0.04029289
v -0.01200000 -0.00500000 0.04100000
v -0.01198079 -0.00519509 0.04500000
v -0.01195819 -0.00520233 0.04520233
v -0.01188845 -0.00520846 0.04540891
v -0.01176845 -0.00521201 0.04560377
v -0.01200000 -0.00500000 0.04500000
v -0.01198079 -0.00500000 0.04519509
v -0.01192388 -0.00500000 0.04538268
v -0.01183147 -0.00500000 0.04555557
v -0.01170711 -0.00500000 0.04570711
v -0.01160377 -0.00521201 0.04576845
v -0.01140891 -0.00520846 0.04588845
v -0.01155557 -0.00500000 0.04583147
v -0.01138268 -0.00500000 0.04592388
v -0.01120233 -0.00520233 0.04595819
v -0.01100000 -0.00519509 0.04598079
v -0.01119509 -0.00500000 0.04598079
v -0.01100000 -0.00500000 0.04600000
v -0.00940362 -0.00583147 0.04044443
v -0.00957715 -0.00570711 0.04029289
v -0.00946668 -0.00579776 0.04040336
v -0.00925922 -0.00590866 0.04058883
v -0.00920903 -0.00592388 0.04061732
v -0.00903411 -0.00597694 0.04079224
v -0.00635147 -0.00564853 0.04024482
v -0.00627518 -0.00555557 0.04016853
v -0.00620224 -0.00546668 0.04012102
v -0.00615734 -0.00538268 0.04007612
v -0.00609134 -0.00525922 0.04003867
v -0.00607189 -0.00519509 0.04001921
v -0.00602306 -0.00503411 0.04000336
v -0.00601970 -0.00500000 0.04000000
v -0.00899509 -0.00598079 0.04080491
v -0.00880000 -0.00600000 0.04100000
v -0.00720000 -0.00600000 0.04100000
v -0.00700491 -0.00598079 0.04080491
v -0.00696589 -0.00597694 0.04079224
v -0.00679097 -0.00592388 0.04061732
v -0.00674078 -0.00590866 0.04058883
v -0.00659638 -0.00583147 0.04044443
v -0.00653332 -0.00579776 0.04040336
v -0.00642285 -0.00570711 0.04029289
v -0.00901627 -0.00042095 0.04000000
v -0.00907886 -0.00021460 0.04000000
v -0.00901627 -0.00042095 0.04600000
v -0.00907886 -0.00021460 0.04600000
v -0.00877782 -0.00077782 0.04000000
v -0.00842095 -0.00101627 0.04000000
v -0.00861113 -0.00091462 0.04000000
v -0.00821460 -0.00107886 0.04000000
v -0.00800000 -0.00110000 0.04000000
v -0.00778540 -0.00107886 0.04000000
v -0.00757905 -0.00101627 0.04000000
v -0.00891462 -0.00061113 0.04000000
v -0.00738887 -0.00091462 0.04000000
v -0.00722218 -0.00077782 0.04000000
v -0.00708538 -0.00061113 0.04000000
v -0.00698373 -0.00042095 0.04000000
v -0.00692114 -0.00021460 0.04000000
v -0.00877782 -0.00077782 0.04600000
v -0.00842095 -0.00101627 0.04600000
v -0.00861113 -0.00091462 0.04600000
v -0.00821460 -0.00107886 0.04600000
v -0.00800000 -0.00110000 0.04600000
v -0.00778540 -0.00107886 0.04600000
v -0.00757905 -0.00101627 0.04600000
v -0.00891462 -0.00061113 0.04600000
v -0.00738887 -0.00091462 0.04600000
v -0.00722218 -0.00077782 0.04600000
v -0.00708538 -0.00061113 0.04600000
v -0.00698373 -0.00042095 0.04600000
v -0.00692114 -0.00021460 0.04600000
v -0.00600000 -0.00480000 0.04000000
v -0.01000000 0.00480000 0.00120000
v -0.01000000 0.00480000 0.00200000
v -0.00992388 0.00500000 0.00061732
v -0.00983147 0.00500000 0.00044443
v -0.00998079 0.00500000 0.00080491
v -0.01000000 0.00500000 0.00100000
v -0.00988845 0.00520846 0.00059109
v -0.00976845 0.00521201 0.00039623
v -0.00995819 0.00520233 0.00079767
v -0.00998079 0.00519509 0.00100000
v -0.01000000 0.00500000 0.00200000
v -0.00998079 0.00500000 0.00219509
v -0.00998079 0.00499509 0.00219509
v -0.00998030 0.00500000 0.00219668
v -0.00997694 0.00503411 0.00219642
v -0.00998079 0.00519509 0.00200000
v -0.00994661 0.00513409 0.00226317
v -0.00995819 0.00520233 0.00220233
v -0.00992503 0.00520525 0.00230055
v -0.00970711 0.00500000 0.00029289
v -0.00955557 0.00500000 0.00016853
v -0.00938268 0.00500000 0.00007612
v -0.00960377 0.00521201 0.00023155
v -0.00940891 0.00520846 0.00011155
v -0.00919509 0.00500000 0.00001921
v -0.00920233 0.00520233 0.00004181
v -0.00979410 0.00542977 0.00057023
v -0.00992388 0.00538268 0.00100000
v -0.00988845 0.00540891 0.00079154
v -0.00983147 0.00555557 0.00100000
v -0.00976845 0.00560377 0.00078799
v -0.00992388 0.00538268 0.00200000
v -0.00990866 0.00525922 0.00229651
v -0.00988845 0.00529703 0.00232034
v -0.00988845 0.00540891 0.00220846
v -0.00982063 0.00542390 0.00236754
v -0.00983147 0.00555557 0.00200000
v -0.00979776 0.00546668 0.00235889
v -0.00978667 0.00548020 0.00236665
v -0.00976845 0.00560377 0.00221201
v -0.00942977 0.00542977 0.00020590
v -0.00963571 0.00543789 0.00036429
v -0.00920846 0.00540891 0.00011155
v -0.00921201 0.00560377 0.00023155
v -0.00963571 0.00563571 0.00056211
v -0.00943789 0.00563571 0.00036429
v -0.00942977 0.00579410 0.00057023
v -0.00970711 0.00570711 0.00100000
v -0.00960377 0.00576845 0.00078799
v -0.00955557 0.00583147 0.00100000
v -0.00940891 0.00588845 0.00079154
v -0.00938268 0.00592388 0.00100000
v -0.00921201 0.00576845 0.00039623
v -0.00920846 0.00588845 0.00059109
v -0.00920233 0.00595819 0.00079767
v -0.00919509 0.00598079 0.00100000
v -0.00970711 0.00570711 0.00200000
v -0.00966479 0.00562871 0.00238840
v -0.00964853 0.00564853 0.00238044
v -0.00962871 0.00566479 0.00238840
v -0.00960377 0.00576845 0.00221201
v -0.00948020 0.00578667 0.00236665
v -0.00946668 0.00579776 0.00235889
v -0.00955557 0.00583147 0.00200000
v -0.00938268 0.00592388 0.00200000
v -0.00942390 0.00582063 0.00236754
v -0.00940891 0.00588845 0.00220846
v -0.00919509 0.00598079 0.00200000
v -0.00929703 0.00588845 0.00232034
v -0.00925922 0.00590866 0.00229651
v -0.00920525 0.00592503 0.00230055
v -0.00920233 0.00595819 0.00220233
v -0.00913409 0.00594661 0.00226317
v -0.00903411 0.00597694 0.00219642
v -0.00900000 0.00500000 0.00000000
v -0.00900000 0.00519509 0.00001921
v -0.00900000 0.00538268 0.00007612
v -0.00900000 0.00555557 0.00016853
v -0.00900000 0.00570711 0.00029289
v -0.00900000 0.00583147 0.00044443
v -0.00900000 0.00592388 0.00061732
v -0.00900000 0.00598079 0.00080491
v -0.00900000 0.00600000 0.00100000
v -0.00900000 0.00600000 0.00200000
v -0.00880000 0.00600000 0.00200000
v -0.00900000 0.00598079 0.00219509
v -0.00900000 0.00598030 0.00219668
v -0.00899509 0.00598079 0.00219509
v -0.00601970 0.00500000 0.00300000
v -0.00602306 0.00503411 0.00299664
v -0.00607189 0.00519509 0.00298079
v -0.00720000 0.00600000 0.00200000
v -0.00700491 0.00598079 0.00219509
v -0.00696589 0.00597694 0.00220776
v -0.00679097 0.00592388 0.00238268
v -0.00627518 0.00555557 0.00283147
v -0.00642285 0.00570711 0.00270711
v -0.00653332 0.00579776 0.00259664
v -0.00659638 0.00583147 0.00255557
v -0.00674078 0.00590866 0.00241117
v -0.00635147 0.00564853 0.00275518
v -0.00609134 0.00525922 0.00296133
v -0.00615734 0.00538268 0.00292388
v -0.00620224 0.00546668 0.00287898
v -0.00120000 0.00000000 0.00000000
v -0.00117694 0.00023411 0.00000000
v -0.00110866 0.00045922 0.00000000
v -0.00099776 0.00066668 0.00000000
v -0.00120000 0.00000000 0.00300000
v -0.00117694 0.00023411 0.00300000
v -0.00110866 0.00045922 0.00300000
v -0.00099776 0.00066668 0.00300000
v -0.00084853 0.00084853 0.00000000
v -0.00066668 0.00099776 0.00000000
v -0.00045922 0.00110866 0.00000000
v -0.00023411 0.00117694 0.00000000
v -0.00084853 0.00084853 0.00300000
v -0.00066668 0.00099776 0.00300000
v -0.00045922 0.00110866 0.00300000
v -0.00023411 0.00117694 0.00300000
v -0.00600000 0.00480000 0.00300000
v -0.00910000 0.00000000 0.04000000
v -0.00907886 0.00021460 0.04000000
v -0.00901627 0.00042095 0.04000000
v -0.00910000 0.00000000 0.04600000
v -0.00907886 0.00021460 0.04600000
v -0.00901627 0.00042095 0.04600000
v -0.00891462 0.00061113 0.04000000
v -0.00877782 0.00077782 0.04000000
v -0.00861113 0.00091462 0.04000000
v -0.00842095 0.00101627 0.04000000
v -0.00821460 0.00107886 0.04000000
v -0.00800000 0.00110000 0.04000000
v -0.00778540 0.00107886 0.04000000
v -0.00757905 0.00101627 0.04000000
v -0.00690000 0.00000000 0.04000000
v -0.00692114 0.00021460 0.04000000
v -0.00698373 0.00042095 0.04000000
v -0.00708538 0.00061113 0.04000000
v -0.00738887 0.00091462 0.04000000
v -0.00722218 0.00077782 0.04000000
v -0.00891462 0.00061113 0.04600000
v -0.00877782 0.00077782 0.04600000
v -0.00861113 0.00091462 0.04600000
v -0.00842095 0.00101627 0.04600000
v -0.00821460 0.00107886 0.04600000
v -0.00800000 0.00110000 0.04600000
v -0.00778540 0.00107886 0.04600000
v -0.00757905 0.00101627 0.04600000
v -0.00690000 0.00000000 0.04600000
v -0.00692114 0.00021460 0.04600000
v -0.00698373 0.00042095 0.04600000
v -0.00708538 0.00061113 0.04600000
v -0.00738887 0.00091462 0.04600000
v -0.00722218 0.00077782 0.04600000
v -0.01155557 0.00500000 0.04016853
v -0.01138268 0.00500000 0.04007612
v -0.01160377 0.00521201 0.04023155
v -0.01140891 0.00520846 0.04011155
v -0.01119509 0.00500000 0.04001921
v -0.01100000 0.00500000 0.04000000
v -0.01120233 0.00520233 0.04004181
v -0.01100000 0.00519509 0.04001921
v -0.01142977 0.00542977 0.04020590
v -0.01120846 0.00540891 0.04011155
v -0.01100000 0.00538268 0.04007612
v -0.01121201 0.00560377 0.04023155
v -0.01100000 0.00555557 0.04016853
v -0.01000000 0.00480000 0.04000000
v -0.00998030 0.00500000 0.04000000
v -0.00997694 0.00503411 0.04000336
v -0.00992811 0.00519509 0.04001921
v -0.00990866 0.00525922 0.04003867
v -0.00984266 0.00538268 0.04007612
v -0.00979776 0.00546668 0.04012102
v -0.00972482 0.00555557 0.04016853
v -0.00964853 0.00564853 0.04024482
v -0.01183147 0.00500000 0.04044443
v -0.01192388 0.00500000 0.04061732
v -0.01198079 0.00500000 0.04080491
v -0.01170711 0.00500000 0.04029289
v -0.01200000 0.00500000 0.04100000
v -0.01188845 0.00520846 0.04059109
v -0.01195819 0.00520233 0.04079767
v -0.01176845 0.00521201 0.04039623
v -0.01198079 0.00519509 0.04100000
v -0.01200000 0.00500000 0.04500000
v -0.01198079 0.00500000 0.04519509
v -0.01192388 0.00500000 0.04538268
v -0.01183147 0.00500000 0.04555557
v -0.01170711 0.00500000 0.04570711
v -0.01198079 0.00519509 0.04500000
v -0.01195819 0.00520233 0.04520233
v -0.01188845 0.00520846 0.04540891
v -0.01176845 0.00521201 0.04560377
v -0.01155557 0.00500000 0.04583147
v -0.01138268 0.00500000 0.04592388
v -0.01160377 0.00521201 0.04576845
v -0.01140891 0.00520846 0.04588845
v -0.01119509 0.00500000 0.04598079
v -0.01100000 0.00500000 0.04600000
v -0.01120233 0.00520233 0.04595819
v -0.01100000 0.00519509 0.04598079
v -0.01188845 0.00540891 0.04079154
v -0.01179410 0.00542977 0.04057023
v -0.01192388 0.00538268 0.04100000
v -0.01163571 0.00543789 0.04036429
v -0.01176845 0.00560377 0.04078799
v -0.01183147 0.00555557 0.04100000
v -0.01163571 0.00563571 0.04056211
v -0.01170711 0.00570711 0.04100000
v -0.01143789 0.00563571 0.04036429
v -0.01160377 0.00576845 0.04078799
v -0.01142977 0.00579410 0.04057023
v -0.01140891 0.00588845 0.04079154
v -0.01155557 0.00583147 0.04100000
v -0.01138268 0.00592388 0.04100000
v -0.01121201 0.00576845 0.04039623
v -0.01100000 0.00570711 0.04029289
v -0.01120846 0.00588845 0.04059109
v -0.01120233 0.00595819 0.04079767
v -0.01100000 0.00583147 0.04044443
v -0.01100000 0.00592388 0.04061732
v -0.01100000 0.00598079 0.04080491
v -0.01119509 0.00598079 0.04100000
v -0.01100000 0.00600000 0.04100000
v -0.01192388 0.00538268 0.04500000
v -0.01188845 0.00540891 0.04520846
v -0.01179410 0.00542977 0.04542977
v -0.01183147 0.00555557 0.04500000
v -0.01176845 0.00560377 0.04521201
v -0.01163571 0.00543789 0.04563571
v -0.01142977 0.00542977 0.04579410
v -0.01170711 0.00570711 0.04500000
v -0.01163571 0.00563571 0.04543789
v -0.01160377 0.00576845 0.04521201
v -0.01143789 0.00563571 0.04563571
v -0.01142977 0.00579410 0.04542977
v -0.01155557 0.00583147 0.04500000
v -0.01140891 0.00588845 0.04520846
v -0.01138268 0.00592388 0.04500000
v -0.01120846 0.00540891 0.04588845
v -0.01100000 0.00538268 0.04592388
v -0.01121201 0.00560377 0.04576845
v -0.01100000 0.00555557 0.04583147
v -0.01121201 0.00576845 0.04560377
v -0.01100000 0.00570711 0.04570711
v -0.01119509 0.00598079 0.04500000
v -0.01120233 0.00595819 0.04520233
v -0.01100000 0.00600000 0.04500000
v -0.01100000 0.00598079 0.04519509
v -0.01120846 0.00588845 0.04540891
v -0.01100000 0.00583147 0.04555557
v -0.01100000 0.00592388 0.04538268
v -0.00957715 0.00570711 0.04029289
v -0.00946668 0.00579776 0.04040336
v -0.00940362 0.00583147 0.04044443
v -0.00925922 0.00590866 0.04058883
v -0.00920903 0.00592388 0.04061732
v -0.00903411 0.00597694 0.04079224
v -0.00601970 0.00500000 0.04000000
v -0.00602306 0.00503411 0.04000336
v -0.00607189 0.00519509 0.04001921
v -0.00609134 0.00525922 0.04003867
v -0.00615734 0.00538268 0.04007612
v -0.00620224 0.00546668 0.04012102
v -0.00627518 0.00555557 0.04016853
v -0.00635147 0.00564853 0.04024482
v -0.00899509 0.00598079 0.04080491
v -0.00880000 0.00600000 0.04100000
v -0.00720000 0.00600000 0.04100000
v -0.00700491 0.00598079 0.04080491
v -0.00696589 0.00597694 0.04079224
v -0.00679097 0.00592388 0.04061732
v -0.00642285 0.00570711 0.04029289
v -0.00653332 0.00579776 0.04040336
v -0.00659638 0.00583147 0.04044443
v -0.00674078 0.00590866 0.04058883
v -0.00600000 0.00480000 0.04000000
v 0.00000000 -0.00120000 0.00000000
v 0.00023411 -0.00117694 0.00000000
v 0.00045922 -0.00110866 0.00000000
v 0.00066668 -0.00099776 0.00000000
v 0.00084853 -0.00084853 0.00000000
v 0.00000000 -0.00120000 0.00300000
v 0.00023411 -0.00117694 0.00300000
v 0.00045922 -0.00110866 0.00300000
v 0.00066668 -0.00099776 0.00300000
v 0.00084853 -0.00084853 0.00300000
v 0.00099776 -0.00066668 0.00000000
v 0.00110866 -0.00045922 0.00000000
v 0.00117694 -0.00023411 0.00000000
v 0.00099776 -0.00066668 0.00300000
v 0.00110866 -0.00045922 0.00300000
v 0.00117694 -0.00023411 0.00300000
v 0.00635147 -0.00564853 0.00275518
v 0.00674078 -0.00590866 0.00241117
v 0.00659638 -0.00583147 0.00255557
v 0.00653332 -0.00579776 0.00259664
v 0.00642285 -0.00570711 0.00270711
v 0.00627518 -0.00555557 0.00283147
v 0.00679097 -0.00592388 0.00238268
v 0.00696589 -0.00597694 0.00220776
v 0.00700491 -0.00598079 0.00219509
v 0.00720000 -0.00600000 0.00200000
v 0.00620224 -0.00546668 0.00287898
v 0.00615734 -0.00538268 0.00292388
v 0.00609134 -0.00525922 0.00296133
v 0.00607189 -0.00519509 0.00298079
v 0.00602306 -0.00503411 0.00299664
v 0.00601970 -0.00500000 0.00300000
v 0.00600000 -0.00480000 0.00300000
v 0.00880000 -0.00600000 0.00200000
v 0.00899509 -0.00598079 0.00219509
v 0.00900000 -0.00592388 0.00061732
v 0.00900000 -0.00583147 0.00044443
v 0.00920846 -0.00588845 0.00059109
v 0.00900000 -0.00598079 0.00080491
v 0.00900000 -0.00600000 0.00100000
v 0.00920233 -0.00595819 0.00079767
v 0.00919509 -0.00598079 0.00100000
v 0.00900000 -0.00570711 0.00029289
v 0.00921201 -0.00576845 0.00039623
v 0.00938268 -0.00592388 0.00100000
v 0.00940891 -0.00588845 0.00079154
v 0.00955557 -0.00583147 0.00100000
v 0.00942977 -0.00579410 0.00057023
v 0.00943789 -0.00563571 0.00036429
v 0.00963571 -0.00563571 0.00056211
v 0.00960377 -0.00576845 0.00078799
v 0.00970711 -0.00570711 0.00100000
v 0.00900000 -0.00600000 0.00200000
v 0.00919509 -0.00598079 0.00200000
v 0.00900000 -0.00598079 0.00219509
v 0.00900000 -0.00598030 0.00219668
v 0.00903411 -0.00597694 0.00219642
v 0.00913409 -0.00594661 0.00226317
v 0.00920233 -0.00595819 0.00220233
v 0.00920525 -0.00592503 0.00230055
v 0.00925922 -0.00590866 0.00229651
v 0.00929703 -0.00588845 0.00232034
v 0.00938268 -0.00592388 0.00200000
v 0.00955557 -0.00583147 0.00200000
v 0.00940891 -0.00588845 0.00220846
v 0.00942390 -0.00582063 0.00236754
v 0.00970711 -0.00570711 0.00200000
v 0.00946668 -0.00579776 0.00235889
v 0.00948020 -0.00578667 0.00236665
v 0.00960377 -0.00576845 0.00221201
v 0.00962871 -0.00566479 0.00238840
v 0.00964853 -0.00564853 0.00238044
v 0.00966479 -0.00562871 0.00238840
v 0.00900000 -0.00555557 0.00016853
v 0.00921201 -0.00560377 0.00023155
v 0.00900000 -0.00538268 0.00007612
v 0.00920846 -0.00540891 0.00011155
v 0.00963571 -0.00543789 0.00036429
v 0.00942977 -0.00542977 0.00020590
v 0.00976845 -0.00560377 0.00078799
v 0.00983147 -0.00555557 0.00100000
v 0.00979410 -0.00542977 0.00057023
v 0.00988845 -0.00540891 0.00079154
v 0.00992388 -0.00538268 0.00100000
v 0.00983147 -0.00555557 0.00200000
v 0.00976845 -0.00560377 0.00221201
v 0.00978667 -0.00548020 0.00236665
v 0.00979776 -0.00546668 0.00235889
v 0.00992388 -0.00538268 0.00200000
v 0.00982063 -0.00542390 0.00236754
v 0.00988845 -0.00540891 0.00220846
v 0.00988845 -0.00529703 0.00232034
v 0.00990866 -0.00525922 0.00229651
v 0.00900000 -0.00519509 0.00001921
v 0.00920233 -0.00520233 0.00004181
v 0.00900000 -0.00500000 0.00000000
v 0.00919509 -0.00500000 0.00001921
v 0.00940891 -0.00520846 0.00011155
v 0.00960377 -0.00521201 0.00023155
v 0.00938268 -0.00500000 0.00007612
v 0.00955557 -0.00500000 0.00016853
v 0.00970711 -0.00500000 0.00029289
v 0.00976845 -0.00521201 0.00039623
v 0.00988845 -0.00520846 0.00059109
v 0.00995819 -0.00520233 0.00079767
v 0.00998079 -0.00519509 0.00100000
v 0.00983147 -0.00500000 0.00044443
v 0.00992388 -0.00500000 0.00061732
v 0.00998079 -0.00500000 0.00080491
v 0.01000000 -0.00500000 0.00100000
v 0.00998079 -0.00519509 0.00200000
v 0.00992503 -0.00520525 0.00230055
v 0.00995819 -0.00520233 0.00220233
v 0.00994661 -0.00513409 0.00226317
v 0.01000000 -0.00500000 0.00200000
v 0.00997694 -0.00503411 0.00219642
v 0.00998079 -0.00500000 0.00219509
v 0.00998079 -0.00499509 0.00219509
v 0.00998030 -0.00500000 0.00219668
v 0.01000000 -0.00480000 0.00200000
v 0.01000000 -0.00480000 0.00198000
v 0.00635147 -0.00564853 0.04024482
v 0.00627518 -0.00555557 0.04016853
v 0.00620224 -0.00546668 0.04012102
v 0.00615734 -0.00538268 0.04007612
v 0.00609134 -0.00525922 0.04003867
v 0.00607189 -0.00519509 0.04001921
v 0.00602306 -0.00503411 0.04000336
v 0.00601970 -0.00500000 0.04000000
v 0.00600000 -0.00480000 0.04000000
v 0.00674078 -0.00590866 0.04058883
v 0.00659638 -0.00583147 0.04044443
v 0.00653332 -0.00579776 0.04040336
v 0.00642285 -0.00570711 0.04029289
v 0.00679097 -0.00592388 0.04061732
v 0.00696589 -0.00597694 0.04079224
v 0.00700491 -0.00598079 0.04080491
v 0.00720000 -0.00600000 0.04100000
v 0.00899509 -0.00598079 0.04080491
v 0.00880000 -0.00600000 0.04100000
v 0.00964853 -0.00564853 0.04024482
v 0.00972482 -0.00555557 0.04016853
v 0.00979776 -0.00546668 0.04012102
v 0.00984266 -0.00538268 0.04007612
v 0.00990866 -0.00525922 0.04003867
v 0.00992811 -0.00519509 0.04001921
v 0.00997694 -0.00503411 0.04000336
v 0.00998030 -0.00500000 0.04000000
v 0.01000000 -0.00480000 0.04000000
v 0.01100000 -0.00555557 0.04016853
v 0.01121201 -0.00560377 0.04023155
v 0.01100000 -0.00538268 0.04007612
v 0.01120846 -0.00540891 0.04011155
v 0.01142977 -0.00542977 0.04020590
v 0.01100000 -0.00519509 0.04001921
v 0.01120233 -0.00520233 0.04004181
v 0.01100000 -0.00500000 0.04000000
v 0.01119509 -0.00500000 0.04001921
v 0.01140891 -0.00520846 0.04011155
v 0.01160377 -0.00521201 0.04023155
v 0.01138268 -0.00500000 0.04007612
v 0.01155557 -0.00500000 0.04016853
v 0.00903411 -0.00597694 0.04079224
v 0.00925922 -0.00590866 0.04058883
v 0.00920903 -0.00592388 0.04061732
v 0.00940362 -0.00583147 0.04044443
v 0.00946668 -0.00579776 0.04040336
v 0.00957715 -0.00570711 0.04029289
v 0.01100000 -0.00598079 0.04080491
v 0.01100000 -0.00592388 0.04061732
v 0.01100000 -0.00583147 0.04044443
v 0.01120233 -0.00595819 0.04079767
v 0.01120846 -0.00588845 0.04059109
v 0.01100000 -0.00600000 0.04100000
v 0.01119509 -0.00598079 0.04100000
v 0.01100000 -0.00570711 0.04029289
v 0.01121201 -0.00576845 0.04039623
v 0.01140891 -0.00588845 0.04079154
v 0.01138268 -0.00592388 0.04100000
v 0.01155557 -0.00583147 0.04100000
v 0.01142977 -0.00579410 0.04057023
v 0.01160377 -0.00576845 0.04078799
v 0.01143789 -0.00563571 0.04036429
v 0.01163571 -0.00563571 0.04056211
v 0.01170711 -0.00570711 0.04100000
v 0.01176845 -0.00560377 0.04078799
v 0.01163571 -0.00543789 0.04036429
v 0.01183147 -0.00555557 0.04100000
v 0.01179410 -0.00542977 0.04057023
v 0.01188845 -0.00540891 0.04079154
v 0.01192388 -0.00538268 0.04100000
v 0.01100000 -0.00600000 0.04500000
v 0.01100000 -0.00598079 0.04519509
v 0.01119509 -0.00598079 0.04500000
v 0.01120233 -0.00595819 0.04520233
v 0.01100000 -0.00592388 0.04538268
v 0.01100000 -0.00583147 0.04555557
v 0.01120846 -0.00588845 0.04540891
v 0.01100000 -0.00570711 0.04570711
v 0.01121201 -0.00576845 0.04560377
v 0.01100000 -0.00555557 0.04583147
v 0.01121201 -0.00560377 0.04576845
v 0.01100000 -0.00538268 0.04592388
v 0.01120846 -0.00540891 0.04588845
v 0.01138268 -0.00592388 0.04500000
v 0.01140891 -0.00588845 0.04520846
v 0.01155557 -0.00583147 0.04500000
v 0.01160377 -0.00576845 0.04521201
v 0.01142977 -0.00579410 0.04542977
v 0.01143789 -0.00563571 0.04563571
v 0.01170711 -0.00570711 0.04500000
v 0.01163571 -0.00563571 0.04543789
v 0.01142977 -0.00542977 0.04579410
v 0.01176845 -0.00560377 0.04521201
v 0.01183147 -0.00555557 0.04500000
v 0.01163571 -0.00543789 0.04563571
v 0.01188845 -0.00540891 0.04520846
v 0.01192388 -0.00538268 0.04500000
v 0.01179410 -0.00542977 0.04542977
v 0.01176845 -0.00521201 0.04039623
v 0.01188845 -0.00520846 0.04059109
v 0.01195819 -0.00520233 0.04079767
v 0.01198079 -0.00519509 0.04100000
v 0.01170711 -0.00500000 0.04029289
v 0.01183147 -0.00500000 0.04044443
v 0.01192388 -0.00500000 0.04061732
v 0.01198079 -0.00500000 0.04080491
v 0.01200000 -0.00500000 0.04100000
v 0.01100000 -0.00519509 0.04598079
v 0.01120233 -0.00520233 0.04595819
v 0.01100000 -0.00500000 0.04600000
v 0.01119509 -0.00500000 0.04598079
v 0.01140891 -0.00520846 0.04588845
v 0.01160377 -0.00521201 0.04576845
v 0.01138268 -0.00500000 0.04592388
v 0.01155557 -0.00500000 0.04583147
v 0.01198079 -0.00519509 0.04500000
v 0.01195819 -0.00520233 0.04520233
v 0.01176845 -0.00521201 0.04560377
v 0.01188845 -0.00520846 0.04540891
v 0.01200000 -0.00500000 0.04500000
v 0.01198079 -0.00500000 0.04519509
v 0.01170711 -0.00500000 0.04570711
v 0.01183147 -0.00500000 0.04555557
v 0.01192388 -0.00500000 0.04538268
v 0.00722218 -0.00077782 0.04000000
v 0.00738887 -0.00091462 0.04000000
v 0.00708538 -0.00061113 0.04000000
v 0.00698373 -0.00042095 0.04000000
v 0.00692114 -0.00021460 0.04000000
v 0.00757905 -0.00101627 0.04000000
v 0.00778540 -0.00107886 0.04000000
v 0.00800000 -0.00110000 0.04000000
v 0.00821460 -0.00107886 0.04000000
v 0.00842095 -0.00101627 0.04000000
v 0.00861113 -0.00091462 0.04000000
v 0.00877782 -0.00077782 0.04000000
v 0.00891462 -0.00061113 0.04000000
v 0.00722218 -0.00077782 0.04600000
v 0.00738887 -0.00091462 0.04600000
v 0.00708538 -0.00061113 0.04600000
v 0.00698373 -0.00042095 0.04600000
v 0.00692114 -0.00021460 0.04600000
v 0.00757905 -0.00101627 0.04600000
v 0.00778540 -0.00107886 0.04600000
v 0.00800000 -0.00110000 0.04600000
v 0.00821460 -0.00107886 0.04600000
v 0.00842095 -0.00101627 0.04600000
v 0.00861113 -0.00091462 0.04600000
v 0.00877782 -0.00077782 0.04600000
v 0.00891462 -0.00061113 0.04600000
v 0.00901627 -0.00042095 0.04000000
v 0.00907886 -0.00021460 0.04000000
v 0.00901627 -0.00042095 0.04600000
v 0.00907886 -0.00021460 0.04600000
v 0.00120000 0.00000000 0.00000000
v 0.00117694 0.00023411 0.00000000
v 0.00110866 0.00045922 0.00000000
v 0.00099776 0.00066668 0.00000000
v 0.00120000 0.00000000 0.00300000
v 0.00117694 0.00023411 0.00300000
v 0.00110866 0.00045922 0.00300000
v 0.00099776 0.00066668 0.00300000
v 0.00045922 0.00110866 0.00000000
v 0.00066668 0.00099776 0.00000000
v 0.00000000 0.00120000 0.00000000
v 0.00023411 0.00117694 0.00000000
v 0.00084853 0.00084853 0.00000000
v 0.00045922 0.00110866 0.00300000
v 0.00066668 0.00099776 0.00300000
v 0.00000000 0.00120000 0.00300000
v 0.00023411 0.00117694 0.00300000
v 0.00084853 0.00084853 0.00300000
v 0.00600000 0.00480000 0.00300000
v 0.00601970 0.00500000 0.00300000
v 0.00602306 0.00503411 0.00299664
v 0.00607189 0.00519509 0.00298079
v 0.00627518 0.00555557 0.00283147
v 0.00635147 0.00564853 0.00275518
v 0.00642285 0.00570711 0.00270711
v 0.00653332 0.00579776 0.00259664
v 0.00659638 0.00583147 0.00255557
v 0.00674078 0.00590866 0.00241117
v 0.00679097 0.00592388 0.00238268
v 0.00696589 0.00597694 0.00220776
v 0.00700491 0.00598079 0.00219509
v 0.00720000 0.00600000 0.00200000
v 0.00609134 0.00525922 0.00296133
v 0.00615734 0.00538268 0.00292388
v 0.00620224 0.00546668 0.00287898
v 0.00880000 0.00600000 0.00200000
v 0.00899509 0.00598079 0.00219509
v 0.00900000 0.00500000 0.00000000
v 0.00919509 0.00500000 0.00001921
v 0.00900000 0.00519509 0.00001921
v 0.00920233 0.00520233 0.00004181
v 0.00938268 0.00500000 0.00007612
v 0.00955557 0.00500000 0.00016853
v 0.00970711 0.00500000 0.00029289
v 0.00940891 0.00520846 0.00011155
v 0.00960377 0.00521201 0.00023155
v 0.01000000 0.00480000 0.00200000
v 0.00983147 0.00500000 0.00044443
v 0.00992388 0.00500000 0.00061732
v 0.00998079 0.00500000 0.00080491
v 0.01000000 0.00500000 0.00100000
v 0.00976845 0.00521201 0.00039623
v 0.00988845 0.00520846 0.00059109
v 0.00995819 0.00520233 0.00079767
v 0.00998079 0.00519509 0.00100000
v 0.01000000 0.00500000 0.00200000
v 0.00998079 0.00500000 0.00219509
v 0.00998079 0.00499509 0.00219509
v 0.00998030 0.00500000 0.00219668
v 0.00997694 0.00503411 0.00219642
v 0.00998079 0.00519509 0.00200000
v 0.00992503 0.00520525 0.00230055
v 0.00994661 0.00513409 0.00226317
v 0.00995819 0.00520233 0.00220233
v 0.00900000 0.00538268 0.00007612
v 0.00920846 0.00540891 0.00011155
v 0.00900000 0.00555557 0.00016853
v 0.00921201 0.00560377 0.00023155
v 0.00942977 0.00542977 0.00020590
v 0.00963571 0.00543789 0.00036429
v 0.00900000 0.00570711 0.00029289
v 0.00921201 0.00576845 0.00039623
v 0.00900000 0.00583147 0.00044443
v 0.00900000 0.00592388 0.00061732
v 0.00920846 0.00588845 0.00059109
v 0.00900000 0.00598079 0.00080491
v 0.00900000 0.00600000 0.00100000
v 0.00920233 0.00595819 0.00079767
v 0.00919509 0.00598079 0.00100000
v 0.00943789 0.00563571 0.00036429
v 0.00942977 0.00579410 0.00057023
v 0.00963571 0.00563571 0.00056211
v 0.00970711 0.00570711 0.00100000
v 0.00960377 0.00576845 0.00078799
v 0.00940891 0.00588845 0.00079154
v 0.00955557 0.00583147 0.00100000
v 0.00938268 0.00592388 0.00100000
v 0.00900000 0.00600000 0.00200000
v 0.00919509 0.00598079 0.00200000
v 0.00900000 0.00598079 0.00219509
v 0.00900000 0.00598030 0.00219668
v 0.00903411 0.00597694 0.00219642
v 0.00913409 0.00594661 0.00226317
v 0.00929703 0.00588845 0.00232034
v 0.00920525 0.00592503 0.00230055
v 0.00925922 0.00590866 0.00229651
v 0.00920233 0.00595819 0.00220233
v 0.00970711 0.00570711 0.00200000
v 0.00946668 0.00579776 0.00235889
v 0.00948020 0.00578667 0.00236665
v 0.00962871 0.00566479 0.00238840
v 0.00964853 0.00564853 0.00238044
v 0.00966479 0.00562871 0.00238840
v 0.00960377 0.00576845 0.00221201
v 0.00955557 0.00583147 0.00200000
v 0.00938268 0.00592388 0.00200000
v 0.00942390 0.00582063 0.00236754
v 0.00940891 0.00588845 0.00220846
v 0.00979410 0.00542977 0.00057023
v 0.00992388 0.00538268 0.00100000
v 0.00988845 0.00540891 0.00079154
v 0.00983147 0.00555557 0.00100000
v 0.00976845 0.00560377 0.00078799
v 0.00992388 0.00538268 0.00200000
v 0.00990866 0.00525922 0.00229651
v 0.00988845 0.00529703 0.00232034
v 0.00982063 0.00542390 0.00236754
v 0.00988845 0.00540891 0.00220846
v 0.00983147 0.00555557 0.00200000
v 0.00978667 0.00548020 0.00236665
v 0.00979776 0.00546668 0.00235889
v 0.00976845 0.00560377 0.00221201
v 0.00690000 0.00000000 0.04000000
v 0.00692114 0.00021460 0.04000000
v 0.00698373 0.00042095 0.04000000
v 0.00708538 0.00061113 0.04000000
v 0.00722218 0.00077782 0.04000000
v 0.00738887 0.00091462 0.04000000
v 0.00891462 0.00061113 0.04000000
v 0.00757905 0.00101627 0.04000000
v 0.00778540 0.00107886 0.04000000
v 0.00800000 0.00110000 0.04000000
v 0.00821460 0.00107886 0.04000000
v 0.00861113 0.00091462 0.04000000
v 0.00842095 0.00101627 0.04000000
v 0.00877782 0.00077782 0.04000000
v 0.00690000 0.00000000 0.04600000
v 0.00692114 0.00021460 0.04600000
v 0.00698373 0.00042095 0.04600000
v 0.00708538 0.00061113 0.04600000
v 0.00722218 0.00077782 0.04600000
v 0.00738887 0.00091462 0.04600000
v 0.00891462 0.00061113 0.04600000
v 0.00757905 0.00101627 0.04600000
v 0.00778540 0.00107886 0.04600000
v 0.00800000 0.00110000 0.04600000
v 0.00821460 0.00107886 0.04600000
v 0.00861113 0.00091462 0.04600000
v 0.00842095 0.00101627 0.04600000
v 0.00877782 0.00077782 0.04600000
v 0.00910000 0.00000000 0.04000000
v 0.00907886 0.00021460 0.04000000
v 0.00901627 0.00042095 0.04000000
v 0.00910000 0.00000000 0.04600000
v 0.00907886 0.00021460 0.04600000
v 0.00901627 0.00042095 0.04600000
v 0.00600000 0.00480000 0.04000000
v 0.00601970 0.00500000 0.04000000
v 0.00602306 0.00503411 0.04000336
v 0.00607189 0.00519509 0.04001921
v 0.00609134 0.00525922 0.04003867
v 0.00615734 0.00538268 0.04007612
v 0.00620224 0.00546668 0.04012102
v 0.00627518 0.00555557 0.04016853
v 0.00635147 0.00564853 0.04024482
v 0.00642285 0.00570711 0.04029289
v 0.00653332 0.00579776 0.04040336
v 0.00659638 0.00583147 0.04044443
v 0.00674078 0.00590866 0.04058883
v 0.00679097 0.00592388 0.04061732
v 0.00696589 0.00597694 0.04079224
v 0.00700491 0.00598079 0.04080491
v 0.00720000 0.00600000 0.04100000
v 0.00899509 0.00598079 0.04080491
v 0.00880000 0.00600000 0.04100000
v 0.01000000 0.00480000 0.04000000
v 0.00998030 0.00500000 0.04000000
v 0.00997694 0.00503411 0.04000336
v 0.00992811 0.00519509 0.04001921
v 0.00972482 0.00555557 0.04016853
v 0.00964853 0.00564853 0.04024482
v 0.00990866 0.00525922 0.04003867
v 0.00984266 0.00538268 0.04007612
v 0.00979776 0.00546668 0.04012102
v 0.01100000 0.00500000 0.04000000
v 0.01119509 0.00500000 0.04001921
v 0.01100000 0.00519509 0.04001921
v 0.01120233 0.00520233 0.04004181
v 0.01138268 0.00500000 0.04007612
v 0.01155557 0.00500000 0.04016853
v 0.01140891 0.00520846 0.04011155
v 0.01160377 0.00521201 0.04023155
v 0.01100000 0.00538268 0.04007612
v 0.01120846 0.00540891 0.04011155
v 0.01100000 0.00555557 0.04016853
v 0.01121201 0.00560377 0.04023155
v 0.01142977 0.00542977 0.04020590
v 0.00903411 0.00597694 0.04079224
v 0.00925922 0.00590866 0.04058883
v 0.00920903 0.00592388 0.04061732
v 0.00946668 0.00579776 0.04040336
v 0.00957715 0.00570711 0.04029289
v 0.00940362 0.00583147 0.04044443
v 0.01170711 0.00500000 0.04029289
v 0.01183147 0.00500000 0.04044443
v 0.01192388 0.00500000 0.04061732
v 0.01198079 0.00500000 0.04080491
v 0.01200000 0.00500000 0.04100000
v 0.01176845 0.00521201 0.04039623
v 0.01188845 0.00520846 0.04059109
v 0.01195819 0.00520233 0.04079767
v 0.01198079 0.00519509 0.04100000
v 0.01100000 0.00500000 0.04600000
v 0.01119509 0.00500000 0.04598079
v 0.01100000 0.00519509 0.04598079
v 0.01120233 0.00520233 0.04595819
v 0.01138268 0.00500000 0.04592388
v 0.01155557 0.00500000 0.04583147
v 0.01140891 0.00520846 0.04588845
v 0.01160377 0.00521201 0.04576845
v 0.01200000 0.00500000 0.04500000
v 0.01198079 0.00500000 0.04519509
v 0.01170711 0.00500000 0.04570711
v 0.01183147 0.00500000 0.04555557
v 0.01192388 0.00500000 0.04538268
v 0.01198079 0.00519509 0.04500000
v 0.01195819 0.00520233 0.04520233
v 0.01176845 0.00521201 0.04560377
v 0.01188845 0.00520846 0.04540891
v 0.01100000 0.00570711 0.04029289
v 0.01121201 0.00576845 0.04039623
v 0.01100000 0.00583147 0.04044443
v 0.01100000 0.00592388 0.04061732
v 0.01100000 0.00598079 0.04080491
v 0.01120846 0.00588845 0.04059109
v 0.01120233 0.00595819 0.04079767
v 0.01100000 0.00600000 0.04100000
v 0.01119509 0.00598079 0.04100000
v 0.01179410 0.00542977 0.04057023
v 0.01188845 0.00540891 0.04079154
v 0.01192388 0.00538268 0.04100000
v 0.01163571 0.00543789 0.04036429
v 0.01176845 0.00560377 0.04078799
v 0.01183147 0.00555557 0.04100000
v 0.01142977 0.00579410 0.04057023
v 0.01143789 0.00563571 0.04036429
v 0.01160377 0.00576845 0.04078799
v 0.01140891 0.00588845 0.04079154
v 0.01138268 0.00592388 0.04100000
v 0.01155557 0.00583147 0.04100000
v 0.01163571 0.00563571 0.04056211
v 0.01170711 0.00570711 0.04100000
v 0.01100000 0.00538268 0.04592388
v 0.01120846 0.00540891 0.04588845
v 0.01100000 0.00555557 0.04583147
v 0.01121201 0.00560377 0.04576845
v 0.01100000 0.00570711 0.04570711
v 0.01121201 0.00576845 0.04560377
v 0.01100000 0.00600000 0.04500000
v 0.01100000 0.00598079 0.04519509
v 0.01119509 0.00598079 0.04500000
v 0.01120233 0.00595819 0.04520233
v 0.01100000 0.00583147 0.04555557
v 0.01100000 0.00592388 0.04538268
v 0.01120846 0.00588845 0.04540891
v 0.01142977 0.00542977 0.04579410
v 0.01188845 0.00540891 0.04520846
v 0.01192388 0.00538268 0.04500000
v 0.01179410 0.00542977 0.04542977
v 0.01176845 0.00560377 0.04521201
v 0.01183147 0.00555557 0.04500000
v 0.01163571 0.00543789 0.04563571
v 0.01160377 0.00576845 0.04521201
v 0.01142977 0.00579410 0.04542977
v 0.01143789 0.00563571 0.04563571
v 0.01140891 0.00588845 0.04520846
v 0.01138268 0.00592388 0.04500000
v 0.01155557 0.00583147 0.04500000
v 0.01170711 0.00570711 0.04500000
v 0.01163571 0.00563571 0.04543789
f 8 133 12
f 12 133 13
f 13 133 14
f 34 35 221
f 33 34 136
f 36 37 221
f 35 36 221
f 30 221 37
f 40 219 42
f 30 42 219
f 43 44 224
f 44 83 224
f 83 84 224
f 40 41 224
f 41 43 224
f 9 33 136
f 8 9 136
f 59 60 139
f 59 139 62
f 14 138 60
f 62 140 65
f 64 65 141
f 64 141 67
f 81 233 84
f 81 89 235
f 89 90 235
f 90 91 237
f 91 92 237
f 92 93 239
f 93 94 239
f 94 95 241
f 95 96 225
f 96 97 225
f 97 98 225
f 98 99 227
f 99 100 227
f 100 101 229
f 101 102 231
f 102 103 231
f 103 104 231
f 104 105 273
f 66 67 274
f 67 141 274
f 8 137 133
f 14 133 134
f 14 134 135
f 30 219 221
f 34 220 136
f 34 221 220
f 40 223 222
f 40 222 219
f 40 224 223
f 84 233 224
f 8 136 137
f 60 138 139
f 14 135 138
f 62 139 140
f 65 140 141
f 81 234 233
f 81 235 234
f 90 236 235
f 90 237 236
f 92 238 237
f 92 239 238
f 94 241 240
f 94 240 239
f 95 242 241
f 95 225 242
f 98 226 225
f 98 227 226
f 100 228 227
f 100 229 228
f 101 231 230
f 101 230 229
f 104 232 231
f 104 273 232
f 105 552 273
f 141 275 274
f 275 442 286
f 286 443 287
f 287 443 288
f 288 444 290
f 290 444 292
f 292 444 306
f 306 446 307
f 307 447 309
f 309 448 311
f 311 448 312
f 312 449 331
f 331 450 332
f 332 450 333
f 333 450 335
f 335 450 336
f 336 529 339
f 339 529 342
f 342 529 343
f 343 531 344
f 346 533 347
f 347 533 360
f 344 533 346
f 360 542 361
f 358 361 543
f 358 543 365
f 362 535 394
f 362 363 535
f 363 364 536
f 364 375 536
f 365 544 366
f 367 547 368
f 366 544 367
f 368 547 373
f 375 376 539
f 369 540 377
f 369 374 540
f 376 377 539
f 370 549 374
f 370 371 549
f 372 373 550
f 371 372 550
f 105 394 552
f 141 442 275
f 286 442 443
f 288 443 444
f 306 444 445
f 306 445 446
f 307 446 447
f 309 447 448
f 312 448 449
f 331 449 450
f 336 450 528
f 336 528 529
f 343 529 530
f 343 530 531
f 344 531 532
f 344 532 533
f 360 533 542
f 361 542 543
f 365 543 544
f 394 534 552
f 394 535 534
f 363 536 535
f 375 537 536
f 367 544 545
f 367 545 546
f 367 546 547
f 373 547 551
f 375 538 537
f 375 539 538
f 377 540 539
f 374 541 540
f 374 548 541
f 374 549 548
f 371 550 549
f 373 551 550
f 571 684 572
f 570 684 571
f 572 685 573
f 569 573 685
f 579 676 580
f 574 674 579
f 569 674 574
f 580 676 581
f 576 577 689
f 577 578 689
f 570 575 688
f 575 576 688
f 581 679 582
f 582 679 583
f 583 681 584
f 584 681 585
f 578 586 692
f 586 587 692
f 587 608 691
f 608 609 715
f 609 610 715
f 612 613 716
f 613 614 716
f 614 618 716
f 610 612 715
f 618 620 719
f 620 621 693
f 621 623 693
f 623 624 693
f 624 625 693
f 625 639 694
f 639 640 695
f 640 642 695
f 642 644 696
f 644 645 697
f 645 664 699
f 664 666 699
f 666 668 699
f 668 671 700
f 670 700 671
f 670 672 701
f 585 682 846
f 570 683 684
f 572 684 685
f 569 685 686
f 569 686 674
f 579 674 675
f 579 675 676
f 581 676 677
f 581 677 678
f 570 687 683
f 570 688 687
f 576 689 688
f 578 690 689
f 581 678 679
f 583 679 680
f 583 680 681
f 585 681 682
f 578 692 690
f 587 691 692
f 608 715 691
f 612 717 715
f 612 716 717
f 618 718 716
f 618 719 718
f 620 720 719
f 620 693 720
f 625 694 693
f 639 695 694
f 642 696 695
f 644 697 696
f 645 698 697
f 645 699 698
f 668 700 699
f 670 701 700
f 672 1003 701
f 672 874 1003
f 846 984 847
f 847 986 848
f 848 986 849
f 849 986 860
f 860 988 861
f 861 990 862
f 850 862 990
f 850 992 851
f 851 992 852
f 852 992 853
f 853 994 854
f 854 994 855
f 857 998 858
f 855 996 856
f 856 998 857
f 858 1000 859
f 859 1000 863
f 863 1002 864
f 918 1002 919
f 864 1002 918
f 874 885 1005
f 885 886 1005
f 886 887 1005
f 889 942 1006
f 887 890 1005
f 889 1005 890
f 930 1011 947
f 929 1007 930
f 919 1027 920
f 920 1027 922
f 921 1030 934
f 921 923 1030
f 922 1026 923
f 926 934 1028
f 927 1028 928
f 926 1028 927
f 928 1028 929
f 942 943 1011
f 943 944 1011
f 947 1011 948
f 944 948 1011
f 682 984 846
f 847 984 985
f 847 985 986
f 860 986 987
f 860 987 988
f 861 988 989
f 861 989 990
f 850 990 991
f 850 991 992
f 853 992 993
f 853 993 994
f 855 994 995
f 855 995 996
f 856 996 997
f 856 997 998
f 858 998 999
f 858 999 1000
f 863 1000 1002
f 919 1002 1001
f 874 1004 1003
f 874 1005 1004
f 942 1009 1006
f 889 1006 1005
f 930 1007 1011
f 929 1008 1007
f 919 1001 1025
f 919 1025 1027
f 923 1026 1030
f 922 1027 1026
f 929 1029 1008
f 929 1028 1029
f 934 1030 1028
f 942 1010 1009
f 942 1011 1010
f 120 123 121
f 120 125 126
f 120 126 123
f 123 126 129
f 121 122 164
f 121 123 122
f 122 123 124
f 123 129 124
f 124 129 130
f 122 137 164
f 122 124 133
f 124 130 135
f 125 200 127
f 125 127 126
f 126 127 128
f 126 128 129
f 128 131 129
f 129 131 130
f 130 131 132
f 130 132 140
f 136 164 137
f 122 133 137
f 124 134 133
f 124 135 134
f 130 140 139
f 130 138 135
f 130 139 138
f 132 141 140
f 143 150 147
f 142 147 150
f 144 146 145
f 144 147 149
f 144 145 147
f 146 156 161
f 144 157 156
f 144 156 146
f 149 163 157
f 144 149 157
f 143 147 145
f 142 149 147
f 142 148 149
f 148 163 149
f 121 163 148
f 143 145 165
f 143 165 152
f 145 146 167
f 146 161 180
f 150 152 153
f 150 153 154
f 152 155 153
f 143 152 150
f 142 150 154
f 142 154 151
f 153 193 154
f 154 193 195
f 153 155 194
f 153 194 193
f 155 196 194
f 151 154 195
f 125 151 195
f 142 151 148
f 120 148 151
f 120 121 148
f 120 151 125
f 152 176 155
f 155 202 196
f 156 159 158
f 156 158 161
f 158 162 161
f 156 157 159
f 157 160 159
f 157 163 160
f 160 163 164
f 121 164 163
f 161 162 180
f 146 168 167
f 146 180 168
f 145 167 165
f 165 170 174
f 166 174 170
f 167 168 169
f 167 169 170
f 168 180 181
f 168 181 169
f 169 181 184
f 169 172 170
f 169 184 172
f 172 184 187
f 165 167 170
f 166 170 172
f 166 172 171
f 171 172 187
f 171 187 189
f 152 173 176
f 152 165 173
f 155 176 202
f 173 174 177
f 173 177 176
f 165 174 173
f 174 178 177
f 166 178 174
f 166 175 178
f 176 177 203
f 176 203 202
f 177 204 203
f 177 178 204
f 178 205 204
f 175 205 178
f 175 211 205
f 166 171 175
f 171 179 175
f 171 189 179
f 179 189 191
f 175 179 211
f 179 212 211
f 179 191 212
f 191 215 212
f 162 182 180
f 180 182 183
f 180 183 181
f 181 183 185
f 181 185 184
f 184 185 186
f 184 186 187
f 186 188 187
f 187 188 189
f 188 190 189
f 189 190 191
f 190 192 191
f 191 192 215
f 192 216 215
f 193 197 195
f 193 198 197
f 193 194 198
f 194 196 199
f 194 199 198
f 196 201 199
f 195 197 200
f 125 195 200
f 196 202 201
f 201 202 206
f 202 203 207
f 202 207 206
f 203 208 207
f 203 204 208
f 204 205 209
f 204 209 208
f 205 210 209
f 205 211 210
f 210 211 213
f 211 212 213
f 212 214 213
f 212 215 214
f 214 215 217
f 215 216 217
f 216 218 217
f 158 159 224
f 158 233 162
f 159 160 219
f 160 164 221
f 160 221 219
f 159 222 223
f 159 219 222
f 164 220 221
f 136 220 164
f 158 224 233
f 159 223 224
f 162 233 234
f 127 200 429
f 127 429 128
f 128 433 131
f 131 433 132
f 132 434 141
f 197 198 452
f 198 199 452
f 199 201 453
f 197 451 200
f 201 206 455
f 206 207 461
f 207 208 462
f 208 209 463
f 209 210 464
f 210 213 464
f 213 214 470
f 214 217 473
f 217 218 473
f 218 263 261
f 218 261 262
f 218 264 263
f 218 260 267
f 218 262 260
f 218 267 245
f 218 245 474
f 218 265 264
f 218 266 265
f 218 268 266
f 218 269 268
f 162 744 182
f 182 744 183
f 183 745 185
f 185 748 186
f 186 751 188
f 188 751 190
f 190 753 192
f 192 781 216
f 216 781 218
f 225 226 674
f 226 227 675
f 227 228 675
f 228 229 677
f 229 230 677
f 230 231 679
f 231 232 680
f 232 273 681
f 238 239 683
f 237 238 689
f 236 237 689
f 235 236 690
f 162 234 744
f 239 240 683
f 240 241 684
f 241 242 684
f 225 674 242
f 234 235 744
f 218 783 269
f 273 552 682
f 783 270 269
f 783 271 270
f 783 272 271
f 783 423 272
f 783 424 423
f 783 425 424
f 783 426 425
f 783 428 426
f 474 245 246
f 128 429 430
f 128 430 433
f 132 433 434
f 141 434 442
f 197 452 451
f 199 453 452
f 201 455 453
f 200 451 454
f 200 454 429
f 206 460 455
f 206 461 460
f 207 462 461
f 208 463 462
f 209 464 463
f 213 469 464
f 213 470 469
f 214 473 470
f 218 474 473
f 474 246 398
f 474 398 399
f 474 399 400
f 474 400 415
f 474 415 416
f 474 416 417
f 474 417 418
f 474 418 419
f 474 419 420
f 474 427 428
f 474 420 421
f 474 422 427
f 474 421 422
f 429 454 431
f 429 432 430
f 429 431 432
f 430 435 433
f 430 432 435
f 433 436 434
f 433 435 436
f 434 436 443
f 431 437 432
f 432 438 435
f 432 437 438
f 437 440 438
f 435 439 436
f 435 438 439
f 438 441 439
f 438 440 441
f 440 492 441
f 436 439 445
f 439 441 447
f 441 492 449
f 434 443 442
f 436 444 443
f 436 445 444
f 439 446 445
f 439 447 446
f 441 448 447
f 441 449 448
f 449 492 450
f 451 452 456
f 451 456 458
f 452 453 457
f 453 455 459
f 452 457 456
f 453 459 457
f 451 458 454
f 431 454 458
f 455 465 459
f 455 460 465
f 460 461 465
f 461 462 466
f 461 466 465
f 462 467 466
f 462 463 467
f 463 468 467
f 463 464 468
f 464 471 468
f 464 469 471
f 469 470 472
f 469 472 471
f 470 473 475
f 470 475 472
f 473 474 476
f 473 476 475
f 456 478 458
f 456 457 477
f 457 459 479
f 457 479 477
f 456 477 478
f 431 458 480
f 458 478 480
f 477 481 478
f 477 479 482
f 477 482 481
f 478 483 480
f 478 481 483
f 481 482 484
f 431 480 437
f 437 480 485
f 480 483 485
f 437 485 440
f 459 500 479
f 479 500 482
f 481 486 483
f 481 484 486
f 483 487 485
f 483 486 487
f 484 489 486
f 440 485 491
f 485 487 491
f 486 488 487
f 486 489 488
f 488 489 490
f 487 493 491
f 487 488 493
f 488 494 493
f 488 490 494
f 490 498 494
f 482 507 484
f 484 507 489
f 489 514 490
f 490 514 498
f 440 491 492
f 491 495 492
f 491 493 495
f 493 496 495
f 493 494 496
f 494 497 496
f 494 498 497
f 497 498 499
f 492 495 528
f 498 521 499
f 459 465 500
f 482 500 503
f 482 503 507
f 465 466 500
f 466 467 501
f 466 501 500
f 467 468 502
f 467 502 501
f 468 471 505
f 468 505 502
f 500 501 503
f 501 504 503
f 503 504 507
f 501 502 504
f 502 505 508
f 502 508 504
f 471 472 506
f 471 506 505
f 472 475 515
f 472 515 506
f 505 506 510
f 505 510 508
f 506 515 517
f 506 517 510
f 489 507 512
f 489 512 514
f 498 514 521
f 504 509 507
f 504 508 509
f 507 509 512
f 508 510 511
f 508 511 509
f 510 517 519
f 510 519 511
f 509 513 512
f 512 513 514
f 513 522 514
f 513 525 522
f 514 522 521
f 509 511 513
f 511 525 513
f 511 519 525
f 475 476 516
f 475 516 515
f 515 516 518
f 515 518 517
f 517 518 520
f 499 521 523
f 517 520 519
f 519 520 526
f 521 524 523
f 521 522 524
f 522 527 524
f 519 526 525
f 525 526 527
f 522 525 527
f 495 496 530
f 496 497 532
f 497 499 542
f 450 492 528
f 495 529 528
f 495 530 529
f 496 531 530
f 496 532 531
f 497 533 532
f 497 542 533
f 499 543 542
f 474 428 783
f 474 1040 476
f 476 1080 516
f 516 1080 518
f 518 1082 520
f 499 523 1086
f 520 1090 526
f 523 524 1086
f 524 527 1087
f 526 1090 527
f 534 985 552
f 534 535 985
f 535 536 986
f 536 537 987
f 538 539 989
f 537 538 989
f 539 540 989
f 540 541 991
f 541 548 991
f 547 995 551
f 545 997 546
f 544 999 545
f 546 997 547
f 499 1086 543
f 548 549 993
f 550 551 995
f 549 550 995
f 543 1086 544
f 226 675 674
f 228 676 675
f 230 678 677
f 228 677 676
f 230 679 678
f 231 680 679
f 232 681 680
f 273 682 681
f 238 683 687
f 240 684 683
f 242 685 684
f 242 686 685
f 242 674 686
f 238 687 688
f 238 688 689
f 236 689 690
f 235 690 744
f 183 744 745
f 185 745 748
f 186 748 749
f 186 749 751
f 190 751 753
f 192 753 755
f 192 755 781
f 218 781 783
f 474 783 811
f 693 694 728
f 694 695 702
f 695 696 702
f 696 697 704
f 697 698 704
f 698 699 707
f 699 700 707
f 700 701 709
f 694 702 728
f 696 704 702
f 698 707 704
f 702 703 728
f 702 705 703
f 702 704 705
f 704 708 705
f 704 707 708
f 703 705 706
f 705 711 706
f 705 708 711
f 706 711 712
f 700 709 707
f 707 710 708
f 707 709 710
f 708 713 711
f 708 710 713
f 711 714 712
f 711 713 714
f 712 714 776
f 691 726 692
f 715 717 721
f 691 715 721
f 690 692 744
f 716 722 717
f 716 718 722
f 718 719 723
f 719 720 723
f 693 728 720
f 691 721 726
f 717 722 721
f 718 723 722
f 692 726 744
f 720 728 723
f 721 722 724
f 721 727 726
f 721 724 727
f 722 725 724
f 722 723 725
f 723 729 725
f 723 728 729
f 703 729 728
f 726 727 746
f 724 731 727
f 724 725 730
f 724 730 731
f 725 729 733
f 725 733 730
f 730 732 731
f 730 733 734
f 730 734 732
f 729 735 733
f 703 735 729
f 732 734 737
f 733 736 734
f 733 735 736
f 734 738 737
f 734 736 738
f 727 731 746
f 731 732 759
f 732 737 763
f 737 740 763
f 703 706 735
f 735 739 736
f 706 739 735
f 706 712 739
f 737 738 740
f 736 741 738
f 736 739 741
f 738 742 740
f 738 741 742
f 740 742 743
f 739 772 741
f 712 772 739
f 741 773 742
f 741 772 773
f 742 774 743
f 742 773 774
f 743 774 775
f 740 743 770
f 743 775 770
f 726 746 744
f 744 746 745
f 745 747 748
f 745 746 747
f 747 750 748
f 748 750 749
f 749 750 752
f 749 752 751
f 751 752 754
f 751 754 753
f 753 754 756
f 753 756 755
f 755 756 782
f 755 782 781
f 731 757 746
f 731 759 757
f 732 763 759
f 746 757 747
f 747 758 750
f 747 757 758
f 757 759 758
f 758 759 760
f 750 761 752
f 750 758 761
f 758 760 761
f 759 763 760
f 752 761 762
f 752 762 754
f 760 764 761
f 761 764 762
f 760 763 766
f 760 766 764
f 740 767 763
f 740 770 767
f 770 775 789
f 754 762 765
f 754 765 756
f 762 764 768
f 762 768 765
f 756 765 785
f 756 785 782
f 765 768 786
f 765 786 785
f 763 767 766
f 766 767 769
f 767 770 769
f 764 766 771
f 764 771 768
f 766 769 771
f 769 770 790
f 770 789 790
f 769 790 792
f 768 771 791
f 768 791 786
f 769 792 771
f 771 792 791
f 712 776 772
f 772 776 777
f 772 777 773
f 773 777 778
f 773 778 774
f 774 779 775
f 774 778 779
f 775 779 780
f 775 780 793
f 781 782 784
f 781 784 783
f 775 793 789
f 782 785 787
f 782 787 784
f 785 786 788
f 785 788 787
f 786 795 788
f 789 794 790
f 789 793 794
f 790 794 797
f 791 796 795
f 786 791 795
f 791 792 796
f 792 797 796
f 790 797 792
f 783 817 816
f 783 816 812
f 783 818 817
f 783 812 811
f 701 1003 709
f 709 1012 710
f 710 1016 713
f 713 1016 714
f 783 819 818
f 783 820 819
f 783 821 820
f 783 822 821
f 783 823 822
f 783 826 823
f 783 827 826
f 783 981 827
f 714 1031 776
f 776 1031 777
f 777 1033 778
f 778 1033 779
f 779 1035 780
f 783 784 1041
f 780 1048 793
f 784 787 1044
f 787 788 1044
f 793 1049 794
f 794 1049 797
f 788 795 1050
f 795 796 1050
f 796 797 1051
f 474 811 813
f 474 813 814
f 474 814 815
f 552 984 682
f 474 815 964
f 474 964 965
f 474 965 966
f 474 966 967
f 474 967 968
f 474 968 969
f 474 969 971
f 474 971 972
f 474 972 973
f 474 973 974
f 474 974 1040
f 552 985 984
f 535 986 985
f 536 987 986
f 537 988 987
f 537 989 988
f 540 990 989
f 540 991 990
f 548 992 991
f 548 993 992
f 549 994 993
f 549 995 994
f 547 996 995
f 547 997 996
f 545 998 997
f 545 999 998
f 544 1000 999
f 476 1040 1042
f 544 1086 1000
f 476 1042 1080
f 518 1080 1082
f 520 1082 1084
f 520 1084 1090
f 524 1087 1086
f 527 1090 1091
f 527 1091 1087
f 783 1040 981
f 709 1003 1012
f 710 1012 1013
f 710 1013 1016
f 714 1016 1017
f 714 1017 1031
f 1040 982 981
f 1040 983 982
f 1040 970 983
f 1040 975 977
f 1040 977 970
f 1040 976 975
f 1040 974 976
f 777 1031 1032
f 777 1032 1033
f 779 1033 1034
f 779 1034 1035
f 780 1035 1048
f 783 1041 1040
f 784 1044 1041
f 788 1045 1044
f 788 1050 1045
f 793 1048 1049
f 796 1051 1050
f 797 1052 1051
f 797 1049 1052
f 1003 1004 1012
f 1005 1006 1014
f 1004 1005 1014
f 1007 1008 1022
f 1006 1009 1020
f 1009 1010 1020
f 1010 1011 1020
f 1007 1022 1011
f 1004 1014 1012
f 1012 1014 1013
f 1013 1014 1015
f 1013 1015 1016
f 1015 1018 1016
f 1016 1018 1017
f 1017 1018 1019
f 1017 1019 1031
f 1006 1020 1014
f 1011 1022 1020
f 1014 1020 1015
f 1015 1020 1021
f 1020 1022 1021
f 1021 1022 1023
f 1022 1057 1023
f 1008 1057 1022
f 1015 1021 1018
f 1018 1021 1024
f 1018 1024 1019
f 1021 1023 1024
f 1001 1002 1064
f 1025 1060 1027
f 1001 1061 1025
f 1000 1086 1002
f 1008 1029 1057
f 1028 1059 1029
f 1026 1059 1030
f 1026 1027 1060
f 1028 1030 1059
f 1026 1060 1059
f 1025 1061 1060
f 1001 1064 1061
f 1002 1086 1064
f 1019 1036 1031
f 1031 1036 1032
f 1032 1037 1033
f 1032 1036 1037
f 1033 1038 1034
f 1034 1039 1035
f 1033 1037 1038
f 1034 1038 1039
f 1035 1039 1048
f 1040 1041 1042
f 1041 1043 1042
f 1039 1053 1048
f 1041 1044 1043
f 1043 1044 1046
f 1044 1045 1046
f 1045 1047 1046
f 1045 1050 1047
f 1048 1053 1049
f 1049 1054 1052
f 1049 1053 1054
f 1050 1051 1055
f 1047 1050 1055
f 1051 1052 1056
f 1051 1056 1055
f 1052 1054 1056
f 1029 1059 1057
f 1023 1057 1058
f 1057 1059 1058
f 1058 1059 1062
f 1059 1060 1062
f 1060 1063 1062
f 1060 1061 1063
f 1061 1064 1065
f 1061 1065 1063
f 1064 1086 1065
f 1019 1024 1069
f 1023 1073 1024
f 1024 1073 1069
f 1069 1073 1078
f 1019 1069 1036
f 1036 1069 1066
f 1036 1066 1037
f 1037 1067 1038
f 1038 1068 1039
f 1038 1067 1068
f 1037 1066 1067
f 1066 1069 1078
f 1066 1078 1070
f 1070 1079 1071
f 1066 1070 1067
f 1067 1071 1068
f 1067 1070 1071
f 1039 1068 1053
f 1071 1079 1098
f 1068 1071 1098
f 1023 1058 1073
f 1058 1072 1073
f 1072 1078 1073
f 1072 1074 1078
f 1074 1077 1079
f 1058 1062 1072
f 1062 1075 1072
f 1062 1063 1075
f 1063 1076 1075
f 1063 1065 1076
f 1072 1075 1074
f 1074 1075 1077
f 1075 1076 1077
f 1070 1078 1074
f 1070 1074 1079
f 1077 1105 1079
f 1065 1104 1076
f 1076 1104 1077
f 1042 1043 1080
f 1043 1081 1080
f 1080 1081 1082
f 1081 1083 1082
f 1082 1083 1084
f 1065 1086 1088
f 1083 1085 1084
f 1084 1085 1090
f 1086 1087 1088
f 1087 1091 1089
f 1087 1089 1088
f 1085 1092 1090
f 1090 1092 1091
f 1089 1091 1092
f 1053 1068 1095
f 1068 1098 1095
f 1043 1046 1081
f 1046 1093 1081
f 1046 1047 1093
f 1047 1099 1093
f 1081 1093 1083
f 1083 1093 1102
f 1093 1099 1102
f 1099 1107 1102
f 1053 1095 1054
f 1054 1094 1056
f 1054 1095 1094
f 1047 1055 1099
f 1055 1096 1099
f 1055 1056 1096
f 1056 1094 1096
f 1097 1098 1106
f 1094 1095 1098
f 1094 1098 1097
f 1096 1107 1099
f 1096 1097 1107
f 1094 1097 1096
f 1065 1088 1104
f 1077 1104 1105
f 1079 1106 1098
f 1079 1105 1106
f 1100 1106 1105
f 1083 1102 1085
f 1085 1102 1101
f 1101 1102 1107
f 1100 1101 1107
f 1089 1092 1103
f 1089 1103 1104
f 1088 1089 1104
f 1100 1105 1103
f 1103 1105 1104
f 1085 1101 1092
f 1092 1101 1103
f 1100 1103 1101
f 1097 1106 1100
f 1097 1100 1107
f 1 4 3
f 1 22 2
f 2 5 4
f 1 2 4
f 2 10 5
f 3 4 49
f 3 49 50
f 5 52 51
f 5 10 52
f 4 5 51
f 4 51 49
f 2 31 6
f 6 31 7
f 2 6 10
f 6 11 10
f 6 7 11
f 7 8 11
f 7 9 8
f 10 57 52
f 10 58 57
f 10 11 58
f 11 12 13
f 8 12 11
f 11 13 14
f 11 14 58
f 17 21 19
f 16 21 17
f 15 16 17
f 15 28 16
f 1 18 21
f 18 19 21
f 18 20 19
f 16 22 21
f 16 31 22
f 1 21 22
f 2 22 31
f 19 26 23
f 17 19 23
f 23 75 24
f 23 26 76
f 23 76 75
f 15 17 24
f 15 24 25
f 17 23 24
f 15 25 38
f 24 77 25
f 24 75 77
f 25 77 78
f 25 78 38
f 19 20 26
f 20 47 26
f 26 79 76
f 26 47 79
f 15 27 28
f 28 29 32
f 27 29 28
f 29 37 32
f 29 42 30
f 29 30 37
f 16 28 31
f 28 32 31
f 7 31 32
f 32 36 35
f 7 32 34
f 7 34 33
f 32 35 34
f 32 37 36
f 15 38 27
f 27 39 29
f 27 38 39
f 38 78 80
f 38 82 39
f 38 80 82
f 29 39 42
f 39 40 42
f 39 41 40
f 39 44 43
f 39 43 41
f 39 82 44
f 44 82 83
f 1 3 18
f 18 45 20
f 3 45 18
f 20 45 46
f 3 50 45
f 45 50 68
f 45 68 46
f 46 68 69
f 20 46 47
f 46 48 47
f 47 85 79
f 47 48 85
f 48 86 85
f 46 69 48
f 48 69 73
f 48 73 86
f 73 87 86
f 7 33 9
f 49 51 53
f 49 53 54
f 49 54 50
f 50 54 70
f 51 52 55
f 51 55 53
f 52 56 55
f 52 57 56
f 56 61 66
f 56 57 61
f 57 58 63
f 57 63 61
f 58 60 59
f 58 59 62
f 58 62 63
f 14 60 58
f 61 63 64
f 61 64 67
f 62 65 63
f 63 65 64
f 61 67 66
f 50 70 68
f 68 70 71
f 68 71 69
f 69 71 72
f 69 72 73
f 72 74 73
f 73 74 87
f 74 88 87
f 80 84 82
f 80 81 84
f 82 84 83
f 53 277 54
f 55 56 278
f 53 55 278
f 56 66 274
f 54 293 70
f 70 294 71
f 71 295 72
f 72 295 74
f 74 348 88
f 75 76 589
f 75 591 77
f 77 592 78
f 78 592 80
f 76 79 589
f 80 592 81
f 81 592 89
f 89 577 90
f 90 577 91
f 91 575 92
f 92 571 93
f 79 85 626
f 85 86 628
f 86 87 628
f 93 571 94
f 94 571 95
f 95 573 96
f 96 574 97
f 97 574 98
f 98 574 99
f 99 580 100
f 100 582 101
f 87 88 648
f 101 582 102
f 102 582 103
f 103 584 104
f 104 585 105
f 88 108 109
f 88 106 108
f 88 107 553
f 88 109 107
f 88 116 115
f 88 378 116
f 88 379 378
f 88 114 106
f 88 115 114
f 88 380 379
f 105 118 394
f 88 553 554
f 88 554 555
f 105 113 112
f 105 111 113
f 105 558 111
f 105 559 558
f 105 560 559
f 105 117 118
f 105 112 110
f 105 110 117
f 53 278 276
f 53 276 277
f 54 277 293
f 56 274 279
f 56 279 278
f 70 293 294
f 71 294 295
f 74 295 298
f 74 298 348
f 88 348 380
f 274 275 284
f 274 284 279
f 276 280 277
f 276 282 280
f 277 281 293
f 277 280 281
f 276 278 282
f 278 279 283
f 278 283 282
f 279 284 283
f 275 286 284
f 284 286 285
f 285 286 287
f 285 287 288
f 283 284 289
f 284 285 289
f 285 291 289
f 285 288 291
f 288 290 291
f 290 292 291
f 291 292 306
f 281 296 293
f 293 296 294
f 294 296 297
f 294 297 295
f 295 297 299
f 295 299 298
f 298 299 349
f 298 349 348
f 280 300 281
f 280 302 300
f 282 283 301
f 283 289 301
f 280 282 302
f 282 301 302
f 300 302 304
f 301 303 302
f 302 303 304
f 301 305 303
f 303 321 304
f 303 310 321
f 289 305 301
f 289 291 305
f 291 308 305
f 291 306 307
f 291 307 308
f 307 309 308
f 308 309 311
f 303 305 310
f 305 308 310
f 308 313 310
f 310 313 330
f 308 311 313
f 311 312 313
f 281 315 296
f 281 300 315
f 296 314 297
f 296 315 314
f 300 318 315
f 300 304 318
f 315 318 319
f 314 315 319
f 297 316 299
f 297 314 316
f 299 316 350
f 299 350 349
f 314 317 316
f 314 319 317
f 316 317 351
f 316 351 350
f 317 352 351
f 312 331 313
f 304 322 318
f 318 320 319
f 318 322 320
f 304 321 322
f 321 323 322
f 321 337 323
f 320 322 324
f 322 323 324
f 323 325 324
f 323 337 325
f 317 319 326
f 319 320 326
f 317 326 352
f 326 353 352
f 320 327 326
f 320 324 327
f 326 327 353
f 327 354 353
f 327 328 354
f 324 325 328
f 324 328 327
f 325 329 328
f 325 338 329
f 328 329 355
f 328 355 354
f 329 356 355
f 329 357 356
f 310 330 321
f 313 334 330
f 321 330 337
f 330 334 337
f 313 331 332
f 313 332 334
f 332 333 334
f 333 335 334
f 334 335 336
f 325 337 338
f 334 340 337
f 337 340 338
f 334 336 340
f 336 339 340
f 339 342 340
f 329 338 341
f 338 340 345
f 338 345 341
f 329 341 357
f 341 345 359
f 341 359 357
f 340 342 343
f 340 343 345
f 343 344 345
f 344 346 345
f 345 346 347
f 345 347 359
f 347 360 359
f 357 359 361
f 357 361 358
f 359 360 361
f 348 381 380
f 348 386 381
f 348 387 386
f 348 388 387
f 394 118 119
f 394 119 382
f 394 382 383
f 394 383 384
f 394 384 385
f 394 385 390
f 394 390 391
f 394 391 392
f 348 865 388
f 394 392 846
f 348 349 865
f 362 394 847
f 362 848 363
f 363 848 364
f 349 350 892
f 350 351 892
f 351 352 894
f 352 353 900
f 353 354 901
f 354 355 903
f 355 356 903
f 356 357 904
f 357 358 904
f 358 365 904
f 365 366 859
f 366 367 857
f 367 368 857
f 369 377 862
f 369 852 374
f 370 374 852
f 371 853 372
f 370 853 371
f 372 856 373
f 368 373 856
f 364 861 375
f 375 861 376
f 376 862 377
f 92 575 570
f 92 570 571
f 95 572 573
f 95 571 572
f 96 573 569
f 96 569 574
f 99 574 579
f 89 578 577
f 91 576 575
f 91 577 576
f 99 579 580
f 100 580 581
f 100 581 582
f 103 582 583
f 103 583 584
f 104 584 585
f 88 555 648
f 105 585 560
f 75 588 591
f 75 589 588
f 77 591 592
f 79 595 589
f 79 626 595
f 89 592 578
f 85 628 626
f 87 646 628
f 87 648 646
f 585 561 560
f 585 562 561
f 585 566 562
f 585 567 566
f 585 568 567
f 585 832 568
f 585 833 832
f 585 834 833
f 648 555 556
f 648 556 557
f 648 557 563
f 648 563 564
f 578 592 586
f 586 592 605
f 586 605 587
f 587 605 607
f 587 607 608
f 588 590 593
f 588 589 590
f 589 596 590
f 590 596 600
f 590 600 598
f 588 593 591
f 591 594 592
f 591 593 594
f 592 594 605
f 593 597 594
f 590 598 593
f 593 598 597
f 594 597 606
f 589 595 596
f 595 627 596
f 596 601 600
f 596 627 601
f 598 600 603
f 597 598 599
f 598 603 599
f 597 599 616
f 600 602 603
f 600 601 602
f 602 632 603
f 599 603 604
f 599 604 616
f 603 632 604
f 594 606 605
f 605 606 607
f 606 611 607
f 597 615 606
f 606 615 611
f 611 615 617
f 607 609 608
f 607 611 609
f 609 611 610
f 610 611 612
f 611 613 612
f 611 617 613
f 613 617 614
f 597 616 615
f 615 616 617
f 616 622 617
f 614 617 618
f 617 622 618
f 604 619 616
f 616 619 622
f 604 637 619
f 619 638 622
f 618 622 620
f 620 622 621
f 621 622 623
f 622 624 623
f 622 638 624
f 624 638 625
f 595 626 627
f 626 628 629
f 626 629 627
f 601 627 631
f 627 629 631
f 628 646 647
f 628 647 629
f 629 650 631
f 629 647 650
f 601 631 630
f 601 630 602
f 602 634 632
f 602 630 634
f 630 631 651
f 631 650 651
f 630 655 634
f 630 651 655
f 625 638 639
f 632 634 635
f 604 632 633
f 604 633 637
f 632 635 633
f 633 635 636
f 633 636 641
f 634 656 635
f 634 655 656
f 635 657 636
f 635 656 657
f 636 657 658
f 636 658 641
f 619 637 638
f 633 641 637
f 637 643 638
f 637 641 643
f 638 640 639
f 638 643 640
f 641 665 643
f 641 658 663
f 641 663 665
f 640 643 642
f 642 643 644
f 643 665 644
f 644 665 645
f 646 648 649
f 646 649 647
f 647 649 652
f 647 652 650
f 650 652 653
f 650 653 651
f 651 653 654
f 651 654 655
f 655 659 656
f 654 659 655
f 656 660 657
f 656 659 660
f 657 661 658
f 657 660 661
f 658 661 662
f 658 662 663
f 662 667 663
f 663 669 665
f 663 667 669
f 645 665 664
f 664 665 666
f 665 668 666
f 665 669 668
f 667 670 669
f 662 673 667
f 667 672 670
f 668 669 671
f 669 670 671
f 667 673 672
f 648 564 865
f 648 866 649
f 649 866 652
f 652 869 653
f 653 871 654
f 654 875 659
f 659 875 660
f 660 877 661
f 661 878 662
f 662 878 673
f 672 673 874
f 846 845 835
f 846 842 845
f 846 835 834
f 865 389 388
f 865 838 389
f 846 392 393
f 846 393 843
f 846 843 844
f 846 844 841
f 846 841 842
f 585 846 834
f 865 564 565
f 865 830 831
f 865 831 840
f 865 565 828
f 865 828 829
f 865 829 830
f 865 836 839
f 865 839 838
f 865 840 837
f 865 837 836
f 394 846 847
f 362 847 848
f 364 848 849
f 364 849 860
f 369 862 850
f 369 850 851
f 369 851 852
f 370 852 853
f 372 854 855
f 372 853 854
f 366 858 859
f 372 855 856
f 368 856 857
f 366 857 858
f 364 860 861
f 376 861 862
f 349 867 865
f 349 892 867
f 351 894 892
f 352 898 894
f 352 900 898
f 353 901 900
f 354 903 901
f 356 904 903
f 365 859 904
f 648 865 866
f 652 866 869
f 653 869 870
f 653 870 871
f 654 871 875
f 660 875 876
f 660 876 877
f 661 877 878
f 673 883 874
f 673 878 883
f 859 863 904
f 863 915 904
f 863 864 915
f 864 917 915
f 864 918 917
f 865 867 866
f 866 867 868
f 866 868 869
f 868 872 869
f 869 872 870
f 870 872 873
f 870 873 871
f 871 873 879
f 871 879 875
f 875 879 880
f 875 880 876
f 876 880 881
f 876 881 877
f 877 882 878
f 877 881 882
f 878 882 883
f 874 883 884
f 874 884 885
f 884 886 885
f 884 887 886
f 882 888 883
f 883 888 884
f 884 888 891
f 889 891 942
f 884 891 887
f 887 891 890
f 889 890 891
f 867 892 868
f 868 892 893
f 868 893 872
f 872 893 896
f 892 894 893
f 893 894 895
f 894 898 895
f 893 895 896
f 895 907 896
f 872 896 873
f 873 896 897
f 873 897 879
f 879 897 936
f 896 907 897
f 897 909 936
f 897 907 909
f 909 940 936
f 930 947 949
f 895 898 899
f 898 900 899
f 895 899 907
f 899 908 907
f 900 901 902
f 899 900 902
f 901 905 902
f 899 902 908
f 902 912 908
f 901 903 905
f 903 904 906
f 903 906 905
f 904 915 906
f 902 905 912
f 905 906 914
f 905 914 912
f 906 916 914
f 907 908 909
f 908 911 909
f 909 911 940
f 910 940 911
f 910 911 913
f 910 913 932
f 908 912 911
f 912 914 913
f 911 912 913
f 913 914 933
f 906 915 916
f 915 917 916
f 916 917 924
f 914 916 933
f 916 924 933
f 924 935 933
f 917 918 919
f 917 919 924
f 920 922 924
f 919 920 924
f 921 935 923
f 922 923 924
f 923 935 924
f 910 925 946
f 925 931 949
f 910 932 925
f 925 932 931
f 926 927 931
f 928 929 931
f 929 930 949
f 929 949 931
f 927 928 931
f 913 933 932
f 932 933 935
f 931 932 935
f 926 935 934
f 921 934 935
f 926 931 935
f 879 936 880
f 880 936 938
f 880 938 881
f 881 938 937
f 881 937 882
f 882 937 888
f 936 940 938
f 938 940 939
f 937 938 939
f 937 939 941
f 910 939 940
f 910 946 939
f 891 941 945
f 888 937 941
f 888 941 891
f 891 945 942
f 942 945 943
f 944 945 948
f 943 945 944
f 939 946 941
f 945 946 949
f 941 946 945
f 925 949 946
f 947 948 949
f 945 949 948
f 108 106 110
f 117 110 106
f 107 109 113
f 107 111 553
f 107 113 111
f 553 111 558
f 109 108 112
f 112 108 110
f 109 112 113
f 106 114 117
f 114 115 118
f 115 119 118
f 114 118 117
f 115 116 119
f 116 378 382
f 116 382 119
f 378 379 383
f 378 383 382
f 379 384 383
f 379 380 384
f 380 381 385
f 380 385 384
f 390 385 381
f 390 381 386
f 390 386 391
f 391 386 387
f 392 387 388
f 392 391 387
f 393 388 389
f 843 389 838
f 393 392 388
f 843 393 389
f 553 558 554
f 555 554 559
f 554 558 559
f 555 559 560
f 556 555 560
f 556 561 557
f 556 560 561
f 563 557 562
f 557 561 562
f 564 563 566
f 564 567 565
f 563 562 566
f 566 567 564
f 565 568 828
f 567 568 565
f 568 832 828
f 828 832 829
f 829 833 830
f 832 833 829
f 830 834 831
f 831 835 840
f 834 835 831
f 833 834 830
f 842 836 837
f 842 841 836
f 845 842 837
f 844 838 839
f 841 839 836
f 844 843 838
f 841 844 839
f 840 845 837
f 835 845 840
f 243 397 244
f 243 244 246
f 244 395 398
f 243 246 245
f 244 398 246
f 247 402 254
f 249 403 247
f 254 401 243
f 249 248 404
f 250 405 248
f 251 406 250
f 251 252 407
f 252 253 408
f 253 255 413
f 255 256 414
f 256 257 412
f 257 258 411
f 258 259 410
f 249 247 260
f 249 262 248
f 250 248 261
f 251 250 263
f 251 264 252
f 252 265 253
f 253 266 255
f 249 260 262
f 248 262 261
f 250 261 263
f 251 263 264
f 252 264 265
f 253 265 266
f 247 254 267
f 254 243 245
f 247 267 260
f 254 245 267
f 255 268 256
f 255 266 268
f 256 268 269
f 256 269 257
f 257 270 258
f 258 271 259
f 259 272 409
f 257 269 270
f 258 270 271
f 259 271 272
f 409 272 423
f 244 396 395
f 244 397 396
f 395 396 399
f 396 397 400
f 395 399 398
f 396 400 399
f 243 401 397
f 254 402 401
f 247 403 402
f 249 404 403
f 248 405 404
f 250 406 405
f 251 407 406
f 252 408 407
f 253 413 408
f 255 414 413
f 256 412 414
f 258 410 411
f 257 411 412
f 259 409 410
f 397 401 415
f 401 402 416
f 397 415 400
f 401 416 415
f 402 403 417
f 403 404 418
f 404 405 419
f 405 406 420
f 406 407 421
f 408 422 407
f 402 417 416
f 403 418 417
f 404 419 418
f 405 420 419
f 406 421 420
f 407 422 421
f 408 427 422
f 409 423 410
f 410 424 411
f 412 426 414
f 411 425 412
f 410 423 424
f 411 424 425
f 414 426 428
f 412 425 426
f 414 428 413
f 408 413 427
f 413 428 427
f 800 953 801
f 801 952 802
f 798 954 800
f 799 955 798
f 799 803 957
f 804 958 803
f 804 805 959
f 805 806 960
f 806 807 962
f 807 808 961
f 808 809 963
f 809 810 956
f 810 824 980
f 799 812 803
f 799 798 811
f 799 811 812
f 800 801 814
f 798 800 813
f 801 802 815
f 802 950 964
f 800 814 813
f 798 813 811
f 801 815 814
f 802 964 815
f 804 803 816
f 804 817 805
f 805 818 806
f 806 819 807
f 807 820 808
f 808 821 809
f 803 812 816
f 804 816 817
f 805 817 818
f 806 818 819
f 807 819 820
f 808 820 821
f 809 821 822
f 809 822 810
f 810 823 824
f 810 822 823
f 824 823 826
f 824 825 979
f 824 826 825
f 825 827 978
f 825 826 827
f 978 827 981
f 802 951 950
f 802 952 951
f 801 953 952
f 800 954 953
f 798 955 954
f 799 957 955
f 803 958 957
f 804 959 958
f 805 960 959
f 806 962 960
f 807 961 962
f 810 980 956
f 808 963 961
f 809 956 963
f 950 951 965
f 951 952 966
f 952 953 967
f 953 954 968
f 950 965 964
f 951 966 965
f 952 967 966
f 953 968 967
f 954 955 969
f 954 969 968
f 955 971 969
f 980 983 956
f 956 970 963
f 956 983 970
f 963 970 977
f 955 957 971
f 957 958 972
f 958 959 973
f 960 974 959
f 962 976 960
f 962 961 975
f 963 977 961
f 957 972 971
f 958 973 972
f 959 974 973
f 960 976 974
f 962 975 976
f 961 977 975
f 825 978 979
f 824 979 980
f 978 981 979
f 979 982 980
f 979 981 982
f 980 982 983

