# https://github.com/mikedh/trimesh
v 0.00600000 0.00000000 0.00200000
v 0.00600000 0.00000000 0.00300000
v 0.00600000 0.00600000 0.00200000
v 0.00600000 0.00598079 0.00219509
v 0.00600000 0.00592388 0.00238268
v 0.00600000 0.00583147 0.00255557
v 0.00600000 0.00570711 0.00270711
v 0.00600000 0.00500000 0.00300000
v 0.00600000 0.00519509 0.00298079
v 0.00600000 0.00555557 0.00283147
v 0.00600000 0.00538268 0.00292388
v 0.00609134 0.00525922 0.00300000
v 0.00620224 0.00546668 0.00300000
v 0.00635147 0.00564853 0.00300000
v 0.00653332 0.00579776 0.00300000
v 0.00674078 0.00590866 0.00300000
v 0.00696589 0.00597694 0.00300000
v 0.00720000 0.00600000 0.00300000
v 0.01000000 0.00000000 0.00200000
v 0.01000000 0.00000000 0.00300000
v 0.00900000 0.00600000 0.00200000
v 0.00919509 0.00598079 0.00200000
v 0.00938268 0.00592388 0.00200000
v 0.01000000 0.00500000 0.00200000
v 0.00998079 0.00519509 0.00200000
v 0.00955557 0.00583147 0.00200000
v 0.00970711 0.00570711 0.00200000
v 0.00983147 0.00555557 0.00200000
v 0.00992388 0.00538268 0.00200000
v 0.00880000 0.00600000 0.00300000
v 0.00903411 0.00597694 0.00300000
v 0.00925922 0.00590866 0.00300000
v 0.00946668 0.00579776 0.00300000
v 0.01000000 0.00480000 0.00300000
v 0.00997694 0.00503411 0.00300000
v 0.00964853 0.00564853 0.00300000
v 0.00979776 0.00546668 0.00300000
v 0.00990866 0.00525922 0.00300000
f 2 3 1
f 19 2 1
f 3 19 1
f 3 6 4
f 4 6 5
f 18 3 4
f 3 18 21
f 3 2 9
f 9 2 8
f 2 13 8
f 3 9 6
f 17 4 5
f 16 5 6
f 6 10 7
f 18 4 17
f 9 8 12
f 8 13 12
f 6 9 10
f 15 6 7
f 14 7 10
f 6 15 16
f 10 9 11
f 11 14 10
f 9 13 11
f 13 9 12
f 11 13 14
f 15 7 14
f 13 15 14
f 17 5 16
f 13 17 15
f 15 17 16
f 13 18 17
f 2 37 13
f 18 13 37
f 20 19 24
f 2 19 20
f 2 20 37
f 19 3 28
f 22 3 21
f 28 3 22
f 19 28 24
f 26 22 23
f 28 22 26
f 28 26 27
f 24 28 25
f 25 28 29
f 31 22 21
f 22 32 23
f 32 26 23
f 24 25 34
f 26 36 27
f 36 28 27
f 28 38 29
f 38 25 29
f 21 18 30
f 31 21 30
f 18 31 30
f 18 37 31
f 20 24 34
f 20 34 35
f 37 20 35
f 31 32 22
f 33 26 32
f 25 35 34
f 35 25 38
f 26 33 36
f 28 37 38
f 37 28 36
f 31 33 32
f 31 37 33
f 33 37 36
f 37 35 38

