# https://github.com/mikedh/trimesh
v 0.01000000 0.00000000 0.04000000
v 0.01000000 0.00000000 0.04360000
v 0.01000000 0.00500000 0.04000000
v 0.01000000 0.00519509 0.04001921
v 0.01000000 0.00538268 0.04007612
v 0.01000000 0.00555557 0.04016853
v 0.01000000 0.00570711 0.04029289
v 0.01000000 0.00583147 0.04044443
v 0.01000000 0.00592388 0.04061732
v 0.01000000 0.00598079 0.04080491
v 0.01000000 0.00600000 0.04100000
v 0.01000000 0.00600000 0.04360000
v 0.01100000 0.00000000 0.04000000
v 0.01119509 0.00000000 0.04001921
v 0.01138268 0.00000000 0.04007612
v 0.01155557 0.00000000 0.04016853
v 0.01170711 0.00000000 0.04029289
v 0.01183147 0.00000000 0.04044443
v 0.01192388 0.00000000 0.04061732
v 0.01198079 0.00000000 0.04080491
v 0.01200000 0.00000000 0.04100000
v 0.01200000 0.00000000 0.04360000
v 0.01100000 0.00500000 0.04000000
v 0.01100000 0.00519509 0.04001921
v 0.01119509 0.00500000 0.04001921
v 0.01120233 0.00520233 0.04004181
v 0.01100000 0.00538268 0.04007612
v 0.01100000 0.00555557 0.04016853
v 0.01100000 0.00570711 0.04029289
v 0.01100000 0.00583147 0.04044443
v 0.01120846 0.00540891 0.04011155
v 0.01121201 0.00560377 0.04023155
v 0.01121201 0.00576845 0.04039623
v 0.01100000 0.00592388 0.04061732
v 0.01100000 0.00598079 0.04080491
v 0.01120846 0.00588845 0.04059109
v 0.01120233 0.00595819 0.04079767
v 0.01138268 0.00500000 0.04007612
v 0.01140891 0.00520846 0.04011155
v 0.01142977 0.00542977 0.04020590
v 0.01143789 0.00563571 0.04036429
v 0.01142977 0.00579410 0.04057023
v 0.01140891 0.00588845 0.04079154
v 0.01100000 0.00600000 0.04100000
v 0.01119509 0.00598079 0.04100000
v 0.01138268 0.00592388 0.04100000
v 0.01155557 0.00500000 0.04016853
v 0.01160377 0.00521201 0.04023155
v 0.01170711 0.00500000 0.04029289
v 0.01163571 0.00543789 0.04036429
v 0.01160377 0.00576845 0.04078799
v 0.01163571 0.00563571 0.04056211
v 0.01176845 0.00521201 0.04039623
v 0.01183147 0.00500000 0.04044443
v 0.01192388 0.00500000 0.04061732
v 0.01188845 0.00520846 0.04059109
v 0.01198079 0.00500000 0.04080491
v 0.01195819 0.00520233 0.04079767
v 0.01179410 0.00542977 0.04057023
v 0.01176845 0.00560377 0.04078799
v 0.01188845 0.00540891 0.04079154
v 0.01155557 0.00583147 0.04100000
v 0.01170711 0.00570711 0.04100000
v 0.01200000 0.00500000 0.04100000
v 0.01198079 0.00519509 0.04100000
v 0.01183147 0.00555557 0.04100000
v 0.01192388 0.00538268 0.04100000
v 0.01100000 0.00600000 0.04360000
v 0.01119509 0.00598079 0.04360000
v 0.01138268 0.00592388 0.04360000
v 0.01155557 0.00583147 0.04360000
v 0.01170711 0.00570711 0.04360000
v 0.01200000 0.00500000 0.04360000
v 0.01198079 0.00519509 0.04360000
v 0.01183147 0.00555557 0.04360000
v 0.01192388 0.00538268 0.04360000
f 15 2 1
f 2 11 1
f 15 1 13
f 1 23 13
f 1 4 3
f 11 4 1
f 23 1 3
f 4 6 5
f 4 11 6
f 6 9 7
f 7 9 8
f 11 9 6
f 10 9 11
f 3 4 24
f 27 4 5
f 6 27 5
f 29 6 7
f 29 7 8
f 9 30 8
f 35 9 10
f 11 44 10
f 23 3 24
f 4 27 24
f 28 27 6
f 28 6 29
f 30 29 8
f 30 9 34
f 9 35 34
f 44 35 10
f 11 2 12
f 11 12 44
f 2 74 12
f 44 12 68
f 12 70 68
f 15 13 14
f 23 14 13
f 38 15 14
f 15 38 16
f 18 15 16
f 18 16 17
f 15 18 20
f 20 18 19
f 22 15 20
f 47 17 16
f 54 18 17
f 54 19 18
f 55 20 19
f 20 64 21
f 2 15 22
f 74 2 22
f 22 20 21
f 64 22 21
f 14 23 25
f 38 14 25
f 38 47 16
f 23 24 25
f 25 24 26
f 24 27 26
f 31 27 28
f 32 28 29
f 33 29 30
f 27 31 26
f 28 32 31
f 29 33 32
f 30 34 36
f 35 37 34
f 36 33 30
f 34 37 36
f 35 45 37
f 38 25 26
f 38 26 39
f 47 38 39
f 31 39 26
f 31 32 40
f 40 39 31
f 32 41 40
f 33 41 32
f 42 41 33
f 39 40 48
f 42 33 36
f 42 36 43
f 43 36 37
f 37 46 43
f 51 42 43
f 44 45 35
f 46 37 45
f 46 62 43
f 17 47 49
f 54 17 49
f 55 19 54
f 20 55 57
f 64 20 57
f 47 39 48
f 49 47 48
f 49 48 53
f 50 48 40
f 41 50 40
f 50 41 52
f 48 50 53
f 53 50 59
f 41 42 52
f 51 52 42
f 62 51 43
f 59 50 52
f 59 52 60
f 51 60 52
f 63 60 51
f 53 54 49
f 56 54 53
f 56 55 54
f 56 58 55
f 57 55 58
f 57 58 65
f 53 59 56
f 56 59 61
f 61 59 60
f 66 61 60
f 58 56 61
f 67 58 61
f 63 51 62
f 64 57 65
f 66 60 63
f 67 61 66
f 58 67 65
f 45 44 68
f 70 46 45
f 46 71 62
f 45 68 69
f 70 12 74
f 68 70 69
f 70 45 69
f 71 46 70
f 22 64 73
f 74 22 73
f 63 62 71
f 74 64 65
f 63 75 66
f 75 67 66
f 67 74 65
f 72 63 71
f 63 72 75
f 70 72 71
f 70 74 72
f 64 74 73
f 67 75 76
f 74 67 76
f 72 74 75
f 75 74 76

