# https://github.com/mikedh/trimesh
v 0.00600000 -0.00538268 0.00007612
v 0.00600000 -0.00555557 0.00016853
v 0.00600000 -0.00570711 0.00029289
v 0.00600000 -0.00583147 0.00044443
v 0.00600000 -0.00519509 0.00001921
v 0.00600000 -0.00500000 0.00000000
v 0.00600000 -0.00592388 0.00061732
v 0.00600000 -0.00598079 0.00080491
v 0.00600000 -0.00600000 0.00100000
v 0.00600000 -0.00600000 0.00200000
v 0.00600000 0.00000000 0.00000000
v 0.00600000 0.00000000 0.00200000
v 0.00900000 -0.00538268 0.00007612
v 0.00920846 -0.00540891 0.00011155
v 0.00900000 -0.00555557 0.00016853
v 0.00921201 -0.00560377 0.00023155
v 0.00942977 -0.00542977 0.00020590
v 0.00900000 -0.00570711 0.00029289
v 0.00900000 -0.00583147 0.00044443
v 0.00921201 -0.00576845 0.00039623
v 0.00943789 -0.00563571 0.00036429
v 0.00900000 -0.00519509 0.00001921
v 0.00900000 -0.00500000 0.00000000
v 0.00920233 -0.00520233 0.00004181
v 0.00919509 -0.00500000 0.00001921
v 0.00940891 -0.00520846 0.00011155
v 0.00938268 -0.00500000 0.00007612
v 0.00963571 -0.00543789 0.00036429
v 0.00960377 -0.00521201 0.00023155
v 0.00955557 -0.00500000 0.00016853
v 0.00970711 -0.00500000 0.00029289
v 0.00976845 -0.00521201 0.00039623
v 0.00983147 -0.00500000 0.00044443
v 0.00900000 -0.00592388 0.00061732
v 0.00920846 -0.00588845 0.00059109
v 0.00942977 -0.00579410 0.00057023
v 0.00900000 -0.00598079 0.00080491
v 0.00920233 -0.00595819 0.00079767
v 0.00940891 -0.00588845 0.00079154
v 0.00963571 -0.00563571 0.00056211
v 0.00979410 -0.00542977 0.00057023
v 0.00960377 -0.00576845 0.00078799
v 0.00976845 -0.00560377 0.00078799
v 0.00988845 -0.00540891 0.00079154
v 0.00988845 -0.00520846 0.00059109
v 0.00992388 -0.00500000 0.00061732
v 0.00995819 -0.00520233 0.00079767
v 0.00998079 -0.00500000 0.00080491
v 0.00900000 -0.00600000 0.00100000
v 0.00919509 -0.00598079 0.00100000
v 0.00938268 -0.00592388 0.00100000
v 0.00955557 -0.00583147 0.00100000
v 0.00970711 -0.00570711 0.00100000
v 0.00983147 -0.00555557 0.00100000
v 0.00992388 -0.00538268 0.00100000
v 0.00998079 -0.00519509 0.00100000
v 0.01000000 -0.00500000 0.00100000
v 0.00900000 -0.00600000 0.00200000
v 0.00919509 -0.00598079 0.00200000
v 0.00938268 -0.00592388 0.00200000
v 0.00955557 -0.00583147 0.00200000
v 0.00970711 -0.00570711 0.00200000
v 0.00983147 -0.00555557 0.00200000
v 0.00992388 -0.00538268 0.00200000
v 0.00998079 -0.00519509 0.00200000
v 0.01000000 -0.00500000 0.00200000
v 0.00900000 0.00000000 0.00000000
v 0.00919509 0.00000000 0.00001921
v 0.00938268 0.00000000 0.00007612
v 0.00955557 0.00000000 0.00016853
v 0.00970711 0.00000000 0.00029289
v 0.00983147 0.00000000 0.00044443
v 0.00992388 0.00000000 0.00061732
v 0.00998079 0.00000000 0.00080491
v 0.01000000 0.00000000 0.00100000
v 0.01000000 0.00000000 0.00200000
f 7 2 3
f 7 3 4
f 7 1 2
f 1 6 5
f 10 1 7
f 1 11 6
f 10 11 1
f 5 13 1
f 2 1 15
f 2 18 3
f 19 4 3
f 6 22 5
f 34 7 4
f 7 37 8
f 8 49 9
f 10 7 8
f 10 8 9
f 49 10 9
f 11 67 6
f 11 10 12
f 10 76 12
f 76 11 12
f 13 15 1
f 22 13 5
f 2 15 18
f 18 19 3
f 22 6 23
f 19 34 4
f 37 7 34
f 8 37 49
f 6 67 23
f 14 15 13
f 22 24 13
f 24 14 13
f 18 15 16
f 14 16 15
f 26 14 24
f 14 17 16
f 14 26 17
f 29 17 26
f 18 16 20
f 19 18 20
f 35 19 20
f 20 16 21
f 21 36 20
f 17 21 16
f 25 22 23
f 24 22 25
f 24 25 27
f 24 27 26
f 30 26 27
f 40 36 21
f 28 21 17
f 29 28 17
f 28 29 32
f 21 28 40
f 41 40 28
f 28 32 41
f 30 29 26
f 31 29 30
f 31 32 29
f 31 33 32
f 33 45 32
f 35 34 19
f 34 38 37
f 38 34 35
f 20 36 35
f 36 39 35
f 39 38 35
f 39 36 42
f 50 37 38
f 37 50 49
f 38 39 51
f 38 51 50
f 51 39 52
f 36 40 42
f 40 43 42
f 40 41 43
f 32 45 41
f 43 41 44
f 45 44 41
f 44 45 47
f 39 42 52
f 43 53 42
f 52 42 53
f 54 43 44
f 55 44 47
f 53 43 54
f 54 44 55
f 56 55 47
f 33 46 45
f 47 45 46
f 46 48 47
f 48 56 47
f 48 57 56
f 68 25 23
f 68 27 25
f 27 70 30
f 70 31 30
f 31 71 33
f 73 46 33
f 46 73 48
f 75 57 48
f 10 49 58
f 59 10 58
f 63 10 59
f 10 63 76
f 59 49 50
f 51 59 50
f 61 51 52
f 53 61 52
f 63 53 54
f 55 63 54
f 65 55 56
f 57 65 56
f 49 59 58
f 59 51 60
f 51 61 60
f 61 59 60
f 61 53 62
f 53 63 62
f 64 63 55
f 64 55 65
f 63 59 61
f 63 61 62
f 63 64 66
f 57 66 65
f 66 64 65
f 57 76 66
f 76 63 66
f 11 69 67
f 11 76 69
f 67 68 23
f 69 27 68
f 27 69 70
f 31 70 71
f 33 71 72
f 73 33 72
f 48 73 74
f 75 48 74
f 67 69 68
f 69 71 70
f 69 73 71
f 71 73 72
f 73 75 74
f 69 76 73
f 76 57 75
f 73 76 75

