# https://github.com/mikedh/trimesh
v -0.00098000 0.00000000 -0.00340000
v -0.00096117 0.00019119 -0.00340000
v -0.00090540 0.00037503 -0.00340000
v -0.00098000 0.00000000 -0.00100000
v -0.00096117 0.00019119 -0.00100000
v -0.00090540 0.00037503 -0.00100000
v -0.00081484 0.00054446 -0.00340000
v -0.00069296 0.00069296 -0.00340000
v -0.00054446 0.00081484 -0.00340000
v -0.00081484 0.00054446 -0.00100000
v -0.00069296 0.00069296 -0.00100000
v -0.00054446 0.00081484 -0.00100000
v 0.00000000 0.00000000 -0.00340000
v 0.00000000 0.00000000 -0.00100000
v -0.00037503 0.00090540 -0.00340000
v -0.00019119 0.00096117 -0.00340000
v 0.00000000 0.00098000 -0.00340000
v -0.00037503 0.00090540 -0.00100000
v -0.00019119 0.00096117 -0.00100000
v 0.00000000 0.00098000 -0.00100000
f 3 1 2
f 1 4 2
f 8 1 3
f 3 2 5
f 3 10 7
f 4 1 13
f 2 4 5
f 3 5 6
f 10 3 6
f 4 10 5
f 5 10 6
f 4 18 10
f 8 3 7
f 17 1 8
f 7 11 8
f 11 9 8
f 15 8 9
f 7 10 11
f 10 12 11
f 12 9 11
f 10 18 12
f 1 17 13
f 13 17 14
f 4 13 14
f 14 18 4
f 17 8 15
f 12 15 9
f 15 19 16
f 17 15 16
f 19 17 16
f 18 15 12
f 15 18 19
f 14 17 20
f 18 14 20
f 19 20 17
f 18 20 19

