# https://github.com/mikedh/trimesh
v -0.03762462 0.03760000 0.05072832
v -0.03764025 0.03760000 0.05082734
v -0.03761403 0.03760000 0.05069963
v -0.03761070 0.03762260 0.05072791
v -0.03777004 0.03760000 0.05200000
v -0.03724264 0.03824264 0.05200000
v -0.03697906 0.03760000 0.04938114
v -0.03681426 0.03760000 0.04915842
v -0.03681426 0.03781426 0.04937269
v -0.03660000 0.03760000 0.04894416
v -0.03660000 0.03781426 0.04915842
v -0.03660000 0.03797906 0.04938114
v -0.03660000 0.03760000 0.05200000
v -0.03662260 0.03861070 0.05072791
v -0.03660000 0.03861403 0.05069963
v -0.03660000 0.03862462 0.05072832
v -0.03660000 0.03864025 0.05082734
v -0.03660000 0.03877004 0.05200000
f 3 4 9
f 3 2 1
f 2 4 1
f 3 5 2
f 5 4 2
f 4 3 1
f 5 6 4
f 10 5 3
f 5 18 6
f 10 3 7
f 3 9 7
f 4 14 9
f 7 9 8
f 10 7 8
f 9 10 8
f 10 9 11
f 12 10 11
f 9 12 11
f 15 10 12
f 9 15 12
f 5 10 13
f 14 4 6
f 18 5 13
f 10 18 13
f 14 15 9
f 18 10 15
f 14 6 17
f 15 14 16
f 17 15 16
f 14 17 16
f 18 15 17
f 6 18 17

