# https://github.com/mikedh/trimesh
v -0.03660000 0.03760000 0.08600000
v -0.03660000 0.03877004 0.08600000
v -0.03660000 0.03760000 0.11000000
v -0.03660000 0.03877004 0.11000000
v -0.03633342 0.03898882 0.08600000
v -0.03529610 0.03954328 0.08600000
v -0.03633342 0.03898882 0.11000000
v -0.03529610 0.03954328 0.11000000
v -0.03300000 0.03760000 0.08600000
v -0.03300000 0.03760000 0.11000000
v -0.03417054 0.03988471 0.08600000
v -0.03300000 0.04000000 0.08600000
v -0.03417054 0.03988471 0.11000000
v -0.03300000 0.04000000 0.11000000
f 1 3 2
f 5 1 2
f 3 1 9
f 2 3 4
f 3 8 4
f 10 8 3
f 5 2 4
f 12 1 5
f 5 8 6
f 12 5 6
f 5 4 7
f 8 5 7
f 4 8 7
f 6 8 13
f 1 12 9
f 9 12 10
f 3 9 10
f 12 6 11
f 6 13 11
f 13 12 11
f 8 14 13
f 10 12 14
f 8 10 14
f 13 14 12

