# https://github.com/mikedh/trimesh
v 0.03200000 0.03446927 0.11830448
v 0.03200000 0.03400000 0.11855531
v 0.03200000 0.03521964 0.11807686
v 0.03200000 0.03400000 0.12000000
v 0.03200000 0.03600000 0.11800000
v 0.03200000 0.03678036 0.11807686
v 0.03200000 0.03753073 0.11830448
v 0.03200000 0.03760000 0.11834151
v 0.03200000 0.03760000 0.12000000
v 0.03500000 0.03446927 0.11830448
v 0.03500000 0.03400000 0.11855531
v 0.03500000 0.03521964 0.11807686
v 0.03500000 0.03400000 0.12000000
v 0.03500000 0.03600000 0.11800000
v 0.03500000 0.03678036 0.11807686
v 0.03500000 0.03753073 0.11830448
v 0.03500000 0.03760000 0.11834151
v 0.03500000 0.03760000 0.12000000
f 4 1 2
f 1 5 3
f 4 8 1
f 2 1 10
f 10 1 3
f 5 14 3
f 13 4 2
f 5 1 8
f 5 8 6
f 6 8 7
f 5 6 14
f 6 7 15
f 8 17 7
f 8 4 9
f 4 18 9
f 18 8 9
f 2 10 11
f 10 3 12
f 3 14 12
f 10 13 11
f 14 10 12
f 13 2 11
f 18 4 13
f 10 18 13
f 14 6 15
f 15 7 16
f 7 17 16
f 8 18 17
f 17 10 14
f 18 10 17
f 17 14 15
f 17 15 16

