# https://github.com/mikedh/trimesh
v -0.03660000 -0.03705584 0.12360000
v -0.03660000 -0.03684158 0.12381426
v -0.03605584 -0.03760000 0.12360000
v -0.03584158 -0.03760000 0.12381426
v -0.03660000 -0.03661886 0.12397906
v -0.03561886 -0.03760000 0.12397906
v -0.03557860 -0.03657860 0.12476463
v -0.03660000 -0.03530037 0.12461403
v -0.03660000 -0.03527168 0.12462462
v -0.03660000 -0.03517266 0.12464025
v -0.03660000 -0.03400000 0.12360000
v -0.03660000 -0.03400000 0.12477004
v -0.03633342 -0.03400000 0.12498882
v -0.03545345 -0.03525076 0.12533069
v -0.03529610 -0.03400000 0.12554328
v -0.03430037 -0.03760000 0.12461403
v -0.03427168 -0.03760000 0.12462462
v -0.03417266 -0.03760000 0.12464025
v -0.03300000 -0.03760000 0.12360000
v -0.03300000 -0.03760000 0.12477004
v -0.03425076 -0.03645345 0.12533069
v -0.03300000 -0.03733342 0.12498882
v -0.03300000 -0.03629610 0.12554328
v -0.03300000 -0.03400000 0.12360000
v -0.03421401 -0.03521401 0.12574912
v -0.03417054 -0.03400000 0.12588471
v -0.03300000 -0.03517054 0.12588471
v -0.03300000 -0.03400000 0.12600000
f 1 3 4
f 1 4 2
f 5 1 2
f 4 5 2
f 4 7 5
f 5 8 1
f 7 8 5
f 7 4 6
f 1 19 3
f 4 17 6
f 3 20 4
f 7 6 16
f 14 7 21
f 11 1 12
f 12 1 8
f 12 8 9
f 12 9 10
f 9 13 10
f 13 11 12
f 13 12 10
f 24 1 11
f 8 14 9
f 7 14 8
f 14 13 9
f 13 28 11
f 13 14 15
f 26 13 15
f 14 25 15
f 3 19 20
f 6 17 16
f 17 4 20
f 17 7 16
f 19 1 24
f 18 17 20
f 19 22 20
f 20 22 18
f 21 7 17
f 21 17 18
f 22 21 18
f 19 28 22
f 21 22 23
f 25 21 23
f 22 27 23
f 28 24 11
f 28 19 24
f 25 14 21
f 28 13 26
f 25 26 15
f 22 28 27
f 23 27 25
f 26 25 27
f 28 26 27

