# https://github.com/mikedh/trimesh
v 0.03500000 0.03760000 0.12360000
v 0.03500000 0.03760000 0.12565849
v 0.03500000 0.03822228 0.12532588
v 0.03500000 0.03965849 0.12360000
v 0.03500000 0.03932588 0.12422228
v 0.03500000 0.03882843 0.12482843
v 0.03860000 0.03760000 0.12360000
v 0.03860000 0.03760000 0.12565849
v 0.03860000 0.03822228 0.12532588
v 0.03860000 0.03965849 0.12360000
v 0.03860000 0.03932588 0.12422228
v 0.03860000 0.03882843 0.12482843
f 2 4 1
f 7 2 1
f 4 7 1
f 6 2 3
f 2 9 3
f 9 6 3
f 4 6 5
f 11 4 5
f 6 11 5
f 4 2 6
f 2 7 8
f 2 8 9
f 12 6 9
f 7 12 8
f 9 8 12
f 7 4 10
f 6 12 11
f 11 10 4
f 12 7 10
f 12 10 11

