# https://github.com/mikedh/trimesh
v 0.00609134 -0.00525922 0.00300000
v 0.00620224 -0.00546668 0.00300000
v 0.00635147 -0.00564853 0.00300000
v 0.00602306 -0.00503411 0.00300000
v 0.00600000 -0.00480000 0.00300000
v 0.00653332 -0.00579776 0.00300000
v 0.00674078 -0.00590866 0.00300000
v 0.00696589 -0.00597694 0.00300000
v 0.00720000 -0.00600000 0.00300000
v 0.00609134 -0.00525922 0.00600000
v 0.00620224 -0.00546668 0.00600000
v 0.00635147 -0.00564853 0.00600000
v 0.00602306 -0.00503411 0.00600000
v 0.00600000 -0.00480000 0.00600000
v 0.00653332 -0.00579776 0.00600000
v 0.00674078 -0.00590866 0.00600000
v 0.00696589 -0.00597694 0.00600000
v 0.00720000 -0.00600000 0.00600000
v 0.00600000 0.00000000 0.00300000
v 0.00600000 0.00000000 0.00600000
v 0.00880000 -0.00600000 0.00300000
v 0.00903411 -0.00597694 0.00300000
v 0.00925922 -0.00590866 0.00300000
v 0.00946668 -0.00579776 0.00300000
v 0.00964853 -0.00564853 0.00300000
v 0.00979776 -0.00546668 0.00300000
v 0.00990866 -0.00525922 0.00300000
v 0.00997694 -0.00503411 0.00300000
v 0.01000000 -0.00480000 0.00300000
v 0.00880000 -0.00600000 0.00600000
v 0.00903411 -0.00597694 0.00600000
v 0.00925922 -0.00590866 0.00600000
v 0.00946668 -0.00579776 0.00600000
v 0.00964853 -0.00564853 0.00600000
v 0.00979776 -0.00546668 0.00600000
v 0.00990866 -0.00525922 0.00600000
v 0.00997694 -0.00503411 0.00600000
v 0.01000000 -0.00480000 0.00600000
v 0.01000000 0.00000000 0.00300000
v 0.01000000 0.00000000 0.00600000
f 1 3 2
f 5 1 4
f 5 3 1
f 3 7 6
f 3 8 7
f 1 2 11
f 15 3 6
f 3 12 2
f 1 10 4
f 5 4 14
f 6 7 16
f 8 16 7
f 19 3 5
f 3 22 8
f 8 21 9
f 18 8 9
f 21 18 9
f 19 29 3
f 10 1 11
f 12 3 15
f 2 12 11
f 4 10 13
f 14 4 13
f 16 15 6
f 8 17 16
f 12 10 11
f 10 14 13
f 12 14 10
f 16 12 15
f 17 12 16
f 20 5 14
f 12 20 14
f 17 8 18
f 30 12 17
f 30 17 18
f 20 19 5
f 12 40 20
f 40 19 20
f 8 22 21
f 3 29 22
f 21 22 31
f 22 24 23
f 22 26 24
f 24 26 25
f 26 22 29
f 26 29 27
f 27 29 28
f 32 22 23
f 24 32 23
f 34 24 25
f 26 34 25
f 36 26 27
f 37 27 28
f 29 37 28
f 30 18 21
f 30 21 31
f 35 12 30
f 12 35 40
f 22 32 31
f 33 32 24
f 33 24 34
f 26 35 34
f 36 35 26
f 27 37 36
f 29 38 37
f 31 32 30
f 35 30 32
f 35 32 33
f 35 33 34
f 38 35 36
f 38 36 37
f 29 40 38
f 40 35 38
f 29 19 39
f 19 40 39
f 40 29 39

