# https://github.com/mikedh/trimesh
v -0.00230940 0.00000000 -0.00340000
v -0.00230940 0.00000000 -0.00180000
v -0.00115470 -0.00200000 -0.00340000
v 0.00000000 -0.00200000 -0.00340000
v 0.00000000 -0.00110000 -0.00340000
v -0.00115470 -0.00200000 -0.00180000
v 0.00000000 -0.00200000 -0.00180000
v 0.00000000 -0.00110000 -0.00180000
v -0.00110000 0.00000000 -0.00340000
v -0.00110000 0.00000000 -0.00180000
f 2 3 6
f 2 1 3
f 1 2 9
f 9 2 10
f 3 4 6
f 1 4 3
f 4 9 5
f 8 4 5
f 8 2 6
f 6 4 7
f 4 8 7
f 8 6 7
f 4 1 9
f 9 8 5
f 8 9 10
f 2 8 10

