# https://github.com/mikedh/trimesh
v -0.03660000 0.02142688 0.06200000
v -0.03660000 0.02184265 0.06277785
v -0.03660000 0.02246447 0.06353553
v -0.03660000 0.02322215 0.06415735
v -0.03660000 0.02408658 0.06461940
v -0.03660000 0.02700000 0.06200000
v -0.03660000 0.02502455 0.06490393
v -0.03660000 0.02600000 0.06500000
v -0.03660000 0.02697545 0.06490393
v -0.03660000 0.02700000 0.06489648
v -0.03300000 0.02142688 0.06200000
v -0.03300000 0.02184265 0.06277785
v -0.03300000 0.02246447 0.06353553
v -0.03300000 0.02322215 0.06415735
v -0.03300000 0.02408658 0.06461940
v -0.03300000 0.02700000 0.06200000
v -0.03300000 0.02502455 0.06490393
v -0.03300000 0.02600000 0.06500000
v -0.03300000 0.02697545 0.06490393
v -0.03300000 0.02700000 0.06489648
f 3 1 2
f 5 1 3
f 6 1 5
f 1 11 2
f 3 2 13
f 6 11 1
f 5 3 4
f 3 13 4
f 15 5 4
f 8 5 7
f 6 5 10
f 10 5 8
f 10 8 9
f 5 17 7
f 17 8 7
f 20 6 10
f 8 19 9
f 19 10 9
f 2 11 12
f 13 2 12
f 11 13 12
f 11 15 13
f 4 13 14
f 15 4 14
f 13 15 14
f 11 20 15
f 11 6 16
f 6 20 16
f 20 11 16
f 5 15 17
f 18 8 17
f 18 19 8
f 20 10 19
f 15 18 17
f 18 15 20
f 18 20 19

