# https://github.com/mikedh/trimesh
v -0.03870000 -0.02700000 0.05833408
v -0.03870000 -0.02674623 0.05819843
v -0.03870000 -0.02638043 0.05808747
v -0.03870000 -0.02600000 0.05805000
v -0.03870000 -0.02561957 0.05808747
v -0.03800000 -0.02700000 0.05833408
v -0.03800000 -0.02674623 0.05819843
v -0.03800000 -0.02638043 0.05808747
v -0.03800000 -0.02600000 0.05805000
v -0.03800000 -0.02561957 0.05808747
v -0.03870000 -0.02700000 0.06166592
v -0.03870000 -0.02674623 0.06180157
v -0.03870000 -0.02638043 0.06191253
v -0.03870000 -0.02600000 0.06195000
v -0.03870000 -0.02561957 0.06191253
v -0.03800000 -0.02700000 0.06166592
v -0.03800000 -0.02674623 0.06180157
v -0.03800000 -0.02638043 0.06191253
v -0.03800000 -0.02600000 0.06195000
v -0.03800000 -0.02561957 0.06191253
v -0.03870000 -0.02525377 0.05819843
v -0.03870000 -0.02491664 0.05837863
v -0.03870000 -0.02462114 0.05862114
v -0.03870000 -0.02437863 0.05891664
v -0.03870000 -0.02419843 0.05925377
v -0.03870000 -0.02408747 0.05961957
v -0.03800000 -0.02525377 0.05819843
v -0.03800000 -0.02491664 0.05837863
v -0.03800000 -0.02462114 0.05862114
v -0.03800000 -0.02437863 0.05891664
v -0.03800000 -0.02419843 0.05925377
v -0.03800000 -0.02408747 0.05961957
v -0.03870000 -0.02525377 0.06180157
v -0.03870000 -0.02491664 0.06162137
v -0.03870000 -0.02405000 0.06000000
v -0.03870000 -0.02408747 0.06038043
v -0.03870000 -0.02419843 0.06074623
v -0.03870000 -0.02462114 0.06137886
v -0.03870000 -0.02437863 0.06108336
v -0.03800000 -0.02525377 0.06180157
v -0.03800000 -0.02491664 0.06162137
v -0.03800000 -0.02405000 0.06000000
v -0.03800000 -0.02408747 0.06038043
v -0.03800000 -0.02419843 0.06074623
v -0.03800000 -0.02462114 0.06137886
v -0.03800000 -0.02437863 0.06108336
v -0.03660000 -0.02681484 0.05945554
v -0.03660000 -0.02669296 0.05930704
v -0.03660000 -0.02690540 0.05962497
v -0.03660000 -0.02696117 0.05980881
v -0.03660000 -0.02654446 0.05918516
v -0.03660000 -0.02637503 0.05909460
v -0.03660000 -0.02600000 0.05902000
v -0.03660000 -0.02619119 0.05903883
v -0.03660000 -0.02580881 0.05903883
v -0.03660000 -0.02562497 0.05909460
v -0.03660000 -0.02698000 0.06000000
v -0.03660000 -0.02696117 0.06019119
v -0.03660000 -0.02690540 0.06037503
v -0.03660000 -0.02681484 0.06054446
v -0.03660000 -0.02669296 0.06069296
v -0.03660000 -0.02654446 0.06081484
v -0.03660000 -0.02637503 0.06090540
v -0.03660000 -0.02619119 0.06096117
v -0.03660000 -0.02580881 0.06096117
v -0.03660000 -0.02562497 0.06090540
v -0.03660000 -0.02600000 0.06098000
v -0.03660000 -0.02545554 0.05918516
v -0.03660000 -0.02530704 0.05930704
v -0.03660000 -0.02518516 0.05945554
v -0.03660000 -0.02509460 0.05962497
v -0.03660000 -0.02503883 0.05980881
v -0.03660000 -0.02545554 0.06081484
v -0.03660000 -0.02530704 0.06069296
v -0.03660000 -0.02518516 0.06054446
v -0.03660000 -0.02502000 0.06000000
v -0.03660000 -0.02503883 0.06019119
v -0.03660000 -0.02509460 0.06037503
f 1 3 2
f 6 1 2
f 1 4 3
f 2 3 8
f 6 2 7
f 7 2 8
f 14 4 1
f 16 1 6
f 4 8 3
f 4 5 10
f 8 4 9
f 4 10 9
f 14 1 11
f 11 1 16
f 13 11 12
f 11 16 12
f 14 11 13
f 18 13 12
f 17 12 16
f 18 12 17
f 14 13 19
f 33 14 15
f 14 20 15
f 18 19 13
f 20 14 19
f 5 23 21
f 27 5 21
f 4 35 5
f 23 22 21
f 28 21 22
f 5 27 10
f 28 27 21
f 29 28 22
f 23 5 35
f 23 29 22
f 30 23 24
f 23 25 24
f 29 23 30
f 25 23 35
f 25 30 24
f 31 25 26
f 25 35 26
f 35 32 26
f 31 30 25
f 32 31 26
f 35 42 32
f 4 14 35
f 38 14 33
f 20 33 15
f 35 14 38
f 38 33 34
f 33 41 34
f 41 38 34
f 33 20 40
f 40 41 33
f 42 35 36
f 35 38 36
f 37 36 38
f 46 37 39
f 44 36 37
f 42 36 43
f 46 44 37
f 36 44 43
f 38 46 39
f 37 38 39
f 45 38 41
f 38 45 46
f 7 51 6
f 8 54 7
f 8 9 54
f 10 55 9
f 27 55 10
f 6 51 48
f 51 7 52
f 54 52 7
f 6 49 50
f 49 6 47
f 6 48 47
f 57 6 50
f 48 49 47
f 48 57 49
f 49 57 50
f 57 48 55
f 55 48 51
f 54 9 53
f 9 55 53
f 55 27 56
f 55 51 52
f 55 52 54
f 55 54 53
f 75 57 55
f 68 55 56
f 57 16 6
f 62 17 16
f 63 18 17
f 19 18 64
f 20 19 65
f 40 20 65
f 16 57 58
f 59 16 58
f 60 16 59
f 16 60 61
f 57 59 58
f 57 60 59
f 57 62 60
f 60 62 61
f 57 73 62
f 62 16 61
f 62 63 17
f 18 63 64
f 62 65 63
f 63 65 64
f 73 57 74
f 64 65 67
f 65 62 73
f 74 57 75
f 65 73 66
f 19 64 67
f 65 19 67
f 40 65 66
f 27 28 68
f 29 68 28
f 69 29 30
f 30 31 70
f 31 32 71
f 42 72 32
f 27 68 56
f 69 68 29
f 69 30 70
f 71 70 31
f 75 55 68
f 75 68 69
f 75 69 70
f 75 70 71
f 75 71 72
f 32 72 71
f 72 42 76
f 73 41 40
f 73 45 41
f 43 44 77
f 44 46 78
f 42 43 76
f 45 74 46
f 45 73 74
f 46 75 78
f 46 74 75
f 75 72 77
f 76 77 72
f 75 77 78
f 73 40 66
f 43 77 76
f 78 77 44

