# https://github.com/mikedh/trimesh
v 0.00600000 0.00000000 0.00000000
v 0.00600000 0.00000000 0.00200000
v 0.00600000 0.00500000 0.00000000
v 0.00600000 0.00519509 0.00001921
v 0.00600000 0.00538268 0.00007612
v 0.00600000 0.00555557 0.00016853
v 0.00600000 0.00570711 0.00029289
v 0.00600000 0.00583147 0.00044443
v 0.00600000 0.00592388 0.00061732
v 0.00600000 0.00598079 0.00080491
v 0.00600000 0.00600000 0.00100000
v 0.00600000 0.00600000 0.00200000
v 0.00900000 0.00000000 0.00000000
v 0.00919509 0.00000000 0.00001921
v 0.00938268 0.00000000 0.00007612
v 0.00955557 0.00000000 0.00016853
v 0.00970711 0.00000000 0.00029289
v 0.00983147 0.00000000 0.00044443
v 0.00992388 0.00000000 0.00061732
v 0.00998079 0.00000000 0.00080491
v 0.01000000 0.00000000 0.00100000
v 0.01000000 0.00000000 0.00200000
v 0.00900000 0.00500000 0.00000000
v 0.00900000 0.00519509 0.00001921
v 0.00919509 0.00500000 0.00001921
v 0.00920233 0.00520233 0.00004181
v 0.00938268 0.00500000 0.00007612
v 0.00940891 0.00520846 0.00011155
v 0.00900000 0.00538268 0.00007612
v 0.00920846 0.00540891 0.00011155
v 0.00900000 0.00555557 0.00016853
v 0.00921201 0.00560377 0.00023155
v 0.00942977 0.00542977 0.00020590
v 0.00900000 0.00570711 0.00029289
v 0.00900000 0.00583147 0.00044443
v 0.00921201 0.00576845 0.00039623
v 0.00943789 0.00563571 0.00036429
v 0.00955557 0.00500000 0.00016853
v 0.00960377 0.00521201 0.00023155
v 0.00970711 0.00500000 0.00029289
v 0.00983147 0.00500000 0.00044443
v 0.00976845 0.00521201 0.00039623
v 0.00963571 0.00543789 0.00036429
v 0.00900000 0.00592388 0.00061732
v 0.00920846 0.00588845 0.00059109
v 0.00942977 0.00579410 0.00057023
v 0.00900000 0.00598079 0.00080491
v 0.00920233 0.00595819 0.00079767
v 0.00940891 0.00588845 0.00079154
v 0.00992388 0.00500000 0.00061732
v 0.00988845 0.00520846 0.00059109
v 0.00998079 0.00500000 0.00080491
v 0.00995819 0.00520233 0.00079767
v 0.00963571 0.00563571 0.00056211
v 0.00979410 0.00542977 0.00057023
v 0.00960377 0.00576845 0.00078799
v 0.00976845 0.00560377 0.00078799
v 0.00988845 0.00540891 0.00079154
v 0.00900000 0.00600000 0.00100000
v 0.00919509 0.00598079 0.00100000
v 0.00938268 0.00592388 0.00100000
v 0.01000000 0.00500000 0.00100000
v 0.00998079 0.00519509 0.00100000
v 0.00955557 0.00583147 0.00100000
v 0.00970711 0.00570711 0.00100000
v 0.00983147 0.00555557 0.00100000
v 0.00992388 0.00538268 0.00100000
v 0.00900000 0.00600000 0.00200000
v 0.00919509 0.00598079 0.00200000
v 0.00938268 0.00592388 0.00200000
v 0.01000000 0.00500000 0.00200000
v 0.00998079 0.00519509 0.00200000
v 0.00955557 0.00583147 0.00200000
v 0.00970711 0.00570711 0.00200000
v 0.00983147 0.00555557 0.00200000
v 0.00992388 0.00538268 0.00200000
f 11 1 2
f 1 21 2
f 1 4 3
f 1 11 4
f 4 7 5
f 5 7 6
f 4 11 7
f 7 9 8
f 7 11 9
f 9 11 10
f 23 1 3
f 4 23 3
f 24 4 5
f 5 6 29
f 7 34 6
f 8 34 7
f 9 44 8
f 47 9 10
f 11 47 10
f 11 2 12
f 2 75 12
f 11 12 68
f 14 1 13
f 21 1 14
f 1 23 13
f 16 14 15
f 17 14 16
f 21 14 17
f 19 17 18
f 21 17 19
f 21 19 20
f 23 14 13
f 14 27 15
f 27 16 15
f 16 38 17
f 17 40 18
f 50 19 18
f 20 19 50
f 62 21 20
f 2 21 22
f 75 2 22
f 22 21 62
f 24 23 4
f 29 24 5
f 6 31 29
f 34 31 6
f 35 34 8
f 44 35 8
f 44 9 47
f 47 11 59
f 23 25 14
f 25 27 14
f 27 38 16
f 17 38 40
f 18 40 41
f 50 18 41
f 20 50 52
f 62 20 52
f 23 24 25
f 24 26 25
f 26 27 25
f 28 27 26
f 38 27 28
f 26 24 29
f 30 29 31
f 30 26 29
f 31 34 32
f 30 31 32
f 28 26 30
f 33 28 30
f 30 32 33
f 33 39 28
f 34 36 32
f 34 35 36
f 36 35 45
f 37 33 32
f 32 36 37
f 36 46 37
f 38 28 39
f 40 38 39
f 39 42 40
f 40 42 41
f 51 41 42
f 43 39 33
f 33 37 43
f 43 42 39
f 37 54 43
f 43 55 42
f 55 43 54
f 46 54 37
f 44 45 35
f 48 44 47
f 44 48 45
f 36 45 46
f 45 49 46
f 48 49 45
f 49 56 46
f 48 47 60
f 60 47 59
f 49 48 61
f 60 61 48
f 49 61 64
f 51 50 41
f 50 51 53
f 50 53 52
f 53 63 52
f 62 52 63
f 55 54 57
f 46 56 54
f 54 56 57
f 55 51 42
f 55 58 51
f 55 57 58
f 51 58 53
f 49 64 56
f 56 65 57
f 65 56 64
f 57 66 58
f 67 53 58
f 66 57 65
f 63 53 67
f 58 66 67
f 11 68 59
f 68 12 75
f 22 62 71
f 75 22 71
f 59 68 60
f 70 61 60
f 64 61 70
f 63 72 62
f 64 74 65
f 74 66 65
f 76 63 67
f 66 76 67
f 60 68 69
f 70 60 69
f 64 70 73
f 68 70 69
f 68 74 70
f 71 62 72
f 74 64 73
f 74 75 66
f 66 75 76
f 76 72 63
f 68 75 74
f 70 74 73
f 72 75 71
f 75 72 76

