# https://github.com/mikedh/trimesh
v 0.00000000 0.00000000 0.00300000
v 0.00000000 0.00000000 0.00450000
v 0.00000000 0.00190000 0.00300000
v 0.00037067 0.00186349 0.00300000
v 0.00072710 0.00175537 0.00300000
v 0.00000000 0.00190000 0.00450000
v 0.00037067 0.00186349 0.00450000
v 0.00072710 0.00175537 0.00450000
v 0.00190000 0.00000000 0.00300000
v 0.00186349 0.00037067 0.00300000
v 0.00175537 0.00072710 0.00300000
v 0.00190000 0.00000000 0.00450000
v 0.00186349 0.00037067 0.00450000
v 0.00175537 0.00072710 0.00450000
v 0.00134350 0.00134350 0.00300000
v 0.00105558 0.00157979 0.00300000
v 0.00157979 0.00105558 0.00300000
v 0.00134350 0.00134350 0.00450000
v 0.00105558 0.00157979 0.00450000
v 0.00157979 0.00105558 0.00450000
f 2 3 1
f 9 2 1
f 3 9 1
f 5 3 4
f 3 7 4
f 15 3 5
f 7 5 4
f 5 19 16
f 3 2 6
f 2 18 6
f 3 6 7
f 6 8 7
f 8 5 7
f 8 19 5
f 8 6 18
f 9 11 10
f 12 9 10
f 9 15 11
f 11 14 10
f 11 17 14
f 2 9 12
f 18 2 12
f 12 10 13
f 14 12 13
f 14 17 20
f 10 14 13
f 18 12 14
f 9 3 15
f 15 18 17
f 15 5 16
f 19 15 16
f 11 15 17
f 18 15 19
f 8 18 19
f 17 18 20
f 18 14 20

