# https://github.com/mikedh/trimesh
v 0.00110000 0.00000000 -0.00340000
v 0.00110000 0.00000000 -0.00180000
v 0.00000000 0.00110000 -0.00340000
v 0.00000000 0.00200000 -0.00340000
v 0.00115470 0.00200000 -0.00340000
v 0.00000000 0.00110000 -0.00180000
v 0.00000000 0.00200000 -0.00180000
v 0.00115470 0.00200000 -0.00180000
v 0.00230940 0.00000000 -0.00340000
v 0.00230940 0.00000000 -0.00180000
f 3 1 2
f 4 9 1
f 3 2 6
f 4 1 3
f 7 4 3
f 4 8 5
f 7 3 6
f 2 7 6
f 8 4 7
f 2 8 7
f 9 2 1
f 9 5 10
f 2 10 8
f 2 9 10
f 9 4 5
f 5 8 10

