# https://github.com/mikedh/trimesh
v -0.03900000 -0.02862817 0.11400000
v -0.03900000 -0.02814849 0.11471790
v -0.03900000 -0.02700000 0.11400000
v -0.03900000 -0.02748008 0.11548008
v -0.03900000 -0.02700000 0.11590109
v -0.03660000 -0.02862817 0.11400000
v -0.03660000 -0.02814849 0.11471790
v -0.03660000 -0.02700000 0.11400000
v -0.03660000 -0.02748008 0.11548008
v -0.03660000 -0.02700000 0.11590109
f 2 3 1
f 6 2 1
f 3 6 1
f 4 2 7
f 5 3 2
f 5 2 4
f 5 10 3
f 10 5 4
f 6 7 2
f 6 10 7
f 6 3 8
f 3 10 8
f 10 6 8
f 4 7 9
f 10 4 9
f 7 10 9

