# https://github.com/mikedh/trimesh
v -0.03633342 0.03400000 0.04701118
v -0.03529610 0.03400000 0.04645672
v -0.03545345 0.03525076 0.04666931
v -0.03660000 0.03400000 0.04722996
v -0.03660000 0.03400000 0.04840000
v -0.03660000 0.03517266 0.04735975
v -0.03660000 0.03527168 0.04737538
v -0.03660000 0.03530037 0.04738597
v -0.03660000 0.03661886 0.04802094
v -0.03660000 0.03684158 0.04818574
v -0.03660000 0.03705584 0.04840000
v -0.03605584 0.03760000 0.04840000
v -0.03584158 0.03760000 0.04818574
v -0.03557860 0.03657860 0.04723537
v -0.03561886 0.03760000 0.04802094
v -0.03417054 0.03400000 0.04611529
v -0.03421401 0.03521401 0.04625088
v -0.03300000 0.03400000 0.04600000
v -0.03300000 0.03517054 0.04611529
v -0.03300000 0.03400000 0.04840000
v -0.03425076 0.03645345 0.04666931
v -0.03300000 0.03629610 0.04645672
v -0.03300000 0.03733342 0.04701118
v -0.03430037 0.03760000 0.04738597
v -0.03427168 0.03760000 0.04737538
v -0.03417266 0.03760000 0.04735975
v -0.03300000 0.03760000 0.04722996
v -0.03300000 0.03760000 0.04840000
f 3 1 7
f 14 3 7
f 16 1 2
f 3 17 2
f 1 3 2
f 18 5 1
f 1 4 6
f 1 5 4
f 7 1 6
f 4 7 6
f 14 7 8
f 4 10 7
f 7 9 8
f 5 10 4
f 12 5 20
f 21 3 14
f 9 14 8
f 7 10 9
f 10 5 11
f 5 12 11
f 10 14 9
f 12 10 11
f 10 12 13
f 14 10 13
f 12 15 13
f 14 15 24
f 15 14 13
f 27 15 12
f 17 16 2
f 18 1 16
f 17 3 21
f 17 19 16
f 18 16 19
f 22 18 19
f 17 22 19
f 5 18 20
f 18 27 20
f 21 14 25
f 21 25 26
f 21 22 17
f 27 18 22
f 22 21 23
f 23 21 26
f 27 22 23
f 12 20 28
f 25 14 24
f 15 25 24
f 15 27 25
f 27 12 28
f 20 27 28
f 25 27 26
f 27 23 26

