# https://github.com/mikedh/trimesh
v -0.00081484 -0.00054446 -0.00380000
v -0.00054446 -0.00081484 -0.00380000
v -0.00069296 -0.00069296 -0.00380000
v -0.00081484 -0.00054446 -0.00340000
v -0.00054446 -0.00081484 -0.00340000
v -0.00069296 -0.00069296 -0.00340000
v -0.00090540 -0.00037503 -0.00380000
v -0.00096117 -0.00019119 -0.00380000
v -0.00098000 0.00000000 -0.00380000
v -0.00090540 -0.00037503 -0.00340000
v -0.00096117 -0.00019119 -0.00340000
v -0.00098000 0.00000000 -0.00340000
v -0.00037503 -0.00090540 -0.00380000
v -0.00019119 -0.00096117 -0.00380000
v 0.00000000 -0.00098000 -0.00380000
v -0.00037503 -0.00090540 -0.00340000
v -0.00019119 -0.00096117 -0.00340000
v 0.00000000 -0.00098000 -0.00340000
v 0.00000000 0.00000000 -0.00380000
v 0.00000000 0.00000000 -0.00340000
f 7 3 1
f 3 4 1
f 3 13 2
f 5 3 2
f 9 15 3
f 6 10 4
f 16 6 5
f 3 6 4
f 6 3 5
f 9 3 7
f 7 11 8
f 4 7 1
f 9 7 8
f 11 9 8
f 10 7 4
f 10 11 7
f 6 12 10
f 12 9 11
f 10 12 11
f 20 9 12
f 20 12 6
f 3 15 13
f 13 5 2
f 17 13 14
f 13 15 14
f 15 17 14
f 16 5 13
f 16 13 17
f 16 18 6
f 15 18 17
f 18 16 17
f 15 20 18
f 20 6 18
f 15 9 19
f 9 20 19
f 20 15 19

