# https://github.com/mikedh/trimesh
v 0.03500000 0.03400000 0.12000000
v 0.03500000 0.03400000 0.12360000
v 0.03500000 0.03544637 0.12360000
v 0.03500000 0.03760000 0.12000000
v 0.03500000 0.03760000 0.12144637
v 0.03860000 0.03400000 0.12000000
v 0.03860000 0.03400000 0.12360000
v 0.03860000 0.03544637 0.12360000
v 0.03860000 0.03760000 0.12000000
v 0.03860000 0.03760000 0.12144637
f 2 4 1
f 6 2 1
f 4 6 1
f 5 2 3
f 2 8 3
f 4 2 5
f 4 5 9
f 8 5 3
f 6 9 8
f 2 6 7
f 8 2 7
f 6 8 7
f 6 4 9
f 9 5 10
f 8 9 10
f 5 8 10

