# https://github.com/mikedh/trimesh
v 0.00000000 -0.00098000 -0.00340000
v 0.00019119 -0.00096117 -0.00340000
v 0.00037503 -0.00090540 -0.00340000
v 0.00000000 -0.00098000 -0.00100000
v 0.00019119 -0.00096117 -0.00100000
v 0.00037503 -0.00090540 -0.00100000
v 0.00000000 0.00000000 -0.00340000
v 0.00000000 0.00000000 -0.00100000
v 0.00054446 -0.00081484 -0.00340000
v 0.00069296 -0.00069296 -0.00340000
v 0.00081484 -0.00054446 -0.00340000
v 0.00054446 -0.00081484 -0.00100000
v 0.00069296 -0.00069296 -0.00100000
v 0.00081484 -0.00054446 -0.00100000
v 0.00090540 -0.00037503 -0.00340000
v 0.00096117 -0.00019119 -0.00340000
v 0.00098000 0.00000000 -0.00340000
v 0.00090540 -0.00037503 -0.00100000
v 0.00096117 -0.00019119 -0.00100000
v 0.00098000 0.00000000 -0.00100000
f 1 3 2
f 4 1 2
f 1 4 7
f 1 10 3
f 5 2 3
f 12 3 9
f 4 2 5
f 5 3 6
f 3 12 6
f 12 4 5
f 12 5 6
f 12 18 4
f 17 1 7
f 17 7 8
f 7 4 8
f 8 4 18
f 3 10 9
f 1 17 10
f 9 10 13
f 10 11 13
f 10 15 11
f 9 13 12
f 13 14 12
f 11 14 13
f 18 12 14
f 10 17 15
f 11 15 18
f 18 15 16
f 16 15 17
f 17 20 16
f 17 8 20
f 8 18 20
f 11 18 14
f 18 16 19
f 16 20 19
f 20 18 19

