# https://github.com/mikedh/trimesh
v -0.03300000 0.02518516 0.11145554
v -0.03300000 0.02545554 0.11118516
v -0.03300000 0.02530704 0.11130704
v -0.03300000 0.02509460 0.11162497
v -0.03300000 0.02503883 0.11180881
v -0.03300000 0.02562497 0.11109460
v -0.03300000 0.02580881 0.11103883
v -0.03300000 0.02502000 0.11200000
v -0.03300000 0.02503883 0.11219119
v -0.03300000 0.02509460 0.11237503
v -0.03300000 0.02518516 0.11254446
v -0.03300000 0.02530704 0.11269296
v -0.03300000 0.02545554 0.11281484
v -0.03300000 0.02562497 0.11290540
v -0.03300000 0.02580881 0.11296117
v -0.03300000 0.02600000 0.11102000
v -0.03300000 0.02619119 0.11103883
v -0.03300000 0.02637503 0.11109460
v -0.03300000 0.02654446 0.11118516
v -0.03300000 0.02669296 0.11130704
v -0.03300000 0.02681484 0.11145554
v -0.03300000 0.02690540 0.11162497
v -0.03300000 0.02696117 0.11180881
v -0.03300000 0.02600000 0.11298000
v -0.03300000 0.02619119 0.11296117
v -0.03300000 0.02637503 0.11290540
v -0.03300000 0.02698000 0.11200000
v -0.03300000 0.02696117 0.11219119
v -0.03300000 0.02690540 0.11237503
v -0.03300000 0.02669296 0.11269296
v -0.03300000 0.02654446 0.11281484
v -0.03300000 0.02681484 0.11254446
v -0.03000000 0.02518516 0.11145554
v -0.03000000 0.02545554 0.11118516
v -0.03000000 0.02530704 0.11130704
v -0.03000000 0.02509460 0.11162497
v -0.03000000 0.02503883 0.11180881
v -0.03000000 0.02562497 0.11109460
v -0.03000000 0.02580881 0.11103883
v -0.03000000 0.02502000 0.11200000
v -0.03000000 0.02503883 0.11219119
v -0.03000000 0.02509460 0.11237503
v -0.03000000 0.02518516 0.11254446
v -0.03000000 0.02530704 0.11269296
v -0.03000000 0.02545554 0.11281484
v -0.03000000 0.02562497 0.11290540
v -0.03000000 0.02580881 0.11296117
v -0.03000000 0.02600000 0.11102000
v -0.03000000 0.02619119 0.11103883
v -0.03000000 0.02637503 0.11109460
v -0.03000000 0.02654446 0.11118516
v -0.03000000 0.02669296 0.11130704
v -0.03000000 0.02681484 0.11145554
v -0.03000000 0.02690540 0.11162497
v -0.03000000 0.02696117 0.11180881
v -0.03000000 0.02600000 0.11298000
v -0.03000000 0.02619119 0.11296117
v -0.03000000 0.02637503 0.11290540
v -0.03000000 0.02698000 0.11200000
v -0.03000000 0.02696117 0.11219119
v -0.03000000 0.02690540 0.11237503
v -0.03000000 0.02669296 0.11269296
v -0.03000000 0.02654446 0.11281484
v -0.03000000 0.02681484 0.11254446
f 7 2 1
f 1 2 3
f 5 1 4
f 9 1 5
f 9 7 1
f 2 7 6
f 9 27 7
f 33 1 3
f 3 2 34
f 5 4 36
f 1 33 4
f 5 40 8
f 38 2 6
f 7 38 6
f 48 7 16
f 9 5 8
f 11 9 10
f 9 11 12
f 24 9 12
f 14 12 13
f 24 12 14
f 24 14 15
f 40 9 8
f 9 42 10
f 43 11 10
f 43 12 11
f 12 45 13
f 45 14 13
f 14 47 15
f 47 24 15
f 7 17 16
f 7 19 17
f 17 19 18
f 7 27 19
f 19 21 20
f 19 27 21
f 22 21 27
f 22 27 23
f 17 48 16
f 17 18 49
f 19 51 18
f 19 20 51
f 21 53 20
f 54 21 22
f 54 22 23
f 27 59 23
f 27 9 24
f 26 24 25
f 30 24 26
f 27 29 28
f 27 30 29
f 27 24 30
f 30 26 31
f 32 29 30
f 24 56 25
f 26 25 57
f 31 26 58
f 59 27 28
f 64 29 32
f 28 29 61
f 30 62 32
f 63 30 31
f 33 3 35
f 3 34 35
f 4 33 36
f 5 36 37
f 40 5 37
f 2 38 34
f 38 7 39
f 7 48 39
f 34 38 33
f 34 33 35
f 33 40 36
f 36 40 37
f 33 42 40
f 48 33 38
f 48 38 39
f 9 40 41
f 42 9 41
f 42 43 10
f 12 43 44
f 45 12 44
f 45 46 14
f 46 47 14
f 56 24 47
f 40 42 41
f 33 56 42
f 42 45 43
f 43 45 44
f 42 56 45
f 45 56 46
f 46 56 47
f 48 17 49
f 49 18 50
f 18 51 50
f 51 20 52
f 20 53 52
f 21 54 53
f 54 23 55
f 23 59 55
f 54 33 48
f 51 48 49
f 51 49 50
f 48 51 54
f 53 51 52
f 54 51 53
f 59 54 55
f 25 56 57
f 26 57 58
f 63 31 58
f 59 28 60
f 28 61 60
f 64 61 29
f 30 63 62
f 62 64 32
f 33 54 56
f 56 63 57
f 56 64 63
f 63 58 57
f 64 56 54
f 64 54 59
f 61 59 60
f 64 59 61
f 63 64 62

