# https://github.com/mikedh/trimesh
v 0.03500000 -0.03760000 0.07134151
v 0.03500000 -0.03753073 0.07130448
v 0.03500000 -0.03678036 0.07107686
v 0.03500000 -0.03600000 0.07100000
v 0.03673872 -0.03760000 0.06200000
v 0.03500000 -0.03760000 0.07865849
v 0.03500000 -0.03753073 0.07869552
v 0.03500000 -0.03678036 0.07892314
v 0.03500000 -0.03600000 0.07900000
v 0.03500000 -0.03521964 0.07107686
v 0.03500000 -0.03446927 0.07130448
v 0.03500000 -0.03400000 0.07155531
v 0.03500000 -0.03521964 0.07892314
v 0.03500000 -0.03446927 0.07869552
v 0.03500000 -0.03400000 0.07844469
v 0.03860000 -0.03760000 0.06200000
v 0.03860000 -0.03760000 0.08600000
v 0.03860000 -0.03400000 0.07155531
v 0.03860000 -0.03564699 0.08600000
v 0.03860000 -0.03400000 0.07844469
f 1 3 2
f 1 4 3
f 5 1 2
f 5 6 1
f 3 5 2
f 4 5 3
f 6 12 1
f 1 12 4
f 5 4 10
f 5 12 16
f 8 6 7
f 9 6 8
f 15 6 9
f 5 17 6
f 6 17 7
f 17 8 7
f 17 9 8
f 4 12 10
f 5 10 11
f 12 5 11
f 10 12 11
f 15 18 12
f 6 15 12
f 15 9 13
f 15 13 14
f 9 19 13
f 13 19 14
f 19 15 14
f 17 5 16
f 17 16 18
f 17 19 9
f 12 18 16
f 18 15 20
f 15 19 20
f 17 18 19
f 19 18 20

