# https://github.com/mikedh/trimesh
v -0.03660000 0.02518516 0.05945554
v -0.03660000 0.02545554 0.05918516
v -0.03660000 0.02530704 0.05930704
v -0.03660000 0.02509460 0.05962497
v -0.03660000 0.02503883 0.05980881
v -0.03660000 0.02562497 0.05909460
v -0.03660000 0.02580881 0.05903883
v -0.03660000 0.02502000 0.06000000
v -0.03660000 0.02503883 0.06019119
v -0.03660000 0.02509460 0.06037503
v -0.03660000 0.02518516 0.06054446
v -0.03660000 0.02530704 0.06069296
v -0.03660000 0.02545554 0.06081484
v -0.03660000 0.02562497 0.06090540
v -0.03660000 0.02580881 0.06096117
v -0.03660000 0.02600000 0.05902000
v -0.03660000 0.02619119 0.05903883
v -0.03660000 0.02637503 0.05909460
v -0.03660000 0.02654446 0.05918516
v -0.03660000 0.02669296 0.05930704
v -0.03660000 0.02681484 0.05945554
v -0.03660000 0.02690540 0.05962497
v -0.03660000 0.02696117 0.05980881
v -0.03660000 0.02600000 0.06098000
v -0.03660000 0.02619119 0.06096117
v -0.03660000 0.02637503 0.06090540
v -0.03660000 0.02698000 0.06000000
v -0.03660000 0.02696117 0.06019119
v -0.03660000 0.02690540 0.06037503
v -0.03660000 0.02669296 0.06069296
v -0.03660000 0.02654446 0.06081484
v -0.03660000 0.02681484 0.06054446
v -0.03300000 0.02518516 0.05945554
v -0.03300000 0.02545554 0.05918516
v -0.03300000 0.02530704 0.05930704
v -0.03300000 0.02509460 0.05962497
v -0.03300000 0.02503883 0.05980881
v -0.03300000 0.02562497 0.05909460
v -0.03300000 0.02580881 0.05903883
v -0.03300000 0.02502000 0.06000000
v -0.03300000 0.02503883 0.06019119
v -0.03300000 0.02509460 0.06037503
v -0.03300000 0.02518516 0.06054446
v -0.03300000 0.02530704 0.06069296
v -0.03300000 0.02545554 0.06081484
v -0.03300000 0.02562497 0.06090540
v -0.03300000 0.02580881 0.06096117
v -0.03300000 0.02600000 0.05902000
v -0.03300000 0.02619119 0.05903883
v -0.03300000 0.02637503 0.05909460
v -0.03300000 0.02654446 0.05918516
v -0.03300000 0.02669296 0.05930704
v -0.03300000 0.02681484 0.05945554
v -0.03300000 0.02690540 0.05962497
v -0.03300000 0.02696117 0.05980881
v -0.03300000 0.02600000 0.06098000
v -0.03300000 0.02619119 0.06096117
v -0.03300000 0.02637503 0.06090540
v -0.03300000 0.02698000 0.06000000
v -0.03300000 0.02696117 0.06019119
v -0.03300000 0.02690540 0.06037503
v -0.03300000 0.02669296 0.06069296
v -0.03300000 0.02654446 0.06081484
v -0.03300000 0.02681484 0.06054446
f 1 6 2
f 1 2 3
f 6 1 5
f 5 1 4
f 5 12 6
f 6 16 7
f 27 6 12
f 35 1 3
f 2 35 3
f 37 5 4
f 4 1 33
f 5 40 8
f 6 34 2
f 39 6 7
f 16 39 7
f 10 5 8
f 10 8 9
f 12 5 10
f 12 10 11
f 15 12 13
f 15 13 14
f 26 12 15
f 8 41 9
f 41 10 9
f 10 43 11
f 43 12 11
f 12 44 13
f 13 46 14
f 46 15 14
f 15 56 24
f 6 19 16
f 17 16 19
f 17 19 18
f 19 6 27
f 19 21 20
f 22 21 19
f 19 27 22
f 22 27 23
f 49 16 17
f 50 17 18
f 19 50 18
f 52 19 20
f 21 52 20
f 22 54 21
f 55 22 23
f 27 55 23
f 27 12 26
f 25 15 24
f 26 15 25
f 27 26 32
f 27 29 28
f 27 32 29
f 32 26 30
f 30 26 31
f 56 25 24
f 26 25 58
f 26 63 31
f 60 27 28
f 32 64 29
f 29 60 28
f 63 30 31
f 32 30 64
f 33 1 35
f 34 35 2
f 4 33 36
f 37 4 36
f 40 5 37
f 34 6 38
f 6 39 38
f 39 16 48
f 39 33 34
f 34 33 35
f 33 37 36
f 33 40 37
f 39 34 38
f 51 33 39
f 40 41 8
f 42 10 41
f 10 42 43
f 44 12 43
f 13 44 45
f 13 45 46
f 47 15 46
f 56 15 47
f 40 42 41
f 33 44 40
f 40 44 42
f 42 44 43
f 33 62 44
f 44 47 45
f 45 47 46
f 44 56 47
f 16 49 48
f 50 49 17
f 19 51 50
f 51 19 52
f 53 52 21
f 54 53 21
f 22 55 54
f 55 27 59
f 49 39 48
f 51 39 49
f 51 49 50
f 62 33 51
f 53 51 52
f 55 51 53
f 62 51 55
f 55 53 54
f 25 56 57
f 58 25 57
f 26 58 63
f 27 60 59
f 60 29 61
f 64 61 29
f 62 30 63
f 30 62 64
f 44 62 56
f 56 58 57
f 62 58 56
f 60 55 59
f 62 55 60
f 62 60 61
f 63 58 62
f 62 61 64

