# https://github.com/mikedh/trimesh
v -0.03660000 0.00600000 0.12360000
v -0.03660000 0.00600000 0.12477004
v -0.03633342 0.00600000 0.12498882
v -0.03529610 0.00600000 0.12554328
v -0.03660000 0.02700000 0.12360000
v -0.03660000 0.02700000 0.12477004
v -0.03633342 0.02700000 0.12498882
v -0.03529610 0.02700000 0.12554328
v -0.03300000 0.00600000 0.12360000
v -0.03417054 0.00600000 0.12588471
v -0.03300000 0.00600000 0.12600000
v -0.03300000 0.02700000 0.12360000
v -0.03417054 0.02700000 0.12588471
v -0.03300000 0.02700000 0.12600000
f 1 3 2
f 5 1 2
f 1 5 9
f 6 2 3
f 1 11 3
f 3 11 4
f 8 3 4
f 8 4 10
f 5 2 6
f 8 5 6
f 12 5 8
f 6 3 7
f 3 8 7
f 8 6 7
f 11 1 9
f 11 9 12
f 10 4 11
f 11 14 10
f 9 5 12
f 8 10 13
f 14 8 13
f 11 12 14
f 10 14 13
f 12 8 14

