# https://github.com/mikedh/trimesh
v 0.03200000 0.03760000 0.12360000
v 0.03200000 0.03760000 0.12565849
v 0.03200000 0.03822228 0.12532588
v 0.03200000 0.03965849 0.12360000
v 0.03200000 0.03932588 0.12422228
v 0.03200000 0.03882843 0.12482843
v 0.03500000 0.03760000 0.12360000
v 0.03500000 0.03760000 0.12565849
v 0.03500000 0.03822228 0.12532588
v 0.03500000 0.03965849 0.12360000
v 0.03500000 0.03932588 0.12422228
v 0.03500000 0.03882843 0.12482843
f 6 1 2
f 6 2 3
f 1 8 2
f 2 9 3
f 9 6 3
f 4 1 6
f 4 6 5
f 4 10 1
f 10 4 5
f 5 6 11
f 8 1 7
f 1 10 7
f 10 8 7
f 2 8 9
f 6 9 12
f 8 12 9
f 6 12 11
f 10 5 11
f 12 10 11
f 8 10 12

