# https://github.com/mikedh/trimesh
v 0.00000000 -0.00400000 -0.00180000
v 0.00039207 -0.00398074 -0.00180000
v 0.00078036 -0.00392314 -0.00180000
v 0.00116114 -0.00382776 -0.00180000
v 0.00153073 -0.00369552 -0.00180000
v 0.00188559 -0.00352769 -0.00180000
v 0.00000000 -0.00400000 -0.00100000
v 0.00039207 -0.00398074 -0.00100000
v 0.00078036 -0.00392314 -0.00100000
v 0.00116114 -0.00382776 -0.00100000
v 0.00153073 -0.00369552 -0.00100000
v 0.00188559 -0.00352769 -0.00100000
v 0.00000000 -0.00135000 -0.00180000
v 0.00135000 0.00000000 -0.00180000
v 0.00000000 -0.00135000 -0.00100000
v 0.00135000 0.00000000 -0.00100000
v 0.00222228 -0.00332588 -0.00180000
v 0.00253757 -0.00309204 -0.00180000
v 0.00282843 -0.00282843 -0.00180000
v 0.00309204 -0.00253757 -0.00180000
v 0.00332588 -0.00222228 -0.00180000
v 0.00222228 -0.00332588 -0.00100000
v 0.00253757 -0.00309204 -0.00100000
v 0.00282843 -0.00282843 -0.00100000
v 0.00309204 -0.00253757 -0.00100000
v 0.00332588 -0.00222228 -0.00100000
v 0.00352769 -0.00188559 -0.00180000
v 0.00369552 -0.00153073 -0.00180000
v 0.00382776 -0.00116114 -0.00180000
v 0.00392314 -0.00078036 -0.00180000
v 0.00398074 -0.00039207 -0.00180000
v 0.00400000 0.00000000 -0.00180000
v 0.00352769 -0.00188559 -0.00100000
v 0.00369552 -0.00153073 -0.00100000
v 0.00382776 -0.00116114 -0.00100000
v 0.00392314 -0.00078036 -0.00100000
v 0.00398074 -0.00039207 -0.00100000
v 0.00400000 0.00000000 -0.00100000
f 13 4 1
f 1 4 2
f 2 4 3
f 7 1 2
f 7 13 1
f 2 3 8
f 4 9 3
f 4 17 5
f 5 17 6
f 4 5 10
f 12 5 6
f 17 12 6
f 7 2 8
f 9 8 3
f 9 7 8
f 11 7 9
f 13 7 15
f 10 9 4
f 5 11 10
f 11 5 12
f 11 9 10
f 11 23 7
f 23 11 12
f 13 16 14
f 13 32 4
f 32 13 14
f 7 16 15
f 16 13 15
f 7 35 16
f 4 20 17
f 17 18 22
f 23 18 19
f 17 20 18
f 18 20 19
f 4 32 20
f 28 21 20
f 19 20 25
f 20 21 25
f 26 21 27
f 17 22 12
f 18 23 22
f 23 12 22
f 23 19 24
f 19 25 24
f 35 7 23
f 25 23 24
f 23 25 26
f 26 25 21
f 35 23 26
f 16 32 14
f 21 28 27
f 28 20 30
f 20 31 30
f 28 30 29
f 28 34 27
f 34 28 29
f 29 30 35
f 20 32 31
f 37 30 31
f 32 37 31
f 26 27 33
f 27 34 33
f 35 34 29
f 34 26 33
f 35 26 34
f 32 16 38
f 36 35 30
f 37 36 30
f 32 38 37
f 16 35 38
f 38 35 36
f 38 36 37

