# https://github.com/mikedh/trimesh
v -0.00600000 -0.00583147 0.04044443
v -0.00600000 -0.00570711 0.04029289
v -0.00600000 -0.00555557 0.04016853
v -0.00600000 -0.00538268 0.04007612
v -0.00600000 -0.00592388 0.04061732
v -0.00600000 -0.00598079 0.04080491
v -0.00600000 -0.00519509 0.04001921
v -0.00600000 -0.00500000 0.04000000
v -0.00600000 -0.00600000 0.04100000
v -0.00600000 -0.00600000 0.04360000
v -0.00600000 0.00000000 0.04000000
v -0.00600000 0.00000000 0.04360000
v 0.00000000 -0.00583147 0.04044443
v 0.00000000 -0.00570711 0.04029289
v 0.00000000 -0.00555557 0.04016853
v 0.00000000 -0.00538268 0.04007612
v 0.00000000 -0.00592388 0.04061732
v 0.00000000 -0.00598079 0.04080491
v 0.00000000 -0.00519509 0.04001921
v 0.00000000 -0.00500000 0.04000000
v 0.00000000 -0.00600000 0.04100000
v 0.00000000 -0.00600000 0.04360000
v 0.00000000 0.00000000 0.04000000
v 0.00000000 0.00000000 0.04360000
f 3 2 1
f 3 8 4
f 6 1 5
f 6 3 1
f 4 8 7
f 10 3 6
f 3 11 8
f 10 11 3
f 13 1 2
f 3 15 2
f 15 3 4
f 4 7 16
f 5 1 13
f 6 5 18
f 8 20 7
f 6 21 9
f 11 20 8
f 10 6 9
f 21 10 9
f 11 10 12
f 10 24 12
f 24 11 12
f 2 15 14
f 13 2 14
f 15 4 16
f 7 19 16
f 5 13 17
f 5 17 18
f 21 6 18
f 7 20 19
f 15 13 14
f 20 13 15
f 19 15 16
f 20 15 19
f 13 21 17
f 17 21 18
f 13 22 21
f 23 13 20
f 22 10 21
f 24 10 22
f 13 24 22
f 11 23 20
f 11 24 23
f 13 23 24

