# https://github.com/mikedh/trimesh
v 0.03200000 -0.03400000 0.11855531
v 0.03200000 -0.03377772 0.11867412
v 0.03200000 -0.03400000 0.12000000
v 0.03200000 -0.03317157 0.11917157
v 0.03200000 -0.03267412 0.11977772
v 0.03200000 -0.03255531 0.12000000
v 0.03500000 -0.03400000 0.11855531
v 0.03500000 -0.03377772 0.11867412
v 0.03500000 -0.03400000 0.12000000
v 0.03500000 -0.03317157 0.11917157
v 0.03500000 -0.03267412 0.11977772
v 0.03500000 -0.03255531 0.12000000
f 1 4 2
f 7 1 2
f 1 7 3
f 2 4 10
f 6 1 3
f 6 3 9
f 1 6 4
f 4 6 5
f 11 4 5
f 6 12 5
f 7 2 8
f 2 10 8
f 10 7 8
f 10 11 7
f 3 7 9
f 9 7 11
f 4 11 10
f 6 9 12
f 11 5 12
f 9 11 12

