# https://github.com/mikedh/trimesh
v 0.03200000 0.03230448 0.12046927
v 0.03200000 0.03207686 0.12121964
v 0.03200000 0.03255531 0.12000000
v 0.03200000 0.03200000 0.12200000
v 0.03200000 0.03207686 0.12278036
v 0.03200000 0.03230448 0.12353073
v 0.03200000 0.03234151 0.12360000
v 0.03200000 0.03400000 0.12000000
v 0.03200000 0.03400000 0.12360000
v 0.03500000 0.03230448 0.12046927
v 0.03500000 0.03207686 0.12121964
v 0.03500000 0.03255531 0.12000000
v 0.03500000 0.03200000 0.12200000
v 0.03500000 0.03207686 0.12278036
v 0.03500000 0.03230448 0.12353073
v 0.03500000 0.03234151 0.12360000
v 0.03500000 0.03400000 0.12000000
v 0.03500000 0.03400000 0.12360000
f 4 1 2
f 1 8 3
f 7 8 1
f 1 10 2
f 12 1 3
f 4 2 13
f 7 1 4
f 7 4 5
f 7 5 6
f 4 13 5
f 5 14 6
f 16 7 6
f 8 12 3
f 8 7 9
f 7 18 9
f 18 8 9
f 10 1 12
f 2 10 11
f 13 2 11
f 10 13 11
f 17 10 12
f 5 13 14
f 6 14 15
f 16 6 15
f 18 7 16
f 10 16 13
f 13 16 14
f 14 16 15
f 10 18 16
f 8 17 12
f 8 18 17
f 10 17 18

