# https://github.com/mikedh/trimesh
v -0.02700000 -0.04000000 0.05800000
v -0.02700000 -0.04000000 0.06200000
v -0.02700000 -0.03760000 0.05800000
v -0.02700000 -0.03760000 0.06200000
v -0.02400000 -0.04000000 0.05800000
v -0.02499208 -0.04000000 0.06200000
v -0.02400000 -0.04000000 0.06086661
v -0.02400000 -0.03760000 0.05800000
v -0.02499208 -0.03760000 0.06200000
v -0.02400000 -0.03760000 0.06086661
f 2 3 1
f 5 2 1
f 3 5 1
f 4 2 6
f 3 2 4
f 4 6 9
f 10 3 4
f 5 10 7
f 2 5 7
f 2 7 6
f 6 7 10
f 5 3 8
f 3 10 8
f 10 5 8
f 10 4 9
f 6 10 9

