# https://github.com/mikedh/trimesh
v 0.00600000 -0.00600000 0.04360000
v 0.00600000 -0.00600000 0.04500000
v 0.00600000 -0.00598079 0.04519509
v 0.00600000 -0.00592388 0.04538268
v 0.00600000 -0.00583147 0.04555557
v 0.00600000 -0.00570711 0.04570711
v 0.00600000 -0.00555557 0.04583147
v 0.00600000 -0.00538268 0.04592388
v 0.00600000 -0.00519509 0.04598079
v 0.00600000 -0.00500000 0.04600000
v 0.00600000 0.00000000 0.04360000
v 0.00600000 0.00000000 0.04600000
v 0.01000000 -0.00600000 0.04360000
v 0.01000000 -0.00600000 0.04500000
v 0.01000000 -0.00598079 0.04519509
v 0.01000000 -0.00592388 0.04538268
v 0.01000000 -0.00583147 0.04555557
v 0.01000000 -0.00570711 0.04570711
v 0.01000000 -0.00555557 0.04583147
v 0.01000000 -0.00538268 0.04592388
v 0.01000000 -0.00519509 0.04598079
v 0.01000000 -0.00500000 0.04600000
v 0.01000000 0.00000000 0.04360000
v 0.01000000 0.00000000 0.04600000
f 3 1 2
f 11 1 8
f 1 13 2
f 11 13 1
f 8 1 3
f 5 3 4
f 8 3 5
f 8 5 6
f 8 6 7
f 10 8 9
f 12 8 10
f 3 2 15
f 3 16 4
f 16 5 4
f 5 18 6
f 7 6 18
f 19 8 7
f 8 21 9
f 21 10 9
f 22 12 10
f 11 8 12
f 24 11 12
f 2 13 14
f 13 15 14
f 15 2 14
f 3 15 16
f 5 16 17
f 18 5 17
f 18 19 7
f 20 8 19
f 8 20 21
f 22 10 21
f 13 20 15
f 15 18 16
f 16 18 17
f 15 20 18
f 18 20 19
f 20 22 21
f 13 24 20
f 22 20 24
f 13 11 23
f 11 24 23
f 24 13 23
f 24 12 22

