# https://github.com/mikedh/trimesh
v -0.02400000 0.00000000 0.05200000
v -0.02400000 0.00000000 0.05300000
v -0.02398079 0.00000000 0.05319509
v -0.02392388 0.00000000 0.05338268
v -0.02383147 0.00000000 0.05355557
v -0.02370711 0.00000000 0.05370711
v -0.02355557 0.00000000 0.05383147
v -0.02338268 0.00000000 0.05392388
v -0.02319509 0.00000000 0.05398079
v -0.02300000 0.00000000 0.05400000
v -0.02400000 0.00600000 0.05200000
v -0.02400000 0.00600000 0.05300000
v -0.02398079 0.00600000 0.05319509
v -0.02392388 0.00600000 0.05338268
v -0.02383147 0.00600000 0.05355557
v -0.02370711 0.00600000 0.05370711
v -0.02355557 0.00600000 0.05383147
v -0.02338268 0.00600000 0.05392388
v -0.02319509 0.00600000 0.05398079
v -0.02300000 0.00600000 0.05400000
v -0.01600000 0.00000000 0.05200000
v -0.01600000 0.00000000 0.05300000
v -0.01601921 0.00000000 0.05319509
v -0.01607612 0.00000000 0.05338268
v -0.01616853 0.00000000 0.05355557
v -0.01629289 0.00000000 0.05370711
v -0.01700000 0.00000000 0.05400000
v -0.01680491 0.00000000 0.05398079
v -0.01661732 0.00000000 0.05392388
v -0.01644443 0.00000000 0.05383147
v -0.01600000 0.00600000 0.05200000
v -0.01600000 0.00600000 0.05300000
v -0.01601921 0.00600000 0.05319509
v -0.01607612 0.00600000 0.05338268
v -0.01616853 0.00600000 0.05355557
v -0.01629289 0.00600000 0.05370711
v -0.01700000 0.00600000 0.05400000
v -0.01680491 0.00600000 0.05398079
v -0.01661732 0.00600000 0.05392388
v -0.01644443 0.00600000 0.05383147
f 1 4 2
f 11 1 2
f 21 4 1
f 11 21 1
f 2 4 3
f 4 6 5
f 4 7 6
f 4 10 7
f 7 10 8
f 8 10 9
f 2 3 12
f 4 14 3
f 15 4 5
f 6 15 5
f 16 6 7
f 7 8 18
f 19 8 9
f 10 19 9
f 4 28 10
f 10 27 20
f 11 2 12
f 14 11 12
f 12 3 13
f 3 14 13
f 14 4 15
f 16 15 6
f 16 7 17
f 7 18 17
f 8 19 18
f 19 10 20
f 11 14 19
f 14 12 13
f 16 14 15
f 19 14 16
f 18 16 17
f 19 16 18
f 38 11 19
f 38 19 20
f 24 21 22
f 21 32 22
f 4 21 28
f 10 28 27
f 28 21 24
f 24 22 23
f 26 24 25
f 28 24 26
f 28 26 29
f 29 26 30
f 22 33 23
f 33 24 23
f 24 35 25
f 35 26 25
f 40 29 30
f 28 38 27
f 39 28 29
f 26 40 30
f 21 11 31
f 11 38 31
f 21 31 32
f 31 34 32
f 20 27 37
f 38 20 37
f 22 32 33
f 34 24 33
f 34 35 24
f 36 26 35
f 26 36 40
f 27 38 37
f 39 29 40
f 38 28 39
f 34 31 38
f 34 33 32
f 34 36 35
f 34 38 36
f 36 38 39
f 36 39 40

