# https://github.com/mikedh/trimesh
v 0.03860000 -0.03965849 0.12360000
v 0.03860000 -0.03932588 0.12422228
v 0.03860000 -0.03882843 0.12482843
v 0.03860000 -0.03760000 0.12360000
v 0.03860000 -0.03822228 0.12532588
v 0.03860000 -0.03760000 0.12565849
v 0.04100000 -0.03965849 0.12360000
v 0.04100000 -0.03932588 0.12422228
v 0.04100000 -0.03882843 0.12482843
v 0.04100000 -0.03760000 0.12360000
v 0.04100000 -0.03822228 0.12532588
v 0.04100000 -0.03760000 0.12565849
f 3 1 2
f 3 4 1
f 1 8 2
f 8 3 2
f 4 7 1
f 6 3 5
f 6 4 3
f 5 3 11
f 6 12 4
f 12 6 5
f 1 7 8
f 8 9 3
f 7 9 8
f 12 9 7
f 7 4 10
f 4 12 10
f 12 7 10
f 3 9 11
f 12 5 11
f 9 12 11

