# https://github.com/mikedh/trimesh
v -0.03660000 -0.02700000 0.05800000
v -0.03660000 -0.02700000 0.06200000
v -0.03660000 -0.02142688 0.05800000
v -0.03660000 -0.02138060 0.05808658
v -0.03660000 -0.02109607 0.05902455
v -0.03660000 -0.02100000 0.06000000
v -0.03660000 -0.02109607 0.06097545
v -0.03660000 -0.02138060 0.06191342
v -0.03660000 -0.02142688 0.06200000
v -0.03300000 -0.02700000 0.05800000
v -0.03300000 -0.02700000 0.06200000
v -0.03300000 -0.02142688 0.05800000
v -0.03300000 -0.02138060 0.05808658
v -0.03300000 -0.02109607 0.05902455
v -0.03300000 -0.02100000 0.06000000
v -0.03300000 -0.02109607 0.06097545
v -0.03300000 -0.02138060 0.06191342
v -0.03300000 -0.02142688 0.06200000
f 10 2 1
f 2 6 1
f 1 6 3
f 3 5 4
f 5 3 6
f 12 1 3
f 12 3 4
f 5 14 4
f 6 15 5
f 6 2 9
f 6 9 7
f 7 9 8
f 2 18 9
f 7 16 6
f 7 8 16
f 9 18 8
f 10 1 12
f 2 10 11
f 18 2 11
f 10 18 11
f 12 4 13
f 4 14 13
f 5 15 14
f 10 12 18
f 14 12 13
f 15 12 14
f 16 15 6
f 8 18 17
f 16 8 17
f 18 12 15
f 18 15 16
f 18 16 17

