# https://github.com/mikedh/trimesh
v -0.00098000 0.00000000 0.00200000
v -0.00096117 0.00019119 0.00200000
v -0.00090540 0.00037503 0.00200000
v -0.00081484 0.00054446 0.00200000
v -0.00069296 0.00069296 0.00200000
v -0.00098000 0.00000000 0.00300000
v -0.00110258 0.00110258 0.00300000
v -0.00105558 0.00157979 0.00300000
v -0.00072710 0.00175537 0.00300000
v -0.00054446 0.00081484 0.00200000
v -0.00037503 0.00090540 0.00200000
v 0.00000000 0.00000000 0.00200000
v 0.00000000 0.00000000 0.00300000
v -0.00019119 0.00096117 0.00200000
v 0.00000000 0.00098000 0.00200000
v -0.00037067 0.00186349 0.00300000
v 0.00000000 0.00098000 0.00300000
f 3 1 2
f 5 1 3
f 1 8 2
f 8 3 2
f 3 8 4
f 5 3 4
f 15 1 5
f 1 6 7
f 8 1 7
f 6 8 7
f 1 13 6
f 8 5 4
f 5 8 10
f 8 9 10
f 8 6 16
f 8 16 9
f 1 15 12
f 13 1 12
f 5 10 11
f 15 5 11
f 15 13 12
f 13 16 6
f 13 15 17
f 9 11 10
f 11 9 14
f 15 11 14
f 16 15 14
f 16 14 9
f 15 16 17
f 16 13 17

