# https://github.com/mikedh/trimesh
v -0.03660000 -0.03000000 0.11400000
v -0.03660000 -0.03000000 0.11496958
v -0.03660000 -0.02953553 0.11553553
v -0.03660000 -0.02877785 0.11615735
v -0.03660000 -0.02700000 0.11400000
v -0.03660000 -0.02791342 0.11661940
v -0.03660000 -0.02700000 0.11689648
v -0.03300000 -0.03000000 0.11400000
v -0.03300000 -0.03000000 0.11496958
v -0.03300000 -0.02953553 0.11553553
v -0.03300000 -0.02877785 0.11615735
v -0.03300000 -0.02700000 0.11400000
v -0.03300000 -0.02791342 0.11661940
v -0.03300000 -0.02700000 0.11689648
f 3 1 2
f 1 9 2
f 9 3 2
f 8 1 5
f 7 1 3
f 3 10 4
f 1 7 5
f 5 7 12
f 7 3 4
f 7 4 6
f 4 13 6
f 13 7 6
f 1 8 9
f 3 9 10
f 8 12 9
f 11 4 10
f 9 11 10
f 9 14 11
f 8 5 12
f 9 12 14
f 11 13 4
f 12 7 14
f 14 7 13
f 11 14 13

