# https://github.com/mikedh/trimesh
v -0.03900000 0.02700000 0.05609891
v -0.03900000 0.02748008 0.05651992
v -0.03900000 0.02700000 0.05800000
v -0.03900000 0.02814849 0.05728210
v -0.03900000 0.02862817 0.05800000
v -0.03660000 0.02700000 0.05609891
v -0.03660000 0.02748008 0.05651992
v -0.03660000 0.02700000 0.05800000
v -0.03660000 0.02814849 0.05728210
v -0.03660000 0.02862817 0.05800000
f 1 4 2
f 6 1 2
f 1 6 3
f 5 1 3
f 5 3 8
f 4 9 2
f 1 5 4
f 9 4 5
f 6 2 7
f 2 9 7
f 9 6 7
f 3 6 8
f 8 6 9
f 5 8 10
f 9 5 10
f 8 9 10

