# https://github.com/mikedh/trimesh
v 0.00000000 0.03400000 0.12360000
v 0.00000000 0.03400000 0.12600000
v 0.00000000 0.03517054 0.12588471
v 0.00000000 0.03760000 0.12360000
v 0.00000000 0.03760000 0.12477004
v 0.00000000 0.03629610 0.12554328
v 0.00000000 0.03733342 0.12498882
v 0.00600000 0.03400000 0.12360000
v 0.00600000 0.03400000 0.12600000
v 0.00600000 0.03517054 0.12588471
v 0.00600000 0.03760000 0.12360000
v 0.00600000 0.03760000 0.12477004
v 0.00600000 0.03629610 0.12554328
v 0.00600000 0.03733342 0.12498882
f 2 4 1
f 8 2 1
f 4 8 1
f 3 7 2
f 2 9 3
f 3 10 6
f 4 7 5
f 12 4 5
f 4 2 7
f 7 3 6
f 14 7 6
f 7 12 5
f 2 8 9
f 3 9 10
f 8 14 9
f 9 14 10
f 8 4 11
f 11 4 12
f 8 11 14
f 14 11 12
f 14 6 13
f 6 10 13
f 7 14 12
f 10 14 13

