# https://github.com/mikedh/trimesh
v -0.00309204 -0.00253757 -0.00180000
v -0.00332588 -0.00222228 -0.00180000
v -0.00253757 -0.00309204 -0.00180000
v -0.00222228 -0.00332588 -0.00180000
v -0.00282843 -0.00282843 -0.00180000
v -0.00309204 -0.00253757 -0.00100000
v -0.00332588 -0.00222228 -0.00100000
v -0.00253757 -0.00309204 -0.00100000
v -0.00222228 -0.00332588 -0.00100000
v -0.00282843 -0.00282843 -0.00100000
v -0.00352769 -0.00188559 -0.00180000
v -0.00369552 -0.00153073 -0.00180000
v -0.00382776 -0.00116114 -0.00180000
v -0.00392314 -0.00078036 -0.00180000
v -0.00398074 -0.00039207 -0.00180000
v -0.00400000 0.00000000 -0.00180000
v -0.00352769 -0.00188559 -0.00100000
v -0.00369552 -0.00153073 -0.00100000
v -0.00382776 -0.00116114 -0.00100000
v -0.00392314 -0.00078036 -0.00100000
v -0.00398074 -0.00039207 -0.00100000
v -0.00400000 0.00000000 -0.00100000
v -0.00188559 -0.00352769 -0.00180000
v -0.00153073 -0.00369552 -0.00180000
v -0.00116114 -0.00382776 -0.00180000
v -0.00078036 -0.00392314 -0.00180000
v -0.00039207 -0.00398074 -0.00180000
v 0.00000000 -0.00400000 -0.00180000
v -0.00188559 -0.00352769 -0.00100000
v -0.00153073 -0.00369552 -0.00100000
v -0.00116114 -0.00382776 -0.00100000
v -0.00078036 -0.00392314 -0.00100000
v -0.00039207 -0.00398074 -0.00100000
v 0.00000000 -0.00400000 -0.00100000
v -0.00135000 0.00000000 -0.00180000
v 0.00000000 -0.00135000 -0.00180000
v -0.00135000 0.00000000 -0.00100000
v 0.00000000 -0.00135000 -0.00100000
f 2 5 1
f 12 5 2
f 2 1 7
f 5 4 3
f 5 24 4
f 8 5 3
f 4 8 3
f 9 4 23
f 16 24 5
f 5 10 1
f 1 10 6
f 2 7 17
f 7 1 6
f 10 7 6
f 10 18 7
f 9 8 4
f 9 10 8
f 30 10 9
f 10 5 8
f 12 2 11
f 12 13 14
f 16 5 12
f 17 12 11
f 12 18 13
f 2 17 11
f 16 12 14
f 16 14 15
f 20 14 13
f 14 20 15
f 22 16 15
f 16 37 35
f 18 12 17
f 13 18 19
f 20 13 19
f 17 7 18
f 18 20 19
f 10 22 18
f 15 20 21
f 22 15 21
f 37 16 22
f 18 22 20
f 20 22 21
f 10 37 22
f 23 4 24
f 24 26 25
f 24 30 23
f 31 24 25
f 26 31 25
f 24 28 26
f 36 28 24
f 26 28 27
f 33 26 27
f 28 33 27
f 28 36 34
f 23 30 29
f 9 23 29
f 30 24 31
f 30 9 29
f 34 10 30
f 30 31 32
f 37 10 34
f 26 32 31
f 32 26 33
f 28 34 33
f 34 30 32
f 34 32 33
f 34 36 38
f 36 24 16
f 36 16 35
f 37 36 35
f 37 34 38
f 36 37 38

