# https://github.com/mikedh/trimesh
v 0.03500000 0.03230448 0.12046927
v 0.03500000 0.03255531 0.12000000
v 0.03500000 0.03207686 0.12121964
v 0.03500000 0.03400000 0.12000000
v 0.03500000 0.03200000 0.12200000
v 0.03500000 0.03207686 0.12278036
v 0.03500000 0.03230448 0.12353073
v 0.03500000 0.03234151 0.12360000
v 0.03500000 0.03400000 0.12360000
v 0.03860000 0.03000000 0.12360000
v 0.03860000 0.03255531 0.12000000
v 0.03860000 0.03400000 0.12000000
v 0.03860000 0.03400000 0.12360000
f 1 10 3
f 10 1 2
f 10 5 3
f 5 10 6
f 6 10 7
f 10 8 7
f 1 4 2
f 5 1 3
f 4 1 8
f 4 11 2
f 8 1 5
f 8 5 6
f 8 6 7
f 4 8 9
f 13 4 9
f 8 13 9
f 11 10 2
f 11 4 12
f 4 13 12
f 13 11 12
f 10 13 8
f 13 10 11

