# https://github.com/mikedh/trimesh
v -0.03300000 0.03000000 0.05800000
v -0.03300000 0.03000000 0.06200000
v -0.03300000 0.03057312 0.05800000
v -0.03300000 0.03061940 0.05808658
v -0.03300000 0.03090393 0.05902455
v -0.03300000 0.03057312 0.06200000
v -0.03300000 0.03061940 0.06191342
v -0.03300000 0.03100000 0.06000000
v -0.03300000 0.03090393 0.06097545
v -0.03100000 0.03000000 0.05800000
v -0.03100000 0.03000000 0.06200000
v -0.03100000 0.03057312 0.05800000
v -0.03100000 0.03061940 0.05808658
v -0.03100000 0.03090393 0.05902455
v -0.03100000 0.03057312 0.06200000
v -0.03100000 0.03061940 0.06191342
v -0.03100000 0.03100000 0.06000000
v -0.03100000 0.03090393 0.06097545
f 2 3 1
f 3 10 1
f 10 2 1
f 3 2 9
f 9 2 6
f 2 15 6
f 3 5 4
f 3 9 5
f 13 3 4
f 5 14 4
f 5 8 17
f 9 6 7
f 5 9 8
f 6 16 7
f 16 9 7
f 9 18 8
f 10 3 12
f 13 10 12
f 2 10 11
f 2 11 15
f 10 18 11
f 15 11 18
f 3 13 12
f 13 4 14
f 17 14 5
f 18 10 13
f 18 13 14
f 15 16 6
f 8 18 17
f 18 9 16
f 15 18 16
f 18 14 17

