# https://github.com/mikedh/trimesh
v 0.00609134 -0.00525922 0.00600000
v 0.00620224 -0.00546668 0.00600000
v 0.00635147 -0.00564853 0.00600000
v 0.00602306 -0.00503411 0.00600000
v 0.00600000 -0.00480000 0.00600000
v 0.00653332 -0.00579776 0.00600000
v 0.00674078 -0.00590866 0.00600000
v 0.00696589 -0.00597694 0.00600000
v 0.00720000 -0.00600000 0.00600000
v 0.00609134 -0.00525922 0.02600000
v 0.00620224 -0.00546668 0.02600000
v 0.00635147 -0.00564853 0.02600000
v 0.00602306 -0.00503411 0.02600000
v 0.00600000 -0.00480000 0.02600000
v 0.00653332 -0.00579776 0.02600000
v 0.00674078 -0.00590866 0.02600000
v 0.00696589 -0.00597694 0.02600000
v 0.00720000 -0.00600000 0.02600000
v 0.00600000 0.00000000 0.00600000
v 0.00600000 0.00000000 0.02600000
v 0.00880000 -0.00600000 0.00600000
v 0.00903411 -0.00597694 0.00600000
v 0.00925922 -0.00590866 0.00600000
v 0.00946668 -0.00579776 0.00600000
v 0.00964853 -0.00564853 0.00600000
v 0.00979776 -0.00546668 0.00600000
v 0.00990866 -0.00525922 0.00600000
v 0.00997694 -0.00503411 0.00600000
v 0.01000000 -0.00480000 0.00600000
v 0.00880000 -0.00600000 0.02600000
v 0.00903411 -0.00597694 0.02600000
v 0.00925922 -0.00590866 0.02600000
v 0.00946668 -0.00579776 0.02600000
v 0.00964853 -0.00564853 0.02600000
v 0.00979776 -0.00546668 0.02600000
v 0.00990866 -0.00525922 0.02600000
v 0.00997694 -0.00503411 0.02600000
v 0.01000000 -0.00480000 0.02600000
v 0.01000000 0.00000000 0.00600000
v 0.01000000 0.00000000 0.02600000
f 2 6 3
f 5 2 1
f 5 1 4
f 2 8 6
f 6 8 7
f 1 2 11
f 3 6 15
f 2 3 11
f 4 1 10
f 14 5 4
f 6 7 15
f 8 17 7
f 19 2 5
f 8 2 24
f 8 21 9
f 17 8 9
f 19 24 2
f 1 11 10
f 3 15 12
f 11 3 12
f 4 10 13
f 14 4 13
f 15 7 16
f 7 17 16
f 15 11 12
f 11 15 10
f 10 14 13
f 15 17 10
f 17 15 16
f 20 5 14
f 10 20 14
f 17 9 18
f 9 30 18
f 17 30 10
f 30 17 18
f 20 19 5
f 10 40 20
f 40 19 20
f 8 24 21
f 9 21 30
f 30 21 22
f 21 24 22
f 22 24 23
f 24 26 25
f 24 29 26
f 26 28 27
f 26 29 28
f 32 22 23
f 24 32 23
f 24 25 33
f 26 35 25
f 36 26 27
f 28 36 27
f 29 38 28
f 24 39 29
f 30 22 31
f 35 10 30
f 40 10 35
f 22 32 31
f 33 32 24
f 33 25 34
f 25 35 34
f 35 26 36
f 36 28 37
f 28 38 37
f 32 30 31
f 35 30 32
f 35 32 33
f 35 33 34
f 36 38 35
f 38 36 37
f 29 40 38
f 40 35 38
f 24 19 39
f 19 40 39
f 29 39 40

