# https://github.com/mikedh/trimesh
v -0.00400000 0.00000000 -0.00180000
v -0.00398074 0.00039207 -0.00180000
v -0.00392314 0.00078036 -0.00180000
v -0.00382776 0.00116114 -0.00180000
v -0.00369552 0.00153073 -0.00180000
v -0.00352769 0.00188559 -0.00180000
v -0.00400000 0.00000000 -0.00100000
v -0.00398074 0.00039207 -0.00100000
v -0.00392314 0.00078036 -0.00100000
v -0.00382776 0.00116114 -0.00100000
v -0.00369552 0.00153073 -0.00100000
v -0.00352769 0.00188559 -0.00100000
v -0.00332588 0.00222228 -0.00180000
v -0.00309204 0.00253757 -0.00180000
v -0.00282843 0.00282843 -0.00180000
v -0.00253757 0.00309204 -0.00180000
v -0.00222228 0.00332588 -0.00180000
v -0.00332588 0.00222228 -0.00100000
v -0.00309204 0.00253757 -0.00100000
v -0.00282843 0.00282843 -0.00100000
v -0.00253757 0.00309204 -0.00100000
v -0.00222228 0.00332588 -0.00100000
v -0.00135000 0.00000000 -0.00180000
v 0.00000000 0.00135000 -0.00180000
v -0.00135000 0.00000000 -0.00100000
v 0.00000000 0.00135000 -0.00100000
v -0.00188559 0.00352769 -0.00180000
v -0.00153073 0.00369552 -0.00180000
v -0.00116114 0.00382776 -0.00180000
v -0.00078036 0.00392314 -0.00180000
v -0.00039207 0.00398074 -0.00180000
v 0.00000000 0.00400000 -0.00180000
v -0.00188559 0.00352769 -0.00100000
v -0.00153073 0.00369552 -0.00100000
v -0.00116114 0.00382776 -0.00100000
v -0.00078036 0.00392314 -0.00100000
v -0.00039207 0.00398074 -0.00100000
v 0.00000000 0.00400000 -0.00100000
f 4 1 2
f 4 2 3
f 4 23 1
f 1 7 2
f 3 2 9
f 23 7 1
f 5 13 4
f 13 5 6
f 3 10 4
f 4 10 5
f 5 11 6
f 2 7 8
f 9 2 8
f 10 3 9
f 7 9 8
f 7 10 9
f 5 10 11
f 6 11 12
f 18 6 12
f 7 18 10
f 10 18 11
f 11 18 12
f 7 23 25
f 16 4 13
f 18 13 6
f 14 13 18
f 14 19 15
f 16 13 14
f 16 14 15
f 32 4 16
f 27 16 17
f 21 16 15
f 16 21 17
f 14 18 19
f 15 19 20
f 21 15 20
f 7 35 18
f 18 21 19
f 19 21 20
f 17 21 22
f 33 17 22
f 35 21 18
f 21 33 22
f 32 23 4
f 26 23 24
f 23 32 24
f 26 7 25
f 7 26 35
f 23 26 25
f 28 16 27
f 32 16 28
f 30 28 29
f 27 17 33
f 28 27 33
f 28 35 29
f 35 30 29
f 32 26 24
f 30 32 28
f 32 30 31
f 30 37 31
f 37 32 31
f 28 33 34
f 35 28 34
f 33 21 35
f 33 35 34
f 35 36 30
f 36 37 30
f 26 32 38
f 38 32 37
f 35 38 36
f 35 26 38
f 36 38 37

