# https://github.com/mikedh/trimesh
v 0.03200000 0.03317157 0.11917157
v 0.03200000 0.03267412 0.11977772
v 0.03200000 0.03255531 0.12000000
v 0.03200000 0.03377772 0.11867412
v 0.03200000 0.03400000 0.11855531
v 0.03200000 0.03400000 0.12000000
v 0.03500000 0.03317157 0.11917157
v 0.03500000 0.03267412 0.11977772
v 0.03500000 0.03255531 0.12000000
v 0.03500000 0.03377772 0.11867412
v 0.03500000 0.03400000 0.11855531
v 0.03500000 0.03400000 0.12000000
f 3 5 1
f 3 1 2
f 9 3 2
f 2 1 7
f 4 1 5
f 7 1 4
f 5 11 4
f 5 3 6
f 3 12 6
f 12 5 6
f 2 7 8
f 9 2 8
f 12 3 9
f 7 9 8
f 7 12 9
f 7 4 10
f 4 11 10
f 5 12 11
f 11 7 10
f 12 7 11

