# https://github.com/mikedh/trimesh
v -0.03300000 -0.02681484 0.11145554
v -0.03300000 -0.02654446 0.11118516
v -0.03300000 -0.02669296 0.11130704
v -0.03300000 -0.02690540 0.11162497
v -0.03300000 -0.02696117 0.11180881
v -0.03300000 -0.02637503 0.11109460
v -0.03300000 -0.02619119 0.11103883
v -0.03300000 -0.02698000 0.11200000
v -0.03300000 -0.02696117 0.11219119
v -0.03300000 -0.02690540 0.11237503
v -0.03300000 -0.02681484 0.11254446
v -0.03300000 -0.02669296 0.11269296
v -0.03300000 -0.02654446 0.11281484
v -0.03300000 -0.02637503 0.11290540
v -0.03300000 -0.02619119 0.11296117
v -0.03300000 -0.02600000 0.11102000
v -0.03300000 -0.02580881 0.11103883
v -0.03300000 -0.02562497 0.11109460
v -0.03300000 -0.02545554 0.11118516
v -0.03300000 -0.02530704 0.11130704
v -0.03300000 -0.02518516 0.11145554
v -0.03300000 -0.02509460 0.11162497
v -0.03300000 -0.02503883 0.11180881
v -0.03300000 -0.02600000 0.11298000
v -0.03300000 -0.02580881 0.11296117
v -0.03300000 -0.02562497 0.11290540
v -0.03300000 -0.02502000 0.11200000
v -0.03300000 -0.02503883 0.11219119
v -0.03300000 -0.02509460 0.11237503
v -0.03300000 -0.02530704 0.11269296
v -0.03300000 -0.02545554 0.11281484
v -0.03300000 -0.02518516 0.11254446
v -0.03000000 -0.02681484 0.11145554
v -0.03000000 -0.02654446 0.11118516
v -0.03000000 -0.02669296 0.11130704
v -0.03000000 -0.02690540 0.11162497
v -0.03000000 -0.02696117 0.11180881
v -0.03000000 -0.02637503 0.11109460
v -0.03000000 -0.02619119 0.11103883
v -0.03000000 -0.02698000 0.11200000
v -0.03000000 -0.02696117 0.11219119
v -0.03000000 -0.02690540 0.11237503
v -0.03000000 -0.02681484 0.11254446
v -0.03000000 -0.02669296 0.11269296
v -0.03000000 -0.02654446 0.11281484
v -0.03000000 -0.02637503 0.11290540
v -0.03000000 -0.02619119 0.11296117
v -0.03000000 -0.02600000 0.11102000
v -0.03000000 -0.02580881 0.11103883
v -0.03000000 -0.02562497 0.11109460
v -0.03000000 -0.02545554 0.11118516
v -0.03000000 -0.02530704 0.11130704
v -0.03000000 -0.02518516 0.11145554
v -0.03000000 -0.02509460 0.11162497
v -0.03000000 -0.02503883 0.11180881
v -0.03000000 -0.02600000 0.11298000
v -0.03000000 -0.02580881 0.11296117
v -0.03000000 -0.02562497 0.11290540
v -0.03000000 -0.02502000 0.11200000
v -0.03000000 -0.02503883 0.11219119
v -0.03000000 -0.02509460 0.11237503
v -0.03000000 -0.02530704 0.11269296
v -0.03000000 -0.02545554 0.11281484
v -0.03000000 -0.02518516 0.11254446
f 7 2 1
f 1 2 3
f 5 1 4
f 9 1 5
f 9 7 1
f 2 7 6
f 9 27 7
f 33 1 3
f 3 2 34
f 1 36 4
f 36 5 4
f 8 5 37
f 38 2 6
f 7 39 6
f 48 7 16
f 9 5 8
f 9 10 12
f 12 10 11
f 24 9 12
f 24 12 13
f 15 13 14
f 24 13 15
f 40 9 8
f 9 42 10
f 43 11 10
f 44 12 11
f 13 12 44
f 13 46 14
f 46 15 14
f 47 24 15
f 7 17 16
f 7 19 17
f 17 19 18
f 7 27 19
f 19 21 20
f 19 27 21
f 21 27 22
f 22 27 23
f 17 48 16
f 50 17 18
f 19 50 18
f 52 19 20
f 21 52 20
f 54 21 22
f 55 22 23
f 27 55 23
f 27 9 24
f 26 24 25
f 30 24 26
f 27 29 28
f 27 30 29
f 27 24 30
f 30 26 31
f 29 30 32
f 24 56 25
f 26 25 57
f 31 26 58
f 59 27 28
f 64 29 32
f 61 28 29
f 30 31 62
f 30 64 32
f 33 3 35
f 3 34 35
f 37 5 36
f 1 33 36
f 37 40 8
f 2 38 34
f 38 6 39
f 7 48 39
f 34 38 33
f 34 33 35
f 33 37 36
f 33 42 37
f 48 33 38
f 48 38 39
f 9 40 41
f 42 9 41
f 42 43 10
f 43 44 11
f 45 13 44
f 45 46 13
f 47 15 46
f 56 24 47
f 37 42 40
f 40 42 41
f 33 56 42
f 42 45 43
f 44 43 45
f 42 56 45
f 45 47 46
f 45 56 47
f 48 17 49
f 17 50 49
f 19 51 50
f 19 52 51
f 21 53 52
f 53 21 54
f 55 54 22
f 55 27 59
f 50 48 49
f 53 33 48
f 51 48 50
f 53 48 51
f 33 53 56
f 53 51 52
f 55 53 54
f 53 55 61
f 25 56 57
f 26 57 58
f 63 31 58
f 59 28 60
f 28 61 60
f 61 29 64
f 62 64 30
f 31 63 62
f 56 61 63
f 56 63 57
f 63 58 57
f 61 56 53
f 61 55 59
f 61 59 60
f 63 64 62
f 63 61 64

