# https://github.com/mikedh/trimesh
v 0.00000000 0.03760000 0.12000000
v 0.00000000 0.03760000 0.12360000
v 0.00000000 0.03877004 0.12360000
v 0.00000000 0.04000000 0.12000000
v 0.00000000 0.03988471 0.12117054
v 0.00000000 0.03898882 0.12333342
v 0.00000000 0.03954328 0.12229610
v 0.00600000 0.03760000 0.12000000
v 0.00600000 0.03760000 0.12360000
v 0.00600000 0.03877004 0.12360000
v 0.00600000 0.04000000 0.12000000
v 0.00600000 0.03988471 0.12117054
v 0.00600000 0.03898882 0.12333342
v 0.00600000 0.03954328 0.12229610
f 2 4 1
f 8 2 1
f 4 8 1
f 6 2 3
f 2 10 3
f 4 6 5
f 12 4 5
f 4 2 6
f 5 6 7
f 6 14 7
f 10 6 3
f 14 5 7
f 2 8 9
f 2 9 10
f 8 13 9
f 10 9 13
f 8 4 11
f 12 11 4
f 12 5 14
f 13 8 11
f 13 11 12
f 13 6 10
f 6 13 14
f 13 12 14

