# https://github.com/mikedh/trimesh
v -0.03561886 -0.03797906 0.04840000
v -0.03561886 -0.03760000 0.04802094
v -0.03584158 -0.03781426 0.04840000
v -0.03584158 -0.03760000 0.04818574
v -0.03605584 -0.03760000 0.04840000
v -0.03562731 -0.03781426 0.04818574
v -0.03300000 -0.03824264 0.04775736
v -0.03427168 -0.03862462 0.04840000
v -0.03417266 -0.03864025 0.04840000
v -0.03430037 -0.03861403 0.04840000
v -0.03427209 -0.03861070 0.04837740
v -0.03300000 -0.03877004 0.04840000
v -0.03427168 -0.03760000 0.04737538
v -0.03417266 -0.03760000 0.04735975
v -0.03430037 -0.03760000 0.04738597
v -0.03427209 -0.03762260 0.04738930
v -0.03300000 -0.03760000 0.04722996
v -0.03300000 -0.03760000 0.04840000
f 11 10 6
f 15 16 6
f 1 10 5
f 5 15 2
f 6 1 3
f 1 5 3
f 2 6 4
f 5 2 4
f 5 4 3
f 6 3 4
f 16 11 6
f 10 1 6
f 2 15 6
f 17 12 7
f 9 10 8
f 11 9 8
f 10 11 8
f 12 10 9
f 11 12 9
f 12 5 10
f 12 11 7
f 15 14 13
f 14 16 13
f 16 15 13
f 15 17 14
f 17 16 14
f 5 17 15
f 17 7 16
f 7 11 16
f 5 12 18
f 17 5 18
f 12 17 18

