# https://github.com/mikedh/trimesh
v -0.03300000 0.02518516 0.05945554
v -0.03300000 0.02545554 0.05918516
v -0.03300000 0.02530704 0.05930704
v -0.03300000 0.02509460 0.05962497
v -0.03300000 0.02503883 0.05980881
v -0.03300000 0.02562497 0.05909460
v -0.03300000 0.02580881 0.05903883
v -0.03300000 0.02502000 0.06000000
v -0.03300000 0.02503883 0.06019119
v -0.03300000 0.02509460 0.06037503
v -0.03300000 0.02518516 0.06054446
v -0.03300000 0.02530704 0.06069296
v -0.03300000 0.02545554 0.06081484
v -0.03300000 0.02562497 0.06090540
v -0.03300000 0.02580881 0.06096117
v -0.03300000 0.02600000 0.05902000
v -0.03300000 0.02619119 0.05903883
v -0.03300000 0.02637503 0.05909460
v -0.03300000 0.02654446 0.05918516
v -0.03300000 0.02669296 0.05930704
v -0.03300000 0.02681484 0.05945554
v -0.03300000 0.02690540 0.05962497
v -0.03300000 0.02696117 0.05980881
v -0.03300000 0.02600000 0.06098000
v -0.03300000 0.02619119 0.06096117
v -0.03300000 0.02637503 0.06090540
v -0.03300000 0.02698000 0.06000000
v -0.03300000 0.02696117 0.06019119
v -0.03300000 0.02690540 0.06037503
v -0.03300000 0.02669296 0.06069296
v -0.03300000 0.02654446 0.06081484
v -0.03300000 0.02681484 0.06054446
v -0.03000000 0.02518516 0.05945554
v -0.03000000 0.02545554 0.05918516
v -0.03000000 0.02530704 0.05930704
v -0.03000000 0.02509460 0.05962497
v -0.03000000 0.02503883 0.05980881
v -0.03000000 0.02562497 0.05909460
v -0.03000000 0.02580881 0.05903883
v -0.03000000 0.02502000 0.06000000
v -0.03000000 0.02503883 0.06019119
v -0.03000000 0.02509460 0.06037503
v -0.03000000 0.02518516 0.06054446
v -0.03000000 0.02530704 0.06069296
v -0.03000000 0.02545554 0.06081484
v -0.03000000 0.02562497 0.06090540
v -0.03000000 0.02580881 0.06096117
v -0.03000000 0.02600000 0.05902000
v -0.03000000 0.02619119 0.05903883
v -0.03000000 0.02637503 0.05909460
v -0.03000000 0.02654446 0.05918516
v -0.03000000 0.02669296 0.05930704
v -0.03000000 0.02681484 0.05945554
v -0.03000000 0.02690540 0.05962497
v -0.03000000 0.02696117 0.05980881
v -0.03000000 0.02600000 0.06098000
v -0.03000000 0.02619119 0.06096117
v -0.03000000 0.02637503 0.06090540
v -0.03000000 0.02698000 0.06000000
v -0.03000000 0.02696117 0.06019119
v -0.03000000 0.02690540 0.06037503
v -0.03000000 0.02669296 0.06069296
v -0.03000000 0.02654446 0.06081484
v -0.03000000 0.02681484 0.06054446
f 2 1 4
f 1 2 3
f 10 2 4
f 8 4 5
f 2 7 6
f 2 18 7
f 35 1 3
f 2 35 3
f 4 36 5
f 33 4 1
f 40 8 5
f 34 2 6
f 39 6 7
f 48 7 16
f 10 4 8
f 10 8 9
f 13 2 10
f 13 10 11
f 13 11 12
f 27 2 13
f 15 13 14
f 26 13 15
f 8 41 9
f 41 10 9
f 10 42 11
f 12 11 44
f 45 13 12
f 13 46 14
f 46 15 14
f 15 56 24
f 7 17 16
f 7 18 17
f 2 27 18
f 18 20 19
f 18 27 20
f 20 22 21
f 20 27 22
f 22 27 23
f 17 48 16
f 18 49 17
f 51 18 19
f 20 51 19
f 53 20 21
f 22 54 21
f 55 22 23
f 27 55 23
f 26 15 24
f 26 24 25
f 27 13 26
f 27 26 32
f 27 32 28
f 28 32 29
f 32 26 30
f 30 26 31
f 24 57 25
f 57 26 25
f 26 63 31
f 27 28 59
f 61 28 29
f 32 61 29
f 62 32 30
f 63 30 31
f 35 33 1
f 2 34 35
f 33 36 4
f 5 36 37
f 40 5 37
f 34 6 38
f 6 39 38
f 39 7 48
f 39 33 34
f 34 33 35
f 33 40 36
f 36 40 37
f 39 34 38
f 51 33 39
f 40 41 8
f 42 10 41
f 11 42 43
f 44 11 43
f 44 45 12
f 46 13 45
f 15 46 47
f 56 15 47
f 40 42 41
f 33 44 40
f 40 44 42
f 42 44 43
f 44 46 45
f 33 62 44
f 44 56 46
f 46 56 47
f 49 48 17
f 49 18 50
f 18 51 50
f 51 20 52
f 20 53 52
f 54 53 21
f 55 54 22
f 55 27 59
f 49 39 48
f 51 39 49
f 51 49 50
f 62 33 51
f 53 51 52
f 51 53 55
f 62 51 55
f 55 53 54
f 24 56 57
f 26 57 58
f 26 58 63
f 59 28 60
f 61 32 64
f 28 61 60
f 62 30 63
f 32 62 64
f 44 62 56
f 56 58 57
f 56 62 58
f 61 55 59
f 61 59 60
f 62 55 61
f 63 58 62
f 62 61 64

