# https://github.com/mikedh/trimesh
v -0.00157979 -0.00105558 0.00300000
v -0.00105558 -0.00157979 0.00300000
v -0.00134350 -0.00134350 0.00300000
v -0.00157979 -0.00105558 0.00450000
v -0.00105558 -0.00157979 0.00450000
v -0.00134350 -0.00134350 0.00450000
v -0.00175537 -0.00072710 0.00300000
v -0.00186349 -0.00037067 0.00300000
v -0.00190000 0.00000000 0.00300000
v -0.00175537 -0.00072710 0.00450000
v -0.00186349 -0.00037067 0.00450000
v -0.00190000 0.00000000 0.00450000
v -0.00072710 -0.00175537 0.00300000
v -0.00037067 -0.00186349 0.00300000
v 0.00000000 -0.00190000 0.00300000
v -0.00072710 -0.00175537 0.00450000
v -0.00037067 -0.00186349 0.00450000
v 0.00000000 -0.00190000 0.00450000
v 0.00000000 0.00000000 0.00300000
v 0.00000000 0.00000000 0.00450000
f 7 3 1
f 3 13 2
f 5 3 2
f 9 15 3
f 3 6 1
f 1 6 4
f 6 10 4
f 16 6 5
f 6 3 5
f 9 3 7
f 7 1 10
f 7 10 8
f 9 7 8
f 12 9 8
f 8 10 11
f 10 1 4
f 6 12 10
f 12 8 11
f 10 12 11
f 20 9 12
f 6 20 12
f 3 15 13
f 13 5 2
f 17 13 14
f 13 15 14
f 15 17 14
f 16 5 13
f 16 13 17
f 16 18 6
f 15 18 17
f 18 16 17
f 15 20 18
f 20 6 18
f 15 9 19
f 9 20 19
f 20 15 19

