# https://github.com/mikedh/trimesh
v -0.03724264 -0.03824264 0.05200000
v -0.03762462 -0.03760000 0.05072832
v -0.03764025 -0.03760000 0.05082734
v -0.03761070 -0.03762260 0.05072791
v -0.03761403 -0.03760000 0.05069963
v -0.03777004 -0.03760000 0.05200000
v -0.03660000 -0.03862462 0.05072832
v -0.03660000 -0.03864025 0.05082734
v -0.03662260 -0.03861070 0.05072791
v -0.03660000 -0.03861403 0.05069963
v -0.03660000 -0.03877004 0.05200000
v -0.03697906 -0.03760000 0.04938114
v -0.03660000 -0.03797906 0.04938114
v -0.03681426 -0.03781426 0.04937269
v -0.03681426 -0.03760000 0.04915842
v -0.03660000 -0.03781426 0.04915842
v -0.03660000 -0.03760000 0.04894416
v -0.03660000 -0.03760000 0.05200000
f 11 6 1
f 4 5 14
f 3 5 2
f 4 3 2
f 6 5 3
f 4 6 3
f 5 4 2
f 6 4 1
f 6 17 5
f 10 9 14
f 1 9 8
f 10 8 7
f 8 9 7
f 8 10 11
f 9 10 7
f 11 1 8
f 17 11 10
f 9 4 14
f 12 5 17
f 5 12 14
f 17 10 13
f 13 10 14
f 14 12 15
f 12 17 15
f 13 14 16
f 17 13 16
f 17 14 15
f 14 17 16
f 1 4 9
f 6 11 18
f 17 6 18
f 11 17 18

