# https://github.com/mikedh/trimesh
v -0.03870000 0.02437863 0.05891664
v -0.03870000 0.02462114 0.05862114
v -0.03870000 0.02419843 0.05925377
v -0.03870000 0.02408747 0.05961957
v -0.03870000 0.02491664 0.05837863
v -0.03870000 0.02525377 0.05819843
v -0.03800000 0.02437863 0.05891664
v -0.03800000 0.02462114 0.05862114
v -0.03800000 0.02419843 0.05925377
v -0.03800000 0.02408747 0.05961957
v -0.03800000 0.02491664 0.05837863
v -0.03800000 0.02525377 0.05819843
v -0.03870000 0.02405000 0.06000000
v -0.03870000 0.02408747 0.06038043
v -0.03870000 0.02419843 0.06074623
v -0.03870000 0.02437863 0.06108336
v -0.03870000 0.02462114 0.06137886
v -0.03870000 0.02491664 0.06162137
v -0.03870000 0.02525377 0.06180157
v -0.03800000 0.02405000 0.06000000
v -0.03800000 0.02408747 0.06038043
v -0.03800000 0.02419843 0.06074623
v -0.03800000 0.02437863 0.06108336
v -0.03800000 0.02462114 0.06137886
v -0.03800000 0.02491664 0.06162137
v -0.03800000 0.02525377 0.06180157
v -0.03870000 0.02561957 0.05808747
v -0.03870000 0.02600000 0.05805000
v -0.03870000 0.02638043 0.05808747
v -0.03870000 0.02674623 0.05819843
v -0.03870000 0.02700000 0.05833408
v -0.03800000 0.02561957 0.05808747
v -0.03800000 0.02600000 0.05805000
v -0.03800000 0.02638043 0.05808747
v -0.03800000 0.02674623 0.05819843
v -0.03800000 0.02700000 0.05833408
v -0.03800000 0.02700000 0.05980109
v -0.03870000 0.02561957 0.06191253
v -0.03870000 0.02600000 0.06195000
v -0.03870000 0.02638043 0.06191253
v -0.03870000 0.02674623 0.06180157
v -0.03870000 0.02700000 0.06166592
v -0.03800000 0.02561957 0.06191253
v -0.03800000 0.02600000 0.06195000
v -0.03800000 0.02638043 0.06191253
v -0.03800000 0.02674623 0.06180157
v -0.03800000 0.02700000 0.06166592
v -0.03660000 0.02509460 0.05962497
v -0.03660000 0.02503883 0.05980881
v -0.03660000 0.02518516 0.05945554
v -0.03660000 0.02530704 0.05930704
v -0.03660000 0.02545554 0.05918516
v -0.03660000 0.02502000 0.06000000
v -0.03660000 0.02503883 0.06019119
v -0.03660000 0.02509460 0.06037503
v -0.03660000 0.02518516 0.06054446
v -0.03660000 0.02530704 0.06069296
v -0.03660000 0.02545554 0.06081484
v -0.03660000 0.02600000 0.05902000
v -0.03660000 0.02562497 0.05909460
v -0.03660000 0.02580881 0.05903883
v -0.03660000 0.02619119 0.05903883
v -0.03660000 0.02637503 0.05909460
v -0.03660000 0.02654446 0.05918516
v -0.03660000 0.02669296 0.05930704
v -0.03660000 0.02681484 0.05945554
v -0.03660000 0.02690540 0.05962497
v -0.03660000 0.02696117 0.05980881
v -0.03660000 0.02562497 0.06090540
v -0.03660000 0.02580881 0.06096117
v -0.03660000 0.02619119 0.06096117
v -0.03660000 0.02600000 0.06098000
v -0.03660000 0.02637503 0.06090540
v -0.03660000 0.02654446 0.06081484
v -0.03660000 0.02698000 0.06000000
v -0.03660000 0.02696117 0.06019119
v -0.03660000 0.02690540 0.06037503
v -0.03660000 0.02669296 0.06069296
v -0.03660000 0.02681484 0.06054446
f 3 2 1
f 2 7 1
f 7 2 8
f 8 2 11
f 13 2 3
f 3 10 4
f 7 3 1
f 13 3 4
f 10 13 4
f 10 3 9
f 9 3 7
f 13 10 20
f 2 6 5
f 11 2 5
f 6 11 5
f 13 28 2
f 2 28 6
f 32 6 27
f 6 12 11
f 6 32 12
f 15 13 14
f 13 21 14
f 17 13 15
f 21 15 14
f 15 22 16
f 21 13 20
f 22 15 21
f 16 22 23
f 17 15 16
f 24 17 16
f 17 24 18
f 24 16 23
f 39 28 13
f 13 17 39
f 19 17 18
f 26 19 18
f 39 17 19
f 19 26 38
f 18 24 25
f 26 18 25
f 38 26 43
f 6 28 27
f 28 32 27
f 34 28 29
f 33 32 28
f 28 34 33
f 28 31 29
f 34 29 30
f 30 29 31
f 31 36 30
f 34 30 35
f 35 30 36
f 37 36 31
f 28 39 31
f 31 47 37
f 39 19 38
f 43 39 38
f 39 45 40
f 44 39 43
f 39 44 45
f 31 39 42
f 47 31 42
f 42 39 40
f 40 46 41
f 42 40 41
f 46 42 41
f 45 46 40
f 47 42 46
f 8 51 7
f 53 20 10
f 9 7 50
f 9 48 10
f 8 11 52
f 60 11 12
f 10 48 49
f 53 10 49
f 52 11 60
f 7 51 50
f 50 48 9
f 51 8 52
f 51 53 48
f 48 53 49
f 51 48 50
f 60 51 52
f 59 53 51
f 53 21 20
f 21 55 22
f 22 56 23
f 56 24 23
f 25 24 58
f 26 25 58
f 69 43 26
f 21 53 54
f 55 21 54
f 55 56 22
f 57 24 56
f 24 57 58
f 53 55 54
f 53 57 55
f 55 57 56
f 53 72 57
f 57 69 58
f 69 26 58
f 32 61 12
f 59 32 33
f 34 59 33
f 34 35 62
f 64 35 36
f 37 75 36
f 61 60 12
f 32 59 61
f 59 34 62
f 59 51 60
f 59 60 61
f 63 59 62
f 53 59 75
f 35 63 62
f 35 64 63
f 36 65 64
f 65 36 66
f 36 67 66
f 67 36 68
f 36 75 68
f 63 64 59
f 65 59 64
f 75 59 65
f 67 65 66
f 75 65 67
f 75 67 68
f 70 44 43
f 71 45 44
f 47 75 37
f 73 46 45
f 74 47 46
f 57 72 69
f 69 72 70
f 53 75 72
f 72 73 71
f 43 69 70
f 70 72 44
f 72 71 44
f 75 47 76
f 47 78 79
f 77 47 79
f 47 77 76
f 72 78 73
f 72 75 78
f 73 78 74
f 77 75 76
f 78 75 77
f 78 77 79
f 73 45 71
f 74 46 73
f 78 47 74

