# https://github.com/mikedh/trimesh
v 0.00000000 -0.00600000 0.00200000
v 0.00000000 -0.00598079 0.00219509
v 0.00000000 -0.00592388 0.00238268
v 0.00000000 -0.00583147 0.00255557
v 0.00000000 -0.00570711 0.00270711
v 0.00000000 -0.00555557 0.00283147
v 0.00000000 -0.00538268 0.00292388
v 0.00000000 -0.00519509 0.00298079
v 0.00000000 -0.00500000 0.00300000
v 0.00000000 -0.00120000 0.00200000
v 0.00120000 0.00000000 0.00200000
v 0.00000000 -0.00120000 0.00300000
v 0.00120000 0.00000000 0.00300000
v 0.00600000 -0.00600000 0.00200000
v 0.00600000 -0.00598079 0.00219509
v 0.00600000 -0.00592388 0.00238268
v 0.00600000 -0.00583147 0.00255557
v 0.00600000 -0.00570711 0.00270711
v 0.00600000 -0.00555557 0.00283147
v 0.00600000 -0.00538268 0.00292388
v 0.00600000 -0.00519509 0.00298079
v 0.00600000 -0.00500000 0.00300000
v 0.00600000 0.00000000 0.00200000
v 0.00600000 0.00000000 0.00300000
f 3 1 2
f 5 1 3
f 1 9 10
f 1 14 2
f 3 2 15
f 3 17 4
f 11 14 1
f 5 3 4
f 9 1 5
f 7 5 6
f 9 5 7
f 9 7 8
f 17 5 4
f 5 19 6
f 19 7 6
f 7 21 8
f 21 9 8
f 11 1 10
f 11 10 12
f 12 10 9
f 11 12 13
f 9 24 12
f 24 11 13
f 12 24 13
f 2 14 15
f 3 15 16
f 17 3 16
f 14 17 15
f 15 17 16
f 14 18 17
f 17 18 5
f 5 18 19
f 7 19 20
f 21 7 20
f 9 21 22
f 24 9 22
f 14 21 18
f 19 18 21
f 19 21 20
f 14 24 21
f 21 24 22
f 14 11 23
f 11 24 23
f 24 14 23

