# https://github.com/mikedh/trimesh
v -0.03854328 0.00000000 0.04970390
v -0.03798882 0.00000000 0.04866658
v -0.03888471 0.00000000 0.05082946
v -0.03900000 0.00000000 0.05200000
v -0.03854328 0.00600000 0.04970390
v -0.03798882 0.00600000 0.04866658
v -0.03888471 0.00600000 0.05082946
v -0.03900000 0.00600000 0.05200000
v -0.03777004 0.00000000 0.04840000
v -0.03660000 0.00000000 0.04840000
v -0.03660000 0.00000000 0.05200000
v -0.03777004 0.00600000 0.04840000
v -0.03660000 0.00600000 0.04840000
v -0.03660000 0.00600000 0.05200000
f 2 4 1
f 10 4 2
f 9 2 6
f 5 2 1
f 1 4 3
f 7 1 3
f 4 7 3
f 5 1 7
f 2 5 6
f 12 9 6
f 5 12 6
f 4 8 7
f 5 7 8
f 4 14 8
f 14 5 8
f 10 2 9
f 13 10 9
f 4 10 11
f 14 4 11
f 10 14 11
f 13 9 12
f 5 13 12
f 5 14 13
f 10 13 14

