# https://github.com/mikedh/trimesh
v 0.03500000 0.03400000 0.07155531
v 0.03500000 0.03446927 0.07130448
v 0.03500000 0.03400000 0.07844469
v 0.03500000 0.03446927 0.07869552
v 0.03500000 0.03521964 0.07107686
v 0.03500000 0.03521964 0.07892314
v 0.03577592 0.03760000 0.06717278
v 0.03500000 0.03600000 0.07100000
v 0.03500000 0.03600000 0.07900000
v 0.03500000 0.03678036 0.07107686
v 0.03500000 0.03753073 0.07130448
v 0.03500000 0.03760000 0.07134151
v 0.03500000 0.03760000 0.07444637
v 0.03500000 0.03678036 0.07892314
v 0.03500000 0.03753073 0.07869552
v 0.03500000 0.03760000 0.07865849
v 0.03860000 0.03400000 0.07155531
v 0.03860000 0.03400000 0.07844469
v 0.03860000 0.03446927 0.07869552
v 0.03860000 0.03521964 0.07892314
v 0.03860000 0.03760000 0.06200000
v 0.03860000 0.03600000 0.07900000
v 0.03860000 0.03678036 0.07892314
v 0.03860000 0.03753073 0.07869552
v 0.03860000 0.03760000 0.07865849
f 7 1 2
f 5 7 2
f 1 5 2
f 9 1 3
f 6 3 4
f 1 8 5
f 9 3 6
f 1 18 3
f 3 19 4
f 19 6 4
f 20 9 6
f 8 7 5
f 7 8 10
f 7 10 11
f 12 7 11
f 21 1 7
f 13 21 7
f 1 12 8
f 1 13 12
f 1 9 13
f 8 12 10
f 10 12 11
f 13 7 12
f 16 9 14
f 9 16 13
f 16 14 15
f 9 23 14
f 14 24 15
f 25 13 16
f 24 16 15
f 1 21 17
f 18 1 17
f 3 18 19
f 20 6 19
f 9 20 22
f 18 20 19
f 21 18 17
f 18 22 20
f 9 22 23
f 21 13 25
f 23 24 14
f 25 16 24
f 18 21 25
f 18 25 22
f 22 25 23
f 23 25 24

