# https://github.com/mikedh/trimesh
v -0.03900000 -0.03000000 0.11400000
v -0.03900000 -0.02892820 0.11400000
v -0.03900000 -0.03000000 0.11800000
v -0.03900000 -0.02700000 0.11623290
v -0.03900000 -0.02700000 0.11800000
v -0.03660000 -0.03000000 0.11400000
v -0.03660000 -0.02892820 0.11400000
v -0.03660000 -0.03000000 0.11800000
v -0.03660000 -0.02700000 0.11623290
v -0.03660000 -0.02700000 0.11800000
f 1 4 2
f 7 1 2
f 6 3 1
f 3 4 1
f 4 7 2
f 4 3 5
f 3 10 5
f 10 4 5
f 6 1 7
f 9 6 7
f 3 6 8
f 10 3 8
f 6 10 8
f 4 9 7
f 10 9 4
f 10 6 9

