# https://github.com/mikedh/trimesh
v 0.03860000 0.03760000 0.04840000
v 0.03860000 0.03877004 0.04840000
v 0.03860000 0.03760000 0.05200000
v 0.03860000 0.03898882 0.04866658
v 0.03860000 0.03954328 0.04970390
v 0.03860000 0.03988471 0.05082946
v 0.03860000 0.04000000 0.05200000
v 0.04100000 0.03760000 0.04840000
v 0.04100000 0.03877004 0.04840000
v 0.04100000 0.03760000 0.05200000
v 0.04100000 0.03898882 0.04866658
v 0.04100000 0.03954328 0.04970390
v 0.04100000 0.03988471 0.05082946
v 0.04100000 0.04000000 0.05200000
f 1 4 2
f 8 1 2
f 7 1 3
f 1 10 3
f 10 7 3
f 7 4 1
f 4 7 5
f 4 11 2
f 4 5 11
f 5 7 6
f 5 6 13
f 7 14 6
f 8 10 1
f 8 2 9
f 11 8 9
f 10 8 14
f 2 11 9
f 11 5 12
f 5 13 12
f 14 8 11
f 13 11 12
f 7 10 14
f 6 14 13
f 14 11 13

