# https://github.com/mikedh/trimesh
v -0.03300000 0.02142688 0.11400000
v -0.03300000 0.02184265 0.11477785
v -0.03300000 0.02246447 0.11553553
v -0.03300000 0.02322215 0.11615735
v -0.03300000 0.02408658 0.11661940
v -0.03300000 0.02700000 0.11400000
v -0.03300000 0.02502455 0.11690393
v -0.03300000 0.02600000 0.11700000
v -0.03300000 0.02697545 0.11690393
v -0.03300000 0.02700000 0.11689648
v -0.03100000 0.02142688 0.11400000
v -0.03100000 0.02184265 0.11477785
v -0.03100000 0.02246447 0.11553553
v -0.03100000 0.02322215 0.11615735
v -0.03100000 0.02408658 0.11661940
v -0.03100000 0.02700000 0.11400000
v -0.03100000 0.02502455 0.11690393
v -0.03100000 0.02600000 0.11700000
v -0.03100000 0.02697545 0.11690393
v -0.03100000 0.02700000 0.11689648
f 3 1 2
f 5 1 3
f 5 6 1
f 1 12 2
f 12 3 2
f 6 11 1
f 5 3 4
f 3 14 4
f 14 5 4
f 16 6 10
f 8 5 7
f 6 5 10
f 5 8 10
f 10 8 9
f 5 15 7
f 8 7 18
f 8 19 9
f 19 10 9
f 1 11 12
f 13 3 12
f 11 13 12
f 11 15 13
f 13 14 3
f 15 5 14
f 13 15 14
f 11 19 15
f 11 6 16
f 19 11 16
f 7 15 17
f 18 7 17
f 16 10 20
f 19 8 18
f 10 19 20
f 15 18 17
f 19 16 20
f 15 19 18

