# https://github.com/mikedh/trimesh
v -0.01200000 -0.03760000 0.12360000
v -0.01200000 -0.03760000 0.12477004
v -0.01200000 -0.03733342 0.12498882
v -0.01200000 -0.03629610 0.12554328
v -0.01200000 -0.03400000 0.12360000
v -0.01200000 -0.03517054 0.12588471
v -0.01200000 -0.03400000 0.12600000
v -0.01000000 -0.03760000 0.12360000
v -0.01000000 -0.03760000 0.12477004
v -0.01000000 -0.03733342 0.12498882
v -0.01000000 -0.03629610 0.12554328
v -0.01000000 -0.03400000 0.12360000
v -0.01000000 -0.03517054 0.12588471
v -0.01000000 -0.03400000 0.12600000
f 3 1 2
f 1 9 2
f 7 1 3
f 7 3 4
f 9 3 2
f 11 4 3
f 4 11 6
f 1 7 5
f 12 1 5
f 7 12 5
f 7 4 6
f 14 7 6
f 1 8 9
f 12 8 1
f 8 14 9
f 3 9 10
f 11 3 10
f 9 11 10
f 9 14 11
f 8 12 14
f 6 11 13
f 12 7 14
f 14 6 13
f 11 14 13

