# https://github.com/mikedh/trimesh
v 0.03500000 -0.03733342 0.04701118
v 0.03500000 -0.03629610 0.04645672
v 0.03500000 -0.03760000 0.04722996
v 0.03500000 -0.03760000 0.04840000
v 0.03500000 -0.03517054 0.04611529
v 0.03500000 -0.03400000 0.04600000
v 0.03500000 -0.03400000 0.04840000
v 0.03860000 -0.03733342 0.04701118
v 0.03860000 -0.03629610 0.04645672
v 0.03860000 -0.03760000 0.04722996
v 0.03860000 -0.03760000 0.04840000
v 0.03860000 -0.03517054 0.04611529
v 0.03860000 -0.03400000 0.04600000
v 0.03860000 -0.03400000 0.04840000
f 1 5 2
f 4 6 1
f 1 10 3
f 1 2 9
f 4 1 3
f 10 4 3
f 5 1 6
f 5 12 2
f 6 13 5
f 6 4 7
f 4 14 7
f 14 6 7
f 1 8 10
f 8 1 9
f 12 9 2
f 13 8 9
f 11 4 10
f 4 11 14
f 8 11 10
f 8 14 11
f 5 13 12
f 6 14 13
f 13 9 12
f 14 8 13

