# https://github.com/mikedh/trimesh
v -0.03900000 0.00600000 0.11400000
v -0.03900000 0.00600000 0.11775000
v -0.03900000 0.02700000 0.11400000
v -0.03900000 0.02700000 0.11590109
v -0.03900000 0.02671790 0.11614849
v -0.03900000 0.02587500 0.11671170
v -0.03900000 0.02200000 0.11775000
v -0.03900000 0.02301158 0.11768370
v -0.03900000 0.02400585 0.11748593
v -0.03900000 0.02496580 0.11716007
v -0.03660000 0.00600000 0.11400000
v -0.03660000 0.00600000 0.11775000
v -0.03660000 0.02700000 0.11400000
v -0.03660000 0.02700000 0.11590109
v -0.03660000 0.02671790 0.11614849
v -0.03660000 0.02587500 0.11671170
v -0.03660000 0.02200000 0.11775000
v -0.03660000 0.02301158 0.11768370
v -0.03660000 0.02400585 0.11748593
v -0.03660000 0.02496580 0.11716007
f 2 3 1
f 11 2 1
f 3 11 1
f 2 12 7
f 3 8 4
f 13 3 4
f 3 2 8
f 8 2 7
f 4 6 5
f 4 10 6
f 10 8 9
f 4 8 10
f 14 4 5
f 5 6 15
f 18 8 7
f 8 18 9
f 10 20 6
f 10 9 20
f 2 11 12
f 11 18 12
f 11 3 13
f 13 4 14
f 18 11 13
f 18 13 14
f 7 12 17
f 14 5 15
f 6 16 15
f 18 7 17
f 20 9 19
f 9 18 19
f 20 16 6
f 12 18 17
f 16 14 15
f 20 14 16
f 18 20 19
f 18 14 20

