# https://github.com/mikedh/trimesh
v -0.03724264 -0.03824264 0.12000000
v -0.03777004 -0.03760000 0.12000000
v -0.03764025 -0.03760000 0.12117266
v -0.03762462 -0.03760000 0.12127168
v -0.03761070 -0.03762260 0.12127209
v -0.03761403 -0.03760000 0.12130037
v -0.03660000 -0.03877004 0.12000000
v -0.03660000 -0.03864025 0.12117266
v -0.03660000 -0.03862462 0.12127168
v -0.03662260 -0.03861070 0.12127209
v -0.03660000 -0.03861403 0.12130037
v -0.03660000 -0.03760000 0.12000000
v -0.03697906 -0.03760000 0.12261886
v -0.03660000 -0.03797906 0.12261886
v -0.03681426 -0.03781426 0.12262731
v -0.03681426 -0.03760000 0.12284158
v -0.03660000 -0.03781426 0.12284158
v -0.03660000 -0.03760000 0.12305584
f 2 7 1
f 5 2 1
f 6 2 3
f 2 5 3
f 3 5 4
f 6 3 4
f 5 6 4
f 18 2 6
f 6 5 15
f 1 7 8
f 10 1 8
f 7 11 8
f 10 8 9
f 8 11 9
f 11 10 9
f 7 18 11
f 10 11 15
f 7 2 12
f 5 1 10
f 2 18 12
f 18 7 12
f 5 10 15
f 6 15 13
f 18 6 13
f 15 11 14
f 11 18 14
f 13 15 16
f 18 13 16
f 15 14 17
f 14 18 17
f 15 18 16
f 18 15 17

