# https://github.com/mikedh/trimesh
v -0.03900000 0.03400000 0.11000000
v -0.03888471 0.03517054 0.11000000
v -0.03900000 0.03400000 0.11400000
v -0.03888471 0.03517054 0.11400000
v -0.03854328 0.03629610 0.11000000
v -0.03798882 0.03733342 0.11000000
v -0.03854328 0.03629610 0.11400000
v -0.03798882 0.03733342 0.11400000
v -0.03660000 0.03400000 0.11000000
v -0.03660000 0.03400000 0.11400000
v -0.03777004 0.03760000 0.11000000
v -0.03660000 0.03760000 0.11000000
v -0.03777004 0.03760000 0.11400000
v -0.03660000 0.03760000 0.11400000
f 1 3 2
f 11 1 2
f 2 4 5
f 3 1 9
f 2 3 4
f 3 8 4
f 11 2 5
f 11 5 6
f 5 8 6
f 8 11 6
f 5 4 7
f 4 8 7
f 8 5 7
f 3 14 8
f 11 8 13
f 11 9 1
f 3 9 10
f 14 3 10
f 9 14 10
f 9 11 12
f 14 9 12
f 11 14 12
f 14 11 13
f 8 14 13

