# https://github.com/mikedh/trimesh
v 0.03500000 0.03446927 0.11830448
v 0.03500000 0.03400000 0.11855531
v 0.03500000 0.03521964 0.11807686
v 0.03500000 0.03400000 0.12000000
v 0.03500000 0.03600000 0.11800000
v 0.03500000 0.03760000 0.11800000
v 0.03500000 0.03760000 0.12000000
v 0.03860000 0.03446927 0.11830448
v 0.03860000 0.03400000 0.11855531
v 0.03860000 0.03521964 0.11807686
v 0.03860000 0.03400000 0.12000000
v 0.03860000 0.03600000 0.11800000
v 0.03860000 0.03760000 0.11800000
v 0.03860000 0.03760000 0.12000000
f 2 3 1
f 3 2 6
f 4 6 2
f 9 2 1
f 1 3 8
f 3 5 12
f 4 2 11
f 3 6 5
f 6 13 5
f 6 4 7
f 4 14 7
f 14 6 7
f 8 9 1
f 8 3 10
f 3 12 10
f 8 11 9
f 12 8 10
f 11 2 9
f 4 11 14
f 8 14 11
f 5 13 12
f 6 14 13
f 13 8 12
f 14 8 13

