# https://github.com/mikedh/trimesh
v 0.00000000 0.00120000 0.00200000
v 0.00120000 0.00000000 0.00200000
v 0.00000000 0.00120000 0.00300000
v 0.00120000 0.00000000 0.00300000
v 0.00000000 0.00600000 0.00200000
v 0.00000000 0.00598079 0.00219509
v 0.00000000 0.00592388 0.00238268
v 0.00000000 0.00583147 0.00255557
v 0.00000000 0.00570711 0.00270711
v 0.00000000 0.00500000 0.00300000
v 0.00000000 0.00519509 0.00298079
v 0.00000000 0.00555557 0.00283147
v 0.00000000 0.00538268 0.00292388
v 0.00600000 0.00000000 0.00200000
v 0.00600000 0.00000000 0.00300000
v 0.00600000 0.00600000 0.00200000
v 0.00600000 0.00598079 0.00219509
v 0.00600000 0.00592388 0.00238268
v 0.00600000 0.00583147 0.00255557
v 0.00600000 0.00570711 0.00270711
v 0.00600000 0.00500000 0.00300000
v 0.00600000 0.00519509 0.00298079
v 0.00600000 0.00555557 0.00283147
v 0.00600000 0.00538268 0.00292388
f 4 1 2
f 3 5 1
f 1 14 2
f 14 4 2
f 5 14 1
f 3 1 4
f 4 15 3
f 5 7 6
f 5 9 7
f 16 5 6
f 7 18 6
f 18 7 8
f 5 3 11
f 11 3 10
f 9 8 7
f 5 11 9
f 11 12 9
f 12 11 13
f 3 21 10
f 9 20 8
f 20 9 12
f 21 11 10
f 12 13 23
f 11 22 13
f 14 16 15
f 14 15 4
f 3 15 21
f 14 5 16
f 16 6 17
f 6 18 17
f 18 8 19
f 18 16 17
f 20 16 18
f 8 20 19
f 22 11 21
f 20 12 23
f 23 13 24
f 13 22 24
f 15 16 22
f 15 22 21
f 20 18 19
f 22 16 20
f 22 20 23
f 22 23 24

