# https://github.com/mikedh/trimesh
v 0.00000000 0.00000000 0.00200000
v 0.00037503 0.00090540 0.00200000
v 0.00054446 0.00081484 0.00200000
v 0.00000000 0.00000000 0.00300000
v 0.00000000 0.00098000 0.00200000
v 0.00019119 0.00096117 0.00200000
v 0.00000000 0.00098000 0.00300000
v 0.00037067 0.00186349 0.00300000
v 0.00098000 0.00000000 0.00200000
v 0.00096117 0.00019119 0.00200000
v 0.00090540 0.00037503 0.00200000
v 0.00069296 0.00069296 0.00200000
v 0.00081484 0.00054446 0.00200000
v 0.00098000 0.00000000 0.00300000
v 0.00072710 0.00175537 0.00300000
v 0.00134350 0.00134350 0.00300000
v 0.00105558 0.00157979 0.00300000
f 2 1 5
f 1 7 5
f 1 2 9
f 14 1 9
f 3 13 2
f 1 4 7
f 1 14 4
f 2 5 6
f 8 6 5
f 15 2 6
f 2 15 3
f 7 8 5
f 8 7 4
f 16 8 4
f 8 15 6
f 9 13 10
f 10 13 11
f 2 13 9
f 13 3 12
f 16 13 12
f 16 10 11
f 16 9 10
f 13 16 11
f 16 4 14
f 16 14 9
f 3 16 12
f 15 17 3
f 17 16 3
f 8 16 15
f 15 16 17

