# https://github.com/mikedh/trimesh
v -0.00963571 -0.00543789 0.00036429
v -0.00960377 -0.00521201 0.00023155
v -0.00955557 -0.00500000 0.00016853
v -0.00976845 -0.00521201 0.00039623
v -0.00983147 -0.00500000 0.00044443
v -0.00970711 -0.00500000 0.00029289
v -0.00942977 -0.00542977 0.00020590
v -0.00920846 -0.00540891 0.00011155
v -0.00921201 -0.00560377 0.00023155
v -0.00943789 -0.00563571 0.00036429
v -0.00921201 -0.00576845 0.00039623
v -0.00940891 -0.00520846 0.00011155
v -0.00938268 -0.00500000 0.00007612
v -0.00920233 -0.00520233 0.00004181
v -0.00919509 -0.00500000 0.00001921
v -0.00979410 -0.00542977 0.00057023
v -0.00963571 -0.00563571 0.00056211
v -0.00988845 -0.00540891 0.00079154
v -0.00976845 -0.00560377 0.00078799
v -0.00960377 -0.00576845 0.00078799
v -0.00988845 -0.00520846 0.00059109
v -0.00992388 -0.00500000 0.00061732
v -0.00995819 -0.00520233 0.00079767
v -0.00998079 -0.00500000 0.00080491
v -0.00942977 -0.00579410 0.00057023
v -0.00920846 -0.00588845 0.00059109
v -0.00940891 -0.00588845 0.00079154
v -0.00920233 -0.00595819 0.00079767
v -0.00900000 -0.00538268 0.00007612
v -0.00900000 -0.00555557 0.00016853
v -0.00900000 -0.00570711 0.00029289
v -0.00900000 -0.00583147 0.00044443
v -0.00900000 -0.00519509 0.00001921
v -0.00900000 -0.00500000 0.00000000
v -0.00900000 -0.00592388 0.00061732
v -0.00900000 -0.00598079 0.00080491
v -0.00992388 -0.00538268 0.00100000
v -0.00983147 -0.00555557 0.00100000
v -0.00970711 -0.00570711 0.00100000
v -0.00955557 -0.00583147 0.00100000
v -0.00998079 -0.00519509 0.00100000
v -0.01000000 -0.00500000 0.00100000
v -0.01000000 -0.00480000 0.00120000
v -0.00938268 -0.00592388 0.00100000
v -0.00919509 -0.00598079 0.00100000
v -0.00992388 -0.00538268 0.00200000
v -0.00983147 -0.00555557 0.00200000
v -0.00970711 -0.00570711 0.00200000
v -0.00955557 -0.00583147 0.00200000
v -0.00998079 -0.00519509 0.00200000
v -0.01000000 -0.00500000 0.00200000
v -0.00938268 -0.00592388 0.00200000
v -0.00919509 -0.00598079 0.00200000
v -0.00900000 -0.00600000 0.00100000
v -0.00900000 -0.00600000 0.00200000
v -0.00955557 0.00000000 0.00016853
v -0.00983147 0.00000000 0.00044443
v -0.00970711 0.00000000 0.00029289
v -0.00938268 0.00000000 0.00007612
v -0.00919509 0.00000000 0.00001921
v -0.00992388 0.00000000 0.00061732
v -0.00998079 0.00000000 0.00080491
v -0.00900000 0.00000000 0.00000000
v -0.01000000 0.00000000 0.00100000
v -0.01000000 0.00000000 0.00200000
v -0.00600000 -0.00538268 0.00007612
v -0.00600000 -0.00555557 0.00016853
v -0.00600000 -0.00570711 0.00029289
v -0.00600000 -0.00583147 0.00044443
v -0.00600000 -0.00519509 0.00001921
v -0.00600000 -0.00500000 0.00000000
v -0.00600000 -0.00592388 0.00061732
v -0.00600000 -0.00598079 0.00080491
v -0.00600000 -0.00600000 0.00100000
v -0.00600000 -0.00600000 0.00200000
v -0.00600000 0.00000000 0.00000000
v -0.00600000 0.00000000 0.00200000
f 10 25 17
f 4 2 1
f 7 10 1
f 2 7 1
f 1 17 16
f 4 1 16
f 10 17 1
f 12 2 3
f 6 3 2
f 5 6 4
f 4 21 5
f 4 6 2
f 8 12 14
f 7 2 12
f 7 8 9
f 12 8 7
f 29 8 14
f 30 8 29
f 33 29 14
f 8 30 9
f 30 31 9
f 11 10 9
f 10 11 25
f 7 9 10
f 9 31 11
f 26 11 32
f 11 31 32
f 12 3 13
f 15 14 13
f 12 13 14
f 15 33 14
f 15 34 33
f 16 21 4
f 21 18 23
f 19 18 16
f 21 16 18
f 17 20 19
f 20 17 25
f 19 16 17
f 18 37 23
f 18 19 38
f 38 37 18
f 37 41 23
f 39 38 19
f 20 39 19
f 20 27 40
f 39 20 40
f 22 5 21
f 22 21 23
f 24 22 23
f 23 41 24
f 24 41 42
f 25 11 26
f 27 20 25
f 26 27 25
f 26 28 27
f 35 26 32
f 26 35 28
f 28 35 36
f 28 44 27
f 40 27 44
f 44 28 45
f 28 36 45
f 45 36 54
f 56 3 6
f 5 57 6
f 3 59 13
f 59 15 13
f 34 15 63
f 57 5 22
f 24 62 22
f 64 24 42
f 37 50 41
f 47 37 38
f 47 38 39
f 49 39 40
f 41 51 42
f 42 51 43
f 44 49 40
f 45 52 44
f 45 54 53
f 37 47 46
f 50 37 46
f 47 39 48
f 39 49 48
f 47 50 46
f 47 51 50
f 49 47 48
f 53 47 49
f 41 50 51
f 52 49 44
f 45 53 52
f 53 54 55
f 53 49 52
f 43 64 42
f 51 64 43
f 47 65 51
f 75 47 53
f 75 53 55
f 56 6 58
f 6 57 58
f 60 15 59
f 59 3 56
f 15 60 63
f 57 22 61
f 22 62 61
f 64 62 24
f 62 56 57
f 57 56 58
f 56 60 59
f 62 57 61
f 65 56 62
f 56 76 60
f 76 63 60
f 51 65 64
f 65 62 64
f 47 77 65
f 56 65 77
f 29 66 30
f 33 70 29
f 31 30 68
f 32 31 68
f 34 70 33
f 32 72 35
f 72 36 35
f 36 74 54
f 66 29 70
f 30 66 67
f 68 30 67
f 32 68 69
f 34 71 70
f 66 68 67
f 66 72 68
f 68 72 69
f 70 71 66
f 72 32 69
f 36 72 73
f 74 36 73
f 72 74 73
f 75 72 66
f 34 76 71
f 76 66 71
f 54 75 55
f 47 75 77
f 75 54 74
f 72 75 74
f 66 77 75
f 76 34 63
f 56 77 76
f 66 76 77

