# https://github.com/mikedh/trimesh
v -0.03290000 0.02400000 0.11084530
v -0.03290000 0.02546410 0.11000000
v -0.03290000 0.02400000 0.11315470
v -0.03290000 0.02546410 0.11400000
v -0.03290000 0.02653590 0.11000000
v -0.03290000 0.02700000 0.11026795
v -0.03290000 0.02653590 0.11400000
v -0.03290000 0.02700000 0.11373205
v -0.03130000 0.02400000 0.11084530
v -0.03130000 0.02546410 0.11000000
v -0.03130000 0.02400000 0.11315470
v -0.03130000 0.02546410 0.11400000
v -0.03130000 0.02653590 0.11000000
v -0.03130000 0.02700000 0.11026795
v -0.03130000 0.02653590 0.11400000
v -0.03130000 0.02700000 0.11373205
f 2 1 6
f 4 6 1
f 9 1 2
f 4 1 3
f 1 11 3
f 11 4 3
f 2 6 5
f 13 2 5
f 6 13 5
f 6 4 8
f 4 7 8
f 4 12 7
f 16 6 8
f 8 7 15
f 1 9 11
f 9 2 10
f 13 9 10
f 4 11 12
f 9 16 11
f 11 16 12
f 2 13 10
f 6 14 13
f 6 16 14
f 14 9 13
f 16 9 14
f 7 12 15
f 16 8 15
f 12 16 15

