# https://github.com/mikedh/trimesh
v 0.03500000 0.03207686 0.07421964
v 0.03500000 0.03230448 0.07346927
v 0.03500000 0.03267412 0.07277772
v 0.03500000 0.03200000 0.07500000
v 0.03500000 0.03207686 0.07578036
v 0.03500000 0.03230448 0.07653073
v 0.03500000 0.03267412 0.07722228
v 0.03500000 0.03317157 0.07217157
v 0.03500000 0.03377772 0.07167412
v 0.03500000 0.03400000 0.07155531
v 0.03500000 0.03317157 0.07782843
v 0.03500000 0.03377772 0.07832588
v 0.03500000 0.03400000 0.07844469
v 0.03860000 0.03207686 0.07421964
v 0.03860000 0.03230448 0.07346927
v 0.03860000 0.03267412 0.07277772
v 0.03860000 0.03200000 0.07500000
v 0.03860000 0.03207686 0.07578036
v 0.03860000 0.03230448 0.07653073
v 0.03860000 0.03267412 0.07722228
v 0.03860000 0.03317157 0.07217157
v 0.03860000 0.03377772 0.07167412
v 0.03860000 0.03400000 0.07155531
v 0.03860000 0.03317157 0.07782843
v 0.03860000 0.03377772 0.07832588
v 0.03860000 0.03400000 0.07844469
f 3 2 1
f 4 3 1
f 10 3 4
f 14 1 2
f 17 4 1
f 3 16 2
f 3 8 16
f 7 4 5
f 7 5 6
f 13 4 7
f 4 17 5
f 5 18 6
f 19 7 6
f 11 7 20
f 3 10 8
f 8 10 9
f 8 9 21
f 10 23 9
f 10 13 23
f 13 10 4
f 13 7 11
f 13 11 12
f 11 25 12
f 25 13 12
f 2 16 15
f 14 2 15
f 17 1 14
f 16 14 15
f 16 17 14
f 23 17 16
f 5 17 18
f 19 6 18
f 7 19 20
f 17 19 18
f 17 24 19
f 24 20 19
f 16 8 21
f 21 9 22
f 9 23 22
f 23 16 21
f 23 21 22
f 24 11 20
f 11 24 25
f 26 23 13
f 26 13 25
f 17 23 26
f 17 26 24
f 25 24 26

