# https://github.com/mikedh/trimesh
v -0.03900000 0.02700000 0.11400000
v -0.03900000 0.02700000 0.11590109
v -0.03900000 0.02748008 0.11548008
v -0.03900000 0.02814849 0.11471790
v -0.03900000 0.02862817 0.11400000
v -0.03660000 0.02700000 0.11400000
v -0.03660000 0.02700000 0.11590109
v -0.03660000 0.02748008 0.11548008
v -0.03660000 0.02814849 0.11471790
v -0.03660000 0.02862817 0.11400000
f 2 5 1
f 6 2 1
f 5 6 1
f 4 2 3
f 2 8 3
f 8 4 3
f 5 2 4
f 9 5 4
f 6 9 7
f 2 6 7
f 2 7 8
f 8 7 9
f 6 5 10
f 5 9 10
f 9 6 10
f 9 4 8

