# https://github.com/mikedh/trimesh
v 0.00000000 -0.00190000 0.00300000
v 0.00037067 -0.00186349 0.00300000
v 0.00072710 -0.00175537 0.00300000
v 0.00000000 -0.00190000 0.00450000
v 0.00037067 -0.00186349 0.00450000
v 0.00072710 -0.00175537 0.00450000
v 0.00000000 0.00000000 0.00300000
v 0.00000000 0.00000000 0.00450000
v 0.00105558 -0.00157979 0.00300000
v 0.00134350 -0.00134350 0.00300000
v 0.00157979 -0.00105558 0.00300000
v 0.00105558 -0.00157979 0.00450000
v 0.00134350 -0.00134350 0.00450000
v 0.00157979 -0.00105558 0.00450000
v 0.00175537 -0.00072710 0.00300000
v 0.00186349 -0.00037067 0.00300000
v 0.00190000 0.00000000 0.00300000
v 0.00175537 -0.00072710 0.00450000
v 0.00186349 -0.00037067 0.00450000
v 0.00190000 0.00000000 0.00450000
f 1 3 2
f 5 1 2
f 1 10 3
f 3 5 2
f 12 3 9
f 4 1 5
f 6 4 5
f 4 8 1
f 6 5 3
f 6 3 12
f 13 4 6
f 1 8 7
f 17 1 7
f 8 17 7
f 8 4 20
f 3 10 9
f 10 12 9
f 1 17 10
f 10 15 11
f 14 10 11
f 13 6 12
f 13 12 10
f 13 10 14
f 4 13 20
f 13 14 18
f 10 17 15
f 15 14 11
f 19 15 16
f 15 17 16
f 17 19 16
f 17 8 20
f 15 18 14
f 18 15 19
f 20 13 18
f 17 20 19
f 20 18 19

