# https://github.com/mikedh/trimesh
v -0.03300000 -0.02700000 0.11400000
v -0.03300000 -0.02700000 0.11689648
v -0.03300000 -0.02697545 0.11690393
v -0.03300000 -0.02600000 0.11700000
v -0.03300000 -0.02502455 0.11690393
v -0.03300000 -0.02142688 0.11400000
v -0.03300000 -0.02184265 0.11477785
v -0.03300000 -0.02322215 0.11615735
v -0.03300000 -0.02408658 0.11661940
v -0.03300000 -0.02246447 0.11553553
v -0.03100000 -0.02700000 0.11400000
v -0.03100000 -0.02700000 0.11689648
v -0.03100000 -0.02697545 0.11690393
v -0.03100000 -0.02600000 0.11700000
v -0.03100000 -0.02502455 0.11690393
v -0.03100000 -0.02142688 0.11400000
v -0.03100000 -0.02184265 0.11477785
v -0.03100000 -0.02322215 0.11615735
v -0.03100000 -0.02408658 0.11661940
v -0.03100000 -0.02246447 0.11553553
f 3 6 1
f 6 11 1
f 3 1 2
f 9 3 4
f 9 4 5
f 1 12 2
f 12 3 2
f 3 14 4
f 4 15 5
f 15 9 5
f 6 9 10
f 6 10 7
f 16 6 7
f 10 20 7
f 6 3 9
f 10 9 8
f 9 19 8
f 10 8 20
f 1 11 12
f 3 12 13
f 14 3 13
f 14 15 4
f 19 9 15
f 11 19 12
f 12 14 13
f 19 14 12
f 14 19 15
f 11 6 16
f 16 7 17
f 7 20 17
f 19 11 16
f 19 16 20
f 20 16 17
f 20 8 18
f 8 19 18
f 19 20 18

