# https://github.com/mikedh/trimesh
v -0.01000000 0.00000000 0.00300000
v -0.01000000 0.00000000 0.00600000
v -0.01000000 0.00480000 0.00300000
v -0.00997694 0.00503411 0.00300000
v -0.00990866 0.00525922 0.00300000
v -0.00979776 0.00546668 0.00300000
v -0.00964853 0.00564853 0.00300000
v -0.00946668 0.00579776 0.00300000
v -0.00925922 0.00590866 0.00300000
v -0.00903411 0.00597694 0.00300000
v -0.00880000 0.00600000 0.00300000
v -0.01000000 0.00480000 0.00600000
v -0.00997694 0.00503411 0.00600000
v -0.00990866 0.00525922 0.00600000
v -0.00979776 0.00546668 0.00600000
v -0.00964853 0.00564853 0.00600000
v -0.00946668 0.00579776 0.00600000
v -0.00925922 0.00590866 0.00600000
v -0.00903411 0.00597694 0.00600000
v -0.00880000 0.00600000 0.00600000
v -0.00600000 0.00000000 0.00300000
v -0.00600000 0.00000000 0.00600000
v -0.00720000 0.00600000 0.00300000
v -0.00696589 0.00597694 0.00300000
v -0.00674078 0.00590866 0.00300000
v -0.00653332 0.00579776 0.00300000
v -0.00600000 0.00480000 0.00300000
v -0.00602306 0.00503411 0.00300000
v -0.00635147 0.00564853 0.00300000
v -0.00620224 0.00546668 0.00300000
v -0.00609134 0.00525922 0.00300000
v -0.00720000 0.00600000 0.00600000
v -0.00696589 0.00597694 0.00600000
v -0.00674078 0.00590866 0.00600000
v -0.00653332 0.00579776 0.00600000
v -0.00600000 0.00480000 0.00600000
v -0.00602306 0.00503411 0.00600000
v -0.00635147 0.00564853 0.00600000
v -0.00620224 0.00546668 0.00600000
v -0.00609134 0.00525922 0.00600000
f 21 2 1
f 11 21 1
f 1 2 12
f 4 1 3
f 11 1 4
f 1 12 3
f 7 4 5
f 7 5 6
f 11 4 7
f 9 7 8
f 11 7 9
f 11 9 10
f 12 4 3
f 5 4 13
f 5 15 6
f 15 7 6
f 7 17 8
f 17 9 8
f 9 19 10
f 19 11 10
f 2 15 12
f 4 12 13
f 5 13 14
f 15 5 14
f 7 15 16
f 17 7 16
f 9 17 18
f 19 9 18
f 15 13 12
f 13 15 14
f 15 17 16
f 15 19 17
f 17 19 18
f 2 40 15
f 11 19 20
f 32 11 20
f 15 32 19
f 19 32 20
f 2 21 22
f 40 2 22
f 36 22 21
f 31 11 23
f 11 32 23
f 23 33 24
f 21 11 31
f 21 31 27
f 36 21 27
f 26 23 24
f 26 24 25
f 31 23 26
f 27 31 28
f 31 26 29
f 31 29 30
f 24 34 25
f 34 26 25
f 37 27 28
f 31 37 28
f 29 39 30
f 38 29 26
f 39 31 30
f 32 33 23
f 15 40 32
f 40 22 36
f 33 34 24
f 35 26 34
f 36 27 37
f 31 40 37
f 38 39 29
f 35 38 26
f 40 31 39
f 32 35 33
f 33 35 34
f 32 40 35
f 40 36 37
f 35 40 38
f 38 40 39

