# https://github.com/mikedh/trimesh
v -0.00157979 -0.00105558 0.00300000
v -0.00134350 -0.00134350 0.00300000
v -0.00105558 -0.00157979 0.00300000
v -0.00081484 -0.00054446 0.00200000
v -0.00090540 -0.00037503 0.00200000
v -0.00096117 -0.00019119 0.00200000
v -0.00098000 0.00000000 0.00200000
v -0.00105558 0.00000000 0.00300000
v -0.00019119 -0.00096117 0.00200000
v 0.00000000 -0.00098000 0.00200000
v -0.00072710 -0.00175537 0.00300000
v -0.00037067 -0.00186349 0.00300000
v 0.00000000 -0.00098000 0.00300000
v -0.00069296 -0.00069296 0.00200000
v -0.00054446 -0.00081484 0.00200000
v -0.00037503 -0.00090540 0.00200000
v 0.00000000 0.00000000 0.00200000
v 0.00000000 0.00000000 0.00300000
f 2 1 14
f 2 3 1
f 12 1 3
f 3 2 14
f 1 4 14
f 4 1 5
f 1 6 5
f 6 4 5
f 7 4 6
f 1 7 6
f 7 1 8
f 1 18 8
f 15 3 14
f 16 9 11
f 15 16 11
f 10 12 9
f 11 9 12
f 12 3 11
f 3 15 11
f 12 18 1
f 12 10 13
f 18 12 13
f 4 15 14
f 7 10 15
f 7 15 4
f 15 9 16
f 15 10 9
f 10 7 17
f 7 18 17
f 18 10 17
f 18 7 8
f 10 18 13

