# https://github.com/mikedh/trimesh
v 0.03500000 -0.03400000 0.12000000
v 0.03500000 -0.03255531 0.12000000
v 0.03500000 -0.03230448 0.12046927
v 0.03500000 -0.03207686 0.12121964
v 0.03500000 -0.03400000 0.12360000
v 0.03500000 -0.03207686 0.12278036
v 0.03500000 -0.03234151 0.12360000
v 0.03500000 -0.03230448 0.12353073
v 0.03500000 -0.03200000 0.12200000
v 0.03860000 -0.03400000 0.12000000
v 0.03860000 -0.03255531 0.12000000
v 0.03860000 -0.03400000 0.12360000
v 0.03860000 -0.03000000 0.12120000
v 0.03836108 -0.03000000 0.12360000
v 0.03860000 -0.03000000 0.12360000
f 5 2 1
f 2 4 3
f 2 9 4
f 2 10 1
f 10 5 1
f 5 8 2
f 2 8 9
f 8 5 7
f 9 8 6
f 5 14 7
f 13 2 3
f 4 13 3
f 9 13 4
f 14 8 7
f 14 9 6
f 8 14 6
f 10 2 11
f 13 10 11
f 10 13 12
f 5 10 12
f 5 12 14
f 2 13 11
f 13 9 14
f 12 13 15
f 14 12 15
f 13 14 15

