# https://github.com/mikedh/trimesh
v 0.03200000 0.03400000 0.07155531
v 0.03200000 0.03446927 0.07130448
v 0.03200000 0.03400000 0.07844469
v 0.03200000 0.03446927 0.07869552
v 0.03200000 0.03521964 0.07107686
v 0.03200000 0.03521964 0.07892314
v 0.03200000 0.03600000 0.07100000
v 0.03200000 0.03600000 0.07900000
v 0.03200000 0.03678036 0.07107686
v 0.03200000 0.03753073 0.07130448
v 0.03200000 0.03760000 0.07134151
v 0.03200000 0.03678036 0.07892314
v 0.03200000 0.03753073 0.07869552
v 0.03200000 0.03760000 0.07865849
v 0.03500000 0.03400000 0.07155531
v 0.03500000 0.03400000 0.07844469
v 0.03500000 0.03446927 0.07869552
v 0.03500000 0.03521964 0.07892314
v 0.03500000 0.03760000 0.06254991
v 0.03500000 0.03600000 0.07900000
v 0.03500000 0.03678036 0.07892314
v 0.03500000 0.03753073 0.07869552
v 0.03500000 0.03760000 0.07865849
f 19 1 2
f 5 19 2
f 1 5 2
f 8 1 3
f 6 3 4
f 1 7 5
f 8 3 6
f 1 16 3
f 3 16 4
f 6 4 18
f 20 8 6
f 7 19 5
f 19 7 9
f 19 9 10
f 11 19 10
f 1 11 7
f 8 11 1
f 7 11 9
f 9 11 10
f 14 11 8
f 14 8 12
f 14 12 13
f 8 20 12
f 12 21 13
f 23 11 14
f 23 14 13
f 1 19 15
f 16 1 15
f 4 16 17
f 18 4 17
f 20 6 18
f 16 18 17
f 19 16 15
f 16 20 18
f 12 20 21
f 23 19 11
f 13 21 22
f 23 13 22
f 16 19 23
f 16 23 20
f 20 23 21
f 21 23 22

