# https://github.com/mikedh/trimesh
v 0.03860000 -0.03733342 0.04701118
v 0.03860000 -0.03629610 0.04645672
v 0.03860000 -0.03760000 0.04722996
v 0.03860000 -0.03760000 0.04840000
v 0.03860000 -0.03517054 0.04611529
v 0.03860000 -0.03400000 0.04600000
v 0.03860000 -0.03400000 0.04840000
v 0.04100000 -0.03733342 0.04701118
v 0.04100000 -0.03629610 0.04645672
v 0.04100000 -0.03760000 0.04722996
v 0.04100000 -0.03760000 0.04840000
v 0.04100000 -0.03517054 0.04611529
v 0.04100000 -0.03400000 0.04600000
v 0.04100000 -0.03400000 0.04840000
f 1 6 2
f 4 6 1
f 1 8 3
f 8 1 2
f 2 5 9
f 4 1 3
f 11 4 3
f 2 6 5
f 6 13 5
f 6 4 7
f 4 14 7
f 14 6 7
f 3 8 10
f 8 2 9
f 13 8 9
f 11 3 10
f 14 4 11
f 8 11 10
f 8 14 11
f 9 5 12
f 5 13 12
f 6 14 13
f 13 9 12
f 14 8 13

