# https://github.com/mikedh/trimesh
v -0.03900000 0.02700000 0.11000000
v -0.03900000 0.02700000 0.11400000
v -0.03900000 0.02975000 0.11000000
v -0.03900000 0.02968370 0.11101158
v -0.03900000 0.02862817 0.11400000
v -0.03900000 0.02871170 0.11387500
v -0.03900000 0.02916007 0.11296580
v -0.03900000 0.02948593 0.11200585
v -0.03660000 0.02700000 0.11000000
v -0.03660000 0.02700000 0.11400000
v -0.03660000 0.02975000 0.11000000
v -0.03660000 0.02968370 0.11101158
v -0.03660000 0.02862817 0.11400000
v -0.03660000 0.02871170 0.11387500
v -0.03660000 0.02916007 0.11296580
v -0.03660000 0.02948593 0.11200585
f 2 3 1
f 9 2 1
f 3 9 1
f 2 13 5
f 3 8 4
f 11 3 4
f 8 16 4
f 3 2 5
f 7 5 6
f 3 5 8
f 8 5 7
f 5 13 6
f 7 6 15
f 8 7 16
f 2 9 10
f 13 2 10
f 9 13 10
f 9 3 11
f 11 4 12
f 4 16 12
f 13 9 11
f 16 11 12
f 6 13 14
f 15 6 14
f 16 7 15
f 13 15 14
f 13 11 16
f 13 16 15

