# https://github.com/mikedh/trimesh
v 0.03500000 -0.03753073 0.11830448
v 0.03500000 -0.03760000 0.11834151
v 0.03500000 -0.03678036 0.11807686
v 0.03500000 -0.03600000 0.11800000
v 0.03500000 -0.03760000 0.12000000
v 0.03500000 -0.03521964 0.11807686
v 0.03500000 -0.03446927 0.11830448
v 0.03500000 -0.03400000 0.11855531
v 0.03500000 -0.03400000 0.12000000
v 0.03860000 -0.03760000 0.11800000
v 0.03860000 -0.03600000 0.11800000
v 0.03860000 -0.03760000 0.12000000
v 0.03860000 -0.03521964 0.11807686
v 0.03860000 -0.03446927 0.11830448
v 0.03860000 -0.03400000 0.11855531
v 0.03860000 -0.03400000 0.12000000
f 1 4 3
f 5 1 2
f 4 1 8
f 5 8 1
f 1 10 2
f 10 1 3
f 4 10 3
f 10 5 2
f 4 8 6
f 6 8 7
f 4 6 11
f 6 7 13
f 8 15 7
f 8 5 9
f 5 16 9
f 16 8 9
f 10 4 11
f 13 10 11
f 5 10 12
f 16 5 12
f 10 16 12
f 6 13 11
f 13 7 14
f 7 15 14
f 15 10 13
f 16 10 15
f 15 13 14
f 8 16 15

