# https://github.com/mikedh/trimesh
v -0.03605584 0.03760000 0.12360000
v -0.03584158 0.03760000 0.12381426
v -0.03584158 0.03781426 0.12360000
v -0.03562731 0.03781426 0.12381426
v -0.03561886 0.03760000 0.12397906
v -0.03561886 0.03797906 0.12360000
v -0.03300000 0.03760000 0.12360000
v -0.03430037 0.03760000 0.12461403
v -0.03427209 0.03762260 0.12461070
v -0.03427168 0.03760000 0.12462462
v -0.03417266 0.03760000 0.12464025
v -0.03300000 0.03760000 0.12477004
v -0.03430037 0.03861403 0.12360000
v -0.03427209 0.03861070 0.12362260
v -0.03427168 0.03862462 0.12360000
v -0.03417266 0.03864025 0.12360000
v -0.03300000 0.03877004 0.12360000
v -0.03300000 0.03824264 0.12424264
f 4 1 2
f 1 4 3
f 1 5 2
f 5 4 2
f 6 1 3
f 4 6 3
f 1 8 5
f 13 1 6
f 8 4 5
f 4 13 6
f 9 14 4
f 8 9 4
f 14 13 4
f 12 1 7
f 1 17 7
f 14 9 18
f 17 12 7
f 1 12 8
f 9 8 10
f 8 11 10
f 11 9 10
f 11 8 12
f 18 9 11
f 12 18 11
f 17 1 13
f 13 14 15
f 16 13 15
f 14 16 15
f 17 13 16
f 14 17 16
f 17 14 18
f 12 17 18

