# https://github.com/mikedh/trimesh
v -0.03660000 -0.03400000 0.12360000
v -0.03660000 -0.03400000 0.12477004
v -0.03633342 -0.03400000 0.12498882
v -0.03529610 -0.03400000 0.12554328
v -0.03660000 -0.03000000 0.12360000
v -0.03660000 -0.03000000 0.12477004
v -0.03633342 -0.03000000 0.12498882
v -0.03529610 -0.03000000 0.12554328
v -0.03300000 -0.03400000 0.12360000
v -0.03417054 -0.03400000 0.12588471
v -0.03300000 -0.03400000 0.12600000
v -0.03300000 -0.03000000 0.12360000
v -0.03417054 -0.03000000 0.12588471
v -0.03300000 -0.03000000 0.12600000
f 1 3 2
f 5 1 2
f 1 5 9
f 7 2 3
f 1 11 3
f 3 11 4
f 3 4 8
f 5 2 6
f 13 5 6
f 7 6 2
f 7 3 8
f 13 6 7
f 4 13 8
f 13 7 8
f 11 1 9
f 11 9 12
f 4 11 10
f 13 4 10
f 11 13 10
f 9 5 12
f 12 5 13
f 11 12 14
f 13 11 14
f 12 13 14

