# https://github.com/mikedh/trimesh
v -0.01183147 0.00000000 0.04044443
v -0.01192388 0.00000000 0.04061732
v -0.01198079 0.00000000 0.04080491
v -0.01170711 0.00000000 0.04029289
v -0.01155557 0.00000000 0.04016853
v -0.01200000 0.00000000 0.04100000
v -0.01138268 0.00000000 0.04007612
v -0.01119509 0.00000000 0.04001921
v -0.01200000 0.00000000 0.04360000
v -0.01183147 0.00500000 0.04044443
v -0.01176845 0.00521201 0.04039623
v -0.01192388 0.00500000 0.04061732
v -0.01188845 0.00520846 0.04059109
v -0.01198079 0.00500000 0.04080491
v -0.01195819 0.00520233 0.04079767
v -0.01188845 0.00540891 0.04079154
v -0.01179410 0.00542977 0.04057023
v -0.01176845 0.00560377 0.04078799
v -0.01170711 0.00500000 0.04029289
v -0.01155557 0.00500000 0.04016853
v -0.01160377 0.00521201 0.04023155
v -0.01163571 0.00543789 0.04036429
v -0.01163571 0.00563571 0.04056211
v -0.01160377 0.00576845 0.04078799
v -0.01200000 0.00500000 0.04100000
v -0.01198079 0.00519509 0.04100000
v -0.01192388 0.00538268 0.04100000
v -0.01183147 0.00555557 0.04100000
v -0.01170711 0.00570711 0.04100000
v -0.01155557 0.00583147 0.04100000
v -0.01138268 0.00500000 0.04007612
v -0.01140891 0.00520846 0.04011155
v -0.01142977 0.00542977 0.04020590
v -0.01143789 0.00563571 0.04036429
v -0.01142977 0.00579410 0.04057023
v -0.01140891 0.00588845 0.04079154
v -0.01119509 0.00500000 0.04001921
v -0.01120233 0.00520233 0.04004181
v -0.01120846 0.00540891 0.04011155
v -0.01121201 0.00560377 0.04023155
v -0.01121201 0.00576845 0.04039623
v -0.01120846 0.00588845 0.04059109
v -0.01120233 0.00595819 0.04079767
v -0.01138268 0.00592388 0.04100000
v -0.01119509 0.00598079 0.04100000
v -0.01200000 0.00500000 0.04360000
v -0.01198079 0.00519509 0.04360000
v -0.01192388 0.00538268 0.04360000
v -0.01183147 0.00555557 0.04360000
v -0.01170711 0.00570711 0.04360000
v -0.01155557 0.00583147 0.04360000
v -0.01138268 0.00592388 0.04360000
v -0.01119509 0.00598079 0.04360000
v -0.01100000 0.00000000 0.04000000
v -0.01000000 0.00000000 0.04000000
v -0.01000000 0.00000000 0.04360000
v -0.01100000 0.00500000 0.04000000
v -0.01100000 0.00519509 0.04001921
v -0.01100000 0.00538268 0.04007612
v -0.01100000 0.00555557 0.04016853
v -0.01100000 0.00570711 0.04029289
v -0.01100000 0.00583147 0.04044443
v -0.01100000 0.00592388 0.04061732
v -0.01100000 0.00598079 0.04080491
v -0.01100000 0.00600000 0.04100000
v -0.01000000 0.00500000 0.04000000
v -0.01000000 0.00519509 0.04001921
v -0.01000000 0.00538268 0.04007612
v -0.01000000 0.00555557 0.04016853
v -0.01000000 0.00570711 0.04029289
v -0.01000000 0.00583147 0.04044443
v -0.01000000 0.00592388 0.04061732
v -0.01000000 0.00598079 0.04080491
v -0.01000000 0.00600000 0.04100000
v -0.01100000 0.00600000 0.04360000
v -0.01000000 0.00600000 0.04360000
f 2 6 3
f 1 6 2
f 5 1 4
f 8 1 5
f 1 9 6
f 1 10 4
f 14 2 3
f 6 14 3
f 2 10 1
f 19 5 4
f 8 5 7
f 55 1 8
f 55 9 1
f 5 31 7
f 31 8 7
f 54 8 37
f 9 46 6
f 2 12 10
f 2 14 12
f 4 10 19
f 19 20 5
f 25 14 6
f 10 11 19
f 12 13 10
f 12 15 13
f 12 14 15
f 26 15 14
f 13 11 10
f 15 16 13
f 27 16 15
f 13 17 11
f 13 16 17
f 17 16 18
f 28 18 16
f 11 21 19
f 20 21 32
f 21 20 19
f 17 22 11
f 22 21 11
f 23 34 22
f 21 22 33
f 33 22 34
f 23 22 17
f 18 23 17
f 29 24 18
f 24 23 18
f 35 34 23
f 35 23 24
f 30 36 24
f 26 14 25
f 15 26 27
f 27 28 16
f 29 18 28
f 30 24 29
f 31 5 20
f 8 31 37
f 57 54 37
f 31 20 32
f 38 31 32
f 31 38 37
f 32 21 33
f 33 39 32
f 39 38 32
f 33 40 39
f 40 33 34
f 35 41 34
f 41 40 34
f 36 35 24
f 36 42 35
f 35 42 41
f 36 44 43
f 36 43 42
f 58 37 38
f 57 37 58
f 59 38 39
f 40 60 39
f 40 41 61
f 59 58 38
f 39 60 59
f 60 40 61
f 41 62 61
f 42 62 41
f 63 42 43
f 45 64 43
f 42 63 62
f 64 63 43
f 30 44 36
f 44 45 43
f 64 45 65
f 6 46 25
f 9 48 46
f 46 26 25
f 27 26 48
f 28 27 48
f 49 29 28
f 30 29 50
f 26 46 47
f 46 48 47
f 48 26 47
f 28 48 49
f 29 49 50
f 30 50 51
f 48 52 49
f 50 49 52
f 50 52 51
f 9 76 48
f 44 30 52
f 44 53 45
f 45 53 65
f 52 30 51
f 44 52 53
f 53 75 65
f 52 75 53
f 48 76 52
f 55 8 54
f 66 55 54
f 9 55 56
f 76 9 56
f 55 76 56
f 66 54 57
f 58 66 57
f 68 58 59
f 60 68 59
f 60 61 69
f 62 70 61
f 63 71 62
f 64 72 63
f 74 64 65
f 69 55 66
f 55 69 76
f 66 58 67
f 58 68 67
f 68 60 69
f 69 61 70
f 71 70 62
f 71 63 72
f 72 64 73
f 73 64 74
f 68 66 67
f 68 69 66
f 71 69 70
f 73 69 71
f 73 71 72
f 76 69 73
f 52 76 75
f 76 65 75
f 65 76 74
f 76 73 74

