# https://github.com/mikedh/trimesh
v -0.02355557 -0.00600000 0.04856853
v -0.02383147 -0.00600000 0.04884443
v -0.02370711 -0.00600000 0.04869289
v -0.02338268 -0.00600000 0.04847612
v -0.02319509 -0.00600000 0.04841921
v -0.02392388 -0.00600000 0.04901732
v -0.02398079 -0.00600000 0.04920491
v -0.02300000 -0.00600000 0.04840000
v -0.02400000 -0.00600000 0.04940000
v -0.02400000 -0.00600000 0.05200000
v -0.02355557 0.00000000 0.04856853
v -0.02383147 0.00000000 0.04884443
v -0.02370711 0.00000000 0.04869289
v -0.02338268 0.00000000 0.04847612
v -0.02319509 0.00000000 0.04841921
v -0.02392388 0.00000000 0.04901732
v -0.02398079 0.00000000 0.04920491
v -0.02300000 0.00000000 0.04840000
v -0.02400000 0.00000000 0.04940000
v -0.02400000 0.00000000 0.05200000
v -0.01700000 -0.00600000 0.04840000
v -0.01680491 -0.00600000 0.04841921
v -0.01661732 -0.00600000 0.04847612
v -0.01644443 -0.00600000 0.04856853
v -0.01629289 -0.00600000 0.04869289
v -0.01616853 -0.00600000 0.04884443
v -0.01607612 -0.00600000 0.04901732
v -0.01601921 -0.00600000 0.04920491
v -0.01600000 -0.00600000 0.04940000
v -0.01600000 -0.00600000 0.05200000
v -0.01700000 0.00000000 0.04840000
v -0.01680491 0.00000000 0.04841921
v -0.01661732 0.00000000 0.04847612
v -0.01644443 0.00000000 0.04856853
v -0.01629289 0.00000000 0.04869289
v -0.01616853 0.00000000 0.04884443
v -0.01607612 0.00000000 0.04901732
v -0.01601921 0.00000000 0.04920491
v -0.01600000 0.00000000 0.04940000
v -0.01600000 0.00000000 0.05200000
f 1 2 3
f 4 2 1
f 4 7 2
f 5 8 4
f 7 6 2
f 7 4 10
f 13 1 3
f 2 13 3
f 4 14 5
f 11 4 1
f 18 8 5
f 12 2 6
f 7 17 6
f 7 9 17
f 22 4 8
f 29 10 4
f 7 10 9
f 10 20 9
f 11 1 13
f 2 12 13
f 4 11 14
f 5 14 15
f 18 5 15
f 12 6 16
f 6 17 16
f 17 9 19
f 13 12 11
f 11 18 14
f 14 18 15
f 17 11 12
f 17 12 16
f 20 11 17
f 8 18 31
f 11 33 18
f 9 20 19
f 20 17 19
f 10 40 20
f 40 11 20
f 22 8 21
f 29 4 22
f 8 31 21
f 23 24 22
f 26 22 24
f 26 24 25
f 29 22 26
f 27 28 26
f 29 26 28
f 31 22 21
f 22 32 23
f 33 24 23
f 24 35 25
f 35 26 25
f 26 36 27
f 38 28 27
f 38 29 28
f 10 29 30
f 40 10 30
f 29 40 30
f 33 31 18
f 11 40 33
f 22 31 32
f 32 33 23
f 24 33 34
f 35 24 34
f 26 35 36
f 27 36 37
f 38 27 37
f 29 38 39
f 31 33 32
f 33 35 34
f 33 38 35
f 35 38 36
f 36 38 37
f 33 40 38
f 40 29 39
f 38 40 39

