# https://github.com/mikedh/trimesh
v -0.03854328 -0.03629610 0.05800000
v -0.03798882 -0.03733342 0.05800000
v -0.03854328 -0.03629610 0.06200000
v -0.03798882 -0.03733342 0.06200000
v -0.03888471 -0.03517054 0.05800000
v -0.03900000 -0.03400000 0.05800000
v -0.03888471 -0.03517054 0.06200000
v -0.03900000 -0.03400000 0.06200000
v -0.03777004 -0.03760000 0.05800000
v -0.03660000 -0.03760000 0.05800000
v -0.03777004 -0.03760000 0.06200000
v -0.03660000 -0.03760000 0.06200000
v -0.03660000 -0.03400000 0.05800000
v -0.03660000 -0.03400000 0.06200000
f 6 2 1
f 11 2 9
f 6 10 2
f 2 3 1
f 1 3 7
f 3 2 4
f 2 11 4
f 11 3 4
f 6 1 5
f 1 7 5
f 7 6 5
f 6 8 13
f 3 8 7
f 6 7 8
f 3 14 8
f 2 10 9
f 10 11 9
f 12 3 11
f 3 12 14
f 10 12 11
f 10 14 12
f 10 6 13
f 10 13 14
f 8 14 13

