# https://github.com/mikedh/trimesh
v -0.00098000 0.00000000 -0.00380000
v -0.00096117 0.00019119 -0.00380000
v -0.00090540 0.00037503 -0.00380000
v -0.00098000 0.00000000 -0.00340000
v -0.00096117 0.00019119 -0.00340000
v -0.00090540 0.00037503 -0.00340000
v -0.00081484 0.00054446 -0.00380000
v -0.00069296 0.00069296 -0.00380000
v -0.00054446 0.00081484 -0.00380000
v -0.00081484 0.00054446 -0.00340000
v -0.00069296 0.00069296 -0.00340000
v -0.00054446 0.00081484 -0.00340000
v 0.00000000 0.00000000 -0.00380000
v 0.00000000 0.00000000 -0.00340000
v -0.00037503 0.00090540 -0.00380000
v -0.00019119 0.00096117 -0.00380000
v 0.00000000 0.00098000 -0.00380000
v -0.00037503 0.00090540 -0.00340000
v -0.00019119 0.00096117 -0.00340000
v 0.00000000 0.00098000 -0.00340000
f 3 1 2
f 1 4 2
f 8 1 3
f 3 2 6
f 3 6 7
f 13 4 1
f 2 4 5
f 4 6 5
f 6 2 5
f 7 6 10
f 4 11 6
f 8 3 7
f 17 1 8
f 8 7 11
f 8 11 9
f 8 9 15
f 11 7 10
f 6 11 10
f 4 20 11
f 9 11 12
f 11 18 12
f 17 13 1
f 13 17 14
f 4 13 14
f 4 14 20
f 17 8 15
f 18 15 9
f 15 18 16
f 17 15 16
f 20 17 16
f 18 9 12
f 16 18 19
f 11 20 18
f 14 17 20
f 20 16 19
f 18 20 19

