# https://github.com/mikedh/trimesh
v 0.03500000 0.03400000 0.12360000
v 0.03500000 0.03400000 0.12600000
v 0.03500000 0.03760000 0.12360000
v 0.03500000 0.03600000 0.12600000
v 0.03500000 0.03678036 0.12592314
v 0.03500000 0.03753073 0.12569552
v 0.03500000 0.03760000 0.12565849
v 0.03860000 0.03400000 0.12360000
v 0.03860000 0.03400000 0.12600000
v 0.03860000 0.03760000 0.12360000
v 0.03860000 0.03600000 0.12600000
v 0.03860000 0.03678036 0.12592314
v 0.03860000 0.03753073 0.12569552
v 0.03860000 0.03760000 0.12565849
f 2 3 1
f 8 2 1
f 3 8 1
f 2 11 4
f 3 2 7
f 7 2 4
f 7 4 5
f 7 5 6
f 4 12 5
f 14 3 7
f 13 7 6
f 5 13 6
f 2 8 9
f 2 9 11
f 8 14 9
f 8 3 10
f 3 14 10
f 14 8 10
f 11 12 4
f 12 13 5
f 14 7 13
f 11 9 14
f 11 14 12
f 12 14 13

