# https://github.com/mikedh/trimesh
v 0.02400000 0.03760000 0.05800000
v 0.02400000 0.03760000 0.05933975
v 0.02400000 0.04000000 0.05800000
v 0.02400000 0.04000000 0.05933975
v 0.02900000 0.03760000 0.05800000
v 0.02699208 0.03760000 0.06200000
v 0.02900000 0.03760000 0.06200000
v 0.02900000 0.04000000 0.05800000
v 0.02699208 0.04000000 0.06200000
v 0.02900000 0.04000000 0.06200000
f 1 6 2
f 4 1 2
f 3 5 1
f 6 4 2
f 3 1 4
f 9 3 4
f 6 9 4
f 5 6 1
f 6 5 7
f 5 10 7
f 10 6 7
f 5 3 8
f 3 10 8
f 10 5 8
f 10 9 6
f 10 3 9

