# https://github.com/mikedh/trimesh
v -0.00190000 0.00000000 0.00300000
v -0.00186349 0.00037067 0.00300000
v -0.00175537 0.00072710 0.00300000
v -0.00190000 0.00000000 0.00450000
v -0.00186349 0.00037067 0.00450000
v -0.00175537 0.00072710 0.00450000
v -0.00157979 0.00105558 0.00300000
v -0.00134350 0.00134350 0.00300000
v -0.00105558 0.00157979 0.00300000
v -0.00157979 0.00105558 0.00450000
v -0.00134350 0.00134350 0.00450000
v -0.00105558 0.00157979 0.00450000
v 0.00000000 0.00000000 0.00300000
v 0.00000000 0.00000000 0.00450000
v -0.00072710 0.00175537 0.00300000
v -0.00037067 0.00186349 0.00300000
v 0.00000000 0.00190000 0.00300000
v -0.00072710 0.00175537 0.00450000
v -0.00037067 0.00186349 0.00450000
v 0.00000000 0.00190000 0.00450000
f 3 1 2
f 1 5 2
f 8 1 3
f 5 3 2
f 3 10 7
f 1 4 5
f 4 6 5
f 6 3 5
f 3 6 10
f 4 11 6
f 14 4 1
f 8 3 7
f 10 8 7
f 17 1 8
f 15 8 9
f 8 12 9
f 11 10 6
f 11 8 10
f 11 12 8
f 4 20 11
f 11 18 12
f 14 1 13
f 1 17 13
f 17 14 13
f 4 14 20
f 17 8 15
f 12 15 9
f 15 19 16
f 17 15 16
f 19 17 16
f 18 15 12
f 18 19 15
f 11 20 18
f 14 17 20
f 20 17 19
f 18 20 19

