# https://github.com/mikedh/trimesh
v 0.00000000 0.00000000 0.04000000
v 0.00000000 0.00000000 0.04360000
v 0.00000000 0.00500000 0.04000000
v 0.00000000 0.00519509 0.04001921
v 0.00000000 0.00538268 0.04007612
v 0.00000000 0.00555557 0.04016853
v 0.00000000 0.00570711 0.04029289
v 0.00000000 0.00583147 0.04044443
v 0.00000000 0.00592388 0.04061732
v 0.00000000 0.00598079 0.04080491
v 0.00000000 0.00600000 0.04100000
v 0.00000000 0.00600000 0.04360000
v 0.00600000 0.00000000 0.04000000
v 0.00600000 0.00000000 0.04360000
v 0.00600000 0.00500000 0.04000000
v 0.00600000 0.00519509 0.04001921
v 0.00600000 0.00538268 0.04007612
v 0.00600000 0.00555557 0.04016853
v 0.00600000 0.00570711 0.04029289
v 0.00600000 0.00583147 0.04044443
v 0.00600000 0.00592388 0.04061732
v 0.00600000 0.00598079 0.04080491
v 0.00600000 0.00600000 0.04100000
v 0.00600000 0.00600000 0.04360000
f 2 11 1
f 13 2 1
f 1 4 3
f 1 11 4
f 4 6 5
f 4 7 6
f 4 11 7
f 7 9 8
f 7 11 9
f 9 11 10
f 15 1 3
f 3 4 16
f 17 4 5
f 6 18 5
f 6 7 18
f 19 7 8
f 20 8 9
f 21 9 10
f 11 22 10
f 11 2 12
f 2 24 12
f 24 11 12
f 13 1 15
f 2 13 14
f 24 2 14
f 13 24 14
f 15 3 16
f 16 4 17
f 18 17 5
f 18 7 19
f 20 19 8
f 9 21 20
f 22 21 10
f 22 11 23
f 18 13 15
f 13 18 24
f 18 15 16
f 18 16 17
f 20 18 19
f 18 20 22
f 22 20 21
f 24 18 22
f 11 24 23
f 24 22 23

