# https://github.com/mikedh/trimesh
v -0.03633342 0.00000000 0.04701118
v -0.03529610 0.00000000 0.04645672
v -0.03660000 0.00000000 0.04722996
v -0.03660000 0.00000000 0.04840000
v -0.03633342 0.00600000 0.04701118
v -0.03529610 0.00600000 0.04645672
v -0.03660000 0.00600000 0.04722996
v -0.03660000 0.00600000 0.04840000
v -0.03417054 0.00000000 0.04611529
v -0.03300000 0.00000000 0.04600000
v -0.03300000 0.00000000 0.04840000
v -0.03417054 0.00600000 0.04611529
v -0.03300000 0.00600000 0.04600000
v -0.03300000 0.00600000 0.04840000
f 5 1 3
f 9 1 2
f 10 4 1
f 6 9 2
f 1 6 2
f 3 1 4
f 4 8 3
f 5 3 7
f 1 5 6
f 5 12 6
f 3 8 7
f 8 5 7
f 4 14 8
f 14 5 8
f 10 1 9
f 12 10 9
f 4 10 11
f 14 4 11
f 10 14 11
f 12 9 6
f 5 13 12
f 5 14 13
f 13 10 12
f 10 13 14

