# https://github.com/mikedh/trimesh
v -0.00309204 -0.00253757 -0.00180000
v -0.00332588 -0.00222228 -0.00180000
v -0.00253757 -0.00309204 -0.00180000
v -0.00222228 -0.00332588 -0.00180000
v -0.00282843 -0.00282843 -0.00180000
v -0.00352769 -0.00188559 -0.00180000
v -0.00369552 -0.00153073 -0.00180000
v -0.00382776 -0.00116114 -0.00180000
v -0.00392314 -0.00078036 -0.00180000
v -0.00398074 -0.00039207 -0.00180000
v -0.00188559 -0.00352769 -0.00180000
v -0.00153073 -0.00369552 -0.00180000
v -0.00116114 -0.00382776 -0.00180000
v -0.00078036 -0.00392314 -0.00180000
v -0.00039207 -0.00398074 -0.00180000
v -0.00107103 -0.00082183 -0.00180000
v -0.00116913 -0.00067500 -0.00180000
v -0.00124724 -0.00051662 -0.00180000
v -0.00130400 -0.00034941 -0.00180000
v -0.00133845 -0.00017621 -0.00180000
v -0.00082183 -0.00107103 -0.00180000
v -0.00067500 -0.00116913 -0.00180000
v -0.00051662 -0.00124724 -0.00180000
v -0.00034941 -0.00130400 -0.00180000
v -0.00017621 -0.00133845 -0.00180000
v -0.00095459 -0.00095459 -0.00180000
v -0.00309204 -0.00253757 -0.00100000
v -0.00332588 -0.00222228 -0.00100000
v -0.00253757 -0.00309204 -0.00100000
v -0.00222228 -0.00332588 -0.00100000
v -0.00282843 -0.00282843 -0.00100000
v -0.00352769 -0.00188559 -0.00100000
v -0.00369552 -0.00153073 -0.00100000
v -0.00382776 -0.00116114 -0.00100000
v -0.00392314 -0.00078036 -0.00100000
v -0.00398074 -0.00039207 -0.00100000
v -0.00188559 -0.00352769 -0.00100000
v -0.00153073 -0.00369552 -0.00100000
v -0.00116114 -0.00382776 -0.00100000
v -0.00078036 -0.00392314 -0.00100000
v -0.00039207 -0.00398074 -0.00100000
v -0.00107103 -0.00082183 -0.00100000
v -0.00116913 -0.00067500 -0.00100000
v -0.00124724 -0.00051662 -0.00100000
v -0.00130400 -0.00034941 -0.00100000
v -0.00133845 -0.00017621 -0.00100000
v -0.00082183 -0.00107103 -0.00100000
v -0.00067500 -0.00116913 -0.00100000
v -0.00051662 -0.00124724 -0.00100000
v -0.00034941 -0.00130400 -0.00100000
v -0.00017621 -0.00133845 -0.00100000
v -0.00095459 -0.00095459 -0.00100000
v -0.00400000 0.00000000 -0.00180000
v -0.00398074 0.00039207 -0.00180000
v -0.00392314 0.00078036 -0.00180000
v -0.00382776 0.00116114 -0.00180000
v -0.00369552 0.00153073 -0.00180000
v -0.00352769 0.00188559 -0.00180000
v -0.00332588 0.00222228 -0.00180000
v -0.00309204 0.00253757 -0.00180000
v -0.00282843 0.00282843 -0.00180000
v -0.00253757 0.00309204 -0.00180000
v -0.00222228 0.00332588 -0.00180000
v -0.00135000 0.00000000 -0.00180000
v -0.00133845 0.00017621 -0.00180000
v -0.00130400 0.00034941 -0.00180000
v -0.00124724 0.00051662 -0.00180000
v -0.00116913 0.00067500 -0.00180000
v -0.00107103 0.00082183 -0.00180000
v -0.00095459 0.00095459 -0.00180000
v -0.00082183 0.00107103 -0.00180000
v -0.00067500 0.00116913 -0.00180000
v -0.00051662 0.00124724 -0.00180000
v -0.00034941 0.00130400 -0.00180000
v -0.00017621 0.00133845 -0.00180000
v -0.00188559 0.00352769 -0.00180000
v -0.00153073 0.00369552 -0.00180000
v -0.00116114 0.00382776 -0.00180000
v -0.00078036 0.00392314 -0.00180000
v -0.00039207 0.00398074 -0.00180000
v -0.00400000 0.00000000 -0.00100000
v -0.00398074 0.00039207 -0.00100000
v -0.00392314 0.00078036 -0.00100000
v -0.00382776 0.00116114 -0.00100000
v -0.00369552 0.00153073 -0.00100000
v -0.00352769 0.00188559 -0.00100000
v -0.00332588 0.00222228 -0.00100000
v -0.00309204 0.00253757 -0.00100000
v -0.00282843 0.00282843 -0.00100000
v -0.00253757 0.00309204 -0.00100000
v -0.00222228 0.00332588 -0.00100000
v -0.00135000 0.00000000 -0.00100000
v -0.00133845 0.00017621 -0.00100000
v -0.00130400 0.00034941 -0.00100000
v -0.00124724 0.00051662 -0.00100000
v -0.00116913 0.00067500 -0.00100000
v -0.00107103 0.00082183 -0.00100000
v -0.00095459 0.00095459 -0.00100000
v -0.00082183 0.00107103 -0.00100000
v -0.00067500 0.00116913 -0.00100000
v -0.00051662 0.00124724 -0.00100000
v -0.00034941 0.00130400 -0.00100000
v -0.00017621 0.00133845 -0.00100000
v -0.00188559 0.00352769 -0.00100000
v -0.00153073 0.00369552 -0.00100000
v -0.00116114 0.00382776 -0.00100000
v -0.00078036 0.00392314 -0.00100000
v -0.00039207 0.00398074 -0.00100000
v 0.00000000 -0.00400000 -0.00180000
v 0.00039207 -0.00398074 -0.00180000
v 0.00078036 -0.00392314 -0.00180000
v 0.00116114 -0.00382776 -0.00180000
v 0.00153073 -0.00369552 -0.00180000
v 0.00188559 -0.00352769 -0.00180000
v 0.00000000 -0.00135000 -0.00180000
v 0.00017621 -0.00133845 -0.00180000
v 0.00034941 -0.00130400 -0.00180000
v 0.00051662 -0.00124724 -0.00180000
v 0.00067500 -0.00116913 -0.00180000
v 0.00082183 -0.00107103 -0.00180000
v 0.00095459 -0.00095459 -0.00180000
v 0.00107103 -0.00082183 -0.00180000
v 0.00116913 -0.00067500 -0.00180000
v 0.00124724 -0.00051662 -0.00180000
v 0.00130400 -0.00034941 -0.00180000
v 0.00133845 -0.00017621 -0.00180000
v 0.00222228 -0.00332588 -0.00180000
v 0.00253757 -0.00309204 -0.00180000
v 0.00282843 -0.00282843 -0.00180000
v 0.00309204 -0.00253757 -0.00180000
v 0.00332588 -0.00222228 -0.00180000
v 0.00352769 -0.00188559 -0.00180000
v 0.00369552 -0.00153073 -0.00180000
v 0.00382776 -0.00116114 -0.00180000
v 0.00392314 -0.00078036 -0.00180000
v 0.00398074 -0.00039207 -0.00180000
v 0.00000000 -0.00400000 -0.00100000
v 0.00039207 -0.00398074 -0.00100000
v 0.00078036 -0.00392314 -0.00100000
v 0.00116114 -0.00382776 -0.00100000
v 0.00153073 -0.00369552 -0.00100000
v 0.00188559 -0.00352769 -0.00100000
v 0.00000000 -0.00135000 -0.00100000
v 0.00017621 -0.00133845 -0.00100000
v 0.00034941 -0.00130400 -0.00100000
v 0.00051662 -0.00124724 -0.00100000
v 0.00067500 -0.00116913 -0.00100000
v 0.00082183 -0.00107103 -0.00100000
v 0.00095459 -0.00095459 -0.00100000
v 0.00107103 -0.00082183 -0.00100000
v 0.00116913 -0.00067500 -0.00100000
v 0.00124724 -0.00051662 -0.00100000
v 0.00130400 -0.00034941 -0.00100000
v 0.00133845 -0.00017621 -0.00100000
v 0.00222228 -0.00332588 -0.00100000
v 0.00253757 -0.00309204 -0.00100000
v 0.00282843 -0.00282843 -0.00100000
v 0.00309204 -0.00253757 -0.00100000
v 0.00332588 -0.00222228 -0.00100000
v 0.00352769 -0.00188559 -0.00100000
v 0.00369552 -0.00153073 -0.00100000
v 0.00382776 -0.00116114 -0.00100000
v 0.00392314 -0.00078036 -0.00100000
v 0.00398074 -0.00039207 -0.00100000
v 0.00095459 0.00095459 -0.00180000
v 0.00000000 0.00135000 -0.00180000
v 0.00017621 0.00133845 -0.00180000
v 0.00034941 0.00130400 -0.00180000
v 0.00051662 0.00124724 -0.00180000
v 0.00067500 0.00116913 -0.00180000
v 0.00082183 0.00107103 -0.00180000
v 0.00135000 0.00000000 -0.00180000
v 0.00133845 0.00017621 -0.00180000
v 0.00130400 0.00034941 -0.00180000
v 0.00124724 0.00051662 -0.00180000
v 0.00116913 0.00067500 -0.00180000
v 0.00107103 0.00082183 -0.00180000
v 0.00000000 0.00400000 -0.00180000
v 0.00039207 0.00398074 -0.00180000
v 0.00078036 0.00392314 -0.00180000
v 0.00116114 0.00382776 -0.00180000
v 0.00153073 0.00369552 -0.00180000
v 0.00188559 0.00352769 -0.00180000
v 0.00400000 0.00000000 -0.00180000
v 0.00398074 0.00039207 -0.00180000
v 0.00392314 0.00078036 -0.00180000
v 0.00382776 0.00116114 -0.00180000
v 0.00369552 0.00153073 -0.00180000
v 0.00352769 0.00188559 -0.00180000
v 0.00282843 0.00282843 -0.00180000
v 0.00222228 0.00332588 -0.00180000
v 0.00253757 0.00309204 -0.00180000
v 0.00332588 0.00222228 -0.00180000
v 0.00309204 0.00253757 -0.00180000
v 0.00095459 0.00095459 -0.00100000
v 0.00000000 0.00135000 -0.00100000
v 0.00017621 0.00133845 -0.00100000
v 0.00034941 0.00130400 -0.00100000
v 0.00051662 0.00124724 -0.00100000
v 0.00067500 0.00116913 -0.00100000
v 0.00082183 0.00107103 -0.00100000
v 0.00135000 0.00000000 -0.00100000
v 0.00133845 0.00017621 -0.00100000
v 0.00130400 0.00034941 -0.00100000
v 0.00124724 0.00051662 -0.00100000
v 0.00116913 0.00067500 -0.00100000
v 0.00107103 0.00082183 -0.00100000
v 0.00000000 0.00400000 -0.00100000
v 0.00039207 0.00398074 -0.00100000
v 0.00078036 0.00392314 -0.00100000
v 0.00116114 0.00382776 -0.00100000
v 0.00153073 0.00369552 -0.00100000
v 0.00188559 0.00352769 -0.00100000
v 0.00400000 0.00000000 -0.00100000
v 0.00398074 0.00039207 -0.00100000
v 0.00392314 0.00078036 -0.00100000
v 0.00382776 0.00116114 -0.00100000
v 0.00369552 0.00153073 -0.00100000
v 0.00352769 0.00188559 -0.00100000
v 0.00282843 0.00282843 -0.00100000
v 0.00222228 0.00332588 -0.00100000
v 0.00253757 0.00309204 -0.00100000
v 0.00332588 0.00222228 -0.00100000
v 0.00309204 0.00253757 -0.00100000
f 1 5 27
f 1 28 2
f 3 4 29
f 4 11 30
f 3 31 5
f 6 7 58
f 8 9 56
f 9 10 55
f 7 8 57
f 2 6 59
f 1 2 60
f 3 63 4
f 1 61 5
f 3 5 62
f 6 33 7
f 7 34 8
f 2 32 6
f 8 35 9
f 9 36 10
f 10 81 53
f 12 16 13
f 14 24 15
f 15 115 109
f 13 22 14
f 13 21 22
f 14 22 23
f 14 23 24
f 15 24 25
f 15 25 115
f 11 12 37
f 12 13 38
f 13 14 39
f 14 15 40
f 15 109 41
f 4 76 11
f 11 77 12
f 12 18 17
f 12 17 16
f 12 19 18
f 13 16 26
f 12 20 19
f 12 64 20
f 13 26 21
f 2 28 32
f 1 27 28
f 3 29 31
f 4 30 29
f 5 31 27
f 6 32 33
f 8 34 35
f 7 33 34
f 9 35 36
f 10 36 81
f 32 86 33
f 34 84 35
f 35 83 36
f 33 85 34
f 28 87 32
f 27 88 28
f 29 30 91
f 27 31 89
f 29 90 31
f 12 38 37
f 11 37 30
f 13 39 38
f 14 40 39
f 15 41 40
f 41 109 137
f 38 39 43
f 40 41 49
f 41 137 143
f 39 40 47
f 40 48 47
f 40 49 48
f 41 50 49
f 41 51 50
f 41 143 51
f 30 37 104
f 37 38 105
f 38 43 44
f 38 44 45
f 39 42 43
f 39 52 42
f 38 45 46
f 38 46 92
f 39 47 52
f 10 53 54
f 10 54 55
f 9 55 56
f 8 56 57
f 7 57 58
f 6 58 59
f 2 59 60
f 1 60 61
f 5 61 62
f 3 62 63
f 4 63 76
f 53 82 54
f 54 83 55
f 55 84 56
f 56 85 57
f 57 86 58
f 58 87 59
f 59 88 60
f 60 89 61
f 61 90 62
f 62 91 63
f 12 77 64
f 11 76 77
f 78 65 64
f 78 66 65
f 78 67 66
f 78 68 67
f 78 69 68
f 78 70 69
f 79 71 70
f 77 78 64
f 79 72 71
f 80 73 72
f 78 79 70
f 80 74 73
f 80 75 74
f 178 166 75
f 79 80 72
f 80 178 75
f 63 104 76
f 76 105 77
f 77 106 78
f 78 107 79
f 79 108 80
f 80 208 178
f 53 81 82
f 54 82 83
f 55 83 84
f 56 84 85
f 57 85 86
f 58 86 87
f 36 82 81
f 36 83 82
f 35 84 83
f 34 85 84
f 33 86 85
f 32 87 86
f 28 88 87
f 27 89 88
f 31 90 89
f 29 91 90
f 30 104 91
f 59 87 88
f 60 88 89
f 61 89 90
f 62 90 91
f 63 91 104
f 38 92 105
f 37 105 104
f 105 92 93
f 106 93 94
f 106 94 95
f 106 95 96
f 106 96 97
f 106 97 98
f 106 98 99
f 76 104 105
f 77 105 106
f 78 106 107
f 79 107 108
f 80 108 208
f 105 93 106
f 107 99 100
f 107 100 101
f 106 99 107
f 108 101 102
f 108 102 103
f 108 103 196
f 107 101 108
f 108 196 208
f 109 116 110
f 110 119 111
f 109 115 116
f 110 116 117
f 110 117 118
f 111 121 112
f 110 118 119
f 111 119 120
f 112 172 113
f 109 110 137
f 110 111 138
f 111 112 139
f 112 113 140
f 113 114 141
f 114 127 142
f 111 120 121
f 112 121 122
f 112 122 123
f 112 123 124
f 112 124 125
f 112 125 126
f 112 126 172
f 113 183 114
f 127 128 155
f 128 129 156
f 129 130 157
f 130 131 158
f 131 132 159
f 114 191 127
f 127 192 128
f 128 190 129
f 129 194 130
f 130 193 131
f 131 189 132
f 132 188 133
f 133 187 134
f 134 186 135
f 135 185 136
f 132 133 160
f 133 134 161
f 134 135 162
f 135 136 163
f 136 184 164
f 110 138 137
f 111 139 138
f 112 140 139
f 113 141 140
f 114 142 141
f 137 138 143
f 138 139 146
f 138 144 143
f 138 145 144
f 138 146 145
f 139 140 148
f 139 147 146
f 139 148 147
f 140 141 154
f 140 149 148
f 140 150 149
f 140 151 150
f 140 152 151
f 140 153 152
f 140 154 153
f 141 202 154
f 141 142 213
f 127 155 142
f 128 156 155
f 129 157 156
f 130 158 157
f 131 159 158
f 132 160 159
f 133 161 160
f 134 162 161
f 135 163 162
f 136 164 163
f 164 184 214
f 142 155 221
f 155 156 222
f 156 157 220
f 157 158 224
f 158 159 223
f 159 160 219
f 160 161 218
f 161 162 217
f 162 163 216
f 163 164 215
f 181 165 171
f 113 172 182
f 182 172 173
f 182 173 174
f 181 177 165
f 182 174 175
f 182 176 177
f 182 175 176
f 113 182 183
f 114 183 191
f 179 167 166
f 179 168 167
f 180 169 168
f 180 170 169
f 181 171 170
f 180 181 170
f 178 179 166
f 179 180 168
f 181 182 177
f 178 209 179
f 179 210 180
f 180 211 181
f 181 212 182
f 182 213 183
f 128 192 190
f 129 190 194
f 127 191 192
f 130 194 193
f 131 193 189
f 133 188 187
f 136 185 184
f 135 186 185
f 134 187 186
f 132 189 188
f 184 185 214
f 185 186 215
f 186 187 216
f 189 193 219
f 187 188 217
f 188 189 218
f 190 192 220
f 183 221 191
f 191 222 192
f 193 194 223
f 190 224 194
f 211 201 195
f 141 212 202
f 212 203 202
f 212 204 203
f 211 195 207
f 211 207 206
f 212 205 204
f 212 206 205
f 141 213 212
f 142 221 213
f 178 208 209
f 179 209 210
f 180 210 211
f 181 211 212
f 183 213 221
f 182 212 213
f 209 196 197
f 209 197 198
f 209 198 199
f 210 199 200
f 210 200 201
f 210 201 211
f 208 196 209
f 209 199 210
f 211 206 212
f 185 215 214
f 186 216 215
f 188 218 217
f 187 217 216
f 189 219 218
f 156 220 222
f 157 224 220
f 155 222 221
f 158 223 224
f 159 219 223
f 161 217 218
f 164 214 215
f 163 215 216
f 162 216 217
f 160 218 219
f 190 220 224
f 191 221 222
f 192 222 220
f 194 224 223
f 193 223 219
f 26 16 42
f 43 16 17
f 17 18 44
f 18 19 45
f 19 20 46
f 20 64 92
f 47 22 21
f 23 22 48
f 24 23 49
f 25 24 50
f 25 51 115
f 21 26 52
f 16 43 42
f 17 44 43
f 18 45 44
f 19 46 45
f 20 92 46
f 21 52 47
f 22 47 48
f 23 48 49
f 49 50 24
f 50 51 25
f 115 51 143
f 42 52 26
f 64 65 93
f 65 66 94
f 66 67 95
f 67 68 96
f 68 69 97
f 69 70 98
f 70 71 99
f 71 72 100
f 72 73 101
f 102 73 74
f 74 75 103
f 75 166 196
f 93 92 64
f 65 94 93
f 66 95 94
f 67 96 95
f 97 96 68
f 69 98 97
f 99 98 70
f 100 99 71
f 72 101 100
f 73 102 101
f 74 103 102
f 196 103 75
f 115 143 116
f 117 116 144
f 145 118 117
f 119 118 146
f 120 119 147
f 121 120 148
f 122 121 149
f 123 122 150
f 124 123 151
f 125 124 152
f 126 125 153
f 126 154 172
f 143 144 116
f 117 144 145
f 118 145 146
f 119 146 147
f 147 148 120
f 148 149 121
f 122 149 150
f 150 151 123
f 124 151 152
f 125 152 153
f 126 153 154
f 154 202 172
f 171 165 195
f 166 167 197
f 167 168 198
f 168 169 199
f 169 170 200
f 201 170 171
f 173 172 202
f 174 173 203
f 175 174 204
f 176 175 205
f 206 177 176
f 165 177 207
f 207 195 165
f 166 197 196
f 198 197 167
f 199 198 168
f 169 200 199
f 170 201 200
f 171 195 201
f 173 202 203
f 174 203 204
f 175 204 205
f 176 205 206
f 177 206 207

