# https://github.com/mikedh/trimesh
v 0.00000000 -0.00600000 0.00200000
v 0.00000000 -0.00598079 0.00219509
v 0.00000000 -0.00592388 0.00238268
v 0.00000000 -0.00583147 0.00255557
v 0.00000000 -0.00570711 0.00270711
v 0.00000000 -0.00555557 0.00283147
v 0.00000000 -0.00538268 0.00292388
v 0.00000000 -0.00519509 0.00298079
v 0.00000000 -0.00500000 0.00300000
v 0.00000000 -0.00120000 0.00200000
v 0.00120000 0.00000000 0.00200000
v 0.00000000 -0.00120000 0.00300000
v 0.00120000 0.00000000 0.00300000
v 0.00600000 -0.00600000 0.00200000
v 0.00600000 -0.00598079 0.00219509
v 0.00600000 -0.00592388 0.00238268
v 0.00600000 -0.00583147 0.00255557
v 0.00600000 -0.00579776 0.00259664
v 0.00600000 -0.00570711 0.00270711
v 0.00600000 -0.00555557 0.00283147
v 0.00600000 -0.00538268 0.00292388
v 0.00600000 -0.00519509 0.00298079
v 0.00600000 -0.00500000 0.00300000
v 0.00600000 0.00000000 0.00200000
v 0.00600000 0.00000000 0.00300000
f 3 1 2
f 5 1 3
f 1 9 10
f 1 14 2
f 16 3 2
f 16 4 3
f 11 14 1
f 5 3 4
f 9 1 5
f 7 5 6
f 9 5 7
f 9 7 8
f 18 5 4
f 5 20 6
f 20 7 6
f 8 7 21
f 22 9 8
f 11 1 10
f 11 10 12
f 12 10 9
f 11 12 13
f 9 25 12
f 25 11 13
f 12 25 13
f 2 14 15
f 16 2 15
f 4 16 17
f 14 16 15
f 14 18 16
f 18 4 17
f 5 18 19
f 20 5 19
f 7 20 21
f 22 8 21
f 9 22 23
f 25 9 23
f 16 18 17
f 14 22 18
f 18 20 19
f 20 18 22
f 22 21 20
f 14 25 22
f 22 25 23
f 14 11 24
f 11 25 24
f 25 14 24

