# https://github.com/mikedh/trimesh
v -0.02000000 0.03760000 0.04840000
v -0.02000000 0.03877004 0.04840000
v -0.02000000 0.03760000 0.05200000
v -0.02000000 0.03898882 0.04866658
v -0.02000000 0.03954328 0.04970390
v -0.02000000 0.03988471 0.05082946
v -0.02000000 0.04000000 0.05200000
v -0.01200000 0.03760000 0.04840000
v -0.01200000 0.03877004 0.04840000
v -0.01200000 0.03760000 0.05200000
v -0.01200000 0.03898882 0.04866658
v -0.01200000 0.03954328 0.04970390
v -0.01200000 0.03988471 0.05082946
v -0.01200000 0.04000000 0.05200000
f 3 4 1
f 2 1 4
f 8 1 2
f 8 3 1
f 4 6 5
f 4 11 2
f 11 4 5
f 3 7 4
f 7 6 4
f 14 7 3
f 6 13 5
f 7 14 6
f 8 2 9
f 11 8 9
f 3 8 10
f 14 3 10
f 8 14 10
f 2 11 9
f 11 5 12
f 5 13 12
f 14 8 11
f 13 11 12
f 6 14 13
f 14 11 13

