# https://github.com/mikedh/trimesh
v -0.03724264 -0.03400000 0.04775736
v -0.03762462 -0.03527167 0.04840000
v -0.03764025 -0.03517265 0.04840000
v -0.03761403 -0.03530038 0.04840000
v -0.03761070 -0.03527209 0.04837740
v -0.03777004 -0.03400000 0.04840000
v -0.03697906 -0.03661886 0.04840000
v -0.03660000 -0.03661886 0.04802094
v -0.03681427 -0.03684158 0.04840000
v -0.03681427 -0.03662731 0.04818573
v -0.03660000 -0.03684158 0.04818573
v -0.03660000 -0.03705584 0.04840000
v -0.03660000 -0.03527167 0.04737538
v -0.03660000 -0.03517265 0.04735975
v -0.03662260 -0.03527209 0.04738930
v -0.03660000 -0.03530038 0.04738597
v -0.03660000 -0.03400000 0.04722996
v -0.03660000 -0.03400000 0.04840000
f 4 5 7
f 6 17 1
f 4 3 2
f 3 5 2
f 4 6 3
f 6 5 3
f 5 4 2
f 6 1 5
f 12 6 4
f 15 16 8
f 12 4 7
f 5 15 10
f 5 10 7
f 16 12 8
f 7 10 9
f 12 7 9
f 10 8 11
f 8 12 11
f 10 12 9
f 12 10 11
f 8 10 15
f 15 1 14
f 14 16 13
f 15 14 13
f 16 15 13
f 17 16 14
f 17 12 16
f 1 17 14
f 15 5 1
f 6 12 18
f 17 6 18
f 12 17 18

