# https://github.com/mikedh/trimesh
v 0.02342265 -0.02507735 0.06142265
v 0.02313397 -0.02500000 0.06200000
v 0.02350000 -0.02536603 0.06200000
v 0.02342265 -0.02507735 0.06957735
v 0.02313397 -0.02500000 0.06900000
v 0.02350000 -0.02536603 0.06900000
v 0.02300000 -0.02450000 0.06200000
v 0.02313397 -0.02450000 0.06150000
v 0.02313397 -0.02400000 0.06200000
v 0.02342265 -0.02392265 0.06142265
v 0.02350000 -0.02450000 0.06113397
v 0.02350000 -0.02363397 0.06200000
v 0.02300000 -0.02450000 0.06900000
v 0.02313397 -0.02450000 0.06950000
v 0.02313397 -0.02400000 0.06900000
v 0.02342265 -0.02392265 0.06957735
v 0.02350000 -0.02450000 0.06986603
v 0.02350000 -0.02363397 0.06900000
v 0.02400000 -0.02550000 0.06200000
v 0.02400000 -0.02536603 0.06150000
v 0.02400000 -0.02500000 0.06113397
v 0.02450000 -0.02536603 0.06200000
v 0.02457735 -0.02507735 0.06142265
v 0.02486603 -0.02500000 0.06200000
v 0.02400000 -0.02550000 0.06900000
v 0.02400000 -0.02536603 0.06950000
v 0.02400000 -0.02500000 0.06986603
v 0.02450000 -0.02536603 0.06900000
v 0.02457735 -0.02507735 0.06957735
v 0.02486603 -0.02500000 0.06900000
v 0.02400000 -0.02450000 0.06100000
v 0.02400000 -0.02400000 0.06113397
v 0.02400000 -0.02363397 0.06150000
v 0.02400000 -0.02350000 0.06200000
v 0.02450000 -0.02450000 0.06113397
v 0.02486603 -0.02450000 0.06150000
v 0.02500000 -0.02450000 0.06200000
v 0.02457735 -0.02392265 0.06142265
v 0.02450000 -0.02363397 0.06200000
v 0.02486603 -0.02400000 0.06200000
v 0.02400000 -0.02450000 0.07000000
v 0.02400000 -0.02400000 0.06986603
v 0.02400000 -0.02363397 0.06950000
v 0.02400000 -0.02350000 0.06900000
v 0.02450000 -0.02450000 0.06986603
v 0.02486603 -0.02450000 0.06950000
v 0.02500000 -0.02450000 0.06900000
v 0.02457735 -0.02392265 0.06957735
v 0.02450000 -0.02363397 0.06900000
v 0.02486603 -0.02400000 0.06900000
f 2 1 3
f 6 2 3
f 1 2 8
f 2 7 8
f 1 8 11
f 13 7 2
f 1 20 3
f 20 19 3
f 20 1 21
f 19 6 3
f 21 1 11
f 31 21 11
f 2 6 5
f 4 5 6
f 13 2 5
f 4 14 5
f 14 13 5
f 17 14 4
f 25 6 19
f 26 4 6
f 25 26 6
f 4 26 27
f 17 4 27
f 41 17 27
f 7 9 8
f 9 10 8
f 11 8 10
f 9 7 13
f 12 10 9
f 18 12 9
f 32 11 10
f 11 32 31
f 12 33 10
f 33 32 10
f 33 12 34
f 12 44 34
f 13 15 9
f 14 15 13
f 14 16 15
f 16 14 17
f 18 9 15
f 16 18 15
f 42 16 17
f 41 42 17
f 44 12 18
f 18 16 43
f 16 42 43
f 18 43 44
f 19 20 22
f 20 21 23
f 20 23 22
f 25 19 22
f 21 31 35
f 21 35 23
f 23 24 22
f 22 24 28
f 36 23 35
f 24 23 36
f 37 24 36
f 24 37 30
f 25 22 28
f 26 25 28
f 29 27 26
f 26 28 29
f 27 45 41
f 45 27 29
f 24 30 28
f 30 29 28
f 30 37 47
f 46 45 29
f 30 46 29
f 30 47 46
f 35 31 32
f 35 32 38
f 33 38 32
f 39 33 34
f 33 39 38
f 44 39 34
f 38 36 35
f 37 36 40
f 36 38 40
f 50 37 40
f 40 38 39
f 39 50 40
f 41 45 42
f 48 42 45
f 44 49 39
f 42 48 43
f 44 43 49
f 43 48 49
f 37 50 47
f 46 48 45
f 46 47 50
f 48 46 50
f 49 50 39
f 48 50 49

