# https://github.com/mikedh/trimesh
v 0.02400000 -0.03400000 0.12360000
v 0.02400000 -0.03400000 0.12600000
v 0.02400000 -0.03000000 0.12360000
v 0.02400000 -0.03000000 0.12600000
v 0.02850000 -0.03400000 0.12360000
v 0.02900000 -0.03350559 0.12366671
v 0.02900000 -0.03346993 0.12360000
v 0.02900000 -0.03400000 0.12422089
v 0.02900000 -0.03400000 0.12600000
v 0.02900000 -0.03000000 0.12360000
v 0.02900000 -0.03000000 0.12600000
f 2 3 1
f 2 1 9
f 1 3 10
f 3 2 4
f 2 11 4
f 11 3 4
f 9 1 5
f 1 10 5
f 5 7 8
f 6 8 7
f 9 5 8
f 6 9 8
f 5 10 7
f 10 6 7
f 2 9 11
f 6 11 9
f 3 11 10
f 6 10 11

