# https://github.com/mikedh/trimesh
v -0.00990866 -0.00525922 0.00300000
v -0.00979776 -0.00546668 0.00300000
v -0.00964853 -0.00564853 0.00300000
v -0.00997694 -0.00503411 0.00300000
v -0.01000000 -0.00480000 0.00300000
v -0.00946668 -0.00579776 0.00300000
v -0.00925922 -0.00590866 0.00300000
v -0.00903411 -0.00597694 0.00300000
v -0.00880000 -0.00600000 0.00300000
v -0.00990866 -0.00525922 0.00600000
v -0.00979776 -0.00546668 0.00600000
v -0.00964853 -0.00564853 0.00600000
v -0.00997694 -0.00503411 0.00600000
v -0.01000000 -0.00480000 0.00600000
v -0.00946668 -0.00579776 0.00600000
v -0.00925922 -0.00590866 0.00600000
v -0.00903411 -0.00597694 0.00600000
v -0.00880000 -0.00600000 0.00600000
v -0.01000000 0.00000000 0.00300000
v -0.01000000 0.00000000 0.00600000
v -0.00720000 -0.00600000 0.00300000
v -0.00696589 -0.00597694 0.00300000
v -0.00674078 -0.00590866 0.00300000
v -0.00653332 -0.00579776 0.00300000
v -0.00635147 -0.00564853 0.00300000
v -0.00627518 -0.00555557 0.00300000
v -0.00620224 -0.00546668 0.00300000
v -0.00609134 -0.00525922 0.00300000
v -0.00602306 -0.00503411 0.00300000
v -0.00600000 -0.00480000 0.00300000
v -0.00720000 -0.00600000 0.00600000
v -0.00696589 -0.00597694 0.00600000
v -0.00674078 -0.00590866 0.00600000
v -0.00653332 -0.00579776 0.00600000
v -0.00635147 -0.00564853 0.00600000
v -0.00620224 -0.00546668 0.00600000
v -0.00609134 -0.00525922 0.00600000
v -0.00602306 -0.00503411 0.00600000
v -0.00600000 -0.00480000 0.00600000
v -0.00600000 0.00000000 0.00300000
v -0.00600000 0.00000000 0.00600000
f 1 3 2
f 5 1 4
f 5 3 1
f 3 7 6
f 3 8 7
f 1 2 10
f 15 3 6
f 3 12 2
f 1 10 4
f 5 4 14
f 7 15 6
f 8 16 7
f 19 3 5
f 3 22 8
f 8 21 9
f 18 8 9
f 21 18 9
f 19 30 3
f 10 2 11
f 12 3 15
f 2 12 11
f 4 10 13
f 14 4 13
f 16 15 7
f 8 17 16
f 12 10 11
f 10 14 13
f 12 14 10
f 16 12 15
f 17 12 16
f 20 5 14
f 12 20 14
f 17 8 18
f 31 12 17
f 31 17 18
f 20 19 5
f 12 41 20
f 41 19 20
f 8 22 21
f 3 30 22
f 21 22 32
f 26 23 22
f 23 26 24
f 24 26 25
f 26 22 30
f 26 28 27
f 28 26 30
f 28 30 29
f 22 23 32
f 33 23 24
f 24 25 34
f 26 35 25
f 36 26 27
f 28 37 27
f 38 28 29
f 30 38 29
f 31 18 21
f 31 21 32
f 36 12 31
f 12 36 41
f 33 32 23
f 33 24 34
f 35 34 25
f 26 36 35
f 37 36 27
f 38 37 28
f 30 39 38
f 32 33 31
f 36 31 33
f 35 33 34
f 36 33 35
f 39 36 37
f 39 37 38
f 30 41 39
f 41 36 39
f 30 19 40
f 19 41 40
f 41 30 40

