# https://github.com/mikedh/trimesh
v 0.00609134 -0.00525922 0.00600000
v 0.00620224 -0.00546668 0.00600000
v 0.00635147 -0.00564853 0.00600000
v 0.00602306 -0.00503411 0.00600000
v 0.00600000 -0.00480000 0.00600000
v 0.00653332 -0.00579776 0.00600000
v 0.00674078 -0.00590866 0.00600000
v 0.00696589 -0.00597694 0.00600000
v 0.00720000 -0.00600000 0.00600000
v 0.00609134 -0.00525922 0.02600000
v 0.00620224 -0.00546668 0.02600000
v 0.00635147 -0.00564853 0.02600000
v 0.00602306 -0.00503411 0.02600000
v 0.00600000 -0.00480000 0.02600000
v 0.00653332 -0.00579776 0.02600000
v 0.00674078 -0.00590866 0.02600000
v 0.00696589 -0.00597694 0.02600000
v 0.00720000 -0.00600000 0.02600000
v 0.00600000 0.00000000 0.00600000
v 0.00600000 0.00000000 0.02600000
v 0.00880000 -0.00600000 0.00600000
v 0.00903411 -0.00597694 0.00600000
v 0.00921046 -0.00592345 0.00600000
v 0.00925922 -0.00590866 0.00600000
v 0.00946668 -0.00579776 0.00600000
v 0.00964853 -0.00564853 0.00600000
v 0.00979776 -0.00546668 0.00600000
v 0.00981843 -0.00542802 0.00600000
v 0.00990866 -0.00525922 0.00600000
v 0.00997694 -0.00503411 0.00600000
v 0.01000000 -0.00480000 0.00600000
v 0.00880000 -0.00600000 0.02600000
v 0.00903411 -0.00597694 0.02600000
v 0.00925922 -0.00590866 0.02600000
v 0.00946668 -0.00579776 0.02600000
v 0.00958523 -0.00570048 0.02600000
v 0.00964853 -0.00564853 0.02600000
v 0.00979776 -0.00546668 0.02600000
v 0.00990866 -0.00525922 0.02600000
v 0.00992088 -0.00521892 0.02600000
v 0.00997694 -0.00503411 0.02600000
v 0.01000000 -0.00480000 0.02600000
v 0.01000000 0.00000000 0.00600000
v 0.01000000 0.00000000 0.02600000
f 2 6 3
f 5 2 1
f 5 1 4
f 2 8 6
f 6 8 7
f 2 10 1
f 12 3 6
f 2 3 11
f 4 1 10
f 14 5 4
f 6 7 15
f 8 17 7
f 19 2 5
f 8 2 25
f 8 21 9
f 17 8 9
f 19 25 2
f 10 2 11
f 12 6 15
f 3 12 11
f 4 10 13
f 14 4 13
f 15 7 16
f 7 17 16
f 12 10 11
f 17 10 12
f 10 14 13
f 17 12 15
f 17 15 16
f 20 5 14
f 10 20 14
f 17 9 18
f 9 32 18
f 17 32 10
f 32 17 18
f 20 19 5
f 10 44 20
f 44 19 20
f 8 25 21
f 9 21 32
f 33 21 22
f 21 23 22
f 21 25 23
f 23 25 24
f 25 28 26
f 26 28 27
f 25 31 28
f 28 30 29
f 28 31 30
f 23 33 22
f 34 23 24
f 25 34 24
f 25 26 36
f 38 26 27
f 28 38 27
f 28 29 39
f 29 30 40
f 31 42 30
f 25 43 31
f 32 21 33
f 38 10 32
f 44 10 38
f 23 34 33
f 34 25 35
f 25 36 35
f 36 26 37
f 26 38 37
f 38 28 39
f 29 40 39
f 40 30 41
f 30 42 41
f 34 32 33
f 38 32 34
f 36 34 35
f 38 34 36
f 38 36 37
f 40 38 39
f 42 38 40
f 42 40 41
f 31 44 42
f 44 38 42
f 25 19 43
f 19 44 43
f 31 43 44

