# https://github.com/mikedh/trimesh
v -0.01000000 -0.00583147 0.04044443
v -0.01000000 -0.00570711 0.04029289
v -0.01000000 -0.00555557 0.04016853
v -0.01000000 -0.00538268 0.04007612
v -0.00990866 -0.00525922 0.04000000
v -0.00979776 -0.00546668 0.04000000
v -0.00964853 -0.00564853 0.04000000
v -0.01000000 -0.00592388 0.04061732
v -0.01000000 -0.00598079 0.04080491
v -0.01000000 -0.00519509 0.04001921
v -0.01000000 -0.00500000 0.04000000
v -0.00946668 -0.00579776 0.04000000
v -0.00925922 -0.00590866 0.04000000
v -0.00903411 -0.00597694 0.04000000
v -0.01000000 -0.00600000 0.04100000
v -0.00880000 -0.00600000 0.04000000
v -0.01000000 -0.00600000 0.04360000
v -0.01000000 0.00000000 0.04000000
v -0.01000000 0.00000000 0.04360000
v -0.00720000 -0.00600000 0.04000000
v -0.00696589 -0.00597694 0.04000000
v -0.00674078 -0.00590866 0.04000000
v -0.00653332 -0.00579776 0.04000000
v -0.00635147 -0.00564853 0.04000000
v -0.00600000 -0.00583147 0.04044443
v -0.00600000 -0.00570711 0.04029289
v -0.00620224 -0.00546668 0.04000000
v -0.00600000 -0.00555557 0.04016853
v -0.00609134 -0.00525922 0.04000000
v -0.00600000 -0.00538268 0.04007612
v -0.00600000 -0.00592388 0.04061732
v -0.00600000 -0.00597721 0.04079312
v -0.00600000 -0.00598079 0.04080491
v -0.00600000 -0.00519509 0.04001921
v -0.00600000 -0.00503411 0.04000336
v -0.00600000 -0.00500000 0.04000000
v -0.00600000 -0.00600000 0.04100000
v -0.00600000 -0.00600000 0.04360000
v -0.00600000 0.00000000 0.04000000
v -0.00600000 0.00000000 0.04360000
f 3 7 2
f 1 3 2
f 13 8 1
f 1 2 12
f 7 3 4
f 3 10 4
f 3 11 10
f 6 4 10
f 10 5 6
f 7 4 6
f 5 7 6
f 11 7 5
f 2 7 12
f 13 1 12
f 9 1 8
f 9 3 1
f 14 9 8
f 9 16 15
f 10 11 5
f 13 14 8
f 7 13 12
f 16 9 14
f 7 11 16
f 7 16 13
f 13 16 14
f 17 3 9
f 16 17 15
f 3 18 11
f 18 16 11
f 18 3 17
f 37 17 16
f 17 9 15
f 18 39 16
f 18 17 19
f 17 40 19
f 40 18 19
f 16 21 20
f 16 29 21
f 37 16 20
f 21 24 22
f 31 21 22
f 22 24 23
f 21 33 20
f 25 22 23
f 21 29 24
f 24 26 23
f 24 28 26
f 25 31 22
f 26 25 23
f 26 28 25
f 24 29 27
f 30 24 27
f 28 24 30
f 28 36 25
f 30 27 34
f 34 27 29
f 36 28 30
f 20 33 37
f 32 21 31
f 21 32 33
f 25 32 31
f 25 37 32
f 32 37 33
f 35 30 34
f 29 36 34
f 36 30 35
f 36 35 34
f 25 38 37
f 16 39 29
f 39 25 36
f 29 39 36
f 37 38 17
f 40 17 38
f 25 40 38
f 18 40 39
f 40 25 39

