# https://github.com/mikedh/trimesh
v 0.03500000 0.03400000 0.11855531
v 0.03500000 0.03377772 0.11867412
v 0.03500000 0.03267412 0.11977772
v 0.03500000 0.03255531 0.12000000
v 0.03500000 0.03317157 0.11917157
v 0.03500000 0.03400000 0.12000000
v 0.03860000 0.03000000 0.11800000
v 0.03860000 0.03000000 0.12000000
v 0.03860000 0.03400000 0.11800000
v 0.03860000 0.03400000 0.12000000
f 5 7 3
f 7 4 3
f 5 1 2
f 1 7 2
f 7 5 2
f 4 5 3
f 4 1 5
f 1 4 6
f 10 1 6
f 4 10 6
f 4 7 8
f 7 10 8
f 7 1 9
f 1 10 9
f 10 7 9
f 10 4 8

