# https://github.com/mikedh/trimesh
v 0.00600000 0.00000000 0.02600000
v 0.00600000 0.00000000 0.04000000
v 0.00600000 0.00480000 0.02600000
v 0.00602306 0.00503411 0.02600000
v 0.00609134 0.00525922 0.02600000
v 0.00620224 0.00546668 0.02600000
v 0.00635147 0.00564853 0.02600000
v 0.00653332 0.00579776 0.02600000
v 0.00674078 0.00590866 0.02600000
v 0.00696589 0.00597694 0.02600000
v 0.00720000 0.00600000 0.02600000
v 0.00600000 0.00480000 0.04000000
v 0.00602306 0.00503411 0.04000000
v 0.00609134 0.00525922 0.04000000
v 0.00620224 0.00546668 0.04000000
v 0.00635147 0.00564853 0.04000000
v 0.00653332 0.00579776 0.04000000
v 0.00674078 0.00590866 0.04000000
v 0.00696589 0.00597694 0.04000000
v 0.00720000 0.00600000 0.04000000
v 0.01000000 0.00000000 0.02600000
v 0.01000000 0.00000000 0.04000000
v 0.00880000 0.00600000 0.02600000
v 0.00903411 0.00597694 0.02600000
v 0.00923865 0.00591489 0.02600000
v 0.00925922 0.00590866 0.02600000
v 0.00946668 0.00579776 0.02600000
v 0.01000000 0.00480000 0.02600000
v 0.00997694 0.00503411 0.02600000
v 0.00964853 0.00564853 0.02600000
v 0.00979776 0.00546668 0.02600000
v 0.00990866 0.00525922 0.02600000
v 0.00880000 0.00600000 0.04000000
v 0.00903411 0.00597694 0.04000000
v 0.00925839 0.00590891 0.04000000
v 0.00925922 0.00590866 0.04000000
v 0.00946668 0.00579776 0.04000000
v 0.01000000 0.00480000 0.04000000
v 0.00997694 0.00503411 0.04000000
v 0.00964853 0.00564853 0.04000000
v 0.00979776 0.00546668 0.04000000
v 0.00990866 0.00525922 0.04000000
f 21 2 1
f 11 21 1
f 1 2 12
f 4 1 3
f 11 1 4
f 1 12 3
f 7 4 5
f 7 5 6
f 11 4 7
f 7 8 9
f 11 7 9
f 11 9 10
f 12 4 3
f 5 4 13
f 5 15 6
f 15 7 6
f 7 17 8
f 18 9 8
f 9 19 10
f 19 11 10
f 2 15 12
f 4 12 13
f 5 13 14
f 15 5 14
f 7 15 16
f 17 7 16
f 17 18 8
f 19 9 18
f 12 15 13
f 13 15 14
f 15 17 16
f 15 19 17
f 17 19 18
f 2 42 15
f 11 19 20
f 33 11 20
f 15 33 19
f 19 33 20
f 2 21 22
f 42 2 22
f 38 22 21
f 32 11 23
f 11 33 23
f 23 34 24
f 21 11 32
f 21 32 28
f 38 21 28
f 25 23 24
f 27 23 25
f 27 25 26
f 32 23 27
f 28 32 29
f 32 27 31
f 31 27 30
f 34 25 24
f 25 36 26
f 36 27 26
f 39 28 29
f 32 39 29
f 40 31 30
f 27 40 30
f 41 32 31
f 23 33 34
f 15 42 33
f 42 22 38
f 25 34 35
f 36 25 35
f 37 27 36
f 38 28 39
f 32 42 39
f 41 31 40
f 27 37 40
f 42 32 41
f 33 35 34
f 33 37 35
f 35 37 36
f 33 42 37
f 42 38 39
f 37 42 41
f 37 41 40

