# https://github.com/mikedh/trimesh
v 0.03860000 -0.03000000 0.05400000
v 0.03860000 -0.03000000 0.05800000
v 0.03860000 -0.02892820 0.05800000
v 0.03860000 -0.02700000 0.05400000
v 0.03860000 -0.02700000 0.05576710
v 0.04100000 -0.03000000 0.05400000
v 0.04100000 -0.03000000 0.05800000
v 0.04100000 -0.02892820 0.05800000
v 0.04100000 -0.02700000 0.05400000
v 0.04100000 -0.02700000 0.05576710
f 2 4 1
f 6 2 1
f 4 6 1
f 5 2 3
f 2 7 3
f 4 2 5
f 4 5 10
f 10 5 3
f 6 10 7
f 2 6 7
f 3 7 8
f 7 10 8
f 6 4 9
f 4 10 9
f 10 6 9
f 10 3 8

