# https://github.com/mikedh/trimesh
v 0.02400000 -0.04000000 0.11800000
v 0.02400000 -0.04000000 0.12000000
v 0.02400000 -0.03760000 0.11800000
v 0.02400000 -0.03760000 0.12000000
v 0.02900000 -0.04000000 0.11800000
v 0.02900000 -0.04000000 0.12000000
v 0.02900000 -0.03760000 0.11800000
v 0.02900000 -0.03822089 0.12000000
v 0.02900000 -0.03760000 0.11946993
v 0.02850000 -0.03760000 0.12000000
f 2 3 1
f 5 2 1
f 3 5 1
f 3 2 4
f 2 10 4
f 10 3 4
f 5 7 6
f 2 5 6
f 2 6 10
f 5 3 7
f 3 10 7
f 6 7 8
f 10 6 8
f 8 7 9
f 7 10 9
f 10 8 9

