# https://github.com/mikedh/trimesh
v 0.03860000 -0.02700000 0.04840000
v 0.03860000 -0.02700000 0.05200000
v 0.03860000 -0.02200000 0.05200000
v 0.03860000 -0.00600000 0.04840000
v 0.03860000 -0.00600000 0.04900000
v 0.04100000 -0.02700000 0.04840000
v 0.04100000 -0.02700000 0.05200000
v 0.04100000 -0.02200000 0.05200000
v 0.04100000 -0.00600000 0.04840000
v 0.04100000 -0.00600000 0.04900000
f 2 4 1
f 6 2 1
f 4 6 1
f 4 2 3
f 2 8 3
f 5 3 8
f 4 3 5
f 9 4 5
f 8 6 9
f 2 6 7
f 8 2 7
f 6 8 7
f 6 4 9
f 5 8 10
f 9 5 10
f 8 9 10

