# https://github.com/mikedh/trimesh
v -0.03854328 -0.03629610 0.05200000
v -0.03798882 -0.03733342 0.05200000
v -0.03833068 -0.03645345 0.05074924
v -0.03854328 -0.03400000 0.04970390
v -0.03833068 -0.03525076 0.04954655
v -0.03798882 -0.03400000 0.04866658
v -0.03874912 -0.03521401 0.05078599
v -0.03888471 -0.03517054 0.05200000
v -0.03888471 -0.03400000 0.05082946
v -0.03900000 -0.03400000 0.05200000
v -0.03776463 -0.03657860 0.04942140
v -0.03681427 -0.03760000 0.04915842
v -0.03660000 -0.03760000 0.04894416
v -0.03681427 -0.03684158 0.04840000
v -0.03660000 -0.03705584 0.04840000
v -0.03697906 -0.03760000 0.04938114
v -0.03697906 -0.03661886 0.04840000
v -0.03761403 -0.03760000 0.05069962
v -0.03762462 -0.03760000 0.05072833
v -0.03764025 -0.03760000 0.05082735
v -0.03777004 -0.03760000 0.05200000
v -0.03660000 -0.03760000 0.05200000
v -0.03761403 -0.03530038 0.04840000
v -0.03762462 -0.03527167 0.04840000
v -0.03764025 -0.03517265 0.04840000
v -0.03777004 -0.03400000 0.04840000
v -0.03660000 -0.03400000 0.04840000
v -0.03660000 -0.03400000 0.05200000
f 3 5 11
f 3 1 7
f 21 10 1
f 3 11 19
f 21 1 2
f 2 3 19
f 1 3 2
f 5 7 4
f 9 6 4
f 11 5 24
f 5 6 24
f 6 5 4
f 10 27 6
f 7 5 3
f 7 1 8
f 1 10 8
f 7 9 4
f 10 6 9
f 7 8 9
f 10 9 8
f 16 11 17
f 11 16 18
f 17 11 23
f 14 16 17
f 13 14 15
f 14 13 12
f 13 16 12
f 16 14 12
f 21 16 13
f 17 24 14
f 27 13 15
f 14 27 15
f 19 11 18
f 16 19 18
f 16 21 19
f 2 19 20
f 19 21 20
f 21 2 20
f 21 13 22
f 13 28 22
f 28 21 22
f 11 24 23
f 24 17 23
f 26 14 24
f 24 6 25
f 26 24 25
f 6 26 25
f 6 27 26
f 27 14 26
f 13 27 28
f 10 21 28
f 27 10 28

