# https://github.com/mikedh/trimesh
v -0.03360000 -0.03145010 0.07015657
v -0.03160000 -0.03145010 0.07015657
v -0.03500000 -0.02982691 0.07072313
v -0.03500000 -0.02963900 0.07056892
v -0.03500000 -0.03009571 0.07112541
v -0.03500000 -0.02998112 0.07091103
v -0.03500000 -0.03016627 0.07135803
v -0.03500000 -0.02942462 0.07045433
v -0.03500000 -0.02919201 0.07038377
v -0.03360000 -0.03145010 0.07304332
v -0.03160000 -0.03145010 0.07304332
v -0.03500000 -0.03019010 0.07159994
v -0.03500000 -0.03016627 0.07184185
v -0.03500000 -0.03009571 0.07207447
v -0.03500000 -0.02998112 0.07228885
v -0.03500000 -0.02982691 0.07247675
v -0.03500000 -0.02963900 0.07263096
v -0.03500000 -0.02942462 0.07274555
v -0.03500000 -0.02919201 0.07281612
v -0.03360000 -0.02895010 0.06871319
v -0.03160000 -0.02895010 0.06871319
v -0.03500000 -0.02895010 0.07035994
v -0.03500000 -0.02870818 0.07038377
v -0.03500000 -0.02847557 0.07045433
v -0.03500000 -0.02826119 0.07056892
v -0.03500000 -0.02807328 0.07072313
v -0.03500000 -0.02791907 0.07091103
v -0.03500000 -0.02780449 0.07112541
v -0.03500000 -0.02773392 0.07135803
v -0.03360000 -0.02645010 0.07015657
v -0.03160000 -0.02645010 0.07015657
v -0.03500000 -0.02895010 0.07283994
v -0.03500000 -0.02870818 0.07281612
v -0.03500000 -0.02847557 0.07274555
v -0.03500000 -0.02771010 0.07159994
v -0.03500000 -0.02773392 0.07184185
v -0.03500000 -0.02791907 0.07228885
v -0.03500000 -0.02780449 0.07207447
v -0.03500000 -0.02826119 0.07263096
v -0.03500000 -0.02807328 0.07247675
v -0.03360000 -0.02895010 0.07448669
v -0.03160000 -0.02895010 0.07448669
v -0.03360000 -0.02645010 0.07304332
v -0.03160000 -0.02645010 0.07304332
v -0.02050000 -0.03054109 0.07000895
v -0.02050000 -0.03020013 0.06972914
v -0.02050000 -0.03102882 0.07073890
v -0.02050000 -0.03115686 0.07116099
v -0.02050000 -0.03082090 0.07034991
v -0.02050000 -0.02981113 0.06952121
v -0.02050000 -0.02938905 0.06939318
v -0.02050000 -0.03120010 0.07159994
v -0.02050000 -0.03115686 0.07203890
v -0.02050000 -0.03102882 0.07246098
v -0.02050000 -0.03082090 0.07284998
v -0.02050000 -0.03054109 0.07319093
v -0.02050000 -0.03020013 0.07347075
v -0.02050000 -0.02981113 0.07367867
v -0.02050000 -0.02938905 0.07380671
v -0.02050000 -0.02895010 0.06934994
v -0.02050000 -0.02851114 0.06939318
v -0.02050000 -0.02808906 0.06952121
v -0.02050000 -0.02770006 0.06972914
v -0.02050000 -0.02735911 0.07000895
v -0.02050000 -0.02707929 0.07034991
v -0.02050000 -0.02687137 0.07073890
v -0.02050000 -0.02674333 0.07116099
v -0.02050000 -0.02895010 0.07384994
v -0.02050000 -0.02851114 0.07380671
v -0.02050000 -0.02808906 0.07367867
v -0.02050000 -0.02707929 0.07284998
v -0.02050000 -0.02670010 0.07159994
v -0.02050000 -0.02674333 0.07203890
v -0.02050000 -0.02687137 0.07246098
v -0.02050000 -0.02770006 0.07347075
v -0.02050000 -0.02735911 0.07319093
f 2 1 21
f 1 3 4
f 3 1 6
f 1 5 6
f 1 12 7
f 5 1 7
f 1 2 10
f 4 20 1
f 20 4 8
f 9 20 8
f 20 9 22
f 1 20 21
f 5 3 6
f 3 5 12
f 12 5 7
f 4 9 8
f 3 24 4
f 4 24 9
f 3 12 24
f 24 12 16
f 2 21 46
f 1 10 12
f 12 10 13
f 10 14 13
f 14 10 15
f 10 16 15
f 16 10 17
f 10 2 11
f 41 10 11
f 14 12 13
f 16 12 14
f 16 14 15
f 18 16 17
f 18 33 16
f 33 18 19
f 10 41 17
f 41 18 17
f 18 41 19
f 19 41 32
f 41 11 42
f 2 52 11
f 11 57 42
f 23 20 22
f 24 20 23
f 20 24 25
f 30 20 25
f 20 30 21
f 9 23 22
f 9 24 23
f 24 26 25
f 24 28 26
f 24 37 28
f 26 28 27
f 28 35 29
f 30 31 21
f 25 26 30
f 30 26 27
f 28 30 27
f 30 28 29
f 35 30 29
f 30 44 31
f 21 31 63
f 24 16 37
f 16 33 37
f 33 19 32
f 39 33 34
f 35 28 37
f 35 37 36
f 36 37 38
f 37 33 39
f 37 39 40
f 41 33 32
f 33 41 34
f 41 39 34
f 41 43 39
f 44 41 42
f 43 36 38
f 43 35 36
f 37 43 38
f 43 37 40
f 39 43 40
f 43 30 35
f 30 43 44
f 41 44 43
f 44 72 31
f 75 44 42
f 45 2 46
f 2 47 48
f 47 2 49
f 2 45 49
f 52 2 48
f 21 50 46
f 21 51 50
f 51 21 60
f 45 52 47
f 47 52 48
f 45 47 49
f 50 45 46
f 50 51 45
f 63 45 51
f 11 52 53
f 54 11 53
f 11 54 55
f 56 11 55
f 11 56 57
f 42 57 58
f 59 42 58
f 68 42 59
f 52 54 53
f 52 56 54
f 45 56 52
f 54 56 55
f 45 76 56
f 59 57 56
f 57 59 58
f 56 68 59
f 21 61 60
f 61 21 62
f 21 63 62
f 31 64 63
f 64 31 65
f 31 66 65
f 66 31 67
f 31 72 67
f 61 51 60
f 63 51 61
f 64 45 63
f 63 61 62
f 76 45 64
f 66 64 65
f 72 64 66
f 72 66 67
f 69 42 68
f 70 42 69
f 75 42 70
f 72 44 73
f 44 76 71
f 74 44 71
f 44 74 73
f 76 44 75
f 56 76 68
f 68 70 69
f 70 68 76
f 70 76 75
f 76 64 72
f 76 74 71
f 74 72 73
f 76 72 74

