# https://github.com/mikedh/trimesh
v 0.03200000 -0.03400000 0.07155531
v 0.03200000 -0.03377772 0.07167412
v 0.03200000 -0.03317157 0.07217157
v 0.03200000 -0.03400000 0.07844469
v 0.03200000 -0.03377772 0.07832588
v 0.03200000 -0.03317157 0.07782843
v 0.03200000 -0.03267412 0.07277772
v 0.03200000 -0.03230448 0.07346927
v 0.03200000 -0.03207686 0.07421964
v 0.03200000 -0.03200000 0.07500000
v 0.03200000 -0.03267412 0.07722228
v 0.03200000 -0.03230448 0.07653073
v 0.03200000 -0.03207686 0.07578036
v 0.03500000 -0.03400000 0.07155531
v 0.03500000 -0.03377772 0.07167412
v 0.03500000 -0.03317157 0.07217157
v 0.03500000 -0.03400000 0.07844469
v 0.03500000 -0.03377772 0.07832588
v 0.03500000 -0.03317157 0.07782843
v 0.03500000 -0.03267412 0.07277772
v 0.03500000 -0.03230448 0.07346927
v 0.03500000 -0.03207686 0.07421964
v 0.03500000 -0.03200000 0.07500000
v 0.03500000 -0.03267412 0.07722228
v 0.03500000 -0.03230448 0.07653073
v 0.03500000 -0.03207686 0.07578036
f 1 3 2
f 1 7 3
f 10 1 4
f 14 1 2
f 3 16 2
f 6 4 5
f 11 4 6
f 1 17 4
f 4 17 5
f 6 5 18
f 1 10 7
f 7 9 8
f 10 9 7
f 7 20 3
f 20 7 8
f 9 22 8
f 10 23 9
f 11 10 4
f 10 11 13
f 13 11 12
f 24 11 6
f 26 10 13
f 25 13 12
f 11 25 12
f 14 2 15
f 2 16 15
f 17 1 14
f 3 20 16
f 16 14 15
f 20 14 16
f 17 14 23
f 5 17 18
f 18 19 6
f 24 6 19
f 17 19 18
f 17 24 19
f 20 8 21
f 8 22 21
f 9 23 22
f 23 14 20
f 22 20 21
f 23 20 22
f 24 25 11
f 23 10 26
f 26 13 25
f 17 23 24
f 24 23 26
f 24 26 25

