# https://github.com/mikedh/trimesh
v -0.01000000 0.00000000 0.04360000
v -0.01000000 0.00000000 0.04600000
v -0.01000000 0.00600000 0.04360000
v -0.01000000 0.00600000 0.04500000
v -0.01000000 0.00598079 0.04519509
v -0.01000000 0.00592388 0.04538268
v -0.01000000 0.00500000 0.04600000
v -0.01000000 0.00519509 0.04598079
v -0.01000000 0.00583147 0.04555557
v -0.01000000 0.00555557 0.04583147
v -0.01000000 0.00538268 0.04592388
v -0.01000000 0.00570711 0.04570711
v -0.00600000 0.00000000 0.04360000
v -0.00600000 0.00000000 0.04600000
v -0.00600000 0.00600000 0.04360000
v -0.00600000 0.00600000 0.04500000
v -0.00600000 0.00598079 0.04519509
v -0.00600000 0.00592388 0.04538268
v -0.00600000 0.00500000 0.04600000
v -0.00600000 0.00519509 0.04598079
v -0.00600000 0.00583147 0.04555557
v -0.00600000 0.00555557 0.04583147
v -0.00600000 0.00538268 0.04592388
v -0.00600000 0.00570711 0.04570711
f 2 3 1
f 13 2 1
f 3 13 1
f 2 14 7
f 3 5 4
f 15 3 4
f 3 2 11
f 7 11 2
f 3 11 5
f 11 7 8
f 5 12 6
f 6 12 9
f 5 11 12
f 12 11 10
f 5 17 4
f 5 6 17
f 7 19 8
f 6 9 18
f 12 24 9
f 23 11 8
f 11 23 10
f 12 10 24
f 2 13 14
f 13 23 14
f 13 3 15
f 15 4 16
f 23 13 15
f 17 15 16
f 7 14 19
f 4 17 16
f 17 6 18
f 8 19 20
f 18 9 21
f 9 24 21
f 24 10 22
f 23 8 20
f 10 23 22
f 14 23 19
f 23 15 17
f 19 23 20
f 24 17 18
f 24 18 21
f 23 17 24
f 23 24 22

