# https://github.com/mikedh/trimesh
v -0.02960000 -0.02800000 0.09300000
v -0.02960000 -0.02800000 0.09698491
v -0.02960000 -0.02786681 0.09694451
v -0.02960000 -0.02740002 0.09669500
v -0.02960000 -0.02662836 0.09300000
v -0.02960000 -0.02640558 0.09341679
v -0.02960000 -0.02625194 0.09392329
v -0.02960000 -0.02620006 0.09445004
v -0.02960000 -0.02625194 0.09497678
v -0.02960000 -0.02665509 0.09595008
v -0.02960000 -0.02699087 0.09635922
v -0.02960000 -0.02640558 0.09548328
v -0.02460000 -0.02800000 0.09300000
v -0.02460000 -0.02800000 0.09698491
v -0.02460000 -0.02786681 0.09694451
v -0.02460000 -0.02740002 0.09669500
v -0.02460000 -0.02662836 0.09300000
v -0.02460000 -0.02640558 0.09341679
v -0.02460000 -0.02625194 0.09392329
v -0.02460000 -0.02620006 0.09445004
v -0.02460000 -0.02625194 0.09497678
v -0.02460000 -0.02665509 0.09595008
v -0.02460000 -0.02699087 0.09635922
v -0.02460000 -0.02640558 0.09548328
f 2 5 1
f 13 2 1
f 5 13 1
f 4 2 3
f 11 2 4
f 12 2 11
f 2 15 3
f 15 4 3
f 16 11 4
f 5 7 6
f 5 8 7
f 5 12 8
f 8 12 9
f 18 5 6
f 7 18 6
f 8 19 7
f 21 8 9
f 5 2 12
f 12 11 10
f 11 22 10
f 22 12 10
f 12 21 9
f 2 13 14
f 2 14 15
f 16 4 15
f 23 11 16
f 14 16 15
f 13 24 14
f 14 23 16
f 23 14 24
f 13 5 17
f 17 5 18
f 19 18 7
f 20 19 8
f 20 8 21
f 24 13 17
f 19 17 18
f 20 17 19
f 24 17 20
f 24 20 21
f 23 22 11
f 24 12 22
f 12 24 21
f 23 24 22

