# https://github.com/mikedh/trimesh
v 0.02900000 0.03760000 0.04840000
v 0.02900000 0.03877004 0.04840000
v 0.02900000 0.03760000 0.05200000
v 0.02900000 0.03898882 0.04866658
v 0.02900000 0.03954328 0.04970390
v 0.02900000 0.03988471 0.05082946
v 0.02900000 0.04000000 0.05200000
v 0.03200000 0.03760000 0.04840000
v 0.03200000 0.03877004 0.04840000
v 0.03200000 0.03760000 0.05200000
v 0.03200000 0.03898882 0.04866658
v 0.03200000 0.03954328 0.04970390
v 0.03200000 0.03988471 0.05082946
v 0.03200000 0.04000000 0.05200000
f 1 4 2
f 9 1 2
f 7 1 3
f 1 10 3
f 10 7 3
f 1 7 4
f 4 6 5
f 4 9 2
f 12 4 5
f 6 12 5
f 4 7 6
f 7 13 6
f 8 1 9
f 8 10 1
f 11 8 9
f 14 10 8
f 11 9 4
f 11 4 12
f 14 8 11
f 11 12 13
f 7 10 14
f 6 13 12
f 7 14 13
f 14 11 13

