# https://github.com/mikedh/trimesh
v -0.03300000 -0.02700000 0.10710352
v -0.03300000 -0.02697545 0.10709608
v -0.03300000 -0.02600000 0.10700000
v -0.03300000 -0.02502455 0.10709608
v -0.03300000 -0.02700000 0.11000000
v -0.03300000 -0.02408658 0.10738060
v -0.03300000 -0.02322215 0.10784265
v -0.03300000 -0.02246447 0.10846446
v -0.03300000 -0.02184265 0.10922215
v -0.03300000 -0.02142688 0.11000000
v -0.03100000 -0.02700000 0.10710352
v -0.03100000 -0.02697545 0.10709608
v -0.03100000 -0.02600000 0.10700000
v -0.03100000 -0.02502455 0.10709608
v -0.03100000 -0.02700000 0.11000000
v -0.03100000 -0.02408658 0.10738060
v -0.03100000 -0.02322215 0.10784265
v -0.03100000 -0.02246447 0.10846446
v -0.03100000 -0.02184265 0.10922215
v -0.03100000 -0.02142688 0.11000000
f 1 3 2
f 5 3 1
f 3 6 4
f 3 7 6
f 11 1 2
f 2 3 13
f 13 3 4
f 11 5 1
f 4 6 16
f 5 10 3
f 10 5 15
f 3 10 7
f 6 7 17
f 7 8 17
f 7 10 8
f 8 10 9
f 8 9 18
f 10 20 9
f 11 2 12
f 2 13 12
f 14 13 4
f 14 4 16
f 13 11 12
f 11 13 14
f 15 11 14
f 5 11 15
f 15 14 20
f 6 17 16
f 18 17 8
f 17 14 16
f 17 20 14
f 10 15 20
f 18 9 19
f 9 20 19
f 20 17 18
f 20 18 19

