# https://github.com/mikedh/trimesh
v 0.00736491 -0.02463509 0.05536491
v 0.00704737 -0.02455000 0.05600000
v 0.00745000 -0.02495263 0.05600000
v 0.00704737 -0.02400000 0.05545000
v 0.00745000 -0.02400000 0.05504737
v 0.00690000 -0.02400000 0.05600000
v 0.00800000 -0.02495263 0.05545000
v 0.00800000 -0.02455000 0.05504737
v 0.00800000 -0.02510000 0.05600000
v 0.00800000 -0.02400000 0.05490000
v 0.00736491 -0.02463509 0.05663509
v 0.00704737 -0.02400000 0.05655000
v 0.00745000 -0.02400000 0.05695263
v 0.00800000 -0.02495263 0.05655000
v 0.00800000 -0.02455000 0.05695263
v 0.00736491 -0.02336491 0.05536491
v 0.00704737 -0.02345000 0.05600000
v 0.00745000 -0.02304737 0.05600000
v 0.00800000 -0.02345000 0.05504737
v 0.00800000 -0.02304737 0.05545000
v 0.00736491 -0.02336491 0.05663509
v 0.00863509 -0.02463509 0.05536491
v 0.00855000 -0.02495263 0.05600000
v 0.00895263 -0.02455000 0.05600000
v 0.00855000 -0.02400000 0.05504737
v 0.00895263 -0.02400000 0.05545000
v 0.00863509 -0.02463509 0.05663509
v 0.00863509 -0.02336491 0.05536491
v 0.01136491 -0.02063509 0.06063509
v 0.01136491 -0.01936491 0.05936491
v 0.01104737 -0.02000000 0.06055000
v 0.01145000 -0.02000000 0.06095263
v 0.01104737 -0.01945000 0.06000000
v 0.01145000 -0.01904737 0.06000000
v 0.01136491 -0.01936491 0.06063509
v 0.01263509 -0.02063509 0.05936491
v 0.01200000 -0.02095263 0.06055000
v 0.01200000 -0.02055000 0.06095263
v 0.01255000 -0.02095263 0.06000000
v 0.01295263 -0.02055000 0.06000000
v 0.01263509 -0.02063509 0.06063509
v 0.01200000 -0.01945000 0.05904737
v 0.01200000 -0.01904737 0.05945000
v 0.01255000 -0.02000000 0.05904737
v 0.01295263 -0.02000000 0.05945000
v 0.01263509 -0.01936491 0.05936491
v 0.01200000 -0.02000000 0.06110000
v 0.01200000 -0.01890000 0.06000000
v 0.01200000 -0.01945000 0.06095263
v 0.01200000 -0.01904737 0.06055000
v 0.01310000 -0.02000000 0.06000000
v 0.01255000 -0.02000000 0.06095263
v 0.01295263 -0.02000000 0.06055000
v 0.01255000 -0.01904737 0.06000000
v 0.01295263 -0.01945000 0.06000000
v 0.01263509 -0.01936491 0.06063509
f 1 2 4
f 3 1 7
f 5 8 1
f 1 3 2
f 2 3 11
f 12 2 11
f 11 3 14
f 5 1 4
f 16 5 4
f 4 17 16
f 16 19 5
f 2 6 4
f 2 12 6
f 17 4 6
f 12 17 6
f 12 21 17
f 1 8 7
f 8 22 7
f 23 7 22
f 8 25 22
f 3 7 9
f 9 14 3
f 9 7 23
f 23 14 9
f 14 23 27
f 8 5 10
f 19 10 5
f 25 8 10
f 19 25 10
f 25 19 28
f 11 13 12
f 11 14 15
f 16 17 18
f 19 16 20
f 24 23 22
f 22 25 26
f 33 17 21
f 12 35 21
f 41 14 27
f 23 41 27
f 19 46 28
f 46 25 28
f 13 11 29
f 11 15 29
f 32 12 13
f 37 15 14
f 30 16 18
f 16 30 20
f 33 18 17
f 43 19 20
f 12 32 31
f 18 33 34
f 35 12 31
f 35 33 21
f 36 24 22
f 36 22 26
f 40 23 24
f 25 45 26
f 15 37 38
f 23 40 39
f 41 37 14
f 41 23 39
f 43 42 19
f 45 25 44
f 46 19 42
f 25 46 44
f 32 13 29
f 15 38 29
f 30 18 34
f 20 30 43
f 40 24 36
f 45 36 26
f 32 35 31
f 33 35 34
f 37 41 38
f 39 40 41
f 46 42 43
f 46 45 44
f 38 32 29
f 32 38 47
f 49 32 47
f 38 52 47
f 52 49 47
f 30 34 43
f 43 34 48
f 48 34 50
f 48 54 43
f 48 50 54
f 32 49 35
f 34 35 50
f 35 49 50
f 50 49 56
f 45 40 36
f 40 45 51
f 40 51 53
f 55 51 45
f 53 51 55
f 41 52 38
f 40 53 41
f 53 52 41
f 56 52 53
f 54 46 43
f 45 46 55
f 46 54 55
f 54 56 55
f 52 56 49
f 56 54 50
f 56 53 55

