# https://github.com/mikedh/trimesh
v 0.03322058 0.01000000 0.06455000
v 0.03348038 0.00948038 0.06448038
v 0.03310000 0.01000000 0.06500000
v 0.03322058 0.00955000 0.06500000
v 0.03322058 0.01000000 0.06545000
v 0.03348038 0.00948038 0.06551962
v 0.03255000 0.01700000 0.06522058
v 0.03248038 0.01751962 0.06548038
v 0.03300000 0.01700000 0.06510000
v 0.03300000 0.01745000 0.06522058
v 0.03345000 0.01700000 0.06522058
v 0.03222058 0.01700000 0.06555000
v 0.03210000 0.01700000 0.06600000
v 0.03222058 0.01745000 0.06600000
v 0.03255000 0.01777942 0.06600000
v 0.03222058 0.01700000 0.06645000
v 0.03248038 0.01751962 0.06651962
v 0.03255000 0.01700000 0.06677942
v 0.03300000 0.01777942 0.06555000
v 0.03300000 0.01790000 0.06600000
v 0.03345000 0.01777942 0.06600000
v 0.03300000 0.01777942 0.06645000
v 0.03300000 0.01700000 0.06690000
v 0.03300000 0.01745000 0.06677942
v 0.03345000 0.01700000 0.06677942
v 0.03355000 0.01000000 0.06422058
v 0.03400000 0.00955000 0.06422058
v 0.03400000 0.01000000 0.06410000
v 0.03400000 0.00922058 0.06455000
v 0.03355000 0.00922058 0.06500000
v 0.03400000 0.00910000 0.06500000
v 0.03400000 0.00922058 0.06545000
v 0.03445000 0.01000000 0.06422058
v 0.03451962 0.00948038 0.06448038
v 0.03477942 0.01000000 0.06455000
v 0.03445000 0.00922058 0.06500000
v 0.03477942 0.00955000 0.06500000
v 0.03490000 0.01000000 0.06500000
v 0.03477942 0.01000000 0.06545000
v 0.03355000 0.01000000 0.06577942
v 0.03400000 0.00955000 0.06577942
v 0.03400000 0.01000000 0.06590000
v 0.03451962 0.00948038 0.06551962
v 0.03445000 0.01000000 0.06577942
v 0.03351962 0.01751962 0.06548038
v 0.03377942 0.01700000 0.06555000
v 0.03377942 0.01745000 0.06600000
v 0.03390000 0.01700000 0.06600000
v 0.03351962 0.01751962 0.06651962
v 0.03377942 0.01700000 0.06645000
f 2 1 26
f 1 2 4
f 4 3 1
f 4 5 3
f 2 30 4
f 5 4 6
f 30 6 4
f 7 26 1
f 7 28 26
f 1 3 13
f 5 6 40
f 5 16 3
f 18 5 40
f 7 1 12
f 12 1 13
f 12 8 7
f 7 8 10
f 9 28 7
f 10 9 7
f 10 8 19
f 9 10 11
f 10 45 11
f 45 10 19
f 16 13 3
f 16 5 18
f 12 14 8
f 14 15 8
f 13 14 12
f 14 13 16
f 17 15 14
f 15 19 8
f 16 17 14
f 18 17 16
f 15 17 22
f 17 18 24
f 23 18 40
f 20 19 15
f 22 20 15
f 21 19 20
f 20 22 21
f 45 19 21
f 18 23 24
f 24 22 17
f 24 23 25
f 49 21 22
f 49 24 25
f 49 22 24
f 27 29 2
f 27 2 26
f 30 2 29
f 28 27 26
f 34 29 27
f 28 33 27
f 6 30 32
f 31 30 29
f 32 30 31
f 29 36 31
f 32 31 36
f 33 28 9
f 33 34 27
f 29 34 36
f 34 33 35
f 34 35 37
f 32 36 43
f 34 37 36
f 37 35 38
f 39 37 38
f 37 43 36
f 43 37 39
f 35 33 46
f 38 35 46
f 41 6 32
f 6 41 40
f 40 41 42
f 41 32 43
f 41 44 42
f 23 40 42
f 44 23 42
f 41 43 44
f 43 39 44
f 38 50 39
f 25 44 39
f 33 9 11
f 11 46 33
f 45 46 11
f 38 46 48
f 50 38 48
f 23 44 25
f 50 25 39
f 45 21 47
f 46 45 47
f 49 47 21
f 48 46 47
f 48 47 50
f 47 49 50
f 49 25 50

