# https://github.com/mikedh/trimesh
v -0.00600000 -0.00600000 0.00200000
v -0.00600000 -0.00598079 0.00219509
v -0.00600000 -0.00592388 0.00238268
v -0.00600000 -0.00583147 0.00255557
v -0.00600000 -0.00570711 0.00270711
v -0.00600000 -0.00555557 0.00283147
v -0.00600000 -0.00538268 0.00292388
v -0.00600000 -0.00519509 0.00298079
v -0.00600000 -0.00500000 0.00300000
v -0.00600000 0.00000000 0.00200000
v -0.00600000 0.00000000 0.00300000
v 0.00000000 -0.00600000 0.00200000
v 0.00000000 -0.00598079 0.00219509
v 0.00000000 -0.00592388 0.00238268
v 0.00000000 -0.00583147 0.00255557
v 0.00000000 -0.00579776 0.00259664
v 0.00000000 -0.00570711 0.00270711
v 0.00000000 -0.00555557 0.00283147
v 0.00000000 -0.00538268 0.00292388
v 0.00000000 -0.00519509 0.00298079
v 0.00000000 -0.00500000 0.00300000
v -0.00120000 0.00000000 0.00200000
v 0.00000000 -0.00120000 0.00200000
v -0.00120000 0.00000000 0.00300000
v 0.00000000 -0.00120000 0.00300000
f 3 1 2
f 5 1 3
f 10 1 9
f 1 12 2
f 14 3 2
f 14 4 3
f 10 12 1
f 5 3 4
f 9 1 5
f 7 5 6
f 9 5 7
f 9 7 8
f 16 5 4
f 5 18 6
f 18 7 6
f 8 7 19
f 20 9 8
f 10 9 11
f 9 24 11
f 24 10 11
f 2 12 13
f 14 2 13
f 4 14 15
f 12 14 13
f 12 16 14
f 16 4 15
f 5 16 17
f 18 5 17
f 7 18 19
f 20 8 19
f 9 20 21
f 24 9 21
f 14 16 15
f 12 20 16
f 16 18 17
f 20 12 21
f 18 16 20
f 20 19 18
f 25 21 12
f 12 10 22
f 10 24 22
f 12 22 23
f 25 12 23
f 22 25 23
f 24 21 25
f 22 24 25

