# https://github.com/mikedh/trimesh
v -0.03360000 -0.03140006 0.09300666
v -0.03160000 -0.03140006 0.09300666
v -0.03500000 -0.02977687 0.09357322
v -0.03500000 -0.02958897 0.09341901
v -0.03500000 -0.03004567 0.09397551
v -0.03500000 -0.02993108 0.09376113
v -0.03500000 -0.03011623 0.09420812
v -0.03500000 -0.02937459 0.09330443
v -0.03500000 -0.02914197 0.09323386
v -0.03360000 -0.03140006 0.09589341
v -0.03160000 -0.03140006 0.09589341
v -0.03500000 -0.03014006 0.09445004
v -0.03500000 -0.03011623 0.09469195
v -0.03500000 -0.03004567 0.09492456
v -0.03500000 -0.02993108 0.09513894
v -0.03500000 -0.02977687 0.09532685
v -0.03500000 -0.02958897 0.09548106
v -0.03500000 -0.02937459 0.09559565
v -0.03500000 -0.02914197 0.09566621
v -0.03360000 -0.02890006 0.09156328
v -0.03160000 -0.02890006 0.09156328
v -0.03500000 -0.02890006 0.09321004
v -0.03500000 -0.02865815 0.09323386
v -0.03500000 -0.02842553 0.09330443
v -0.03500000 -0.02821115 0.09341901
v -0.03500000 -0.02802325 0.09357322
v -0.03500000 -0.02786904 0.09376113
v -0.03500000 -0.02775445 0.09397551
v -0.03500000 -0.02768388 0.09420812
v -0.03360000 -0.02640006 0.09300666
v -0.03160000 -0.02640006 0.09300666
v -0.03500000 -0.02890006 0.09569004
v -0.03500000 -0.02865815 0.09566621
v -0.03500000 -0.02842553 0.09559565
v -0.03500000 -0.02766006 0.09445004
v -0.03500000 -0.02768388 0.09469195
v -0.03500000 -0.02786904 0.09513894
v -0.03500000 -0.02775445 0.09492456
v -0.03500000 -0.02821115 0.09548106
v -0.03500000 -0.02802325 0.09532685
v -0.03360000 -0.02890006 0.09733679
v -0.03160000 -0.02890006 0.09733679
v -0.03360000 -0.02640006 0.09589341
v -0.03160000 -0.02640006 0.09589341
v -0.02050000 -0.03049105 0.09285905
v -0.02050000 -0.03015009 0.09257923
v -0.02050000 -0.03097879 0.09358900
v -0.02050000 -0.03110682 0.09401108
v -0.02050000 -0.03077086 0.09320000
v -0.02050000 -0.02976110 0.09237131
v -0.02050000 -0.02933901 0.09224327
v -0.02050000 -0.03115006 0.09445004
v -0.02050000 -0.03110682 0.09488899
v -0.02050000 -0.03097879 0.09531107
v -0.02050000 -0.03077086 0.09570007
v -0.02050000 -0.03049105 0.09604103
v -0.02050000 -0.03015009 0.09632084
v -0.02050000 -0.02976110 0.09652876
v -0.02050000 -0.02933901 0.09665680
v -0.02050000 -0.02890006 0.09220004
v -0.02050000 -0.02846110 0.09224327
v -0.02050000 -0.02803902 0.09237131
v -0.02050000 -0.02765002 0.09257923
v -0.02050000 -0.02730907 0.09285905
v -0.02050000 -0.02702925 0.09320000
v -0.02050000 -0.02682133 0.09358900
v -0.02050000 -0.02669329 0.09401108
v -0.02050000 -0.02890006 0.09670004
v -0.02050000 -0.02846110 0.09665680
v -0.02050000 -0.02803902 0.09652876
v -0.02050000 -0.02702925 0.09570007
v -0.02050000 -0.02665006 0.09445004
v -0.02050000 -0.02669329 0.09488899
v -0.02050000 -0.02682133 0.09531107
v -0.02050000 -0.02765002 0.09632084
v -0.02050000 -0.02730907 0.09604103
f 2 1 21
f 1 3 4
f 3 1 6
f 1 5 6
f 1 12 7
f 5 1 7
f 1 2 10
f 4 20 1
f 20 4 8
f 9 20 8
f 20 9 22
f 1 20 21
f 5 3 6
f 3 5 12
f 12 5 7
f 4 9 8
f 3 24 4
f 4 24 9
f 3 12 24
f 24 12 16
f 2 21 46
f 1 10 12
f 12 10 13
f 10 14 13
f 14 10 15
f 10 16 15
f 16 10 17
f 10 2 11
f 41 10 11
f 14 12 13
f 16 12 14
f 16 14 15
f 18 16 17
f 18 33 16
f 33 18 19
f 10 41 17
f 41 18 17
f 18 41 19
f 19 41 32
f 41 11 42
f 2 52 11
f 11 57 42
f 23 20 22
f 24 20 23
f 20 24 25
f 30 20 25
f 20 30 21
f 9 23 22
f 9 24 23
f 24 26 25
f 24 28 26
f 24 37 28
f 26 28 27
f 28 35 29
f 30 31 21
f 25 26 30
f 30 26 27
f 28 30 27
f 30 28 29
f 35 30 29
f 30 44 31
f 21 31 63
f 24 16 37
f 16 33 37
f 33 19 32
f 39 33 34
f 35 28 37
f 35 37 36
f 36 37 38
f 37 33 39
f 37 39 40
f 41 33 32
f 33 41 34
f 41 39 34
f 41 43 39
f 44 41 42
f 43 36 38
f 43 35 36
f 37 43 38
f 43 37 40
f 39 43 40
f 43 30 35
f 30 43 44
f 41 44 43
f 44 72 31
f 75 44 42
f 45 2 46
f 2 47 48
f 47 2 49
f 2 45 49
f 52 2 48
f 46 21 50
f 21 51 50
f 51 21 60
f 45 52 47
f 47 52 48
f 45 47 49
f 46 51 45
f 51 46 50
f 63 45 51
f 11 52 53
f 54 11 53
f 11 54 55
f 56 11 55
f 11 56 57
f 42 57 58
f 59 42 58
f 68 42 59
f 52 54 53
f 52 56 54
f 45 56 52
f 54 56 55
f 45 76 56
f 59 57 56
f 57 59 58
f 56 68 59
f 21 61 60
f 61 21 62
f 21 63 62
f 31 64 63
f 64 31 65
f 31 66 65
f 66 31 67
f 31 72 67
f 61 51 60
f 63 51 61
f 64 45 63
f 63 61 62
f 76 45 64
f 66 64 65
f 72 64 66
f 72 66 67
f 69 42 68
f 70 42 69
f 75 42 70
f 72 44 73
f 44 76 71
f 74 44 71
f 44 74 73
f 76 44 75
f 56 76 68
f 68 70 69
f 70 68 76
f 70 76 75
f 76 64 72
f 76 74 71
f 74 72 73
f 76 72 74

