# https://github.com/mikedh/trimesh
v -0.03300000 0.02700000 0.05510352
v -0.03300000 0.02791342 0.05538060
v -0.03300000 0.02700000 0.05800000
v -0.03300000 0.02877785 0.05584265
v -0.03300000 0.02953553 0.05646447
v -0.03300000 0.03000000 0.05703042
v -0.03300000 0.03000000 0.05800000
v -0.03100000 0.02700000 0.05510352
v -0.03100000 0.02791342 0.05538060
v -0.03100000 0.02700000 0.05800000
v -0.03100000 0.02877785 0.05584265
v -0.03100000 0.02953553 0.05646447
v -0.03100000 0.03000000 0.05703042
v -0.03100000 0.03000000 0.05800000
f 1 4 2
f 9 1 2
f 8 3 1
f 4 9 2
f 3 6 1
f 1 6 4
f 4 6 5
f 12 4 5
f 6 3 7
f 3 14 7
f 6 12 5
f 14 6 7
f 8 1 9
f 11 9 4
f 11 8 9
f 12 8 11
f 3 8 10
f 14 3 10
f 8 14 10
f 12 11 4
f 8 12 14
f 12 6 13
f 6 14 13
f 14 12 13

