# https://github.com/mikedh/trimesh
v -0.02960000 0.02837318 0.06895182
v -0.02960000 0.02821436 0.06900000
v -0.02960000 0.02889993 0.06889994
v -0.02960000 0.02942667 0.06895182
v -0.02960000 0.02958549 0.06900000
v -0.02460000 0.02837318 0.06895182
v -0.02460000 0.02821436 0.06900000
v -0.02460000 0.02889993 0.06889994
v -0.02460000 0.02942667 0.06895182
v -0.02460000 0.02958549 0.06900000
f 3 6 1
f 2 3 1
f 6 2 1
f 5 2 7
f 9 3 4
f 2 5 3
f 3 5 4
f 5 9 4
f 6 3 8
f 2 6 7
f 7 6 9
f 3 9 8
f 9 6 8
f 5 7 10
f 9 5 10
f 7 9 10

