# https://github.com/mikedh/trimesh
v -0.01963509 -0.00063509 0.05296491
v -0.01955000 0.00000000 0.05264737
v -0.01963509 0.00063509 0.05296491
v -0.01900000 0.00000000 0.05250000
v -0.01900000 0.00055000 0.05264737
v -0.01995263 0.00000000 0.05305000
v -0.01900000 0.00095263 0.05305000
v -0.01845000 0.00000000 0.05264737
v -0.01836491 0.00063509 0.05296491
v -0.01804737 0.00000000 0.05305000
v -0.01995263 -0.00055000 0.05360000
v -0.02010000 0.00000000 0.05360000
v -0.01995263 0.00055000 0.05360000
v -0.01955000 0.00095263 0.05360000
v -0.01995263 0.00000000 0.05415000
v -0.01900000 0.00110000 0.05360000
v -0.01900000 0.00095263 0.05415000
v -0.01963509 -0.00063509 0.05423509
v -0.01963509 0.00063509 0.05423509
v -0.01955000 0.00000000 0.05455263
v -0.01900000 0.00000000 0.05470000
v -0.01900000 0.00055000 0.05455263
v -0.01845000 0.00095263 0.05360000
v -0.01804737 0.00055000 0.05360000
v -0.01804737 0.00000000 0.05415000
v -0.01836491 0.00063509 0.05423509
v -0.01845000 0.00000000 0.05455263
v -0.01655000 -0.00700000 0.05264737
v -0.01663509 -0.00763509 0.05296491
v -0.01695263 -0.00700000 0.05305000
v -0.01600000 -0.00755000 0.05264737
v -0.01600000 -0.00700000 0.05250000
v -0.01545000 -0.00700000 0.05264737
v -0.01536491 -0.00763509 0.05296491
v -0.01536491 -0.00636491 0.05296491
v -0.01600000 -0.00795263 0.05305000
v -0.01504737 -0.00700000 0.05305000
v -0.01695263 -0.00755000 0.05360000
v -0.01695263 -0.00700000 0.05415000
v -0.01655000 -0.00795263 0.05360000
v -0.01663509 -0.00763509 0.05423509
v -0.01655000 -0.00700000 0.05455263
v -0.01600000 -0.00810000 0.05360000
v -0.01600000 -0.00795263 0.05415000
v -0.01545000 -0.00795263 0.05360000
v -0.01504737 -0.00755000 0.05360000
v -0.01490000 -0.00700000 0.05360000
v -0.01504737 -0.00700000 0.05415000
v -0.01504737 -0.00645000 0.05360000
v -0.01600000 -0.00755000 0.05455263
v -0.01600000 -0.00700000 0.05470000
v -0.01536491 -0.00763509 0.05423509
v -0.01545000 -0.00700000 0.05455263
v -0.01536491 -0.00636491 0.05423509
f 29 2 28
f 29 30 1
f 38 6 30
f 15 38 39
f 41 15 39
f 20 41 42
f 30 6 1
f 6 38 11
f 1 6 2
f 3 2 6
f 5 4 2
f 3 5 2
f 4 5 8
f 7 5 3
f 6 11 12
f 3 6 13
f 6 12 13
f 14 3 13
f 14 7 3
f 14 16 7
f 7 16 23
f 2 29 1
f 2 4 32
f 4 8 33
f 5 9 8
f 9 5 7
f 9 7 23
f 24 10 9
f 9 23 24
f 11 38 15
f 11 15 12
f 15 13 12
f 19 14 13
f 15 19 13
f 17 16 14
f 17 23 16
f 17 14 19
f 20 15 18
f 15 20 19
f 22 17 19
f 22 19 20
f 21 22 20
f 21 27 22
f 15 41 18
f 41 20 18
f 21 20 51
f 21 53 27
f 23 26 24
f 26 23 17
f 26 25 24
f 26 17 22
f 27 26 22
f 28 31 29
f 36 29 31
f 29 38 30
f 36 40 29
f 40 38 29
f 2 32 28
f 33 32 4
f 33 9 35
f 9 37 35
f 32 31 28
f 32 33 31
f 31 33 34
f 34 36 31
f 34 33 37
f 37 33 35
f 34 45 36
f 36 43 40
f 36 45 43
f 46 34 37
f 34 46 45
f 37 47 46
f 47 37 49
f 37 10 49
f 41 38 40
f 38 41 39
f 40 44 41
f 44 50 41
f 41 50 42
f 20 42 51
f 51 53 21
f 48 26 54
f 26 53 54
f 40 43 44
f 45 44 43
f 44 45 52
f 52 45 46
f 48 46 47
f 48 52 46
f 49 48 47
f 50 44 52
f 42 50 51
f 53 50 52
f 51 50 53
f 53 52 48
f 53 48 54
f 25 48 49
f 9 33 8
f 9 10 37
f 49 10 24
f 24 25 49
f 26 48 25
f 53 26 27

