# https://github.com/mikedh/trimesh
v -0.02960000 0.02739989 0.09225511
v -0.02960000 0.02786668 0.09200560
v -0.02960000 0.02837318 0.09185195
v -0.02960000 0.02699074 0.09259089
v -0.02960000 0.02665499 0.09300000
v -0.02960000 0.02889993 0.09180007
v -0.02960000 0.02942667 0.09185195
v -0.02960000 0.02993317 0.09200560
v -0.02960000 0.03039997 0.09225511
v -0.02960000 0.03080912 0.09259089
v -0.02960000 0.03114487 0.09300000
v -0.02460000 0.02739989 0.09225511
v -0.02460000 0.02786668 0.09200560
v -0.02460000 0.02837318 0.09185195
v -0.02460000 0.02699074 0.09259089
v -0.02460000 0.02665499 0.09300000
v -0.02460000 0.02889993 0.09180007
v -0.02460000 0.02942667 0.09185195
v -0.02460000 0.02993317 0.09200560
v -0.02460000 0.03039997 0.09225511
v -0.02460000 0.03080912 0.09259089
v -0.02460000 0.03114487 0.09300000
f 2 6 3
f 5 6 2
f 12 1 2
f 2 3 14
f 3 6 14
f 5 1 4
f 5 2 1
f 1 15 4
f 15 5 4
f 11 5 16
f 6 8 7
f 6 11 8
f 6 7 18
f 8 19 7
f 20 8 9
f 5 11 6
f 8 11 9
f 9 11 10
f 21 9 10
f 11 21 10
f 12 2 13
f 12 15 1
f 2 14 13
f 6 17 14
f 14 12 13
f 12 14 19
f 16 5 15
f 12 16 15
f 16 12 19
f 17 6 18
f 7 19 18
f 19 8 20
f 20 9 21
f 19 14 17
f 19 17 18
f 11 16 22
f 11 22 21
f 16 19 22
f 20 22 19
f 22 20 21

