# https://github.com/mikedh/trimesh
v 0.01000000 -0.00600000 0.04360000
v 0.01000000 -0.00600000 0.04500000
v 0.01000000 -0.00598079 0.04519509
v 0.01000000 -0.00592388 0.04538268
v 0.01000000 -0.00583147 0.04555557
v 0.01000000 -0.00570711 0.04570711
v 0.01000000 -0.00555557 0.04583147
v 0.01000000 -0.00538268 0.04592388
v 0.01000000 -0.00519509 0.04598079
v 0.01000000 -0.00500000 0.04600000
v 0.01000000 0.00000000 0.04360000
v 0.01000000 0.00000000 0.04600000
v 0.01100000 -0.00600000 0.04360000
v 0.01119509 -0.00598079 0.04360000
v 0.01138268 -0.00592388 0.04360000
v 0.01155557 -0.00583147 0.04360000
v 0.01170711 -0.00570711 0.04360000
v 0.01183147 -0.00555557 0.04360000
v 0.01192388 -0.00538268 0.04360000
v 0.01198079 -0.00519509 0.04360000
v 0.01200000 -0.00500000 0.04360000
v 0.01100000 -0.00600000 0.04500000
v 0.01119509 -0.00598079 0.04500000
v 0.01100000 -0.00598079 0.04519509
v 0.01100000 -0.00592388 0.04538268
v 0.01120233 -0.00595819 0.04520234
v 0.01138268 -0.00592388 0.04500000
v 0.01140891 -0.00588845 0.04520846
v 0.01100000 -0.00583147 0.04555557
v 0.01120846 -0.00588845 0.04540891
v 0.01121202 -0.00576845 0.04560377
v 0.01100000 -0.00570711 0.04570711
v 0.01100000 -0.00555557 0.04583147
v 0.01100000 -0.00538268 0.04592388
v 0.01121202 -0.00560377 0.04576845
v 0.01120846 -0.00540891 0.04588845
v 0.01100000 -0.00519509 0.04598079
v 0.01100000 -0.00500000 0.04600000
v 0.01120233 -0.00520233 0.04595819
v 0.01119509 -0.00500000 0.04598079
v 0.01142977 -0.00579410 0.04542977
v 0.01143789 -0.00563571 0.04563571
v 0.01142977 -0.00542977 0.04579411
v 0.01140891 -0.00520846 0.04588845
v 0.01138268 -0.00500000 0.04592388
v 0.01155557 -0.00583147 0.04500000
v 0.01170711 -0.00570711 0.04500000
v 0.01160377 -0.00576845 0.04521201
v 0.01183147 -0.00555557 0.04500000
v 0.01192388 -0.00538268 0.04500000
v 0.01176845 -0.00560377 0.04521201
v 0.01188845 -0.00540891 0.04520846
v 0.01198079 -0.00519509 0.04500000
v 0.01200000 -0.00500000 0.04500000
v 0.01195819 -0.00520233 0.04520234
v 0.01198079 -0.00500000 0.04519509
v 0.01192388 -0.00500000 0.04538268
v 0.01163571 -0.00563571 0.04543789
v 0.01163571 -0.00543789 0.04563571
v 0.01155557 -0.00500000 0.04583147
v 0.01160377 -0.00521201 0.04576845
v 0.01170711 -0.00500000 0.04570711
v 0.01179410 -0.00542977 0.04542977
v 0.01176845 -0.00521201 0.04560377
v 0.01183147 -0.00500000 0.04555557
v 0.01188845 -0.00520846 0.04540891
v 0.01200000 0.00000000 0.04360000
v 0.01100000 0.00000000 0.04600000
v 0.01119509 0.00000000 0.04598079
v 0.01138268 0.00000000 0.04592388
v 0.01200000 0.00000000 0.04500000
v 0.01198079 0.00000000 0.04519509
v 0.01192388 0.00000000 0.04538268
v 0.01155557 0.00000000 0.04583147
v 0.01170711 0.00000000 0.04570711
v 0.01183147 0.00000000 0.04555557
f 2 1 13
f 11 1 10
f 1 14 13
f 13 22 2
f 1 11 21
f 10 1 2
f 4 2 3
f 6 2 4
f 2 24 3
f 24 4 3
f 6 4 5
f 10 2 6
f 8 6 7
f 10 6 8
f 10 8 9
f 5 4 25
f 32 6 5
f 6 33 7
f 33 8 7
f 8 37 9
f 37 10 9
f 2 22 24
f 25 4 24
f 5 25 29
f 5 29 32
f 6 32 33
f 8 33 34
f 37 8 34
f 10 37 38
f 68 10 38
f 11 10 12
f 12 10 68
f 72 11 12
f 68 70 12
f 1 18 14
f 13 14 22
f 1 21 18
f 14 16 15
f 14 17 16
f 27 14 15
f 16 27 15
f 22 14 23
f 14 27 23
f 27 16 46
f 14 18 17
f 17 47 16
f 18 47 17
f 18 20 19
f 18 21 20
f 49 18 19
f 20 50 19
f 21 53 20
f 16 47 46
f 47 18 49
f 19 50 49
f 53 50 20
f 21 54 53
f 21 71 54
f 24 22 23
f 25 24 26
f 24 23 26
f 30 25 26
f 26 23 27
f 46 28 27
f 28 26 27
f 30 26 28
f 41 30 28
f 48 41 28
f 25 30 29
f 31 32 29
f 30 31 29
f 32 31 35
f 33 32 35
f 36 34 33
f 37 34 39
f 36 33 35
f 39 34 36
f 38 37 40
f 37 39 40
f 31 30 41
f 35 31 42
f 42 31 41
f 43 36 35
f 42 43 35
f 44 39 36
f 43 44 36
f 44 43 61
f 39 45 40
f 39 44 45
f 60 45 44
f 68 38 40
f 45 70 40
f 70 45 60
f 47 48 46
f 46 48 28
f 58 41 48
f 48 47 51
f 51 58 48
f 63 58 51
f 49 51 47
f 50 52 49
f 50 53 55
f 52 51 49
f 63 51 52
f 66 63 52
f 55 52 50
f 55 66 52
f 56 53 54
f 55 53 56
f 55 57 66
f 56 57 55
f 58 42 41
f 59 43 42
f 58 59 42
f 58 63 59
f 61 59 64
f 63 64 59
f 43 59 61
f 61 64 62
f 60 44 61
f 62 60 61
f 64 63 66
f 65 64 66
f 64 65 62
f 57 65 66
f 71 56 54
f 56 72 57
f 65 75 62
f 62 75 60
f 65 57 73
f 21 11 67
f 11 72 67
f 21 67 71
f 71 67 72
f 68 40 69
f 40 70 69
f 70 60 74
f 72 12 70
f 70 68 69
f 72 56 71
f 73 57 72
f 60 75 74
f 65 73 76
f 75 65 76
f 72 70 75
f 75 70 74
f 72 75 73
f 73 75 76

