# https://github.com/mikedh/trimesh
v 0.02400000 0.03760000 0.12360000
v 0.02400000 0.03760000 0.12477004
v 0.02400000 0.03877004 0.12360000
v 0.02400000 0.03824264 0.12424264
v 0.02850000 0.03760000 0.12360000
v 0.02900000 0.03812132 0.12412132
v 0.02900000 0.03760000 0.12453007
v 0.02900000 0.03760000 0.12477004
v 0.02900000 0.03853007 0.12360000
v 0.02900000 0.03877004 0.12360000
v 0.02900000 0.03824264 0.12424264
f 2 3 1
f 2 1 7
f 2 11 4
f 9 1 3
f 11 3 4
f 3 2 4
f 7 1 5
f 1 9 5
f 9 7 5
f 6 7 9
f 2 7 8
f 11 2 8
f 7 11 8
f 6 11 7
f 3 11 10
f 9 3 10
f 11 6 9
f 11 9 10

