# https://github.com/mikedh/trimesh
v -0.00915470 -0.00200000 0.04160000
v -0.00915470 -0.00200000 0.04320000
v -0.00881484 -0.00054446 0.04080000
v -0.00869296 -0.00069296 0.04080000
v -0.00890540 -0.00037503 0.04080000
v -0.00896117 -0.00019119 0.04080000
v -0.00854446 -0.00081484 0.04080000
v -0.00837503 -0.00090540 0.04080000
v -0.00819119 -0.00096117 0.04080000
v -0.00957979 -0.00105558 0.05240000
v -0.00934350 -0.00134350 0.05240000
v -0.00975537 -0.00072710 0.05240000
v -0.00986349 -0.00037067 0.05240000
v -0.00905558 -0.00157979 0.05240000
v -0.00872710 -0.00175537 0.05240000
v -0.00837067 -0.00186349 0.05240000
v -0.01030940 0.00000000 0.04160000
v -0.01030940 0.00000000 0.04320000
v -0.00915470 0.00200000 0.04160000
v -0.00915470 0.00200000 0.04320000
v -0.00898000 0.00000000 0.04080000
v -0.00896117 0.00019119 0.04080000
v -0.00890540 0.00037503 0.04080000
v -0.00881484 0.00054446 0.04080000
v -0.00869296 0.00069296 0.04080000
v -0.00854446 0.00081484 0.04080000
v -0.00837503 0.00090540 0.04080000
v -0.00819119 0.00096117 0.04080000
v -0.00990000 0.00000000 0.05240000
v -0.00986349 0.00037067 0.05240000
v -0.00975537 0.00072710 0.05240000
v -0.00957979 0.00105558 0.05240000
v -0.00934350 0.00134350 0.05240000
v -0.00905558 0.00157979 0.05240000
v -0.00872710 0.00175537 0.05240000
v -0.00837067 0.00186349 0.05240000
v -0.00800000 -0.00098000 0.04080000
v -0.00780881 -0.00096117 0.04080000
v -0.00762497 -0.00090540 0.04080000
v -0.00745554 -0.00081484 0.04080000
v -0.00730704 -0.00069296 0.04080000
v -0.00718516 -0.00054446 0.04080000
v -0.00709460 -0.00037503 0.04080000
v -0.00703883 -0.00019119 0.04080000
v -0.00684530 -0.00200000 0.04160000
v -0.00684530 -0.00200000 0.04320000
v -0.00800000 -0.00190000 0.05240000
v -0.00762933 -0.00186349 0.05240000
v -0.00727290 -0.00175537 0.05240000
v -0.00694442 -0.00157979 0.05240000
v -0.00665650 -0.00134350 0.05240000
v -0.00642021 -0.00105558 0.05240000
v -0.00624463 -0.00072710 0.05240000
v -0.00613651 -0.00037067 0.05240000
v -0.00800000 0.00098000 0.04080000
v -0.00780881 0.00096117 0.04080000
v -0.00762497 0.00090540 0.04080000
v -0.00745554 0.00081484 0.04080000
v -0.00702000 0.00000000 0.04080000
v -0.00703883 0.00019119 0.04080000
v -0.00709460 0.00037503 0.04080000
v -0.00730704 0.00069296 0.04080000
v -0.00718516 0.00054446 0.04080000
v -0.00569060 0.00000000 0.04160000
v -0.00569060 0.00000000 0.04320000
v -0.00684530 0.00200000 0.04160000
v -0.00684530 0.00200000 0.04320000
v -0.00800000 0.00190000 0.05240000
v -0.00762933 0.00186349 0.05240000
v -0.00727290 0.00175537 0.05240000
v -0.00694442 0.00157979 0.05240000
v -0.00610000 0.00000000 0.05240000
v -0.00613651 0.00037067 0.05240000
v -0.00624463 0.00072710 0.05240000
v -0.00665650 0.00134350 0.05240000
v -0.00642021 0.00105558 0.05240000
f 17 1 2
f 2 10 18
f 17 2 18
f 1 17 3
f 3 17 5
f 17 6 5
f 6 17 21
f 1 3 4
f 1 4 7
f 8 1 7
f 1 45 2
f 1 8 9
f 37 1 9
f 3 8 4
f 6 3 5
f 22 3 6
f 3 24 8
f 4 8 7
f 8 37 9
f 8 38 37
f 11 2 14
f 10 2 11
f 15 10 11
f 18 10 12
f 18 13 29
f 13 18 12
f 10 13 12
f 10 30 13
f 2 15 14
f 15 2 16
f 2 47 16
f 15 11 14
f 47 10 15
f 47 15 16
f 50 10 47
f 19 17 18
f 17 22 21
f 22 17 23
f 17 24 23
f 17 19 24
f 19 18 20
f 18 32 20
f 22 6 21
f 24 22 23
f 3 22 24
f 27 24 25
f 8 24 27
f 27 25 26
f 55 27 28
f 24 19 25
f 25 19 26
f 19 27 26
f 27 19 28
f 19 55 28
f 67 19 20
f 30 18 29
f 18 30 31
f 32 18 31
f 13 30 29
f 30 32 31
f 10 34 30
f 20 32 33
f 34 20 33
f 30 34 32
f 32 34 33
f 10 76 34
f 35 20 34
f 36 20 35
f 68 20 36
f 34 36 35
f 34 69 36
f 45 1 37
f 2 45 46
f 38 45 37
f 45 38 39
f 40 45 39
f 45 40 41
f 42 45 41
f 2 46 47
f 8 40 38
f 38 40 39
f 8 59 40
f 40 42 41
f 42 40 59
f 42 59 43
f 43 59 44
f 45 64 46
f 52 46 65
f 64 45 42
f 64 42 43
f 64 43 44
f 59 64 44
f 46 64 65
f 47 46 48
f 48 46 49
f 46 50 49
f 50 47 48
f 50 48 49
f 76 10 50
f 50 46 51
f 46 52 51
f 52 50 51
f 54 50 52
f 52 65 53
f 53 65 54
f 54 65 72
f 76 50 54
f 54 52 53
f 8 27 59
f 55 58 27
f 58 55 56
f 27 58 59
f 58 56 57
f 59 58 63
f 59 63 60
f 60 63 61
f 63 58 62
f 55 66 56
f 56 66 57
f 19 66 55
f 19 67 66
f 66 58 57
f 58 66 62
f 66 63 62
f 67 20 68
f 64 59 60
f 64 60 61
f 63 64 61
f 66 64 63
f 64 67 65
f 64 66 67
f 76 65 67
f 69 67 68
f 67 69 70
f 71 67 70
f 34 76 69
f 36 69 68
f 69 76 71
f 69 71 70
f 73 65 74
f 65 73 72
f 65 76 74
f 73 54 72
f 76 54 73
f 76 73 74
f 76 67 75
f 67 71 75
f 71 76 75

