# https://github.com/mikedh/trimesh
v -0.03660000 -0.02700000 0.11400000
v -0.03660000 -0.02700000 0.11800000
v -0.03660000 -0.02142688 0.11400000
v -0.03660000 -0.02200000 0.11800000
v -0.03300000 -0.02700000 0.11400000
v -0.03300000 -0.02700000 0.11689648
v -0.03300000 -0.02697545 0.11690392
v -0.03300000 -0.02600000 0.11700000
v -0.03300000 -0.02502455 0.11690392
v -0.03300000 -0.02142688 0.11400000
v -0.03300000 -0.02184265 0.11477785
v -0.03300000 -0.02246447 0.11553554
v -0.03300000 -0.02408658 0.11661940
v -0.03300000 -0.02322215 0.11615735
f 2 3 1
f 5 2 1
f 3 5 1
f 4 2 8
f 3 4 10
f 3 2 4
f 5 14 6
f 2 5 6
f 2 6 7
f 8 2 7
f 4 8 9
f 6 8 7
f 6 14 8
f 8 13 9
f 8 14 13
f 5 3 10
f 10 4 11
f 5 10 14
f 12 10 11
f 14 10 12
f 14 4 13
f 13 4 9
f 4 14 12
f 4 12 11

