# https://github.com/mikedh/trimesh
v -0.01000000 0.00000000 0.00300000
v -0.01000000 0.00000000 0.00600000
v -0.01000000 0.00480000 0.00300000
v -0.00997694 0.00503411 0.00300000
v -0.00990866 0.00525922 0.00300000
v -0.00979776 0.00546668 0.00300000
v -0.00964853 0.00564853 0.00300000
v -0.00948302 0.00578436 0.00300000
v -0.00946668 0.00579776 0.00300000
v -0.00925922 0.00590866 0.00300000
v -0.00903411 0.00597694 0.00300000
v -0.00880000 0.00600000 0.00300000
v -0.01000000 0.00480000 0.00600000
v -0.00997694 0.00503411 0.00600000
v -0.00993012 0.00518845 0.00600000
v -0.00990866 0.00525922 0.00600000
v -0.00979776 0.00546668 0.00600000
v -0.00964853 0.00564853 0.00600000
v -0.00946668 0.00579776 0.00600000
v -0.00925922 0.00590866 0.00600000
v -0.00903411 0.00597694 0.00600000
v -0.00880000 0.00600000 0.00600000
v -0.00600000 0.00000000 0.00300000
v -0.00600000 0.00000000 0.00600000
v -0.00720000 0.00600000 0.00300000
v -0.00696589 0.00597694 0.00300000
v -0.00674078 0.00590866 0.00300000
v -0.00653332 0.00579776 0.00300000
v -0.00600000 0.00480000 0.00300000
v -0.00602306 0.00503411 0.00300000
v -0.00627518 0.00555557 0.00300000
v -0.00635147 0.00564853 0.00300000
v -0.00620224 0.00546668 0.00300000
v -0.00609134 0.00525922 0.00300000
v -0.00720000 0.00600000 0.00600000
v -0.00696589 0.00597694 0.00600000
v -0.00674078 0.00590866 0.00600000
v -0.00653332 0.00579776 0.00600000
v -0.00600000 0.00480000 0.00600000
v -0.00602306 0.00503411 0.00600000
v -0.00627518 0.00555557 0.00600000
v -0.00635147 0.00564853 0.00600000
v -0.00620224 0.00546668 0.00600000
v -0.00609134 0.00525922 0.00600000
f 23 2 1
f 12 23 1
f 1 2 13
f 4 1 3
f 12 1 4
f 1 13 3
f 6 4 5
f 8 4 6
f 8 6 7
f 12 4 8
f 10 8 9
f 12 8 10
f 12 10 11
f 13 4 3
f 4 15 5
f 16 6 5
f 7 6 17
f 8 7 18
f 8 19 9
f 19 10 9
f 21 11 10
f 22 12 11
f 2 17 13
f 4 13 14
f 15 4 14
f 15 16 5
f 17 6 16
f 7 17 18
f 19 8 18
f 10 19 20
f 21 10 20
f 13 15 14
f 17 15 13
f 15 17 16
f 17 19 18
f 17 21 19
f 19 21 20
f 2 44 17
f 21 22 11
f 35 12 22
f 17 35 21
f 21 35 22
f 2 23 24
f 44 2 24
f 39 24 23
f 34 12 25
f 12 35 25
f 25 36 26
f 23 12 34
f 23 34 29
f 39 23 29
f 27 25 26
f 28 25 27
f 34 25 28
f 29 34 30
f 34 28 31
f 31 28 32
f 34 31 33
f 36 27 26
f 28 27 37
f 40 29 30
f 34 40 30
f 42 31 32
f 28 42 32
f 43 34 33
f 31 43 33
f 25 35 36
f 17 44 35
f 44 24 39
f 36 37 27
f 38 28 37
f 39 29 40
f 34 44 40
f 43 31 41
f 31 42 41
f 28 38 42
f 44 34 43
f 35 37 36
f 35 38 37
f 35 44 38
f 44 39 40
f 38 44 41
f 38 41 42
f 41 44 43

