# https://github.com/mikedh/trimesh
v -0.03854328 -0.03629610 0.12000000
v -0.03798882 -0.03733342 0.12000000
v -0.03833068 -0.03645345 0.12125076
v -0.03888471 -0.03517054 0.12000000
v -0.03874912 -0.03521401 0.12121400
v -0.03900000 -0.03400000 0.12000000
v -0.03888471 -0.03400000 0.12117054
v -0.03854328 -0.03400000 0.12229610
v -0.03833068 -0.03525076 0.12245345
v -0.03798882 -0.03400000 0.12333342
v -0.03777004 -0.03760000 0.12000000
v -0.03764025 -0.03760000 0.12117265
v -0.03762462 -0.03760000 0.12127167
v -0.03761403 -0.03760000 0.12130038
v -0.03660000 -0.03760000 0.12000000
v -0.03776463 -0.03657860 0.12257860
v -0.03697906 -0.03760000 0.12261886
v -0.03681427 -0.03760000 0.12284158
v -0.03660000 -0.03760000 0.12305584
v -0.03681427 -0.03684157 0.12360000
v -0.03660000 -0.03705584 0.12360000
v -0.03697906 -0.03661886 0.12360000
v -0.03660000 -0.03400000 0.12000000
v -0.03761403 -0.03530038 0.12360000
v -0.03762462 -0.03527167 0.12360000
v -0.03764025 -0.03517265 0.12360000
v -0.03777004 -0.03400000 0.12360000
v -0.03660000 -0.03400000 0.12360000
f 4 2 1
f 1 3 5
f 3 2 13
f 14 3 13
f 3 14 16
f 2 3 1
f 6 15 2
f 9 3 16
f 5 4 1
f 6 2 4
f 9 5 3
f 5 7 4
f 4 7 6
f 8 6 7
f 5 8 7
f 9 8 5
f 27 6 8
f 16 25 9
f 9 25 26
f 10 8 9
f 27 8 10
f 10 9 26
f 2 11 12
f 13 2 12
f 11 13 12
f 11 14 13
f 2 15 11
f 15 14 11
f 15 17 14
f 15 23 21
f 14 17 16
f 16 22 24
f 19 17 15
f 15 21 19
f 16 17 20
f 17 19 18
f 20 17 18
f 19 20 18
f 21 20 19
f 16 20 22
f 20 25 22
f 20 21 27
f 15 6 23
f 27 23 6
f 25 16 24
f 22 25 24
f 20 27 25
f 25 27 26
f 27 10 26
f 21 23 28
f 27 21 28
f 23 27 28

