# https://github.com/mikedh/trimesh
v -0.03777004 0.03760000 0.12000000
v -0.03764025 0.03760000 0.12117265
v -0.03762462 0.03760000 0.12127167
v -0.03761403 0.03760000 0.12130038
v -0.03761070 0.03762260 0.12127209
v -0.03724264 0.03824264 0.12000000
v -0.03660000 0.03760000 0.12000000
v -0.03697906 0.03760000 0.12261886
v -0.03681427 0.03760000 0.12284158
v -0.03681427 0.03781427 0.12262731
v -0.03660000 0.03760000 0.12305584
v -0.03660000 0.03781427 0.12284158
v -0.03660000 0.03797906 0.12261886
v -0.03660000 0.03877004 0.12000000
v -0.03662260 0.03861070 0.12127209
v -0.03660000 0.03861403 0.12130038
v -0.03660000 0.03864025 0.12117265
v -0.03660000 0.03862462 0.12127167
f 1 5 6
f 1 4 2
f 5 1 2
f 5 2 3
f 2 4 3
f 4 5 3
f 1 11 4
f 5 4 8
f 14 1 6
f 11 1 7
f 1 14 7
f 6 5 15
f 14 11 7
f 5 8 10
f 8 4 11
f 15 5 10
f 10 8 9
f 8 11 9
f 11 10 9
f 10 11 12
f 11 13 12
f 13 10 12
f 13 16 10
f 11 16 13
f 11 14 16
f 14 6 15
f 15 16 18
f 14 15 17
f 16 14 17
f 17 15 18
f 16 17 18
f 16 15 10

