# https://github.com/mikedh/trimesh
v 0.02400000 0.03760000 0.12000000
v 0.02400000 0.03760000 0.12360000
v 0.02400000 0.03877004 0.12360000
v 0.02400000 0.04000000 0.12000000
v 0.02400000 0.03988471 0.12117054
v 0.02400000 0.03898882 0.12333342
v 0.02400000 0.03954328 0.12229610
v 0.02850000 0.03760000 0.12000000
v 0.02900000 0.03822089 0.12000000
v 0.02850000 0.03760000 0.12360000
v 0.02900000 0.03853007 0.12360000
v 0.02900000 0.03877004 0.12360000
v 0.02900000 0.04000000 0.12000000
v 0.02900000 0.03988471 0.12117054
v 0.02900000 0.03898882 0.12333342
v 0.02900000 0.03954328 0.12229610
f 2 4 1
f 4 9 1
f 6 2 3
f 2 1 10
f 2 12 3
f 4 6 5
f 14 4 5
f 4 2 6
f 5 6 7
f 6 16 7
f 12 6 3
f 16 5 7
f 1 9 8
f 10 1 8
f 9 10 8
f 2 10 12
f 10 9 11
f 9 12 11
f 9 15 12
f 12 10 11
f 9 4 13
f 14 13 4
f 14 5 16
f 15 9 13
f 15 13 14
f 15 6 12
f 6 15 16
f 15 14 16

