# https://github.com/mikedh/trimesh
v -0.03854328 -0.03629610 0.11800000
v -0.03798882 -0.03733342 0.11800000
v -0.03854328 -0.03629610 0.12000000
v -0.03798882 -0.03733342 0.12000000
v -0.03888471 -0.03517054 0.11800000
v -0.03900000 -0.03400000 0.11800000
v -0.03888471 -0.03517054 0.12000000
v -0.03900000 -0.03400000 0.12000000
v -0.03777004 -0.03760000 0.11800000
v -0.03660000 -0.03760000 0.11800000
v -0.03777004 -0.03760000 0.12000000
v -0.03660000 -0.03760000 0.12000000
v -0.03660000 -0.03400000 0.11800000
v -0.03660000 -0.03400000 0.12000000
f 5 2 1
f 2 4 1
f 4 2 9
f 6 10 2
f 7 1 3
f 4 7 3
f 4 9 11
f 1 4 3
f 6 2 5
f 5 1 7
f 8 6 5
f 4 8 7
f 8 5 7
f 4 14 8
f 14 6 8
f 2 10 9
f 10 12 9
f 9 12 11
f 12 4 11
f 10 14 12
f 14 4 12
f 10 6 13
f 6 14 13
f 14 10 13

