# https://github.com/mikedh/trimesh
v 0.03200000 -0.03760000 0.12360000
v 0.03200000 -0.03760000 0.12565850
v 0.03200000 -0.03753074 0.12569552
v 0.03200000 -0.03678036 0.12592314
v 0.03200000 -0.03600000 0.12600000
v 0.03200000 -0.03400000 0.12360000
v 0.03200000 -0.03400000 0.12600000
v 0.03500000 -0.03760000 0.12360000
v 0.03500000 -0.03760000 0.12565850
v 0.03500000 -0.03753074 0.12569552
v 0.03500000 -0.03678036 0.12592314
v 0.03500000 -0.03600000 0.12600000
v 0.03500000 -0.03400000 0.12360000
v 0.03500000 -0.03400000 0.12600000
f 2 6 1
f 8 2 1
f 6 8 1
f 4 2 3
f 5 2 4
f 7 2 5
f 2 10 3
f 10 4 3
f 11 5 4
f 6 2 7
f 12 7 5
f 14 6 7
f 2 8 9
f 2 9 10
f 11 4 10
f 12 5 11
f 9 11 10
f 9 12 11
f 8 14 9
f 12 9 14
f 8 6 13
f 6 14 13
f 14 8 13
f 14 7 12

