# https://github.com/mikedh/trimesh
v -0.01300000 -0.01455000 0.05264737
v -0.01363509 -0.01463509 0.05296491
v -0.01300000 -0.01495263 0.05305000
v -0.01355000 -0.01495263 0.05360000
v -0.01300000 -0.01510000 0.05360000
v -0.01300000 -0.01495263 0.05415000
v -0.01395263 -0.01455000 0.05360000
v -0.01363509 -0.01463509 0.05423509
v -0.01300000 -0.01455000 0.05455263
v -0.01355000 -0.01400000 0.05264737
v -0.01300000 -0.01400000 0.05250000
v -0.01395263 -0.01400000 0.05305000
v -0.01300000 -0.01345000 0.05264737
v -0.01363509 -0.01336491 0.05296491
v -0.01300000 -0.01304737 0.05305000
v -0.01410000 -0.01400000 0.05360000
v -0.01395263 -0.01400000 0.05415000
v -0.01355000 -0.01400000 0.05455263
v -0.01300000 -0.01400000 0.05470000
v -0.01395263 -0.01345000 0.05360000
v -0.01355000 -0.01304737 0.05360000
v -0.01300000 -0.01290000 0.05360000
v -0.01300000 -0.01304737 0.05415000
v -0.01363509 -0.01336491 0.05423509
v -0.01300000 -0.01345000 0.05455263
v -0.00300000 -0.01455000 0.05264737
v -0.00236491 -0.01463509 0.05296491
v -0.00300000 -0.01495263 0.05305000
v -0.00300000 -0.01510000 0.05360000
v -0.00245000 -0.01495263 0.05360000
v -0.00300000 -0.01495263 0.05415000
v -0.00204737 -0.01455000 0.05360000
v -0.00236491 -0.01463509 0.05423509
v -0.00300000 -0.01455000 0.05455263
v -0.00300000 -0.01400000 0.05250000
v -0.00245000 -0.01400000 0.05264737
v -0.00204737 -0.01400000 0.05305000
v -0.00300000 -0.01345000 0.05264737
v -0.00236491 -0.01336491 0.05296491
v -0.00300000 -0.01304737 0.05305000
v -0.00190000 -0.01400000 0.05360000
v -0.00204737 -0.01400000 0.05415000
v -0.00300000 -0.01400000 0.05470000
v -0.00245000 -0.01400000 0.05455263
v -0.00204737 -0.01345000 0.05360000
v -0.00300000 -0.01290000 0.05360000
v -0.00245000 -0.01304737 0.05360000
v -0.00300000 -0.01304737 0.05415000
v -0.00236491 -0.01336491 0.05423509
v -0.00300000 -0.01345000 0.05455263
f 1 3 2
f 2 3 4
f 3 5 4
f 7 2 4
f 10 1 2
f 10 11 1
f 10 2 12
f 2 7 12
f 12 7 16
f 1 26 3
f 29 5 3
f 26 1 11
f 5 6 4
f 6 8 4
f 4 8 7
f 9 8 6
f 7 8 17
f 16 7 17
f 18 8 9
f 8 18 17
f 18 9 19
f 29 6 5
f 6 31 9
f 19 9 43
f 11 10 13
f 14 10 12
f 10 14 13
f 12 16 20
f 14 12 20
f 13 14 15
f 21 14 20
f 21 15 14
f 15 21 22
f 38 11 13
f 38 13 15
f 15 22 46
f 16 17 20
f 17 24 20
f 18 24 17
f 25 18 19
f 24 18 25
f 24 21 20
f 22 21 23
f 24 23 21
f 25 23 24
f 19 50 25
f 46 22 23
f 23 25 48
f 28 3 26
f 29 3 28
f 11 35 26
f 26 27 28
f 28 27 30
f 29 28 30
f 27 32 30
f 26 36 27
f 36 26 35
f 27 36 37
f 27 37 32
f 37 41 32
f 29 31 6
f 9 31 34
f 9 34 43
f 30 31 29
f 30 33 31
f 33 30 32
f 33 34 31
f 42 33 32
f 32 41 42
f 33 44 34
f 33 42 44
f 34 44 43
f 38 35 11
f 15 40 38
f 40 15 46
f 36 35 38
f 36 39 37
f 39 36 38
f 37 45 41
f 37 39 45
f 40 39 38
f 47 45 39
f 39 40 47
f 40 46 47
f 19 43 50
f 46 23 48
f 25 50 48
f 45 42 41
f 49 42 45
f 42 49 44
f 44 50 43
f 49 50 44
f 49 45 47
f 46 48 47
f 48 49 47
f 48 50 49

