# https://github.com/mikedh/trimesh
v 0.02948038 0.01748038 0.06348038
v 0.02955000 0.01722058 0.06400000
v 0.03000000 0.01710000 0.06400000
v 0.03000000 0.01722058 0.06355000
v 0.02948038 0.01748038 0.06451962
v 0.03051962 0.01748038 0.06348038
v 0.02922058 0.01755000 0.06400000
v 0.02922058 0.01800000 0.06355000
v 0.02955000 0.01800000 0.06322058
v 0.02910000 0.01800000 0.06400000
v 0.03000000 0.01755000 0.06322058
v 0.03000000 0.01800000 0.06310000
v 0.02922058 0.01800000 0.06445000
v 0.02955000 0.01800000 0.06477942
v 0.02948038 0.01851962 0.06348038
v 0.02922058 0.01845000 0.06400000
v 0.02955000 0.01877942 0.06400000
v 0.03000000 0.01845000 0.06322058
v 0.03000000 0.01877942 0.06355000
v 0.03000000 0.01890000 0.06400000
v 0.02948038 0.01851962 0.06451962
v 0.03000000 0.01845000 0.06477942
v 0.03000000 0.01877942 0.06445000
v 0.03045000 0.01800000 0.06322058
v 0.03051962 0.01851962 0.06348038
v 0.03045000 0.01877942 0.06400000
v 0.03255000 0.01622058 0.06600000
v 0.03248038 0.01648038 0.06651962
v 0.03255000 0.01700000 0.06677942
v 0.03300000 0.01622058 0.06555000
v 0.03300000 0.01655000 0.06522058
v 0.03351962 0.01648038 0.06548038
v 0.03300000 0.01610000 0.06600000
v 0.03300000 0.01622058 0.06645000
v 0.03300000 0.01655000 0.06677942
v 0.03345000 0.01622058 0.06600000
v 0.03377942 0.01655000 0.06600000
v 0.03351962 0.01648038 0.06651962
v 0.03345000 0.01700000 0.06522058
v 0.03377942 0.01700000 0.06555000
v 0.03300000 0.01700000 0.06690000
v 0.03300000 0.01745000 0.06677942
v 0.03390000 0.01700000 0.06600000
v 0.03345000 0.01700000 0.06677942
v 0.03377942 0.01700000 0.06645000
v 0.03377942 0.01745000 0.06600000
v 0.03248038 0.01751962 0.06651962
v 0.03351962 0.01751962 0.06548038
v 0.03300000 0.01777942 0.06645000
v 0.03300000 0.01790000 0.06600000
v 0.03345000 0.01777942 0.06600000
v 0.03351962 0.01751962 0.06651962
f 4 2 1
f 1 2 7
f 1 11 4
f 2 4 3
f 2 5 7
f 11 31 4
f 31 11 6
f 5 2 27
f 33 2 3
f 4 33 3
f 24 32 6
f 14 5 29
f 11 1 9
f 9 1 8
f 7 8 1
f 10 8 7
f 15 9 8
f 10 16 8
f 9 12 11
f 12 24 11
f 12 9 18
f 12 18 24
f 7 13 10
f 5 13 7
f 5 14 13
f 10 13 16
f 14 21 13
f 9 15 18
f 16 15 8
f 15 17 19
f 17 15 16
f 15 19 18
f 18 19 25
f 20 19 17
f 20 26 19
f 13 21 16
f 21 17 16
f 23 17 21
f 17 23 20
f 23 21 22
f 11 24 6
f 25 39 24
f 18 25 24
f 26 25 19
f 51 25 26
f 20 50 26
f 23 49 20
f 21 14 47
f 21 47 22
f 23 22 42
f 4 31 30
f 32 31 6
f 24 39 32
f 2 33 27
f 30 33 4
f 5 27 28
f 28 27 34
f 28 35 29
f 28 29 5
f 47 29 42
f 31 32 30
f 36 33 30
f 32 36 30
f 36 32 37
f 32 40 37
f 33 34 27
f 34 33 36
f 35 28 34
f 35 34 38
f 38 36 37
f 36 38 34
f 38 37 45
f 35 38 44
f 32 39 40
f 37 40 43
f 39 48 40
f 48 46 40
f 40 46 43
f 35 41 29
f 41 35 44
f 41 42 29
f 41 44 42
f 45 37 43
f 38 45 44
f 43 46 45
f 46 52 45
f 44 45 52
f 52 42 44
f 48 39 25
f 25 51 48
f 49 23 42
f 49 50 20
f 51 26 50
f 14 29 47
f 22 47 42
f 48 51 46
f 49 51 50
f 49 42 52
f 51 52 46
f 52 51 49

