# https://github.com/mikedh/trimesh
v 0.02142265 -0.02507735 0.07142265
v 0.02142265 -0.02507735 0.07257735
v 0.02150000 -0.02536603 0.07200000
v 0.02113397 -0.02500000 0.07200000
v 0.02200000 -0.02550000 0.07200000
v 0.02200000 -0.02536603 0.07250000
v 0.02250000 -0.02536603 0.07200000
v 0.02257735 -0.02507735 0.07257735
v 0.02200000 -0.02500000 0.07286603
v 0.02113397 -0.02450000 0.07150000
v 0.02100000 -0.02450000 0.07200000
v 0.02113397 -0.02450000 0.07250000
v 0.02150000 -0.02450000 0.07286603
v 0.02142265 -0.02392265 0.07142265
v 0.02113397 -0.02400000 0.07200000
v 0.02142265 -0.02392265 0.07257735
v 0.02150000 -0.02363397 0.07200000
v 0.02200000 -0.02450000 0.07300000
v 0.02250000 -0.02450000 0.07286603
v 0.02286603 -0.02450000 0.07250000
v 0.02200000 -0.02400000 0.07286603
v 0.02200000 -0.02350000 0.07200000
v 0.02200000 -0.02363397 0.07250000
v 0.02257735 -0.02392265 0.07257735
v 0.02250000 -0.02363397 0.07200000
v 0.02342265 -0.02507735 0.06842265
v 0.02350000 -0.02536603 0.06900000
v 0.02400000 -0.02536603 0.06850000
v 0.02400000 -0.02550000 0.06900000
v 0.02450000 -0.02536603 0.06900000
v 0.02457735 -0.02507735 0.06842265
v 0.02457735 -0.02507735 0.06957735
v 0.02400000 -0.02500000 0.06813397
v 0.02486603 -0.02500000 0.06900000
v 0.02313397 -0.02450000 0.06850000
v 0.02350000 -0.02450000 0.06813397
v 0.02342265 -0.02392265 0.06842265
v 0.02350000 -0.02363397 0.06900000
v 0.02400000 -0.02450000 0.06800000
v 0.02450000 -0.02450000 0.06813397
v 0.02486603 -0.02450000 0.06850000
v 0.02500000 -0.02450000 0.06900000
v 0.02486603 -0.02450000 0.06950000
v 0.02400000 -0.02400000 0.06813397
v 0.02400000 -0.02363397 0.06850000
v 0.02400000 -0.02350000 0.06900000
v 0.02457735 -0.02392265 0.06842265
v 0.02486603 -0.02400000 0.06900000
v 0.02450000 -0.02363397 0.06900000
v 0.02457735 -0.02392265 0.06957735
f 10 26 1
f 3 26 27
f 26 10 35
f 4 1 3
f 3 2 4
f 3 6 2
f 5 6 3
f 2 6 9
f 10 1 4
f 2 12 4
f 10 4 11
f 4 12 11
f 12 2 13
f 13 2 9
f 18 13 9
f 26 3 1
f 29 5 3
f 6 5 7
f 8 6 7
f 6 8 9
f 19 9 8
f 19 18 9
f 19 8 20
f 37 10 14
f 10 37 35
f 37 14 38
f 14 10 15
f 11 15 10
f 12 15 11
f 12 13 16
f 15 12 16
f 18 21 13
f 21 16 13
f 15 17 14
f 17 15 16
f 23 16 21
f 16 23 17
f 23 22 17
f 18 19 21
f 19 24 21
f 24 19 20
f 38 14 17
f 22 38 17
f 23 21 24
f 22 23 25
f 23 24 25
f 27 26 28
f 29 27 28
f 26 33 28
f 29 3 27
f 5 29 30
f 32 7 30
f 35 36 26
f 33 26 36
f 39 33 36
f 30 29 28
f 31 30 28
f 31 28 33
f 31 34 30
f 34 32 30
f 40 31 33
f 33 39 40
f 34 31 41
f 31 40 41
f 34 41 42
f 43 34 42
f 43 32 34
f 30 7 5
f 32 8 7
f 8 43 20
f 43 8 32
f 37 36 35
f 44 39 36
f 36 37 44
f 45 44 37
f 38 45 37
f 38 46 45
f 22 46 38
f 46 22 49
f 25 50 49
f 39 44 40
f 47 40 44
f 40 47 41
f 48 42 41
f 48 43 42
f 47 48 41
f 43 48 50
f 47 44 45
f 49 45 46
f 49 47 45
f 49 48 47
f 50 48 49
f 43 24 20
f 24 50 25
f 22 25 49
f 50 24 43

