# https://github.com/mikedh/trimesh
v -0.01200000 0.00000000 0.04360000
v -0.01200000 0.00000000 0.04500000
v -0.01198079 0.00000000 0.04519509
v -0.01192388 0.00000000 0.04538268
v -0.01183147 0.00000000 0.04555557
v -0.01170711 0.00000000 0.04570711
v -0.01155557 0.00000000 0.04583147
v -0.01138268 0.00000000 0.04592388
v -0.01119509 0.00000000 0.04598079
v -0.01200000 0.00500000 0.04360000
v -0.01198079 0.00519509 0.04360000
v -0.01192388 0.00538268 0.04360000
v -0.01183147 0.00555557 0.04360000
v -0.01170711 0.00570711 0.04360000
v -0.01155557 0.00583147 0.04360000
v -0.01138268 0.00592388 0.04360000
v -0.01119509 0.00598079 0.04360000
v -0.01200000 0.00500000 0.04500000
v -0.01198079 0.00519509 0.04500000
v -0.01198079 0.00500000 0.04519509
v -0.01195819 0.00520233 0.04520234
v -0.01192388 0.00500000 0.04538268
v -0.01192388 0.00538268 0.04500000
v -0.01183147 0.00555557 0.04500000
v -0.01188845 0.00540891 0.04520846
v -0.01176845 0.00560377 0.04521201
v -0.01170711 0.00570711 0.04500000
v -0.01155557 0.00583147 0.04500000
v -0.01160377 0.00576845 0.04521201
v -0.01188845 0.00520846 0.04540891
v -0.01183147 0.00500000 0.04555557
v -0.01176845 0.00521201 0.04560377
v -0.01179410 0.00542977 0.04542977
v -0.01170711 0.00500000 0.04570711
v -0.01160377 0.00521201 0.04576845
v -0.01155557 0.00500000 0.04583147
v -0.01163571 0.00543789 0.04563571
v -0.01163571 0.00563571 0.04543789
v -0.01138268 0.00592388 0.04500000
v -0.01140891 0.00588845 0.04520846
v -0.01119509 0.00598079 0.04500000
v -0.01120233 0.00595819 0.04520234
v -0.01138268 0.00500000 0.04592388
v -0.01140891 0.00520846 0.04588845
v -0.01142977 0.00579410 0.04542977
v -0.01143789 0.00563571 0.04563571
v -0.01142977 0.00542977 0.04579411
v -0.01119509 0.00500000 0.04598079
v -0.01120233 0.00520233 0.04595819
v -0.01120846 0.00588845 0.04540891
v -0.01121202 0.00576845 0.04560377
v -0.01121202 0.00560377 0.04576845
v -0.01120846 0.00540891 0.04588845
v -0.01000000 0.00000000 0.04360000
v -0.01100000 0.00000000 0.04600000
v -0.01000000 0.00000000 0.04600000
v -0.01100000 0.00600000 0.04360000
v -0.01000000 0.00600000 0.04360000
v -0.01100000 0.00600000 0.04500000
v -0.01100000 0.00598079 0.04519509
v -0.01100000 0.00592388 0.04538268
v -0.01100000 0.00500000 0.04600000
v -0.01100000 0.00519509 0.04598079
v -0.01100000 0.00583147 0.04555557
v -0.01100000 0.00555557 0.04583147
v -0.01100000 0.00538268 0.04592388
v -0.01100000 0.00570711 0.04570711
v -0.01000000 0.00600000 0.04500000
v -0.01000000 0.00598079 0.04519509
v -0.01000000 0.00592388 0.04538268
v -0.01000000 0.00500000 0.04600000
v -0.01000000 0.00519509 0.04598079
v -0.01000000 0.00583147 0.04555557
v -0.01000000 0.00555557 0.04583147
v -0.01000000 0.00538268 0.04592388
v -0.01000000 0.00570711 0.04570711
f 1 4 2
f 18 1 2
f 2 4 3
f 1 55 4
f 5 7 6
f 4 9 5
f 5 9 7
f 2 3 20
f 4 22 3
f 5 22 4
f 34 5 6
f 7 34 6
f 7 9 8
f 4 55 9
f 43 7 8
f 9 43 8
f 55 48 9
f 11 1 10
f 1 18 10
f 57 1 11
f 18 11 10
f 12 13 11
f 15 11 13
f 11 19 12
f 24 13 12
f 13 24 14
f 15 13 14
f 57 11 15
f 15 14 27
f 11 18 19
f 23 12 19
f 24 12 23
f 14 24 27
f 15 27 28
f 57 15 16
f 16 15 39
f 16 39 17
f 57 16 17
f 59 57 17
f 39 15 28
f 17 39 41
f 59 17 41
f 18 2 20
f 22 20 3
f 31 22 5
f 5 34 31
f 34 7 36
f 18 20 19
f 21 19 20
f 22 21 20
f 30 21 22
f 21 23 19
f 24 23 25
f 27 24 26
f 23 21 25
f 21 30 25
f 24 25 26
f 30 33 25
f 26 25 33
f 27 29 28
f 26 33 38
f 29 27 26
f 29 26 38
f 29 40 28
f 38 45 29
f 30 22 31
f 32 30 31
f 34 32 31
f 32 33 30
f 32 34 35
f 34 36 35
f 36 44 35
f 38 33 37
f 37 33 32
f 37 32 35
f 38 37 46
f 37 47 46
f 45 38 46
f 47 37 35
f 43 36 7
f 9 48 43
f 48 55 62
f 28 40 39
f 39 42 41
f 45 40 29
f 39 40 42
f 45 50 40
f 50 42 40
f 60 59 41
f 42 60 41
f 50 61 42
f 61 60 42
f 36 43 44
f 44 43 49
f 48 49 43
f 45 51 50
f 45 46 51
f 46 52 51
f 35 44 47
f 46 47 52
f 47 53 52
f 47 44 53
f 44 49 53
f 49 48 63
f 62 63 48
f 51 64 50
f 52 67 51
f 64 61 50
f 67 64 51
f 53 65 52
f 53 49 66
f 67 52 65
f 66 49 63
f 53 66 65
f 55 1 54
f 1 57 54
f 55 54 56
f 54 75 56
f 55 56 71
f 58 57 59
f 54 57 58
f 75 54 58
f 58 59 68
f 58 68 70
f 55 71 62
f 59 60 68
f 70 60 61
f 71 63 62
f 70 61 64
f 64 67 76
f 74 67 65
f 72 66 63
f 66 74 65
f 71 56 75
f 68 60 69
f 60 70 69
f 75 58 70
f 70 68 69
f 71 72 63
f 70 64 73
f 64 76 73
f 75 66 72
f 66 75 74
f 67 74 76
f 72 71 75
f 76 70 73
f 70 76 74
f 75 70 74

