# https://github.com/mikedh/trimesh
v 0.03200000 -0.03400000 0.11855531
v 0.03200000 -0.03377772 0.11867412
v 0.03200000 -0.03400000 0.12000000
v 0.03200000 -0.03317157 0.11917157
v 0.03200000 -0.03267412 0.11977772
v 0.03200000 -0.03255531 0.12000000
v 0.03500000 -0.03400000 0.11855531
v 0.03500000 -0.03377772 0.11867412
v 0.03500000 -0.03400000 0.12000000
v 0.03500000 -0.03317157 0.11917157
v 0.03500000 -0.03267412 0.11977772
v 0.03500000 -0.03255531 0.12000000
f 1 4 2
f 3 4 1
f 8 1 2
f 7 3 1
f 4 8 2
f 3 6 4
f 6 5 4
f 10 4 5
f 12 6 3
f 6 12 5
f 7 1 8
f 4 10 8
f 8 10 7
f 3 7 9
f 12 3 9
f 7 12 9
f 12 7 10
f 10 5 11
f 5 12 11
f 12 10 11

