# https://github.com/mikedh/trimesh
v -0.00990866 -0.00525922 0.00600000
v -0.00979776 -0.00546668 0.00600000
v -0.00964853 -0.00564853 0.00600000
v -0.00992533 -0.00520425 0.00600000
v -0.00997694 -0.00503411 0.00600000
v -0.01000000 -0.00480000 0.00600000
v -0.00946668 -0.00579776 0.00600000
v -0.00925922 -0.00590866 0.00600000
v -0.00903411 -0.00597694 0.00600000
v -0.00880000 -0.00600000 0.00600000
v -0.00990866 -0.00525922 0.02600000
v -0.00979776 -0.00546668 0.02600000
v -0.00964853 -0.00564853 0.02600000
v -0.00997694 -0.00503411 0.02600000
v -0.01000000 -0.00480000 0.02600000
v -0.00946668 -0.00579776 0.02600000
v -0.00945048 -0.00580642 0.02600000
v -0.00925922 -0.00590866 0.02600000
v -0.00903411 -0.00597694 0.02600000
v -0.00880000 -0.00600000 0.02600000
v -0.01000000 0.00000000 0.00600000
v -0.01000000 0.00000000 0.02600000
v -0.00720000 -0.00600000 0.00600000
v -0.00696589 -0.00597694 0.00600000
v -0.00674078 -0.00590866 0.00600000
v -0.00653332 -0.00579776 0.00600000
v -0.00635147 -0.00564853 0.00600000
v -0.00627518 -0.00555557 0.00600000
v -0.00620224 -0.00546668 0.00600000
v -0.00609134 -0.00525922 0.00600000
v -0.00602306 -0.00503411 0.00600000
v -0.00600000 -0.00480000 0.00600000
v -0.00720000 -0.00600000 0.02600000
v -0.00696589 -0.00597694 0.02600000
v -0.00674078 -0.00590866 0.02600000
v -0.00653332 -0.00579776 0.02600000
v -0.00635147 -0.00564853 0.02600000
v -0.00620224 -0.00546668 0.02600000
v -0.00609134 -0.00525922 0.02600000
v -0.00602306 -0.00503411 0.02600000
v -0.00600000 -0.00480000 0.02600000
v -0.00600000 0.00000000 0.00600000
v -0.00600000 0.00000000 0.02600000
f 4 2 1
f 2 7 3
f 6 2 4
f 6 4 5
f 2 9 7
f 7 9 8
f 2 11 1
f 7 13 3
f 13 2 3
f 4 14 5
f 11 4 1
f 14 6 5
f 7 8 17
f 9 19 8
f 21 2 6
f 9 2 26
f 9 23 10
f 20 9 10
f 23 20 10
f 21 26 2
f 11 2 12
f 13 7 16
f 2 13 12
f 4 11 14
f 14 15 6
f 7 17 16
f 17 8 18
f 8 19 18
f 13 11 12
f 17 13 16
f 19 11 13
f 11 15 14
f 19 13 17
f 19 17 18
f 22 6 15
f 11 22 15
f 19 9 20
f 19 33 11
f 33 19 20
f 22 21 6
f 11 43 22
f 43 21 22
f 9 26 23
f 34 23 24
f 23 25 24
f 23 26 25
f 26 28 27
f 26 30 28
f 28 30 29
f 26 32 30
f 32 31 30
f 25 34 24
f 25 26 36
f 37 26 27
f 28 37 27
f 38 28 29
f 30 38 29
f 39 30 31
f 32 41 31
f 26 42 32
f 23 33 20
f 33 23 34
f 38 11 33
f 43 11 38
f 25 35 34
f 35 25 36
f 26 37 36
f 28 38 37
f 38 30 39
f 39 31 40
f 31 41 40
f 33 34 35
f 38 33 35
f 37 35 36
f 38 35 37
f 41 38 39
f 41 39 40
f 32 43 41
f 43 38 41
f 26 21 42
f 21 43 42
f 32 42 43

