# https://github.com/mikedh/trimesh
v -0.02960000 -0.02800000 0.09191516
v -0.02960000 -0.02786681 0.09195556
v -0.02960000 -0.02740002 0.09220507
v -0.02960000 -0.02800000 0.09300000
v -0.02960000 -0.02699087 0.09254085
v -0.02960000 -0.02665509 0.09295000
v -0.02960000 -0.02662836 0.09300000
v -0.02460000 -0.02800000 0.09191516
v -0.02460000 -0.02786681 0.09195556
v -0.02460000 -0.02740002 0.09220507
v -0.02460000 -0.02800000 0.09300000
v -0.02460000 -0.02699087 0.09254085
v -0.02460000 -0.02665509 0.09295000
v -0.02460000 -0.02662836 0.09300000
f 1 3 2
f 4 3 1
f 9 1 2
f 3 9 2
f 8 4 1
f 4 7 3
f 10 3 5
f 7 5 3
f 5 7 6
f 14 7 4
f 5 6 12
f 7 14 6
f 8 1 9
f 3 10 9
f 9 10 8
f 14 8 10
f 4 8 11
f 14 4 11
f 8 14 11
f 10 5 12
f 12 6 13
f 6 14 13
f 14 10 12
f 14 12 13

