# https://github.com/mikedh/trimesh
v 0.02522058 0.01200000 0.05955000
v 0.02548038 0.01148038 0.05948038
v 0.02555000 0.01200000 0.05922058
v 0.02522058 0.01155000 0.06000000
v 0.02510000 0.01200000 0.06000000
v 0.02522058 0.01200000 0.06045000
v 0.02555000 0.01122058 0.06000000
v 0.02548038 0.01148038 0.06051962
v 0.02548038 0.01251962 0.05948038
v 0.02522058 0.01245000 0.06000000
v 0.02600000 0.01155000 0.05922058
v 0.02600000 0.01122058 0.05955000
v 0.02600000 0.01200000 0.05910000
v 0.02651962 0.01148038 0.05948038
v 0.02645000 0.01200000 0.05922058
v 0.02600000 0.01110000 0.06000000
v 0.02600000 0.01122058 0.06045000
v 0.02645000 0.01122058 0.06000000
v 0.02651962 0.01148038 0.06051962
v 0.02600000 0.01245000 0.05922058
v 0.02555000 0.01200000 0.06077942
v 0.02600000 0.01155000 0.06077942
v 0.02677942 0.01200000 0.05955000
v 0.02677942 0.01155000 0.06000000
v 0.02922058 0.01845000 0.06400000
v 0.02922058 0.01800000 0.06445000
v 0.03000000 0.01845000 0.06322058
v 0.03045000 0.01800000 0.06322058
v 0.03000000 0.01755000 0.06477942
v 0.02948038 0.01851962 0.06348038
v 0.02955000 0.01877942 0.06400000
v 0.03000000 0.01877942 0.06355000
v 0.03000000 0.01890000 0.06400000
v 0.02955000 0.01800000 0.06477942
v 0.02948038 0.01851962 0.06451962
v 0.03000000 0.01800000 0.06490000
v 0.03000000 0.01877942 0.06445000
v 0.03000000 0.01845000 0.06477942
v 0.03077942 0.01755000 0.06400000
v 0.03051962 0.01748038 0.06451962
v 0.03051962 0.01851962 0.06348038
v 0.03045000 0.01877942 0.06400000
v 0.03077942 0.01800000 0.06355000
v 0.03090000 0.01800000 0.06400000
v 0.03077942 0.01845000 0.06400000
v 0.03045000 0.01800000 0.06477942
v 0.03051962 0.01851962 0.06451962
v 0.03077942 0.01800000 0.06445000
f 2 1 3
f 1 2 4
f 12 7 2
f 3 11 2
f 4 2 7
f 4 7 8
f 5 1 4
f 4 6 5
f 6 4 8
f 7 17 8
f 9 3 1
f 10 9 1
f 9 20 3
f 10 1 5
f 6 10 5
f 11 12 2
f 12 11 14
f 11 3 13
f 13 15 11
f 12 14 18
f 11 15 14
f 7 12 16
f 16 17 7
f 16 12 18
f 16 18 17
f 17 18 19
f 3 20 13
f 20 15 13
f 6 8 21
f 22 21 8
f 8 17 22
f 19 22 17
f 15 23 14
f 23 24 14
f 14 24 18
f 24 19 18
f 21 26 6
f 10 25 9
f 9 27 20
f 26 10 6
f 15 28 23
f 15 20 28
f 22 34 21
f 22 19 29
f 25 10 26
f 23 39 24
f 39 19 24
f 20 27 28
f 29 34 22
f 9 25 30
f 30 27 9
f 21 34 26
f 23 43 39
f 29 19 40
f 19 39 40
f 43 23 28
f 25 31 30
f 35 31 25
f 25 26 35
f 26 34 35
f 27 30 32
f 32 41 27
f 41 28 27
f 43 28 41
f 34 29 36
f 36 29 46
f 30 31 32
f 32 31 33
f 33 31 37
f 32 33 42
f 33 37 42
f 34 38 35
f 31 35 37
f 38 34 36
f 38 36 46
f 35 38 37
f 38 47 37
f 39 43 44
f 44 48 39
f 29 40 46
f 39 48 40
f 46 40 48
f 41 32 42
f 43 41 45
f 44 43 45
f 44 45 48
f 41 42 45
f 42 47 45
f 38 46 47
f 47 42 37
f 48 45 47
f 46 48 47

