# https://github.com/mikedh/trimesh
v -0.00955557 0.00000000 0.00016853
v -0.00983147 0.00000000 0.00044443
v -0.00970711 0.00000000 0.00029289
v -0.00938268 0.00000000 0.00007612
v -0.00919509 0.00000000 0.00001921
v -0.00992388 0.00000000 0.00061732
v -0.00998079 0.00000000 0.00080491
v -0.00900000 0.00000000 0.00000000
v -0.01000000 0.00000000 0.00100000
v -0.01000000 0.00000000 0.00200000
v -0.00955557 0.00500000 0.00016853
v -0.00960377 0.00521201 0.00023155
v -0.00983147 0.00500000 0.00044443
v -0.00976845 0.00521201 0.00039623
v -0.00970711 0.00500000 0.00029289
v -0.00963571 0.00543789 0.00036429
v -0.00938268 0.00500000 0.00007612
v -0.00940891 0.00520846 0.00011155
v -0.00919509 0.00500000 0.00001921
v -0.00920233 0.00520233 0.00004181
v -0.00942977 0.00542977 0.00020590
v -0.00920846 0.00540891 0.00011155
v -0.00921202 0.00560377 0.00023155
v -0.00943789 0.00563571 0.00036429
v -0.00921202 0.00576845 0.00039623
v -0.00992388 0.00500000 0.00061732
v -0.00988845 0.00520846 0.00059109
v -0.00998079 0.00500000 0.00080491
v -0.00995819 0.00520233 0.00079767
v -0.00979410 0.00542977 0.00057023
v -0.00963571 0.00563571 0.00056211
v -0.00988845 0.00540891 0.00079154
v -0.00976845 0.00560377 0.00078799
v -0.00960377 0.00576845 0.00078799
v -0.00942977 0.00579410 0.00057023
v -0.00920846 0.00588845 0.00059109
v -0.00940891 0.00588845 0.00079154
v -0.00920233 0.00595819 0.00079767
v -0.00900000 0.00500000 0.00000000
v -0.00900000 0.00519509 0.00001921
v -0.00900000 0.00538268 0.00007612
v -0.00900000 0.00555557 0.00016853
v -0.00900000 0.00570711 0.00029289
v -0.00900000 0.00583147 0.00044443
v -0.00900000 0.00592388 0.00061732
v -0.00900000 0.00598079 0.00080491
v -0.01000000 0.00480000 0.00120000
v -0.01000000 0.00500000 0.00100000
v -0.00998079 0.00519509 0.00100000
v -0.00992388 0.00538268 0.00100000
v -0.00983147 0.00555557 0.00100000
v -0.00970711 0.00570711 0.00100000
v -0.00955557 0.00583147 0.00100000
v -0.00938268 0.00592388 0.00100000
v -0.00919509 0.00598079 0.00100000
v -0.01000000 0.00500000 0.00200000
v -0.00998079 0.00519509 0.00200000
v -0.00992388 0.00538268 0.00200000
v -0.00983147 0.00555557 0.00200000
v -0.00970711 0.00570711 0.00200000
v -0.00955557 0.00583147 0.00200000
v -0.00938268 0.00592388 0.00200000
v -0.00919509 0.00598079 0.00200000
v -0.00900000 0.00600000 0.00100000
v -0.00900000 0.00600000 0.00200000
v -0.00600000 0.00000000 0.00000000
v -0.00600000 0.00000000 0.00200000
v -0.00600000 0.00500000 0.00000000
v -0.00600000 0.00519509 0.00001921
v -0.00600000 0.00538268 0.00007612
v -0.00600000 0.00555557 0.00016853
v -0.00600000 0.00570711 0.00029289
v -0.00600000 0.00583147 0.00044443
v -0.00600000 0.00592388 0.00061732
v -0.00600000 0.00598079 0.00080491
v -0.00600000 0.00600000 0.00100000
v -0.00600000 0.00600000 0.00200000
f 4 3 1
f 3 6 2
f 4 6 3
f 8 4 5
f 6 9 7
f 4 10 6
f 13 3 2
f 1 3 15
f 4 19 5
f 4 1 11
f 19 8 5
f 6 13 2
f 26 6 7
f 7 9 28
f 66 4 8
f 66 10 4
f 6 10 9
f 10 47 9
f 15 11 1
f 3 13 15
f 4 11 17
f 19 4 17
f 8 19 39
f 6 26 13
f 26 7 28
f 28 9 48
f 18 11 12
f 11 15 12
f 13 14 15
f 14 13 27
f 14 12 15
f 12 14 16
f 21 12 16
f 16 24 21
f 16 14 30
f 30 31 16
f 24 16 31
f 31 35 24
f 11 18 17
f 19 17 20
f 18 20 17
f 20 40 19
f 39 19 40
f 18 22 20
f 21 18 12
f 22 18 21
f 23 22 21
f 22 41 20
f 41 40 20
f 22 42 41
f 23 42 22
f 43 42 23
f 24 23 21
f 24 25 23
f 25 24 35
f 25 43 23
f 44 25 36
f 44 43 25
f 26 27 13
f 29 27 26
f 29 26 28
f 29 28 49
f 28 48 49
f 27 30 14
f 27 29 32
f 27 32 30
f 32 33 30
f 33 31 30
f 34 31 33
f 35 31 34
f 29 50 32
f 33 32 51
f 50 29 49
f 51 32 50
f 33 51 52
f 52 34 33
f 53 37 34
f 53 34 52
f 25 35 36
f 37 35 34
f 37 36 35
f 36 37 38
f 45 44 36
f 38 45 36
f 46 45 38
f 37 54 38
f 53 54 37
f 55 38 54
f 55 46 38
f 55 64 46
f 9 47 48
f 47 10 56
f 10 59 56
f 49 48 57
f 47 56 48
f 50 49 58
f 51 50 58
f 51 60 52
f 60 53 52
f 61 54 53
f 62 55 54
f 55 63 64
f 56 57 48
f 58 49 57
f 51 58 59
f 60 51 59
f 53 60 61
f 56 59 57
f 57 59 58
f 59 61 60
f 59 63 61
f 54 61 62
f 63 55 62
f 64 63 65
f 61 63 62
f 10 77 59
f 59 77 63
f 63 77 65
f 66 8 68
f 10 66 67
f 77 10 67
f 66 77 67
f 68 8 39
f 39 40 69
f 40 41 69
f 70 41 42
f 43 71 42
f 43 44 72
f 44 45 74
f 74 45 46
f 64 76 46
f 70 66 68
f 66 70 77
f 69 68 39
f 70 69 41
f 71 70 42
f 43 72 71
f 72 44 73
f 70 68 69
f 72 70 71
f 74 70 72
f 74 72 73
f 44 74 73
f 74 46 75
f 46 76 75
f 76 74 75
f 77 70 74
f 77 64 65
f 64 77 76
f 77 74 76

