# https://github.com/mikedh/trimesh
v 0.02900000 0.03400000 0.12422089
v 0.02900000 0.03400000 0.12600000
v 0.02900000 0.03517054 0.12588471
v 0.02900000 0.03760000 0.12453007
v 0.02900000 0.03760000 0.12477004
v 0.02900000 0.03733342 0.12498882
v 0.02900000 0.03629610 0.12554327
v 0.03200000 0.03400000 0.12422089
v 0.03200000 0.03400000 0.12600000
v 0.03200000 0.03517054 0.12588471
v 0.03200000 0.03760000 0.12453007
v 0.03200000 0.03760000 0.12477004
v 0.03200000 0.03733342 0.12498882
v 0.03200000 0.03629610 0.12554327
f 2 4 1
f 8 2 1
f 4 8 1
f 7 2 3
f 2 10 3
f 10 7 3
f 4 7 6
f 4 6 5
f 11 4 5
f 6 13 5
f 4 2 7
f 6 7 14
f 2 8 9
f 2 9 10
f 8 14 9
f 10 9 14
f 8 4 11
f 11 5 12
f 5 13 12
f 14 8 11
f 14 11 13
f 13 11 12
f 14 7 10
f 6 14 13

