# https://github.com/mikedh/trimesh
v -0.01650000 0.00000000 0.04600000
v -0.01650000 0.00000000 0.04840000
v -0.02000000 0.00350000 0.04600000
v -0.02000000 0.00600000 0.04600000
v -0.02000000 0.00350000 0.04840000
v -0.02000000 0.00600000 0.04840000
v -0.01200000 0.00000000 0.04600000
v -0.01200000 0.00000000 0.04840000
v -0.01200000 0.00600000 0.04600000
v -0.01200000 0.00600000 0.04840000
f 3 1 2
f 4 7 1
f 3 2 5
f 4 1 3
f 6 4 3
f 6 3 5
f 2 6 5
f 2 10 6
f 10 4 6
f 7 2 1
f 2 7 8
f 7 10 8
f 10 2 8
f 7 4 9
f 4 10 9
f 10 7 9

