# https://github.com/mikedh/trimesh
v -0.02374161 -0.00250007 0.04600000
v -0.02250007 -0.00374161 0.04600000
v -0.02318198 -0.00318198 0.04600000
v -0.02415746 -0.00172208 0.04600000
v -0.02441353 -0.00087791 0.04600000
v -0.02415746 0.00000000 0.04600000
v -0.02359234 -0.00140766 0.05080000
v -0.02340000 0.00000000 0.05080000
v -0.02172208 -0.00415746 0.04600000
v -0.02087791 -0.00441353 0.04600000
v -0.02000000 -0.00450000 0.04600000
v -0.02082955 -0.00417045 0.05080000
v -0.02000000 -0.00340000 0.05080000
v -0.02200000 0.00000000 0.04600000
v -0.02000000 -0.00200000 0.04600000
v -0.02200000 0.00000000 0.05080000
v -0.02000000 -0.00200000 0.05080000
f 4 3 1
f 3 7 1
f 3 9 2
f 6 11 3
f 12 7 3
f 6 3 4
f 5 4 7
f 7 4 1
f 6 4 5
f 8 6 5
f 6 16 14
f 7 8 5
f 16 6 8
f 7 16 8
f 3 11 9
f 9 12 2
f 12 3 2
f 12 9 10
f 9 11 10
f 11 12 10
f 17 11 15
f 17 7 12
f 12 11 13
f 11 17 13
f 17 12 13
f 11 6 15
f 15 6 14
f 16 15 14
f 17 16 7
f 17 15 16

