# https://github.com/mikedh/trimesh
v -0.03660000 0.02200000 0.05400000
v -0.03660000 0.02142688 0.05800000
v -0.03660000 0.02700000 0.05400000
v -0.03660000 0.02700000 0.05800000
v -0.03300000 0.02322215 0.05584265
v -0.03300000 0.02408658 0.05538060
v -0.03300000 0.02246447 0.05646447
v -0.03300000 0.02184265 0.05722215
v -0.03300000 0.02142688 0.05800000
v -0.03300000 0.02502455 0.05509607
v -0.03300000 0.02600000 0.05500000
v -0.03300000 0.02697545 0.05509607
v -0.03300000 0.02700000 0.05510352
v -0.03300000 0.02700000 0.05800000
f 2 3 1
f 2 1 9
f 1 3 11
f 3 2 4
f 2 14 4
f 14 3 4
f 1 7 8
f 1 5 7
f 1 10 6
f 5 1 6
f 10 5 6
f 9 1 8
f 14 2 9
f 5 9 7
f 7 9 8
f 14 9 5
f 1 11 10
f 11 3 12
f 3 13 12
f 3 14 13
f 11 5 10
f 13 5 11
f 13 11 12
f 14 5 13

