# https://github.com/mikedh/trimesh
v 0.03500000 0.03230448 0.07346927
v 0.03500000 0.03267412 0.07277772
v 0.03500000 0.03317157 0.07217157
v 0.03500000 0.03377772 0.07167412
v 0.03500000 0.03400000 0.07155531
v 0.03500000 0.03207686 0.07421964
v 0.03500000 0.03200000 0.07500000
v 0.03500000 0.03207686 0.07578036
v 0.03500000 0.03230448 0.07653073
v 0.03500000 0.03267412 0.07722228
v 0.03500000 0.03317157 0.07782843
v 0.03500000 0.03377772 0.07832588
v 0.03500000 0.03400000 0.07844469
v 0.03860000 0.03000000 0.06200000
v 0.03860000 0.03000000 0.08600000
v 0.03860000 0.03400000 0.06200000
v 0.03860000 0.03400000 0.08600000
f 14 7 6
f 14 6 1
f 2 14 1
f 14 2 3
f 7 15 8
f 8 15 9
f 15 10 9
f 10 15 11
f 7 2 6
f 6 2 1
f 7 5 2
f 2 5 3
f 3 5 4
f 14 3 4
f 5 14 4
f 10 7 8
f 10 8 9
f 13 7 10
f 5 7 13
f 13 10 11
f 13 11 12
f 11 15 12
f 15 13 12
f 17 5 13
f 14 15 7
f 15 14 17
f 14 5 16
f 5 17 16
f 17 14 16
f 15 17 13

