# https://github.com/mikedh/trimesh
v 0.00800000 -0.01700000 0.05130000
v 0.00800000 -0.01700000 0.05370000
v 0.00933706 -0.01411114 0.05600000
v 0.00900000 -0.01300000 0.05600000
v 0.00915224 -0.01376537 0.05600000
v 0.00903843 -0.01339018 0.05600000
v 0.01060982 -0.01496157 0.05600000
v 0.00958579 -0.01441421 0.05600000
v 0.00988886 -0.01466294 0.05600000
v 0.01023463 -0.01484776 0.05600000
v 0.01100000 -0.01500000 0.05600000
v 0.00800000 0.01700000 0.05130000
v 0.00800000 0.01700000 0.05370000
v 0.00900000 0.01300000 0.05600000
v 0.00903843 0.01339018 0.05600000
v 0.00915224 0.01376537 0.05600000
v 0.00933706 0.01411114 0.05600000
v 0.00958579 0.01441421 0.05600000
v 0.00988886 0.01466294 0.05600000
v 0.01023463 0.01484776 0.05600000
v 0.01060982 0.01496157 0.05600000
v 0.01100000 0.01500000 0.05600000
v 0.03000000 -0.01700000 0.05130000
v 0.03000000 -0.01700000 0.05370000
v 0.02700000 -0.01500000 0.05600000
v 0.02739018 -0.01496157 0.05600000
v 0.02776537 -0.01484776 0.05600000
v 0.02811114 -0.01466294 0.05600000
v 0.02841421 -0.01441421 0.05600000
v 0.02866294 -0.01411114 0.05600000
v 0.02884776 -0.01376537 0.05600000
v 0.02896157 -0.01339018 0.05600000
v 0.02900000 -0.01300000 0.05600000
v 0.03000000 0.01700000 0.05130000
v 0.03000000 0.01700000 0.05370000
v 0.02700000 0.01500000 0.05600000
v 0.02776537 0.01484776 0.05600000
v 0.02811114 0.01466294 0.05600000
v 0.02841421 0.01441421 0.05600000
v 0.02739018 0.01496157 0.05600000
v 0.02896157 0.01339018 0.05600000
v 0.02884776 0.01376537 0.05600000
v 0.02900000 0.01300000 0.05600000
v 0.02866294 0.01411114 0.05600000
f 2 12 1
f 23 2 1
f 12 23 1
f 2 3 5
f 3 2 8
f 9 2 10
f 2 9 8
f 4 2 6
f 2 5 6
f 2 7 10
f 2 11 7
f 3 4 5
f 5 4 6
f 9 3 8
f 11 3 9
f 7 9 10
f 11 9 7
f 14 2 4
f 3 14 4
f 2 24 11
f 28 3 11
f 28 16 3
f 12 2 13
f 34 12 13
f 14 13 2
f 3 16 14
f 13 14 15
f 16 13 15
f 13 16 17
f 18 13 17
f 19 13 18
f 13 19 20
f 13 20 21
f 22 13 21
f 14 16 15
f 16 18 17
f 16 19 18
f 16 22 19
f 19 22 20
f 20 22 21
f 35 13 22
f 16 44 22
f 2 23 24
f 23 35 24
f 11 24 25
f 28 11 25
f 25 24 26
f 26 24 27
f 24 28 27
f 28 24 29
f 29 24 30
f 24 31 30
f 31 24 32
f 24 33 32
f 28 25 26
f 28 26 27
f 31 28 29
f 31 29 30
f 33 28 31
f 33 31 32
f 24 35 33
f 44 28 33
f 23 12 34
f 34 13 35
f 23 34 35
f 44 16 28
f 35 22 36
f 22 44 36
f 33 35 43
f 44 33 43
f 35 36 40
f 37 35 40
f 41 35 42
f 43 35 41
f 35 38 39
f 35 37 38
f 44 35 39
f 35 44 42
f 36 44 37
f 37 44 38
f 38 44 39
f 36 37 40
f 44 43 41
f 44 41 42

