# https://github.com/mikedh/trimesh
v -0.02000000 -0.00340000 0.04600000
v -0.01912209 -0.00441353 0.04600000
v -0.01827792 -0.00415746 0.04600000
v -0.02000000 -0.00450000 0.05080000
v -0.01912209 -0.00441353 0.05080000
v -0.01827792 -0.00415746 0.05080000
v -0.02000000 -0.00200000 0.04600000
v -0.01800000 0.00000000 0.04600000
v -0.02000000 -0.00200000 0.05080000
v -0.01800000 0.00000000 0.05080000
v -0.01749993 -0.00374161 0.04600000
v -0.01681802 -0.00318198 0.04600000
v -0.01625839 -0.00250007 0.04600000
v -0.01749993 -0.00374161 0.05080000
v -0.01681802 -0.00318198 0.05080000
v -0.01625839 -0.00250007 0.05080000
v -0.01584254 -0.00172208 0.04600000
v -0.01660000 0.00000000 0.04600000
v -0.01584254 -0.00172208 0.05080000
v -0.01558647 -0.00087791 0.05080000
v -0.01567293 0.00000000 0.05080000
f 4 1 2
f 1 9 7
f 1 12 2
f 2 12 3
f 6 2 3
f 6 3 11
f 4 2 5
f 6 4 5
f 1 4 9
f 2 6 5
f 15 4 6
f 8 1 7
f 9 8 7
f 8 12 1
f 4 10 9
f 4 20 10
f 9 10 8
f 3 12 11
f 12 15 11
f 12 17 13
f 16 12 13
f 6 11 14
f 11 15 14
f 15 6 14
f 20 4 15
f 15 12 16
f 12 8 17
f 17 8 18
f 8 21 18
f 17 16 13
f 21 17 18
f 8 10 21
f 19 16 17
f 19 17 20
f 20 15 16
f 20 16 19
f 17 21 20
f 10 20 21

