# https://github.com/mikedh/trimesh
v -0.03660000 0.03000000 0.11000000
v -0.03660000 0.03000000 0.11400000
v -0.03660000 0.03400000 0.11000000
v -0.03660000 0.03400000 0.11400000
v -0.03300000 0.03000000 0.11000000
v -0.03300000 0.03057312 0.11000000
v -0.03300000 0.03061940 0.11008659
v -0.03300000 0.03090393 0.11102455
v -0.03300000 0.03090393 0.11297545
v -0.03300000 0.03000000 0.11400000
v -0.03300000 0.03061940 0.11391341
v -0.03300000 0.03057312 0.11400000
v -0.03300000 0.03100000 0.11200000
f 2 3 1
f 5 2 1
f 3 5 1
f 2 12 4
f 3 2 4
f 3 4 13
f 5 3 6
f 6 3 7
f 3 8 7
f 8 3 13
f 8 5 6
f 8 6 7
f 5 8 12
f 2 5 10
f 12 2 10
f 13 4 9
f 4 12 11
f 9 4 11
f 5 12 10
f 12 8 13
f 12 13 9
f 12 9 11

