# https://github.com/mikedh/trimesh
v 0.02400000 -0.04000000 0.12000000
v 0.02400000 -0.03988471 0.12117054
v 0.02400000 -0.03954328 0.12229610
v 0.02400000 -0.03898882 0.12333342
v 0.02400000 -0.03760000 0.12000000
v 0.02400000 -0.03877004 0.12360000
v 0.02400000 -0.03760000 0.12360000
v 0.02900000 -0.04000000 0.12000000
v 0.02900000 -0.03988471 0.12117054
v 0.02900000 -0.03954328 0.12229610
v 0.02900000 -0.03898882 0.12333342
v 0.02900000 -0.03822089 0.12000000
v 0.02850000 -0.03760000 0.12000000
v 0.02900000 -0.03877004 0.12360000
v 0.02900000 -0.03853007 0.12360000
v 0.02850000 -0.03760000 0.12360000
f 3 1 2
f 1 9 2
f 9 3 2
f 5 8 1
f 6 1 3
f 6 3 4
f 4 3 10
f 11 6 4
f 6 5 1
f 5 6 7
f 16 5 7
f 6 16 7
f 1 8 9
f 8 11 9
f 12 14 8
f 3 9 10
f 11 4 10
f 6 11 14
f 11 10 9
f 14 11 8
f 8 5 13
f 5 16 13
f 8 13 12
f 13 16 12
f 16 6 14
f 14 12 15
f 16 14 15
f 12 16 15

