# https://github.com/mikedh/trimesh
v 0.02400000 -0.03760000 0.12360000
v 0.02400000 -0.03760000 0.12477004
v 0.02400000 -0.03733342 0.12498882
v 0.02400000 -0.03629610 0.12554327
v 0.02400000 -0.03400000 0.12360000
v 0.02400000 -0.03517054 0.12588471
v 0.02400000 -0.03400000 0.12600000
v 0.02850000 -0.03760000 0.12360000
v 0.02900000 -0.03760000 0.12453007
v 0.02900000 -0.03760000 0.12477004
v 0.02900000 -0.03733342 0.12498882
v 0.02900000 -0.03629610 0.12554327
v 0.02850000 -0.03400000 0.12360000
v 0.02900000 -0.03400000 0.12422089
v 0.02900000 -0.03517054 0.12588471
v 0.02900000 -0.03400000 0.12600000
f 3 1 2
f 1 9 2
f 7 1 3
f 6 3 4
f 3 2 10
f 3 11 4
f 12 6 4
f 1 7 5
f 13 1 5
f 7 13 5
f 7 3 6
f 15 7 6
f 9 1 8
f 10 2 9
f 1 13 8
f 9 8 14
f 3 10 11
f 12 4 11
f 9 15 10
f 10 12 11
f 15 12 10
f 8 13 14
f 13 16 14
f 15 6 12
f 7 16 13
f 16 7 15
f 9 14 16
f 9 16 15

