# https://github.com/mikedh/trimesh
v 0.02900000 -0.03346993 0.12360000
v 0.02900000 -0.03400000 0.12422089
v 0.02900000 -0.03400000 0.12600000
v 0.02900000 -0.03000000 0.12360000
v 0.02900000 -0.03000000 0.12600000
v 0.03200000 -0.03346993 0.12360000
v 0.03200000 -0.03400000 0.12422089
v 0.03200000 -0.03400000 0.12600000
v 0.03200000 -0.03000000 0.12360000
v 0.03200000 -0.03000000 0.12600000
f 3 1 2
f 3 4 1
f 2 1 6
f 4 6 1
f 8 3 2
f 4 3 5
f 3 10 5
f 10 4 5
f 2 6 7
f 6 8 7
f 8 2 7
f 10 3 8
f 6 10 8
f 6 4 9
f 4 10 9
f 10 6 9

