# https://github.com/mikedh/trimesh
v -0.03300000 -0.02953553 0.10846446
v -0.03300000 -0.02877785 0.10784265
v -0.03300000 -0.03000000 0.10903042
v -0.03300000 -0.03000000 0.11000000
v -0.03241707 -0.03000000 0.10903042
v -0.03300000 -0.02791342 0.10738060
v -0.03300000 -0.02700000 0.10710352
v -0.03300000 -0.02700000 0.11000000
v -0.03100000 -0.02953553 0.10846446
v -0.03100000 -0.02877785 0.10784265
v -0.03100000 -0.03000000 0.10903042
v -0.03100000 -0.03000000 0.11000000
v -0.03100000 -0.02791342 0.10738060
v -0.03100000 -0.02700000 0.10710352
v -0.03100000 -0.02700000 0.11000000
f 4 7 1
f 9 1 2
f 1 5 3
f 4 1 3
f 5 4 3
f 1 9 5
f 12 4 5
f 1 7 2
f 2 7 6
f 2 6 10
f 7 14 6
f 7 4 8
f 4 15 8
f 15 7 8
f 9 2 10
f 15 4 12
f 5 9 11
f 9 12 11
f 12 5 11
f 9 15 12
f 10 6 13
f 6 14 13
f 7 15 14
f 14 9 10
f 14 10 13
f 15 9 14

