# https://github.com/mikedh/trimesh
v -0.03660000 0.02246447 0.10846446
v -0.03660000 0.02408658 0.10738060
v -0.03660000 0.02322215 0.10784265
v -0.03660000 0.02184265 0.10922215
v -0.03660000 0.02142688 0.11000000
v -0.03660000 0.02502455 0.10709608
v -0.03660000 0.02600000 0.10700000
v -0.03660000 0.02697545 0.10709608
v -0.03660000 0.02700000 0.10710352
v -0.03660000 0.02700000 0.11000000
v -0.03300000 0.02246447 0.10846446
v -0.03300000 0.02408658 0.10738060
v -0.03300000 0.02322215 0.10784265
v -0.03300000 0.02184265 0.10922215
v -0.03300000 0.02142688 0.11000000
v -0.03300000 0.02502455 0.10709608
v -0.03300000 0.02600000 0.10700000
v -0.03300000 0.02697545 0.10709608
v -0.03300000 0.02700000 0.10710352
v -0.03300000 0.02700000 0.11000000
f 1 2 3
f 5 9 2
f 1 3 11
f 2 12 3
f 5 1 4
f 5 2 1
f 1 11 4
f 15 5 4
f 2 7 6
f 2 9 7
f 7 9 8
f 12 2 6
f 7 17 6
f 7 8 17
f 9 19 8
f 9 5 10
f 5 20 10
f 20 9 10
f 3 12 13
f 11 3 13
f 12 11 13
f 4 11 14
f 15 4 14
f 20 5 15
f 11 15 14
f 12 15 11
f 12 20 15
f 12 6 16
f 6 17 16
f 17 8 18
f 8 19 18
f 9 20 19
f 17 12 16
f 19 12 17
f 19 17 18
f 20 12 19

