# https://github.com/mikedh/trimesh
v 0.02400000 0.03760000 0.11800000
v 0.02400000 0.03760000 0.12000000
v 0.02400000 0.04000000 0.11800000
v 0.02400000 0.04000000 0.12000000
v 0.02900000 0.03760000 0.11800000
v 0.02900000 0.03760000 0.11946993
v 0.02850000 0.03760000 0.12000000
v 0.02900000 0.03822089 0.12000000
v 0.02900000 0.04000000 0.11800000
v 0.02900000 0.04000000 0.12000000
f 2 3 1
f 5 2 1
f 3 5 1
f 3 2 4
f 2 10 4
f 10 3 4
f 2 5 7
f 10 2 7
f 7 5 6
f 5 8 6
f 8 7 6
f 5 10 8
f 10 7 8
f 5 3 9
f 3 10 9
f 10 5 9

