# https://github.com/mikedh/trimesh
v -0.03160000 0.01400000 0.06300000
v -0.03160000 0.01400000 0.06600000
v -0.03102857 0.00600000 0.06600000
v -0.03160000 0.01800000 0.06300000
v -0.03160000 0.02400000 0.06600000
v -0.02960000 0.01400000 0.06300000
v -0.02960000 0.00600000 0.06600000
v -0.02960000 0.01800000 0.06300000
v -0.03035000 0.02400000 0.06600000
v -0.02960000 0.01800000 0.06600000
f 3 1 6
f 1 3 2
f 3 5 2
f 1 5 4
f 8 1 4
f 5 1 2
f 4 5 9
f 5 3 10
f 3 6 7
f 10 3 7
f 6 10 7
f 8 6 1
f 8 4 9
f 8 10 6
f 5 10 9
f 9 10 8

