# https://github.com/mikedh/trimesh
v -0.01000000 0.00000000 0.00600000
v -0.01000000 0.00000000 0.02600000
v -0.01000000 0.00480000 0.00600000
v -0.00997694 0.00503411 0.00600000
v -0.00993012 0.00518845 0.00600000
v -0.00990866 0.00525922 0.00600000
v -0.00979776 0.00546668 0.00600000
v -0.00964853 0.00564853 0.00600000
v -0.00946668 0.00579776 0.00600000
v -0.00925922 0.00590866 0.00600000
v -0.00903411 0.00597694 0.00600000
v -0.00880000 0.00600000 0.00600000
v -0.01000000 0.00480000 0.02600000
v -0.00997694 0.00503411 0.02600000
v -0.00992088 0.00521892 0.02600000
v -0.00990866 0.00525922 0.02600000
v -0.00979776 0.00546668 0.02600000
v -0.00964853 0.00564853 0.02600000
v -0.00946668 0.00579776 0.02600000
v -0.00925922 0.00590866 0.02600000
v -0.00903411 0.00597694 0.02600000
v -0.00880000 0.00600000 0.02600000
v -0.00600000 0.00000000 0.00600000
v -0.00600000 0.00000000 0.02600000
v -0.00720000 0.00600000 0.00600000
v -0.00696589 0.00597694 0.00600000
v -0.00674078 0.00590866 0.00600000
v -0.00653332 0.00579776 0.00600000
v -0.00600000 0.00480000 0.00600000
v -0.00602306 0.00503411 0.00600000
v -0.00635147 0.00564853 0.00600000
v -0.00620224 0.00546668 0.00600000
v -0.00609134 0.00525922 0.00600000
v -0.00720000 0.00600000 0.02600000
v -0.00696589 0.00597694 0.02600000
v -0.00674078 0.00590866 0.02600000
v -0.00653332 0.00579776 0.02600000
v -0.00600000 0.00480000 0.02600000
v -0.00602306 0.00503411 0.02600000
v -0.00635147 0.00564853 0.02600000
v -0.00620224 0.00546668 0.02600000
v -0.00609134 0.00525922 0.02600000
f 1 2 3
f 2 1 23
f 12 23 1
f 12 1 3
f 5 3 4
f 7 3 5
f 7 5 6
f 11 3 7
f 9 7 8
f 12 3 11
f 7 9 11
f 11 9 10
f 3 13 4
f 15 5 4
f 6 5 15
f 16 7 6
f 7 18 8
f 18 9 8
f 9 20 10
f 20 11 10
f 11 21 12
f 3 2 13
f 2 17 13
f 4 13 14
f 15 4 14
f 15 16 6
f 17 7 16
f 7 17 18
f 18 19 9
f 19 20 9
f 21 11 20
f 13 15 14
f 15 13 17
f 15 17 16
f 17 19 18
f 17 21 19
f 19 21 20
f 2 37 17
f 12 21 22
f 34 12 22
f 17 37 21
f 21 34 22
f 2 23 24
f 37 2 24
f 38 24 23
f 26 12 25
f 12 26 33
f 12 34 25
f 34 26 25
f 23 12 33
f 23 33 29
f 38 23 29
f 31 26 27
f 31 27 28
f 29 33 30
f 33 26 31
f 33 31 32
f 26 35 27
f 27 36 28
f 39 29 30
f 33 39 30
f 31 41 32
f 37 31 28
f 41 33 32
f 26 34 35
f 21 37 34
f 37 24 38
f 36 27 35
f 36 37 28
f 38 29 39
f 33 42 39
f 41 31 40
f 31 37 40
f 42 33 41
f 34 36 35
f 36 34 37
f 42 38 39
f 37 42 41
f 37 41 40
f 37 38 42

