# https://github.com/mikedh/trimesh
v -0.02063509 -0.00063509 0.04266491
v -0.02095263 -0.00055000 0.04330000
v -0.02055000 -0.00095263 0.04330000
v -0.02063509 -0.00063509 0.04863509
v -0.02095263 -0.00055000 0.04800000
v -0.02055000 -0.00095263 0.04800000
v -0.02095263 0.00000000 0.04275000
v -0.02110000 0.00000000 0.04330000
v -0.02095263 0.00055000 0.04330000
v -0.02063509 0.00063509 0.04266491
v -0.02055000 0.00000000 0.04234737
v -0.02055000 0.00095263 0.04330000
v -0.02110000 0.00000000 0.04800000
v -0.02095263 0.00000000 0.04855000
v -0.02095263 0.00055000 0.04800000
v -0.02063509 0.00063509 0.04863509
v -0.02055000 0.00000000 0.04895263
v -0.02055000 0.00095263 0.04800000
v -0.02000000 -0.00095263 0.04275000
v -0.02000000 -0.00110000 0.04330000
v -0.02000000 -0.00055000 0.04234737
v -0.01945000 -0.00095263 0.04330000
v -0.01936491 -0.00063509 0.04266491
v -0.01904737 -0.00055000 0.04330000
v -0.02000000 -0.00110000 0.04800000
v -0.02000000 -0.00095263 0.04855000
v -0.02000000 -0.00055000 0.04895263
v -0.01945000 -0.00095263 0.04800000
v -0.01936491 -0.00063509 0.04863509
v -0.01904737 -0.00055000 0.04800000
v -0.02000000 0.00000000 0.04220000
v -0.02000000 0.00055000 0.04234737
v -0.02000000 0.00095263 0.04275000
v -0.02000000 0.00110000 0.04330000
v -0.01945000 0.00000000 0.04234737
v -0.01904737 0.00000000 0.04275000
v -0.01890000 0.00000000 0.04330000
v -0.01936491 0.00063509 0.04266491
v -0.01945000 0.00095263 0.04330000
v -0.01904737 0.00055000 0.04330000
v -0.02000000 0.00000000 0.04910000
v -0.02000000 0.00055000 0.04895263
v -0.02000000 0.00110000 0.04800000
v -0.02000000 0.00095263 0.04855000
v -0.01945000 0.00000000 0.04895263
v -0.01890000 0.00000000 0.04800000
v -0.01904737 0.00000000 0.04855000
v -0.01936491 0.00063509 0.04863509
v -0.01945000 0.00095263 0.04800000
v -0.01904737 0.00055000 0.04800000
f 3 2 1
f 3 6 2
f 2 7 1
f 7 2 8
f 1 7 11
f 2 5 8
f 1 19 3
f 19 20 3
f 19 1 21
f 20 6 3
f 1 11 21
f 21 11 31
f 5 2 6
f 5 6 4
f 8 5 13
f 5 4 14
f 13 5 14
f 4 17 14
f 20 25 6
f 4 6 26
f 25 26 6
f 4 26 27
f 17 4 27
f 27 41 17
f 7 8 9
f 9 10 7
f 10 11 7
f 8 13 9
f 10 9 12
f 18 12 9
f 32 11 10
f 11 32 31
f 10 12 33
f 10 33 32
f 12 34 33
f 12 18 34
f 9 13 15
f 13 14 15
f 16 15 14
f 14 17 16
f 18 9 15
f 16 18 15
f 17 42 16
f 17 41 42
f 34 18 43
f 18 16 44
f 42 44 16
f 43 18 44
f 20 19 22
f 23 19 21
f 19 23 22
f 22 28 20
f 35 21 31
f 35 23 21
f 22 23 24
f 30 22 24
f 23 35 36
f 24 23 36
f 24 36 37
f 46 24 37
f 25 20 28
f 26 25 28
f 26 29 27
f 29 26 28
f 41 27 45
f 27 29 45
f 22 30 28
f 28 30 29
f 30 24 46
f 47 45 29
f 29 30 47
f 30 46 47
f 31 32 35
f 38 35 32
f 33 38 32
f 34 39 33
f 39 38 33
f 34 49 39
f 35 38 36
f 40 37 36
f 36 38 40
f 37 40 50
f 39 40 38
f 39 49 40
f 45 42 41
f 48 42 45
f 34 43 49
f 48 44 42
f 49 43 44
f 48 49 44
f 50 46 37
f 48 45 47
f 46 50 47
f 50 48 47
f 40 49 50
f 49 48 50

