# https://github.com/mikedh/trimesh
v 0.00600000 -0.00583147 0.04044443
v 0.00600000 -0.00570711 0.04029289
v 0.00600000 -0.00555557 0.04016853
v 0.00600000 -0.00538268 0.04007612
v 0.00609134 -0.00525922 0.04000000
v 0.00620224 -0.00546668 0.04000000
v 0.00635147 -0.00564853 0.04000000
v 0.00600000 -0.00592388 0.04061732
v 0.00600000 -0.00598079 0.04080491
v 0.00600000 -0.00519509 0.04001921
v 0.00600000 -0.00500000 0.04000000
v 0.00653332 -0.00579776 0.04000000
v 0.00674078 -0.00590866 0.04000000
v 0.00696589 -0.00597694 0.04000000
v 0.00600000 -0.00600000 0.04100000
v 0.00720000 -0.00600000 0.04000000
v 0.00600000 -0.00600000 0.04360000
v 0.00600000 0.00000000 0.04000000
v 0.00600000 0.00000000 0.04360000
v 0.00880000 -0.00600000 0.04000000
v 0.00903411 -0.00597694 0.04000000
v 0.00925922 -0.00590866 0.04000000
v 0.00946668 -0.00579776 0.04000000
v 0.00964744 -0.00564942 0.04000000
v 0.00964853 -0.00564853 0.04000000
v 0.01000000 -0.00583147 0.04044443
v 0.01000000 -0.00570711 0.04029289
v 0.00979776 -0.00546668 0.04000000
v 0.01000000 -0.00555557 0.04016853
v 0.00990866 -0.00525922 0.04000000
v 0.01000000 -0.00538268 0.04007612
v 0.01000000 -0.00592388 0.04061732
v 0.01000000 -0.00597883 0.04079846
v 0.01000000 -0.00598079 0.04080491
v 0.01000000 -0.00519509 0.04001921
v 0.01000000 -0.00503774 0.04000372
v 0.01000000 -0.00500000 0.04000000
v 0.01000000 -0.00600000 0.04100000
v 0.01000000 -0.00600000 0.04360000
v 0.01000000 0.00000000 0.04000000
v 0.01000000 0.00000000 0.04360000
f 3 7 2
f 1 3 2
f 13 8 1
f 1 2 12
f 7 3 4
f 3 10 4
f 3 11 10
f 6 4 10
f 10 5 6
f 7 4 6
f 5 7 6
f 11 7 5
f 2 7 12
f 13 1 12
f 9 1 8
f 9 3 1
f 14 9 8
f 9 16 15
f 10 11 5
f 13 14 8
f 7 13 12
f 16 9 14
f 7 11 16
f 7 16 13
f 13 16 14
f 17 3 9
f 16 17 15
f 3 18 11
f 18 16 11
f 18 3 17
f 38 17 16
f 17 9 15
f 18 40 16
f 18 17 19
f 17 41 19
f 41 18 19
f 16 21 20
f 16 30 21
f 38 16 20
f 21 24 22
f 32 21 22
f 22 24 23
f 20 21 34
f 26 22 23
f 21 30 24
f 24 27 23
f 24 30 25
f 27 24 25
f 27 25 29
f 26 32 22
f 27 26 23
f 27 29 26
f 25 30 28
f 31 25 28
f 25 31 29
f 29 37 26
f 31 28 35
f 35 28 30
f 37 29 31
f 38 20 34
f 33 21 32
f 21 33 34
f 26 33 32
f 26 38 33
f 33 38 34
f 36 31 35
f 30 37 35
f 37 31 36
f 37 36 35
f 26 39 38
f 16 40 30
f 40 26 37
f 30 40 37
f 38 39 17
f 41 17 39
f 26 41 39
f 18 41 40
f 41 26 40

