# https://github.com/mikedh/trimesh
v 0.00600000 0.00000000 0.00600000
v 0.00600000 0.00000000 0.02600000
v 0.00600000 0.00480000 0.00600000
v 0.00602306 0.00503411 0.00600000
v 0.00609134 0.00525922 0.00600000
v 0.00620224 0.00546668 0.00600000
v 0.00627518 0.00555557 0.00600000
v 0.00635147 0.00564853 0.00600000
v 0.00653332 0.00579776 0.00600000
v 0.00674078 0.00590866 0.00600000
v 0.00696589 0.00597694 0.00600000
v 0.00720000 0.00600000 0.00600000
v 0.00600000 0.00480000 0.02600000
v 0.00602306 0.00503411 0.02600000
v 0.00609134 0.00525922 0.02600000
v 0.00620224 0.00546668 0.02600000
v 0.00635147 0.00564853 0.02600000
v 0.00653332 0.00579776 0.02600000
v 0.00674078 0.00590866 0.02600000
v 0.00696589 0.00597694 0.02600000
v 0.00720000 0.00600000 0.02600000
v 0.01000000 0.00000000 0.00600000
v 0.01000000 0.00000000 0.02600000
v 0.00880000 0.00600000 0.00600000
v 0.00903411 0.00597694 0.00600000
v 0.00925922 0.00590866 0.00600000
v 0.00946668 0.00579776 0.00600000
v 0.00947891 0.00578773 0.00600000
v 0.01000000 0.00480000 0.00600000
v 0.00997694 0.00503411 0.00600000
v 0.00964853 0.00564853 0.00600000
v 0.00979776 0.00546668 0.00600000
v 0.00990866 0.00525922 0.00600000
v 0.00880000 0.00600000 0.02600000
v 0.00903411 0.00597694 0.02600000
v 0.00923865 0.00591489 0.02600000
v 0.00925922 0.00590866 0.02600000
v 0.00946668 0.00579776 0.02600000
v 0.01000000 0.00480000 0.02600000
v 0.00997694 0.00503411 0.02600000
v 0.00964853 0.00564853 0.02600000
v 0.00980632 0.00545068 0.02600000
v 0.00979776 0.00546668 0.02600000
v 0.00990866 0.00525922 0.02600000
f 1 2 3
f 2 1 22
f 12 22 1
f 12 1 3
f 5 3 4
f 7 3 5
f 7 5 6
f 11 3 7
f 10 7 8
f 12 3 11
f 10 8 9
f 11 7 10
f 3 14 4
f 14 5 4
f 5 16 6
f 16 7 6
f 7 17 8
f 18 9 8
f 19 10 9
f 20 11 10
f 11 20 12
f 3 2 13
f 2 16 13
f 3 13 14
f 15 5 14
f 15 16 5
f 7 16 17
f 8 17 18
f 18 19 9
f 20 10 19
f 13 15 14
f 15 13 16
f 16 18 17
f 16 20 18
f 18 20 19
f 2 38 16
f 12 20 21
f 34 12 21
f 16 38 20
f 20 34 21
f 2 22 23
f 38 2 23
f 39 23 22
f 25 12 24
f 12 25 33
f 12 34 24
f 25 24 35
f 22 12 33
f 22 33 29
f 39 22 29
f 28 25 26
f 33 25 28
f 28 26 27
f 29 33 30
f 33 28 32
f 32 28 31
f 25 36 26
f 38 28 27
f 26 38 27
f 40 29 30
f 33 40 30
f 41 32 31
f 28 41 31
f 42 33 32
f 24 34 35
f 20 38 34
f 38 23 39
f 25 35 36
f 26 36 37
f 38 26 37
f 39 29 40
f 40 33 44
f 32 41 43
f 28 38 41
f 33 42 44
f 42 32 43
f 34 36 35
f 36 34 38
f 36 38 37
f 42 39 40
f 42 40 44
f 38 42 41
f 38 39 42
f 41 42 43

