# https://github.com/mikedh/trimesh
v -0.03300000 -0.03090393 0.11102455
v -0.03300000 -0.03061940 0.11008659
v -0.03300000 -0.03057312 0.11000000
v -0.03300000 -0.03100000 0.11200000
v -0.03300000 -0.03090393 0.11297545
v -0.03300000 -0.03061940 0.11391341
v -0.03300000 -0.03057312 0.11400000
v -0.03300000 -0.03000000 0.11000000
v -0.03300000 -0.03000000 0.11400000
v -0.03100000 -0.03090393 0.11102455
v -0.03100000 -0.03061940 0.11008659
v -0.03100000 -0.03057312 0.11000000
v -0.03100000 -0.03100000 0.11200000
v -0.03100000 -0.03090393 0.11297545
v -0.03100000 -0.03061940 0.11391341
v -0.03100000 -0.03057312 0.11400000
v -0.03100000 -0.03000000 0.11000000
v -0.03100000 -0.03000000 0.11400000
f 1 3 2
f 1 13 4
f 11 1 2
f 3 12 2
f 5 1 4
f 7 1 5
f 7 5 6
f 13 5 4
f 5 15 6
f 15 7 6
f 3 1 8
f 7 8 1
f 8 17 3
f 8 7 9
f 18 8 9
f 7 18 9
f 10 1 11
f 1 10 13
f 12 11 2
f 12 10 11
f 5 13 14
f 15 5 14
f 7 15 16
f 10 15 13
f 13 15 14
f 10 18 15
f 3 17 12
f 8 18 17
f 17 10 12
f 18 10 17
f 18 7 16
f 15 18 16

