# https://github.com/mikedh/trimesh
v -0.01000000 0.00000000 0.04000000
v -0.01000000 0.00000000 0.04150000
v -0.01000000 0.00500000 0.04000000
v -0.01000000 0.00519509 0.04001921
v -0.00990866 0.00525922 0.04000000
v -0.01000000 0.00538268 0.04007612
v -0.00979776 0.00546668 0.04000000
v -0.01000000 0.00555557 0.04016853
v -0.00964853 0.00564853 0.04000000
v -0.01000000 0.00570711 0.04029289
v -0.00946668 0.00579776 0.04000000
v -0.00940194 0.00583237 0.04000000
v -0.00925922 0.00590866 0.04000000
v -0.00903411 0.00597694 0.04000000
v -0.01000000 0.00583147 0.04044443
v -0.01000000 0.00592388 0.04061732
v -0.00880000 0.00600000 0.04000000
v -0.01000000 0.00598079 0.04080491
v -0.01000000 0.00600000 0.04100000
v -0.01000000 0.00600000 0.04150000
v -0.00600000 0.00000000 0.04000000
v -0.00600000 0.00000000 0.04150000
v -0.00720000 0.00600000 0.04000000
v -0.00696589 0.00597694 0.04000000
v -0.00674078 0.00590866 0.04000000
v -0.00653332 0.00579776 0.04000000
v -0.00600000 0.00500000 0.04000000
v -0.00600000 0.00519509 0.04001921
v -0.00635147 0.00564853 0.04000000
v -0.00620224 0.00546668 0.04000000
v -0.00609134 0.00525922 0.04000000
v -0.00600000 0.00538268 0.04007612
v -0.00600000 0.00555557 0.04016853
v -0.00600000 0.00564594 0.04024270
v -0.00600000 0.00570711 0.04029289
v -0.00600000 0.00583147 0.04044443
v -0.00600000 0.00592388 0.04061732
v -0.00600000 0.00597322 0.04077996
v -0.00600000 0.00598079 0.04080491
v -0.00600000 0.00600000 0.04100000
v -0.00600000 0.00600000 0.04150000
f 21 2 1
f 17 21 1
f 1 2 20
f 1 4 3
f 17 1 3
f 1 20 4
f 3 4 5
f 7 3 5
f 4 7 5
f 7 4 6
f 4 8 6
f 6 8 9
f 11 3 7
f 7 6 9
f 8 10 9
f 7 9 11
f 11 9 10
f 11 15 13
f 4 15 8
f 15 11 10
f 8 15 10
f 13 15 16
f 17 3 11
f 12 11 13
f 17 11 12
f 17 12 13
f 17 13 14
f 13 16 14
f 18 17 14
f 18 14 16
f 4 20 15
f 15 18 16
f 17 18 19
f 15 20 18
f 20 17 19
f 18 20 19
f 2 41 20
f 17 20 41
f 2 21 22
f 41 2 22
f 21 41 22
f 24 17 23
f 31 17 24
f 17 41 23
f 21 17 31
f 21 31 27
f 28 21 27
f 41 21 28
f 24 25 29
f 29 25 26
f 24 23 39
f 24 37 25
f 31 28 27
f 31 24 29
f 25 36 26
f 29 26 35
f 31 29 30
f 29 32 30
f 28 31 30
f 28 30 32
f 33 28 32
f 29 33 32
f 33 29 35
f 36 28 33
f 36 35 26
f 34 33 35
f 37 36 25
f 36 33 34
f 36 34 35
f 24 38 37
f 39 38 24
f 23 40 39
f 41 28 36
f 38 36 37
f 40 36 38
f 40 23 41
f 40 38 39
f 41 36 40

