# https://github.com/mikedh/trimesh
v -0.01188845 -0.00540891 0.04079154
v -0.01179410 -0.00542977 0.04057023
v -0.01176845 -0.00560377 0.04078799
v -0.01183147 -0.00500000 0.04044443
v -0.01176845 -0.00521201 0.04039623
v -0.01188845 -0.00520846 0.04059109
v -0.01192388 -0.00500000 0.04061732
v -0.01195819 -0.00520233 0.04079766
v -0.01198079 -0.00500000 0.04080491
v -0.01163571 -0.00543789 0.04036429
v -0.01163571 -0.00563571 0.04056211
v -0.01160377 -0.00576845 0.04078799
v -0.01170711 -0.00500000 0.04029289
v -0.01155557 -0.00500000 0.04016853
v -0.01160377 -0.00521201 0.04023155
v -0.01192388 -0.00538268 0.04100000
v -0.01183147 -0.00555557 0.04100000
v -0.01198079 -0.00519509 0.04100000
v -0.01200000 -0.00500000 0.04100000
v -0.01170711 -0.00570711 0.04100000
v -0.01155557 -0.00583147 0.04100000
v -0.01143789 -0.00563571 0.04036429
v -0.01142977 -0.00542977 0.04020589
v -0.01142977 -0.00579410 0.04057023
v -0.01140891 -0.00588845 0.04079154
v -0.01140891 -0.00520846 0.04011155
v -0.01138268 -0.00500000 0.04007612
v -0.01121202 -0.00576845 0.04039623
v -0.01120846 -0.00540891 0.04011155
v -0.01121202 -0.00560377 0.04023155
v -0.01120846 -0.00588845 0.04059109
v -0.01120233 -0.00595819 0.04079766
v -0.01120233 -0.00520233 0.04004181
v -0.01119509 -0.00500000 0.04001921
v -0.01138268 -0.00592388 0.04100000
v -0.01119509 -0.00598079 0.04100000
v -0.01192388 -0.00538268 0.04360000
v -0.01183147 -0.00555557 0.04360000
v -0.01198079 -0.00519509 0.04360000
v -0.01200000 -0.00500000 0.04360000
v -0.01170711 -0.00570711 0.04360000
v -0.01155557 -0.00583147 0.04360000
v -0.01138268 -0.00592388 0.04360000
v -0.01119509 -0.00598079 0.04360000
v -0.01183147 0.00000000 0.04044443
v -0.01192388 0.00000000 0.04061732
v -0.01198079 0.00000000 0.04080491
v -0.01170711 0.00000000 0.04029289
v -0.01155557 0.00000000 0.04016853
v -0.01200000 0.00000000 0.04100000
v -0.01138268 0.00000000 0.04007612
v -0.01119509 0.00000000 0.04001921
v -0.01200000 0.00000000 0.04360000
v -0.01100000 -0.00583147 0.04044443
v -0.01100000 -0.00570711 0.04029289
v -0.01100000 -0.00555557 0.04016853
v -0.01100000 -0.00538268 0.04007612
v -0.01100000 -0.00592388 0.04061732
v -0.01100000 -0.00598079 0.04080491
v -0.01100000 -0.00519509 0.04001921
v -0.01100000 -0.00500000 0.04000000
v -0.01100000 -0.00600000 0.04100000
v -0.01000000 -0.00583147 0.04044443
v -0.01000000 -0.00570711 0.04029289
v -0.01000000 -0.00555557 0.04016853
v -0.01000000 -0.00538268 0.04007612
v -0.01000000 -0.00592388 0.04061732
v -0.01000000 -0.00598079 0.04080491
v -0.01000000 -0.00519509 0.04001921
v -0.01000000 -0.00500000 0.04000000
v -0.01000000 -0.00600000 0.04100000
v -0.01100000 -0.00600000 0.04360000
v -0.01000000 -0.00600000 0.04360000
v -0.01100000 0.00000000 0.04000000
v -0.01000000 0.00000000 0.04000000
v -0.01000000 0.00000000 0.04360000
f 1 8 6
f 8 1 16
f 2 6 5
f 2 1 6
f 1 2 3
f 17 1 3
f 13 5 4
f 6 7 4
f 6 8 7
f 8 9 7
f 9 8 18
f 6 4 5
f 2 5 10
f 15 10 5
f 22 11 10
f 10 23 22
f 15 23 10
f 20 3 12
f 3 11 12
f 11 2 10
f 2 11 3
f 11 22 24
f 24 12 11
f 12 25 21
f 13 15 5
f 15 14 26
f 15 13 14
f 8 16 18
f 16 1 17
f 17 3 20
f 19 9 18
f 21 20 12
f 4 45 13
f 47 7 9
f 45 4 7
f 13 49 14
f 19 50 9
f 23 15 26
f 22 28 24
f 28 22 30
f 23 26 29
f 30 23 29
f 33 29 26
f 30 22 23
f 25 12 24
f 31 25 24
f 28 31 24
f 32 35 25
f 25 31 32
f 27 26 14
f 26 27 33
f 27 34 33
f 28 30 55
f 56 30 29
f 57 29 33
f 28 55 54
f 29 57 56
f 60 57 33
f 30 56 55
f 28 54 31
f 32 31 58
f 36 32 59
f 58 31 54
f 32 58 59
f 34 60 33
f 34 61 60
f 35 21 25
f 35 32 36
f 62 36 59
f 49 27 14
f 27 51 34
f 34 52 61
f 16 37 18
f 16 17 38
f 19 18 39
f 41 17 20
f 42 20 21
f 18 37 39
f 16 38 37
f 17 41 38
f 41 37 38
f 19 39 40
f 37 40 39
f 41 20 42
f 43 37 41
f 43 41 42
f 53 19 40
f 37 53 40
f 35 42 21
f 44 35 36
f 62 44 36
f 35 43 42
f 43 35 44
f 72 44 62
f 72 43 44
f 73 37 43
f 45 7 46
f 7 47 46
f 50 47 9
f 13 45 48
f 49 13 48
f 47 45 46
f 50 45 47
f 45 49 48
f 45 51 49
f 53 45 50
f 51 27 49
f 52 34 51
f 61 52 74
f 45 52 51
f 45 75 52
f 53 50 19
f 37 76 53
f 45 53 76
f 55 63 54
f 56 57 66
f 56 65 55
f 69 57 60
f 63 58 54
f 59 58 68
f 68 62 59
f 61 69 60
f 55 65 64
f 63 55 64
f 65 56 66
f 66 57 69
f 58 63 67
f 68 58 67
f 61 70 69
f 65 63 64
f 69 65 66
f 70 65 69
f 63 68 67
f 65 68 63
f 62 68 71
f 65 73 68
f 75 70 61
f 75 65 70
f 73 43 72
f 72 62 73
f 37 73 76
f 73 62 71
f 68 73 71
f 65 76 73
f 75 61 74
f 52 75 74
f 45 76 75
f 65 75 76

