# https://github.com/mikedh/trimesh
v 0.00600000 -0.00600000 0.00200000
v 0.00600000 -0.00598079 0.00219509
v 0.00600000 -0.00592388 0.00238268
v 0.00600000 -0.00583147 0.00255557
v 0.00600000 -0.00570711 0.00270711
v 0.00600000 -0.00555557 0.00283147
v 0.00600000 -0.00538268 0.00292388
v 0.00609146 -0.00525944 0.00300000
v 0.00609134 -0.00525922 0.00300000
v 0.00620224 -0.00546668 0.00300000
v 0.00635147 -0.00564853 0.00300000
v 0.00642371 -0.00570781 0.00300000
v 0.00600000 -0.00519509 0.00298079
v 0.00600000 -0.00500000 0.00300000
v 0.00653332 -0.00579776 0.00300000
v 0.00674078 -0.00590866 0.00300000
v 0.00696589 -0.00597694 0.00300000
v 0.00720000 -0.00600000 0.00300000
v 0.00600000 0.00000000 0.00200000
v 0.00600000 0.00000000 0.00300000
v 0.00900000 -0.00600000 0.00200000
v 0.00919509 -0.00598079 0.00200000
v 0.00938268 -0.00592388 0.00200000
v 0.00955557 -0.00583147 0.00200000
v 0.00970711 -0.00570711 0.00200000
v 0.00983147 -0.00555557 0.00200000
v 0.00992388 -0.00538268 0.00200000
v 0.00998079 -0.00519509 0.00200000
v 0.01000000 -0.00500000 0.00200000
v 0.00880000 -0.00600000 0.00300000
v 0.00903411 -0.00597694 0.00300000
v 0.00925922 -0.00590866 0.00300000
v 0.00946668 -0.00579776 0.00300000
v 0.00964853 -0.00564853 0.00300000
v 0.00978563 -0.00548147 0.00300000
v 0.00979776 -0.00546668 0.00300000
v 0.00990866 -0.00525922 0.00300000
v 0.00997694 -0.00503411 0.00300000
v 0.01000000 -0.00480000 0.00300000
v 0.01000000 0.00000000 0.00200000
v 0.01000000 0.00000000 0.00300000
f 1 2 3
f 5 1 3
f 1 18 2
f 19 1 14
f 18 1 21
f 19 29 1
f 5 3 4
f 5 14 1
f 3 2 17
f 3 16 4
f 2 18 17
f 15 5 4
f 5 11 6
f 7 5 6
f 16 15 4
f 6 11 7
f 14 5 7
f 13 7 10
f 13 10 9
f 7 11 10
f 10 12 8
f 10 8 9
f 5 15 11
f 15 12 11
f 12 10 11
f 14 7 13
f 8 14 9
f 14 13 9
f 16 3 17
f 16 12 15
f 18 8 12
f 18 12 16
f 18 16 17
f 38 8 18
f 14 8 41
f 19 14 20
f 14 41 20
f 41 19 20
f 1 22 21
f 1 29 22
f 22 24 23
f 22 27 24
f 24 27 25
f 29 27 22
f 25 27 26
f 28 27 29
f 31 21 22
f 31 22 23
f 24 32 23
f 25 34 24
f 36 25 26
f 27 36 26
f 37 27 28
f 39 28 29
f 18 21 30
f 21 31 30
f 31 18 30
f 35 18 31
f 18 35 38
f 41 8 38
f 32 31 23
f 24 33 32
f 24 34 33
f 36 34 25
f 27 37 36
f 38 37 28
f 39 38 28
f 32 33 31
f 31 33 35
f 35 33 34
f 36 35 34
f 37 35 36
f 38 35 37
f 29 41 39
f 41 38 39
f 29 19 40
f 19 41 40
f 41 29 40

