# https://github.com/mikedh/trimesh
v 0.02900000 0.03822089 0.12000000
v 0.02900000 0.03853007 0.12360000
v 0.02900000 0.03877004 0.12360000
v 0.02900000 0.03898882 0.12333342
v 0.02900000 0.04000000 0.12000000
v 0.02900000 0.03988471 0.12117054
v 0.02900000 0.03954328 0.12229610
v 0.03200000 0.03822089 0.12000000
v 0.03200000 0.03853007 0.12360000
v 0.03200000 0.03877004 0.12360000
v 0.03200000 0.03898882 0.12333342
v 0.03200000 0.04000000 0.12000000
v 0.03200000 0.03988471 0.12117054
v 0.03200000 0.03954328 0.12229610
f 2 5 1
f 8 2 1
f 5 8 1
f 4 2 3
f 7 2 4
f 2 10 3
f 10 4 3
f 5 7 6
f 13 5 6
f 7 13 6
f 5 2 7
f 11 7 4
f 2 8 9
f 2 9 10
f 11 4 10
f 8 14 9
f 9 11 10
f 11 9 14
f 8 5 12
f 13 12 5
f 14 8 12
f 14 12 13
f 14 7 11
f 7 14 13

