# https://github.com/mikedh/trimesh
v -0.01563509 -0.01463509 0.05296491
v -0.01500000 -0.01455000 0.05264737
v -0.01500000 -0.01495263 0.05305000
v -0.01595263 -0.01455000 0.05360000
v -0.01555000 -0.01495263 0.05360000
v -0.01563509 -0.01463509 0.05423509
v -0.01500000 -0.01510000 0.05360000
v -0.01500000 -0.01495263 0.05415000
v -0.01500000 -0.01455000 0.05455263
v -0.01555000 -0.01400000 0.05264737
v -0.01595263 -0.01400000 0.05305000
v -0.01563509 -0.01336491 0.05296491
v -0.01500000 -0.01400000 0.05250000
v -0.01500000 -0.01345000 0.05264737
v -0.01500000 -0.01304737 0.05305000
v -0.01610000 -0.01400000 0.05360000
v -0.01595263 -0.01400000 0.05415000
v -0.01555000 -0.01400000 0.05455263
v -0.01595263 -0.01345000 0.05360000
v -0.01555000 -0.01304737 0.05360000
v -0.01563509 -0.01336491 0.05423509
v -0.01500000 -0.01400000 0.05470000
v -0.01500000 -0.01290000 0.05360000
v -0.01500000 -0.01304737 0.05415000
v -0.01500000 -0.01345000 0.05455263
v -0.01300000 -0.01455000 0.05264737
v -0.01300000 -0.01495263 0.05305000
v -0.01236491 -0.01463509 0.05296491
v -0.01300000 -0.01510000 0.05360000
v -0.01300000 -0.01495263 0.05415000
v -0.01300000 -0.01455000 0.05455263
v -0.01245000 -0.01495263 0.05360000
v -0.01204737 -0.01455000 0.05360000
v -0.01236491 -0.01463509 0.05423509
v -0.01300000 -0.01400000 0.05250000
v -0.01300000 -0.01345000 0.05264737
v -0.01300000 -0.01304737 0.05305000
v -0.01245000 -0.01400000 0.05264737
v -0.01204737 -0.01400000 0.05305000
v -0.01236491 -0.01336491 0.05296491
v -0.01300000 -0.01400000 0.05470000
v -0.01300000 -0.01290000 0.05360000
v -0.01300000 -0.01304737 0.05415000
v -0.01300000 -0.01345000 0.05455263
v -0.01190000 -0.01400000 0.05360000
v -0.01204737 -0.01400000 0.05415000
v -0.01245000 -0.01400000 0.05455263
v -0.01245000 -0.01304737 0.05360000
v -0.01204737 -0.01345000 0.05360000
v -0.01236491 -0.01336491 0.05423509
f 1 2 3
f 5 4 1
f 5 1 3
f 5 3 7
f 10 1 11
f 10 2 1
f 2 10 13
f 4 11 1
f 16 11 4
f 26 3 2
f 3 29 7
f 13 26 2
f 5 6 4
f 8 5 7
f 5 8 6
f 6 8 9
f 4 6 17
f 16 4 17
f 17 6 18
f 6 9 18
f 9 22 18
f 7 29 8
f 9 8 30
f 9 31 22
f 12 10 11
f 10 14 13
f 14 10 12
f 16 19 11
f 12 11 19
f 15 14 12
f 20 12 19
f 15 12 20
f 15 20 23
f 13 14 36
f 15 36 14
f 42 15 23
f 19 16 17
f 17 21 19
f 17 18 21
f 22 25 18
f 25 21 18
f 19 21 20
f 23 20 24
f 21 24 20
f 21 25 24
f 25 22 44
f 24 43 23
f 24 25 43
f 3 26 27
f 29 3 27
f 35 26 13
f 26 28 27
f 27 28 32
f 27 32 29
f 28 33 32
f 26 38 28
f 26 35 38
f 38 39 28
f 39 33 28
f 33 39 45
f 8 29 30
f 31 9 30
f 22 31 41
f 30 29 32
f 34 30 32
f 34 32 33
f 31 30 34
f 46 34 33
f 46 33 45
f 47 31 34
f 31 47 41
f 46 47 34
f 13 36 35
f 36 15 37
f 42 37 15
f 35 36 38
f 36 40 38
f 40 39 38
f 49 45 39
f 49 39 40
f 40 36 37
f 40 37 48
f 37 42 48
f 49 40 48
f 22 41 44
f 43 42 23
f 25 44 43
f 46 45 49
f 50 46 49
f 41 47 44
f 47 50 44
f 50 47 46
f 42 43 48
f 50 48 43
f 50 49 48
f 44 50 43

