# https://github.com/mikedh/trimesh
v -0.02960000 -0.03040010 0.09220507
v -0.02960000 -0.02993330 0.09195556
v -0.02960000 -0.03080925 0.09254085
v -0.02960000 -0.03114503 0.09295000
v -0.02960000 -0.03117175 0.09300000
v -0.02960000 -0.02942680 0.09180192
v -0.02960000 -0.02890006 0.09175004
v -0.02960000 -0.02837331 0.09180192
v -0.02960000 -0.02800000 0.09191516
v -0.02960000 -0.02800000 0.09300000
v -0.02460000 -0.03040010 0.09220507
v -0.02460000 -0.02993330 0.09195556
v -0.02460000 -0.03080925 0.09254085
v -0.02460000 -0.03114503 0.09295000
v -0.02460000 -0.03117175 0.09300000
v -0.02460000 -0.02942680 0.09180192
v -0.02460000 -0.02890006 0.09175004
v -0.02460000 -0.02837331 0.09180192
v -0.02460000 -0.02800000 0.09191516
v -0.02460000 -0.02800000 0.09300000
f 3 2 1
f 5 9 2
f 11 3 1
f 16 2 6
f 2 11 1
f 5 2 3
f 5 3 4
f 3 13 4
f 15 5 4
f 2 7 6
f 2 9 7
f 7 9 8
f 6 7 17
f 7 8 17
f 9 19 8
f 9 5 10
f 5 20 10
f 20 9 10
f 11 2 12
f 2 16 12
f 16 11 12
f 3 11 13
f 4 13 14
f 15 4 14
f 20 5 15
f 11 15 13
f 13 15 14
f 11 20 15
f 16 6 17
f 17 8 18
f 8 19 18
f 9 20 19
f 19 11 16
f 11 19 20
f 16 17 19
f 19 17 18

