# https://github.com/mikedh/trimesh
v -0.03160000 0.01400000 0.05080000
v -0.03160000 0.01400000 0.05600000
v -0.03160000 0.02400000 0.05080000
v -0.03160000 0.01800000 0.05600000
v -0.03017143 0.00600000 0.05080000
v -0.02960000 0.00600000 0.05080000
v -0.02960000 0.01400000 0.05600000
v -0.03045714 0.02400000 0.05080000
v -0.02960000 0.01800000 0.05080000
v -0.02960000 0.01800000 0.05600000
f 2 1 5
f 3 6 1
f 2 3 1
f 3 2 4
f 2 10 4
f 10 3 4
f 1 6 5
f 6 2 5
f 10 6 9
f 2 6 7
f 6 10 7
f 6 3 9
f 9 3 8
f 3 10 8
f 10 9 8
f 10 2 7

