# https://github.com/mikedh/trimesh
v 0.00609134 -0.00525922 0.00300000
v 0.00620224 -0.00546668 0.00300000
v 0.00635147 -0.00564853 0.00300000
v 0.00602306 -0.00503411 0.00300000
v 0.00600000 -0.00480000 0.00300000
v 0.00653332 -0.00579776 0.00300000
v 0.00674078 -0.00590866 0.00300000
v 0.00696589 -0.00597694 0.00300000
v 0.00720000 -0.00600000 0.00300000
v 0.00609134 -0.00525922 0.00600000
v 0.00620224 -0.00546668 0.00600000
v 0.00635147 -0.00564853 0.00600000
v 0.00602306 -0.00503411 0.00600000
v 0.00600000 -0.00480000 0.00600000
v 0.00653332 -0.00579776 0.00600000
v 0.00674078 -0.00590866 0.00600000
v 0.00696589 -0.00597694 0.00600000
v 0.00720000 -0.00600000 0.00600000
v 0.00600000 0.00000000 0.00300000
v 0.00600000 0.00000000 0.00600000
v 0.00880000 -0.00600000 0.00300000
v 0.00903411 -0.00597694 0.00300000
v 0.00925922 -0.00590866 0.00300000
v 0.00946668 -0.00579776 0.00300000
v 0.00948302 -0.00578436 0.00300000
v 0.00964853 -0.00564853 0.00300000
v 0.00979776 -0.00546668 0.00300000
v 0.00990866 -0.00525922 0.00300000
v 0.00992599 -0.00520207 0.00300000
v 0.00997694 -0.00503411 0.00300000
v 0.01000000 -0.00480000 0.00300000
v 0.00880000 -0.00600000 0.00600000
v 0.00903411 -0.00597694 0.00600000
v 0.00925922 -0.00590866 0.00600000
v 0.00946668 -0.00579776 0.00600000
v 0.00964853 -0.00564853 0.00600000
v 0.00979776 -0.00546668 0.00600000
v 0.00990866 -0.00525922 0.00600000
v 0.00993012 -0.00518845 0.00600000
v 0.00997694 -0.00503411 0.00600000
v 0.01000000 -0.00480000 0.00600000
v 0.01000000 0.00000000 0.00300000
v 0.01000000 0.00000000 0.00600000
f 1 3 2
f 5 1 4
f 5 3 1
f 3 7 6
f 3 8 7
f 1 2 11
f 15 3 6
f 3 12 2
f 1 10 4
f 5 4 14
f 6 7 16
f 8 16 7
f 19 3 5
f 3 22 8
f 8 21 9
f 17 8 9
f 19 31 3
f 10 1 11
f 12 3 15
f 2 12 11
f 4 10 13
f 14 4 13
f 16 15 6
f 8 17 16
f 12 10 11
f 10 14 13
f 12 14 10
f 16 12 15
f 17 12 16
f 20 5 14
f 12 20 14
f 17 9 18
f 9 32 18
f 32 12 17
f 32 17 18
f 20 19 5
f 12 43 20
f 43 19 20
f 8 22 21
f 3 31 22
f 21 32 9
f 21 22 33
f 22 25 23
f 24 23 25
f 22 27 25
f 25 27 26
f 27 22 31
f 27 29 28
f 29 27 31
f 29 31 30
f 34 22 23
f 34 23 24
f 24 25 35
f 36 25 26
f 27 36 26
f 38 27 28
f 29 38 28
f 40 29 30
f 31 40 30
f 32 21 33
f 37 12 32
f 12 37 43
f 22 34 33
f 34 24 35
f 25 36 35
f 27 37 36
f 37 27 38
f 29 39 38
f 40 39 29
f 31 41 40
f 33 34 32
f 37 32 34
f 36 34 35
f 37 34 36
f 39 37 38
f 41 37 39
f 41 39 40
f 31 43 41
f 43 37 41
f 31 19 42
f 19 43 42
f 43 31 42

