# https://github.com/mikedh/trimesh
v -0.00050000 -0.00700000 0.09513397
v -0.00057735 -0.00757735 0.09542265
v -0.00057735 -0.00642265 0.09542265
v 0.00000000 -0.00700000 0.09500000
v 0.00000000 -0.00650000 0.09513397
v 0.00050000 -0.00700000 0.09513397
v 0.00057735 -0.00642265 0.09542265
v -0.00086603 -0.00700000 0.09550000
v 0.00000000 -0.00613397 0.09550000
v 0.00086603 -0.00700000 0.09550000
v -0.00086603 -0.00750000 0.09600000
v -0.00100000 -0.00700000 0.09600000
v -0.00086603 -0.00650000 0.09600000
v -0.00050000 -0.00613397 0.09600000
v 0.00000000 -0.00600000 0.09600000
v 0.00050000 -0.00613397 0.09600000
v -0.00086603 -0.00700000 0.09650000
v -0.00057735 -0.00757735 0.09657735
v -0.00057735 -0.00642265 0.09657735
v -0.00050000 -0.00700000 0.09686603
v 0.00000000 -0.00613397 0.09650000
v 0.00057735 -0.00642265 0.09657735
v 0.00000000 -0.00700000 0.09700000
v 0.00000000 -0.00650000 0.09686603
v 0.00050000 -0.00700000 0.09686603
v 0.00086603 -0.00650000 0.09600000
v 0.00086603 -0.00700000 0.09650000
v 0.00413397 -0.02000000 0.09550000
v 0.00450000 -0.02000000 0.09513397
v 0.00500000 -0.02050000 0.09513397
v 0.00500000 -0.02000000 0.09500000
v 0.00442265 -0.02057735 0.09542265
v 0.00550000 -0.02000000 0.09513397
v 0.00557735 -0.02057735 0.09542265
v 0.00557735 -0.01942265 0.09542265
v 0.00500000 -0.02086603 0.09550000
v 0.00586603 -0.02000000 0.09550000
v 0.00413397 -0.02050000 0.09600000
v 0.00413397 -0.02000000 0.09650000
v 0.00450000 -0.02086603 0.09600000
v 0.00500000 -0.02100000 0.09600000
v 0.00550000 -0.02086603 0.09600000
v 0.00586603 -0.02050000 0.09600000
v 0.00600000 -0.02000000 0.09600000
v 0.00586603 -0.01950000 0.09600000
v 0.00442265 -0.02057735 0.09657735
v 0.00500000 -0.02086603 0.09650000
v 0.00450000 -0.02000000 0.09686603
v 0.00500000 -0.02050000 0.09686603
v 0.00500000 -0.02000000 0.09700000
v 0.00557735 -0.02057735 0.09657735
v 0.00557735 -0.01942265 0.09657735
v 0.00586603 -0.02000000 0.09650000
v 0.00550000 -0.02000000 0.09686603
f 38 8 28
f 17 38 39
f 1 5 4
f 1 3 5
f 8 1 2
f 3 1 8
f 3 9 5
f 5 6 4
f 7 6 5
f 9 7 5
f 3 8 13
f 3 14 9
f 8 11 12
f 8 12 13
f 14 3 13
f 14 15 9
f 9 16 7
f 9 15 16
f 7 16 26
f 1 32 2
f 32 8 2
f 31 1 4
f 31 4 6
f 6 7 33
f 10 37 7
f 8 38 11
f 7 26 10
f 11 17 12
f 17 13 12
f 19 14 13
f 21 15 14
f 17 19 13
f 14 19 21
f 15 21 16
f 16 22 26
f 21 22 16
f 20 17 18
f 17 20 19
f 24 21 19
f 19 20 24
f 23 24 20
f 22 21 24
f 23 25 24
f 25 22 24
f 11 38 17
f 17 46 18
f 46 20 18
f 23 20 48
f 22 53 27
f 23 54 25
f 54 22 25
f 22 27 26
f 32 38 28
f 32 1 29
f 1 31 29
f 8 32 28
f 33 31 6
f 33 7 35
f 7 37 35
f 37 10 45
f 29 30 32
f 31 30 29
f 36 32 30
f 30 31 33
f 34 30 33
f 34 36 30
f 37 34 33
f 37 33 35
f 40 32 36
f 38 32 40
f 41 40 36
f 36 34 42
f 34 37 43
f 41 36 42
f 34 43 42
f 43 37 44
f 37 45 44
f 38 46 39
f 45 26 53
f 46 17 39
f 48 20 46
f 23 48 50
f 54 23 50
f 53 22 52
f 22 54 52
f 46 38 40
f 47 40 41
f 47 46 40
f 42 47 41
f 51 42 43
f 44 53 43
f 45 53 44
f 47 42 51
f 51 43 53
f 46 47 49
f 48 46 49
f 48 49 50
f 49 47 51
f 54 51 53
f 54 53 52
f 54 49 51
f 49 54 50
f 45 10 26
f 27 53 26

