# https://github.com/mikedh/trimesh
v -0.03660000 0.02142688 0.11400000
v -0.03660000 0.02200000 0.11800000
v -0.03660000 0.02700000 0.11400000
v -0.03660000 0.02700000 0.11800000
v -0.03300000 0.02142688 0.11400000
v -0.03300000 0.02184265 0.11477785
v -0.03300000 0.02246447 0.11553554
v -0.03300000 0.02322215 0.11615735
v -0.03300000 0.02408658 0.11661940
v -0.03300000 0.02700000 0.11400000
v -0.03300000 0.02502455 0.11690392
v -0.03300000 0.02697545 0.11690392
v -0.03300000 0.02700000 0.11689648
v -0.03300000 0.02600000 0.11700000
f 2 3 1
f 5 2 1
f 3 5 1
f 3 2 4
f 4 2 14
f 13 3 4
f 2 5 6
f 5 7 6
f 5 9 7
f 5 13 9
f 7 2 6
f 2 7 8
f 9 2 8
f 2 9 11
f 7 9 8
f 5 3 10
f 3 13 10
f 13 5 10
f 14 2 11
f 4 14 12
f 13 4 12
f 9 14 11
f 13 14 9
f 14 13 12

