# https://github.com/mikedh/trimesh
v 0.02900000 0.03000000 0.12360000
v 0.02900000 0.03000000 0.12600000
v 0.02900000 0.03346993 0.12360000
v 0.02900000 0.03400000 0.12422089
v 0.02900000 0.03400000 0.12600000
v 0.03200000 0.03000000 0.12360000
v 0.03200000 0.03000000 0.12600000
v 0.03200000 0.03346993 0.12360000
v 0.03200000 0.03400000 0.12422089
v 0.03200000 0.03400000 0.12600000
f 2 4 1
f 6 2 1
f 1 4 3
f 8 1 3
f 4 8 3
f 4 2 5
f 2 10 5
f 10 4 5
f 6 1 8
f 2 6 7
f 10 2 7
f 6 10 7
f 8 4 9
f 6 8 10
f 10 8 9
f 4 10 9

