# https://github.com/mikedh/trimesh
v 0.02642265 -0.02457735 0.05642265
v 0.02650000 -0.02486603 0.05700000
v 0.02642265 -0.02457735 0.05757735
v 0.02613397 -0.02450000 0.05700000
v 0.02700000 -0.02486603 0.05650000
v 0.02700000 -0.02500000 0.05700000
v 0.02700000 -0.02486603 0.05750000
v 0.02700000 -0.02450000 0.05786603
v 0.02642265 -0.02342265 0.05642265
v 0.02613397 -0.02400000 0.05650000
v 0.02600000 -0.02400000 0.05700000
v 0.02613397 -0.02400000 0.05750000
v 0.02650000 -0.02400000 0.05786603
v 0.02613397 -0.02350000 0.05700000
v 0.02650000 -0.02313397 0.05700000
v 0.02642265 -0.02342265 0.05757735
v 0.02700000 -0.02400000 0.05800000
v 0.02700000 -0.02350000 0.05786603
v 0.02700000 -0.02313397 0.05750000
v 0.02750000 -0.02486603 0.05700000
v 0.02757735 -0.02457735 0.05757735
v 0.02786603 -0.02450000 0.05700000
v 0.02750000 -0.02400000 0.05786603
v 0.02786603 -0.02400000 0.05750000
v 0.02757735 -0.02342265 0.05757735
v 0.02942265 -0.02257735 0.05242265
v 0.02913397 -0.02200000 0.05250000
v 0.02950000 -0.02200000 0.05213397
v 0.02942265 -0.02142265 0.05242265
v 0.02913397 -0.02150000 0.05300000
v 0.02950000 -0.02113397 0.05300000
v 0.03000000 -0.02286603 0.05250000
v 0.03000000 -0.02250000 0.05213397
v 0.03057735 -0.02257735 0.05242265
v 0.03050000 -0.02286603 0.05300000
v 0.03086603 -0.02250000 0.05300000
v 0.03057735 -0.02257735 0.05357735
v 0.03000000 -0.02200000 0.05200000
v 0.03000000 -0.02150000 0.05213397
v 0.03000000 -0.02113397 0.05250000
v 0.03000000 -0.02100000 0.05300000
v 0.03050000 -0.02200000 0.05213397
v 0.03086603 -0.02200000 0.05250000
v 0.03100000 -0.02200000 0.05300000
v 0.03057735 -0.02142265 0.05242265
v 0.03050000 -0.02113397 0.05300000
v 0.03086603 -0.02150000 0.05300000
v 0.03000000 -0.02113397 0.05350000
v 0.03086603 -0.02200000 0.05350000
v 0.03057735 -0.02142265 0.05357735
f 1 27 26
f 4 1 2
f 4 2 3
f 1 4 10
f 10 4 11
f 4 12 11
f 3 12 4
f 12 3 13
f 5 2 1
f 2 5 6
f 7 2 6
f 5 20 6
f 20 7 6
f 2 7 3
f 7 8 3
f 8 7 21
f 13 3 8
f 17 13 8
f 23 17 8
f 10 27 1
f 10 11 14
f 11 12 14
f 10 14 9
f 12 16 14
f 16 12 13
f 14 16 15
f 18 13 17
f 16 13 18
f 23 18 17
f 19 16 18
f 19 15 16
f 25 19 18
f 32 5 1
f 5 35 20
f 22 21 20
f 21 7 20
f 23 8 21
f 24 23 21
f 23 25 18
f 24 25 23
f 27 10 29
f 29 14 30
f 15 31 30
f 10 9 29
f 9 14 29
f 15 30 14
f 31 15 19
f 19 25 48
f 1 26 32
f 5 32 35
f 35 36 22
f 36 37 21
f 22 20 35
f 36 21 22
f 37 24 21
f 26 27 28
f 26 28 33
f 28 27 29
f 39 28 29
f 31 40 29
f 31 29 30
f 19 48 31
f 25 50 48
f 26 33 32
f 34 35 32
f 34 32 33
f 38 33 28
f 42 34 33
f 38 42 33
f 35 34 36
f 43 34 42
f 34 43 36
f 37 36 49
f 36 43 44
f 49 36 44
f 24 37 49
f 50 24 49
f 39 38 28
f 38 39 42
f 42 39 45
f 40 39 29
f 40 45 39
f 46 45 40
f 31 41 40
f 31 48 41
f 41 46 40
f 48 46 41
f 50 46 48
f 43 42 45
f 47 43 45
f 43 47 44
f 47 49 44
f 49 47 50
f 46 47 45
f 46 50 47
f 24 50 25

