# https://github.com/mikedh/trimesh
v -0.03660000 0.03760000 0.05400000
v -0.03660000 0.03877004 0.05400000
v -0.03660000 0.03760000 0.05800000
v -0.03660000 0.03877004 0.05800000
v -0.03633342 0.03898882 0.05400000
v -0.03529610 0.03954328 0.05400000
v -0.03633342 0.03898882 0.05800000
v -0.03529610 0.03954328 0.05800000
v -0.03300000 0.03760000 0.05400000
v -0.03300000 0.03760000 0.05800000
v -0.03417054 0.03988471 0.05400000
v -0.03300000 0.04000000 0.05400000
v -0.03417054 0.03988471 0.05800000
v -0.03300000 0.04000000 0.05800000
f 5 1 2
f 1 4 2
f 5 9 1
f 9 3 1
f 1 3 4
f 3 7 4
f 4 5 2
f 5 7 6
f 11 5 6
f 5 4 7
f 6 7 8
f 3 14 7
f 13 6 8
f 7 13 8
f 3 9 10
f 14 3 10
f 9 14 10
f 12 9 5
f 12 5 11
f 11 6 13
f 12 14 9
f 14 12 11
f 7 14 13
f 14 11 13

