# https://github.com/mikedh/trimesh
v 0.01000000 0.00000000 0.04000000
v 0.01000000 0.00000000 0.04360000
v 0.01000000 0.00500000 0.04000000
v 0.01000000 0.00519509 0.04001921
v 0.01000000 0.00538268 0.04007612
v 0.01000000 0.00545255 0.04011347
v 0.01000000 0.00555557 0.04016853
v 0.01000000 0.00570711 0.04029289
v 0.01000000 0.00583147 0.04044443
v 0.01000000 0.00587581 0.04052738
v 0.01000000 0.00592388 0.04061732
v 0.01000000 0.00598079 0.04080491
v 0.01000000 0.00600000 0.04100000
v 0.01000000 0.00600000 0.04360000
v 0.01100000 0.00000000 0.04000000
v 0.01119509 0.00000000 0.04001921
v 0.01138268 0.00000000 0.04007612
v 0.01155557 0.00000000 0.04016853
v 0.01170711 0.00000000 0.04029289
v 0.01183147 0.00000000 0.04044443
v 0.01192388 0.00000000 0.04061732
v 0.01198079 0.00000000 0.04080491
v 0.01200000 0.00000000 0.04100000
v 0.01200000 0.00000000 0.04360000
v 0.01100000 0.00500000 0.04000000
v 0.01100000 0.00519509 0.04001921
v 0.01119509 0.00500000 0.04001921
v 0.01120233 0.00520233 0.04004181
v 0.01100000 0.00538268 0.04007612
v 0.01100000 0.00555557 0.04016853
v 0.01100000 0.00570711 0.04029289
v 0.01100000 0.00583147 0.04044443
v 0.01120846 0.00540891 0.04011155
v 0.01121202 0.00560377 0.04023155
v 0.01121202 0.00576845 0.04039623
v 0.01100000 0.00592388 0.04061732
v 0.01100000 0.00598079 0.04080491
v 0.01120846 0.00588845 0.04059109
v 0.01120233 0.00595819 0.04079766
v 0.01138268 0.00500000 0.04007612
v 0.01140891 0.00520846 0.04011155
v 0.01142977 0.00542977 0.04020589
v 0.01143789 0.00563571 0.04036429
v 0.01142977 0.00579410 0.04057023
v 0.01140891 0.00588845 0.04079154
v 0.01100000 0.00600000 0.04100000
v 0.01119509 0.00598079 0.04100000
v 0.01138268 0.00592388 0.04100000
v 0.01155557 0.00500000 0.04016853
v 0.01160377 0.00521201 0.04023155
v 0.01170711 0.00500000 0.04029289
v 0.01163571 0.00543789 0.04036429
v 0.01160377 0.00576845 0.04078799
v 0.01163571 0.00563571 0.04056211
v 0.01176845 0.00521201 0.04039623
v 0.01183147 0.00500000 0.04044443
v 0.01192388 0.00500000 0.04061732
v 0.01188845 0.00520846 0.04059109
v 0.01198079 0.00500000 0.04080491
v 0.01195819 0.00520233 0.04079766
v 0.01179410 0.00542977 0.04057023
v 0.01176845 0.00560377 0.04078799
v 0.01188845 0.00540891 0.04079154
v 0.01155557 0.00583147 0.04100000
v 0.01170711 0.00570711 0.04100000
v 0.01200000 0.00500000 0.04100000
v 0.01198079 0.00519509 0.04100000
v 0.01183147 0.00555557 0.04100000
v 0.01192388 0.00538268 0.04100000
v 0.01100000 0.00600000 0.04360000
v 0.01119509 0.00598079 0.04360000
v 0.01138268 0.00592388 0.04360000
v 0.01155557 0.00583147 0.04360000
v 0.01170711 0.00570711 0.04360000
v 0.01200000 0.00500000 0.04360000
v 0.01198079 0.00519509 0.04360000
v 0.01183147 0.00555557 0.04360000
v 0.01192388 0.00538268 0.04360000
f 17 2 1
f 2 13 1
f 17 1 15
f 1 25 15
f 1 4 3
f 13 4 1
f 25 1 3
f 4 6 5
f 4 7 6
f 6 7 5
f 4 10 7
f 7 10 8
f 9 8 10
f 4 13 10
f 10 12 11
f 10 13 12
f 4 25 3
f 29 4 5
f 5 7 29
f 31 7 8
f 31 8 9
f 32 9 10
f 11 36 10
f 12 37 11
f 13 37 12
f 25 4 26
f 4 29 26
f 29 7 30
f 7 31 30
f 31 9 32
f 10 36 32
f 11 37 36
f 37 13 46
f 13 2 14
f 13 14 46
f 2 76 14
f 46 14 70
f 14 72 70
f 17 15 16
f 25 16 15
f 40 17 16
f 17 40 18
f 19 17 18
f 17 19 22
f 21 19 20
f 22 19 21
f 24 17 22
f 19 18 51
f 19 56 20
f 56 21 20
f 57 22 21
f 59 23 22
f 2 17 24
f 76 2 24
f 24 22 23
f 66 24 23
f 16 25 27
f 16 27 40
f 18 40 49
f 25 26 27
f 26 28 27
f 26 29 28
f 33 29 30
f 31 34 30
f 31 32 35
f 33 28 29
f 34 33 30
f 34 31 35
f 38 32 36
f 37 39 36
f 32 38 35
f 36 39 38
f 37 47 39
f 27 28 40
f 41 40 28
f 40 41 49
f 41 28 33
f 33 34 42
f 33 42 41
f 42 34 43
f 34 35 43
f 35 44 43
f 50 41 42
f 35 38 44
f 44 38 45
f 38 39 45
f 48 45 39
f 45 53 44
f 46 47 37
f 47 48 39
f 45 48 64
f 18 49 51
f 19 51 56
f 57 21 56
f 22 57 59
f 59 66 23
f 49 41 50
f 51 49 50
f 50 55 51
f 52 50 42
f 52 42 43
f 52 43 54
f 55 50 52
f 55 52 61
f 44 54 43
f 44 53 54
f 45 64 53
f 52 54 61
f 54 62 61
f 53 62 54
f 53 65 62
f 51 55 56
f 56 55 58
f 57 56 58
f 58 60 57
f 59 57 60
f 59 60 67
f 58 55 61
f 61 63 58
f 62 63 61
f 63 62 68
f 60 58 63
f 69 60 63
f 64 65 53
f 66 59 67
f 68 62 65
f 69 63 68
f 60 69 67
f 47 46 70
f 47 72 48
f 48 73 64
f 47 70 71
f 72 14 76
f 70 72 71
f 72 47 71
f 48 72 73
f 24 66 75
f 76 24 75
f 64 73 65
f 76 66 67
f 77 68 65
f 77 69 68
f 69 78 67
f 65 73 74
f 77 65 74
f 72 77 73
f 72 76 77
f 73 77 74
f 66 76 75
f 69 77 78
f 76 67 78
f 77 76 78

