# https://github.com/mikedh/trimesh
v -0.02063509 -0.00063509 0.05086491
v -0.02055000 -0.00095263 0.05150000
v -0.02063509 -0.00063509 0.05213509
v -0.02095263 -0.00055000 0.05150000
v -0.02000000 -0.00095263 0.05095000
v -0.02000000 -0.00055000 0.05054737
v -0.02000000 -0.00110000 0.05150000
v -0.01955000 -0.00095263 0.05360000
v -0.01963509 -0.00063509 0.05423509
v -0.02095263 0.00000000 0.05095000
v -0.02055000 0.00000000 0.05054737
v -0.02110000 0.00000000 0.05150000
v -0.02095263 0.00000000 0.05205000
v -0.02095263 0.00055000 0.05150000
v -0.02063509 0.00063509 0.05086491
v -0.02063509 0.00063509 0.05213509
v -0.02055000 0.00095263 0.05150000
v -0.02000000 0.00000000 0.05040000
v -0.02000000 0.00055000 0.05054737
v -0.02000000 0.00095263 0.05095000
v -0.02000000 0.00110000 0.05150000
v -0.01995263 0.00000000 0.05415000
v -0.01955000 0.00000000 0.05455263
v -0.01955000 0.00095263 0.05360000
v -0.01963509 0.00063509 0.05423509
v -0.01936491 -0.00063509 0.05086491
v -0.01945000 -0.00095263 0.05150000
v -0.01900000 -0.00110000 0.05360000
v -0.01900000 -0.00095263 0.05415000
v -0.01900000 -0.00055000 0.05455263
v -0.01845000 -0.00095263 0.05360000
v -0.01836491 -0.00063509 0.05296491
v -0.01804737 -0.00055000 0.05360000
v -0.01836491 -0.00063509 0.05423509
v -0.01945000 0.00000000 0.05054737
v -0.01904737 0.00000000 0.05095000
v -0.01936491 0.00063509 0.05086491
v -0.01945000 0.00095263 0.05150000
v -0.01900000 0.00000000 0.05470000
v -0.01900000 0.00055000 0.05455263
v -0.01900000 0.00110000 0.05360000
v -0.01900000 0.00095263 0.05415000
v -0.01804737 0.00000000 0.05305000
v -0.01790000 0.00000000 0.05360000
v -0.01845000 0.00000000 0.05455263
v -0.01804737 0.00000000 0.05415000
v -0.01836491 0.00063509 0.05296491
v -0.01845000 0.00095263 0.05360000
v -0.01804737 0.00055000 0.05360000
v -0.01836491 0.00063509 0.05423509
f 1 2 4
f 2 1 5
f 2 3 4
f 10 1 4
f 11 1 10
f 12 10 4
f 1 11 6
f 4 3 13
f 4 13 12
f 7 2 5
f 1 6 5
f 7 5 27
f 5 26 27
f 5 6 26
f 8 3 2
f 7 8 2
f 18 6 11
f 35 26 6
f 6 18 35
f 13 3 22
f 3 8 9
f 7 28 8
f 22 3 9
f 23 22 9
f 11 10 15
f 12 14 10
f 15 10 14
f 19 11 15
f 14 12 13
f 14 13 16
f 17 15 14
f 17 20 15
f 17 14 16
f 19 18 11
f 18 19 35
f 19 37 35
f 19 15 20
f 21 20 17
f 37 19 20
f 38 20 21
f 38 37 20
f 24 21 17
f 16 13 25
f 22 25 13
f 25 22 23
f 25 17 16
f 25 24 17
f 41 21 24
f 31 7 27
f 27 26 32
f 35 36 26
f 26 36 32
f 32 36 43
f 31 28 7
f 27 32 31
f 8 29 9
f 8 28 29
f 29 30 9
f 28 31 29
f 29 34 30
f 30 23 9
f 39 23 30
f 39 30 45
f 33 31 32
f 29 31 34
f 31 33 34
f 32 43 33
f 33 43 44
f 30 34 45
f 33 46 34
f 44 46 33
f 34 46 45
f 37 36 35
f 36 37 47
f 21 48 38
f 37 48 47
f 48 37 38
f 36 47 43
f 39 40 23
f 40 25 23
f 40 39 45
f 21 41 48
f 25 40 42
f 24 25 42
f 41 24 42
f 40 50 42
f 42 48 41
f 43 49 44
f 47 49 43
f 40 45 50
f 44 49 46
f 50 45 46
f 49 50 46
f 47 48 49
f 42 50 48
f 50 49 48

