# https://github.com/mikedh/trimesh
v -0.03660000 -0.03400000 0.05800000
v -0.03660000 -0.03400000 0.06200000
v -0.03660000 -0.03000000 0.05800000
v -0.03660000 -0.03000000 0.06200000
v -0.03300000 -0.03057312 0.05800000
v -0.03300000 -0.03061940 0.05808658
v -0.03300000 -0.03000000 0.05800000
v -0.03300000 -0.03090393 0.05902455
v -0.03300000 -0.03100000 0.06000000
v -0.03300000 -0.03090393 0.06097545
v -0.03300000 -0.03061940 0.06191342
v -0.03300000 -0.03057312 0.06200000
v -0.03300000 -0.03000000 0.06200000
f 2 3 1
f 2 1 9
f 5 1 3
f 3 2 4
f 2 13 4
f 13 3 4
f 8 1 6
f 1 5 6
f 1 8 9
f 5 3 7
f 3 13 7
f 5 8 6
f 5 10 8
f 13 5 7
f 10 2 9
f 2 10 11
f 12 2 11
f 13 2 12
f 9 8 10
f 5 13 10
f 10 12 11
f 10 13 12

