# https://github.com/mikedh/trimesh
v -0.03660000 0.02700000 0.11400000
v -0.03660000 0.02700000 0.11800000
v -0.03660000 0.03000000 0.11400000
v -0.03660000 0.03000000 0.11800000
v -0.03300000 0.02700000 0.11400000
v -0.03300000 0.02700000 0.11689648
v -0.03300000 0.02791342 0.11661940
v -0.03300000 0.03000000 0.11400000
v -0.03300000 0.03000000 0.11496958
v -0.03300000 0.02953553 0.11553554
v -0.03300000 0.02877785 0.11615735
f 2 3 1
f 5 2 1
f 3 5 1
f 2 6 4
f 3 4 9
f 3 2 4
f 5 9 6
f 2 5 6
f 4 6 7
f 6 11 7
f 5 3 8
f 3 9 8
f 9 5 8
f 11 9 10
f 11 4 7
f 4 11 10
f 9 4 10
f 6 9 11

