# https://github.com/mikedh/trimesh
v 0.01000000 -0.03760000 0.12360000
v 0.01000000 -0.03760000 0.12477004
v 0.01000000 -0.03733342 0.12498882
v 0.01000000 -0.03629610 0.12554327
v 0.01000000 -0.03400000 0.12360000
v 0.01000000 -0.03517054 0.12588471
v 0.01000000 -0.03400000 0.12600000
v 0.01200000 -0.03760000 0.12360000
v 0.01200000 -0.03760000 0.12477004
v 0.01200000 -0.03733342 0.12498882
v 0.01200000 -0.03629610 0.12554327
v 0.01200000 -0.03400000 0.12360000
v 0.01200000 -0.03517054 0.12588471
v 0.01200000 -0.03400000 0.12600000
f 3 1 2
f 1 8 2
f 7 1 3
f 3 4 6
f 3 2 10
f 3 10 4
f 1 7 5
f 12 1 5
f 7 12 5
f 7 3 6
f 13 6 4
f 14 7 6
f 2 8 9
f 12 8 1
f 8 10 9
f 10 2 9
f 4 10 11
f 13 4 11
f 8 14 10
f 10 13 11
f 8 12 14
f 12 7 14
f 14 6 13
f 10 14 13

