# https://github.com/mikedh/trimesh
v -0.03660000 -0.03000000 0.11400000
v -0.03660000 -0.03000000 0.11800000
v -0.03660000 -0.02700000 0.11400000
v -0.03660000 -0.02700000 0.11800000
v -0.03300000 -0.03000000 0.11400000
v -0.03300000 -0.03000000 0.11496958
v -0.03300000 -0.02953553 0.11553554
v -0.03300000 -0.02877785 0.11615735
v -0.03300000 -0.02700000 0.11400000
v -0.03300000 -0.02791342 0.11661940
v -0.03300000 -0.02700000 0.11689648
f 5 2 1
f 3 5 1
f 1 2 4
f 3 1 4
f 2 11 4
f 3 4 11
f 2 5 6
f 5 7 6
f 5 11 7
f 7 2 6
f 2 7 8
f 2 8 10
f 5 3 9
f 3 11 9
f 11 5 9
f 11 2 10
f 7 11 8
f 8 11 10

