# https://github.com/mikedh/trimesh
v -0.03660000 -0.02700000 0.06200000
v -0.03660000 -0.02700000 0.06489648
v -0.03660000 -0.02697545 0.06490392
v -0.03660000 -0.02600000 0.06500000
v -0.03660000 -0.02502455 0.06490392
v -0.03660000 -0.02142688 0.06200000
v -0.03660000 -0.02184265 0.06277785
v -0.03660000 -0.02322215 0.06415735
v -0.03660000 -0.02408658 0.06461940
v -0.03660000 -0.02246447 0.06353553
v -0.03300000 -0.02700000 0.06200000
v -0.03300000 -0.02700000 0.06489648
v -0.03300000 -0.02697545 0.06490392
v -0.03300000 -0.02600000 0.06500000
v -0.03300000 -0.02502455 0.06490392
v -0.03300000 -0.02142688 0.06200000
v -0.03300000 -0.02184265 0.06277785
v -0.03300000 -0.02322215 0.06415735
v -0.03300000 -0.02408658 0.06461940
v -0.03300000 -0.02246447 0.06353553
f 2 6 1
f 11 2 1
f 6 11 1
f 4 2 3
f 4 9 2
f 9 4 5
f 2 12 3
f 4 3 14
f 4 14 5
f 19 9 5
f 6 9 10
f 6 10 7
f 16 6 7
f 10 20 7
f 6 2 9
f 10 9 8
f 9 19 8
f 10 8 20
f 2 11 12
f 3 12 13
f 14 3 13
f 5 14 15
f 19 5 15
f 11 19 12
f 12 14 13
f 12 19 14
f 14 19 15
f 11 6 16
f 16 7 17
f 7 20 17
f 19 11 16
f 19 16 20
f 20 16 17
f 20 8 18
f 8 19 18
f 19 20 18

