# https://github.com/mikedh/trimesh
v 0.02400000 -0.03877004 0.12360000
v 0.02400000 -0.03824264 0.12424264
v 0.02400000 -0.03760000 0.12360000
v 0.02400000 -0.03760000 0.12477004
v 0.02900000 -0.03877004 0.12360000
v 0.02900000 -0.03853007 0.12360000
v 0.02900000 -0.03824264 0.12424264
v 0.02850000 -0.03760000 0.12360000
v 0.02900000 -0.03760000 0.12453007
v 0.02900000 -0.03760000 0.12477004
f 1 5 2
f 5 1 3
f 4 1 2
f 1 4 3
f 4 2 7
f 3 4 9
f 7 2 5
f 5 8 6
f 9 5 6
f 5 9 7
f 5 3 8
f 3 9 8
f 8 9 6
f 4 7 10
f 9 4 10
f 7 9 10

