# https://github.com/mikedh/trimesh
v -0.02374161 -0.00250007 0.04550000
v -0.02250007 -0.00374161 0.04550000
v -0.02318198 -0.00318198 0.04550000
v -0.02374161 -0.00250007 0.04600000
v -0.02250007 -0.00374161 0.04600000
v -0.02318198 -0.00318198 0.04600000
v -0.02415746 -0.00172208 0.04550000
v -0.02441353 -0.00087791 0.04550000
v -0.02450000 0.00000000 0.04550000
v -0.02415746 -0.00172208 0.04600000
v -0.02441353 -0.00087791 0.04600000
v -0.02450000 0.00000000 0.04600000
v -0.02172208 -0.00415746 0.04550000
v -0.02087791 -0.00441353 0.04550000
v -0.02000000 -0.00450000 0.04550000
v -0.02172208 -0.00415746 0.04600000
v -0.02087791 -0.00441353 0.04600000
v -0.02000000 -0.00450000 0.04600000
v -0.02200000 0.00000000 0.04550000
v -0.02000000 -0.00200000 0.04550000
v -0.02200000 0.00000000 0.04600000
v -0.02000000 -0.00200000 0.04600000
f 7 3 1
f 3 13 2
f 9 15 3
f 3 6 1
f 6 3 2
f 1 6 4
f 6 10 4
f 6 2 5
f 16 6 5
f 9 3 7
f 7 1 10
f 7 10 8
f 9 7 8
f 12 9 8
f 9 21 19
f 8 10 11
f 10 1 4
f 6 12 10
f 12 8 11
f 21 9 12
f 10 12 11
f 6 21 12
f 3 15 13
f 13 16 2
f 13 14 16
f 13 15 14
f 15 18 14
f 18 15 20
f 2 16 5
f 16 14 17
f 18 6 16
f 21 6 18
f 14 18 17
f 18 16 17
f 18 20 22
f 15 9 19
f 20 19 21
f 15 19 20
f 20 21 22
f 21 18 22

