# https://github.com/mikedh/trimesh
v 0.00000000 0.00120000 0.00000000
v 0.00120000 0.00000000 0.00000000
v 0.00000000 0.00120000 0.00200000
v 0.00120000 0.00000000 0.00200000
v 0.00000000 0.00500000 0.00000000
v 0.00000000 0.00519509 0.00001921
v 0.00000000 0.00538268 0.00007612
v 0.00000000 0.00555557 0.00016853
v 0.00000000 0.00570711 0.00029289
v 0.00000000 0.00583147 0.00044443
v 0.00000000 0.00592388 0.00061732
v 0.00000000 0.00598079 0.00080491
v 0.00000000 0.00600000 0.00100000
v 0.00000000 0.00600000 0.00200000
v 0.00600000 0.00000000 0.00000000
v 0.00600000 0.00000000 0.00200000
v 0.00600000 0.00500000 0.00000000
v 0.00600000 0.00519509 0.00001921
v 0.00600000 0.00538268 0.00007612
v 0.00600000 0.00555557 0.00016853
v 0.00600000 0.00570711 0.00029289
v 0.00600000 0.00583147 0.00044443
v 0.00600000 0.00592388 0.00061732
v 0.00600000 0.00598079 0.00080491
v 0.00600000 0.00600000 0.00100000
v 0.00600000 0.00600000 0.00200000
f 4 1 2
f 1 15 2
f 15 4 2
f 1 4 3
f 14 1 3
f 4 14 3
f 1 6 5
f 6 1 13
f 6 8 7
f 6 10 8
f 8 10 9
f 10 6 13
f 10 13 11
f 11 13 12
f 17 1 5
f 6 17 5
f 18 6 7
f 7 8 19
f 21 8 9
f 10 21 9
f 23 10 11
f 24 11 12
f 13 24 12
f 13 1 14
f 26 14 4
f 26 13 14
f 15 1 17
f 4 15 16
f 26 4 16
f 15 26 16
f 17 6 18
f 19 18 7
f 19 8 20
f 8 21 20
f 21 10 22
f 10 23 22
f 23 11 24
f 13 25 24
f 19 15 17
f 26 15 19
f 19 17 18
f 21 19 20
f 23 19 21
f 23 21 22
f 23 24 25
f 26 19 23
f 13 26 25
f 26 23 25

