# https://github.com/mikedh/trimesh
v -0.02400000 0.00000000 0.04600000
v -0.02350000 0.00000000 0.04600000
v -0.02400000 0.00000000 0.04840000
v -0.02350000 0.00000000 0.04840000
v -0.02400000 0.00600000 0.04600000
v -0.02400000 0.00600000 0.04840000
v -0.02000000 0.00350000 0.04600000
v -0.02000000 0.00600000 0.04600000
v -0.02000000 0.00350000 0.04840000
v -0.02000000 0.00600000 0.04840000
f 4 1 2
f 3 5 1
f 1 7 2
f 7 4 2
f 3 1 4
f 9 3 4
f 5 7 1
f 5 3 6
f 3 10 6
f 10 5 6
f 7 9 4
f 7 5 8
f 5 10 8
f 10 7 8
f 10 3 9
f 10 9 7

