# https://github.com/mikedh/trimesh
v -0.01000000 0.00000000 0.00200000
v -0.01000000 0.00000000 0.00300000
v -0.01000000 0.00500000 0.00200000
v -0.00998079 0.00519509 0.00200000
v -0.00992388 0.00538268 0.00200000
v -0.00983147 0.00555557 0.00200000
v -0.00970711 0.00570711 0.00200000
v -0.00955557 0.00583147 0.00200000
v -0.00938268 0.00592388 0.00200000
v -0.00919509 0.00598079 0.00200000
v -0.00900000 0.00600000 0.00200000
v -0.01000000 0.00480000 0.00300000
v -0.00997694 0.00503411 0.00300000
v -0.00992599 0.00520207 0.00300000
v -0.00990866 0.00525922 0.00300000
v -0.00979776 0.00546668 0.00300000
v -0.00964853 0.00564853 0.00300000
v -0.00948302 0.00578436 0.00300000
v -0.00946668 0.00579776 0.00300000
v -0.00925922 0.00590866 0.00300000
v -0.00903411 0.00597694 0.00300000
v -0.00880000 0.00600000 0.00300000
v -0.00600000 0.00000000 0.00200000
v -0.00600000 0.00000000 0.00300000
v -0.00600000 0.00600000 0.00200000
v -0.00600000 0.00598079 0.00219509
v -0.00600000 0.00592388 0.00238268
v -0.00720000 0.00600000 0.00300000
v -0.00600000 0.00583147 0.00255557
v -0.00600000 0.00579776 0.00259664
v -0.00600000 0.00570711 0.00270711
v -0.00696589 0.00597694 0.00300000
v -0.00674078 0.00590866 0.00300000
v -0.00653332 0.00579776 0.00300000
v -0.00659638 0.00583147 0.00300000
v -0.00600000 0.00500000 0.00300000
v -0.00600000 0.00519509 0.00298079
v -0.00600000 0.00555557 0.00283147
v -0.00635147 0.00564853 0.00300000
v -0.00600000 0.00538268 0.00292388
v -0.00600000 0.00546668 0.00287898
v -0.00620224 0.00546668 0.00300000
v -0.00609134 0.00525922 0.00300000
f 1 2 3
f 23 2 1
f 11 23 1
f 4 1 3
f 11 1 4
f 6 4 5
f 8 4 6
f 8 6 7
f 11 4 8
f 11 8 9
f 11 9 10
f 4 3 12
f 5 4 14
f 16 6 5
f 6 16 7
f 17 8 7
f 8 20 9
f 9 21 10
f 21 11 10
f 3 2 12
f 2 16 12
f 4 12 13
f 14 4 13
f 5 14 15
f 16 5 15
f 16 17 7
f 18 8 17
f 8 18 19
f 20 8 19
f 20 21 9
f 12 14 13
f 16 14 12
f 14 16 15
f 16 18 17
f 16 20 18
f 18 20 19
f 16 22 20
f 20 22 21
f 2 43 16
f 22 11 21
f 16 43 22
f 23 25 24
f 2 23 24
f 2 24 43
f 25 11 22
f 23 11 25
f 26 27 25
f 30 25 27
f 25 28 26
f 25 22 28
f 22 32 28
f 22 43 32
f 24 25 37
f 43 24 36
f 24 37 36
f 28 32 26
f 32 27 26
f 30 37 25
f 30 27 29
f 27 33 29
f 34 30 29
f 27 32 33
f 32 35 33
f 32 39 35
f 35 34 33
f 37 43 36
f 34 29 33
f 37 30 31
f 41 31 38
f 37 31 41
f 34 31 30
f 31 39 38
f 39 31 34
f 32 43 39
f 35 39 34
f 37 41 40
f 39 41 38
f 40 41 39
f 39 43 42
f 39 42 40
f 42 37 40
f 43 37 42

