# https://github.com/mikedh/trimesh
v -0.03633342 -0.03898882 0.12000000
v -0.03529610 -0.03954328 0.12000000
v -0.03545345 -0.03933068 0.12125076
v -0.03660000 -0.03877004 0.12000000
v -0.03660000 -0.03864025 0.12117265
v -0.03660000 -0.03862462 0.12127167
v -0.03660000 -0.03861403 0.12130038
v -0.03660000 -0.03760000 0.12000000
v -0.03660000 -0.03797906 0.12261886
v -0.03660000 -0.03781427 0.12284158
v -0.03660000 -0.03760000 0.12305584
v -0.03605584 -0.03760000 0.12360000
v -0.03584157 -0.03781427 0.12360000
v -0.03557860 -0.03876463 0.12257860
v -0.03561886 -0.03797906 0.12360000
v -0.03417054 -0.03988471 0.12000000
v -0.03421401 -0.03974912 0.12121400
v -0.03300000 -0.04000000 0.12000000
v -0.03300000 -0.03988471 0.12117054
v -0.03425076 -0.03933068 0.12245345
v -0.03300000 -0.03954328 0.12229610
v -0.03300000 -0.03898882 0.12333342
v -0.03300000 -0.03760000 0.12000000
v -0.03430038 -0.03861403 0.12360000
v -0.03427167 -0.03862462 0.12360000
v -0.03417265 -0.03864025 0.12360000
v -0.03300000 -0.03877004 0.12360000
v -0.03300000 -0.03760000 0.12360000
f 3 6 1
f 6 3 7
f 14 7 3
f 1 16 2
f 17 3 2
f 1 2 3
f 8 18 1
f 20 14 3
f 4 1 5
f 1 6 5
f 6 4 5
f 8 1 4
f 9 4 6
f 9 6 7
f 11 8 4
f 8 12 23
f 14 9 7
f 4 9 11
f 10 9 14
f 12 8 11
f 11 9 10
f 12 11 10
f 12 10 13
f 10 14 15
f 10 15 13
f 15 12 13
f 14 24 15
f 24 12 15
f 16 17 2
f 1 18 16
f 17 20 3
f 17 16 19
f 16 18 19
f 18 21 19
f 21 17 19
f 24 14 20
f 24 20 25
f 20 26 25
f 20 17 21
f 18 27 21
f 20 21 22
f 26 20 22
f 27 22 21
f 18 8 23
f 18 23 27
f 27 12 24
f 26 24 25
f 23 12 28
f 12 27 28
f 27 24 26
f 27 26 22
f 27 23 28

