# https://github.com/mikedh/trimesh
v -0.03660000 -0.02700000 0.05400000
v -0.03660000 -0.02700000 0.05800000
v -0.03660000 -0.02200000 0.05400000
v -0.03660000 -0.02142688 0.05800000
v -0.03300000 -0.02700000 0.05510352
v -0.03300000 -0.02697545 0.05509607
v -0.03300000 -0.02600000 0.05500000
v -0.03300000 -0.02502455 0.05509607
v -0.03300000 -0.02700000 0.05800000
v -0.03300000 -0.02408658 0.05538060
v -0.03300000 -0.02322215 0.05584265
v -0.03300000 -0.02246447 0.05646447
v -0.03300000 -0.02184265 0.05722215
v -0.03300000 -0.02142688 0.05800000
f 5 2 1
f 1 3 7
f 2 4 1
f 4 2 9
f 1 4 3
f 3 4 14
f 5 1 6
f 1 7 6
f 7 3 8
f 7 5 6
f 7 10 5
f 10 7 8
f 2 5 9
f 14 9 5
f 3 10 8
f 10 3 11
f 3 12 11
f 12 3 13
f 12 10 11
f 4 9 14
f 3 14 13
f 14 5 10
f 14 10 12
f 14 12 13

