# https://github.com/mikedh/trimesh
v 0.00000000 -0.00583147 0.04044443
v 0.00000000 -0.00570711 0.04029289
v 0.00000000 -0.00555557 0.04016853
v 0.00000000 -0.00538268 0.04007612
v 0.00000000 -0.00592388 0.04061732
v 0.00000000 -0.00598079 0.04080491
v 0.00000000 -0.00519509 0.04001921
v 0.00000000 -0.00500000 0.04000000
v 0.00000000 -0.00600000 0.04100000
v 0.00000000 -0.00600000 0.04360000
v 0.00000000 0.00000000 0.04000000
v 0.00000000 0.00000000 0.04360000
v 0.00600000 -0.00582577 0.04043749
v 0.00600000 -0.00583147 0.04044443
v 0.00600000 -0.00570711 0.04029289
v 0.00600000 -0.00555557 0.04016853
v 0.00600000 -0.00538268 0.04007612
v 0.00600000 -0.00590866 0.04058883
v 0.00600000 -0.00592388 0.04061732
v 0.00600000 -0.00598079 0.04080491
v 0.00600000 -0.00519509 0.04001921
v 0.00600000 -0.00500000 0.04000000
v 0.00600000 -0.00600000 0.04100000
v 0.00600000 -0.00600000 0.04360000
v 0.00600000 0.00000000 0.04000000
v 0.00600000 0.00000000 0.04360000
f 1 3 2
f 3 7 4
f 3 8 7
f 6 1 5
f 6 3 1
f 10 3 6
f 3 11 8
f 10 11 3
f 13 1 2
f 17 3 4
f 2 3 16
f 7 17 4
f 5 1 18
f 6 5 20
f 9 6 20
f 7 8 22
f 11 22 8
f 10 6 9
f 23 10 9
f 11 10 12
f 10 26 12
f 26 11 12
f 1 13 14
f 2 16 15
f 13 2 15
f 3 17 16
f 17 7 21
f 18 1 14
f 5 18 19
f 20 5 19
f 7 22 21
f 9 20 23
f 16 13 15
f 22 13 17
f 16 17 13
f 13 18 14
f 18 20 19
f 13 23 18
f 20 18 23
f 22 17 21
f 13 24 23
f 25 13 22
f 24 10 23
f 26 10 24
f 13 26 24
f 11 25 22
f 11 26 25
f 13 25 26

