# https://github.com/mikedh/trimesh
v 0.02400000 0.03400000 0.12360000
v 0.02400000 0.03400000 0.12600000
v 0.02400000 0.03517054 0.12588471
v 0.02400000 0.03760000 0.12360000
v 0.02400000 0.03760000 0.12477004
v 0.02400000 0.03629610 0.12554327
v 0.02400000 0.03733342 0.12498882
v 0.02850000 0.03400000 0.12360000
v 0.02900000 0.03400000 0.12422089
v 0.02900000 0.03400000 0.12600000
v 0.02900000 0.03517054 0.12588471
v 0.02850000 0.03760000 0.12360000
v 0.02900000 0.03760000 0.12453007
v 0.02900000 0.03760000 0.12477004
v 0.02900000 0.03629610 0.12554327
v 0.02900000 0.03733342 0.12498882
f 2 4 1
f 9 2 1
f 7 2 3
f 2 11 3
f 4 7 5
f 1 4 12
f 5 13 4
f 4 2 7
f 7 3 6
f 15 7 6
f 3 15 6
f 7 16 5
f 9 1 8
f 1 12 8
f 12 9 8
f 2 9 10
f 2 10 11
f 11 15 3
f 9 16 10
f 11 10 16
f 13 12 4
f 13 5 14
f 9 12 13
f 16 9 13
f 16 13 14
f 16 7 15
f 5 16 14
f 11 16 15

