# https://github.com/mikedh/trimesh
v -0.03900000 0.03400000 0.12000000
v -0.03888471 0.03400000 0.12117054
v -0.03888471 0.03517054 0.12000000
v -0.03874912 0.03521401 0.12121400
v -0.03854328 0.03400000 0.12229610
v -0.03798882 0.03400000 0.12333342
v -0.03833068 0.03525076 0.12245345
v -0.03854328 0.03629610 0.12000000
v -0.03833068 0.03645345 0.12125076
v -0.03798882 0.03733342 0.12000000
v -0.03660000 0.03400000 0.12000000
v -0.03777004 0.03400000 0.12360000
v -0.03764025 0.03517265 0.12360000
v -0.03762462 0.03527167 0.12360000
v -0.03761403 0.03530038 0.12360000
v -0.03660000 0.03400000 0.12360000
v -0.03777004 0.03760000 0.12000000
v -0.03764025 0.03760000 0.12117265
v -0.03762462 0.03760000 0.12127167
v -0.03761403 0.03760000 0.12130038
v -0.03660000 0.03760000 0.12000000
v -0.03776463 0.03657860 0.12257860
v -0.03697906 0.03661886 0.12360000
v -0.03697906 0.03760000 0.12261886
v -0.03681427 0.03684157 0.12360000
v -0.03660000 0.03705584 0.12360000
v -0.03681427 0.03760000 0.12284158
v -0.03660000 0.03760000 0.12305584
f 1 2 3
f 2 4 3
f 1 5 2
f 2 5 4
f 8 1 3
f 4 8 3
f 7 9 4
f 1 12 5
f 5 7 4
f 7 5 6
f 6 5 12
f 7 6 13
f 7 13 14
f 15 7 14
f 22 7 15
f 17 1 8
f 4 9 8
f 8 9 10
f 17 8 10
f 10 9 18
f 22 20 9
f 18 9 19
f 9 20 19
f 7 22 9
f 12 1 11
f 1 17 11
f 6 12 13
f 12 15 13
f 12 16 15
f 13 15 14
f 12 11 16
f 11 28 16
f 16 23 15
f 17 10 18
f 20 17 18
f 20 18 19
f 20 28 17
f 11 17 21
f 28 11 21
f 17 28 21
f 23 22 15
f 24 20 22
f 24 22 23
f 23 16 26
f 16 28 26
f 28 20 24
f 24 23 27
f 23 26 25
f 27 23 25
f 28 24 27
f 26 27 25
f 28 27 26

