# https://github.com/mikedh/trimesh
v -0.02000000 -0.03954328 0.04970390
v -0.02000000 -0.03898882 0.04866658
v -0.02000000 -0.03988471 0.05082946
v -0.02000000 -0.04000000 0.05200000
v -0.02000000 -0.03877004 0.04840000
v -0.02000000 -0.03760000 0.04840000
v -0.02000000 -0.03760000 0.05200000
v -0.01200000 -0.03954328 0.04970390
v -0.01200000 -0.03898882 0.04866658
v -0.01200000 -0.03988471 0.05082946
v -0.01200000 -0.04000000 0.05200000
v -0.01200000 -0.03877004 0.04840000
v -0.01200000 -0.03760000 0.04840000
v -0.01200000 -0.03760000 0.05200000
f 3 2 1
f 4 6 2
f 8 3 1
f 12 2 5
f 2 8 1
f 4 2 3
f 11 4 3
f 2 6 5
f 6 12 5
f 6 4 7
f 4 14 7
f 14 6 7
f 8 2 9
f 2 12 9
f 12 8 9
f 3 8 10
f 11 3 10
f 14 4 11
f 8 11 10
f 8 14 11
f 6 13 12
f 6 14 13
f 13 8 12
f 8 13 14

