# https://github.com/mikedh/trimesh
v 0.02900000 0.03760000 0.11800000
v 0.02900000 0.03760000 0.11946993
v 0.02900000 0.03822089 0.12000000
v 0.02900000 0.04000000 0.11800000
v 0.02900000 0.04000000 0.12000000
v 0.03200000 0.03760000 0.11800000
v 0.03200000 0.03760000 0.11946993
v 0.03200000 0.03822089 0.12000000
v 0.03200000 0.04000000 0.11800000
v 0.03200000 0.04000000 0.12000000
f 3 4 1
f 1 7 2
f 4 6 1
f 3 1 2
f 7 3 2
f 4 3 5
f 10 4 5
f 3 10 5
f 1 6 7
f 7 8 3
f 6 8 7
f 6 10 8
f 6 4 9
f 4 10 9
f 10 6 9
f 10 3 8

