# https://github.com/mikedh/trimesh
v 0.03500000 -0.03400000 0.07155531
v 0.03500000 -0.03377772 0.07167412
v 0.03500000 -0.03317157 0.07217157
v 0.03500000 -0.03267412 0.07277772
v 0.03500000 -0.03230448 0.07346927
v 0.03500000 -0.03400000 0.07844469
v 0.03500000 -0.03377772 0.07832588
v 0.03500000 -0.03317157 0.07782843
v 0.03500000 -0.03267412 0.07722228
v 0.03500000 -0.03230448 0.07653073
v 0.03500000 -0.03207686 0.07421964
v 0.03500000 -0.03207686 0.07578036
v 0.03500000 -0.03200000 0.07500000
v 0.03860000 -0.03400000 0.06200000
v 0.03860000 -0.03400000 0.08600000
v 0.03860000 -0.03000000 0.06200000
v 0.03860000 -0.03000000 0.08600000
f 1 3 2
f 1 4 3
f 1 13 4
f 4 11 5
f 4 13 11
f 16 1 2
f 3 16 2
f 8 6 7
f 13 1 6
f 9 6 8
f 13 6 9
f 13 9 12
f 12 9 10
f 1 15 6
f 6 17 7
f 17 8 7
f 4 16 3
f 16 4 5
f 11 16 5
f 13 16 11
f 9 17 10
f 17 12 10
f 17 13 12
f 17 9 8
f 15 1 14
f 1 16 14
f 16 15 14
f 15 17 6
f 13 17 16
f 15 16 17

