# https://github.com/mikedh/trimesh
v -0.02063509 -0.00063509 0.04736491
v -0.02095263 -0.00055000 0.04800000
v -0.02055000 -0.00095263 0.04800000
v -0.02063509 -0.00063509 0.05213509
v -0.02095263 -0.00055000 0.05150000
v -0.02055000 -0.00095263 0.05150000
v -0.02095263 0.00000000 0.04745000
v -0.02110000 0.00000000 0.04800000
v -0.02095263 0.00055000 0.04800000
v -0.02063509 0.00063509 0.04736491
v -0.02055000 0.00000000 0.04704737
v -0.02055000 0.00095263 0.04800000
v -0.02110000 0.00000000 0.05150000
v -0.02095263 0.00000000 0.05205000
v -0.02095263 0.00055000 0.05150000
v -0.02063509 0.00063509 0.05213509
v -0.02055000 0.00000000 0.05245263
v -0.02055000 0.00095263 0.05150000
v -0.02000000 -0.00095263 0.04745000
v -0.02000000 -0.00110000 0.04800000
v -0.02000000 -0.00055000 0.04704737
v -0.01945000 -0.00095263 0.04800000
v -0.01936491 -0.00063509 0.04736491
v -0.01904737 -0.00055000 0.04800000
v -0.02000000 -0.00110000 0.05150000
v -0.02000000 -0.00095263 0.05205000
v -0.02000000 -0.00055000 0.05245263
v -0.01945000 -0.00095263 0.05150000
v -0.01936491 -0.00063509 0.05213509
v -0.01904737 -0.00055000 0.05150000
v -0.02000000 0.00000000 0.04690000
v -0.02000000 0.00055000 0.04704737
v -0.02000000 0.00095263 0.04745000
v -0.02000000 0.00110000 0.04800000
v -0.01945000 0.00000000 0.04704737
v -0.01904737 0.00000000 0.04745000
v -0.01890000 0.00000000 0.04800000
v -0.01936491 0.00063509 0.04736491
v -0.01945000 0.00095263 0.04800000
v -0.01904737 0.00055000 0.04800000
v -0.02000000 0.00000000 0.05260000
v -0.02000000 0.00055000 0.05245263
v -0.02000000 0.00110000 0.05150000
v -0.02000000 0.00095263 0.05205000
v -0.01945000 0.00000000 0.05245263
v -0.01890000 0.00000000 0.05150000
v -0.01904737 0.00000000 0.05205000
v -0.01936491 0.00063509 0.05213509
v -0.01945000 0.00095263 0.05150000
v -0.01904737 0.00055000 0.05150000
f 1 3 2
f 3 6 2
f 2 7 1
f 7 2 8
f 11 1 7
f 2 13 8
f 19 3 1
f 3 19 20
f 21 19 1
f 20 25 3
f 11 21 1
f 31 21 11
f 2 6 5
f 6 4 5
f 13 2 5
f 4 14 5
f 5 14 13
f 4 17 14
f 25 6 3
f 6 26 4
f 26 6 25
f 4 26 27
f 17 4 27
f 41 17 27
f 7 8 9
f 10 7 9
f 7 10 11
f 8 13 9
f 12 10 9
f 12 9 18
f 10 32 11
f 11 32 31
f 10 12 33
f 32 10 33
f 33 12 34
f 12 43 34
f 9 13 15
f 13 14 15
f 14 16 15
f 17 16 14
f 9 15 18
f 16 18 15
f 42 16 17
f 17 41 42
f 43 12 18
f 18 16 44
f 16 42 44
f 43 18 44
f 19 22 20
f 19 21 23
f 22 19 23
f 22 25 20
f 21 31 35
f 21 35 23
f 22 23 24
f 30 22 24
f 23 35 36
f 23 36 24
f 37 24 36
f 30 24 37
f 25 22 28
f 26 25 28
f 26 29 27
f 29 26 28
f 41 27 45
f 27 29 45
f 28 22 30
f 30 29 28
f 46 30 37
f 29 47 45
f 30 47 29
f 30 46 47
f 35 31 32
f 35 32 38
f 33 38 32
f 39 33 34
f 39 38 33
f 43 39 34
f 36 35 38
f 36 40 37
f 36 38 40
f 37 40 50
f 38 39 40
f 40 39 49
f 41 45 42
f 48 42 45
f 39 43 49
f 44 42 48
f 43 44 49
f 44 48 49
f 50 46 37
f 45 47 48
f 47 46 50
f 48 47 50
f 49 50 40
f 49 48 50

