# https://github.com/mikedh/trimesh
v -0.02960000 -0.03119506 0.07009990
v -0.02960000 -0.03085928 0.06969075
v -0.02960000 -0.03144457 0.07056670
v -0.02960000 -0.03159822 0.07107320
v -0.02960000 -0.03165010 0.07159994
v -0.02960000 -0.03045014 0.06935497
v -0.02960000 -0.02998334 0.06910547
v -0.02960000 -0.03159822 0.07212669
v -0.02960000 -0.03144457 0.07263319
v -0.02960000 -0.03119506 0.07309998
v -0.02960000 -0.03085928 0.07350913
v -0.02960000 -0.03045014 0.07384491
v -0.02960000 -0.02998334 0.07409442
v -0.02960000 -0.02963566 0.06900000
v -0.02960000 -0.02826453 0.06900000
v -0.02960000 -0.02800000 0.06908024
v -0.02960000 -0.02947684 0.07424806
v -0.02960000 -0.02895010 0.07429994
v -0.02960000 -0.02842335 0.07424806
v -0.02960000 -0.02800000 0.07411964
v -0.02460000 -0.03119506 0.07009990
v -0.02460000 -0.03085928 0.06969075
v -0.02460000 -0.03144457 0.07056670
v -0.02460000 -0.03159822 0.07107320
v -0.02460000 -0.03165010 0.07159994
v -0.02460000 -0.03045014 0.06935497
v -0.02460000 -0.02998334 0.06910547
v -0.02460000 -0.03159822 0.07212669
v -0.02460000 -0.03144457 0.07263319
v -0.02460000 -0.03119506 0.07309998
v -0.02460000 -0.03085928 0.07350913
v -0.02460000 -0.03045014 0.07384491
v -0.02460000 -0.02998334 0.07409442
v -0.02460000 -0.02963566 0.06900000
v -0.02460000 -0.02826453 0.06900000
v -0.02460000 -0.02800000 0.06908024
v -0.02460000 -0.02947684 0.07424806
v -0.02460000 -0.02895010 0.07429994
v -0.02460000 -0.02842335 0.07424806
v -0.02460000 -0.02800000 0.07411964
f 4 6 1
f 6 2 1
f 4 1 3
f 8 4 5
f 6 14 7
f 4 16 6
f 1 21 3
f 21 1 2
f 4 3 24
f 4 25 5
f 2 6 22
f 27 6 7
f 10 4 8
f 10 8 9
f 12 10 11
f 4 10 18
f 18 10 12
f 25 8 5
f 8 28 9
f 30 10 9
f 10 30 11
f 12 11 32
f 12 33 13
f 6 16 14
f 18 16 4
f 14 16 15
f 7 14 34
f 14 15 35
f 16 36 15
f 18 12 13
f 18 13 17
f 16 18 20
f 20 18 19
f 13 37 17
f 37 18 17
f 40 16 20
f 19 18 39
f 40 20 19
f 21 2 22
f 24 3 23
f 3 21 23
f 4 24 25
f 22 6 26
f 6 27 26
f 27 7 34
f 21 25 24
f 21 24 23
f 21 30 25
f 27 21 22
f 27 22 26
f 8 25 28
f 9 28 29
f 30 9 29
f 11 30 31
f 32 11 31
f 33 12 32
f 25 30 28
f 28 30 29
f 30 32 31
f 21 40 30
f 30 33 32
f 14 35 34
f 35 15 36
f 16 40 36
f 36 21 27
f 34 35 27
f 40 21 36
f 36 27 35
f 13 33 37
f 37 38 18
f 18 38 39
f 40 19 39
f 30 40 33
f 33 38 37
f 38 33 40
f 38 40 39

