# https://github.com/mikedh/trimesh
v 0.02900000 0.03760000 0.12453007
v 0.02900000 0.03760000 0.12477004
v 0.02900000 0.03853007 0.12360000
v 0.02900000 0.03877004 0.12360000
v 0.02900000 0.03824264 0.12424264
v 0.03200000 0.03812132 0.12412132
v 0.03200000 0.03760000 0.12453007
v 0.03200000 0.03760000 0.12477004
v 0.03200000 0.03853007 0.12360000
v 0.03200000 0.03877004 0.12360000
v 0.03200000 0.03824264 0.12424264
f 2 3 1
f 8 2 1
f 2 11 5
f 2 4 3
f 3 9 1
f 11 4 5
f 3 4 10
f 4 2 5
f 6 8 9
f 8 1 7
f 2 8 11
f 1 9 7
f 9 8 7
f 6 11 8
f 3 10 9
f 4 11 10
f 9 10 6
f 6 10 11

