# https://github.com/mikedh/trimesh
v 0.01000000 0.03760000 0.04840000
v 0.01000000 0.03877004 0.04840000
v 0.01000000 0.03760000 0.05200000
v 0.01000000 0.03898882 0.04866658
v 0.01000000 0.03954328 0.04970390
v 0.01000000 0.03988471 0.05082946
v 0.01000000 0.04000000 0.05200000
v 0.01200000 0.03760000 0.04840000
v 0.01200000 0.03877004 0.04840000
v 0.01200000 0.03760000 0.05200000
v 0.01200000 0.03898882 0.04866658
v 0.01200000 0.03954328 0.04970390
v 0.01200000 0.03988471 0.05082946
v 0.01200000 0.04000000 0.05200000
f 1 7 2
f 8 1 2
f 7 1 3
f 1 10 3
f 10 7 3
f 2 5 4
f 2 7 5
f 11 2 4
f 5 11 4
f 5 7 6
f 13 5 6
f 7 13 6
f 8 10 1
f 8 2 9
f 11 8 9
f 10 8 14
f 2 11 9
f 11 5 12
f 5 13 12
f 8 11 14
f 13 11 12
f 7 10 14
f 7 14 13
f 14 11 13

