# https://github.com/mikedh/trimesh
v -0.03360000 0.02639993 0.07015657
v -0.03160000 0.02639993 0.07015657
v -0.03500000 0.02802312 0.07072313
v -0.03500000 0.02821102 0.07056892
v -0.03500000 0.02775432 0.07112541
v -0.03500000 0.02786891 0.07091103
v -0.03500000 0.02768375 0.07135803
v -0.03500000 0.02842540 0.07045433
v -0.03500000 0.02865802 0.07038377
v -0.03360000 0.02639993 0.07304332
v -0.03160000 0.02639993 0.07304332
v -0.03500000 0.02765993 0.07159994
v -0.03500000 0.02768375 0.07184185
v -0.03500000 0.02775432 0.07207447
v -0.03500000 0.02786891 0.07228885
v -0.03500000 0.02802312 0.07247675
v -0.03500000 0.02821102 0.07263096
v -0.03500000 0.02842540 0.07274555
v -0.03500000 0.02865802 0.07281612
v -0.03360000 0.02889993 0.06871319
v -0.03160000 0.02889993 0.06871319
v -0.03500000 0.02889993 0.07035994
v -0.03500000 0.02914184 0.07038377
v -0.03500000 0.02937446 0.07045433
v -0.03500000 0.02958884 0.07056892
v -0.03500000 0.02977674 0.07072313
v -0.03500000 0.02993095 0.07091103
v -0.03500000 0.03004554 0.07112541
v -0.03500000 0.03011610 0.07135803
v -0.03360000 0.03139993 0.07015657
v -0.03160000 0.03139993 0.07015657
v -0.03500000 0.02889993 0.07283994
v -0.03500000 0.02914184 0.07281612
v -0.03500000 0.02937446 0.07274555
v -0.03500000 0.03013993 0.07159994
v -0.03500000 0.03011610 0.07184185
v -0.03500000 0.02993095 0.07228885
v -0.03500000 0.03004554 0.07207447
v -0.03500000 0.02958884 0.07263096
v -0.03500000 0.02977674 0.07247675
v -0.03360000 0.02889993 0.07448669
v -0.03160000 0.02889993 0.07448669
v -0.03360000 0.03139993 0.07304332
v -0.03160000 0.03139993 0.07304332
v -0.02050000 0.02730894 0.07000895
v -0.02050000 0.02764989 0.06972914
v -0.02050000 0.02682120 0.07073890
v -0.02050000 0.02669316 0.07116099
v -0.02050000 0.02702912 0.07034991
v -0.02050000 0.02803889 0.06952121
v -0.02050000 0.02846097 0.06939318
v -0.02050000 0.02664993 0.07159994
v -0.02050000 0.02669316 0.07203890
v -0.02050000 0.02682120 0.07246098
v -0.02050000 0.02702912 0.07284998
v -0.02050000 0.02730894 0.07319093
v -0.02050000 0.02764989 0.07347075
v -0.02050000 0.02803889 0.07367867
v -0.02050000 0.02846097 0.07380671
v -0.02050000 0.02889993 0.06934994
v -0.02050000 0.02933888 0.06939318
v -0.02050000 0.02976097 0.06952121
v -0.02050000 0.03014996 0.06972914
v -0.02050000 0.03049092 0.07000895
v -0.02050000 0.03077073 0.07034991
v -0.02050000 0.03097866 0.07073890
v -0.02050000 0.03110669 0.07116099
v -0.02050000 0.02889993 0.07384994
v -0.02050000 0.02933888 0.07380671
v -0.02050000 0.02976097 0.07367867
v -0.02050000 0.03077073 0.07284998
v -0.02050000 0.03114993 0.07159994
v -0.02050000 0.03110669 0.07203890
v -0.02050000 0.03097866 0.07246098
v -0.02050000 0.03014996 0.07347075
v -0.02050000 0.03049092 0.07319093
f 2 1 21
f 1 3 4
f 3 1 6
f 1 5 6
f 12 7 1
f 5 1 7
f 10 1 2
f 20 1 4
f 8 20 4
f 20 8 9
f 20 9 22
f 1 20 21
f 3 8 4
f 5 3 6
f 13 3 5
f 13 5 7
f 3 9 8
f 3 25 9
f 21 46 2
f 1 10 12
f 10 13 12
f 13 10 14
f 10 15 14
f 15 10 16
f 10 17 16
f 10 2 11
f 41 10 11
f 13 7 12
f 15 13 14
f 13 18 3
f 18 13 15
f 17 15 16
f 18 15 17
f 18 35 3
f 32 18 19
f 10 41 17
f 41 18 17
f 18 41 19
f 41 32 19
f 41 11 42
f 2 52 11
f 42 11 57
f 23 20 22
f 20 23 24
f 25 20 24
f 30 20 25
f 20 30 21
f 9 23 22
f 9 25 23
f 23 25 24
f 3 35 25
f 25 27 26
f 25 35 27
f 27 29 28
f 27 35 29
f 30 31 21
f 30 25 26
f 27 30 26
f 30 27 28
f 29 30 28
f 35 30 29
f 30 44 31
f 21 31 63
f 39 18 32
f 39 32 33
f 35 18 39
f 39 33 34
f 35 37 36
f 35 39 37
f 36 37 38
f 37 39 40
f 32 41 33
f 33 41 34
f 41 39 34
f 41 43 39
f 44 41 42
f 43 36 38
f 43 35 36
f 37 43 38
f 43 37 40
f 39 43 40
f 35 43 30
f 43 44 30
f 43 41 44
f 44 72 31
f 44 42 75
f 45 2 46
f 2 47 48
f 47 2 49
f 2 45 49
f 52 2 48
f 50 46 21
f 51 50 21
f 60 51 21
f 45 52 47
f 47 52 48
f 45 47 49
f 50 45 46
f 50 60 45
f 60 50 51
f 11 52 53
f 54 11 53
f 11 54 55
f 56 11 55
f 11 56 57
f 42 57 58
f 42 58 59
f 68 42 59
f 52 54 53
f 52 56 54
f 45 56 52
f 54 56 55
f 45 76 56
f 57 68 58
f 56 76 57
f 58 68 59
f 21 61 60
f 21 62 61
f 21 63 62
f 31 64 63
f 64 31 65
f 31 66 65
f 66 31 67
f 31 72 67
f 62 60 61
f 64 45 60
f 64 60 62
f 64 62 63
f 76 45 64
f 66 64 65
f 72 64 66
f 72 66 67
f 42 68 69
f 70 42 69
f 42 70 75
f 72 44 73
f 44 76 71
f 74 44 71
f 44 74 73
f 76 44 75
f 57 76 68
f 68 70 69
f 70 68 76
f 70 76 75
f 76 64 72
f 76 74 71
f 74 72 73
f 76 72 74

