# https://github.com/mikedh/trimesh
v -0.02000000 -0.00450000 0.05080000
v -0.01912209 -0.00441353 0.05080000
v -0.01827792 -0.00415746 0.05080000
v -0.02000000 -0.00450000 0.05130000
v -0.01912209 -0.00441353 0.05130000
v -0.01827792 -0.00415746 0.05130000
v -0.02000000 -0.00200000 0.05080000
v -0.01800000 0.00000000 0.05080000
v -0.02000000 -0.00200000 0.05130000
v -0.01800000 0.00000000 0.05130000
v -0.01749993 -0.00374161 0.05080000
v -0.01681802 -0.00318198 0.05080000
v -0.01625839 -0.00250007 0.05080000
v -0.01749993 -0.00374161 0.05130000
v -0.01681802 -0.00318198 0.05130000
v -0.01625839 -0.00250007 0.05130000
v -0.01584254 -0.00172208 0.05080000
v -0.01558647 -0.00087791 0.05080000
v -0.01550000 0.00000000 0.05080000
v -0.01584254 -0.00172208 0.05130000
v -0.01558647 -0.00087791 0.05130000
v -0.01550000 0.00000000 0.05130000
f 3 2 1
f 7 3 1
f 4 1 2
f 4 7 1
f 3 6 2
f 3 11 14
f 4 2 5
f 6 4 5
f 7 4 9
f 2 6 5
f 3 14 6
f 14 4 6
f 20 4 14
f 19 3 7
f 19 7 8
f 7 10 8
f 10 7 9
f 4 10 9
f 10 4 20
f 3 13 11
f 11 13 12
f 15 11 12
f 13 15 12
f 15 14 11
f 20 14 15
f 13 16 15
f 20 15 16
f 3 19 13
f 10 19 8
f 17 13 19
f 13 17 16
f 20 17 18
f 17 19 18
f 19 21 18
f 17 20 16
f 21 20 18
f 19 10 22
f 19 22 21
f 10 20 22
f 22 20 21

