# https://github.com/mikedh/trimesh
v 0.02900000 -0.03877004 0.12360000
v 0.02900000 -0.03853007 0.12360000
v 0.02900000 -0.03824264 0.12424264
v 0.02900000 -0.03760000 0.12453007
v 0.02900000 -0.03760000 0.12477004
v 0.03200000 -0.03877004 0.12360000
v 0.03200000 -0.03853007 0.12360000
v 0.03200000 -0.03824264 0.12424264
v 0.03200000 -0.03760000 0.12453007
v 0.03200000 -0.03760000 0.12477004
f 3 2 1
f 2 6 1
f 6 3 1
f 2 4 7
f 5 2 3
f 2 5 4
f 3 10 5
f 5 10 4
f 6 2 7
f 3 6 8
f 10 6 7
f 6 10 8
f 7 4 9
f 10 3 8
f 4 10 9
f 10 7 9

