# https://github.com/mikedh/trimesh
v -0.01183147 0.00000000 0.04044443
v -0.01192388 0.00000000 0.04061732
v -0.01198079 0.00000000 0.04080491
v -0.01170711 0.00000000 0.04029289
v -0.01155557 0.00000000 0.04016853
v -0.01200000 0.00000000 0.04100000
v -0.01138268 0.00000000 0.04007612
v -0.01119509 0.00000000 0.04001921
v -0.01200000 0.00000000 0.04360000
v -0.01183147 0.00500000 0.04044443
v -0.01176845 0.00521201 0.04039623
v -0.01192388 0.00500000 0.04061732
v -0.01188845 0.00520846 0.04059109
v -0.01198079 0.00500000 0.04080491
v -0.01195819 0.00520233 0.04079766
v -0.01188845 0.00540891 0.04079154
v -0.01179410 0.00542977 0.04057023
v -0.01176845 0.00560377 0.04078799
v -0.01170711 0.00500000 0.04029289
v -0.01155557 0.00500000 0.04016853
v -0.01160377 0.00521201 0.04023155
v -0.01163571 0.00543789 0.04036429
v -0.01163571 0.00563571 0.04056211
v -0.01160377 0.00576845 0.04078799
v -0.01200000 0.00500000 0.04100000
v -0.01198079 0.00519509 0.04100000
v -0.01192388 0.00538268 0.04100000
v -0.01183147 0.00555557 0.04100000
v -0.01170711 0.00570711 0.04100000
v -0.01155557 0.00583147 0.04100000
v -0.01138268 0.00500000 0.04007612
v -0.01140891 0.00520846 0.04011155
v -0.01142977 0.00542977 0.04020589
v -0.01143789 0.00563571 0.04036429
v -0.01142977 0.00579410 0.04057023
v -0.01140891 0.00588845 0.04079154
v -0.01119509 0.00500000 0.04001921
v -0.01120233 0.00520233 0.04004181
v -0.01120846 0.00540891 0.04011155
v -0.01121202 0.00560377 0.04023155
v -0.01121202 0.00576845 0.04039623
v -0.01120846 0.00588845 0.04059109
v -0.01120233 0.00595819 0.04079766
v -0.01138268 0.00592388 0.04100000
v -0.01119509 0.00598079 0.04100000
v -0.01200000 0.00500000 0.04360000
v -0.01198079 0.00519509 0.04360000
v -0.01192388 0.00538268 0.04360000
v -0.01183147 0.00555557 0.04360000
v -0.01170711 0.00570711 0.04360000
v -0.01155557 0.00583147 0.04360000
v -0.01138268 0.00592388 0.04360000
v -0.01119509 0.00598079 0.04360000
v -0.01100000 0.00000000 0.04000000
v -0.01000000 0.00000000 0.04000000
v -0.01000000 0.00000000 0.04360000
v -0.01100000 0.00500000 0.04000000
v -0.01100000 0.00519509 0.04001921
v -0.01100000 0.00538268 0.04007612
v -0.01100000 0.00555557 0.04016853
v -0.01100000 0.00570711 0.04029289
v -0.01100000 0.00583147 0.04044443
v -0.01100000 0.00592388 0.04061732
v -0.01100000 0.00598079 0.04080491
v -0.01100000 0.00600000 0.04100000
v -0.01000000 0.00500000 0.04000000
v -0.01000000 0.00519509 0.04001921
v -0.01000000 0.00538268 0.04007612
v -0.01000000 0.00555557 0.04016853
v -0.01000000 0.00570711 0.04029289
v -0.01000000 0.00583147 0.04044443
v -0.01000000 0.00592388 0.04061732
v -0.01000000 0.00598079 0.04080491
v -0.01000000 0.00600000 0.04100000
v -0.01100000 0.00600000 0.04360000
v -0.01000000 0.00600000 0.04360000
f 1 3 2
f 1 6 3
f 4 5 1
f 8 1 5
f 1 9 6
f 1 10 4
f 12 1 2
f 3 14 2
f 3 6 14
f 19 5 4
f 8 5 7
f 55 1 8
f 55 9 1
f 5 20 7
f 8 7 31
f 54 8 57
f 9 46 6
f 2 14 12
f 1 12 10
f 10 19 4
f 19 20 5
f 14 6 25
f 19 10 11
f 13 10 12
f 12 15 13
f 12 14 15
f 14 26 15
f 13 11 10
f 16 13 15
f 27 16 15
f 11 13 17
f 13 16 17
f 18 17 16
f 28 18 16
f 19 11 21
f 20 21 32
f 20 19 21
f 22 11 17
f 22 21 11
f 22 23 34
f 33 21 22
f 33 22 34
f 23 22 17
f 18 23 17
f 18 29 24
f 18 24 23
f 23 35 34
f 24 35 23
f 24 30 36
f 26 14 25
f 15 26 27
f 27 28 16
f 28 29 18
f 30 24 29
f 20 31 7
f 8 31 37
f 57 8 37
f 31 20 32
f 38 31 32
f 31 38 37
f 32 21 33
f 33 39 32
f 39 38 32
f 33 40 39
f 33 34 40
f 34 35 41
f 41 40 34
f 35 24 36
f 42 35 36
f 35 42 41
f 44 43 36
f 43 42 36
f 58 37 38
f 57 37 58
f 59 38 39
f 40 60 39
f 40 41 61
f 59 58 38
f 39 60 59
f 60 40 61
f 41 62 61
f 41 42 62
f 63 42 43
f 43 45 64
f 42 63 62
f 64 63 43
f 30 44 36
f 44 45 43
f 64 45 65
f 6 46 25
f 9 48 46
f 46 26 25
f 26 48 27
f 27 49 28
f 28 50 29
f 50 30 29
f 26 46 47
f 46 48 47
f 48 26 47
f 49 27 48
f 50 28 49
f 48 50 49
f 30 50 51
f 48 52 50
f 50 52 51
f 9 76 48
f 52 44 30
f 45 44 52
f 75 65 45
f 52 30 51
f 45 52 53
f 75 45 53
f 52 75 53
f 48 76 52
f 55 8 54
f 66 55 54
f 9 55 56
f 76 9 56
f 55 76 56
f 66 54 57
f 58 66 57
f 58 59 67
f 60 68 59
f 60 61 69
f 61 62 70
f 63 72 62
f 73 63 64
f 65 73 64
f 69 55 66
f 55 69 76
f 66 58 67
f 68 67 59
f 68 60 69
f 69 61 70
f 62 71 70
f 71 62 72
f 63 73 72
f 68 66 67
f 68 69 66
f 69 70 71
f 73 69 71
f 73 71 72
f 73 65 74
f 76 69 73
f 52 76 75
f 76 65 75
f 65 76 74
f 76 73 74

