# https://github.com/mikedh/trimesh
v 0.03200000 -0.04000000 0.12000000
v 0.03200000 -0.04000000 0.12200000
v 0.03200000 -0.03992314 0.12278036
v 0.03200000 -0.03969552 0.12353073
v 0.03200000 -0.03965849 0.12360000
v 0.03200000 -0.03760000 0.12000000
v 0.03200000 -0.03760000 0.12360000
v 0.03500000 -0.04000000 0.12000000
v 0.03500000 -0.04000000 0.12200000
v 0.03500000 -0.03992314 0.12278036
v 0.03500000 -0.03969552 0.12353073
v 0.03500000 -0.03965849 0.12360000
v 0.03500000 -0.03760000 0.12000000
v 0.03500000 -0.03760000 0.12360000
f 5 6 1
f 2 1 8
f 6 8 1
f 5 1 2
f 5 2 3
f 5 3 4
f 2 9 3
f 3 10 4
f 12 5 4
f 6 5 7
f 5 14 7
f 14 6 7
f 2 8 9
f 3 9 10
f 4 10 11
f 12 4 11
f 14 5 12
f 8 12 9
f 9 12 10
f 10 12 11
f 8 14 12
f 8 6 13
f 6 14 13
f 14 8 13

