# https://github.com/mikedh/trimesh
v -0.02960000 0.02665496 0.07009990
v -0.02960000 0.02739989 0.06935497
v -0.02960000 0.02699074 0.06969075
v -0.02960000 0.02640545 0.07056670
v -0.02960000 0.02625181 0.07107320
v -0.02960000 0.02619993 0.07159994
v -0.02960000 0.02786668 0.06910547
v -0.02960000 0.02821436 0.06900000
v -0.02960000 0.02625181 0.07212669
v -0.02960000 0.02640545 0.07263319
v -0.02960000 0.02665496 0.07309998
v -0.02960000 0.02699074 0.07350913
v -0.02960000 0.02739989 0.07384491
v -0.02960000 0.02786668 0.07409442
v -0.02960000 0.02837318 0.07424806
v -0.02960000 0.02958549 0.06900000
v -0.02960000 0.02993317 0.06910547
v -0.02960000 0.03039997 0.06935497
v -0.02960000 0.03080912 0.06969075
v -0.02960000 0.03114490 0.07009990
v -0.02960000 0.03139440 0.07056670
v -0.02960000 0.03154805 0.07107320
v -0.02960000 0.03159993 0.07159994
v -0.02960000 0.02889993 0.07429994
v -0.02960000 0.02942667 0.07424806
v -0.02960000 0.02993317 0.07409442
v -0.02960000 0.03154805 0.07212669
v -0.02960000 0.03139440 0.07263319
v -0.02960000 0.03080912 0.07350913
v -0.02960000 0.03039997 0.07384491
v -0.02960000 0.03114490 0.07309998
v -0.02460000 0.02665496 0.07009990
v -0.02460000 0.02739989 0.06935497
v -0.02460000 0.02699074 0.06969075
v -0.02460000 0.02640545 0.07056670
v -0.02460000 0.02625181 0.07107320
v -0.02460000 0.02619993 0.07159994
v -0.02460000 0.02786668 0.06910547
v -0.02460000 0.02821436 0.06900000
v -0.02460000 0.02625181 0.07212669
v -0.02460000 0.02640545 0.07263319
v -0.02460000 0.02665496 0.07309998
v -0.02460000 0.02699074 0.07350913
v -0.02460000 0.02739989 0.07384491
v -0.02460000 0.02786668 0.07409442
v -0.02460000 0.02837318 0.07424806
v -0.02460000 0.02958549 0.06900000
v -0.02460000 0.02993317 0.06910547
v -0.02460000 0.03039997 0.06935497
v -0.02460000 0.03080912 0.06969075
v -0.02460000 0.03114490 0.07009990
v -0.02460000 0.03139440 0.07056670
v -0.02460000 0.03154805 0.07107320
v -0.02460000 0.03159993 0.07159994
v -0.02460000 0.02889993 0.07429994
v -0.02460000 0.02942667 0.07424806
v -0.02460000 0.02993317 0.07409442
v -0.02460000 0.03154805 0.07212669
v -0.02460000 0.03139440 0.07263319
v -0.02460000 0.03080912 0.07350913
v -0.02460000 0.03039997 0.07384491
v -0.02460000 0.03114490 0.07309998
f 5 3 1
f 3 7 2
f 5 7 3
f 5 1 4
f 9 5 6
f 12 7 5
f 7 16 8
f 12 23 7
f 1 3 32
f 1 32 4
f 33 3 2
f 35 5 4
f 5 37 6
f 7 33 2
f 39 7 8
f 16 39 8
f 12 5 9
f 12 9 10
f 12 10 11
f 14 12 13
f 15 12 14
f 15 26 12
f 37 9 6
f 41 10 9
f 10 42 11
f 42 12 11
f 12 43 13
f 14 13 44
f 14 45 15
f 15 46 24
f 7 18 16
f 16 18 17
f 7 23 18
f 18 20 19
f 18 23 20
f 20 22 21
f 22 20 23
f 16 17 47
f 18 48 17
f 49 18 19
f 19 20 50
f 51 20 21
f 22 53 21
f 23 54 22
f 23 12 26
f 26 15 24
f 26 24 25
f 23 26 31
f 23 31 27
f 27 31 28
f 31 26 29
f 29 26 30
f 24 55 25
f 57 26 25
f 26 57 30
f 58 23 27
f 58 27 28
f 28 31 59
f 60 29 30
f 31 29 60
f 3 33 34
f 32 3 34
f 32 35 4
f 5 35 36
f 37 5 36
f 33 7 38
f 7 39 38
f 39 32 33
f 33 32 34
f 32 37 35
f 35 37 36
f 39 33 38
f 50 32 39
f 9 37 40
f 41 9 40
f 41 42 10
f 43 12 42
f 13 43 44
f 45 14 44
f 15 45 46
f 24 46 55
f 37 41 40
f 32 43 37
f 37 43 41
f 41 43 42
f 43 45 44
f 32 57 43
f 43 46 45
f 43 57 46
f 39 16 47
f 17 48 47
f 48 18 49
f 50 49 19
f 50 20 51
f 51 21 52
f 21 53 52
f 22 54 53
f 39 47 48
f 50 39 48
f 32 50 57
f 50 48 49
f 52 50 51
f 58 50 52
f 54 52 53
f 58 52 54
f 25 55 56
f 57 25 56
f 30 57 61
f 23 58 54
f 59 31 62
f 58 28 59
f 60 30 61
f 31 60 62
f 46 57 55
f 55 57 56
f 57 50 58
f 60 58 59
f 57 58 60
f 57 60 61
f 60 59 62

