# https://github.com/mikedh/trimesh
v -0.03660000 -0.03000000 0.05400000
v -0.03660000 -0.03000000 0.05800000
v -0.03660000 -0.02700000 0.05400000
v -0.03660000 -0.02700000 0.05800000
v -0.03300000 -0.02877785 0.05584265
v -0.03300000 -0.02953553 0.05646447
v -0.03300000 -0.03000000 0.05703042
v -0.03300000 -0.03000000 0.05800000
v -0.03300000 -0.02791342 0.05538060
v -0.03300000 -0.02700000 0.05510352
v -0.03300000 -0.02700000 0.05800000
f 2 3 1
f 2 1 7
f 3 10 1
f 3 2 4
f 2 11 4
f 11 3 4
f 7 1 6
f 1 5 6
f 5 1 9
f 10 7 5
f 2 7 8
f 11 2 8
f 5 7 6
f 7 11 8
f 1 10 9
f 3 11 10
f 10 5 9
f 11 7 10

