# https://github.com/mikedh/trimesh
v 0.00000000 0.00120000 0.00200000
v 0.00120000 0.00000000 0.00200000
v 0.00000000 0.00120000 0.00300000
v 0.00120000 0.00000000 0.00300000
v 0.00000000 0.00600000 0.00200000
v 0.00000000 0.00598079 0.00219509
v 0.00000000 0.00592388 0.00238268
v 0.00000000 0.00583147 0.00255557
v 0.00000000 0.00579776 0.00259664
v 0.00000000 0.00570711 0.00270711
v 0.00000000 0.00500000 0.00300000
v 0.00000000 0.00519509 0.00298079
v 0.00000000 0.00555557 0.00283147
v 0.00000000 0.00538268 0.00292388
v 0.00600000 0.00000000 0.00200000
v 0.00600000 0.00000000 0.00300000
v 0.00600000 0.00600000 0.00200000
v 0.00600000 0.00598079 0.00219509
v 0.00600000 0.00592388 0.00238268
v 0.00600000 0.00583147 0.00255557
v 0.00600000 0.00579776 0.00259664
v 0.00600000 0.00570711 0.00270711
v 0.00600000 0.00500000 0.00300000
v 0.00600000 0.00519509 0.00298079
v 0.00600000 0.00555557 0.00283147
v 0.00600000 0.00538268 0.00292388
f 3 1 2
f 5 1 3
f 1 15 2
f 5 15 1
f 3 2 4
f 2 16 4
f 16 3 4
f 5 7 6
f 5 9 7
f 17 5 6
f 7 19 6
f 19 7 8
f 5 3 12
f 12 3 11
f 5 12 9
f 9 8 7
f 9 13 10
f 12 13 9
f 13 12 14
f 3 23 11
f 9 21 8
f 21 9 10
f 23 12 11
f 13 25 10
f 13 14 25
f 12 24 14
f 15 16 2
f 15 17 16
f 3 16 23
f 15 5 17
f 17 6 18
f 6 19 18
f 19 8 20
f 19 17 18
f 21 17 19
f 8 21 20
f 21 10 22
f 10 25 22
f 24 12 23
f 25 14 26
f 14 24 26
f 16 17 24
f 16 24 23
f 24 17 21
f 21 19 20
f 25 21 22
f 24 21 25
f 24 25 26

