# https://github.com/mikedh/trimesh
v -0.03660000 -0.03705584 0.04840000
v -0.03660000 -0.03684158 0.04818573
v -0.03605584 -0.03760000 0.04840000
v -0.03584158 -0.03760000 0.04818573
v -0.03660000 -0.03661886 0.04802094
v -0.03561886 -0.03760000 0.04802094
v -0.03557860 -0.03657860 0.04723537
v -0.03633342 -0.03400000 0.04701118
v -0.03545345 -0.03525076 0.04666932
v -0.03529610 -0.03400000 0.04645672
v -0.03660000 -0.03530038 0.04738597
v -0.03660000 -0.03527167 0.04737538
v -0.03660000 -0.03517265 0.04735975
v -0.03660000 -0.03400000 0.04722996
v -0.03660000 -0.03400000 0.04840000
v -0.03425076 -0.03645345 0.04666932
v -0.03300000 -0.03733342 0.04701118
v -0.03300000 -0.03629610 0.04645672
v -0.03430038 -0.03760000 0.04738597
v -0.03427167 -0.03760000 0.04737538
v -0.03417265 -0.03760000 0.04735975
v -0.03300000 -0.03760000 0.04722996
v -0.03300000 -0.03760000 0.04840000
v -0.03421401 -0.03521401 0.04625088
v -0.03417054 -0.03400000 0.04611529
v -0.03300000 -0.03517054 0.04611529
v -0.03300000 -0.03400000 0.04600000
v -0.03300000 -0.03400000 0.04840000
f 9 16 7
f 1 4 3
f 4 1 2
f 1 5 2
f 7 4 2
f 7 5 11
f 5 7 2
f 14 5 1
f 6 7 19
f 4 7 6
f 20 4 6
f 23 1 3
f 4 23 3
f 9 7 12
f 8 9 12
f 14 10 8
f 9 10 24
f 14 27 10
f 10 9 8
f 12 7 11
f 5 12 11
f 5 14 12
f 14 1 15
f 8 12 13
f 12 14 13
f 14 8 13
f 1 28 15
f 28 14 15
f 7 16 20
f 16 17 20
f 16 24 18
f 26 17 18
f 17 16 18
f 27 23 17
f 7 20 19
f 20 6 19
f 22 4 20
f 23 4 22
f 1 23 28
f 20 17 21
f 22 20 21
f 17 22 21
f 17 23 22
f 24 16 9
f 24 10 25
f 10 27 25
f 24 26 18
f 27 17 26
f 24 25 26
f 27 26 25
f 27 14 28
f 23 27 28

