# https://github.com/mikedh/trimesh
v -0.03660000 0.02700000 0.06200000
v -0.03660000 0.02700000 0.06489648
v -0.03660000 0.02791342 0.06461940
v -0.03660000 0.03000000 0.06200000
v -0.03660000 0.03000000 0.06296958
v -0.03660000 0.02877785 0.06415735
v -0.03660000 0.02953553 0.06353553
v -0.03300000 0.02700000 0.06200000
v -0.03300000 0.02700000 0.06489648
v -0.03300000 0.02791342 0.06461940
v -0.03300000 0.03000000 0.06200000
v -0.03300000 0.03000000 0.06296958
v -0.03300000 0.02877785 0.06415735
v -0.03300000 0.02953553 0.06353553
f 2 4 1
f 8 2 1
f 4 8 1
f 6 2 3
f 6 7 2
f 2 9 3
f 6 3 13
f 4 7 5
f 11 4 5
f 5 7 14
f 4 2 7
f 14 7 6
f 2 8 9
f 3 9 10
f 13 3 10
f 8 14 9
f 9 13 10
f 9 14 13
f 8 4 11
f 11 5 12
f 5 14 12
f 14 8 11
f 14 11 12
f 14 6 13

