# https://github.com/mikedh/trimesh
v -0.03633342 -0.03898882 0.08600000
v -0.03529610 -0.03954328 0.08600000
v -0.03633342 -0.03898882 0.11000000
v -0.03529610 -0.03954328 0.11000000
v -0.03660000 -0.03877004 0.08600000
v -0.03660000 -0.03760000 0.08600000
v -0.03660000 -0.03877004 0.11000000
v -0.03660000 -0.03760000 0.11000000
v -0.03417054 -0.03988471 0.08600000
v -0.03300000 -0.04000000 0.08600000
v -0.03417054 -0.03988471 0.11000000
v -0.03300000 -0.04000000 0.11000000
v -0.03300000 -0.03760000 0.08600000
v -0.03300000 -0.03760000 0.11000000
f 1 7 5
f 3 1 2
f 1 9 2
f 6 10 1
f 1 3 7
f 2 11 4
f 11 3 4
f 3 2 4
f 6 1 5
f 7 6 5
f 3 8 7
f 8 6 7
f 6 8 14
f 3 14 8
f 9 1 10
f 9 11 2
f 10 12 9
f 12 3 11
f 14 3 12
f 9 12 11
f 10 14 12
f 10 6 13
f 6 14 13
f 14 10 13

