# https://github.com/mikedh/trimesh
v 0.01250000 -0.02586603 0.08900000
v 0.01300000 -0.02600000 0.08900000
v 0.01300000 -0.02586603 0.08950000
v 0.01242265 -0.02557735 0.08842265
v 0.01242265 -0.02557735 0.08957735
v 0.01213397 -0.02550000 0.08900000
v 0.01300000 -0.02550000 0.08986603
v 0.01350000 -0.02586603 0.08900000
v 0.01357735 -0.02557735 0.08957735
v 0.01213397 -0.02500000 0.08850000
v 0.01200000 -0.02500000 0.08900000
v 0.01213397 -0.02500000 0.08950000
v 0.01250000 -0.02500000 0.08986603
v 0.01300000 -0.02500000 0.09000000
v 0.01350000 -0.02500000 0.08986603
v 0.01386603 -0.02500000 0.08950000
v 0.01213397 -0.02450000 0.08900000
v 0.01300000 -0.02450000 0.08986603
v 0.01242265 -0.02442265 0.08842265
v 0.01242265 -0.02442265 0.08957735
v 0.01250000 -0.02413397 0.08900000
v 0.01300000 -0.02413397 0.08950000
v 0.01357735 -0.02442265 0.08957735
v 0.01350000 -0.02413397 0.08900000
v 0.01300000 -0.02400000 0.08900000
v 0.02200000 -0.02550000 0.07200000
v 0.02150000 -0.02536603 0.07200000
v 0.02142265 -0.02507735 0.07142265
v 0.02200000 -0.02536603 0.07150000
v 0.02250000 -0.02536603 0.07200000
v 0.02257735 -0.02507735 0.07142265
v 0.02257735 -0.02507735 0.07257735
v 0.02200000 -0.02500000 0.07113397
v 0.02286603 -0.02500000 0.07200000
v 0.02113397 -0.02450000 0.07150000
v 0.02150000 -0.02450000 0.07113397
v 0.02200000 -0.02450000 0.07100000
v 0.02250000 -0.02450000 0.07113397
v 0.02286603 -0.02450000 0.07150000
v 0.02300000 -0.02450000 0.07200000
v 0.02286603 -0.02450000 0.07250000
v 0.02142265 -0.02392265 0.07142265
v 0.02150000 -0.02363397 0.07200000
v 0.02200000 -0.02400000 0.07113397
v 0.02286603 -0.02400000 0.07200000
v 0.02257735 -0.02392265 0.07142265
v 0.02257735 -0.02392265 0.07257735
v 0.02200000 -0.02363397 0.07150000
v 0.02200000 -0.02350000 0.07200000
v 0.02250000 -0.02363397 0.07200000
f 5 1 3
f 2 3 1
f 2 8 3
f 8 9 3
f 4 1 6
f 1 5 6
f 3 7 5
f 9 7 3
f 10 4 6
f 5 12 6
f 13 5 7
f 10 6 11
f 6 12 11
f 13 12 5
f 9 15 7
f 7 14 13
f 14 7 15
f 11 17 10
f 12 17 11
f 20 12 13
f 14 18 13
f 14 15 18
f 15 9 16
f 23 15 16
f 1 26 2
f 1 4 27
f 2 30 8
f 9 8 32
f 10 28 4
f 9 41 16
f 19 10 17
f 12 20 17
f 18 20 13
f 15 23 18
f 17 21 19
f 17 20 21
f 21 20 22
f 20 18 22
f 23 22 18
f 22 23 24
f 25 21 22
f 25 22 24
f 42 10 19
f 41 23 16
f 21 43 19
f 25 43 21
f 23 50 24
f 49 25 24
f 27 26 1
f 26 30 2
f 30 32 8
f 4 28 27
f 35 28 10
f 41 9 32
f 26 27 29
f 30 26 29
f 29 27 28
f 28 33 29
f 33 31 29
f 31 30 29
f 31 34 30
f 30 34 32
f 33 28 36
f 33 38 31
f 39 34 31
f 34 41 32
f 10 42 35
f 47 23 41
f 42 19 43
f 43 25 49
f 23 47 50
f 50 49 24
f 28 35 36
f 42 36 35
f 37 33 36
f 37 38 33
f 38 39 31
f 34 39 40
f 41 34 40
f 36 44 37
f 37 44 38
f 36 42 44
f 39 38 46
f 39 45 40
f 40 45 41
f 38 44 46
f 45 39 46
f 45 47 41
f 42 48 44
f 48 46 44
f 46 50 45
f 47 45 50
f 48 42 43
f 49 48 43
f 48 49 50
f 50 46 48

