# https://github.com/mikedh/trimesh
v -0.00992388 -0.00538268 0.00200000
v -0.00983147 -0.00555557 0.00200000
v -0.00970711 -0.00570711 0.00200000
v -0.00955557 -0.00583147 0.00200000
v -0.00998079 -0.00519509 0.00200000
v -0.01000000 -0.00500000 0.00200000
v -0.00938268 -0.00592388 0.00200000
v -0.00919509 -0.00598079 0.00200000
v -0.00900000 -0.00600000 0.00200000
v -0.00990866 -0.00525922 0.00300000
v -0.00979776 -0.00546668 0.00300000
v -0.00964853 -0.00564853 0.00300000
v -0.00992508 -0.00520506 0.00300000
v -0.00997694 -0.00503411 0.00300000
v -0.01000000 -0.00480000 0.00300000
v -0.00947998 -0.00578685 0.00300000
v -0.00946668 -0.00579776 0.00300000
v -0.00925922 -0.00590866 0.00300000
v -0.00903411 -0.00597694 0.00300000
v -0.00880000 -0.00600000 0.00300000
v -0.01000000 0.00000000 0.00200000
v -0.01000000 0.00000000 0.00300000
v -0.00600000 -0.00600000 0.00200000
v -0.00600000 -0.00598079 0.00219509
v -0.00600000 -0.00592388 0.00238268
v -0.00720000 -0.00600000 0.00300000
v -0.00600000 -0.00583147 0.00255557
v -0.00600000 -0.00570711 0.00270711
v -0.00696589 -0.00597694 0.00300000
v -0.00674078 -0.00590866 0.00300000
v -0.00653332 -0.00579776 0.00300000
v -0.00600000 -0.00555557 0.00283147
v -0.00635147 -0.00564853 0.00300000
v -0.00600000 -0.00538268 0.00292388
v -0.00620224 -0.00546668 0.00300000
v -0.00609134 -0.00525922 0.00300000
v -0.00600000 -0.00519509 0.00298079
v -0.00600000 -0.00500000 0.00300000
v -0.00600000 0.00000000 0.00200000
v -0.00600000 0.00000000 0.00300000
f 5 2 1
f 6 2 5
f 7 3 2
f 4 3 7
f 2 9 7
f 7 9 8
f 13 5 1
f 2 11 1
f 11 2 3
f 12 3 4
f 6 5 15
f 7 18 4
f 19 7 8
f 9 19 8
f 21 2 6
f 2 23 9
f 21 23 2
f 11 10 1
f 1 10 13
f 16 12 4
f 17 16 4
f 12 11 3
f 5 13 14
f 15 5 14
f 17 4 18
f 18 7 19
f 11 13 10
f 16 11 12
f 18 11 16
f 13 15 14
f 18 16 17
f 20 11 18
f 20 18 19
f 22 6 15
f 11 22 13
f 22 15 13
f 9 20 19
f 20 35 11
f 22 21 6
f 40 22 11
f 40 21 22
f 23 20 9
f 23 25 24
f 26 23 24
f 23 32 25
f 20 23 26
f 29 20 26
f 35 20 29
f 40 11 35
f 29 26 24
f 29 24 25
f 25 28 27
f 23 37 32
f 27 30 25
f 32 28 25
f 29 25 30
f 31 29 30
f 35 29 31
f 31 30 27
f 28 31 27
f 32 33 28
f 33 31 28
f 35 31 33
f 32 34 33
f 32 37 34
f 34 35 33
f 37 35 34
f 35 37 36
f 38 35 36
f 37 38 36
f 23 40 37
f 40 35 38
f 37 40 38
f 23 21 39
f 21 40 39
f 40 23 39

