# https://github.com/mikedh/trimesh
v 0.01145000 -0.02000000 0.05904737
v 0.01136491 -0.02063509 0.05936491
v 0.01104737 -0.02000000 0.05945000
v 0.01090000 -0.02000000 0.06000000
v 0.01104737 -0.02055000 0.06000000
v 0.01104737 -0.02000000 0.06055000
v 0.01145000 -0.02095263 0.06000000
v 0.01136491 -0.02063509 0.06063509
v 0.01145000 -0.02000000 0.06095263
v 0.01145000 -0.01200000 0.05904737
v 0.01136491 -0.01136491 0.05936491
v 0.01104737 -0.01200000 0.05945000
v 0.01090000 -0.01200000 0.06000000
v 0.01104737 -0.01145000 0.06000000
v 0.01104737 -0.01200000 0.06055000
v 0.01145000 -0.01104737 0.06000000
v 0.01136491 -0.01136491 0.06063509
v 0.01145000 -0.01200000 0.06095263
v 0.01200000 -0.02055000 0.05904737
v 0.01200000 -0.02000000 0.05890000
v 0.01200000 -0.02095263 0.05945000
v 0.01255000 -0.02000000 0.05904737
v 0.01263509 -0.02063509 0.05936491
v 0.01295263 -0.02000000 0.05945000
v 0.01200000 -0.02110000 0.06000000
v 0.01200000 -0.02095263 0.06055000
v 0.01200000 -0.02055000 0.06095263
v 0.01200000 -0.02000000 0.06110000
v 0.01255000 -0.02095263 0.06000000
v 0.01295263 -0.02055000 0.06000000
v 0.01310000 -0.02000000 0.06000000
v 0.01295263 -0.02000000 0.06055000
v 0.01263509 -0.02063509 0.06063509
v 0.01255000 -0.02000000 0.06095263
v 0.01200000 -0.01200000 0.05890000
v 0.01200000 -0.01145000 0.05904737
v 0.01200000 -0.01104737 0.05945000
v 0.01255000 -0.01200000 0.05904737
v 0.01263509 -0.01136491 0.05936491
v 0.01295263 -0.01200000 0.05945000
v 0.01200000 -0.01090000 0.06000000
v 0.01200000 -0.01104737 0.06055000
v 0.01200000 -0.01200000 0.06110000
v 0.01200000 -0.01145000 0.06095263
v 0.01255000 -0.01104737 0.06000000
v 0.01295263 -0.01145000 0.06000000
v 0.01310000 -0.01200000 0.06000000
v 0.01295263 -0.01200000 0.06055000
v 0.01263509 -0.01136491 0.06063509
v 0.01255000 -0.01200000 0.06095263
f 1 2 3
f 3 2 5
f 5 4 3
f 2 7 5
f 12 1 3
f 4 12 3
f 1 19 2
f 1 20 19
f 19 21 2
f 21 7 2
f 7 21 25
f 1 10 20
f 4 5 6
f 5 8 6
f 8 5 7
f 8 9 6
f 15 4 6
f 15 6 9
f 8 7 26
f 26 7 25
f 9 8 27
f 8 26 27
f 28 9 27
f 18 9 28
f 10 1 12
f 12 4 13
f 10 12 11
f 12 14 11
f 12 13 14
f 14 16 11
f 35 20 10
f 36 10 11
f 36 35 10
f 37 36 11
f 11 16 37
f 41 37 16
f 4 15 13
f 15 9 18
f 15 14 13
f 14 15 17
f 16 14 17
f 17 15 18
f 43 18 28
f 42 16 17
f 41 16 42
f 44 17 18
f 44 42 17
f 44 18 43
f 22 19 20
f 21 19 23
f 19 22 23
f 29 25 21
f 23 29 21
f 35 22 20
f 23 22 24
f 30 29 23
f 30 23 24
f 31 30 24
f 22 40 24
f 24 40 31
f 25 29 26
f 29 33 26
f 33 27 26
f 28 27 34
f 27 33 34
f 50 28 34
f 33 29 30
f 31 32 30
f 33 30 32
f 33 32 34
f 31 47 32
f 34 32 48
f 22 35 38
f 35 36 38
f 36 37 39
f 36 39 38
f 41 45 37
f 37 45 39
f 40 22 38
f 47 31 40
f 39 40 38
f 46 39 45
f 46 40 39
f 40 46 47
f 28 50 43
f 41 42 45
f 42 49 45
f 44 49 42
f 50 44 43
f 49 44 50
f 32 47 48
f 50 34 48
f 49 46 45
f 47 46 48
f 49 48 46
f 50 48 49

