# https://github.com/mikedh/trimesh
v -0.02000000 0.00200000 0.04600000
v -0.01800000 0.00000000 0.04600000
v -0.02000000 0.00200000 0.05080000
v -0.01800000 0.00000000 0.05080000
v -0.02000000 0.00450000 0.04600000
v -0.01912209 0.00441353 0.04600000
v -0.01827792 0.00415746 0.04600000
v -0.02000000 0.00340000 0.05080000
v -0.01917045 0.00417045 0.05080000
v -0.01550000 0.00000000 0.04600000
v -0.01558647 0.00087791 0.04600000
v -0.01584254 0.00172208 0.04600000
v -0.01660000 0.00000000 0.05080000
v -0.01640766 0.00140766 0.05080000
v -0.01681802 0.00318198 0.04600000
v -0.01749993 0.00374161 0.04600000
v -0.01625839 0.00250007 0.04600000
f 1 10 2
f 4 1 2
f 5 10 1
f 3 1 4
f 4 13 3
f 13 9 3
f 3 5 1
f 7 5 6
f 5 9 6
f 15 5 7
f 9 7 6
f 7 9 16
f 9 15 16
f 5 3 8
f 3 9 8
f 9 5 8
f 10 4 2
f 10 12 11
f 14 10 11
f 10 15 12
f 14 12 17
f 12 14 11
f 10 13 4
f 9 13 14
f 13 10 14
f 10 5 15
f 15 7 16
f 12 15 17
f 15 14 17
f 15 9 14

