# https://github.com/mikedh/trimesh
v -0.02460000 -0.03162132 0.06887868
v -0.02460000 -0.03100000 0.06840192
v -0.02460000 -0.03064805 0.06822836
v -0.02460000 -0.03132628 0.06861994
v -0.02460000 -0.03188006 0.06917372
v -0.02460000 -0.03209808 0.06950000
v -0.02460000 -0.03227164 0.06985195
v -0.02460000 -0.03027646 0.06810222
v -0.02460000 -0.02989158 0.06802567
v -0.02460000 -0.02950000 0.06800000
v -0.02460000 -0.03239778 0.07022354
v -0.02460000 -0.03247433 0.07060842
v -0.02460000 -0.03250000 0.07100000
v -0.02460000 -0.03250000 0.09500000
v -0.02460000 -0.03247433 0.09539158
v -0.02460000 -0.03239778 0.09577646
v -0.02460000 -0.03227164 0.09614805
v -0.02460000 -0.03209808 0.09650000
v -0.02460000 -0.03188006 0.09682628
v -0.02460000 -0.03162132 0.09712132
v -0.02460000 -0.03132628 0.09738006
v -0.02460000 -0.03100000 0.09759808
v -0.02460000 -0.03064805 0.09777164
v -0.02460000 -0.03027646 0.09789778
v -0.02460000 -0.02989158 0.09797433
v -0.02460000 -0.02950000 0.09800000
v -0.02460000 0.02950000 0.06800000
v -0.02460000 0.02989158 0.06802567
v -0.02460000 0.03027646 0.06810222
v -0.02460000 0.03064805 0.06822836
v -0.02460000 0.03100000 0.06840192
v -0.02460000 0.03132628 0.06861994
v -0.02460000 0.03162132 0.06887868
v -0.02460000 0.03188006 0.06917372
v -0.02460000 0.03209808 0.06950000
v -0.02460000 0.03227164 0.06985195
v -0.02460000 0.03239778 0.07022354
v -0.02460000 0.03247433 0.07060842
v -0.02460000 0.03250000 0.07100000
v -0.02460000 0.03250000 0.09500000
v -0.02460000 0.03247433 0.09539158
v -0.02460000 0.03239778 0.09577646
v -0.02460000 0.02950000 0.09800000
v -0.02460000 0.02989158 0.09797433
v -0.02460000 0.03027646 0.09789778
v -0.02460000 0.03227164 0.09614805
v -0.02460000 0.03209808 0.09650000
v -0.02460000 0.03188006 0.09682628
v -0.02460000 0.03132628 0.09738006
v -0.02460000 0.03064805 0.09777164
v -0.02460000 0.03100000 0.09759808
v -0.02460000 0.03162132 0.09712132
v -0.02300000 -0.03162132 0.06887868
v -0.02300000 -0.03100000 0.06840192
v -0.02300000 -0.03064805 0.06822836
v -0.02300000 -0.03132628 0.06861994
v -0.02300000 -0.03188006 0.06917372
v -0.02300000 -0.03209808 0.06950000
v -0.02300000 -0.03227164 0.06985195
v -0.02300000 -0.03027646 0.06810222
v -0.02300000 -0.02989158 0.06802567
v -0.02300000 -0.02950000 0.06800000
v -0.02300000 -0.03239778 0.07022354
v -0.02300000 -0.03247433 0.07060842
v -0.02300000 -0.03250000 0.07100000
v -0.02300000 -0.03250000 0.09500000
v -0.02300000 -0.03247433 0.09539158
v -0.02300000 -0.03239778 0.09577646
v -0.02300000 -0.03227164 0.09614805
v -0.02300000 -0.03209808 0.09650000
v -0.02300000 -0.03188006 0.09682628
v -0.02300000 -0.03162132 0.09712132
v -0.02300000 -0.03132628 0.09738006
v -0.02300000 -0.03100000 0.09759808
v -0.02300000 -0.03064805 0.09777164
v -0.02300000 -0.03027646 0.09789778
v -0.02300000 -0.02989158 0.09797433
v -0.02300000 -0.02950000 0.09800000
v -0.02300000 0.02950000 0.06800000
v -0.02300000 0.02989158 0.06802567
v -0.02300000 0.03027646 0.06810222
v -0.02300000 0.03064805 0.06822836
v -0.02300000 0.03100000 0.06840192
v -0.02300000 0.03132628 0.06861994
v -0.02300000 0.03162132 0.06887868
v -0.02300000 0.03188006 0.06917372
v -0.02300000 0.03209808 0.06950000
v -0.02300000 0.03227164 0.06985195
v -0.02300000 0.03239778 0.07022354
v -0.02300000 0.03247433 0.07060842
v -0.02300000 0.03250000 0.07100000
v -0.02300000 0.03250000 0.09500000
v -0.02300000 0.03247433 0.09539158
v -0.02300000 0.03239778 0.09577646
v -0.02300000 0.02950000 0.09800000
v -0.02300000 0.02989158 0.09797433
v -0.02300000 0.03027646 0.09789778
v -0.02300000 0.03227164 0.09614805
v -0.02300000 0.03209808 0.09650000
v -0.02300000 0.03188006 0.09682628
v -0.02300000 0.03132628 0.09738006
v -0.02300000 0.03064805 0.09777164
v -0.02300000 0.03100000 0.09759808
v -0.02300000 0.03162132 0.09712132
f 5 4 1
f 4 3 2
f 5 3 4
f 12 3 5
f 7 5 6
f 3 10 8
f 8 10 9
f 12 5 7
f 12 7 11
f 14 3 12
f 14 12 13
f 3 30 10
f 26 39 3
f 4 53 1
f 3 54 2
f 54 4 2
f 5 58 6
f 53 5 1
f 58 7 6
f 60 3 8
f 61 8 9
f 10 61 9
f 7 63 11
f 63 12 11
f 12 64 13
f 26 3 14
f 16 14 15
f 17 14 16
f 20 14 17
f 19 17 18
f 20 17 19
f 26 14 20
f 23 20 21
f 23 21 22
f 26 20 23
f 26 23 24
f 26 24 25
f 13 66 14
f 14 67 15
f 67 16 15
f 68 17 16
f 17 70 18
f 70 19 18
f 20 19 71
f 20 73 21
f 21 74 22
f 74 23 22
f 76 24 23
f 24 77 25
f 77 26 25
f 26 78 43
f 10 30 27
f 3 39 30
f 27 29 28
f 27 30 29
f 30 32 31
f 30 34 32
f 32 34 33
f 30 39 34
f 34 36 35
f 34 39 36
f 36 39 37
f 37 39 38
f 10 27 79
f 80 27 28
f 29 80 28
f 30 81 29
f 83 30 31
f 32 83 31
f 85 32 33
f 34 85 33
f 87 34 35
f 36 87 35
f 89 36 37
f 90 37 38
f 39 90 38
f 39 26 50
f 26 43 50
f 39 41 40
f 39 50 41
f 41 46 42
f 41 48 46
f 43 44 45
f 50 43 45
f 46 48 47
f 41 50 48
f 48 50 49
f 49 50 51
f 48 49 52
f 92 39 40
f 40 41 93
f 94 41 42
f 46 94 42
f 43 95 44
f 97 45 44
f 98 46 47
f 47 48 100
f 48 52 100
f 52 49 101
f 49 51 101
f 50 102 51
f 102 50 45
f 55 3 60
f 3 55 54
f 56 4 54
f 4 56 53
f 57 5 53
f 5 57 58
f 59 7 58
f 60 8 61
f 10 62 61
f 59 63 7
f 64 12 63
f 13 64 65
f 66 13 65
f 62 10 79
f 57 53 56
f 55 56 54
f 55 57 56
f 55 64 57
f 57 59 58
f 62 55 60
f 62 60 61
f 64 59 57
f 59 64 63
f 64 66 65
f 55 75 64
f 82 55 62
f 14 66 67
f 68 16 67
f 17 68 69
f 70 17 69
f 19 70 71
f 20 71 72
f 73 20 72
f 73 74 21
f 75 23 74
f 75 76 23
f 76 77 24
f 78 26 77
f 64 70 66
f 64 75 70
f 66 68 67
f 68 66 70
f 68 70 69
f 70 73 71
f 71 73 72
f 73 70 75
f 73 75 74
f 75 78 76
f 76 78 77
f 55 102 75
f 75 102 78
f 79 27 80
f 81 80 29
f 30 82 81
f 82 30 83
f 84 83 32
f 84 32 85
f 86 85 34
f 86 34 87
f 36 88 87
f 88 36 89
f 89 37 90
f 39 91 90
f 92 91 39
f 82 62 79
f 55 82 102
f 81 79 80
f 82 79 81
f 84 82 83
f 86 82 84
f 86 84 85
f 86 91 82
f 86 87 88
f 91 86 88
f 91 88 89
f 91 89 90
f 102 82 91
f 43 78 95
f 92 40 93
f 41 94 93
f 98 94 46
f 44 95 96
f 97 44 96
f 102 45 97
f 98 47 99
f 100 52 104
f 47 100 99
f 101 51 103
f 51 102 103
f 52 101 104
f 78 102 95
f 102 91 92
f 92 93 94
f 98 92 94
f 95 97 96
f 95 102 97
f 102 92 98
f 100 98 99
f 100 101 98
f 102 98 101
f 102 101 103
f 101 100 104

