# https://github.com/mikedh/trimesh
v 0.03860000 0.02700000 0.05400000
v 0.03860000 0.02700000 0.05576710
v 0.03860000 0.03000000 0.05400000
v 0.03860000 0.02892820 0.05800000
v 0.03860000 0.03000000 0.05800000
v 0.04100000 0.02700000 0.05400000
v 0.04100000 0.02700000 0.05576710
v 0.04100000 0.03000000 0.05400000
v 0.04100000 0.02892820 0.05800000
v 0.04100000 0.03000000 0.05800000
f 4 1 2
f 1 7 2
f 3 6 1
f 7 4 2
f 4 3 1
f 3 4 5
f 10 3 5
f 4 10 5
f 1 6 7
f 6 10 7
f 4 7 9
f 6 3 8
f 3 10 8
f 10 6 8
f 10 4 9
f 7 10 9

