# https://github.com/mikedh/trimesh
v -0.03724264 0.03400000 0.04775736
v -0.03777004 0.03400000 0.04840000
v -0.03764025 0.03517265 0.04840000
v -0.03762462 0.03527167 0.04840000
v -0.03761070 0.03527209 0.04837740
v -0.03761403 0.03530038 0.04840000
v -0.03660000 0.03400000 0.04722996
v -0.03660000 0.03517265 0.04735975
v -0.03660000 0.03527167 0.04737538
v -0.03662260 0.03527209 0.04738930
v -0.03660000 0.03530038 0.04738597
v -0.03660000 0.03400000 0.04840000
v -0.03697906 0.03661886 0.04840000
v -0.03660000 0.03661886 0.04802094
v -0.03681427 0.03662731 0.04818573
v -0.03681427 0.03684158 0.04840000
v -0.03660000 0.03684158 0.04818573
v -0.03660000 0.03705584 0.04840000
f 7 2 1
f 2 5 1
f 2 6 3
f 5 2 3
f 5 3 4
f 3 6 4
f 6 5 4
f 2 18 6
f 5 6 13
f 7 1 8
f 1 10 8
f 8 11 7
f 8 10 9
f 11 8 9
f 10 11 9
f 18 7 11
f 2 7 12
f 5 10 1
f 18 2 12
f 7 18 12
f 14 11 10
f 10 5 15
f 5 13 15
f 13 6 18
f 15 14 10
f 18 11 14
f 15 13 16
f 13 18 16
f 14 15 17
f 18 14 17
f 18 15 16
f 15 18 17

