# https://github.com/mikedh/trimesh
v -0.00395263 -0.01400000 0.05305000
v -0.00363509 -0.01336491 0.05296491
v -0.00355000 -0.01400000 0.05264737
v -0.00395263 -0.01455000 0.05360000
v -0.00410000 -0.01400000 0.05360000
v -0.00395263 -0.01345000 0.05360000
v -0.00355000 -0.01304737 0.05360000
v -0.00300000 -0.01400000 0.05250000
v -0.00300000 -0.01345000 0.05264737
v -0.00300000 -0.01304737 0.05305000
v -0.00245000 -0.01400000 0.05264737
v -0.00236491 -0.01336491 0.05296491
v -0.00204737 -0.01400000 0.05305000
v -0.00300000 -0.01290000 0.05360000
v -0.00245000 -0.01304737 0.05360000
v -0.00204737 -0.01345000 0.05360000
v -0.00395263 -0.01400000 0.05415000
v -0.00363509 -0.01336491 0.05423509
v -0.00355000 -0.01400000 0.05455263
v -0.00300000 -0.01304737 0.05415000
v -0.00236491 -0.01336491 0.05423509
v -0.00204737 -0.01400000 0.05415000
v -0.00300000 -0.01400000 0.05470000
v -0.00300000 -0.01345000 0.05455263
v -0.00245000 -0.01400000 0.05455263
v -0.00155000 -0.02100000 0.05304737
v -0.00100000 -0.02155000 0.05304737
v -0.00100000 -0.02100000 0.05290000
v -0.00195263 -0.02100000 0.05345000
v -0.00163509 -0.02163509 0.05336491
v -0.00100000 -0.02195263 0.05345000
v -0.00045000 -0.02100000 0.05304737
v -0.00036491 -0.02163509 0.05336491
v -0.00004737 -0.02100000 0.05345000
v -0.00195263 -0.02155000 0.05400000
v -0.00155000 -0.02195263 0.05400000
v -0.00100000 -0.02210000 0.05400000
v -0.00195263 -0.02100000 0.05455000
v -0.00163509 -0.02163509 0.05463509
v -0.00155000 -0.02100000 0.05495263
v -0.00100000 -0.02195263 0.05455000
v -0.00100000 -0.02155000 0.05495263
v -0.00100000 -0.02100000 0.05510000
v -0.00045000 -0.02195263 0.05400000
v -0.00004737 -0.02155000 0.05400000
v 0.00010000 -0.02100000 0.05400000
v -0.00004737 -0.02045000 0.05400000
v -0.00045000 -0.02100000 0.05495263
v -0.00036491 -0.02163509 0.05463509
v -0.00004737 -0.02100000 0.05455000
f 35 4 29
f 1 26 29
f 17 35 38
f 17 38 40
f 4 1 29
f 2 3 1
f 2 9 3
f 9 8 3
f 10 9 2
f 5 1 4
f 17 5 4
f 6 2 1
f 5 6 1
f 6 7 2
f 5 17 6
f 7 10 2
f 7 14 10
f 14 7 20
f 3 8 26
f 1 3 26
f 8 9 11
f 9 12 11
f 12 9 10
f 12 13 11
f 15 10 14
f 12 10 15
f 20 15 14
f 16 12 15
f 16 13 12
f 35 17 4
f 17 18 6
f 18 7 6
f 18 17 19
f 7 18 20
f 24 18 19
f 20 18 24
f 24 19 23
f 17 40 19
f 19 40 23
f 25 23 43
f 20 21 15
f 21 20 24
f 25 21 24
f 21 16 15
f 16 21 22
f 21 25 22
f 23 25 24
f 26 28 27
f 29 26 30
f 29 30 35
f 30 36 35
f 30 26 27
f 31 30 27
f 36 30 31
f 8 28 26
f 32 28 8
f 27 28 32
f 31 27 33
f 33 27 32
f 31 33 44
f 34 33 32
f 44 33 45
f 45 33 34
f 34 32 13
f 34 16 47
f 35 39 38
f 36 39 35
f 37 36 31
f 39 36 41
f 37 41 36
f 40 38 39
f 41 42 39
f 39 42 40
f 42 43 40
f 43 23 40
f 25 48 50
f 48 25 43
f 37 31 44
f 37 44 41
f 44 49 41
f 45 34 46
f 49 44 45
f 46 50 45
f 50 49 45
f 46 34 47
f 46 47 50
f 49 42 41
f 48 43 42
f 49 48 42
f 48 49 50
f 16 50 47
f 11 32 8
f 13 32 11
f 13 16 34
f 25 50 22
f 50 16 22

