# https://github.com/mikedh/trimesh
v -0.02960000 -0.02800000 0.06908024
v -0.02960000 -0.02791685 0.06910547
v -0.02960000 -0.02745006 0.06935497
v -0.02960000 -0.02800000 0.07411964
v -0.02960000 -0.02791685 0.07409442
v -0.02960000 -0.02745006 0.07384491
v -0.02960000 -0.02704091 0.06969075
v -0.02960000 -0.02670513 0.07009990
v -0.02960000 -0.02645562 0.07056670
v -0.02960000 -0.02630198 0.07107320
v -0.02960000 -0.02704091 0.07350913
v -0.02960000 -0.02670513 0.07309998
v -0.02960000 -0.02625010 0.07159994
v -0.02960000 -0.02630198 0.07212669
v -0.02960000 -0.02645562 0.07263319
v -0.02460000 -0.02800000 0.06908024
v -0.02460000 -0.02791685 0.06910547
v -0.02460000 -0.02745006 0.06935497
v -0.02460000 -0.02800000 0.07411964
v -0.02460000 -0.02791685 0.07409442
v -0.02460000 -0.02745006 0.07384491
v -0.02460000 -0.02704091 0.06969075
v -0.02460000 -0.02670513 0.07009990
v -0.02460000 -0.02645562 0.07056670
v -0.02460000 -0.02630198 0.07107320
v -0.02460000 -0.02704091 0.07350913
v -0.02460000 -0.02670513 0.07309998
v -0.02460000 -0.02625010 0.07159994
v -0.02460000 -0.02630198 0.07212669
v -0.02460000 -0.02645562 0.07263319
f 1 3 2
f 1 8 3
f 16 1 2
f 2 3 18
f 16 4 1
f 22 3 7
f 6 4 5
f 1 4 13
f 12 4 6
f 4 20 5
f 20 6 5
f 6 26 11
f 3 8 7
f 1 13 8
f 8 13 9
f 10 9 13
f 8 22 7
f 24 8 9
f 24 9 10
f 13 28 10
f 12 6 11
f 13 4 12
f 14 12 15
f 13 12 14
f 26 12 11
f 13 14 28
f 14 15 29
f 12 27 15
f 16 2 17
f 2 18 17
f 3 22 18
f 18 16 17
f 18 22 16
f 22 24 16
f 4 16 19
f 4 19 20
f 21 6 20
f 21 26 6
f 16 27 19
f 19 21 20
f 21 19 27
f 22 8 23
f 8 24 23
f 24 10 25
f 10 28 25
f 24 22 23
f 24 27 16
f 28 24 25
f 27 12 26
f 15 27 30
f 14 29 28
f 29 15 30
f 21 27 26
f 27 24 28
f 27 29 30
f 27 28 29

