# https://github.com/mikedh/trimesh
v 0.03410000 0.00400000 0.06130000
v 0.03422058 0.00400000 0.06085000
v 0.03448038 0.00348038 0.06078038
v 0.03422058 0.00355000 0.06130000
v 0.03422058 0.00400000 0.06175000
v 0.03448038 0.00451962 0.06078038
v 0.03448038 0.00348038 0.06181962
v 0.03348038 0.01051962 0.06448038
v 0.03322058 0.00955000 0.06500000
v 0.03322058 0.01000000 0.06455000
v 0.03310000 0.01000000 0.06500000
v 0.03322058 0.01045000 0.06500000
v 0.03322058 0.01000000 0.06545000
v 0.03348038 0.00948038 0.06551962
v 0.03355000 0.01077942 0.06500000
v 0.03355000 0.01000000 0.06577942
v 0.03348038 0.01051962 0.06551962
v 0.03400000 0.01045000 0.06422058
v 0.03400000 0.00955000 0.06577942
v 0.03400000 0.01077942 0.06455000
v 0.03400000 0.01090000 0.06500000
v 0.03400000 0.01000000 0.06590000
v 0.03400000 0.01077942 0.06545000
v 0.03400000 0.01045000 0.06577942
v 0.03445000 0.01077942 0.06500000
v 0.03445000 0.01000000 0.06577942
v 0.03455000 0.00400000 0.06052058
v 0.03455000 0.00322058 0.06130000
v 0.03500000 0.00355000 0.06052058
v 0.03500000 0.00322058 0.06085000
v 0.03500000 0.00400000 0.06040000
v 0.03500000 0.00310000 0.06130000
v 0.03500000 0.00322058 0.06175000
v 0.03500000 0.00445000 0.06052058
v 0.03500000 0.00355000 0.06207942
v 0.03551962 0.00348038 0.06078038
v 0.03545000 0.00400000 0.06052058
v 0.03545000 0.00322058 0.06130000
v 0.03551962 0.00451962 0.06078038
v 0.03577942 0.00400000 0.06085000
v 0.03577942 0.00355000 0.06130000
v 0.03590000 0.00400000 0.06130000
v 0.03577942 0.00400000 0.06175000
v 0.03577942 0.00445000 0.06130000
v 0.03551962 0.00348038 0.06181962
v 0.03451962 0.01051962 0.06448038
v 0.03451962 0.00948038 0.06551962
v 0.03477942 0.01000000 0.06455000
v 0.03477942 0.01045000 0.06500000
v 0.03451962 0.01051962 0.06551962
v 0.03477942 0.01000000 0.06545000
v 0.03490000 0.01000000 0.06500000
f 2 3 4
f 3 2 27
f 1 2 4
f 4 7 5
f 3 28 4
f 7 4 28
f 2 6 27
f 11 2 1
f 4 5 9
f 11 1 4
f 7 14 5
f 2 10 6
f 8 34 6
f 19 7 35
f 34 8 18
f 11 4 9
f 9 5 13
f 5 14 13
f 11 10 2
f 8 6 10
f 9 13 11
f 14 16 13
f 11 12 10
f 12 11 13
f 12 8 10
f 15 8 12
f 15 12 17
f 13 17 12
f 13 16 17
f 16 14 19
f 20 8 15
f 24 17 16
f 17 23 15
f 14 7 19
f 20 18 8
f 46 18 20
f 22 16 19
f 19 26 22
f 21 20 15
f 23 21 15
f 21 25 20
f 23 25 21
f 24 16 22
f 17 24 23
f 26 24 22
f 19 47 26
f 25 46 20
f 26 50 24
f 25 23 50
f 23 24 50
f 30 3 29
f 28 3 30
f 3 27 29
f 33 7 28
f 27 6 34
f 27 31 29
f 36 30 29
f 31 37 29
f 32 28 30
f 32 33 28
f 32 30 38
f 32 38 33
f 27 34 31
f 37 31 34
f 7 33 35
f 33 45 35
f 34 46 39
f 36 38 30
f 29 37 36
f 45 33 38
f 34 39 37
f 36 37 40
f 36 40 41
f 36 41 38
f 45 38 41
f 43 45 41
f 40 42 41
f 42 43 41
f 37 39 40
f 42 40 44
f 51 45 43
f 42 51 43
f 39 48 40
f 40 48 44
f 42 44 49
f 45 19 35
f 18 46 34
f 19 45 47
f 45 51 47
f 39 46 48
f 42 49 52
f 49 44 48
f 51 42 52
f 47 51 26
f 46 25 49
f 49 25 50
f 46 49 48
f 49 51 52
f 51 50 26
f 51 49 50

