# https://github.com/mikedh/trimesh
v 0.03500000 -0.03400000 0.11855531
v 0.03500000 -0.03377772 0.11867412
v 0.03500000 -0.03317157 0.11917157
v 0.03500000 -0.03400000 0.12000000
v 0.03500000 -0.03267412 0.11977772
v 0.03500000 -0.03255531 0.12000000
v 0.03860000 -0.03400000 0.11800000
v 0.03860000 -0.03400000 0.12000000
v 0.03860000 -0.03000000 0.11800000
v 0.03860000 -0.03000000 0.12000000
f 1 3 2
f 7 4 1
f 9 1 2
f 3 9 2
f 1 6 3
f 1 4 6
f 3 6 5
f 4 10 6
f 9 3 5
f 6 9 5
f 9 7 1
f 7 9 8
f 4 7 8
f 4 8 10
f 10 9 6
f 9 10 8

