# https://github.com/mikedh/trimesh
v 0.02900000 -0.04000000 0.12000000
v 0.02900000 -0.03988471 0.12117054
v 0.02900000 -0.03954328 0.12229610
v 0.02900000 -0.03822089 0.12000000
v 0.02900000 -0.03898882 0.12333342
v 0.02900000 -0.03877004 0.12360000
v 0.02900000 -0.03853007 0.12360000
v 0.03200000 -0.04000000 0.12000000
v 0.03200000 -0.03988471 0.12117054
v 0.03200000 -0.03954328 0.12229610
v 0.03200000 -0.03822089 0.12000000
v 0.03200000 -0.03898882 0.12333342
v 0.03200000 -0.03877004 0.12360000
v 0.03200000 -0.03853007 0.12360000
f 3 1 2
f 1 9 2
f 9 3 2
f 4 8 1
f 6 1 3
f 3 12 5
f 6 4 1
f 4 7 11
f 6 3 5
f 4 6 7
f 12 6 5
f 6 14 7
f 1 8 9
f 8 10 9
f 10 3 9
f 10 12 3
f 8 14 10
f 8 4 11
f 14 8 11
f 6 12 13
f 14 6 13
f 14 11 7
f 10 14 12
f 12 14 13

