# https://github.com/mikedh/trimesh
v -0.00095263 -0.02455000 0.05600000
v -0.00110000 -0.02400000 0.05600000
v -0.00063509 -0.02463509 0.05536491
v -0.00055000 -0.02495263 0.05600000
v -0.00095263 -0.02400000 0.05655000
v -0.00063509 -0.02463509 0.05663509
v -0.00055000 -0.02400000 0.05695263
v -0.00063509 -0.02336491 0.05663509
v -0.00163509 -0.02163509 0.05336491
v -0.00195263 -0.02155000 0.05400000
v -0.00195263 -0.02100000 0.05345000
v -0.00155000 -0.02100000 0.05304737
v -0.00163509 -0.02036491 0.05336491
v -0.00210000 -0.02100000 0.05400000
v -0.00195263 -0.02100000 0.05455000
v -0.00195263 -0.02045000 0.05400000
v -0.00155000 -0.02100000 0.05495263
v -0.00155000 -0.02004737 0.05400000
v -0.00163509 -0.02036491 0.05463509
v -0.00100000 -0.02155000 0.05304737
v -0.00100000 -0.02100000 0.05290000
v -0.00100000 -0.02045000 0.05304737
v -0.00100000 -0.02004737 0.05345000
v -0.00100000 -0.01990000 0.05400000
v -0.00100000 -0.02045000 0.05495263
v -0.00100000 -0.02004737 0.05455000
v 0.00000000 -0.02495263 0.05545000
v 0.00000000 -0.02455000 0.05504737
v 0.00000000 -0.02510000 0.05600000
v 0.00000000 -0.02495263 0.05655000
v 0.00000000 -0.02455000 0.05695263
v 0.00000000 -0.02400000 0.05710000
v 0.00000000 -0.02345000 0.05695263
v 0.00063509 -0.02463509 0.05536491
v 0.00055000 -0.02495263 0.05600000
v 0.00055000 -0.02400000 0.05504737
v 0.00095263 -0.02455000 0.05600000
v 0.00095263 -0.02400000 0.05545000
v 0.00110000 -0.02400000 0.05600000
v 0.00063509 -0.02463509 0.05663509
v 0.00055000 -0.02400000 0.05695263
v 0.00095263 -0.02400000 0.05655000
v 0.00095263 -0.02345000 0.05600000
v 0.00063509 -0.02336491 0.05663509
v -0.00036491 -0.02163509 0.05336491
v -0.00045000 -0.02100000 0.05304737
v -0.00036491 -0.02036491 0.05336491
v -0.00004737 -0.02100000 0.05345000
v -0.00045000 -0.02004737 0.05400000
v -0.00036491 -0.02036491 0.05463509
v 0.00010000 -0.02100000 0.05400000
v -0.00004737 -0.02045000 0.05400000
f 10 9 1
f 20 3 9
f 9 3 1
f 3 20 28
f 1 2 14
f 15 2 5
f 4 1 3
f 2 1 5
f 6 1 4
f 1 6 5
f 6 7 5
f 7 15 5
f 19 7 8
f 9 11 12
f 9 10 11
f 20 9 12
f 2 15 14
f 14 10 1
f 12 11 13
f 11 10 14
f 16 11 14
f 16 13 11
f 13 16 18
f 13 22 12
f 23 13 18
f 15 16 14
f 16 15 19
f 19 15 17
f 16 19 18
f 18 19 26
f 20 46 45
f 20 12 21
f 12 22 21
f 22 13 23
f 23 18 24
f 21 46 20
f 22 46 21
f 46 22 47
f 47 22 23
f 49 23 24
f 47 23 49
f 24 18 26
f 19 25 26
f 26 49 24
f 49 26 50
f 25 50 26
f 15 7 17
f 7 19 17
f 25 19 33
f 33 19 8
f 34 20 45
f 20 34 28
f 34 46 36
f 46 38 36
f 48 39 38
f 27 3 28
f 27 4 3
f 27 29 4
f 34 27 28
f 27 35 29
f 6 4 30
f 30 4 29
f 6 30 31
f 7 6 31
f 7 31 32
f 32 33 7
f 35 30 29
f 30 40 31
f 31 41 32
f 41 33 32
f 7 33 8
f 27 34 35
f 37 35 34
f 38 34 36
f 37 34 38
f 39 37 38
f 35 40 30
f 40 41 31
f 40 35 37
f 42 40 37
f 39 42 37
f 42 39 43
f 40 42 41
f 39 52 43
f 41 44 33
f 44 42 43
f 41 42 44
f 46 34 45
f 48 38 46
f 48 46 47
f 47 52 48
f 52 47 49
f 48 52 51
f 52 49 50
f 39 48 51
f 52 39 51
f 25 44 50
f 44 52 50
f 44 25 33
f 52 44 43

