# https://github.com/mikedh/trimesh
v -0.03660000 0.02700000 0.05400000
v -0.03660000 0.02700000 0.05800000
v -0.03660000 0.03000000 0.05400000
v -0.03660000 0.03000000 0.05800000
v -0.03300000 0.02700000 0.05510352
v -0.03300000 0.02791342 0.05538060
v -0.03300000 0.02700000 0.05800000
v -0.03300000 0.02877785 0.05584265
v -0.03300000 0.02953553 0.05646447
v -0.03300000 0.03000000 0.05703042
v -0.03300000 0.03000000 0.05800000
f 2 1 5
f 3 5 1
f 2 4 1
f 4 3 1
f 2 11 4
f 11 3 4
f 5 3 6
f 8 5 6
f 9 5 8
f 2 5 7
f 11 2 7
f 5 11 7
f 3 8 6
f 3 9 8
f 9 3 10
f 3 11 10
f 11 5 9
f 11 9 10

