# https://github.com/mikedh/trimesh
v -0.00600000 0.00000000 0.00200000
v -0.00600000 0.00000000 0.00300000
v -0.00600000 0.00600000 0.00200000
v -0.00600000 0.00598079 0.00219509
v -0.00600000 0.00592388 0.00238268
v -0.00600000 0.00583147 0.00255557
v -0.00600000 0.00579776 0.00259664
v -0.00600000 0.00570711 0.00270711
v -0.00600000 0.00500000 0.00300000
v -0.00600000 0.00519509 0.00298079
v -0.00600000 0.00555557 0.00283147
v -0.00600000 0.00538268 0.00292388
v -0.00120000 0.00000000 0.00200000
v 0.00000000 0.00120000 0.00200000
v -0.00120000 0.00000000 0.00300000
v 0.00000000 0.00120000 0.00300000
v 0.00000000 0.00600000 0.00200000
v 0.00000000 0.00598079 0.00219509
v 0.00000000 0.00592388 0.00238268
v 0.00000000 0.00583147 0.00255557
v 0.00000000 0.00579776 0.00259664
v 0.00000000 0.00570711 0.00270711
v 0.00000000 0.00500000 0.00300000
v 0.00000000 0.00519509 0.00298079
v 0.00000000 0.00555557 0.00283147
v 0.00000000 0.00538268 0.00292388
f 2 3 1
f 3 14 1
f 2 1 15
f 3 5 4
f 3 7 5
f 17 3 4
f 5 19 4
f 19 5 6
f 3 2 10
f 10 2 9
f 3 10 7
f 7 6 5
f 7 11 8
f 7 10 11
f 11 10 12
f 2 23 9
f 7 21 6
f 7 8 21
f 23 10 9
f 11 25 8
f 11 12 25
f 10 24 12
f 1 14 13
f 15 1 13
f 14 15 13
f 2 15 23
f 15 14 16
f 14 23 16
f 23 15 16
f 14 3 17
f 17 4 18
f 4 19 18
f 19 6 20
f 24 14 17
f 19 17 18
f 21 17 19
f 6 21 20
f 21 8 22
f 8 25 22
f 24 10 23
f 25 12 26
f 12 24 26
f 24 23 14
f 24 17 21
f 21 19 20
f 25 21 22
f 24 21 25
f 24 25 26

