# https://github.com/mikedh/trimesh
v -0.03300000 0.02142688 0.11000000
v -0.03300000 0.02138060 0.11008659
v -0.03300000 0.02109607 0.11102455
v -0.03300000 0.02100000 0.11200000
v -0.03300000 0.02109607 0.11297545
v -0.03300000 0.02138060 0.11391341
v -0.03300000 0.02142688 0.11400000
v -0.03300000 0.02700000 0.11000000
v -0.03300000 0.02700000 0.11400000
v -0.03100000 0.02142688 0.11000000
v -0.03100000 0.02138060 0.11008659
v -0.03100000 0.02109607 0.11102455
v -0.03100000 0.02100000 0.11200000
v -0.03100000 0.02109607 0.11297545
v -0.03100000 0.02138060 0.11391341
v -0.03100000 0.02142688 0.11400000
v -0.03100000 0.02700000 0.11000000
v -0.03100000 0.02700000 0.11400000
f 3 1 2
f 4 1 3
f 7 8 1
f 3 2 11
f 1 10 2
f 4 3 13
f 8 10 1
f 7 1 4
f 7 4 5
f 7 5 6
f 4 13 5
f 5 14 6
f 16 7 6
f 8 7 9
f 7 18 9
f 18 8 9
f 2 10 11
f 12 3 11
f 13 3 12
f 10 12 11
f 10 13 12
f 5 13 14
f 6 14 15
f 16 6 15
f 18 7 16
f 10 16 13
f 13 16 14
f 14 16 15
f 10 18 16
f 10 8 17
f 8 18 17
f 18 10 17

