# https://github.com/mikedh/trimesh
v -0.03900000 0.02700000 0.11623290
v -0.03900000 0.02700000 0.11800000
v -0.03900000 0.02892820 0.11400000
v -0.03900000 0.03000000 0.11400000
v -0.03900000 0.03000000 0.11800000
v -0.03660000 0.02700000 0.11623290
v -0.03660000 0.02700000 0.11800000
v -0.03660000 0.02892820 0.11400000
v -0.03660000 0.03000000 0.11400000
v -0.03660000 0.03000000 0.11800000
f 8 1 3
f 2 4 1
f 6 2 1
f 1 4 3
f 4 8 3
f 4 2 5
f 2 10 5
f 10 4 5
f 6 1 8
f 2 6 7
f 10 2 7
f 6 10 7
f 4 9 8
f 4 10 9
f 8 9 6
f 10 6 9

