# https://github.com/mikedh/trimesh
v 0.03200000 0.03760000 0.12000000
v 0.03200000 0.03760000 0.12360000
v 0.03200000 0.04000000 0.12000000
v 0.03200000 0.04000000 0.12200000
v 0.03200000 0.03965849 0.12360000
v 0.03200000 0.03969552 0.12353073
v 0.03200000 0.03992314 0.12278036
v 0.03500000 0.03760000 0.12000000
v 0.03500000 0.03760000 0.12360000
v 0.03500000 0.04000000 0.12000000
v 0.03500000 0.04000000 0.12200000
v 0.03500000 0.03965849 0.12360000
v 0.03500000 0.03969552 0.12353073
v 0.03500000 0.03992314 0.12278036
f 2 3 1
f 8 2 1
f 3 8 1
f 10 3 4
f 3 2 5
f 3 5 4
f 4 5 7
f 7 5 6
f 2 12 5
f 14 4 7
f 5 13 6
f 13 7 6
f 2 8 9
f 12 2 9
f 8 12 9
f 8 3 10
f 10 4 11
f 12 8 10
f 14 10 11
f 4 14 11
f 5 12 13
f 14 7 13
f 12 10 14
f 12 14 13

