# https://github.com/mikedh/trimesh
v -0.03660000 0.03760000 0.04894416
v -0.03660000 0.03781427 0.04915842
v -0.03605584 0.03760000 0.04840000
v -0.03584158 0.03781427 0.04840000
v -0.03660000 0.03797906 0.04938114
v -0.03561886 0.03797906 0.04840000
v -0.03557860 0.03876463 0.04942140
v -0.03660000 0.03760000 0.05200000
v -0.03660000 0.03861403 0.05069962
v -0.03660000 0.03862462 0.05072833
v -0.03660000 0.03864025 0.05082735
v -0.03660000 0.03877004 0.05200000
v -0.03633342 0.03898882 0.05200000
v -0.03545345 0.03933068 0.05074924
v -0.03529610 0.03954328 0.05200000
v -0.03430038 0.03861403 0.04840000
v -0.03427167 0.03862462 0.04840000
v -0.03417265 0.03864025 0.04840000
v -0.03300000 0.03760000 0.04840000
v -0.03300000 0.03877004 0.04840000
v -0.03300000 0.03760000 0.05200000
v -0.03425076 0.03933068 0.04954655
v -0.03300000 0.03898882 0.04866658
v -0.03300000 0.03954328 0.04970390
v -0.03421401 0.03974912 0.05078599
v -0.03417054 0.03988471 0.05200000
v -0.03300000 0.03988471 0.05082946
v -0.03300000 0.04000000 0.05200000
f 1 4 3
f 4 1 2
f 1 5 2
f 5 4 2
f 4 5 6
f 1 9 5
f 7 6 5
f 9 7 5
f 19 1 3
f 4 19 3
f 17 4 6
f 6 7 16
f 1 8 12
f 12 9 1
f 7 9 10
f 9 11 10
f 8 13 12
f 9 12 11
f 10 11 13
f 12 13 11
f 1 21 8
f 7 14 22
f 14 7 10
f 14 10 13
f 28 13 8
f 13 15 14
f 13 26 15
f 15 25 14
f 19 4 20
f 1 19 21
f 17 6 16
f 17 20 4
f 7 17 16
f 20 17 18
f 17 23 18
f 23 19 20
f 23 20 18
f 21 28 8
f 19 28 21
f 17 7 22
f 23 17 22
f 28 19 23
f 24 23 22
f 22 25 24
f 24 27 23
f 22 14 25
f 13 28 26
f 15 26 25
f 28 23 27
f 25 27 24
f 27 25 26
f 28 27 26

