# https://github.com/mikedh/trimesh
v -0.02340000 0.00000000 0.04600000
v -0.02415746 0.00172208 0.04600000
v -0.02432707 0.00000000 0.05080000
v -0.02441353 0.00087791 0.05080000
v -0.02415746 0.00172208 0.05080000
v -0.02374161 0.00250007 0.04600000
v -0.02318198 0.00318198 0.04600000
v -0.02250007 0.00374161 0.04600000
v -0.02374161 0.00250007 0.05080000
v -0.02318198 0.00318198 0.05080000
v -0.02250007 0.00374161 0.05080000
v -0.02200000 0.00000000 0.04600000
v -0.02000000 0.00200000 0.04600000
v -0.02200000 0.00000000 0.05080000
v -0.02000000 0.00200000 0.05080000
v -0.02172208 0.00415746 0.04600000
v -0.02087791 0.00441353 0.04600000
v -0.02000000 0.00340000 0.04600000
v -0.02172208 0.00415746 0.05080000
v -0.02087791 0.00441353 0.05080000
v -0.02000000 0.00450000 0.05080000
f 1 3 2
f 7 1 2
f 2 5 6
f 14 1 12
f 2 3 4
f 3 5 4
f 5 2 4
f 6 5 9
f 3 10 5
f 3 1 14
f 7 2 6
f 7 6 10
f 7 11 8
f 10 6 9
f 5 10 9
f 7 10 11
f 3 21 10
f 11 19 8
f 10 19 11
f 1 13 12
f 13 14 12
f 13 1 7
f 15 3 14
f 21 3 15
f 15 14 13
f 17 13 7
f 8 17 7
f 17 8 16
f 8 19 16
f 19 17 16
f 13 17 18
f 21 13 18
f 17 21 18
f 17 19 20
f 10 21 19
f 21 15 13
f 21 17 20
f 19 21 20

