# https://github.com/mikedh/trimesh
v 0.02900000 0.03371346 0.07347218
v 0.02900000 0.03447218 0.07271346
v 0.02900000 0.03405546 0.07305546
v 0.02900000 0.03345933 0.07394762
v 0.02900000 0.03330284 0.07446350
v 0.02900000 0.03494762 0.07245933
v 0.02900000 0.03546350 0.07230284
v 0.03200000 0.03371346 0.07347218
v 0.03200000 0.03447218 0.07271346
v 0.03200000 0.03405546 0.07305546
v 0.03200000 0.03345933 0.07394762
v 0.03200000 0.03330284 0.07446350
v 0.03200000 0.03494762 0.07245933
v 0.03200000 0.03546350 0.07230284
v 0.02900000 0.03325000 0.07500000
v 0.02900000 0.03330284 0.07553650
v 0.02900000 0.03345933 0.07605238
v 0.02900000 0.03371346 0.07652782
v 0.02900000 0.03405546 0.07694454
v 0.02900000 0.03447218 0.07728654
v 0.02900000 0.03494762 0.07754067
v 0.02900000 0.03546350 0.07769716
v 0.03200000 0.03325000 0.07500000
v 0.03200000 0.03330284 0.07553650
v 0.03200000 0.03345933 0.07605238
v 0.03200000 0.03371346 0.07652782
v 0.03200000 0.03405546 0.07694454
v 0.03200000 0.03447218 0.07728654
v 0.03200000 0.03494762 0.07754067
v 0.03200000 0.03546350 0.07769716
v 0.02900000 0.03600000 0.07225000
v 0.02900000 0.03653650 0.07230284
v 0.02900000 0.03705238 0.07245933
v 0.02900000 0.03752782 0.07271346
v 0.02900000 0.03794454 0.07305546
v 0.02900000 0.03828654 0.07347218
v 0.02900000 0.03854067 0.07394762
v 0.02900000 0.03869716 0.07446350
v 0.03200000 0.03600000 0.07225000
v 0.03200000 0.03653650 0.07230284
v 0.03200000 0.03705238 0.07245933
v 0.03200000 0.03752782 0.07271346
v 0.03200000 0.03794454 0.07305546
v 0.03200000 0.03828654 0.07347218
v 0.03200000 0.03854067 0.07394762
v 0.03200000 0.03869716 0.07446350
v 0.02900000 0.03600000 0.07775000
v 0.02900000 0.03653650 0.07769716
v 0.02900000 0.03705238 0.07754067
v 0.02900000 0.03875000 0.07500000
v 0.02900000 0.03869716 0.07553650
v 0.02900000 0.03854067 0.07605238
v 0.02900000 0.03794454 0.07694454
v 0.02900000 0.03752782 0.07728654
v 0.02900000 0.03828654 0.07652782
v 0.03200000 0.03600000 0.07775000
v 0.03200000 0.03653650 0.07769716
v 0.03200000 0.03705238 0.07754067
v 0.03200000 0.03875000 0.07500000
v 0.03200000 0.03869716 0.07553650
v 0.03200000 0.03854067 0.07605238
v 0.03200000 0.03794454 0.07694454
v 0.03200000 0.03752782 0.07728654
v 0.03200000 0.03828654 0.07652782
v 0.04100000 0.03462342 0.07442980
v 0.04100000 0.03453863 0.07470932
v 0.04100000 0.03542980 0.07362342
v 0.04100000 0.03570932 0.07353863
v 0.04100000 0.03494641 0.07394641
v 0.04100000 0.03476111 0.07417220
v 0.04100000 0.03517220 0.07376111
v 0.04100000 0.03451000 0.07500000
v 0.04100000 0.03453863 0.07529068
v 0.04100000 0.03462342 0.07557020
v 0.04100000 0.03476111 0.07582780
v 0.04100000 0.03494641 0.07605359
v 0.04100000 0.03517220 0.07623889
v 0.04100000 0.03542980 0.07637658
v 0.04100000 0.03570932 0.07646137
v 0.04100000 0.03600000 0.07351000
v 0.04100000 0.03629068 0.07353863
v 0.04100000 0.03657020 0.07362342
v 0.04100000 0.03682780 0.07376111
v 0.04100000 0.03705359 0.07394641
v 0.04100000 0.03723889 0.07417220
v 0.04100000 0.03737658 0.07442980
v 0.04100000 0.03746137 0.07470932
v 0.04100000 0.03682780 0.07623889
v 0.04100000 0.03723889 0.07582780
v 0.04100000 0.03705359 0.07605359
v 0.04100000 0.03600000 0.07649000
v 0.04100000 0.03629068 0.07646137
v 0.04100000 0.03657020 0.07637658
v 0.04100000 0.03749000 0.07500000
v 0.04100000 0.03746137 0.07529068
v 0.04100000 0.03737658 0.07557020
f 4 3 1
f 3 8 1
f 3 6 2
f 9 3 2
f 15 31 3
f 8 3 10
f 10 3 9
f 15 3 4
f 4 11 5
f 8 4 1
f 15 4 5
f 12 15 5
f 11 4 8
f 11 12 5
f 15 12 23
f 3 7 6
f 3 31 7
f 6 9 2
f 7 13 6
f 31 14 7
f 13 9 6
f 7 14 13
f 14 31 39
f 17 15 16
f 16 15 23
f 19 15 17
f 24 17 16
f 17 25 18
f 16 23 24
f 17 24 25
f 18 25 26
f 19 17 18
f 47 15 19
f 27 19 18
f 19 27 20
f 21 19 20
f 27 18 26
f 28 20 27
f 47 19 21
f 29 21 20
f 21 29 22
f 47 21 22
f 56 47 22
f 29 20 28
f 22 29 30
f 56 22 30
f 40 31 32
f 31 34 32
f 32 34 33
f 31 35 34
f 41 32 33
f 34 41 33
f 31 40 39
f 40 32 41
f 41 34 42
f 15 50 31
f 31 50 35
f 35 43 34
f 43 35 36
f 35 37 36
f 34 43 42
f 43 36 44
f 35 50 37
f 37 45 36
f 45 37 38
f 38 37 50
f 59 38 50
f 36 45 44
f 46 45 38
f 59 46 38
f 50 15 47
f 49 47 48
f 47 56 48
f 53 47 49
f 49 48 57
f 49 63 54
f 57 48 56
f 49 57 58
f 63 49 58
f 50 52 51
f 51 59 50
f 50 53 52
f 52 61 51
f 61 52 55
f 59 51 60
f 61 55 64
f 60 51 61
f 50 47 53
f 53 62 55
f 53 49 54
f 63 53 54
f 53 55 52
f 53 63 62
f 55 62 64
f 69 8 10
f 9 69 10
f 12 11 66
f 12 66 23
f 11 8 70
f 14 67 13
f 9 13 71
f 39 80 14
f 70 8 69
f 65 11 70
f 11 65 66
f 23 66 72
f 65 73 66
f 69 9 71
f 67 71 13
f 67 14 68
f 14 80 68
f 80 67 68
f 69 65 70
f 67 69 71
f 67 65 69
f 67 82 65
f 24 23 73
f 24 73 25
f 25 75 26
f 75 27 26
f 27 77 28
f 29 28 78
f 29 79 30
f 30 79 56
f 73 23 72
f 25 73 74
f 75 25 74
f 27 75 76
f 66 73 72
f 65 77 73
f 73 75 74
f 73 77 75
f 75 77 76
f 65 89 77
f 77 79 78
f 77 27 76
f 28 77 78
f 78 79 29
f 56 79 91
f 77 92 79
f 40 80 39
f 40 41 81
f 83 41 42
f 43 83 42
f 44 85 43
f 45 85 44
f 46 87 45
f 46 59 87
f 80 40 81
f 41 82 81
f 82 41 83
f 83 43 84
f 82 67 80
f 82 80 81
f 82 89 65
f 82 83 85
f 85 83 84
f 94 82 85
f 87 85 86
f 89 82 94
f 43 85 84
f 85 45 86
f 45 87 86
f 59 94 87
f 94 85 87
f 57 56 92
f 88 63 58
f 58 57 93
f 89 61 64
f 94 59 60
f 61 95 60
f 62 63 88
f 62 89 64
f 92 77 89
f 92 88 93
f 89 95 96
f 88 92 89
f 88 89 90
f 92 56 91
f 57 92 93
f 88 58 93
f 62 88 90
f 79 92 91
f 95 94 60
f 95 61 96
f 61 89 96
f 89 62 90
f 89 94 95

