# https://github.com/mikedh/trimesh
v -0.03360000 0.02639993 0.09305670
v -0.03160000 0.02639993 0.09305670
v -0.03500000 0.02802312 0.09362326
v -0.03500000 0.02821102 0.09346905
v -0.03500000 0.02775432 0.09402555
v -0.03500000 0.02786891 0.09381117
v -0.03500000 0.02768375 0.09425816
v -0.03500000 0.02842540 0.09335446
v -0.03500000 0.02865802 0.09328390
v -0.03360000 0.02639993 0.09594345
v -0.03160000 0.02639993 0.09594345
v -0.03500000 0.02765993 0.09450007
v -0.03500000 0.02768375 0.09474199
v -0.03500000 0.02775432 0.09497460
v -0.03500000 0.02786891 0.09518898
v -0.03500000 0.02802312 0.09537689
v -0.03500000 0.02821102 0.09553110
v -0.03500000 0.02842540 0.09564568
v -0.03500000 0.02865802 0.09571625
v -0.03360000 0.02889993 0.09161332
v -0.03160000 0.02889993 0.09161332
v -0.03500000 0.02889993 0.09326007
v -0.03500000 0.02914184 0.09328390
v -0.03500000 0.02937446 0.09335446
v -0.03500000 0.02958884 0.09346905
v -0.03500000 0.02977674 0.09362326
v -0.03500000 0.02993095 0.09381117
v -0.03500000 0.03004554 0.09402555
v -0.03500000 0.03011610 0.09425816
v -0.03360000 0.03139993 0.09305670
v -0.03160000 0.03139993 0.09305670
v -0.03500000 0.02889993 0.09574007
v -0.03500000 0.02914184 0.09571625
v -0.03500000 0.02937446 0.09564568
v -0.03500000 0.03013993 0.09450007
v -0.03500000 0.03011610 0.09474199
v -0.03500000 0.02993095 0.09518898
v -0.03500000 0.03004554 0.09497460
v -0.03500000 0.02958884 0.09553110
v -0.03500000 0.02977674 0.09537689
v -0.03360000 0.02889993 0.09738683
v -0.03160000 0.02889993 0.09738683
v -0.03360000 0.03139993 0.09594345
v -0.03160000 0.03139993 0.09594345
v -0.02050000 0.02730894 0.09290908
v -0.02050000 0.02764989 0.09262927
v -0.02050000 0.02682120 0.09363904
v -0.02050000 0.02669316 0.09406112
v -0.02050000 0.02702912 0.09325004
v -0.02050000 0.02803889 0.09242135
v -0.02050000 0.02846097 0.09229331
v -0.02050000 0.02664993 0.09450007
v -0.02050000 0.02669316 0.09493903
v -0.02050000 0.02682120 0.09536111
v -0.02050000 0.02702912 0.09575011
v -0.02050000 0.02730894 0.09609106
v -0.02050000 0.02764989 0.09637088
v -0.02050000 0.02803889 0.09657880
v -0.02050000 0.02846097 0.09670684
v -0.02050000 0.02889993 0.09225007
v -0.02050000 0.02933888 0.09229331
v -0.02050000 0.02976097 0.09242135
v -0.02050000 0.03014996 0.09262927
v -0.02050000 0.03049092 0.09290908
v -0.02050000 0.03077073 0.09325004
v -0.02050000 0.03097866 0.09363904
v -0.02050000 0.03110669 0.09406112
v -0.02050000 0.02889993 0.09675007
v -0.02050000 0.02933888 0.09670684
v -0.02050000 0.02976097 0.09657880
v -0.02050000 0.03077073 0.09575011
v -0.02050000 0.03114993 0.09450007
v -0.02050000 0.03110669 0.09493903
v -0.02050000 0.03097866 0.09536111
v -0.02050000 0.03014996 0.09637088
v -0.02050000 0.03049092 0.09609106
f 2 1 21
f 1 3 4
f 3 1 6
f 1 5 6
f 12 7 1
f 5 1 7
f 10 1 2
f 20 1 4
f 8 20 4
f 20 8 9
f 20 9 22
f 1 20 21
f 3 8 4
f 5 3 6
f 13 5 7
f 3 5 23
f 3 23 8
f 8 23 9
f 23 5 34
f 21 46 2
f 1 10 12
f 10 13 12
f 13 10 14
f 14 10 15
f 10 16 15
f 16 10 17
f 10 2 11
f 41 10 11
f 13 7 12
f 5 13 16
f 16 13 14
f 16 14 15
f 16 34 5
f 34 16 17
f 19 17 18
f 34 17 19
f 10 41 17
f 17 41 18
f 41 19 18
f 19 41 32
f 41 11 42
f 2 52 11
f 57 42 11
f 23 20 22
f 20 23 24
f 25 20 24
f 30 20 25
f 20 31 21
f 9 23 22
f 23 25 24
f 23 26 25
f 23 35 26
f 23 39 35
f 26 28 27
f 26 35 28
f 28 35 29
f 20 30 31
f 26 30 25
f 30 26 27
f 28 30 27
f 30 28 29
f 35 30 29
f 30 44 31
f 21 31 63
f 23 34 39
f 34 19 32
f 34 32 33
f 35 37 36
f 35 39 37
f 36 37 38
f 37 39 40
f 32 41 33
f 41 34 33
f 34 41 39
f 41 43 39
f 44 41 42
f 43 36 38
f 43 35 36
f 37 43 38
f 43 37 40
f 39 43 40
f 43 30 35
f 30 43 44
f 43 41 44
f 44 72 31
f 44 42 75
f 45 2 46
f 2 47 48
f 47 2 49
f 2 45 49
f 52 2 48
f 50 46 21
f 51 50 21
f 60 51 21
f 45 52 47
f 47 52 48
f 45 47 49
f 50 45 46
f 50 60 45
f 60 50 51
f 11 52 53
f 54 11 53
f 11 54 55
f 56 11 55
f 11 56 57
f 58 42 57
f 59 42 58
f 59 68 42
f 52 54 53
f 52 56 54
f 45 56 52
f 54 56 55
f 45 76 56
f 56 58 57
f 56 68 58
f 58 68 59
f 60 21 61
f 21 62 61
f 21 63 62
f 31 64 63
f 64 31 65
f 31 66 65
f 66 31 67
f 31 72 67
f 62 60 61
f 64 45 60
f 64 60 62
f 64 62 63
f 76 45 64
f 66 64 65
f 72 64 66
f 72 66 67
f 68 69 42
f 69 70 42
f 70 75 42
f 72 44 73
f 44 76 71
f 74 44 71
f 44 74 73
f 76 44 75
f 56 76 68
f 68 70 69
f 70 68 76
f 70 76 75
f 76 64 72
f 76 74 71
f 74 72 73
f 76 72 74

