# https://github.com/mikedh/trimesh
v -0.02450000 0.00000000 0.04550000
v -0.02441353 0.00087791 0.04550000
v -0.02415746 0.00172208 0.04550000
v -0.02450000 0.00000000 0.04600000
v -0.02441353 0.00087791 0.04600000
v -0.02415746 0.00172208 0.04600000
v -0.02374161 0.00250007 0.04550000
v -0.02318198 0.00318198 0.04550000
v -0.02250007 0.00374161 0.04550000
v -0.02374161 0.00250007 0.04600000
v -0.02318198 0.00318198 0.04600000
v -0.02250007 0.00374161 0.04600000
v -0.02200000 0.00000000 0.04550000
v -0.02000000 0.00200000 0.04550000
v -0.02200000 0.00000000 0.04600000
v -0.02000000 0.00200000 0.04600000
v -0.02172208 0.00415746 0.04550000
v -0.02087791 0.00441353 0.04550000
v -0.02000000 0.00450000 0.04550000
v -0.02172208 0.00415746 0.04600000
v -0.02087791 0.00441353 0.04600000
v -0.02000000 0.00450000 0.04600000
f 3 1 2
f 3 13 1
f 1 4 2
f 13 4 1
f 3 2 5
f 3 10 7
f 2 4 5
f 3 5 6
f 10 3 6
f 4 10 5
f 5 10 6
f 4 13 15
f 4 20 10
f 8 3 7
f 10 8 7
f 9 3 8
f 11 9 8
f 10 11 8
f 10 20 11
f 9 11 12
f 11 20 12
f 19 13 3
f 13 19 14
f 16 13 14
f 13 16 15
f 16 4 15
f 4 16 20
f 19 3 9
f 19 9 17
f 20 17 9
f 17 21 18
f 19 16 14
f 19 17 18
f 21 19 18
f 20 9 12
f 20 21 17
f 16 19 22
f 22 19 21
f 20 16 22
f 20 22 21

