# https://github.com/mikedh/trimesh
v -0.02400000 -0.00600000 0.04600000
v -0.02400000 -0.00600000 0.04840000
v -0.02400000 0.00000000 0.04600000
v -0.02350000 0.00000000 0.04600000
v -0.02400000 0.00000000 0.04840000
v -0.02350000 0.00000000 0.04840000
v -0.02000000 -0.00600000 0.04600000
v -0.02000000 -0.00350000 0.04600000
v -0.02000000 -0.00600000 0.04840000
v -0.02000000 -0.00350000 0.04840000
f 2 3 1
f 7 2 1
f 3 7 1
f 2 10 5
f 3 5 4
f 8 3 4
f 3 2 5
f 4 5 6
f 10 4 6
f 5 10 6
f 7 3 8
f 7 8 10
f 2 7 9
f 10 2 9
f 7 10 9
f 10 8 4

