# https://github.com/mikedh/trimesh
v 0.02350000 -0.02536603 0.06200000
v 0.02313397 -0.02500000 0.06200000
v 0.02342265 -0.02507735 0.06142265
v 0.02342265 -0.02507735 0.06257735
v 0.02400000 -0.02550000 0.06200000
v 0.02400000 -0.02536603 0.06250000
v 0.02400000 -0.02500000 0.06286603
v 0.02313397 -0.02450000 0.06150000
v 0.02300000 -0.02450000 0.06200000
v 0.02313397 -0.02450000 0.06250000
v 0.02350000 -0.02450000 0.06286603
v 0.02400000 -0.02450000 0.06300000
v 0.02450000 -0.02536603 0.06200000
v 0.02457735 -0.02507735 0.06257735
v 0.02450000 -0.02450000 0.06286603
v 0.02486603 -0.02450000 0.06250000
v 0.02313397 -0.02400000 0.06200000
v 0.02342265 -0.02392265 0.06142265
v 0.02350000 -0.02363397 0.06200000
v 0.02342265 -0.02392265 0.06257735
v 0.02400000 -0.02400000 0.06286603
v 0.02400000 -0.02363397 0.06250000
v 0.02400000 -0.02350000 0.06200000
v 0.02450000 -0.02363397 0.06200000
v 0.02457735 -0.02392265 0.06257735
v 0.02642265 -0.02457735 0.05642265
v 0.02650000 -0.02486603 0.05700000
v 0.02700000 -0.02500000 0.05700000
v 0.02700000 -0.02486603 0.05650000
v 0.02700000 -0.02450000 0.05613397
v 0.02757735 -0.02457735 0.05642265
v 0.02750000 -0.02486603 0.05700000
v 0.02757735 -0.02457735 0.05757735
v 0.02786603 -0.02450000 0.05700000
v 0.02613397 -0.02400000 0.05650000
v 0.02650000 -0.02400000 0.05613397
v 0.02642265 -0.02342265 0.05642265
v 0.02650000 -0.02313397 0.05700000
v 0.02700000 -0.02400000 0.05600000
v 0.02750000 -0.02400000 0.05613397
v 0.02786603 -0.02400000 0.05650000
v 0.02800000 -0.02400000 0.05700000
v 0.02786603 -0.02400000 0.05750000
v 0.02700000 -0.02350000 0.05613397
v 0.02700000 -0.02313397 0.05650000
v 0.02700000 -0.02300000 0.05700000
v 0.02757735 -0.02342265 0.05642265
v 0.02757735 -0.02342265 0.05757735
v 0.02786603 -0.02350000 0.05700000
v 0.02750000 -0.02313397 0.05700000
f 1 26 27
f 26 8 35
f 3 1 2
f 2 1 4
f 5 6 1
f 6 4 1
f 6 5 13
f 4 6 7
f 6 14 7
f 8 3 2
f 8 2 9
f 10 2 4
f 2 10 9
f 4 11 10
f 17 8 9
f 17 9 10
f 11 20 10
f 11 4 7
f 11 7 12
f 12 7 15
f 12 21 11
f 21 12 15
f 28 5 1
f 1 3 26
f 28 13 5
f 6 13 14
f 8 26 3
f 15 7 14
f 15 14 16
f 16 25 15
f 8 37 35
f 38 37 19
f 17 18 8
f 20 17 10
f 18 17 19
f 19 17 20
f 21 20 11
f 20 21 22
f 19 20 22
f 21 25 22
f 23 19 22
f 24 23 22
f 18 37 8
f 37 18 19
f 21 15 25
f 24 22 25
f 23 38 19
f 46 23 24
f 28 1 27
f 13 28 32
f 26 29 27
f 26 36 30
f 14 32 33
f 43 14 33
f 28 27 29
f 32 28 29
f 26 30 29
f 31 32 29
f 30 31 29
f 31 30 40
f 31 34 32
f 32 34 33
f 34 31 41
f 34 43 33
f 13 32 14
f 14 43 16
f 36 26 35
f 37 36 35
f 36 37 44
f 25 43 48
f 38 45 37
f 23 46 38
f 48 50 25
f 46 24 50
f 36 39 30
f 39 40 30
f 36 44 39
f 44 40 39
f 47 40 44
f 31 40 41
f 34 41 42
f 42 43 34
f 41 40 47
f 49 42 41
f 47 49 41
f 43 42 49
f 43 49 48
f 45 44 37
f 47 44 45
f 38 46 45
f 45 50 47
f 46 50 45
f 47 50 49
f 49 50 48
f 43 25 16
f 24 25 50

