# https://github.com/mikedh/trimesh
v -0.01192388 -0.00538268 0.04360000
v -0.01183147 -0.00555557 0.04360000
v -0.01198079 -0.00519509 0.04360000
v -0.01200000 -0.00500000 0.04360000
v -0.01170711 -0.00570711 0.04360000
v -0.01155557 -0.00583147 0.04360000
v -0.01138268 -0.00592388 0.04360000
v -0.01119509 -0.00598079 0.04360000
v -0.01192388 -0.00538268 0.04500000
v -0.01183147 -0.00555557 0.04500000
v -0.01188845 -0.00540891 0.04520846
v -0.01176845 -0.00560377 0.04521201
v -0.01198079 -0.00519509 0.04500000
v -0.01200000 -0.00500000 0.04500000
v -0.01195819 -0.00520233 0.04520234
v -0.01198079 -0.00500000 0.04519509
v -0.01192388 -0.00500000 0.04538268
v -0.01170711 -0.00570711 0.04500000
v -0.01155557 -0.00583147 0.04500000
v -0.01160377 -0.00576845 0.04521201
v -0.01179410 -0.00542977 0.04542977
v -0.01188845 -0.00520846 0.04540891
v -0.01183147 -0.00500000 0.04555557
v -0.01176845 -0.00521201 0.04560377
v -0.01163571 -0.00563571 0.04543789
v -0.01163571 -0.00543789 0.04563571
v -0.01170711 -0.00500000 0.04570711
v -0.01160377 -0.00521201 0.04576845
v -0.01155557 -0.00500000 0.04583147
v -0.01138268 -0.00592388 0.04500000
v -0.01140891 -0.00588845 0.04520846
v -0.01119509 -0.00598079 0.04500000
v -0.01120233 -0.00595819 0.04520234
v -0.01142977 -0.00579410 0.04542977
v -0.01143789 -0.00563571 0.04563571
v -0.01142977 -0.00542977 0.04579411
v -0.01140891 -0.00520846 0.04588845
v -0.01138268 -0.00500000 0.04592388
v -0.01120846 -0.00588845 0.04540891
v -0.01121202 -0.00576845 0.04560377
v -0.01121202 -0.00560377 0.04576845
v -0.01120846 -0.00540891 0.04588845
v -0.01120233 -0.00520233 0.04595819
v -0.01119509 -0.00500000 0.04598079
v -0.01200000 0.00000000 0.04360000
v -0.01200000 0.00000000 0.04500000
v -0.01198079 0.00000000 0.04519509
v -0.01192388 0.00000000 0.04538268
v -0.01183147 0.00000000 0.04555557
v -0.01170711 0.00000000 0.04570711
v -0.01155557 0.00000000 0.04583147
v -0.01138268 0.00000000 0.04592388
v -0.01119509 0.00000000 0.04598079
v -0.01100000 -0.00600000 0.04360000
v -0.01000000 -0.00600000 0.04360000
v -0.01100000 -0.00600000 0.04500000
v -0.01100000 -0.00598079 0.04519509
v -0.01100000 -0.00592388 0.04538268
v -0.01100000 -0.00583147 0.04555557
v -0.01100000 -0.00570711 0.04570711
v -0.01100000 -0.00555557 0.04583147
v -0.01100000 -0.00538268 0.04592388
v -0.01100000 -0.00519509 0.04598079
v -0.01100000 -0.00500000 0.04600000
v -0.01000000 -0.00600000 0.04500000
v -0.01000000 -0.00598079 0.04519509
v -0.01000000 -0.00592388 0.04538268
v -0.01000000 -0.00583147 0.04555557
v -0.01000000 -0.00570711 0.04570711
v -0.01000000 -0.00555557 0.04583147
v -0.01000000 -0.00538268 0.04592388
v -0.01000000 -0.00519509 0.04598079
v -0.01000000 -0.00500000 0.04600000
v -0.01000000 0.00000000 0.04360000
v -0.01100000 0.00000000 0.04600000
v -0.01000000 0.00000000 0.04600000
f 1 5 2
f 1 13 3
f 10 1 2
f 5 10 2
f 4 1 3
f 13 4 3
f 1 7 5
f 5 7 6
f 19 5 6
f 13 1 9
f 1 10 9
f 13 14 4
f 10 5 18
f 5 19 18
f 45 1 4
f 45 4 14
f 7 19 6
f 32 7 8
f 7 54 8
f 1 55 7
f 54 32 8
f 19 7 30
f 32 30 7
f 32 54 56
f 45 55 1
f 9 15 13
f 10 11 9
f 10 18 12
f 9 11 15
f 22 15 11
f 11 10 12
f 11 12 21
f 22 11 21
f 14 13 16
f 13 15 16
f 15 17 16
f 17 15 22
f 18 19 20
f 12 18 20
f 25 12 20
f 25 21 12
f 19 31 20
f 34 25 20
f 24 22 21
f 23 17 22
f 24 23 22
f 24 27 23
f 21 25 26
f 26 24 21
f 26 28 24
f 25 34 35
f 26 25 35
f 26 35 36
f 36 28 26
f 27 24 28
f 29 27 28
f 29 28 37
f 14 16 46
f 17 48 16
f 49 17 23
f 27 49 23
f 50 27 29
f 19 30 31
f 33 30 32
f 31 34 20
f 30 33 31
f 34 31 39
f 33 39 31
f 56 57 32
f 57 33 32
f 39 33 58
f 58 33 57
f 34 39 40
f 34 40 35
f 41 35 40
f 28 36 37
f 41 36 35
f 36 41 42
f 36 42 37
f 43 37 42
f 29 37 38
f 37 43 38
f 43 44 38
f 40 39 59
f 41 40 60
f 59 39 58
f 40 59 60
f 61 42 41
f 62 43 42
f 61 41 60
f 61 62 42
f 62 63 43
f 43 63 44
f 44 63 64
f 38 51 29
f 44 53 38
f 75 44 64
f 45 14 46
f 48 45 46
f 46 16 47
f 16 48 47
f 48 17 49
f 27 50 49
f 50 29 51
f 50 45 48
f 48 46 47
f 50 48 49
f 51 38 52
f 38 53 52
f 44 75 53
f 76 45 50
f 53 50 51
f 53 51 52
f 54 7 55
f 54 55 56
f 56 55 65
f 55 66 65
f 57 56 66
f 66 58 57
f 59 58 67
f 60 59 69
f 69 61 60
f 62 61 70
f 63 62 71
f 64 63 73
f 73 75 64
f 66 56 65
f 58 66 67
f 55 71 66
f 59 67 68
f 69 59 68
f 69 70 61
f 71 62 70
f 63 71 72
f 73 63 72
f 66 69 67
f 67 69 68
f 66 71 69
f 70 69 71
f 71 73 72
f 55 76 71
f 71 76 73
f 55 45 74
f 45 76 74
f 76 55 74
f 76 50 53
f 76 53 75
f 73 76 75

