# https://github.com/mikedh/trimesh
v -0.01555000 -0.01400000 0.05264737
v -0.01563509 -0.01463509 0.05296491
v -0.01595263 -0.01400000 0.05305000
v -0.01610000 -0.01400000 0.05360000
v -0.01595263 -0.01455000 0.05360000
v -0.01595263 -0.01400000 0.05415000
v -0.01555000 -0.01495263 0.05360000
v -0.01563509 -0.01463509 0.05423509
v -0.01555000 -0.01400000 0.05455263
v -0.01655000 -0.00700000 0.05264737
v -0.01663509 -0.00636491 0.05296491
v -0.01695263 -0.00700000 0.05305000
v -0.01600000 -0.00700000 0.05250000
v -0.01600000 -0.00645000 0.05264737
v -0.01600000 -0.00604737 0.05305000
v -0.01710000 -0.00700000 0.05360000
v -0.01695263 -0.00645000 0.05360000
v -0.01695263 -0.00700000 0.05415000
v -0.01655000 -0.00604737 0.05360000
v -0.01663509 -0.00636491 0.05423509
v -0.01655000 -0.00700000 0.05455263
v -0.01600000 -0.00590000 0.05360000
v -0.01600000 -0.00604737 0.05415000
v -0.01600000 -0.00700000 0.05470000
v -0.01600000 -0.00645000 0.05455263
v -0.01500000 -0.01455000 0.05264737
v -0.01500000 -0.01400000 0.05250000
v -0.01500000 -0.01495263 0.05305000
v -0.01445000 -0.01400000 0.05264737
v -0.01436491 -0.01463509 0.05296491
v -0.01404737 -0.01400000 0.05305000
v -0.01500000 -0.01510000 0.05360000
v -0.01500000 -0.01495263 0.05415000
v -0.01500000 -0.01455000 0.05455263
v -0.01500000 -0.01400000 0.05470000
v -0.01445000 -0.01495263 0.05360000
v -0.01404737 -0.01455000 0.05360000
v -0.01390000 -0.01400000 0.05360000
v -0.01404737 -0.01400000 0.05415000
v -0.01436491 -0.01463509 0.05423509
v -0.01445000 -0.01400000 0.05455263
v -0.01545000 -0.00700000 0.05264737
v -0.01536491 -0.00636491 0.05296491
v -0.01504737 -0.00700000 0.05305000
v -0.01545000 -0.00604737 0.05360000
v -0.01504737 -0.00645000 0.05360000
v -0.01490000 -0.00700000 0.05360000
v -0.01504737 -0.00700000 0.05415000
v -0.01536491 -0.00636491 0.05423509
v -0.01545000 -0.00700000 0.05455263
f 4 12 3
f 2 3 1
f 4 3 5
f 3 2 5
f 2 7 5
f 12 1 3
f 1 13 27
f 4 6 16
f 6 4 5
f 8 5 7
f 5 8 6
f 8 9 6
f 18 6 9
f 35 24 9
f 10 1 12
f 4 16 12
f 10 12 11
f 14 10 11
f 11 12 17
f 16 17 12
f 19 11 17
f 11 19 15
f 13 1 10
f 10 14 13
f 15 14 11
f 14 42 13
f 42 14 43
f 14 15 43
f 19 22 15
f 15 45 43
f 45 15 22
f 16 6 18
f 21 18 9
f 17 16 18
f 19 17 20
f 17 18 20
f 19 20 23
f 18 21 20
f 21 25 20
f 24 21 9
f 22 19 23
f 22 23 45
f 49 45 23
f 20 25 23
f 24 25 21
f 25 49 23
f 25 24 50
f 49 25 50
f 1 26 2
f 26 1 27
f 2 26 28
f 26 27 29
f 28 26 30
f 7 2 28
f 32 7 28
f 32 28 36
f 27 42 29
f 30 26 29
f 31 30 29
f 30 36 28
f 30 31 37
f 37 36 30
f 31 38 37
f 42 31 29
f 38 31 44
f 32 33 7
f 33 8 7
f 36 33 32
f 33 34 8
f 8 34 9
f 9 34 35
f 34 33 40
f 34 41 35
f 41 50 35
f 36 40 33
f 36 37 40
f 38 39 37
f 37 39 40
f 34 40 41
f 41 40 39
f 38 48 39
f 48 41 39
f 13 42 27
f 42 44 31
f 44 42 43
f 43 46 44
f 45 46 43
f 47 44 46
f 47 38 44
f 35 50 24
f 50 41 48
f 49 46 45
f 46 49 48
f 48 47 46
f 49 50 48
f 38 47 48

