# https://github.com/mikedh/trimesh
v 0.01000000 0.00000000 0.04360000
v 0.01000000 0.00000000 0.04600000
v 0.01000000 0.00600000 0.04360000
v 0.01000000 0.00600000 0.04500000
v 0.01000000 0.00598079 0.04519509
v 0.01000000 0.00592388 0.04538268
v 0.01000000 0.00500000 0.04600000
v 0.01000000 0.00519509 0.04598079
v 0.01000000 0.00583147 0.04555557
v 0.01000000 0.00555557 0.04583147
v 0.01000000 0.00538268 0.04592388
v 0.01000000 0.00570711 0.04570711
v 0.01200000 0.00000000 0.04360000
v 0.01100000 0.00000000 0.04600000
v 0.01119509 0.00000000 0.04598079
v 0.01138268 0.00000000 0.04592388
v 0.01200000 0.00000000 0.04500000
v 0.01198079 0.00000000 0.04519509
v 0.01192388 0.00000000 0.04538268
v 0.01155557 0.00000000 0.04583147
v 0.01170711 0.00000000 0.04570711
v 0.01183147 0.00000000 0.04555557
v 0.01100000 0.00600000 0.04360000
v 0.01119509 0.00598079 0.04360000
v 0.01138268 0.00592388 0.04360000
v 0.01155557 0.00583147 0.04360000
v 0.01170711 0.00570711 0.04360000
v 0.01200000 0.00500000 0.04360000
v 0.01198079 0.00519509 0.04360000
v 0.01183147 0.00555557 0.04360000
v 0.01192388 0.00538268 0.04360000
v 0.01100000 0.00600000 0.04500000
v 0.01119509 0.00598079 0.04500000
v 0.01100000 0.00598079 0.04519509
v 0.01100000 0.00592388 0.04538268
v 0.01120233 0.00595819 0.04520234
v 0.01138268 0.00592388 0.04500000
v 0.01140891 0.00588845 0.04520846
v 0.01100000 0.00500000 0.04600000
v 0.01100000 0.00519509 0.04598079
v 0.01119509 0.00500000 0.04598079
v 0.01120233 0.00520233 0.04595819
v 0.01100000 0.00583147 0.04555557
v 0.01120846 0.00588845 0.04540891
v 0.01121202 0.00576845 0.04560377
v 0.01100000 0.00555557 0.04583147
v 0.01100000 0.00538268 0.04592388
v 0.01100000 0.00570711 0.04570711
v 0.01121202 0.00560377 0.04576845
v 0.01120846 0.00540891 0.04588845
v 0.01138268 0.00500000 0.04592388
v 0.01140891 0.00520846 0.04588845
v 0.01142977 0.00579410 0.04542977
v 0.01143789 0.00563571 0.04563571
v 0.01142977 0.00542977 0.04579411
v 0.01155557 0.00583147 0.04500000
v 0.01170711 0.00570711 0.04500000
v 0.01160377 0.00576845 0.04521201
v 0.01200000 0.00500000 0.04500000
v 0.01198079 0.00519509 0.04500000
v 0.01198079 0.00500000 0.04519509
v 0.01195819 0.00520233 0.04520234
v 0.01192388 0.00500000 0.04538268
v 0.01183147 0.00555557 0.04500000
v 0.01192388 0.00538268 0.04500000
v 0.01176845 0.00560377 0.04521201
v 0.01188845 0.00540891 0.04520846
v 0.01155557 0.00500000 0.04583147
v 0.01160377 0.00521201 0.04576845
v 0.01170711 0.00500000 0.04570711
v 0.01163571 0.00543789 0.04563571
v 0.01163571 0.00563571 0.04543789
v 0.01176845 0.00521201 0.04560377
v 0.01183147 0.00500000 0.04555557
v 0.01188845 0.00520846 0.04540891
v 0.01179410 0.00542977 0.04542977
f 2 3 1
f 13 2 1
f 3 13 1
f 7 2 14
f 2 15 14
f 2 21 15
f 3 5 4
f 32 3 4
f 23 3 32
f 23 25 3
f 3 2 11
f 11 2 7
f 3 11 5
f 5 32 4
f 35 5 6
f 11 7 8
f 5 12 6
f 9 6 12
f 5 11 12
f 12 11 10
f 7 40 8
f 35 6 9
f 9 12 48
f 46 12 10
f 40 11 8
f 11 46 10
f 7 14 39
f 34 32 5
f 5 35 34
f 40 7 39
f 35 9 43
f 9 48 43
f 11 40 47
f 11 47 46
f 12 46 48
f 18 13 17
f 13 59 17
f 2 13 21
f 15 21 20
f 15 20 16
f 14 15 41
f 41 15 16
f 16 20 68
f 18 21 13
f 21 18 19
f 21 19 22
f 59 18 17
f 19 18 61
f 21 68 20
f 74 21 22
f 19 63 22
f 13 3 31
f 31 3 25
f 25 23 24
f 24 23 32
f 24 37 25
f 25 37 26
f 24 32 33
f 37 24 33
f 37 56 26
f 13 31 28
f 59 13 28
f 27 25 26
f 31 25 27
f 26 57 27
f 29 28 31
f 59 28 29
f 31 27 30
f 27 64 30
f 64 31 30
f 31 65 29
f 26 56 57
f 57 64 27
f 59 29 60
f 64 65 31
f 60 29 65
f 14 41 39
f 16 51 41
f 16 68 51
f 32 34 33
f 35 36 34
f 33 34 36
f 35 44 36
f 36 37 33
f 37 38 56
f 37 36 38
f 44 38 36
f 38 44 53
f 58 38 53
f 41 40 39
f 40 41 42
f 44 35 43
f 43 48 45
f 45 44 43
f 49 45 48
f 46 49 48
f 40 42 47
f 47 50 46
f 50 49 46
f 42 50 47
f 51 42 41
f 42 51 52
f 52 51 68
f 44 45 53
f 45 49 54
f 45 54 53
f 49 50 55
f 54 49 55
f 50 42 52
f 55 50 52
f 55 52 69
f 18 59 61
f 63 19 61
f 21 74 70
f 68 21 70
f 22 63 74
f 58 57 56
f 38 58 56
f 72 58 53
f 72 76 66
f 58 66 57
f 66 58 72
f 59 60 61
f 60 62 61
f 63 62 75
f 62 63 61
f 66 64 57
f 67 65 64
f 60 65 62
f 66 67 64
f 75 67 76
f 66 76 67
f 65 67 62
f 62 67 75
f 69 70 73
f 69 52 68
f 70 69 68
f 55 71 54
f 71 72 54
f 72 53 54
f 76 72 71
f 73 71 69
f 71 73 76
f 71 55 69
f 75 73 74
f 74 73 70
f 75 74 63
f 73 75 76

