# https://github.com/mikedh/trimesh
v -0.02960000 0.02640545 0.09346683
v -0.02960000 0.02665499 0.09300000
v -0.02960000 0.02625181 0.09397333
v -0.02960000 0.02619993 0.09450007
v -0.02960000 0.02625181 0.09502682
v -0.02960000 0.02640545 0.09553332
v -0.02960000 0.02665496 0.09600011
v -0.02960000 0.02699074 0.09640926
v -0.02960000 0.02739989 0.09674504
v -0.02960000 0.02786668 0.09699455
v -0.02960000 0.02837318 0.09714819
v -0.02960000 0.03114487 0.09300000
v -0.02960000 0.03139440 0.09346683
v -0.02960000 0.03154805 0.09397333
v -0.02960000 0.03159993 0.09450007
v -0.02960000 0.03154805 0.09502682
v -0.02960000 0.02889993 0.09720007
v -0.02960000 0.02942667 0.09714819
v -0.02960000 0.02993317 0.09699455
v -0.02960000 0.03139440 0.09553332
v -0.02960000 0.03114490 0.09600011
v -0.02960000 0.03080912 0.09640926
v -0.02960000 0.03039997 0.09674504
v -0.02460000 0.02640545 0.09346683
v -0.02460000 0.02665499 0.09300000
v -0.02460000 0.02625181 0.09397333
v -0.02460000 0.02619993 0.09450007
v -0.02460000 0.02625181 0.09502682
v -0.02460000 0.02640545 0.09553332
v -0.02460000 0.02665496 0.09600011
v -0.02460000 0.02699074 0.09640926
v -0.02460000 0.02739989 0.09674504
v -0.02460000 0.02786668 0.09699455
v -0.02460000 0.02837318 0.09714819
v -0.02460000 0.03114487 0.09300000
v -0.02460000 0.03139440 0.09346683
v -0.02460000 0.03154805 0.09397333
v -0.02460000 0.03159993 0.09450007
v -0.02460000 0.03154805 0.09502682
v -0.02460000 0.02889993 0.09720007
v -0.02460000 0.02942667 0.09714819
v -0.02460000 0.02993317 0.09699455
v -0.02460000 0.03139440 0.09553332
v -0.02460000 0.03114490 0.09600011
v -0.02460000 0.03080912 0.09640926
v -0.02460000 0.03039997 0.09674504
f 4 2 1
f 4 1 3
f 6 4 5
f 8 2 4
f 8 15 2
f 2 24 1
f 1 26 3
f 26 4 3
f 4 28 5
f 8 4 6
f 8 6 7
f 10 8 9
f 11 8 10
f 11 19 8
f 28 6 5
f 6 30 7
f 30 8 7
f 8 31 9
f 10 9 33
f 11 10 34
f 11 34 17
f 2 15 12
f 12 15 13
f 13 15 14
f 35 2 12
f 36 12 13
f 37 13 14
f 15 37 14
f 39 15 16
f 15 8 19
f 19 11 17
f 19 17 18
f 15 19 21
f 15 21 16
f 20 16 21
f 21 19 22
f 22 19 23
f 17 40 18
f 42 19 18
f 19 42 23
f 39 16 20
f 21 44 20
f 21 22 44
f 22 23 45
f 24 2 25
f 1 24 26
f 4 26 27
f 28 4 27
f 2 35 25
f 24 28 26
f 26 28 27
f 24 31 28
f 35 24 25
f 28 29 6
f 29 30 6
f 31 8 30
f 9 31 32
f 33 9 32
f 34 10 33
f 17 34 40
f 28 31 29
f 29 31 30
f 31 33 32
f 24 42 31
f 31 34 33
f 31 42 34
f 35 12 36
f 37 36 13
f 37 15 38
f 15 39 38
f 24 35 42
f 37 35 36
f 39 35 37
f 42 35 39
f 39 37 38
f 18 40 41
f 42 18 41
f 23 42 46
f 39 20 43
f 20 44 43
f 45 23 46
f 22 45 44
f 34 42 40
f 40 42 41
f 42 39 44
f 44 39 43
f 42 44 45
f 42 45 46

