# https://github.com/mikedh/trimesh
v 0.00450000 -0.02086603 0.09600000
v 0.00500000 -0.02086603 0.09650000
v 0.00442265 -0.02057735 0.09542265
v 0.00450000 -0.02000000 0.09513397
v 0.00413397 -0.02000000 0.09550000
v 0.00413397 -0.02050000 0.09600000
v 0.00442265 -0.02057735 0.09657735
v 0.00400000 -0.02000000 0.09600000
v 0.00413397 -0.02000000 0.09650000
v 0.00450000 -0.02000000 0.09686603
v 0.00500000 -0.02050000 0.09686603
v 0.00500000 -0.02000000 0.09700000
v 0.00442265 -0.01942265 0.09542265
v 0.00500000 -0.01950000 0.09513397
v 0.00500000 -0.01913397 0.09550000
v 0.00413397 -0.01950000 0.09600000
v 0.00450000 -0.01913397 0.09600000
v 0.00442265 -0.01942265 0.09657735
v 0.00500000 -0.01950000 0.09686603
v 0.00500000 -0.01900000 0.09600000
v 0.00500000 -0.01913397 0.09650000
v 0.00557735 -0.02057735 0.09657735
v 0.00550000 -0.02000000 0.09686603
v 0.00586603 -0.02000000 0.09650000
v 0.00550000 -0.01913397 0.09600000
v 0.00557735 -0.01942265 0.09657735
v 0.01242265 -0.02557735 0.08842265
v 0.01250000 -0.02586603 0.08900000
v 0.01213397 -0.02500000 0.08850000
v 0.01250000 -0.02500000 0.08813397
v 0.01242265 -0.02442265 0.08842265
v 0.01300000 -0.02586603 0.08850000
v 0.01300000 -0.02600000 0.08900000
v 0.01300000 -0.02550000 0.08813397
v 0.01357735 -0.02557735 0.08842265
v 0.01350000 -0.02586603 0.08900000
v 0.01386603 -0.02550000 0.08900000
v 0.01300000 -0.02586603 0.08950000
v 0.01300000 -0.02550000 0.08986603
v 0.01357735 -0.02557735 0.08957735
v 0.01300000 -0.02500000 0.08800000
v 0.01300000 -0.02450000 0.08813397
v 0.01350000 -0.02500000 0.08813397
v 0.01386603 -0.02500000 0.08850000
v 0.01400000 -0.02500000 0.08900000
v 0.01357735 -0.02442265 0.08842265
v 0.01386603 -0.02450000 0.08900000
v 0.01386603 -0.02500000 0.08950000
v 0.01350000 -0.02500000 0.08986603
v 0.01357735 -0.02442265 0.08957735
v 0.01300000 -0.02413397 0.08850000
v 0.01350000 -0.02413397 0.08900000
f 2 1 38
f 1 2 7
f 6 5 3
f 3 1 6
f 8 5 6
f 6 7 9
f 1 7 6
f 6 9 8
f 10 9 7
f 7 2 11
f 7 11 10
f 10 11 12
f 12 11 23
f 8 16 5
f 5 16 13
f 13 4 5
f 16 17 13
f 13 15 14
f 17 15 13
f 15 17 20
f 25 15 20
f 9 16 8
f 16 9 18
f 9 10 18
f 17 16 18
f 19 10 12
f 10 19 18
f 23 19 12
f 17 18 21
f 20 17 21
f 25 20 21
f 21 18 19
f 26 21 19
f 22 23 11
f 23 26 19
f 26 23 24
f 21 26 25
f 27 1 3
f 4 29 5
f 3 5 29
f 11 2 39
f 4 13 31
f 42 13 14
f 15 42 14
f 39 22 11
f 23 22 40
f 24 23 48
f 51 15 25
f 25 26 50
f 26 24 48
f 1 27 28
f 27 3 29
f 28 38 1
f 4 30 29
f 30 4 31
f 31 13 42
f 39 2 38
f 22 39 40
f 23 40 49
f 15 51 42
f 52 25 50
f 26 48 50
f 48 23 49
f 28 27 32
f 29 30 27
f 27 30 34
f 30 31 42
f 27 34 32
f 32 34 35
f 33 28 32
f 33 32 36
f 32 35 36
f 34 30 41
f 43 35 34
f 41 43 34
f 35 37 36
f 43 44 35
f 35 44 37
f 37 44 45
f 38 28 33
f 38 33 36
f 40 38 36
f 40 39 38
f 37 40 36
f 40 48 49
f 48 40 37
f 45 48 37
f 41 30 42
f 43 41 42
f 46 43 42
f 46 42 51
f 44 43 46
f 45 44 47
f 46 52 47
f 44 46 47
f 47 48 45
f 47 52 50
f 48 47 50
f 51 52 46
f 51 25 52

