# https://github.com/mikedh/trimesh
v -0.02960000 -0.03139453 0.09341679
v -0.02960000 -0.03117175 0.09300000
v -0.02960000 -0.03154818 0.09392329
v -0.02960000 -0.03160006 0.09445004
v -0.02960000 -0.03154818 0.09497678
v -0.02960000 -0.03139453 0.09548328
v -0.02960000 -0.03114503 0.09595008
v -0.02960000 -0.03080925 0.09635922
v -0.02960000 -0.03040010 0.09669500
v -0.02960000 -0.02993330 0.09694451
v -0.02960000 -0.02800000 0.09300000
v -0.02960000 -0.02942680 0.09709816
v -0.02960000 -0.02890006 0.09715004
v -0.02960000 -0.02837331 0.09709816
v -0.02960000 -0.02800000 0.09698491
v -0.02460000 -0.03139453 0.09341679
v -0.02460000 -0.03117175 0.09300000
v -0.02460000 -0.03154818 0.09392329
v -0.02460000 -0.03160006 0.09445004
v -0.02460000 -0.03154818 0.09497678
v -0.02460000 -0.03139453 0.09548328
v -0.02460000 -0.03114503 0.09595008
v -0.02460000 -0.03080925 0.09635922
v -0.02460000 -0.03040010 0.09669500
v -0.02460000 -0.02993330 0.09694451
v -0.02460000 -0.02800000 0.09300000
v -0.02460000 -0.02942680 0.09709816
v -0.02460000 -0.02890006 0.09715004
v -0.02460000 -0.02837331 0.09709816
v -0.02460000 -0.02800000 0.09698491
f 3 2 1
f 5 3 4
f 2 3 11
f 2 16 1
f 16 3 1
f 3 19 4
f 19 5 4
f 8 3 5
f 8 5 6
f 8 6 7
f 13 3 8
f 10 8 9
f 13 8 10
f 5 21 6
f 6 22 7
f 22 8 7
f 8 23 9
f 10 9 24
f 13 11 3
f 11 26 2
f 13 10 12
f 11 13 15
f 15 13 14
f 10 27 12
f 27 13 12
f 30 11 15
f 14 13 28
f 30 15 14
f 16 2 17
f 3 16 18
f 19 3 18
f 20 5 19
f 2 26 17
f 16 19 18
f 16 20 19
f 16 23 20
f 26 16 17
f 5 20 21
f 21 22 6
f 23 8 22
f 9 23 24
f 24 25 10
f 23 21 20
f 21 23 22
f 16 30 23
f 23 25 24
f 23 27 25
f 11 30 26
f 30 16 26
f 27 10 25
f 13 27 28
f 14 28 29
f 30 14 29
f 23 30 27
f 28 27 30
f 28 30 29

