# https://github.com/mikedh/trimesh
v -0.03300000 -0.02700000 0.11400000
v -0.03300000 -0.02700000 0.11689648
v -0.03300000 -0.02697545 0.11690392
v -0.03300000 -0.02600000 0.11700000
v -0.03300000 -0.02502455 0.11690392
v -0.03300000 -0.02142688 0.11400000
v -0.03300000 -0.02184265 0.11477785
v -0.03300000 -0.02322215 0.11615735
v -0.03300000 -0.02408658 0.11661940
v -0.03300000 -0.02246447 0.11553554
v -0.03100000 -0.02700000 0.11400000
v -0.03100000 -0.02700000 0.11689648
v -0.03100000 -0.02697545 0.11690392
v -0.03100000 -0.02600000 0.11700000
v -0.03100000 -0.02502455 0.11690392
v -0.03100000 -0.02142688 0.11400000
v -0.03100000 -0.02184265 0.11477785
v -0.03100000 -0.02322215 0.11615735
v -0.03100000 -0.02408658 0.11661940
v -0.03100000 -0.02246447 0.11553554
f 1 11 2
f 1 2 9
f 4 2 3
f 9 2 4
f 9 4 5
f 2 13 3
f 13 4 3
f 4 14 5
f 19 9 5
f 1 9 6
f 6 9 7
f 16 1 6
f 16 6 7
f 20 7 10
f 10 9 8
f 10 7 9
f 18 10 8
f 9 18 8
f 1 16 11
f 16 13 11
f 2 11 12
f 13 2 12
f 4 13 14
f 5 14 15
f 19 5 15
f 11 13 12
f 13 19 14
f 14 19 15
f 16 7 17
f 7 20 17
f 19 16 20
f 20 16 17
f 9 19 18
f 18 20 10
f 13 16 19
f 19 20 18

