# https://github.com/mikedh/trimesh
v -0.02000000 0.00200000 0.05080000
v -0.01800000 0.00000000 0.05080000
v -0.02000000 0.00200000 0.05130000
v -0.01800000 0.00000000 0.05130000
v -0.02000000 0.00450000 0.05080000
v -0.01912209 0.00441353 0.05080000
v -0.01827792 0.00415746 0.05080000
v -0.02000000 0.00450000 0.05130000
v -0.01912209 0.00441353 0.05130000
v -0.01827792 0.00415746 0.05130000
v -0.01550000 0.00000000 0.05080000
v -0.01558647 0.00087791 0.05080000
v -0.01584254 0.00172208 0.05080000
v -0.01550000 0.00000000 0.05130000
v -0.01558647 0.00087791 0.05130000
v -0.01584254 0.00172208 0.05130000
v -0.01681802 0.00318198 0.05080000
v -0.01749993 0.00374161 0.05080000
v -0.01625839 0.00250007 0.05080000
v -0.01681802 0.00318198 0.05130000
v -0.01749993 0.00374161 0.05130000
v -0.01625839 0.00250007 0.05130000
f 1 11 2
f 4 1 2
f 5 11 1
f 3 1 4
f 14 3 4
f 3 5 1
f 7 5 6
f 5 8 6
f 17 5 7
f 7 6 9
f 7 10 18
f 3 20 8
f 5 3 8
f 6 8 9
f 8 10 9
f 9 10 7
f 18 10 21
f 8 20 10
f 11 4 2
f 11 13 12
f 14 11 12
f 11 17 13
f 13 19 22
f 13 16 12
f 3 14 20
f 11 14 4
f 14 12 15
f 16 14 15
f 12 16 15
f 22 16 13
f 20 14 16
f 11 5 17
f 20 17 18
f 17 20 19
f 17 7 18
f 13 17 19
f 20 18 21
f 10 20 21
f 19 20 22
f 20 16 22

