# https://github.com/mikedh/trimesh
v -0.02000000 -0.00600000 0.04600000
v -0.02000000 -0.00350000 0.04600000
v -0.02000000 -0.00600000 0.04840000
v -0.02000000 -0.00350000 0.04840000
v -0.01650000 0.00000000 0.04600000
v -0.01650000 0.00000000 0.04840000
v -0.01200000 -0.00600000 0.04600000
v -0.01200000 -0.00600000 0.04840000
v -0.01200000 0.00000000 0.04600000
v -0.01200000 0.00000000 0.04840000
f 5 1 2
f 1 4 2
f 7 3 1
f 5 7 1
f 1 3 4
f 3 6 4
f 4 5 2
f 3 10 6
f 4 6 5
f 3 7 8
f 10 3 8
f 7 10 8
f 7 5 9
f 10 7 9
f 5 10 9
f 10 5 6

