# https://github.com/mikedh/trimesh
v 0.02942265 -0.02257735 0.05242265
v 0.02942265 -0.02142265 0.05242265
v 0.02950000 -0.02200000 0.05213397
v 0.02913397 -0.02200000 0.05250000
v 0.03000000 -0.02250000 0.05213397
v 0.03000000 -0.02200000 0.05200000
v 0.03057735 -0.02257735 0.05242265
v 0.03050000 -0.02200000 0.05213397
v 0.03000000 -0.02286603 0.05250000
v 0.03086603 -0.02200000 0.05250000
v 0.02913397 -0.02250000 0.05300000
v 0.02900000 -0.02200000 0.05300000
v 0.02913397 -0.02150000 0.05300000
v 0.02950000 -0.02286603 0.05300000
v 0.02942265 -0.02257735 0.05357735
v 0.02913397 -0.02200000 0.05350000
v 0.02942265 -0.02142265 0.05357735
v 0.02950000 -0.02200000 0.05386603
v 0.03000000 -0.02300000 0.05300000
v 0.03050000 -0.02286603 0.05300000
v 0.03086603 -0.02250000 0.05300000
v 0.03000000 -0.02286603 0.05350000
v 0.03000000 -0.02250000 0.05386603
v 0.03000000 -0.02200000 0.05400000
v 0.03057735 -0.02257735 0.05357735
v 0.03086603 -0.02200000 0.05350000
v 0.03050000 -0.02200000 0.05386603
v 0.03142265 -0.01642265 0.05242265
v 0.03150000 -0.01700000 0.05213397
v 0.03113397 -0.01700000 0.05250000
v 0.03200000 -0.01700000 0.05200000
v 0.03200000 -0.01650000 0.05213397
v 0.03250000 -0.01700000 0.05213397
v 0.03257735 -0.01757735 0.05242265
v 0.03257735 -0.01642265 0.05242265
v 0.03200000 -0.01613397 0.05250000
v 0.03286603 -0.01700000 0.05250000
v 0.03113397 -0.01650000 0.05300000
v 0.03150000 -0.01613397 0.05300000
v 0.03113397 -0.01700000 0.05350000
v 0.03142265 -0.01642265 0.05357735
v 0.03150000 -0.01700000 0.05386603
v 0.03200000 -0.01600000 0.05300000
v 0.03286603 -0.01750000 0.05300000
v 0.03300000 -0.01700000 0.05300000
v 0.03250000 -0.01613397 0.05300000
v 0.03286603 -0.01650000 0.05300000
v 0.03200000 -0.01700000 0.05400000
v 0.03200000 -0.01613397 0.05350000
v 0.03200000 -0.01650000 0.05386603
v 0.03257735 -0.01757735 0.05357735
v 0.03286603 -0.01700000 0.05350000
v 0.03250000 -0.01700000 0.05386603
v 0.03257735 -0.01642265 0.05357735
f 1 4 3
f 3 4 2
f 5 1 3
f 3 6 5
f 1 5 9
f 4 1 11
f 11 12 4
f 1 14 11
f 13 4 12
f 1 9 14
f 14 9 19
f 4 28 2
f 4 13 30
f 5 6 8
f 5 8 7
f 7 9 5
f 20 9 7
f 20 19 9
f 21 7 10
f 7 21 20
f 28 3 2
f 31 6 3
f 6 31 8
f 16 12 11
f 14 15 11
f 15 16 11
f 16 13 12
f 19 22 14
f 15 14 22
f 15 18 16
f 16 18 17
f 15 22 23
f 18 15 23
f 24 18 23
f 13 16 40
f 16 17 40
f 22 19 20
f 20 25 22
f 21 25 20
f 25 21 26
f 23 22 25
f 24 23 27
f 23 25 27
f 42 17 18
f 24 42 18
f 3 28 29
f 28 4 30
f 38 30 13
f 13 40 38
f 40 17 41
f 41 17 42
f 8 33 7
f 7 37 10
f 44 21 10
f 26 21 44
f 25 26 52
f 25 53 27
f 53 24 27
f 31 3 29
f 8 31 33
f 34 7 33
f 29 28 32
f 31 29 32
f 28 36 32
f 28 30 38
f 39 28 38
f 28 39 36
f 36 39 43
f 37 7 34
f 44 10 37
f 31 32 33
f 32 35 33
f 32 36 35
f 33 37 34
f 35 37 33
f 35 36 46
f 46 36 43
f 44 37 45
f 37 35 47
f 35 46 47
f 37 47 45
f 24 48 42
f 53 25 51
f 48 24 53
f 41 39 38
f 40 41 38
f 43 39 49
f 41 49 39
f 50 49 41
f 50 41 42
f 50 42 48
f 52 26 44
f 25 52 51
f 43 49 46
f 54 46 49
f 44 45 52
f 46 54 47
f 52 45 47
f 54 52 47
f 54 49 50
f 48 53 50
f 53 54 50
f 52 53 51
f 54 53 52

