# https://github.com/mikedh/trimesh
v 0.03500000 0.03760000 0.12360000
v 0.03500000 0.03760000 0.12565850
v 0.03500000 0.03822228 0.12532588
v 0.03500000 0.03965849 0.12360000
v 0.03500000 0.03932588 0.12422228
v 0.03500000 0.03882843 0.12482843
v 0.03860000 0.03760000 0.12360000
v 0.03860000 0.03760000 0.12565850
v 0.03860000 0.03822228 0.12532588
v 0.03860000 0.03965849 0.12360000
v 0.03860000 0.03932588 0.12422228
v 0.03860000 0.03882843 0.12482843
f 1 2 6
f 2 3 6
f 8 2 1
f 2 8 3
f 12 6 3
f 1 6 4
f 4 6 5
f 10 1 4
f 11 4 5
f 6 11 5
f 8 1 7
f 1 10 7
f 10 8 7
f 3 8 9
f 12 3 9
f 8 12 9
f 6 12 11
f 10 4 11
f 11 12 10
f 8 10 12

