# https://github.com/mikedh/trimesh
v 0.03500000 0.03760000 0.04840000
v 0.03500000 0.03877004 0.04840000
v 0.03500000 0.03760000 0.05200000
v 0.03500000 0.03898882 0.04866658
v 0.03500000 0.03954328 0.04970390
v 0.03500000 0.03988471 0.05082946
v 0.03500000 0.04000000 0.05200000
v 0.03860000 0.03760000 0.04840000
v 0.03860000 0.03877004 0.04840000
v 0.03860000 0.03760000 0.05200000
v 0.03860000 0.03898882 0.04866658
v 0.03860000 0.03954328 0.04970390
v 0.03860000 0.03988471 0.05082946
v 0.03860000 0.04000000 0.05200000
f 1 4 2
f 8 1 2
f 1 8 3
f 7 1 3
f 7 3 10
f 1 7 4
f 4 6 5
f 9 2 4
f 4 5 12
f 4 7 6
f 5 6 13
f 7 14 6
f 8 2 9
f 13 8 9
f 3 8 10
f 10 8 13
f 9 4 11
f 4 12 11
f 5 13 12
f 12 9 11
f 13 9 12
f 7 10 14
f 13 6 14
f 10 13 14

