# https://github.com/mikedh/trimesh
v 0.02400000 0.03000000 0.12360000
v 0.02400000 0.03000000 0.12600000
v 0.02400000 0.03400000 0.12360000
v 0.02400000 0.03400000 0.12600000
v 0.02900000 0.03000000 0.12360000
v 0.02900000 0.03000000 0.12600000
v 0.02900000 0.03346993 0.12360000
v 0.02850000 0.03400000 0.12360000
v 0.02900000 0.03400000 0.12422089
v 0.02900000 0.03400000 0.12600000
f 2 3 1
f 5 2 1
f 3 5 1
f 3 2 4
f 2 10 4
f 10 3 4
f 2 5 6
f 10 2 6
f 5 10 6
f 5 3 8
f 3 10 8
f 5 8 7
f 10 5 7
f 7 8 9
f 8 10 9
f 10 7 9

