# https://github.com/mikedh/trimesh
v 0.00600000 0.00000000 0.00200000
v 0.00600000 0.00000000 0.00300000
v 0.00600000 0.00600000 0.00200000
v 0.00600000 0.00598079 0.00219509
v 0.00600000 0.00597694 0.00220776
v 0.00600000 0.00592388 0.00238268
v 0.00600000 0.00583147 0.00255557
v 0.00600000 0.00570711 0.00270711
v 0.00600000 0.00500000 0.00300000
v 0.00600000 0.00519509 0.00298079
v 0.00600000 0.00555557 0.00283147
v 0.00600000 0.00538268 0.00292388
v 0.00609134 0.00525922 0.00300000
v 0.00620224 0.00546668 0.00300000
v 0.00635147 0.00564853 0.00300000
v 0.00653332 0.00579776 0.00300000
v 0.00674078 0.00590866 0.00300000
v 0.00696589 0.00597694 0.00300000
v 0.00720000 0.00600000 0.00300000
v 0.01000000 0.00000000 0.00200000
v 0.01000000 0.00000000 0.00300000
v 0.00900000 0.00600000 0.00200000
v 0.00919509 0.00598079 0.00200000
v 0.00938268 0.00592388 0.00200000
v 0.01000000 0.00500000 0.00200000
v 0.00998079 0.00519509 0.00200000
v 0.00955557 0.00583147 0.00200000
v 0.00970711 0.00570711 0.00200000
v 0.00983147 0.00555557 0.00200000
v 0.00992388 0.00538268 0.00200000
v 0.00880000 0.00600000 0.00300000
v 0.00903411 0.00597694 0.00300000
v 0.00925922 0.00590866 0.00300000
v 0.00946668 0.00579776 0.00300000
v 0.01000000 0.00480000 0.00300000
v 0.00997694 0.00503411 0.00300000
v 0.00992508 0.00520506 0.00300000
v 0.00964853 0.00564853 0.00300000
v 0.00979776 0.00546668 0.00300000
v 0.00990866 0.00525922 0.00300000
f 2 3 1
f 20 2 1
f 3 20 1
f 3 5 4
f 3 7 5
f 5 7 6
f 19 3 4
f 5 18 4
f 3 19 22
f 3 2 10
f 10 2 9
f 2 14 9
f 3 10 7
f 18 5 6
f 17 6 7
f 7 11 8
f 19 4 18
f 10 9 13
f 9 14 13
f 7 10 11
f 16 7 8
f 15 8 11
f 7 16 17
f 11 10 12
f 12 15 11
f 10 14 12
f 14 10 13
f 12 14 15
f 16 8 15
f 14 16 15
f 18 6 17
f 14 18 16
f 16 18 17
f 14 19 18
f 2 39 14
f 19 14 39
f 21 20 25
f 2 20 21
f 2 21 39
f 20 3 29
f 23 3 22
f 29 3 23
f 20 29 25
f 27 23 24
f 29 23 27
f 29 27 28
f 25 29 26
f 26 29 30
f 32 23 22
f 23 32 24
f 33 27 24
f 25 26 35
f 27 38 28
f 39 29 28
f 29 39 30
f 37 26 30
f 22 19 31
f 32 22 31
f 19 32 31
f 19 39 32
f 21 25 35
f 21 35 37
f 39 21 37
f 32 33 24
f 34 27 33
f 35 26 36
f 26 37 36
f 38 39 28
f 27 34 38
f 30 40 37
f 39 40 30
f 32 34 33
f 32 39 34
f 37 35 36
f 34 39 38
f 39 37 40

