# https://github.com/mikedh/trimesh
v -0.03660000 0.03760000 0.12000000
v -0.03660000 0.03877004 0.12000000
v -0.03660000 0.03864025 0.12117265
v -0.03660000 0.03862462 0.12127167
v -0.03660000 0.03861403 0.12130038
v -0.03660000 0.03797906 0.12261886
v -0.03660000 0.03760000 0.12305584
v -0.03660000 0.03781427 0.12284158
v -0.03605584 0.03760000 0.12360000
v -0.03584157 0.03781427 0.12360000
v -0.03561886 0.03797906 0.12360000
v -0.03557860 0.03876463 0.12257860
v -0.03633342 0.03898882 0.12000000
v -0.03545345 0.03933068 0.12125076
v -0.03529610 0.03954328 0.12000000
v -0.03300000 0.03760000 0.12000000
v -0.03430038 0.03861403 0.12360000
v -0.03427167 0.03862462 0.12360000
v -0.03417265 0.03864025 0.12360000
v -0.03300000 0.03760000 0.12360000
v -0.03300000 0.03877004 0.12360000
v -0.03417054 0.03988471 0.12000000
v -0.03421401 0.03974912 0.12121400
v -0.03300000 0.04000000 0.12000000
v -0.03300000 0.03988471 0.12117054
v -0.03425076 0.03933068 0.12245345
v -0.03300000 0.03898882 0.12333342
v -0.03300000 0.03954328 0.12229610
f 1 8 2
f 13 1 2
f 13 2 3
f 2 4 3
f 4 13 3
f 4 2 8
f 4 6 5
f 9 1 16
f 8 1 7
f 1 9 7
f 4 8 6
f 8 12 6
f 9 8 7
f 8 9 10
f 11 8 10
f 9 11 10
f 12 8 11
f 12 5 6
f 9 17 11
f 17 12 11
f 13 4 14
f 14 4 5
f 12 14 5
f 24 1 13
f 15 13 14
f 15 22 13
f 14 23 15
f 12 26 14
f 1 24 16
f 16 24 20
f 9 16 20
f 9 20 21
f 21 17 9
f 17 19 18
f 17 21 19
f 20 27 21
f 21 27 19
f 24 13 22
f 23 22 15
f 14 26 23
f 22 23 25
f 24 22 25
f 27 24 25
f 28 25 23
f 12 17 26
f 26 17 18
f 19 26 18
f 24 27 20
f 27 28 26
f 27 26 19
f 28 23 26
f 27 25 28

