# https://github.com/mikedh/trimesh
v -0.00600000 -0.00538268 0.00007612
v -0.00600000 -0.00555557 0.00016853
v -0.00600000 -0.00570711 0.00029289
v -0.00600000 -0.00583147 0.00044443
v -0.00600000 -0.00519509 0.00001921
v -0.00600000 -0.00500000 0.00000000
v -0.00600000 -0.00592388 0.00061732
v -0.00600000 -0.00598079 0.00080491
v -0.00600000 -0.00600000 0.00100000
v -0.00600000 -0.00600000 0.00200000
v -0.00600000 0.00000000 0.00000000
v -0.00600000 0.00000000 0.00200000
v 0.00000000 -0.00538268 0.00007612
v 0.00000000 -0.00555557 0.00016853
v 0.00000000 -0.00570711 0.00029289
v 0.00000000 -0.00583147 0.00044443
v 0.00000000 -0.00519509 0.00001921
v 0.00000000 -0.00500000 0.00000000
v 0.00000000 -0.00592388 0.00061732
v 0.00000000 -0.00598079 0.00080491
v 0.00000000 -0.00600000 0.00100000
v 0.00000000 -0.00600000 0.00200000
v -0.00120000 0.00000000 0.00000000
v 0.00000000 -0.00120000 0.00000000
v -0.00120000 0.00000000 0.00200000
v 0.00000000 -0.00120000 0.00200000
f 3 1 2
f 7 1 3
f 7 3 4
f 1 6 5
f 7 8 9
f 10 1 7
f 6 1 11
f 10 11 1
f 1 13 2
f 13 1 5
f 3 2 15
f 3 15 4
f 5 6 18
f 7 4 19
f 7 19 8
f 21 9 8
f 10 7 9
f 22 10 9
f 11 23 6
f 11 10 12
f 10 25 12
f 25 11 12
f 13 5 17
f 2 13 14
f 15 2 14
f 4 15 16
f 5 18 17
f 19 4 16
f 8 19 20
f 21 8 20
f 6 24 18
f 13 15 14
f 13 19 15
f 15 19 16
f 18 13 17
f 19 21 20
f 13 22 19
f 18 24 13
f 22 13 24
f 22 9 21
f 25 10 22
f 19 22 21
f 6 23 24
f 11 25 23
f 24 23 25
f 22 24 26
f 25 22 26
f 24 25 26

