# https://github.com/mikedh/trimesh
v -0.02700000 0.03760000 0.11000000
v -0.02700000 0.03760000 0.11400000
v -0.02700000 0.04000000 0.11000000
v -0.02700000 0.04000000 0.11400000
v -0.02499208 0.03760000 0.11000000
v -0.02400000 0.03760000 0.11113339
v -0.02400000 0.03760000 0.11400000
v -0.02499208 0.04000000 0.11000000
v -0.02400000 0.04000000 0.11113339
v -0.02400000 0.04000000 0.11400000
f 2 3 1
f 6 2 1
f 1 8 5
f 1 3 8
f 3 2 4
f 2 10 4
f 10 3 4
f 6 1 5
f 9 6 5
f 2 6 7
f 10 2 7
f 6 10 7
f 3 9 8
f 3 10 9
f 8 9 5
f 10 6 9

