# https://github.com/mikedh/trimesh
v 0.02900000 -0.04000000 0.11800000
v 0.02900000 -0.04000000 0.12000000
v 0.02900000 -0.03760000 0.11800000
v 0.02900000 -0.03822089 0.12000000
v 0.02900000 -0.03760000 0.11946993
v 0.03200000 -0.04000000 0.11800000
v 0.03200000 -0.04000000 0.12000000
v 0.03200000 -0.03760000 0.11800000
v 0.03200000 -0.03822089 0.12000000
v 0.03200000 -0.03760000 0.11946993
f 2 3 1
f 6 2 1
f 3 6 1
f 2 9 4
f 8 3 5
f 3 2 4
f 3 4 5
f 5 4 9
f 2 6 7
f 9 2 7
f 6 9 7
f 6 3 8
f 8 5 10
f 9 6 8
f 5 9 10
f 9 8 10

