# https://github.com/mikedh/trimesh
v 0.00800000 -0.01700000 0.05130000
v 0.00800000 -0.00220000 0.05130000
v 0.00842920 -0.00215773 0.05130000
v 0.00884190 -0.00203253 0.05130000
v 0.00922225 -0.00182923 0.05130000
v 0.00955563 -0.00155563 0.05130000
v 0.00982923 -0.00122225 0.05130000
v 0.01003253 -0.00084190 0.05130000
v 0.01015773 -0.00042920 0.05130000
v 0.00800000 -0.01700000 0.05370000
v 0.00933706 -0.01411114 0.05370000
v 0.00900000 -0.01300000 0.05370000
v 0.00915224 -0.01376537 0.05370000
v 0.00903843 -0.01339018 0.05370000
v 0.01060982 -0.01496157 0.05370000
v 0.00958579 -0.01441421 0.05370000
v 0.00988886 -0.01466294 0.05370000
v 0.01023463 -0.01484776 0.05370000
v 0.00903843 -0.01260982 0.05370000
v 0.00915224 -0.01223463 0.05370000
v 0.00933706 -0.01188886 0.05370000
v 0.00958579 -0.01158579 0.05370000
v 0.00988886 -0.01133706 0.05370000
v 0.01023463 -0.01115224 0.05370000
v 0.01060982 -0.01103843 0.05370000
v 0.01100000 -0.01500000 0.05370000
v 0.01139018 -0.01496157 0.05370000
v 0.01176537 -0.01484776 0.05370000
v 0.01211114 -0.01466294 0.05370000
v 0.01241421 -0.01441421 0.05370000
v 0.01266294 -0.01411114 0.05370000
v 0.01284776 -0.01376537 0.05370000
v 0.01296157 -0.01339018 0.05370000
v 0.01300000 -0.01300000 0.05370000
v 0.01100000 -0.01100000 0.05370000
v 0.01139018 -0.01103843 0.05370000
v 0.01176537 -0.01115224 0.05370000
v 0.01211114 -0.01133706 0.05370000
v 0.01266294 -0.01188886 0.05370000
v 0.01241421 -0.01158579 0.05370000
v 0.01296157 -0.01260982 0.05370000
v 0.01284776 -0.01223463 0.05370000
v 0.00933706 -0.01411114 0.05600000
v 0.00900000 -0.01300000 0.05600000
v 0.00915224 -0.01376537 0.05600000
v 0.00903843 -0.01339018 0.05600000
v 0.01060982 -0.01496157 0.05600000
v 0.00958579 -0.01441421 0.05600000
v 0.00988886 -0.01466294 0.05600000
v 0.01023463 -0.01484776 0.05600000
v 0.00903843 -0.01260982 0.05600000
v 0.00915224 -0.01223463 0.05600000
v 0.00933706 -0.01188886 0.05600000
v 0.00958579 -0.01158579 0.05600000
v 0.00988886 -0.01133706 0.05600000
v 0.01023463 -0.01115224 0.05600000
v 0.01060982 -0.01103843 0.05600000
v 0.01100000 -0.01500000 0.05600000
v 0.01139018 -0.01496157 0.05600000
v 0.01176537 -0.01484776 0.05600000
v 0.01211114 -0.01466294 0.05600000
v 0.01241421 -0.01441421 0.05600000
v 0.01266294 -0.01411114 0.05600000
v 0.01284776 -0.01376537 0.05600000
v 0.01296157 -0.01339018 0.05600000
v 0.01300000 -0.01300000 0.05600000
v 0.01100000 -0.01100000 0.05600000
v 0.01139018 -0.01103843 0.05600000
v 0.01176537 -0.01115224 0.05600000
v 0.01211114 -0.01133706 0.05600000
v 0.01266294 -0.01188886 0.05600000
v 0.01241421 -0.01158579 0.05600000
v 0.01296157 -0.01260982 0.05600000
v 0.01284776 -0.01223463 0.05600000
v 0.00800000 -0.00220000 0.05370000
v 0.00842920 -0.00215773 0.05370000
v 0.00884190 -0.00203253 0.05370000
v 0.00922225 -0.00182923 0.05370000
v 0.00955563 -0.00155563 0.05370000
v 0.00982923 -0.00122225 0.05370000
v 0.01003253 -0.00084190 0.05370000
v 0.01015773 -0.00042920 0.05370000
v 0.00884190 0.00203253 0.05130000
v 0.00922225 0.00182923 0.05130000
v 0.00800000 0.00220000 0.05130000
v 0.00842920 0.00215773 0.05130000
v 0.01003253 0.00084190 0.05130000
v 0.00955563 0.00155563 0.05130000
v 0.00982923 0.00122225 0.05130000
v 0.01020000 0.00000000 0.05130000
v 0.01015773 0.00042920 0.05130000
v 0.00800000 0.01700000 0.05130000
v 0.00884190 0.00203253 0.05370000
v 0.00922225 0.00182923 0.05370000
v 0.00800000 0.00220000 0.05370000
v 0.00842920 0.00215773 0.05370000
v 0.01003253 0.00084190 0.05370000
v 0.00955563 0.00155563 0.05370000
v 0.00982923 0.00122225 0.05370000
v 0.01020000 0.00000000 0.05370000
v 0.01015773 0.00042920 0.05370000
v 0.00933706 0.01188886 0.05370000
v 0.00915224 0.01223463 0.05370000
v 0.00903843 0.01260982 0.05370000
v 0.00958579 0.01158579 0.05370000
v 0.00988886 0.01133706 0.05370000
v 0.01023463 0.01115224 0.05370000
v 0.01060982 0.01103843 0.05370000
v 0.00900000 0.01300000 0.05370000
v 0.00903843 0.01339018 0.05370000
v 0.00915224 0.01376537 0.05370000
v 0.00933706 0.01411114 0.05370000
v 0.00800000 0.01700000 0.05370000
v 0.00958579 0.01441421 0.05370000
v 0.00988886 0.01466294 0.05370000
v 0.01023463 0.01484776 0.05370000
v 0.01060982 0.01496157 0.05370000
v 0.01100000 0.01100000 0.05370000
v 0.01139018 0.01103843 0.05370000
v 0.01176537 0.01115224 0.05370000
v 0.01211114 0.01133706 0.05370000
v 0.01241421 0.01158579 0.05370000
v 0.01266294 0.01188886 0.05370000
v 0.01284776 0.01223463 0.05370000
v 0.01296157 0.01260982 0.05370000
v 0.01176537 0.01484776 0.05370000
v 0.01211114 0.01466294 0.05370000
v 0.01100000 0.01500000 0.05370000
v 0.01139018 0.01496157 0.05370000
v 0.01241421 0.01441421 0.05370000
v 0.01266294 0.01411114 0.05370000
v 0.01300000 0.01300000 0.05370000
v 0.01296157 0.01339018 0.05370000
v 0.01284776 0.01376537 0.05370000
v 0.00933706 0.01188886 0.05600000
v 0.00915224 0.01223463 0.05600000
v 0.00903843 0.01260982 0.05600000
v 0.00958579 0.01158579 0.05600000
v 0.00988886 0.01133706 0.05600000
v 0.01023463 0.01115224 0.05600000
v 0.01060982 0.01103843 0.05600000
v 0.00900000 0.01300000 0.05600000
v 0.00903843 0.01339018 0.05600000
v 0.00915224 0.01376537 0.05600000
v 0.00933706 0.01411114 0.05600000
v 0.00958579 0.01441421 0.05600000
v 0.00988886 0.01466294 0.05600000
v 0.01023463 0.01484776 0.05600000
v 0.01060982 0.01496157 0.05600000
v 0.01100000 0.01100000 0.05600000
v 0.01139018 0.01103843 0.05600000
v 0.01176537 0.01115224 0.05600000
v 0.01211114 0.01133706 0.05600000
v 0.01241421 0.01158579 0.05600000
v 0.01266294 0.01188886 0.05600000
v 0.01284776 0.01223463 0.05600000
v 0.01296157 0.01260982 0.05600000
v 0.01176537 0.01484776 0.05600000
v 0.01211114 0.01466294 0.05600000
v 0.01100000 0.01500000 0.05600000
v 0.01139018 0.01496157 0.05600000
v 0.01241421 0.01441421 0.05600000
v 0.01266294 0.01411114 0.05600000
v 0.01300000 0.01300000 0.05600000
v 0.01296157 0.01339018 0.05600000
v 0.01284776 0.01376537 0.05600000
v 0.03000000 -0.01700000 0.05130000
v 0.02515224 -0.01376537 0.05370000
v 0.02503843 -0.01339018 0.05370000
v 0.02500000 -0.01300000 0.05370000
v 0.02533706 -0.01411114 0.05370000
v 0.02558579 -0.01441421 0.05370000
v 0.02660982 -0.01496157 0.05370000
v 0.02700000 -0.01500000 0.05370000
v 0.02588886 -0.01466294 0.05370000
v 0.02623463 -0.01484776 0.05370000
v 0.02503843 -0.01260982 0.05370000
v 0.02515224 -0.01223463 0.05370000
v 0.02533706 -0.01188886 0.05370000
v 0.02558579 -0.01158579 0.05370000
v 0.02588886 -0.01133706 0.05370000
v 0.02623463 -0.01115224 0.05370000
v 0.02660982 -0.01103843 0.05370000
v 0.02700000 -0.01100000 0.05370000
v 0.02739018 -0.01496157 0.05370000
v 0.02776537 -0.01484776 0.05370000
v 0.02811114 -0.01466294 0.05370000
v 0.02841421 -0.01441421 0.05370000
v 0.03000000 -0.01700000 0.05370000
v 0.02866294 -0.01411114 0.05370000
v 0.02884776 -0.01376537 0.05370000
v 0.02896157 -0.01339018 0.05370000
v 0.02900000 -0.01300000 0.05370000
v 0.02739018 -0.01103843 0.05370000
v 0.02776537 -0.01115224 0.05370000
v 0.02811114 -0.01133706 0.05370000
v 0.02841421 -0.01158579 0.05370000
v 0.02896157 -0.01260982 0.05370000
v 0.02884776 -0.01223463 0.05370000
v 0.02866294 -0.01188886 0.05370000
v 0.02515224 -0.01376537 0.05600000
v 0.02503843 -0.01339018 0.05600000
v 0.02500000 -0.01300000 0.05600000
v 0.02533706 -0.01411114 0.05600000
v 0.02558579 -0.01441421 0.05600000
v 0.02660982 -0.01496157 0.05600000
v 0.02700000 -0.01500000 0.05600000
v 0.02588886 -0.01466294 0.05600000
v 0.02623463 -0.01484776 0.05600000
v 0.02503843 -0.01260982 0.05600000
v 0.02515224 -0.01223463 0.05600000
v 0.02533706 -0.01188886 0.05600000
v 0.02558579 -0.01158579 0.05600000
v 0.02588886 -0.01133706 0.05600000
v 0.02623463 -0.01115224 0.05600000
v 0.02660982 -0.01103843 0.05600000
v 0.02700000 -0.01100000 0.05600000
v 0.02739018 -0.01496157 0.05600000
v 0.02776537 -0.01484776 0.05600000
v 0.02811114 -0.01466294 0.05600000
v 0.02841421 -0.01441421 0.05600000
v 0.02866294 -0.01411114 0.05600000
v 0.02884776 -0.01376537 0.05600000
v 0.02896157 -0.01339018 0.05600000
v 0.02900000 -0.01300000 0.05600000
v 0.02739018 -0.01103843 0.05600000
v 0.02776537 -0.01115224 0.05600000
v 0.02811114 -0.01133706 0.05600000
v 0.02841421 -0.01158579 0.05600000
v 0.02896157 -0.01260982 0.05600000
v 0.02884776 -0.01223463 0.05600000
v 0.02866294 -0.01188886 0.05600000
v 0.03000000 0.01700000 0.05130000
v 0.02515224 0.01223463 0.05370000
v 0.02503843 0.01260982 0.05370000
v 0.02558579 0.01158579 0.05370000
v 0.02533706 0.01188886 0.05370000
v 0.02588886 0.01133706 0.05370000
v 0.02623463 0.01115224 0.05370000
v 0.02660982 0.01103843 0.05370000
v 0.02700000 0.01100000 0.05370000
v 0.02500000 0.01300000 0.05370000
v 0.02503843 0.01339018 0.05370000
v 0.02515224 0.01376537 0.05370000
v 0.02533706 0.01411114 0.05370000
v 0.02558579 0.01441421 0.05370000
v 0.02588886 0.01466294 0.05370000
v 0.02623463 0.01484776 0.05370000
v 0.02660982 0.01496157 0.05370000
v 0.02700000 0.01500000 0.05370000
v 0.02739018 0.01103843 0.05370000
v 0.02776537 0.01115224 0.05370000
v 0.02811114 0.01133706 0.05370000
v 0.02841421 0.01158579 0.05370000
v 0.02866294 0.01188886 0.05370000
v 0.02884776 0.01223463 0.05370000
v 0.02896157 0.01260982 0.05370000
v 0.02776537 0.01484776 0.05370000
v 0.02811114 0.01466294 0.05370000
v 0.02841421 0.01441421 0.05370000
v 0.02739018 0.01496157 0.05370000
v 0.02896157 0.01339018 0.05370000
v 0.02884776 0.01376537 0.05370000
v 0.02900000 0.01300000 0.05370000
v 0.02866294 0.01411114 0.05370000
v 0.03000000 0.01700000 0.05370000
v 0.02515224 0.01223463 0.05600000
v 0.02503843 0.01260982 0.05600000
v 0.02558579 0.01158579 0.05600000
v 0.02533706 0.01188886 0.05600000
v 0.02588886 0.01133706 0.05600000
v 0.02623463 0.01115224 0.05600000
v 0.02660982 0.01103843 0.05600000
v 0.02700000 0.01100000 0.05600000
v 0.02500000 0.01300000 0.05600000
v 0.02503843 0.01339018 0.05600000
v 0.02515224 0.01376537 0.05600000
v 0.02533706 0.01411114 0.05600000
v 0.02558579 0.01441421 0.05600000
v 0.02588886 0.01466294 0.05600000
v 0.02623463 0.01484776 0.05600000
v 0.02660982 0.01496157 0.05600000
v 0.02700000 0.01500000 0.05600000
v 0.02739018 0.01103843 0.05600000
v 0.02776537 0.01115224 0.05600000
v 0.02811114 0.01133706 0.05600000
v 0.02841421 0.01158579 0.05600000
v 0.02866294 0.01188886 0.05600000
v 0.02884776 0.01223463 0.05600000
v 0.02896157 0.01260982 0.05600000
v 0.02776537 0.01484776 0.05600000
v 0.02811114 0.01466294 0.05600000
v 0.02841421 0.01441421 0.05600000
v 0.02739018 0.01496157 0.05600000
v 0.02896157 0.01339018 0.05600000
v 0.02884776 0.01376537 0.05600000
v 0.02900000 0.01300000 0.05600000
v 0.02866294 0.01411114 0.05600000
f 1 10 2
f 1 2 3
f 10 75 2
f 1 167 10
f 1 3 167
f 167 3 4
f 167 4 5
f 167 5 6
f 167 6 7
f 167 7 8
f 167 8 9
f 167 9 90
f 167 90 91
f 167 89 88
f 167 91 87
f 167 87 89
f 10 11 13
f 10 16 11
f 10 18 17
f 10 17 16
f 10 14 12
f 10 13 14
f 10 15 18
f 10 26 15
f 10 27 26
f 10 28 27
f 10 29 28
f 10 12 76
f 12 19 77
f 19 20 77
f 20 21 78
f 10 76 75
f 12 77 76
f 20 78 77
f 21 22 78
f 22 23 79
f 23 24 81
f 22 79 78
f 23 80 79
f 23 81 80
f 24 82 81
f 24 100 82
f 24 25 108
f 39 42 118
f 25 35 118
f 36 37 118
f 35 36 118
f 37 38 118
f 38 40 118
f 39 118 40
f 10 172 29
f 29 172 30
f 30 172 31
f 31 171 32
f 32 169 33
f 33 169 34
f 34 170 41
f 41 177 42
f 42 179 118
f 92 86 85
f 92 83 86
f 92 88 84
f 92 84 83
f 92 85 95
f 92 95 113
f 92 167 88
f 92 113 266
f 24 107 100
f 24 108 107
f 107 101 100
f 107 97 101
f 25 118 108
f 109 95 96
f 102 94 98
f 109 96 93
f 103 93 94
f 105 98 99
f 106 99 97
f 102 98 105
f 106 97 107
f 105 99 106
f 103 104 93
f 104 109 93
f 102 103 94
f 109 113 95
f 109 110 113
f 110 111 113
f 111 112 113
f 112 114 113
f 113 114 115
f 113 115 116
f 113 116 117
f 118 179 119
f 119 180 120
f 120 181 121
f 121 182 122
f 122 183 123
f 123 184 124
f 124 194 125
f 113 117 266
f 125 235 132
f 126 127 247
f 130 131 245
f 127 130 246
f 132 242 133
f 133 243 134
f 131 134 245
f 126 248 129
f 117 128 266
f 128 129 266
f 10 167 189
f 167 233 189
f 10 175 172
f 10 176 175
f 10 173 176
f 10 174 173
f 10 185 174
f 32 168 169
f 34 169 170
f 31 172 171
f 32 171 168
f 41 170 177
f 42 177 178
f 42 178 179
f 10 189 185
f 119 179 180
f 120 180 181
f 121 181 182
f 122 182 183
f 123 183 184
f 124 184 194
f 185 189 186
f 186 189 187
f 187 189 188
f 188 189 190
f 189 191 190
f 189 192 191
f 189 193 192
f 189 198 193
f 194 195 238
f 199 238 200
f 198 238 199
f 189 238 198
f 196 197 238
f 195 196 238
f 197 200 238
f 92 233 167
f 92 266 233
f 189 233 266
f 125 194 235
f 132 235 242
f 133 242 243
f 134 243 244
f 134 244 245
f 130 245 246
f 127 246 247
f 126 247 248
f 129 248 249
f 129 249 250
f 129 250 266
f 194 236 237
f 194 238 236
f 194 234 235
f 194 237 234
f 189 239 238
f 189 240 239
f 189 241 240
f 189 251 241
f 189 252 251
f 189 253 252
f 189 254 253
f 189 255 254
f 189 256 255
f 189 257 256
f 189 264 257
f 189 266 264
f 250 261 266
f 258 266 261
f 262 266 263
f 262 264 266
f 259 260 266
f 258 259 266
f 260 265 266
f 263 266 265
f 11 45 13
f 12 14 44
f 13 46 14
f 15 50 18
f 15 26 47
f 16 17 48
f 11 16 43
f 17 18 49
f 12 51 19
f 19 52 20
f 20 53 21
f 21 54 22
f 22 55 23
f 23 56 24
f 24 57 25
f 26 27 58
f 27 28 59
f 28 29 60
f 29 30 61
f 30 31 62
f 31 32 63
f 32 33 64
f 33 34 65
f 34 41 66
f 25 67 35
f 35 68 36
f 36 69 37
f 37 70 38
f 39 40 71
f 39 74 42
f 38 72 40
f 41 42 73
f 11 43 45
f 14 46 44
f 12 44 51
f 13 45 46
f 15 47 50
f 16 48 43
f 17 49 48
f 18 50 49
f 44 46 51
f 45 52 46
f 43 53 45
f 43 48 54
f 48 49 55
f 49 50 56
f 47 57 50
f 19 51 52
f 20 52 53
f 21 53 54
f 22 54 55
f 23 55 56
f 24 56 57
f 25 57 67
f 46 52 51
f 45 53 52
f 43 54 53
f 48 55 54
f 49 56 55
f 50 57 56
f 47 67 57
f 26 58 47
f 27 59 58
f 28 60 59
f 29 61 60
f 30 62 61
f 31 63 62
f 32 64 63
f 33 65 64
f 34 66 65
f 47 58 67
f 58 59 68
f 59 60 69
f 60 61 70
f 61 62 72
f 62 63 71
f 63 64 74
f 64 65 73
f 64 73 74
f 65 66 73
f 35 67 68
f 36 68 69
f 37 69 70
f 39 71 74
f 38 70 72
f 40 72 71
f 41 73 66
f 42 74 73
f 58 68 67
f 59 69 68
f 60 70 69
f 61 72 70
f 62 71 72
f 63 74 71
f 102 136 103
f 103 137 104
f 105 106 138
f 106 107 139
f 102 105 135
f 107 108 140
f 108 118 141
f 104 142 109
f 109 143 110
f 110 144 111
f 111 145 112
f 112 146 114
f 114 147 115
f 115 148 116
f 116 149 117
f 118 119 150
f 119 120 151
f 120 121 152
f 121 122 153
f 122 123 154
f 123 124 155
f 124 125 156
f 125 132 157
f 126 159 127
f 117 160 128
f 128 161 129
f 126 129 158
f 127 162 130
f 130 163 131
f 131 166 134
f 132 133 164
f 133 134 165
f 104 137 142
f 102 135 136
f 103 136 137
f 105 138 135
f 106 139 138
f 107 140 139
f 108 141 140
f 135 145 136
f 135 138 146
f 138 139 147
f 139 140 148
f 140 141 149
f 109 142 143
f 110 143 144
f 111 144 145
f 112 145 146
f 114 146 147
f 115 147 148
f 116 148 149
f 117 149 160
f 137 143 142
f 136 144 137
f 137 144 143
f 136 145 144
f 135 146 145
f 138 147 146
f 139 148 147
f 140 149 148
f 141 160 149
f 118 150 141
f 119 151 150
f 120 152 151
f 121 153 152
f 122 154 153
f 123 155 154
f 124 156 155
f 125 157 156
f 141 150 160
f 150 151 161
f 151 152 158
f 152 153 159
f 153 154 162
f 154 155 163
f 155 156 166
f 156 157 165
f 126 158 159
f 128 160 161
f 129 161 158
f 127 159 162
f 130 162 163
f 131 163 166
f 133 165 164
f 132 164 157
f 134 166 165
f 150 161 160
f 151 158 161
f 152 159 158
f 153 162 159
f 155 166 163
f 154 163 162
f 157 164 165
f 156 165 166
f 168 202 169
f 169 203 170
f 168 171 201
f 171 172 204
f 172 175 205
f 173 209 176
f 173 174 206
f 174 185 207
f 175 176 208
f 170 210 177
f 177 211 178
f 178 212 179
f 179 213 180
f 180 214 181
f 181 215 182
f 182 216 183
f 183 217 184
f 185 186 218
f 186 187 219
f 187 188 220
f 188 190 221
f 190 191 222
f 191 192 223
f 192 193 224
f 193 198 225
f 184 226 194
f 194 227 195
f 197 232 200
f 195 228 196
f 196 229 197
f 198 199 230
f 199 200 231
f 168 201 202
f 170 203 210
f 169 202 203
f 171 204 201
f 172 205 204
f 175 208 205
f 173 206 209
f 174 207 206
f 176 209 208
f 201 211 202
f 202 210 203
f 204 205 213
f 201 204 212
f 205 208 214
f 208 209 215
f 206 216 209
f 206 207 217
f 177 210 211
f 178 211 212
f 179 212 213
f 180 213 214
f 181 214 215
f 182 215 216
f 183 216 217
f 184 217 226
f 202 211 210
f 201 212 211
f 204 213 212
f 205 214 213
f 208 215 214
f 209 216 215
f 206 217 216
f 207 226 217
f 185 218 207
f 186 219 218
f 187 220 219
f 188 221 220
f 190 222 221
f 191 223 222
f 192 224 223
f 193 225 224
f 207 218 226
f 218 219 227
f 219 220 228
f 220 221 229
f 221 222 232
f 222 223 231
f 223 224 230
f 223 230 231
f 224 225 230
f 194 226 227
f 195 227 228
f 196 228 229
f 197 229 232
f 199 231 230
f 200 232 231
f 198 230 225
f 218 227 226
f 219 228 227
f 220 229 228
f 221 232 229
f 222 231 232
f 234 268 235
f 236 238 269
f 234 237 267
f 236 270 237
f 238 239 271
f 239 240 272
f 240 241 273
f 241 251 274
f 235 275 242
f 242 276 243
f 243 277 244
f 244 278 245
f 245 279 246
f 246 280 247
f 247 281 248
f 248 282 249
f 249 283 250
f 251 252 284
f 252 253 285
f 253 254 286
f 254 255 287
f 255 256 288
f 256 257 289
f 257 264 290
f 258 292 259
f 260 298 265
f 259 293 260
f 250 294 261
f 258 261 291
f 262 263 295
f 262 297 264
f 263 265 296
f 234 267 268
f 235 268 275
f 236 269 270
f 238 271 269
f 237 270 267
f 239 272 271
f 240 273 272
f 241 274 273
f 267 270 278
f 269 279 270
f 269 271 280
f 271 272 281
f 272 273 282
f 273 274 283
f 242 275 276
f 243 276 277
f 244 277 278
f 245 278 279
f 246 279 280
f 247 280 281
f 248 281 282
f 249 282 283
f 250 283 294
f 268 276 275
f 267 277 268
f 268 277 276
f 267 278 277
f 270 279 278
f 269 280 279
f 271 281 280
f 272 282 281
f 273 283 282
f 274 294 283
f 251 284 274
f 252 285 284
f 253 286 285
f 254 287 286
f 255 288 287
f 256 289 288
f 257 290 289
f 274 284 294
f 284 285 291
f 285 286 292
f 286 287 293
f 287 288 298
f 288 289 296
f 289 290 295
f 258 291 292
f 259 292 293
f 260 293 298
f 261 294 291
f 263 296 295
f 264 297 290
f 262 295 297
f 265 298 296
f 284 291 294
f 285 292 291
f 286 293 292
f 287 298 293
f 288 296 298
f 289 295 296
f 290 297 295
f 2 75 3
f 4 3 76
f 5 4 77
f 6 5 78
f 7 6 79
f 8 7 80
f 9 8 81
f 9 82 90
f 3 75 76
f 76 77 4
f 77 78 5
f 78 79 6
f 79 80 7
f 80 81 8
f 81 82 9
f 90 82 100
f 86 83 93
f 83 84 94
f 85 86 96
f 89 87 97
f 84 88 98
f 88 89 99
f 90 100 91
f 87 91 101
f 93 96 86
f 94 93 83
f 98 94 84
f 95 85 96
f 99 98 88
f 97 99 89
f 91 100 101
f 101 97 87

