# https://github.com/mikedh/trimesh
v -0.03360000 0.02639993 0.07015657
v -0.03160000 0.02639993 0.07015657
v -0.03360000 0.02762491 0.07134632
v -0.03160000 0.02762491 0.07134632
v -0.03500000 0.02802312 0.07072313
v -0.03500000 0.02821102 0.07056892
v -0.03360000 0.02781902 0.07087770
v -0.03360000 0.02798069 0.07068070
v -0.03360000 0.02817769 0.07051903
v -0.03500000 0.02775432 0.07112541
v -0.03500000 0.02786891 0.07091103
v -0.03500000 0.02768375 0.07135803
v -0.03360000 0.02769888 0.07110245
v -0.03500000 0.02842540 0.07045433
v -0.03500000 0.02865802 0.07038377
v -0.03360000 0.02840244 0.07039890
v -0.03360000 0.02864631 0.07032492
v -0.03160000 0.02781902 0.07087770
v -0.03160000 0.02798069 0.07068070
v -0.03160000 0.02817769 0.07051903
v -0.03160000 0.02769888 0.07110245
v -0.03160000 0.02840244 0.07039890
v -0.03160000 0.02864631 0.07032492
v -0.03360000 0.02759993 0.07159994
v -0.03360000 0.02762491 0.07185356
v -0.03160000 0.02759993 0.07159994
v -0.03160000 0.02762491 0.07185356
v -0.03360000 0.02639993 0.07304332
v -0.03160000 0.02639993 0.07304332
v -0.03500000 0.02765993 0.07159994
v -0.03500000 0.02768375 0.07184185
v -0.03500000 0.02775432 0.07207447
v -0.03500000 0.02786891 0.07228885
v -0.03360000 0.02769888 0.07209743
v -0.03500000 0.02802312 0.07247675
v -0.03500000 0.02821102 0.07263096
v -0.03360000 0.02781902 0.07232218
v -0.03360000 0.02798069 0.07251918
v -0.03360000 0.02817769 0.07268085
v -0.03500000 0.02842540 0.07274555
v -0.03500000 0.02865802 0.07281612
v -0.03360000 0.02840244 0.07280099
v -0.03360000 0.02864631 0.07287496
v -0.03160000 0.02769888 0.07209743
v -0.03160000 0.02781902 0.07232218
v -0.03160000 0.02798069 0.07251918
v -0.03160000 0.02817769 0.07268085
v -0.03160000 0.02840244 0.07280099
v -0.03160000 0.02864631 0.07287496
v -0.03360000 0.02889993 0.06871319
v -0.03160000 0.02889993 0.06871319
v -0.03500000 0.02889993 0.07035994
v -0.03500000 0.02914184 0.07038377
v -0.03500000 0.02937446 0.07045433
v -0.03360000 0.02889993 0.07029994
v -0.03360000 0.02915355 0.07032492
v -0.03360000 0.02939742 0.07039890
v -0.03500000 0.02958884 0.07056892
v -0.03500000 0.02977674 0.07072313
v -0.03360000 0.02962217 0.07051903
v -0.03360000 0.02981917 0.07068070
v -0.03360000 0.02998084 0.07087770
v -0.03500000 0.02993095 0.07091103
v -0.03500000 0.03004554 0.07112541
v -0.03500000 0.03011610 0.07135803
v -0.03360000 0.03010097 0.07110245
v -0.03160000 0.02889993 0.07029994
v -0.03160000 0.02915355 0.07032492
v -0.03160000 0.02939742 0.07039890
v -0.03160000 0.02962217 0.07051903
v -0.03160000 0.02981917 0.07068070
v -0.03160000 0.02998084 0.07087770
v -0.03160000 0.03010097 0.07110245
v -0.03360000 0.03139993 0.07015657
v -0.03160000 0.03139993 0.07015657
v -0.03360000 0.03017495 0.07134632
v -0.03160000 0.03017495 0.07134632
v -0.03500000 0.02889993 0.07283994
v -0.03500000 0.02914184 0.07281612
v -0.03500000 0.02937446 0.07274555
v -0.03360000 0.02889993 0.07289994
v -0.03360000 0.02915355 0.07287496
v -0.03360000 0.02939742 0.07280099
v -0.03500000 0.03013993 0.07159994
v -0.03500000 0.03011610 0.07184185
v -0.03500000 0.02993095 0.07228885
v -0.03500000 0.03004554 0.07207447
v -0.03360000 0.03010097 0.07209743
v -0.03500000 0.02958884 0.07263096
v -0.03500000 0.02977674 0.07247675
v -0.03360000 0.02962217 0.07268085
v -0.03360000 0.02981917 0.07251918
v -0.03360000 0.02998084 0.07232218
v -0.03160000 0.02889993 0.07289994
v -0.03160000 0.02915355 0.07287496
v -0.03160000 0.02939742 0.07280099
v -0.03160000 0.03010097 0.07209743
v -0.03160000 0.02962217 0.07268085
v -0.03160000 0.02981917 0.07251918
v -0.03160000 0.02998084 0.07232218
v -0.03360000 0.02889993 0.07448669
v -0.03160000 0.02889993 0.07448669
v -0.03360000 0.03019993 0.07159994
v -0.03360000 0.03017495 0.07185356
v -0.03160000 0.03019993 0.07159994
v -0.03160000 0.03017495 0.07185356
v -0.03360000 0.03139993 0.07304332
v -0.03160000 0.03139993 0.07304332
v -0.02300000 0.02730894 0.07000895
v -0.02300000 0.02764989 0.06972914
v -0.02050000 0.02730894 0.07000895
v -0.02050000 0.02764989 0.06972914
v -0.02300000 0.02682120 0.07073890
v -0.02300000 0.02669316 0.07116099
v -0.02300000 0.02702912 0.07034991
v -0.02050000 0.02682120 0.07073890
v -0.02050000 0.02669316 0.07116099
v -0.02050000 0.02702912 0.07034991
v -0.02300000 0.02803889 0.06952121
v -0.02300000 0.02846097 0.06939318
v -0.02050000 0.02803889 0.06952121
v -0.02050000 0.02846097 0.06939318
v -0.02300000 0.02802312 0.07072313
v -0.02300000 0.02821102 0.07056892
v -0.02300000 0.02775432 0.07112541
v -0.02300000 0.02786891 0.07091103
v -0.02300000 0.02768375 0.07135803
v -0.02300000 0.02842540 0.07045433
v -0.02300000 0.02865802 0.07038377
v -0.02300000 0.02664993 0.07159994
v -0.02300000 0.02669316 0.07203890
v -0.02300000 0.02682120 0.07246098
v -0.02300000 0.02702912 0.07284998
v -0.02050000 0.02664993 0.07159994
v -0.02050000 0.02669316 0.07203890
v -0.02050000 0.02682120 0.07246098
v -0.02050000 0.02702912 0.07284998
v -0.02300000 0.02730894 0.07319093
v -0.02300000 0.02764989 0.07347075
v -0.02050000 0.02730894 0.07319093
v -0.02050000 0.02764989 0.07347075
v -0.02300000 0.02765993 0.07159994
v -0.02300000 0.02768375 0.07184185
v -0.02300000 0.02775432 0.07207447
v -0.02300000 0.02786891 0.07228885
v -0.02300000 0.02802312 0.07247675
v -0.02300000 0.02821102 0.07263096
v -0.02300000 0.02842540 0.07274555
v -0.02300000 0.02865802 0.07281612
v -0.02300000 0.02803889 0.07367867
v -0.02300000 0.02846097 0.07380671
v -0.02050000 0.02803889 0.07367867
v -0.02050000 0.02846097 0.07380671
v -0.02300000 0.02889993 0.06934994
v -0.02300000 0.02933888 0.06939318
v -0.02300000 0.02976097 0.06952121
v -0.02050000 0.02889993 0.06934994
v -0.02050000 0.02933888 0.06939318
v -0.02050000 0.02976097 0.06952121
v -0.02300000 0.02889993 0.07035994
v -0.02300000 0.02914184 0.07038377
v -0.02300000 0.02937446 0.07045433
v -0.02300000 0.02958884 0.07056892
v -0.02300000 0.02977674 0.07072313
v -0.02300000 0.02993095 0.07091103
v -0.02300000 0.03004554 0.07112541
v -0.02300000 0.03011610 0.07135803
v -0.02300000 0.03014996 0.06972914
v -0.02300000 0.03049092 0.07000895
v -0.02050000 0.03014996 0.06972914
v -0.02050000 0.03049092 0.07000895
v -0.02300000 0.03077073 0.07034991
v -0.02300000 0.03097866 0.07073890
v -0.02300000 0.03110669 0.07116099
v -0.02050000 0.03077073 0.07034991
v -0.02050000 0.03097866 0.07073890
v -0.02050000 0.03110669 0.07116099
v -0.02300000 0.02889993 0.07283994
v -0.02300000 0.02914184 0.07281612
v -0.02300000 0.02937446 0.07274555
v -0.02300000 0.03013993 0.07159994
v -0.02300000 0.03011610 0.07184185
v -0.02300000 0.02993095 0.07228885
v -0.02300000 0.03004554 0.07207447
v -0.02300000 0.02958884 0.07263096
v -0.02300000 0.02977674 0.07247675
v -0.02300000 0.02889993 0.07384994
v -0.02300000 0.02933888 0.07380671
v -0.02300000 0.02976097 0.07367867
v -0.02050000 0.02889993 0.07384994
v -0.02050000 0.02933888 0.07380671
v -0.02050000 0.02976097 0.07367867
v -0.02300000 0.03077073 0.07284998
v -0.02300000 0.03114993 0.07159994
v -0.02300000 0.03110669 0.07203890
v -0.02300000 0.03097866 0.07246098
v -0.02050000 0.03077073 0.07284998
v -0.02050000 0.03114993 0.07159994
v -0.02050000 0.03110669 0.07203890
v -0.02050000 0.03097866 0.07246098
v -0.02300000 0.03014996 0.07347075
v -0.02300000 0.03049092 0.07319093
v -0.02050000 0.03014996 0.07347075
v -0.02050000 0.03049092 0.07319093
f 11 59 5
f 14 53 15
f 6 54 14
f 5 58 6
f 10 63 11
f 12 64 10
f 30 65 12
f 11 5 126
f 5 6 123
f 10 11 125
f 12 10 127
f 30 12 142
f 14 15 128
f 6 14 124
f 15 52 129
f 31 84 30
f 32 85 31
f 33 87 32
f 33 35 86
f 36 90 35
f 36 40 89
f 40 41 80
f 31 30 143
f 32 31 144
f 33 32 145
f 33 146 35
f 36 35 147
f 36 148 40
f 40 149 41
f 41 178 78
f 15 53 52
f 14 54 53
f 6 58 54
f 5 59 58
f 11 63 59
f 10 64 63
f 12 65 64
f 30 84 65
f 52 53 160
f 53 54 161
f 54 58 162
f 59 163 58
f 59 63 164
f 64 165 63
f 65 166 64
f 84 167 65
f 31 85 84
f 32 87 85
f 33 86 87
f 36 89 90
f 41 78 79
f 40 80 89
f 41 79 80
f 35 90 86
f 78 179 79
f 80 185 89
f 79 180 80
f 85 181 84
f 87 182 85
f 86 184 87
f 89 186 90
f 90 183 86
f 5 123 126
f 6 124 123
f 10 125 127
f 11 126 125
f 12 127 142
f 14 128 124
f 15 129 128
f 52 160 129
f 30 142 143
f 31 143 144
f 32 144 145
f 33 145 146
f 35 146 147
f 36 147 148
f 40 148 149
f 41 149 178
f 53 161 160
f 54 162 161
f 58 163 162
f 59 164 163
f 63 165 164
f 64 166 165
f 65 167 166
f 84 181 167
f 78 178 179
f 79 179 180
f 80 180 185
f 85 182 181
f 86 183 184
f 87 184 182
f 89 185 186
f 90 186 183
f 109 110 111
f 109 111 118
f 110 112 111
f 114 130 127
f 113 124 115
f 113 126 123
f 113 114 126
f 130 142 127
f 114 127 125
f 114 125 126
f 113 115 116
f 115 118 116
f 114 134 130
f 113 117 114
f 114 117 134
f 113 116 117
f 109 118 115
f 110 156 119
f 109 168 110
f 109 115 169
f 119 155 120
f 110 119 112
f 119 120 121
f 112 119 121
f 120 154 122
f 122 154 157
f 120 122 121
f 112 121 159
f 111 112 170
f 111 171 118
f 121 122 158
f 115 124 128
f 113 123 124
f 115 128 129
f 115 129 160
f 116 118 175
f 116 176 117
f 117 177 134
f 130 131 143
f 130 143 142
f 131 132 143
f 132 144 143
f 132 145 144
f 132 133 145
f 133 146 145
f 130 135 131
f 131 136 132
f 130 134 135
f 131 135 136
f 132 137 133
f 132 136 137
f 133 137 140
f 133 140 138
f 138 141 139
f 138 140 141
f 133 147 146
f 133 148 147
f 133 149 148
f 133 178 149
f 133 138 193
f 134 198 135
f 135 199 136
f 136 200 137
f 137 197 140
f 138 139 202
f 139 150 201
f 150 151 189
f 139 152 150
f 139 141 152
f 150 152 153
f 150 153 151
f 140 204 141
f 141 203 152
f 152 192 153
f 151 190 187
f 151 153 190
f 120 155 154
f 119 156 155
f 110 168 156
f 109 169 168
f 154 155 157
f 155 158 157
f 122 157 158
f 155 156 158
f 121 158 159
f 112 159 170
f 111 170 171
f 156 168 159
f 156 159 158
f 159 168 170
f 115 160 172
f 115 172 169
f 172 160 161
f 172 161 162
f 172 162 163
f 172 163 164
f 118 171 175
f 116 175 176
f 117 176 177
f 134 177 198
f 168 169 170
f 169 172 171
f 169 171 170
f 172 164 165
f 172 165 173
f 173 165 166
f 173 166 167
f 173 167 174
f 194 167 181
f 174 167 194
f 171 172 175
f 172 173 175
f 173 176 175
f 173 174 176
f 174 194 177
f 174 177 176
f 177 194 198
f 133 193 178
f 193 179 178
f 193 180 179
f 196 186 185
f 193 185 180
f 135 198 199
f 136 199 200
f 137 200 197
f 151 188 189
f 138 202 193
f 139 201 202
f 150 189 201
f 151 187 188
f 153 192 191
f 140 197 204
f 141 204 203
f 188 191 192
f 152 203 192
f 187 191 188
f 187 190 191
f 153 191 190
f 188 192 189
f 189 203 201
f 189 192 203
f 195 184 183
f 195 182 184
f 194 181 182
f 195 183 196
f 196 183 186
f 193 196 185
f 194 182 195
f 193 202 197
f 195 196 199
f 194 195 198
f 196 200 199
f 195 199 198
f 193 200 196
f 193 197 200
f 201 204 202
f 201 203 204
f 197 202 204
f 1 50 2
f 1 3 13
f 1 13 7
f 1 8 9
f 1 7 8
f 1 24 3
f 1 25 24
f 1 2 29
f 2 21 4
f 2 18 21
f 2 20 19
f 2 19 18
f 2 4 26
f 2 26 27
f 2 50 51
f 1 9 16
f 1 16 17
f 1 17 55
f 2 22 20
f 2 23 22
f 2 67 23
f 1 28 25
f 25 28 34
f 28 37 34
f 28 38 37
f 28 39 38
f 1 29 28
f 2 27 29
f 27 44 29
f 29 44 45
f 29 45 46
f 29 46 47
f 28 29 102
f 28 42 39
f 28 43 42
f 28 81 43
f 29 47 48
f 29 48 49
f 29 49 94
f 28 102 101
f 1 74 50
f 2 51 75
f 50 74 51
f 1 55 74
f 55 56 74
f 56 57 74
f 57 60 74
f 2 75 67
f 67 75 68
f 68 75 69
f 69 75 70
f 51 74 75
f 60 61 74
f 61 62 74
f 62 66 74
f 66 76 74
f 74 76 107
f 70 75 71
f 71 75 72
f 72 75 73
f 73 75 77
f 74 107 75
f 75 108 77
f 28 107 81
f 81 107 82
f 82 107 83
f 83 107 91
f 29 94 108
f 94 95 108
f 95 96 108
f 96 98 108
f 28 101 107
f 29 108 102
f 101 102 108
f 76 103 107
f 103 104 107
f 92 107 93
f 91 107 92
f 88 93 107
f 88 107 104
f 77 108 105
f 105 108 106
f 99 100 108
f 98 99 108
f 97 108 100
f 97 106 108
f 75 107 108
f 101 108 107
f 3 4 13
f 3 24 26
f 3 26 4
f 7 18 8
f 9 20 16
f 8 19 9
f 8 18 19
f 9 19 20
f 7 13 21
f 7 21 18
f 4 21 13
f 16 22 17
f 17 23 55
f 16 20 22
f 17 22 23
f 23 67 55
f 24 25 27
f 24 27 26
f 25 44 27
f 25 34 44
f 34 37 45
f 34 45 44
f 37 38 46
f 38 39 47
f 37 46 45
f 38 47 46
f 39 48 47
f 39 42 48
f 42 43 49
f 43 81 94
f 42 49 48
f 43 94 49
f 55 67 56
f 56 68 57
f 57 69 60
f 56 67 68
f 57 68 69
f 60 70 61
f 61 71 62
f 60 69 70
f 61 70 71
f 62 71 72
f 62 72 66
f 66 73 76
f 66 72 73
f 76 77 103
f 73 77 76
f 77 105 103
f 81 82 95
f 82 83 96
f 81 95 94
f 82 96 95
f 83 98 96
f 88 97 93
f 88 106 97
f 93 97 100
f 91 92 99
f 83 91 98
f 92 93 100
f 91 99 98
f 92 100 99
f 103 105 104
f 88 104 106
f 104 105 106

