# https://github.com/mikedh/trimesh
v -0.02050000 -0.02450000 0.09308510
v -0.02050000 -0.02386000 0.09308510
v -0.02050000 -0.02196000 0.09308510
v -0.02050000 -0.02132000 0.09308510
v -0.02050000 -0.01942000 0.09308510
v -0.02050000 -0.01878000 0.09308510
v -0.02050000 -0.02450000 0.09372510
v -0.02050000 -0.02386000 0.09372510
v -0.02050000 -0.02196000 0.09372510
v -0.02050000 -0.02132000 0.09372510
v -0.02050000 -0.01942000 0.09372510
v -0.02050000 -0.01878000 0.09372510
v -0.02050000 -0.01688000 0.09308510
v -0.02050000 -0.01624000 0.09308510
v -0.02050000 -0.01434000 0.09308510
v -0.02050000 -0.01370000 0.09308510
v -0.02050000 -0.01688000 0.09372510
v -0.02050000 -0.01624000 0.09372510
v -0.02050000 -0.01434000 0.09372510
v -0.02050000 -0.01370000 0.09372510
v -0.02050000 -0.01180000 0.09308510
v -0.02050000 -0.01116000 0.09308510
v -0.02050000 -0.00926000 0.09308510
v -0.02050000 -0.00862000 0.09308510
v -0.02050000 -0.00672000 0.09308510
v -0.02050000 -0.01180000 0.09372510
v -0.02050000 -0.01116000 0.09372510
v -0.02050000 -0.00926000 0.09372510
v -0.02050000 -0.00862000 0.09372510
v -0.02050000 -0.00672000 0.09372510
v -0.02050000 -0.00608000 0.09308510
v -0.02050000 -0.00418000 0.09308510
v -0.02050000 -0.00354000 0.09308510
v -0.02050000 -0.00164000 0.09308510
v -0.02050000 -0.00100000 0.09308510
v -0.02050000 -0.00608000 0.09372510
v -0.02050000 -0.00418000 0.09372510
v -0.02050000 -0.00354000 0.09372510
v -0.02050000 -0.00164000 0.09372510
v -0.02050000 -0.00100000 0.09372510
v -0.02050000 -0.02450000 0.09562510
v -0.02050000 -0.02386000 0.09562510
v -0.02050000 -0.02196000 0.09562510
v -0.02050000 -0.02132000 0.09562510
v -0.02050000 -0.01942000 0.09562510
v -0.02050000 -0.01878000 0.09562510
v -0.02050000 -0.02450000 0.09626510
v -0.02050000 -0.02386000 0.09626510
v -0.02050000 -0.02196000 0.09626510
v -0.02050000 -0.02132000 0.09626510
v -0.02050000 -0.01942000 0.09626510
v -0.02050000 -0.01878000 0.09626510
v -0.02050000 -0.01688000 0.09562510
v -0.02050000 -0.01624000 0.09562510
v -0.02050000 -0.01434000 0.09562510
v -0.02050000 -0.01370000 0.09562510
v -0.02050000 -0.01688000 0.09626510
v -0.02050000 -0.01624000 0.09626510
v -0.02050000 -0.01434000 0.09626510
v -0.02050000 -0.01370000 0.09626510
v -0.02050000 -0.01180000 0.09562510
v -0.02050000 -0.01116000 0.09562510
v -0.02050000 -0.00926000 0.09562510
v -0.02050000 -0.00862000 0.09562510
v -0.02050000 -0.00672000 0.09562510
v -0.02050000 -0.01180000 0.09626510
v -0.02050000 -0.01116000 0.09626510
v -0.02050000 -0.00926000 0.09626510
v -0.02050000 -0.00862000 0.09626510
v -0.02050000 -0.00672000 0.09626510
v -0.02050000 -0.00608000 0.09562510
v -0.02050000 -0.00418000 0.09562510
v -0.02050000 -0.00354000 0.09562510
v -0.02050000 -0.00164000 0.09562510
v -0.02050000 -0.00100000 0.09562510
v -0.02050000 -0.00608000 0.09626510
v -0.02050000 -0.00418000 0.09626510
v -0.02050000 -0.00354000 0.09626510
v -0.02050000 -0.00164000 0.09626510
v -0.02050000 -0.00100000 0.09626510
v -0.02050000 0.00090000 0.09308510
v -0.02050000 0.00154000 0.09308510
v -0.02050000 0.00344000 0.09308510
v -0.02050000 0.00408000 0.09308510
v -0.02050000 0.00598000 0.09308510
v -0.02050000 0.00090000 0.09372510
v -0.02050000 0.00154000 0.09372510
v -0.02050000 0.00344000 0.09372510
v -0.02050000 0.00408000 0.09372510
v -0.02050000 0.00598000 0.09372510
v -0.02050000 0.00662000 0.09308510
v -0.02050000 0.00852000 0.09308510
v -0.02050000 0.00916000 0.09308510
v -0.02050000 0.01106000 0.09308510
v -0.02050000 0.01170000 0.09308510
v -0.02050000 0.00662000 0.09372510
v -0.02050000 0.00852000 0.09372510
v -0.02050000 0.00916000 0.09372510
v -0.02050000 0.01106000 0.09372510
v -0.02050000 0.01170000 0.09372510
v -0.02050000 0.01360000 0.09308510
v -0.02050000 0.01424000 0.09308510
v -0.02050000 0.01614000 0.09308510
v -0.02050000 0.01678000 0.09308510
v -0.02050000 0.01360000 0.09372510
v -0.02050000 0.01424000 0.09372510
v -0.02050000 0.01614000 0.09372510
v -0.02050000 0.01678000 0.09372510
v -0.02050000 0.01868000 0.09308510
v -0.02050000 0.01932000 0.09308510
v -0.02050000 0.02122000 0.09308510
v -0.02050000 0.02186000 0.09308510
v -0.02050000 0.02376000 0.09308510
v -0.02050000 0.02440000 0.09308510
v -0.02050000 0.01868000 0.09372510
v -0.02050000 0.01932000 0.09372510
v -0.02050000 0.02122000 0.09372510
v -0.02050000 0.02186000 0.09372510
v -0.02050000 0.02376000 0.09372510
v -0.02050000 0.02440000 0.09372510
v -0.02050000 0.00090000 0.09562510
v -0.02050000 0.00154000 0.09562510
v -0.02050000 0.00344000 0.09562510
v -0.02050000 0.00408000 0.09562510
v -0.02050000 0.00598000 0.09562510
v -0.02050000 0.00090000 0.09626510
v -0.02050000 0.00154000 0.09626510
v -0.02050000 0.00344000 0.09626510
v -0.02050000 0.00408000 0.09626510
v -0.02050000 0.00598000 0.09626510
v -0.02050000 0.00662000 0.09562510
v -0.02050000 0.00852000 0.09562510
v -0.02050000 0.00916000 0.09562510
v -0.02050000 0.01106000 0.09562510
v -0.02050000 0.01170000 0.09562510
v -0.02050000 0.00662000 0.09626510
v -0.02050000 0.00852000 0.09626510
v -0.02050000 0.00916000 0.09626510
v -0.02050000 0.01106000 0.09626510
v -0.02050000 0.01170000 0.09626510
v -0.02050000 0.01360000 0.09562510
v -0.02050000 0.01424000 0.09562510
v -0.02050000 0.01614000 0.09562510
v -0.02050000 0.01678000 0.09562510
v -0.02050000 0.01360000 0.09626510
v -0.02050000 0.01424000 0.09626510
v -0.02050000 0.01614000 0.09626510
v -0.02050000 0.01678000 0.09626510
v -0.02050000 0.01868000 0.09562510
v -0.02050000 0.01932000 0.09562510
v -0.02050000 0.02122000 0.09562510
v -0.02050000 0.02186000 0.09562510
v -0.02050000 0.02376000 0.09562510
v -0.02050000 0.02440000 0.09562510
v -0.02050000 0.01868000 0.09626510
v -0.02050000 0.01932000 0.09626510
v -0.02050000 0.02122000 0.09626510
v -0.02050000 0.02186000 0.09626510
v -0.02050000 0.02376000 0.09626510
v -0.02050000 0.02440000 0.09626510
v -0.01450000 -0.02450000 0.09308510
v -0.01450000 -0.02386000 0.09308510
v -0.01450000 -0.02196000 0.09308510
v -0.01450000 -0.02132000 0.09308510
v -0.01450000 -0.01942000 0.09308510
v -0.01450000 -0.01878000 0.09308510
v -0.01450000 -0.02450000 0.09372510
v -0.01450000 -0.02386000 0.09372510
v -0.01450000 -0.02196000 0.09372510
v -0.01450000 -0.02132000 0.09372510
v -0.01450000 -0.01942000 0.09372510
v -0.01450000 -0.01878000 0.09372510
v -0.01450000 -0.01688000 0.09308510
v -0.01450000 -0.01624000 0.09308510
v -0.01450000 -0.01434000 0.09308510
v -0.01450000 -0.01370000 0.09308510
v -0.01450000 -0.01688000 0.09372510
v -0.01450000 -0.01624000 0.09372510
v -0.01450000 -0.01434000 0.09372510
v -0.01450000 -0.01370000 0.09372510
v -0.01450000 -0.01180000 0.09308510
v -0.01450000 -0.01116000 0.09308510
v -0.01450000 -0.00926000 0.09308510
v -0.01450000 -0.00862000 0.09308510
v -0.01450000 -0.00672000 0.09308510
v -0.01450000 -0.01180000 0.09372510
v -0.01450000 -0.01116000 0.09372510
v -0.01450000 -0.00926000 0.09372510
v -0.01450000 -0.00862000 0.09372510
v -0.01450000 -0.00672000 0.09372510
v -0.01450000 -0.00608000 0.09308510
v -0.01450000 -0.00418000 0.09308510
v -0.01450000 -0.00354000 0.09308510
v -0.01450000 -0.00164000 0.09308510
v -0.01450000 -0.00100000 0.09308510
v -0.01450000 -0.00608000 0.09372510
v -0.01450000 -0.00418000 0.09372510
v -0.01450000 -0.00354000 0.09372510
v -0.01450000 -0.00164000 0.09372510
v -0.01450000 -0.00100000 0.09372510
v -0.01450000 -0.02450000 0.09562510
v -0.01450000 -0.02386000 0.09562510
v -0.01450000 -0.02196000 0.09562510
v -0.01450000 -0.02132000 0.09562510
v -0.01450000 -0.01942000 0.09562510
v -0.01450000 -0.01878000 0.09562510
v -0.01450000 -0.02450000 0.09626510
v -0.01450000 -0.02386000 0.09626510
v -0.01450000 -0.02196000 0.09626510
v -0.01450000 -0.02132000 0.09626510
v -0.01450000 -0.01942000 0.09626510
v -0.01450000 -0.01878000 0.09626510
v -0.01450000 -0.01688000 0.09562510
v -0.01450000 -0.01624000 0.09562510
v -0.01450000 -0.01434000 0.09562510
v -0.01450000 -0.01370000 0.09562510
v -0.01450000 -0.01688000 0.09626510
v -0.01450000 -0.01624000 0.09626510
v -0.01450000 -0.01434000 0.09626510
v -0.01450000 -0.01370000 0.09626510
v -0.01450000 -0.01180000 0.09562510
v -0.01450000 -0.01116000 0.09562510
v -0.01450000 -0.00926000 0.09562510
v -0.01450000 -0.00862000 0.09562510
v -0.01450000 -0.00672000 0.09562510
v -0.01450000 -0.01180000 0.09626510
v -0.01450000 -0.01116000 0.09626510
v -0.01450000 -0.00926000 0.09626510
v -0.01450000 -0.00862000 0.09626510
v -0.01450000 -0.00672000 0.09626510
v -0.01450000 -0.00608000 0.09562510
v -0.01450000 -0.00418000 0.09562510
v -0.01450000 -0.00354000 0.09562510
v -0.01450000 -0.00164000 0.09562510
v -0.01450000 -0.00100000 0.09562510
v -0.01450000 -0.00608000 0.09626510
v -0.01450000 -0.00418000 0.09626510
v -0.01450000 -0.00354000 0.09626510
v -0.01450000 -0.00164000 0.09626510
v -0.01450000 -0.00100000 0.09626510
v -0.01450000 0.00090000 0.09308510
v -0.01450000 0.00154000 0.09308510
v -0.01450000 0.00344000 0.09308510
v -0.01450000 0.00408000 0.09308510
v -0.01450000 0.00598000 0.09308510
v -0.01450000 0.00090000 0.09372510
v -0.01450000 0.00154000 0.09372510
v -0.01450000 0.00344000 0.09372510
v -0.01450000 0.00408000 0.09372510
v -0.01450000 0.00598000 0.09372510
v -0.01450000 0.00662000 0.09308510
v -0.01450000 0.00852000 0.09308510
v -0.01450000 0.00916000 0.09308510
v -0.01450000 0.01106000 0.09308510
v -0.01450000 0.01170000 0.09308510
v -0.01450000 0.00662000 0.09372510
v -0.01450000 0.00852000 0.09372510
v -0.01450000 0.00916000 0.09372510
v -0.01450000 0.01106000 0.09372510
v -0.01450000 0.01170000 0.09372510
v -0.01450000 0.01360000 0.09308510
v -0.01450000 0.01424000 0.09308510
v -0.01450000 0.01614000 0.09308510
v -0.01450000 0.01678000 0.09308510
v -0.01450000 0.01360000 0.09372510
v -0.01450000 0.01424000 0.09372510
v -0.01450000 0.01614000 0.09372510
v -0.01450000 0.01678000 0.09372510
v -0.01450000 0.01868000 0.09308510
v -0.01450000 0.01932000 0.09308510
v -0.01450000 0.02122000 0.09308510
v -0.01450000 0.02186000 0.09308510
v -0.01450000 0.02376000 0.09308510
v -0.01450000 0.02440000 0.09308510
v -0.01450000 0.01868000 0.09372510
v -0.01450000 0.01932000 0.09372510
v -0.01450000 0.02122000 0.09372510
v -0.01450000 0.02186000 0.09372510
v -0.01450000 0.02376000 0.09372510
v -0.01450000 0.02440000 0.09372510
v -0.01450000 0.00090000 0.09562510
v -0.01450000 0.00154000 0.09562510
v -0.01450000 0.00344000 0.09562510
v -0.01450000 0.00408000 0.09562510
v -0.01450000 0.00598000 0.09562510
v -0.01450000 0.00090000 0.09626510
v -0.01450000 0.00154000 0.09626510
v -0.01450000 0.00344000 0.09626510
v -0.01450000 0.00408000 0.09626510
v -0.01450000 0.00598000 0.09626510
v -0.01450000 0.00662000 0.09562510
v -0.01450000 0.00852000 0.09562510
v -0.01450000 0.00916000 0.09562510
v -0.01450000 0.01106000 0.09562510
v -0.01450000 0.01170000 0.09562510
v -0.01450000 0.00662000 0.09626510
v -0.01450000 0.00852000 0.09626510
v -0.01450000 0.00916000 0.09626510
v -0.01450000 0.01106000 0.09626510
v -0.01450000 0.01170000 0.09626510
v -0.01450000 0.01360000 0.09562510
v -0.01450000 0.01424000 0.09562510
v -0.01450000 0.01614000 0.09562510
v -0.01450000 0.01678000 0.09562510
v -0.01450000 0.01360000 0.09626510
v -0.01450000 0.01424000 0.09626510
v -0.01450000 0.01614000 0.09626510
v -0.01450000 0.01678000 0.09626510
v -0.01450000 0.01868000 0.09562510
v -0.01450000 0.01932000 0.09562510
v -0.01450000 0.02122000 0.09562510
v -0.01450000 0.02186000 0.09562510
v -0.01450000 0.02376000 0.09562510
v -0.01450000 0.02440000 0.09562510
v -0.01450000 0.01868000 0.09626510
v -0.01450000 0.01932000 0.09626510
v -0.01450000 0.02122000 0.09626510
v -0.01450000 0.02186000 0.09626510
v -0.01450000 0.02376000 0.09626510
v -0.01450000 0.02440000 0.09626510
f 8 2 1
f 7 8 1
f 2 161 1
f 7 1 161
f 8 168 2
f 8 7 167
f 162 161 2
f 168 162 2
f 167 7 161
f 168 8 167
f 167 161 162
f 168 167 162
f 48 42 41
f 47 48 41
f 42 201 41
f 47 41 201
f 48 208 42
f 48 47 207
f 202 201 42
f 208 202 42
f 207 47 201
f 208 48 207
f 207 201 202
f 208 207 202
f 10 4 3
f 9 10 3
f 4 163 3
f 9 3 163
f 10 9 169
f 10 170 4
f 164 163 4
f 170 164 4
f 169 9 163
f 170 10 169
f 169 163 164
f 170 169 164
f 50 44 43
f 49 50 43
f 44 203 43
f 49 43 203
f 50 49 209
f 50 210 44
f 204 203 44
f 210 204 44
f 209 49 203
f 210 50 209
f 209 203 204
f 210 209 204
f 12 6 5
f 11 12 5
f 6 165 5
f 11 5 165
f 12 172 6
f 12 11 171
f 166 165 6
f 172 166 6
f 171 11 165
f 172 12 171
f 171 165 166
f 172 171 166
f 52 46 45
f 51 52 45
f 46 205 45
f 51 45 205
f 52 212 46
f 52 51 211
f 206 205 46
f 212 206 46
f 211 51 205
f 212 52 211
f 211 205 206
f 212 211 206
f 18 14 13
f 17 18 13
f 14 173 13
f 17 13 173
f 18 178 14
f 18 17 177
f 174 173 14
f 178 174 14
f 177 17 173
f 178 18 177
f 177 173 174
f 178 177 174
f 58 54 53
f 57 58 53
f 54 213 53
f 57 53 213
f 58 218 54
f 58 57 217
f 214 213 54
f 218 214 54
f 217 57 213
f 218 58 217
f 217 213 214
f 218 217 214
f 20 16 15
f 19 20 15
f 16 175 15
f 19 15 175
f 20 180 16
f 20 19 179
f 176 175 16
f 180 176 16
f 179 19 175
f 180 20 179
f 179 175 176
f 180 179 176
f 60 56 55
f 59 60 55
f 56 215 55
f 59 55 215
f 60 220 56
f 60 59 219
f 216 215 56
f 220 216 56
f 219 59 215
f 220 60 219
f 219 215 216
f 220 219 216
f 27 22 21
f 26 27 21
f 22 181 21
f 26 21 181
f 27 187 22
f 27 26 186
f 182 181 22
f 187 182 22
f 186 26 181
f 187 27 186
f 186 181 182
f 187 186 182
f 67 62 61
f 66 67 61
f 62 221 61
f 66 61 221
f 67 227 62
f 67 66 226
f 222 221 62
f 227 222 62
f 226 66 221
f 227 67 226
f 226 221 222
f 227 226 222
f 29 24 23
f 28 29 23
f 28 23 183
f 24 183 23
f 29 189 24
f 29 28 188
f 184 183 24
f 189 184 24
f 188 28 183
f 189 29 188
f 188 183 184
f 189 188 184
f 69 64 63
f 68 69 63
f 68 63 223
f 64 223 63
f 69 229 64
f 69 68 228
f 224 223 64
f 229 224 64
f 228 68 223
f 229 69 228
f 228 223 224
f 229 228 224
f 36 31 25
f 30 36 25
f 31 185 25
f 30 25 185
f 36 30 190
f 36 196 31
f 191 185 31
f 190 30 185
f 196 36 190
f 196 191 31
f 190 185 191
f 196 190 191
f 76 71 65
f 70 76 65
f 71 225 65
f 70 65 225
f 76 70 230
f 76 236 71
f 231 225 71
f 230 70 225
f 236 76 230
f 236 231 71
f 230 225 231
f 236 230 231
f 38 33 32
f 37 38 32
f 33 192 32
f 37 32 192
f 38 198 33
f 38 37 197
f 193 192 33
f 198 193 33
f 197 37 192
f 198 38 197
f 197 192 193
f 198 197 193
f 78 73 72
f 77 78 72
f 73 232 72
f 77 72 232
f 78 238 73
f 78 77 237
f 233 232 73
f 238 233 73
f 237 77 232
f 238 78 237
f 237 232 233
f 238 237 233
f 40 35 34
f 39 40 34
f 35 194 34
f 39 34 194
f 40 200 35
f 40 39 199
f 195 194 35
f 200 195 35
f 199 39 194
f 200 40 199
f 199 194 195
f 200 199 195
f 80 75 74
f 79 80 74
f 75 234 74
f 79 74 234
f 80 240 75
f 80 79 239
f 235 234 75
f 240 235 75
f 239 79 234
f 240 80 239
f 239 234 235
f 240 239 235
f 87 82 81
f 86 87 81
f 82 241 81
f 86 81 241
f 87 247 82
f 87 86 246
f 242 241 82
f 247 242 82
f 246 86 241
f 247 87 246
f 246 241 242
f 247 246 242
f 127 122 121
f 126 127 121
f 122 281 121
f 126 121 281
f 127 287 122
f 127 126 286
f 282 281 122
f 287 282 122
f 286 126 281
f 287 127 286
f 286 281 282
f 287 286 282
f 89 84 83
f 88 89 83
f 84 243 83
f 88 83 243
f 89 249 84
f 89 88 248
f 244 243 84
f 249 244 84
f 248 88 243
f 249 89 248
f 248 243 244
f 249 248 244
f 129 124 123
f 128 129 123
f 124 283 123
f 128 123 283
f 129 289 124
f 129 128 288
f 284 283 124
f 289 284 124
f 288 128 283
f 289 129 288
f 288 283 284
f 289 288 284
f 96 91 85
f 90 96 85
f 90 85 245
f 91 245 85
f 96 256 91
f 96 90 250
f 250 90 245
f 251 245 91
f 256 251 91
f 256 96 250
f 250 245 251
f 256 250 251
f 136 131 125
f 130 136 125
f 130 125 285
f 131 285 125
f 136 296 131
f 136 130 290
f 290 130 285
f 291 285 131
f 296 291 131
f 296 136 290
f 290 285 291
f 296 290 291
f 98 93 92
f 97 98 92
f 93 252 92
f 97 92 252
f 98 97 257
f 98 258 93
f 253 252 93
f 258 253 93
f 257 97 252
f 258 98 257
f 257 252 253
f 258 257 253
f 138 133 132
f 137 138 132
f 133 292 132
f 137 132 292
f 138 137 297
f 138 298 133
f 293 292 133
f 298 293 133
f 297 137 292
f 298 138 297
f 297 292 293
f 298 297 293
f 100 95 94
f 99 100 94
f 95 254 94
f 99 94 254
f 100 260 95
f 100 99 259
f 255 254 95
f 260 255 95
f 259 99 254
f 260 100 259
f 259 254 255
f 260 259 255
f 140 135 134
f 139 140 134
f 135 294 134
f 139 134 294
f 140 300 135
f 140 139 299
f 295 294 135
f 300 295 135
f 299 139 294
f 300 140 299
f 299 294 295
f 300 299 295
f 106 102 101
f 105 106 101
f 102 261 101
f 105 101 261
f 106 266 102
f 106 105 265
f 262 261 102
f 266 262 102
f 265 105 261
f 266 106 265
f 265 261 262
f 266 265 262
f 146 142 141
f 145 146 141
f 142 301 141
f 145 141 301
f 146 306 142
f 146 145 305
f 302 301 142
f 306 302 142
f 305 145 301
f 306 146 305
f 305 301 302
f 306 305 302
f 108 104 103
f 107 108 103
f 104 263 103
f 107 103 263
f 108 268 104
f 108 107 267
f 264 263 104
f 268 264 104
f 267 107 263
f 268 108 267
f 267 263 264
f 268 267 264
f 148 144 143
f 147 148 143
f 144 303 143
f 147 143 303
f 148 308 144
f 148 147 307
f 304 303 144
f 308 304 144
f 307 147 303
f 308 148 307
f 307 303 304
f 308 307 304
f 116 110 109
f 115 116 109
f 110 269 109
f 115 109 269
f 116 276 110
f 116 115 275
f 270 269 110
f 276 270 110
f 275 115 269
f 276 116 275
f 275 269 270
f 276 275 270
f 156 150 149
f 155 156 149
f 150 309 149
f 155 149 309
f 156 316 150
f 156 155 315
f 310 309 150
f 316 310 150
f 315 155 309
f 316 156 315
f 315 309 310
f 316 315 310
f 118 112 111
f 117 118 111
f 117 111 271
f 112 271 111
f 118 278 112
f 118 117 277
f 272 271 112
f 278 272 112
f 277 117 271
f 278 118 277
f 277 271 272
f 278 277 272
f 158 152 151
f 157 158 151
f 157 151 311
f 152 311 151
f 158 318 152
f 158 157 317
f 312 311 152
f 318 312 152
f 317 157 311
f 318 158 317
f 317 311 312
f 318 317 312
f 120 114 113
f 119 120 113
f 114 273 113
f 119 113 273
f 120 280 114
f 120 119 279
f 274 273 114
f 280 274 114
f 279 119 273
f 280 120 279
f 279 273 274
f 280 279 274
f 160 154 153
f 159 160 153
f 154 313 153
f 159 153 313
f 160 320 154
f 160 159 319
f 314 313 154
f 320 314 154
f 319 159 313
f 320 160 319
f 319 313 314
f 320 319 314

