# https://github.com/mikedh/trimesh
v 0.04134348 0.06118271 0.07413804
v 0.02590402 0.06146856 0.06769699
v 0.04109598 0.05153144 0.07430301
v 0.02565652 0.05181729 0.06786196
v 0.04065532 0.05265303 0.05367767
v 0.04082787 0.05938142 0.05356267
v 0.02617213 0.05361858 0.08843733
v 0.02634468 0.06034697 0.08832233
v 0.01775163 0.05711320 0.08324721
v 0.03111047 0.05622261 0.05118600
v 0.03588953 0.05677739 0.09081400
v 0.04924837 0.05588680 0.05875279
v 0.03364098 0.06199739 0.07090604
v 0.03335902 0.05100261 0.07109396
v 0.04683578 0.05129304 0.05800062
v 0.03319612 0.05154556 0.05231042
v 0.04707368 0.06056978 0.05784206
v 0.03343402 0.06082231 0.05215186
v 0.04100000 0.05600000 0.05300000
v 0.03356598 0.05217769 0.08984814
v 0.01992632 0.05243022 0.08415794
v 0.03380388 0.06145444 0.08968958
v 0.02016422 0.06170696 0.08399938
v 0.02600000 0.05700000 0.08900000
v 0.01838278 0.06033346 0.08236391
v 0.01821616 0.05383654 0.08247496
v 0.01865628 0.05472947 0.08507184
v 0.01877883 0.05950836 0.08499016
v 0.03099170 0.05949286 0.05210250
v 0.03082509 0.05299595 0.05221355
v 0.03299540 0.05377353 0.05065795
v 0.03311796 0.05855242 0.05057626
v 0.02381088 0.05667939 0.06695788
v 0.03617491 0.06000405 0.08978645
v 0.03600830 0.05350714 0.08989750
v 0.03388204 0.05444758 0.09142374
v 0.03400460 0.05922647 0.09134205
v 0.04878384 0.05916346 0.05952504
v 0.04861722 0.05266654 0.05963609
v 0.04822117 0.05349164 0.05700984
v 0.04834372 0.05827053 0.05692816
v 0.04318912 0.05632061 0.07504212
v 0.04030796 0.06170268 0.07369213
v 0.02696521 0.06194971 0.06812579
v 0.04003479 0.05105029 0.07387421
v 0.02669204 0.05129732 0.06830787
v 0.04693268 0.05106981 0.05921811
v 0.04658244 0.05179946 0.05689570
v 0.04580053 0.05069278 0.05874235
v 0.03225597 0.05134154 0.05309527
v 0.03417520 0.05202917 0.05171964
v 0.03337802 0.05092277 0.05355992
v 0.04005567 0.05122907 0.05505187
v 0.04718296 0.06082920 0.05905130
v 0.04679376 0.06003957 0.05675486
v 0.04607120 0.06124728 0.05856195
v 0.03250625 0.06110092 0.05292846
v 0.03438652 0.06026928 0.05157879
v 0.03364869 0.06147727 0.05337952
v 0.04030317 0.06088034 0.05488691
v 0.04087699 0.05377575 0.05319614
v 0.04099130 0.05823303 0.05311996
v 0.03449375 0.05189908 0.08907154
v 0.03261348 0.05273072 0.09042121
v 0.03335131 0.05152273 0.08862048
v 0.01981704 0.05217080 0.08294870
v 0.02020624 0.05296043 0.08524514
v 0.02092880 0.05175272 0.08343805
v 0.02669683 0.05211966 0.08711309
v 0.03474403 0.06165846 0.08890473
v 0.03282480 0.06097083 0.09028036
v 0.03362198 0.06207723 0.08844008
v 0.02006732 0.06193019 0.08278189
v 0.02041756 0.06120054 0.08510430
v 0.02119947 0.06230722 0.08325765
v 0.02694433 0.06177093 0.08694813
v 0.02600870 0.05476697 0.08888004
v 0.02612301 0.05922425 0.08880386
v 0.01914135 0.06121626 0.08193180
v 0.01791624 0.05927201 0.08280795
v 0.01912191 0.06117632 0.08321566
v 0.01892813 0.05290179 0.08207391
v 0.01780502 0.05493504 0.08288208
v 0.01891188 0.05298649 0.08335564
v 0.01954609 0.05415555 0.08572017
v 0.01803378 0.05539918 0.08423190
v 0.01914326 0.05345593 0.08472090
v 0.01941212 0.05538682 0.08606118
v 0.01824418 0.05419528 0.08383611
v 0.01969745 0.06005774 0.08561929
v 0.01812210 0.05884314 0.08417303
v 0.01933013 0.06074254 0.08459636
v 0.01950087 0.05884732 0.08600204
v 0.01839356 0.06002045 0.08373654
v 0.01853867 0.05712570 0.08515931
v 0.03123677 0.06040990 0.05290280
v 0.03095727 0.05840261 0.05150949
v 0.03213330 0.06030890 0.05198831
v 0.02451732 0.06003210 0.06715910
v 0.03102354 0.05209543 0.05304492
v 0.03084605 0.05406564 0.05158362
v 0.03192328 0.05211907 0.05212829
v 0.02434477 0.05330371 0.06727411
v 0.03407087 0.05318723 0.05086071
v 0.03197414 0.05446982 0.05077504
v 0.03306428 0.05252787 0.05131047
v 0.03424276 0.05439811 0.05046766
v 0.03181775 0.05329038 0.05125954
v 0.03422223 0.05908942 0.05075982
v 0.03206246 0.05791378 0.05071618
v 0.03325114 0.05981447 0.05118592
v 0.03433150 0.05785861 0.05040851
v 0.03196714 0.05911554 0.05115997
v 0.03302187 0.05616015 0.05039965
v 0.01772632 0.05709263 0.08200607
v 0.03021153 0.05626029 0.05204157
v 0.01801918 0.05926087 0.08152751
v 0.01790727 0.05489716 0.08160209
v 0.03012095 0.05845409 0.05248325
v 0.03000905 0.05409037 0.05255783
v 0.03597646 0.06090457 0.08895508
v 0.03615395 0.05893436 0.09041638
v 0.03507672 0.06088093 0.08987171
v 0.03576323 0.05259010 0.08909720
v 0.03604273 0.05459739 0.09049051
v 0.03486670 0.05269110 0.09001169
v 0.03277777 0.05391058 0.09124018
v 0.03493754 0.05508622 0.09128382
v 0.03374886 0.05318553 0.09081408
v 0.03266850 0.05514139 0.09159149
v 0.03503286 0.05388446 0.09084003
v 0.03292913 0.05981277 0.09113929
v 0.03502586 0.05853018 0.09122496
v 0.03393572 0.06047213 0.09068953
v 0.03275724 0.05860189 0.09153234
v 0.03518225 0.05970962 0.09074046
v 0.03397813 0.05683985 0.09160035
v 0.04807187 0.06009821 0.05992609
v 0.04919498 0.05806496 0.05911792
v 0.04808812 0.06001351 0.05864436
v 0.04265523 0.05969629 0.07472589
v 0.04785865 0.05178374 0.06006820
v 0.04908376 0.05372799 0.05919205
v 0.04787809 0.05182368 0.05878434
v 0.04248268 0.05296790 0.07484090
v 0.04730255 0.05294226 0.05638071
v 0.04887790 0.05415686 0.05782697
v 0.04766987 0.05225746 0.05740364
v 0.04749913 0.05415268 0.05599796
v 0.04860644 0.05297955 0.05826346
v 0.04745391 0.05884445 0.05627983
v 0.04896622 0.05760082 0.05776810
v 0.04785674 0.05954407 0.05727910
v 0.04758788 0.05761318 0.05593882
v 0.04875582 0.05880472 0.05816389
v 0.04846133 0.05587430 0.05684069
v 0.03678847 0.05673971 0.08995843
v 0.04927368 0.05590737 0.05999393
v 0.03699095 0.05890963 0.08944217
v 0.03687905 0.05454591 0.08951675
v 0.04909273 0.05810284 0.06039791
v 0.04898082 0.05373913 0.06047249
f 63 65 45
f 45 65 14
f 63 45 3
f 3 45 47
f 4 46 66
f 50 46 4
f 50 4 100
f 14 46 52
f 52 46 50
f 66 46 68
f 14 65 68
f 68 46 14
f 142 162 145
f 142 3 47
f 33 118 115
f 13 72 43
f 43 56 13
f 82 118 103
f 82 4 66
f 103 100 82
f 82 100 4
f 61 146 5
f 5 104 61
f 61 104 107
f 61 107 19
f 130 77 127
f 24 77 130
f 126 35 131
f 159 157 42
f 13 56 59
f 59 44 13
f 9 115 83
f 83 115 118
f 84 82 66
f 101 108 30
f 52 53 49
f 47 45 49
f 49 45 14
f 14 52 49
f 51 104 5
f 149 61 19
f 146 61 149
f 36 130 127
f 137 130 36
f 124 142 145
f 3 142 124
f 63 3 124
f 124 126 63
f 35 126 124
f 145 162 160
f 160 124 145
f 35 124 160
f 42 157 160
f 160 162 42
f 63 126 20
f 20 65 63
f 127 64 129
f 129 126 131
f 129 36 127
f 131 36 129
f 64 20 129
f 129 20 126
f 66 68 21
f 21 84 66
f 127 77 7
f 7 64 127
f 7 77 85
f 7 67 64
f 85 67 7
f 64 67 69
f 69 68 65
f 65 20 69
f 69 20 64
f 69 21 68
f 67 21 69
f 70 43 72
f 71 76 74
f 121 159 141
f 121 141 138
f 161 159 42
f 161 141 159
f 38 138 161
f 161 138 141
f 162 142 39
f 147 152 12
f 156 152 147
f 144 142 47
f 144 39 142
f 150 39 144
f 117 79 99
f 99 119 117
f 33 115 117
f 117 119 33
f 75 76 72
f 75 72 13
f 13 44 75
f 86 83 89
f 9 83 86
f 89 83 26
f 26 84 89
f 82 84 26
f 118 82 26
f 26 83 118
f 87 67 85
f 89 84 87
f 87 21 67
f 84 21 87
f 19 107 112
f 120 118 33
f 103 118 120
f 101 30 120
f 120 100 103
f 120 30 100
f 50 100 102
f 100 30 102
f 102 30 108
f 5 146 48
f 48 51 5
f 53 51 48
f 16 53 52
f 16 51 53
f 16 52 50
f 50 102 16
f 137 36 128
f 128 36 131
f 131 35 125
f 35 160 125
f 125 128 131
f 11 128 125
f 125 157 11
f 125 160 157
f 22 71 134
f 22 70 72
f 72 76 22
f 76 71 22
f 24 130 135
f 135 130 137
f 34 159 121
f 133 128 11
f 137 128 133
f 121 70 123
f 134 136 123
f 123 22 134
f 70 22 123
f 123 34 121
f 136 34 123
f 1 70 121
f 43 70 1
f 121 138 1
f 42 162 158
f 158 161 42
f 162 39 143
f 143 39 150
f 150 147 143
f 143 147 12
f 12 158 143
f 143 158 162
f 40 149 156
f 156 147 40
f 146 149 40
f 40 147 150
f 29 119 96
f 96 119 99
f 99 79 96
f 79 2 96
f 44 59 57
f 57 2 44
f 57 96 2
f 59 18 57
f 74 76 23
f 76 75 23
f 80 115 9
f 80 117 115
f 111 58 109
f 18 58 111
f 93 95 88
f 85 77 88
f 88 77 24
f 24 93 88
f 27 86 89
f 89 87 27
f 27 87 85
f 85 88 27
f 95 86 27
f 27 88 95
f 109 112 32
f 32 111 109
f 154 149 19
f 156 149 154
f 110 10 97
f 97 119 29
f 105 10 110
f 105 108 101
f 101 10 105
f 33 119 116
f 116 120 33
f 119 97 116
f 116 97 10
f 101 120 116
f 116 10 101
f 104 51 106
f 106 102 108
f 51 16 106
f 106 16 102
f 15 49 53
f 53 48 15
f 47 49 15
f 15 144 47
f 150 144 148
f 148 48 146
f 146 40 148
f 148 40 150
f 144 15 148
f 148 15 48
f 8 71 74
f 74 90 8
f 159 34 122
f 122 34 136
f 136 133 122
f 122 133 11
f 11 157 122
f 157 159 122
f 37 136 134
f 37 133 136
f 37 135 137
f 137 133 37
f 41 155 152
f 41 154 151
f 41 152 156
f 156 154 41
f 152 155 139
f 12 152 139
f 38 161 139
f 139 155 38
f 139 158 12
f 161 158 139
f 140 138 38
f 38 155 140
f 73 23 75
f 73 2 79
f 44 2 73
f 73 75 44
f 79 117 25
f 117 80 25
f 98 57 18
f 18 111 98
f 96 57 98
f 29 96 98
f 62 112 109
f 151 154 62
f 19 112 62
f 62 154 19
f 114 112 107
f 114 105 110
f 110 32 114
f 114 32 112
f 108 105 31
f 31 106 108
f 104 106 31
f 107 104 31
f 31 114 107
f 105 114 31
f 71 8 132
f 134 71 132
f 132 37 134
f 135 37 132
f 78 93 24
f 24 135 78
f 78 90 93
f 78 8 90
f 135 132 78
f 78 132 8
f 138 140 54
f 54 1 138
f 56 43 54
f 43 1 54
f 93 90 28
f 28 95 93
f 23 73 81
f 81 73 79
f 79 25 81
f 60 59 56
f 60 55 58
f 60 18 59
f 60 58 18
f 151 55 153
f 153 140 155
f 153 41 151
f 155 41 153
f 110 97 113
f 113 98 111
f 113 32 110
f 111 32 113
f 113 97 29
f 29 98 113
f 6 55 151
f 58 55 6
f 109 58 6
f 151 62 6
f 6 62 109
f 95 28 91
f 9 86 91
f 91 86 95
f 91 80 9
f 94 25 80
f 94 81 25
f 80 91 94
f 94 91 28
f 17 54 140
f 17 153 55
f 140 153 17
f 56 54 17
f 17 60 56
f 55 60 17
f 92 28 90
f 92 94 28
f 92 90 74
f 81 94 92
f 74 23 92
f 23 81 92

