# https://github.com/mikedh/trimesh
v 0.03448679 0.06111039 0.06938178
v 0.01776071 0.06153912 0.06937079
v 0.03423929 0.05146088 0.06962921
v 0.01751321 0.05188961 0.06961822
v 0.02591373 0.05265365 0.05075810
v 0.02608627 0.05938081 0.05058560
v 0.02591373 0.05361919 0.08841440
v 0.02608627 0.06034635 0.08824190
v 0.01617530 0.05719713 0.08686003
v 0.01617530 0.05630654 0.05212705
v 0.03582470 0.05669346 0.08687295
v 0.03582470 0.05580287 0.05213997
v 0.02614098 0.06199639 0.06935907
v 0.02585902 0.05100361 0.06964093
v 0.03326920 0.05123077 0.05237303
v 0.01849290 0.05160952 0.05236332
v 0.03350710 0.06050582 0.05213521
v 0.01873080 0.06088458 0.05212549
v 0.02600000 0.05600000 0.05000000
v 0.03326920 0.05211542 0.08687451
v 0.01849290 0.05249418 0.08686479
v 0.03350710 0.06139048 0.08663668
v 0.01873080 0.06176923 0.08662697
v 0.02600000 0.05700000 0.08900000
v 0.01644590 0.06041519 0.08580199
v 0.01627929 0.05391946 0.08596854
v 0.01769143 0.05480036 0.08819669
v 0.01781399 0.05957838 0.08807418
v 0.01644590 0.05957460 0.05301879
v 0.01627929 0.05307887 0.05318535
v 0.01769143 0.05384442 0.05091498
v 0.01781399 0.05862243 0.05079246
v 0.01550345 0.05676905 0.06949310
v 0.03572071 0.05992113 0.08581465
v 0.03555410 0.05342540 0.08598121
v 0.03418601 0.05437757 0.08820754
v 0.03430857 0.05915558 0.08808502
v 0.03572071 0.05908054 0.05303146
v 0.03555410 0.05258481 0.05319801
v 0.03418601 0.05342162 0.05092582
v 0.03430857 0.05819964 0.05080331
v 0.03649655 0.05623095 0.06950690
v 0.03336391 0.06163997 0.06936821
v 0.01890927 0.06201048 0.06935871
v 0.03309073 0.05098952 0.06964129
v 0.01863609 0.05136003 0.06963179
v 0.03382475 0.05100279 0.05345971
v 0.03261493 0.05174280 0.05145039
v 0.03259352 0.05063626 0.05345573
v 0.01792498 0.05141034 0.05344926
v 0.01917375 0.05208733 0.05144156
v 0.01913581 0.05098122 0.05344688
v 0.02587625 0.05122995 0.05225722
v 0.03407502 0.06076039 0.05320952
v 0.03282625 0.05998141 0.05123914
v 0.03286419 0.06118883 0.05318515
v 0.01817525 0.06116795 0.05319907
v 0.01938507 0.06032594 0.05123031
v 0.01940648 0.06153379 0.05317630
v 0.02612375 0.06087946 0.05200980
v 0.02594285 0.05377616 0.05022836
v 0.02605715 0.05823262 0.05011409
v 0.03382475 0.05183205 0.08580093
v 0.03261493 0.05267406 0.08776969
v 0.03259352 0.05146621 0.08582370
v 0.01792498 0.05223961 0.08579048
v 0.01917375 0.05301859 0.08776086
v 0.01913581 0.05181117 0.08581485
v 0.02587625 0.05212054 0.08699020
v 0.03407502 0.06158966 0.08555074
v 0.03282625 0.06091267 0.08755844
v 0.03286419 0.06201878 0.08555312
v 0.01817525 0.06199721 0.08554029
v 0.01938507 0.06125720 0.08754961
v 0.01940648 0.06236374 0.08554427
v 0.02612375 0.06177005 0.08674278
v 0.02594285 0.05476738 0.08888591
v 0.02605715 0.05922384 0.08877164
v 0.01698760 0.06129340 0.08511147
v 0.01617685 0.05935601 0.08639125
v 0.01746282 0.06124940 0.08630416
v 0.01677437 0.05298045 0.08532462
v 0.01606563 0.05501983 0.08650243
v 0.01725279 0.05306107 0.08651411
v 0.01875716 0.05421731 0.08845316
v 0.01679964 0.05547771 0.08766059
v 0.01799520 0.05352418 0.08768552
v 0.01877509 0.05544848 0.08881946
v 0.01683144 0.05427350 0.08721433
v 0.01890852 0.06011843 0.08830185
v 0.01688796 0.05892104 0.08757230
v 0.01818207 0.06080946 0.08749872
v 0.01886384 0.05890834 0.08873075
v 0.01698082 0.06009760 0.08706500
v 0.01763696 0.05719714 0.08832265
v 0.01698760 0.06048704 0.05366339
v 0.01617685 0.05848661 0.05248458
v 0.01746282 0.06038198 0.05247453
v 0.01626157 0.06011541 0.06940730
v 0.01677437 0.05217409 0.05387654
v 0.01606563 0.05415043 0.05259576
v 0.01725279 0.05219364 0.05268448
v 0.01608903 0.05338825 0.06957979
v 0.01875716 0.05324899 0.05068873
v 0.01679964 0.05454835 0.05141566
v 0.01799520 0.05259612 0.05149088
v 0.01877509 0.05445977 0.05025981
v 0.01683144 0.05336860 0.05192305
v 0.01890852 0.05915011 0.05053742
v 0.01688796 0.05799169 0.05132737
v 0.01818207 0.05988139 0.05130408
v 0.01886384 0.05791963 0.05017110
v 0.01698082 0.05919270 0.05177371
v 0.01763696 0.05623159 0.05066635
v 0.01567467 0.05718084 0.08572399
v 0.01567467 0.05634849 0.05326244
v 0.01577958 0.05934826 0.08516962
v 0.01566767 0.05498534 0.08528149
v 0.01577958 0.05854148 0.05370500
v 0.01566767 0.05417856 0.05381687
v 0.03522563 0.06082591 0.08512346
v 0.03593437 0.05884957 0.08640424
v 0.03474721 0.06080636 0.08631552
v 0.03501240 0.05251296 0.08533661
v 0.03582315 0.05451339 0.08651542
v 0.03453718 0.05261802 0.08652547
v 0.03309148 0.05384989 0.08846258
v 0.03511204 0.05500831 0.08767263
v 0.03381793 0.05311861 0.08769592
v 0.03313616 0.05508037 0.08882890
v 0.03501918 0.05380730 0.08722629
v 0.03324284 0.05975101 0.08831127
v 0.03520036 0.05845165 0.08758434
v 0.03400480 0.06040388 0.08750912
v 0.03322491 0.05854023 0.08874019
v 0.03516856 0.05963140 0.08707695
v 0.03436304 0.05676841 0.08833365
v 0.03522563 0.06001955 0.05367538
v 0.03593437 0.05798017 0.05249757
v 0.03474721 0.05993893 0.05248589
v 0.03591097 0.05961175 0.06942021
v 0.03501240 0.05170660 0.05388853
v 0.03582315 0.05364399 0.05260875
v 0.03453718 0.05175060 0.05269584
v 0.03573843 0.05288459 0.06959270
v 0.03309148 0.05288157 0.05069815
v 0.03511204 0.05407896 0.05142770
v 0.03381793 0.05219054 0.05150128
v 0.03313616 0.05409166 0.05026925
v 0.03501918 0.05290240 0.05193500
v 0.03324284 0.05878269 0.05054684
v 0.03520036 0.05752229 0.05133941
v 0.03400480 0.05947582 0.05131448
v 0.03322491 0.05755152 0.05018054
v 0.03516856 0.05872650 0.05178567
v 0.03436304 0.05580286 0.05067735
v 0.03632533 0.05665151 0.08573756
v 0.03632533 0.05581916 0.05327601
v 0.03633233 0.05882144 0.08518313
v 0.03622042 0.05445852 0.08529500
v 0.03633233 0.05801466 0.05371851
v 0.03622042 0.05365174 0.05383038
f 63 65 45
f 45 65 14
f 63 45 3
f 3 45 47
f 4 46 66
f 50 46 4
f 50 4 100
f 14 46 52
f 52 46 50
f 66 46 68
f 14 65 68
f 68 46 14
f 142 162 145
f 142 3 47
f 33 118 115
f 13 72 43
f 43 56 13
f 82 118 103
f 82 4 66
f 103 100 82
f 82 100 4
f 61 146 5
f 5 104 61
f 61 104 107
f 61 107 19
f 130 77 127
f 24 77 130
f 126 35 131
f 159 157 42
f 13 56 59
f 59 44 13
f 9 115 83
f 83 115 118
f 84 82 66
f 101 108 30
f 52 53 49
f 47 45 49
f 49 45 14
f 14 52 49
f 51 104 5
f 149 61 19
f 146 61 149
f 36 130 127
f 137 130 36
f 124 142 145
f 3 142 124
f 63 3 124
f 124 126 63
f 35 126 124
f 145 162 160
f 160 124 145
f 35 124 160
f 42 157 160
f 160 162 42
f 63 126 20
f 20 65 63
f 127 64 129
f 129 126 131
f 129 36 127
f 131 36 129
f 64 20 129
f 129 20 126
f 66 68 21
f 21 84 66
f 127 77 7
f 7 64 127
f 7 77 85
f 7 67 64
f 85 67 7
f 64 67 69
f 69 68 65
f 65 20 69
f 69 20 64
f 69 21 68
f 67 21 69
f 70 43 72
f 71 76 74
f 121 159 141
f 121 141 138
f 161 159 42
f 161 141 159
f 38 138 161
f 161 138 141
f 162 142 39
f 147 152 12
f 156 152 147
f 144 142 47
f 144 39 142
f 150 39 144
f 117 79 99
f 99 119 117
f 33 115 117
f 117 119 33
f 75 76 72
f 75 72 13
f 13 44 75
f 86 83 89
f 9 83 86
f 89 83 26
f 26 84 89
f 82 84 26
f 118 82 26
f 26 83 118
f 87 67 85
f 89 84 87
f 87 21 67
f 84 21 87
f 19 107 112
f 120 118 33
f 103 118 120
f 101 30 120
f 120 100 103
f 120 30 100
f 50 100 102
f 100 30 102
f 102 30 108
f 5 146 48
f 48 51 5
f 53 51 48
f 16 53 52
f 16 51 53
f 16 52 50
f 50 102 16
f 137 36 128
f 128 36 131
f 131 35 125
f 35 160 125
f 125 128 131
f 11 128 125
f 125 157 11
f 125 160 157
f 22 71 134
f 22 70 72
f 72 76 22
f 76 71 22
f 24 130 135
f 135 130 137
f 34 159 121
f 133 128 11
f 137 128 133
f 121 70 123
f 134 136 123
f 123 22 134
f 70 22 123
f 123 34 121
f 136 34 123
f 1 70 121
f 43 70 1
f 121 138 1
f 42 162 158
f 158 161 42
f 162 39 143
f 143 39 150
f 150 147 143
f 143 147 12
f 12 158 143
f 143 158 162
f 40 149 156
f 156 147 40
f 146 149 40
f 40 147 150
f 29 119 96
f 96 119 99
f 99 79 96
f 79 2 96
f 44 59 57
f 57 2 44
f 57 96 2
f 59 18 57
f 74 76 23
f 76 75 23
f 80 115 9
f 80 117 115
f 93 95 88
f 85 77 88
f 88 77 24
f 24 93 88
f 27 86 89
f 89 87 27
f 27 87 85
f 85 88 27
f 95 86 27
f 27 88 95
f 109 112 32
f 110 113 32
f 154 149 19
f 156 149 154
f 110 10 97
f 97 113 110
f 97 119 29
f 29 113 97
f 105 10 110
f 105 108 101
f 101 10 105
f 33 119 116
f 116 120 33
f 119 97 116
f 116 97 10
f 101 120 116
f 116 10 101
f 104 51 106
f 106 102 108
f 51 16 106
f 106 16 102
f 15 49 53
f 53 48 15
f 47 49 15
f 15 144 47
f 150 144 148
f 148 48 146
f 146 40 148
f 148 40 150
f 144 15 148
f 148 15 48
f 8 71 74
f 74 90 8
f 159 34 122
f 122 34 136
f 136 133 122
f 122 133 11
f 11 157 122
f 157 159 122
f 37 136 134
f 37 133 136
f 37 135 137
f 137 133 37
f 41 155 152
f 41 154 151
f 41 152 156
f 156 154 41
f 152 155 139
f 12 152 139
f 38 161 139
f 139 155 38
f 139 158 12
f 161 158 139
f 140 138 38
f 38 155 140
f 73 23 75
f 73 2 79
f 44 2 73
f 73 75 44
f 79 117 25
f 117 80 25
f 111 58 109
f 109 32 111
f 111 32 113
f 18 58 111
f 62 112 109
f 151 154 62
f 19 112 62
f 62 154 19
f 114 112 107
f 114 105 110
f 110 32 114
f 114 32 112
f 108 105 31
f 31 106 108
f 104 106 31
f 107 104 31
f 31 114 107
f 105 114 31
f 71 8 132
f 134 71 132
f 132 37 134
f 135 37 132
f 78 93 24
f 24 135 78
f 78 90 93
f 78 8 90
f 135 132 78
f 78 132 8
f 138 140 54
f 54 1 138
f 56 43 54
f 43 1 54
f 93 90 28
f 28 95 93
f 23 73 81
f 81 73 79
f 79 25 81
f 60 59 56
f 60 55 58
f 60 18 59
f 60 58 18
f 151 55 153
f 153 140 155
f 153 41 151
f 155 41 153
f 98 57 18
f 18 111 98
f 96 57 98
f 98 111 113
f 29 96 98
f 98 113 29
f 6 55 151
f 58 55 6
f 109 58 6
f 151 62 6
f 6 62 109
f 95 28 91
f 9 86 91
f 91 86 95
f 91 80 9
f 94 25 80
f 94 81 25
f 80 91 94
f 94 91 28
f 17 54 140
f 17 153 55
f 140 153 17
f 56 54 17
f 17 60 56
f 55 60 17
f 92 28 90
f 92 94 28
f 92 90 74
f 81 94 92
f 74 23 92
f 23 81 92

