# https://github.com/mikedh/trimesh
v 0.03301303 0.06160560 0.05673231
v 0.04611596 0.06160560 0.05673231
v 0.03301303 0.05020300 0.05673231
v 0.04611596 0.05020300 0.05673231
v 0.03956449 0.05085284 0.05893362
v 0.03956449 0.06095576 0.05893362
v 0.03956449 0.05085284 0.05453101
v 0.03956449 0.06095576 0.05453101
v 0.04676580 0.05590430 0.05518085
v 0.04676580 0.05590430 0.05828378
v 0.03236319 0.05590430 0.05518085
v 0.03236319 0.05590430 0.05828378
v 0.03956449 0.06190430 0.05673231
v 0.03956449 0.04990430 0.05673231
v 0.03344646 0.05028627 0.05823231
v 0.04568253 0.05028627 0.05823231
v 0.03344646 0.06152233 0.05823231
v 0.04568253 0.06152233 0.05823231
v 0.03956449 0.05590430 0.05923231
v 0.03344646 0.05028627 0.05523231
v 0.04568253 0.05028627 0.05523231
v 0.03344646 0.06152233 0.05523231
v 0.04568253 0.06152233 0.05523231
v 0.03956449 0.05590430 0.05423231
v 0.04668253 0.06090430 0.05561428
v 0.04668253 0.05090430 0.05561428
v 0.04606449 0.05128627 0.05461428
v 0.04606449 0.06052233 0.05461428
v 0.04668253 0.06090430 0.05785035
v 0.04668253 0.05090430 0.05785035
v 0.04606449 0.05128627 0.05885035
v 0.04606449 0.06052233 0.05885035
v 0.04706449 0.05590430 0.05673231
v 0.03244646 0.06090430 0.05561428
v 0.03244646 0.05090430 0.05561428
v 0.03306449 0.05128627 0.05461428
v 0.03306449 0.06052233 0.05461428
v 0.03244646 0.06090430 0.05785035
v 0.03244646 0.05090430 0.05785035
v 0.03306449 0.05128627 0.05885035
v 0.03306449 0.06052233 0.05885035
v 0.03206449 0.05590430 0.05673231
v 0.03351796 0.06182818 0.05673231
v 0.04561103 0.06182818 0.05673231
v 0.03351796 0.04998042 0.05673231
v 0.04561103 0.04998042 0.05673231
v 0.03319672 0.05017896 0.05775210
v 0.03374325 0.05051674 0.05863641
v 0.03373958 0.05000219 0.05775804
v 0.04593227 0.05017896 0.05775210
v 0.04538574 0.05051674 0.05863641
v 0.04538941 0.05000219 0.05775804
v 0.03956449 0.05020300 0.05828378
v 0.03319672 0.06162964 0.05775210
v 0.03374325 0.06129186 0.05863641
v 0.03373958 0.06180641 0.05775804
v 0.04593227 0.06162964 0.05775210
v 0.04538574 0.06129186 0.05863641
v 0.04538941 0.06180641 0.05775804
v 0.03956449 0.06160560 0.05828378
v 0.03956449 0.05135777 0.05915619
v 0.03956449 0.06045083 0.05915619
v 0.03319672 0.05017896 0.05571253
v 0.03374325 0.05051674 0.05482822
v 0.03373958 0.05000219 0.05570658
v 0.04593227 0.05017896 0.05571253
v 0.04538574 0.05051674 0.05482822
v 0.04538941 0.05000219 0.05570658
v 0.03956449 0.05020300 0.05518085
v 0.03319672 0.06162964 0.05571253
v 0.03374325 0.06129186 0.05482822
v 0.03373958 0.06180641 0.05570658
v 0.04593227 0.06162964 0.05571253
v 0.04538574 0.06129186 0.05482822
v 0.04538941 0.06180641 0.05570658
v 0.03956449 0.06160560 0.05518085
v 0.03956449 0.05135777 0.05430844
v 0.03956449 0.06045083 0.05430844
v 0.04645206 0.06130839 0.05591107
v 0.04678983 0.06042408 0.05536454
v 0.04624007 0.06128068 0.05538166
v 0.04645206 0.05050021 0.05591107
v 0.04678983 0.05138452 0.05536454
v 0.04624007 0.05052792 0.05538166
v 0.04558428 0.05103652 0.05450698
v 0.04646859 0.05158306 0.05484475
v 0.04591515 0.05072873 0.05485593
v 0.04559023 0.05157938 0.05433020
v 0.04644088 0.05105365 0.05505674
v 0.04558428 0.06077208 0.05450698
v 0.04646859 0.06022554 0.05484475
v 0.04591515 0.06107987 0.05485593
v 0.04559023 0.06022922 0.05433020
v 0.04644088 0.06075495 0.05505674
v 0.04611596 0.05590430 0.05453101
v 0.04645206 0.06130839 0.05755356
v 0.04678983 0.06042408 0.05810009
v 0.04624007 0.06128068 0.05808296
v 0.04676580 0.06095576 0.05673231
v 0.04645206 0.05050021 0.05755356
v 0.04678983 0.05138452 0.05810009
v 0.04624007 0.05052792 0.05808296
v 0.04676580 0.05085284 0.05673231
v 0.04558428 0.05103652 0.05895765
v 0.04646859 0.05158306 0.05861987
v 0.04591515 0.05072873 0.05860870
v 0.04559023 0.05157938 0.05913443
v 0.04644088 0.05105365 0.05840788
v 0.04558428 0.06077208 0.05895765
v 0.04646859 0.06022554 0.05861987
v 0.04591515 0.06107987 0.05860870
v 0.04559023 0.06022922 0.05913443
v 0.04644088 0.06075495 0.05840788
v 0.04611596 0.05590430 0.05893362
v 0.04698837 0.05590430 0.05568578
v 0.04698837 0.05590430 0.05777885
v 0.04696661 0.06043003 0.05590739
v 0.04696661 0.05137857 0.05590739
v 0.04696661 0.06043003 0.05755723
v 0.04696661 0.05137857 0.05755723
v 0.03267693 0.06130839 0.05591107
v 0.03233916 0.06042408 0.05536454
v 0.03288892 0.06128068 0.05538166
v 0.03267693 0.05050021 0.05591107
v 0.03233916 0.05138452 0.05536454
v 0.03288892 0.05052792 0.05538166
v 0.03354471 0.05103652 0.05450698
v 0.03266040 0.05158306 0.05484475
v 0.03321384 0.05072873 0.05485593
v 0.03353876 0.05157938 0.05433020
v 0.03268811 0.05105365 0.05505674
v 0.03354471 0.06077208 0.05450698
v 0.03266040 0.06022554 0.05484475
v 0.03321384 0.06107987 0.05485593
v 0.03353876 0.06022922 0.05433020
v 0.03268811 0.06075495 0.05505674
v 0.03301303 0.05590430 0.05453101
v 0.03267693 0.06130839 0.05755356
v 0.03233916 0.06042408 0.05810009
v 0.03288892 0.06128068 0.05808296
v 0.03236319 0.06095576 0.05673231
v 0.03267693 0.05050021 0.05755356
v 0.03233916 0.05138452 0.05810009
v 0.03288892 0.05052792 0.05808296
v 0.03236319 0.05085284 0.05673231
v 0.03354471 0.05103652 0.05895765
v 0.03266040 0.05158306 0.05861987
v 0.03321384 0.05072873 0.05860870
v 0.03353876 0.05157938 0.05913443
v 0.03268811 0.05105365 0.05840788
v 0.03354471 0.06077208 0.05895765
v 0.03266040 0.06022554 0.05861987
v 0.03321384 0.06107987 0.05860870
v 0.03353876 0.06022922 0.05913443
v 0.03268811 0.06075495 0.05840788
v 0.03301303 0.05590430 0.05893362
v 0.03214062 0.05590430 0.05568578
v 0.03214062 0.05590430 0.05777885
v 0.03216238 0.06043003 0.05590739
v 0.03216238 0.05137857 0.05590739
v 0.03216238 0.06043003 0.05755723
v 0.03216238 0.05137857 0.05755723
f 24 77 130
f 130 77 127
f 88 77 24
f 85 77 88
f 127 77 7
f 7 77 85
f 146 61 149
f 149 61 19
f 127 7 64
f 53 51 48
f 107 112 19
f 19 61 107
f 107 61 104
f 146 48 5
f 5 51 104
f 48 51 5
f 104 61 5
f 5 61 146
f 137 128 133
f 148 48 146
f 146 149 40
f 40 148 146
f 150 148 40
f 40 149 156
f 154 149 19
f 156 149 154
f 51 53 52
f 67 68 69
f 67 7 85
f 69 64 67
f 67 64 7
f 31 107 104
f 112 107 114
f 114 31 105
f 107 31 114
f 137 130 36
f 36 128 137
f 36 130 127
f 160 162 42
f 42 157 160
f 24 130 135
f 135 78 24
f 132 78 135
f 135 130 137
f 11 133 128
f 33 120 118
f 83 86 9
f 150 40 147
f 147 143 150
f 147 40 156
f 156 152 147
f 13 43 56
f 72 43 13
f 14 68 46
f 46 52 14
f 51 52 16
f 68 67 21
f 105 31 108
f 108 101 105
f 110 114 105
f 132 135 37
f 137 133 37
f 37 135 137
f 8 78 132
f 8 90 78
f 125 11 128
f 125 160 157
f 157 11 125
f 162 143 158
f 42 162 158
f 85 88 27
f 27 88 95
f 95 86 27
f 65 68 14
f 14 45 65
f 69 68 65
f 65 64 69
f 151 154 62
f 112 109 62
f 19 112 62
f 62 154 19
f 89 86 83
f 89 27 86
f 106 31 104
f 106 108 31
f 104 51 106
f 102 108 106
f 51 16 106
f 106 16 102
f 112 114 32
f 114 110 32
f 32 109 112
f 71 8 132
f 12 147 152
f 143 147 12
f 12 158 143
f 103 118 120
f 50 100 102
f 102 16 50
f 50 16 52
f 52 46 50
f 30 108 102
f 101 108 30
f 102 100 30
f 120 101 30
f 30 103 120
f 100 103 30
f 91 80 9
f 91 86 95
f 91 9 86
f 48 148 15
f 144 148 150
f 144 15 148
f 47 15 144
f 160 125 35
f 90 8 74
f 8 71 74
f 41 154 151
f 156 154 41
f 41 152 156
f 153 41 151
f 42 158 161
f 54 56 43
f 151 62 6
f 6 62 109
f 87 21 67
f 87 67 85
f 85 27 87
f 27 89 87
f 113 32 110
f 110 97 113
f 119 117 99
f 33 117 119
f 10 110 105
f 105 101 10
f 10 97 110
f 132 37 134
f 134 71 132
f 43 72 70
f 159 161 141
f 159 157 42
f 42 161 159
f 82 103 100
f 33 118 115
f 115 117 33
f 115 118 83
f 83 9 115
f 9 80 115
f 80 117 115
f 73 2 79
f 79 96 99
f 79 2 96
f 95 88 93
f 78 90 93
f 93 88 24
f 24 78 93
f 49 15 47
f 49 52 53
f 49 53 48
f 48 15 49
f 49 47 45
f 14 52 49
f 49 45 14
f 47 144 142
f 64 65 20
f 98 96 57
f 96 2 57
f 76 71 72
f 76 74 71
f 56 54 17
f 140 153 17
f 17 54 140
f 139 12 152
f 158 12 139
f 139 161 158
f 141 161 38
f 161 139 38
f 138 121 141
f 141 38 138
f 140 54 138
f 138 38 140
f 58 6 109
f 97 119 29
f 29 96 98
f 29 113 97
f 98 113 29
f 99 96 29
f 29 119 99
f 116 120 33
f 33 119 116
f 116 101 120
f 116 10 101
f 116 119 97
f 97 10 116
f 136 37 133
f 136 134 37
f 71 134 22
f 72 71 22
f 22 70 72
f 141 121 34
f 34 159 141
f 21 87 84
f 84 87 89
f 118 103 26
f 103 82 26
f 83 118 26
f 26 89 83
f 82 84 26
f 26 84 89
f 100 50 4
f 4 50 46
f 4 82 100
f 80 91 94
f 162 160 145
f 160 35 145
f 45 47 3
f 47 142 3
f 39 144 150
f 150 143 39
f 39 142 144
f 39 143 162
f 162 145 39
f 39 145 142
f 131 125 128
f 128 36 131
f 131 35 125
f 44 2 73
f 44 57 2
f 55 58 60
f 6 58 55
f 55 60 56
f 56 17 55
f 151 6 55
f 55 153 151
f 55 17 153
f 155 153 140
f 155 139 152
f 152 41 155
f 41 153 155
f 140 38 155
f 155 38 139
f 43 70 1
f 1 54 43
f 1 70 121
f 1 138 54
f 121 138 1
f 60 58 59
f 56 60 59
f 57 44 59
f 13 56 59
f 59 44 13
f 98 57 18
f 57 59 18
f 18 59 58
f 111 113 98
f 111 58 109
f 109 32 111
f 32 113 111
f 98 18 111
f 111 18 58
f 121 70 123
f 134 136 123
f 123 22 134
f 70 22 123
f 123 34 121
f 136 34 123
f 159 34 122
f 122 34 136
f 122 136 133
f 133 11 122
f 122 11 157
f 157 159 122
f 68 21 66
f 21 84 66
f 66 84 82
f 82 4 66
f 66 46 68
f 66 4 46
f 28 94 91
f 28 93 90
f 28 91 95
f 95 93 28
f 90 74 92
f 92 28 90
f 94 28 92
f 80 94 25
f 25 117 80
f 99 117 25
f 25 79 99
f 63 65 45
f 45 3 63
f 63 20 65
f 64 20 129
f 127 64 129
f 129 36 127
f 129 131 36
f 75 44 73
f 75 76 72
f 75 72 13
f 13 44 75
f 74 76 75
f 23 92 74
f 23 75 73
f 74 75 23
f 73 79 81
f 94 92 81
f 79 25 81
f 81 25 94
f 81 23 73
f 92 23 81
f 124 63 3
f 124 145 35
f 142 145 124
f 124 3 142
f 131 129 126
f 63 124 126
f 20 63 126
f 126 129 20
f 35 131 126
f 126 124 35

