# https://github.com/mikedh/trimesh
v 0.02318567 0.04512663 0.09200000
v 0.04081433 0.04512663 0.09200000
v 0.02318567 0.03987337 0.09200000
v 0.04081433 0.03987337 0.09200000
v 0.03200000 0.04068567 0.10662663
v 0.03200000 0.04431433 0.10662663
v 0.03200000 0.04068567 0.07737337
v 0.03200000 0.04431433 0.07737337
v 0.04162663 0.04250000 0.07818567
v 0.04162663 0.04250000 0.10581433
v 0.02237337 0.04250000 0.07818567
v 0.02237337 0.04250000 0.10581433
v 0.03200000 0.04550000 0.09200000
v 0.03200000 0.03950000 0.09200000
v 0.02372746 0.03997746 0.10575000
v 0.04027254 0.03997746 0.10575000
v 0.02372746 0.04502254 0.10575000
v 0.04027254 0.04502254 0.10575000
v 0.03200000 0.04250000 0.10700000
v 0.02372746 0.03997746 0.07825000
v 0.04027254 0.03997746 0.07825000
v 0.02372746 0.04502254 0.07825000
v 0.04027254 0.04502254 0.07825000
v 0.03200000 0.04250000 0.07700000
v 0.04152254 0.04425000 0.07872746
v 0.04152254 0.04075000 0.07872746
v 0.04075000 0.04122746 0.07747746
v 0.04075000 0.04377254 0.07747746
v 0.04152254 0.04425000 0.10527254
v 0.04152254 0.04075000 0.10527254
v 0.04075000 0.04122746 0.10652254
v 0.04075000 0.04377254 0.10652254
v 0.04200000 0.04250000 0.09200000
v 0.02247746 0.04425000 0.07872746
v 0.02247746 0.04075000 0.07872746
v 0.02325000 0.04122746 0.07747746
v 0.02325000 0.04377254 0.07747746
v 0.02247746 0.04425000 0.10527254
v 0.02247746 0.04075000 0.10527254
v 0.02325000 0.04122746 0.10652254
v 0.02325000 0.04377254 0.10652254
v 0.02200000 0.04250000 0.09200000
v 0.02381683 0.04540485 0.09200000
v 0.04018317 0.04540485 0.09200000
v 0.02381683 0.03959515 0.09200000
v 0.04018317 0.03959515 0.09200000
v 0.02341528 0.03984333 0.10514973
v 0.02409844 0.04026555 0.10625512
v 0.02409385 0.03962236 0.10515716
v 0.04058472 0.03984333 0.10514973
v 0.03990156 0.04026555 0.10625512
v 0.03990615 0.03962236 0.10515716
v 0.03200000 0.03987337 0.10581433
v 0.02341528 0.04515667 0.10514973
v 0.02409844 0.04473445 0.10625512
v 0.02409385 0.04537764 0.10515716
v 0.04058472 0.04515667 0.10514973
v 0.03990156 0.04473445 0.10625512
v 0.03990615 0.04537764 0.10515716
v 0.03200000 0.04512663 0.10581433
v 0.03200000 0.04131683 0.10690485
v 0.03200000 0.04368317 0.10690485
v 0.02341528 0.03984333 0.07885027
v 0.02409844 0.04026555 0.07774488
v 0.02409385 0.03962236 0.07884284
v 0.04058472 0.03984333 0.07885027
v 0.03990156 0.04026555 0.07774488
v 0.03990615 0.03962236 0.07884284
v 0.03200000 0.03987337 0.07818567
v 0.02341528 0.04515667 0.07885027
v 0.02409844 0.04473445 0.07774488
v 0.02409385 0.04537764 0.07884284
v 0.04058472 0.04515667 0.07885027
v 0.03990156 0.04473445 0.07774488
v 0.03990615 0.04537764 0.07884284
v 0.03200000 0.04512663 0.07818567
v 0.03200000 0.04131683 0.07709515
v 0.03200000 0.04368317 0.07709515
v 0.04123445 0.04475512 0.07909844
v 0.04165667 0.04364973 0.07841528
v 0.04096946 0.04472048 0.07843669
v 0.04123445 0.04024488 0.07909844
v 0.04165667 0.04135027 0.07841528
v 0.04096946 0.04027952 0.07843669
v 0.04014973 0.04091528 0.07734333
v 0.04125512 0.04159844 0.07776555
v 0.04056331 0.04053054 0.07777952
v 0.04015716 0.04159385 0.07712236
v 0.04122048 0.04093669 0.07803054
v 0.04014973 0.04408472 0.07734333
v 0.04125512 0.04340156 0.07776555
v 0.04056331 0.04446946 0.07777952
v 0.04015716 0.04340615 0.07712236
v 0.04122048 0.04406331 0.07803054
v 0.04081433 0.04250000 0.07737337
v 0.04123445 0.04475512 0.10490156
v 0.04165667 0.04364973 0.10558472
v 0.04096946 0.04472048 0.10556331
v 0.04162663 0.04431433 0.09200000
v 0.04123445 0.04024488 0.10490156
v 0.04165667 0.04135027 0.10558472
v 0.04096946 0.04027952 0.10556331
v 0.04162663 0.04068567 0.09200000
v 0.04014973 0.04091528 0.10665667
v 0.04125512 0.04159844 0.10623445
v 0.04056331 0.04053054 0.10622048
v 0.04015716 0.04159385 0.10687764
v 0.04122048 0.04093669 0.10596946
v 0.04014973 0.04408472 0.10665667
v 0.04125512 0.04340156 0.10623445
v 0.04056331 0.04446946 0.10622048
v 0.04015716 0.04340615 0.10687764
v 0.04122048 0.04406331 0.10596946
v 0.04081433 0.04250000 0.10662663
v 0.04190485 0.04250000 0.07881683
v 0.04190485 0.04250000 0.10518317
v 0.04187764 0.04365716 0.07909385
v 0.04187764 0.04134284 0.07909385
v 0.04187764 0.04365716 0.10490615
v 0.04187764 0.04134284 0.10490615
v 0.02276555 0.04475512 0.07909844
v 0.02234333 0.04364973 0.07841528
v 0.02303054 0.04472048 0.07843669
v 0.02276555 0.04024488 0.07909844
v 0.02234333 0.04135027 0.07841528
v 0.02303054 0.04027952 0.07843669
v 0.02385027 0.04091528 0.07734333
v 0.02274488 0.04159844 0.07776555
v 0.02343669 0.04053054 0.07777952
v 0.02384284 0.04159385 0.07712236
v 0.02277952 0.04093669 0.07803054
v 0.02385027 0.04408472 0.07734333
v 0.02274488 0.04340156 0.07776555
v 0.02343669 0.04446946 0.07777952
v 0.02384284 0.04340615 0.07712236
v 0.02277952 0.04406331 0.07803054
v 0.02318567 0.04250000 0.07737337
v 0.02276555 0.04475512 0.10490156
v 0.02234333 0.04364973 0.10558472
v 0.02303054 0.04472048 0.10556331
v 0.02237337 0.04431433 0.09200000
v 0.02276555 0.04024488 0.10490156
v 0.02234333 0.04135027 0.10558472
v 0.02303054 0.04027952 0.10556331
v 0.02237337 0.04068567 0.09200000
v 0.02385027 0.04091528 0.10665667
v 0.02274488 0.04159844 0.10623445
v 0.02343669 0.04053054 0.10622048
v 0.02384284 0.04159385 0.10687764
v 0.02277952 0.04093669 0.10596946
v 0.02385027 0.04408472 0.10665667
v 0.02274488 0.04340156 0.10623445
v 0.02343669 0.04446946 0.10622048
v 0.02384284 0.04340615 0.10687764
v 0.02277952 0.04406331 0.10596946
v 0.02318567 0.04250000 0.10662663
v 0.02209515 0.04250000 0.07881683
v 0.02209515 0.04250000 0.10518317
v 0.02212236 0.04365716 0.07909385
v 0.02212236 0.04134284 0.07909385
v 0.02212236 0.04365716 0.10490615
v 0.02212236 0.04134284 0.10490615
f 14 52 49
f 14 65 68
f 45 49 47
f 47 3 45
f 45 65 14
f 14 49 45
f 142 162 145
f 142 3 47
f 82 4 66
f 125 157 11
f 77 130 24
f 46 68 66
f 66 4 46
f 46 52 14
f 14 68 46
f 42 162 158
f 12 158 143
f 143 158 162
f 149 156 40
f 144 142 47
f 53 49 52
f 19 149 61
f 61 107 19
f 79 99 117
f 24 78 93
f 36 137 130
f 130 137 135
f 24 130 135
f 135 78 24
f 20 64 65
f 67 64 7
f 157 125 160
f 42 157 160
f 160 162 42
f 145 162 160
f 147 143 150
f 150 40 147
f 12 143 147
f 147 40 156
f 149 40 146
f 146 61 149
f 5 61 146
f 47 49 15
f 15 144 47
f 150 143 39
f 39 144 150
f 142 144 39
f 162 142 39
f 39 143 162
f 107 61 104
f 104 61 5
f 103 120 100
f 100 82 103
f 4 82 100
f 33 117 119
f 117 99 119
f 98 29 96
f 99 79 96
f 96 119 99
f 29 119 96
f 19 107 112
f 113 29 98
f 94 91 28
f 88 77 24
f 24 93 88
f 75 44 73
f 13 44 75
f 75 72 13
f 28 93 90
f 90 93 78
f 13 72 43
f 43 56 13
f 59 44 13
f 13 56 59
f 59 58 18
f 131 36 129
f 64 20 129
f 137 36 128
f 128 125 11
f 131 125 128
f 128 36 131
f 133 128 11
f 137 128 133
f 68 67 21
f 66 68 21
f 65 64 69
f 69 68 65
f 64 67 69
f 69 67 68
f 145 160 124
f 124 142 145
f 3 142 124
f 150 144 148
f 148 40 150
f 148 146 40
f 144 15 148
f 101 105 108
f 110 105 10
f 10 105 101
f 51 104 5
f 106 104 51
f 51 53 52
f 30 120 101
f 30 100 120
f 101 108 30
f 4 100 50
f 52 46 50
f 50 46 4
f 2 79 73
f 73 44 2
f 2 96 79
f 109 112 32
f 110 113 32
f 114 105 110
f 114 112 107
f 110 32 114
f 114 32 112
f 97 113 110
f 110 10 97
f 97 119 29
f 29 113 97
f 33 120 118
f 118 120 103
f 103 82 118
f 25 79 117
f 73 79 81
f 79 25 81
f 81 25 94
f 7 77 85
f 77 88 85
f 85 67 7
f 12 147 152
f 152 147 156
f 111 113 98
f 111 58 109
f 109 32 111
f 111 32 113
f 98 18 111
f 18 58 111
f 127 36 130
f 127 129 36
f 64 129 127
f 7 64 127
f 130 77 127
f 127 77 7
f 76 75 74
f 72 75 76
f 74 71 76
f 76 71 72
f 8 71 74
f 8 90 78
f 74 90 8
f 37 135 137
f 137 133 37
f 1 43 70
f 70 43 72
f 84 82 66
f 66 21 84
f 131 129 126
f 126 129 20
f 146 148 48
f 48 148 15
f 5 146 48
f 48 51 5
f 53 51 48
f 49 53 48
f 48 15 49
f 31 104 106
f 31 108 105
f 106 108 31
f 107 104 31
f 31 114 107
f 105 114 31
f 116 120 33
f 33 119 116
f 101 120 116
f 116 10 101
f 119 97 116
f 116 97 10
f 106 51 16
f 16 51 52
f 52 50 16
f 102 108 106
f 102 50 100
f 100 30 102
f 102 30 108
f 106 16 102
f 102 16 50
f 96 2 57
f 98 96 57
f 44 59 57
f 57 2 44
f 57 18 98
f 57 59 18
f 80 9 91
f 91 94 80
f 80 25 117
f 94 25 80
f 95 88 93
f 28 91 95
f 95 93 28
f 83 9 115
f 115 118 83
f 115 80 117
f 9 80 115
f 115 117 33
f 33 118 115
f 26 118 82
f 83 118 26
f 82 84 26
f 73 81 23
f 23 75 73
f 74 75 23
f 92 90 74
f 92 81 94
f 92 94 28
f 28 90 92
f 74 23 92
f 92 23 81
f 27 85 88
f 88 95 27
f 139 152 155
f 139 158 12
f 12 152 139
f 1 138 54
f 54 43 1
f 56 43 54
f 154 149 19
f 154 156 149
f 155 152 41
f 41 154 151
f 41 152 156
f 156 154 41
f 109 58 6
f 135 37 132
f 71 8 132
f 78 135 132
f 132 8 78
f 159 157 42
f 136 37 133
f 63 20 65
f 63 126 20
f 124 126 63
f 3 124 63
f 65 45 63
f 63 45 3
f 35 125 131
f 35 126 124
f 131 126 35
f 35 160 125
f 35 124 160
f 83 26 89
f 89 26 84
f 86 27 95
f 91 9 86
f 86 95 91
f 86 9 83
f 83 89 86
f 86 89 27
f 38 139 155
f 140 54 138
f 140 38 155
f 138 38 140
f 19 112 62
f 62 154 19
f 62 112 109
f 109 6 62
f 151 154 62
f 62 6 151
f 60 59 56
f 58 59 60
f 122 136 133
f 122 133 11
f 11 157 122
f 157 159 122
f 121 159 141
f 1 70 121
f 121 138 1
f 141 138 121
f 123 121 70
f 134 132 37
f 37 136 134
f 71 132 134
f 136 123 134
f 85 27 87
f 27 89 87
f 67 85 87
f 87 89 84
f 87 21 67
f 87 84 21
f 139 38 161
f 141 159 161
f 161 138 141
f 161 38 138
f 158 139 161
f 42 158 161
f 161 159 42
f 153 140 155
f 155 41 153
f 153 41 151
f 151 6 55
f 55 153 151
f 55 6 58
f 58 60 55
f 55 60 56
f 34 123 136
f 136 122 34
f 121 123 34
f 34 122 159
f 159 121 34
f 22 123 70
f 22 134 123
f 71 134 22
f 72 71 22
f 22 70 72
f 56 54 17
f 17 55 56
f 140 153 17
f 54 140 17
f 153 55 17

