# https://github.com/mikedh/trimesh
v 0.03058266 0.06135459 0.07187719
v 0.01948722 0.06235423 0.07308670
v 0.02951278 0.05064577 0.07091330
v 0.01841734 0.05164541 0.07212281
v 0.02265290 0.05387453 0.05722550
v 0.02346540 0.06200717 0.05795752
v 0.02553460 0.05099283 0.08604248
v 0.02634710 0.05912547 0.08677450
v 0.01897757 0.05580360 0.08586665
v 0.01635324 0.05842792 0.05962342
v 0.03264676 0.05457208 0.08437658
v 0.03002243 0.05719640 0.05813335
v 0.02509409 0.06244648 0.07253524
v 0.02390591 0.05055352 0.07146476
v 0.02736899 0.05219012 0.05800201
v 0.01799018 0.05303510 0.05902439
v 0.02840588 0.06256884 0.05893620
v 0.01902707 0.06341382 0.05995858
v 0.02300000 0.05800000 0.05700000
v 0.02997293 0.04958618 0.08404142
v 0.02059412 0.05043116 0.08506380
v 0.03100982 0.05996490 0.08497561
v 0.02163101 0.06080988 0.08599799
v 0.02600000 0.05500000 0.08700000
v 0.01945269 0.05983889 0.08534719
v 0.01866057 0.05191025 0.08463353
v 0.02015813 0.05235908 0.08654856
v 0.02079897 0.05877348 0.08712592
v 0.01700003 0.06229155 0.06082059
v 0.01620791 0.05436291 0.06010693
v 0.01730941 0.05520779 0.05806137
v 0.01795025 0.06162220 0.05863873
v 0.01707389 0.05716905 0.07280952
v 0.03279209 0.05863709 0.08389307
v 0.03199997 0.05070845 0.08317941
v 0.03104975 0.05137780 0.08536127
v 0.03169059 0.05779221 0.08593863
v 0.03033943 0.06108975 0.05936647
v 0.02954731 0.05316111 0.05865281
v 0.02820103 0.05422652 0.05687408
v 0.02884187 0.06064092 0.05745144
v 0.03192611 0.05583095 0.07119048
v 0.02962683 0.06188586 0.07202590
v 0.02053120 0.06270532 0.07301741
v 0.02846880 0.05029468 0.07098259
v 0.01937317 0.05111414 0.07197410
v 0.02793740 0.05183778 0.05887993
v 0.02674687 0.05277993 0.05730698
v 0.02682620 0.05158541 0.05895380
v 0.01756946 0.05277187 0.06001013
v 0.01854353 0.05351900 0.05820122
v 0.01860829 0.05232580 0.05984963
v 0.02265290 0.05245775 0.05839644
v 0.02901679 0.06264188 0.05985240
v 0.02769249 0.06224498 0.05815892
v 0.02797561 0.06309031 0.05998935
v 0.01864885 0.06357597 0.06098260
v 0.01948914 0.06298405 0.05905316
v 0.01975770 0.06383069 0.06088518
v 0.02372278 0.06316657 0.05936033
v 0.02270882 0.05491945 0.05687483
v 0.02332133 0.06105040 0.05742667
v 0.03035115 0.04942403 0.08301740
v 0.02951086 0.05001595 0.08494684
v 0.02924230 0.04916931 0.08311482
v 0.01998321 0.05035812 0.08414760
v 0.02130751 0.05075502 0.08584108
v 0.02102439 0.04990969 0.08401065
v 0.02527722 0.04983343 0.08463967
v 0.03143054 0.06022813 0.08398987
v 0.03045647 0.05948100 0.08579878
v 0.03039171 0.06067420 0.08415037
v 0.02106260 0.06116222 0.08512007
v 0.02225313 0.06022007 0.08669302
v 0.02217380 0.06141459 0.08504620
v 0.02634710 0.06054225 0.08560356
v 0.02567867 0.05194960 0.08657333
v 0.02629118 0.05808055 0.08712517
v 0.01993034 0.06065752 0.08478180
v 0.01919456 0.05885671 0.08577924
v 0.02044950 0.06045993 0.08577947
v 0.01897818 0.05112693 0.08392395
v 0.01859263 0.05283181 0.08523694
v 0.01950831 0.05103920 0.08493152
v 0.02108089 0.05175712 0.08661283
v 0.01937104 0.05306510 0.08623234
v 0.02029562 0.05127516 0.08593831
v 0.02121162 0.05279920 0.08706104
v 0.01927910 0.05205276 0.08571210
v 0.02182064 0.05916158 0.08727930
v 0.01989433 0.05830293 0.08670379
v 0.02115728 0.05989981 0.08671461
v 0.02173637 0.05805161 0.08753380
v 0.02001206 0.05938933 0.08637246
v 0.02039313 0.05555897 0.08701324
v 0.01759523 0.06299263 0.06143066
v 0.01664298 0.06140828 0.06026351
v 0.01790471 0.06300472 0.06033157
v 0.01807165 0.06118208 0.07311104
v 0.01664307 0.05346204 0.06057282
v 0.01604106 0.05538338 0.05972121
v 0.01696352 0.05358399 0.05948362
v 0.01725915 0.05304943 0.07237903
v 0.01818967 0.05464834 0.05770066
v 0.01661360 0.05582253 0.05865796
v 0.01754261 0.05402817 0.05840820
v 0.01825039 0.05576043 0.05744873
v 0.01660562 0.05472624 0.05897733
v 0.01892942 0.06205280 0.05836713
v 0.01713689 0.06106037 0.05912941
v 0.01840427 0.06265282 0.05918450
v 0.01877514 0.06101284 0.05792149
v 0.01733859 0.06206281 0.05963769
v 0.01751143 0.05844067 0.05819626
v 0.01843681 0.05594330 0.08491479
v 0.01601247 0.05836764 0.06067138
v 0.01873816 0.05900754 0.08474344
v 0.01813388 0.05295906 0.08419902
v 0.01640159 0.06134411 0.06137775
v 0.01579731 0.05529563 0.06083333
v 0.03235693 0.05953796 0.08342718
v 0.03295894 0.05761662 0.08427879
v 0.03203648 0.05941601 0.08451638
v 0.03140477 0.05000737 0.08256934
v 0.03235702 0.05159172 0.08373649
v 0.03109529 0.04999528 0.08366843
v 0.03007058 0.05094720 0.08563287
v 0.03186311 0.05193963 0.08487059
v 0.03059573 0.05034718 0.08481550
v 0.03022486 0.05198716 0.08607851
v 0.03166141 0.05093719 0.08436231
v 0.03081033 0.05835166 0.08629934
v 0.03238640 0.05717747 0.08534204
v 0.03145739 0.05897183 0.08559180
v 0.03074961 0.05723957 0.08655127
v 0.03239438 0.05827376 0.08502267
v 0.03148857 0.05455933 0.08580374
v 0.03002182 0.06187307 0.06007605
v 0.03040737 0.06016819 0.05876306
v 0.02949169 0.06196080 0.05906848
v 0.03174085 0.05995057 0.07162097
v 0.02906966 0.05234248 0.05921820
v 0.02980544 0.05414329 0.05822076
v 0.02855050 0.05254007 0.05822053
v 0.03092835 0.05181792 0.07088896
v 0.02717936 0.05383842 0.05672070
v 0.02910567 0.05469707 0.05729621
v 0.02784272 0.05310019 0.05728539
v 0.02726363 0.05494839 0.05646620
v 0.02898794 0.05361067 0.05762754
v 0.02791911 0.06124288 0.05738717
v 0.02962896 0.05993490 0.05776766
v 0.02870438 0.06172484 0.05806169
v 0.02778838 0.06020080 0.05693896
v 0.02972090 0.06094724 0.05828790
v 0.02860687 0.05744103 0.05698676
v 0.03298753 0.05463236 0.08332862
v 0.03056319 0.05705670 0.05908521
v 0.03320269 0.05770437 0.08316667
v 0.03259841 0.05165589 0.08262225
v 0.03086612 0.06004094 0.05980098
v 0.03026184 0.05399246 0.05925656
f 33 120 118
f 118 120 103
f 103 120 100
f 14 46 52
f 52 49 14
f 145 162 160
f 42 157 160
f 160 162 42
f 133 128 11
f 77 130 24
f 24 88 77
f 127 77 7
f 130 77 127
f 14 65 68
f 68 46 14
f 107 112 19
f 33 118 115
f 103 100 82
f 84 26 82
f 82 118 103
f 82 26 118
f 50 52 46
f 50 100 102
f 145 160 124
f 45 65 14
f 14 49 45
f 47 45 49
f 3 45 47
f 11 128 125
f 125 157 11
f 125 160 157
f 128 131 125
f 93 88 24
f 128 133 137
f 159 157 42
f 42 162 158
f 83 86 9
f 9 115 83
f 83 115 118
f 118 26 83
f 64 127 7
f 7 67 64
f 130 127 36
f 36 137 130
f 128 137 36
f 36 131 128
f 85 67 7
f 7 77 85
f 85 77 88
f 146 48 5
f 49 52 53
f 162 39 143
f 143 147 12
f 12 158 143
f 143 158 162
f 19 149 61
f 61 107 19
f 61 146 5
f 149 146 61
f 5 48 51
f 48 53 51
f 13 72 43
f 43 56 13
f 29 119 96
f 96 119 99
f 75 72 13
f 13 44 75
f 46 68 66
f 84 82 66
f 66 21 84
f 66 68 21
f 3 124 63
f 65 45 63
f 63 45 3
f 63 124 126
f 126 20 63
f 63 20 65
f 15 47 49
f 49 53 15
f 15 53 48
f 144 47 15
f 144 39 142
f 142 47 144
f 3 47 142
f 145 124 142
f 142 124 3
f 142 162 145
f 142 39 162
f 35 131 126
f 126 124 35
f 35 125 131
f 35 124 160
f 160 125 35
f 88 93 95
f 72 75 76
f 78 93 24
f 89 26 84
f 89 83 26
f 86 83 89
f 65 20 69
f 20 64 69
f 69 68 65
f 69 64 67
f 21 68 69
f 69 67 21
f 126 131 129
f 127 64 129
f 129 36 127
f 131 36 129
f 129 20 126
f 129 64 20
f 27 85 88
f 88 95 27
f 27 95 86
f 86 89 27
f 40 146 149
f 149 156 40
f 156 147 40
f 5 51 104
f 104 61 5
f 107 61 104
f 16 53 52
f 16 51 53
f 52 50 16
f 16 50 102
f 102 100 30
f 30 100 120
f 101 30 120
f 112 107 114
f 112 114 32
f 13 56 59
f 59 44 13
f 154 149 19
f 154 156 149
f 112 32 109
f 141 159 161
f 161 159 42
f 42 158 161
f 99 119 117
f 117 119 33
f 33 115 117
f 28 95 93
f 29 96 98
f 74 76 23
f 23 76 75
f 4 82 100
f 4 50 46
f 100 50 4
f 4 66 82
f 46 66 4
f 8 78 132
f 71 8 132
f 71 76 74
f 74 8 71
f 121 159 141
f 24 130 135
f 135 78 24
f 132 78 135
f 130 137 135
f 67 85 87
f 87 89 84
f 84 21 87
f 21 67 87
f 85 27 87
f 87 27 89
f 146 40 148
f 48 146 148
f 144 15 148
f 148 15 48
f 107 104 31
f 31 114 107
f 105 114 31
f 102 30 108
f 30 101 108
f 108 101 105
f 105 31 108
f 116 101 120
f 116 120 33
f 33 119 116
f 110 114 105
f 110 32 114
f 151 154 62
f 112 109 62
f 19 112 62
f 62 154 19
f 60 59 56
f 18 59 60
f 12 147 152
f 152 147 156
f 25 117 80
f 80 115 9
f 80 117 115
f 90 28 93
f 90 8 74
f 93 78 90
f 78 8 90
f 57 98 96
f 96 2 57
f 57 59 18
f 18 98 57
f 44 59 57
f 57 2 44
f 111 109 32
f 111 98 18
f 99 117 79
f 79 117 25
f 79 96 99
f 79 2 96
f 74 23 92
f 28 90 92
f 92 90 74
f 72 76 22
f 76 71 22
f 133 136 37
f 132 135 37
f 37 137 133
f 37 135 137
f 134 71 132
f 134 136 123
f 123 22 134
f 134 22 71
f 132 37 134
f 134 37 136
f 159 121 34
f 123 136 34
f 34 121 123
f 70 121 1
f 70 43 72
f 70 1 43
f 123 121 70
f 72 22 70
f 70 22 123
f 150 40 147
f 150 148 40
f 147 143 150
f 144 148 150
f 150 39 144
f 150 143 39
f 106 31 104
f 106 108 31
f 106 104 51
f 102 108 106
f 106 16 102
f 51 16 106
f 97 116 119
f 97 119 29
f 6 55 151
f 6 62 109
f 151 62 6
f 41 154 151
f 156 154 41
f 41 152 156
f 91 80 9
f 95 28 91
f 9 86 91
f 86 95 91
f 2 79 73
f 73 75 44
f 44 2 73
f 73 23 75
f 159 34 122
f 122 34 136
f 122 136 133
f 122 133 11
f 11 157 122
f 157 159 122
f 101 116 10
f 105 101 10
f 10 110 105
f 10 97 110
f 116 97 10
f 110 97 113
f 98 111 113
f 32 110 113
f 113 111 32
f 29 98 113
f 113 97 29
f 58 60 55
f 55 6 58
f 18 60 58
f 58 6 109
f 58 111 18
f 109 111 58
f 151 55 153
f 153 41 151
f 80 91 94
f 25 80 94
f 28 92 94
f 94 91 28
f 81 92 23
f 23 73 81
f 81 73 79
f 81 94 92
f 81 79 25
f 25 94 81
f 17 153 55
f 17 60 56
f 55 60 17
f 152 41 155
f 41 153 155
f 152 155 139
f 12 152 139
f 139 155 38
f 139 38 161
f 139 158 12
f 139 161 158
f 153 17 140
f 38 155 140
f 140 155 153
f 54 17 56
f 54 140 17
f 56 43 54
f 43 1 54
f 38 140 138
f 140 54 138
f 138 54 1
f 138 121 141
f 1 121 138
f 141 161 138
f 161 38 138

