# https://github.com/mikedh/trimesh
v 0.03813613 0.06482256 0.06680945
v 0.04095994 0.06494383 0.05804822
v 0.03904006 0.05405617 0.06695178
v 0.04186387 0.05417744 0.05819055
v 0.05677684 0.05686184 0.06787080
v 0.05609037 0.06503821 0.06776271
v 0.02390963 0.05396179 0.05723729
v 0.02322316 0.06213816 0.05712920
v 0.02660921 0.05823645 0.05196439
v 0.05701194 0.06091905 0.06180057
v 0.02298806 0.05808095 0.06319943
v 0.05339079 0.06076355 0.07303561
v 0.03949806 0.06547845 0.06242097
v 0.04050194 0.05352155 0.06257903
v 0.05439581 0.05556622 0.07101111
v 0.05668782 0.05566464 0.06389987
v 0.05351974 0.06600073 0.07087317
v 0.05581176 0.06609916 0.06376192
v 0.05700000 0.06100000 0.06800000
v 0.02418824 0.05290084 0.06123808
v 0.02648026 0.05299927 0.05412683
v 0.02331218 0.06333536 0.06110013
v 0.02560419 0.06343378 0.05398889
v 0.02300000 0.05800000 0.05700000
v 0.02704537 0.06229241 0.05233610
v 0.02771463 0.05432115 0.05244147
v 0.02537535 0.05489874 0.05299430
v 0.02483391 0.06134763 0.05290905
v 0.05580435 0.06482997 0.06164047
v 0.05647361 0.05685871 0.06174585
v 0.05792676 0.05777092 0.06352564
v 0.05738533 0.06421981 0.06344039
v 0.04199382 0.05958562 0.05631394
v 0.02352639 0.06214129 0.06325415
v 0.02419565 0.05417003 0.06335953
v 0.02261467 0.05478019 0.06155961
v 0.02207324 0.06122908 0.06147436
v 0.05228537 0.06467885 0.07255853
v 0.05295463 0.05670759 0.07266390
v 0.05516609 0.05765237 0.07209095
v 0.05462465 0.06410126 0.07200570
v 0.03800618 0.05941438 0.06868606
v 0.03840865 0.06527942 0.06584250
v 0.04061294 0.06537407 0.05900344
v 0.03938706 0.05362593 0.06599656
v 0.04159135 0.05372058 0.05915750
v 0.05334995 0.05526546 0.07119470
v 0.05530557 0.05610094 0.07068803
v 0.05372384 0.05492847 0.07016972
v 0.05594839 0.05537704 0.06313273
v 0.05723343 0.05618372 0.06470661
v 0.05565621 0.05501145 0.06417431
v 0.05565333 0.05545810 0.06748925
v 0.05243798 0.06612764 0.07105110
v 0.05450663 0.06561687 0.07056223
v 0.05275272 0.06649522 0.07001681
v 0.05503642 0.06623922 0.06298913
v 0.05643449 0.06569966 0.06458081
v 0.05468509 0.06657820 0.06402140
v 0.05474940 0.06622449 0.06734692
v 0.05711441 0.05790531 0.06799404
v 0.05659690 0.06406922 0.06791256
v 0.02496358 0.05276078 0.06201087
v 0.02356551 0.05330034 0.06041919
v 0.02531491 0.05242180 0.06097860
v 0.02756202 0.05287236 0.05394890
v 0.02549337 0.05338313 0.05443777
v 0.02724728 0.05250478 0.05498319
v 0.02525060 0.05277551 0.05765308
v 0.02405161 0.06362296 0.06186727
v 0.02276657 0.06281628 0.06029339
v 0.02434379 0.06398855 0.06082569
v 0.02665005 0.06373454 0.05380530
v 0.02469443 0.06289906 0.05431197
v 0.02627616 0.06407153 0.05483028
v 0.02434667 0.06354190 0.05751075
v 0.02340310 0.05493078 0.05708744
v 0.02288559 0.06109469 0.05700596
v 0.02739915 0.06314128 0.05294621
v 0.02671798 0.06129647 0.05199129
v 0.02626986 0.06299189 0.05302566
v 0.02820362 0.05355945 0.05307288
v 0.02722654 0.05523917 0.05207137
v 0.02706506 0.05352051 0.05315087
v 0.02491906 0.05437044 0.05384909
v 0.02601062 0.05553939 0.05235872
v 0.02583523 0.05382417 0.05344151
v 0.02449667 0.05542284 0.05371502
v 0.02648418 0.05451912 0.05255546
v 0.02429405 0.06181471 0.05375068
v 0.02556850 0.06080539 0.05228910
v 0.02510723 0.06249519 0.05332688
v 0.02405332 0.06070348 0.05364521
v 0.02586490 0.06189513 0.05245795
v 0.02497830 0.05811061 0.05280263
v 0.05503257 0.06557952 0.06188644
v 0.05642409 0.06391760 0.06160210
v 0.05591103 0.06560729 0.06261545
v 0.04146733 0.06366594 0.05682844
v 0.05583705 0.05599769 0.06201310
v 0.05693266 0.05786030 0.06168217
v 0.05670623 0.05613591 0.06274066
v 0.04215381 0.05548957 0.05693653
v 0.05787741 0.05727853 0.06451209
v 0.05768798 0.05833446 0.06260728
v 0.05747020 0.05661549 0.06367635
v 0.05812544 0.05839008 0.06459492
v 0.05735758 0.05724325 0.06254392
v 0.05725241 0.06472280 0.06441368
v 0.05724586 0.06360045 0.06253766
v 0.05674219 0.06528651 0.06356172
v 0.05768209 0.06367072 0.06452511
v 0.05673830 0.06461926 0.06244641
v 0.05784551 0.06101065 0.06343614
v 0.02770321 0.05832680 0.05185051
v 0.05619103 0.06084043 0.06106716
v 0.02785481 0.06140380 0.05198769
v 0.02836536 0.05532280 0.05206808
v 0.05550217 0.06384328 0.06093243
v 0.05601272 0.05776228 0.06101282
v 0.02416295 0.06300231 0.06298690
v 0.02306734 0.06113970 0.06331783
v 0.02329377 0.06286409 0.06225934
v 0.02496743 0.05342048 0.06311356
v 0.02357591 0.05508240 0.06339790
v 0.02408897 0.05339271 0.06238455
v 0.02274759 0.05427720 0.06058632
v 0.02275414 0.05539955 0.06246234
v 0.02325781 0.05371349 0.06143828
v 0.02231791 0.05532928 0.06047489
v 0.02326170 0.05438074 0.06255359
v 0.02212259 0.06172147 0.06048791
v 0.02231202 0.06066554 0.06239272
v 0.02252980 0.06238451 0.06132365
v 0.02187456 0.06060992 0.06040508
v 0.02264242 0.06175675 0.06245608
v 0.02215449 0.05798935 0.06156386
v 0.05179638 0.06544055 0.07192712
v 0.05277346 0.06376083 0.07292863
v 0.05293494 0.06547949 0.07184913
v 0.03784619 0.06351043 0.06806347
v 0.05260085 0.05585872 0.07205379
v 0.05328202 0.05770353 0.07300871
v 0.05373014 0.05600811 0.07197434
v 0.03853267 0.05533406 0.06817156
v 0.05570595 0.05718529 0.07124932
v 0.05443150 0.05819461 0.07271090
v 0.05489277 0.05650481 0.07167312
v 0.05594668 0.05829652 0.07135479
v 0.05413510 0.05710487 0.07254205
v 0.05508094 0.06462956 0.07115091
v 0.05398938 0.06346061 0.07264128
v 0.05416477 0.06517583 0.07155849
v 0.05550333 0.06357716 0.07128498
v 0.05351582 0.06448088 0.07244454
v 0.05502170 0.06088939 0.07219737
v 0.02380897 0.05815957 0.06393284
v 0.05229679 0.06067320 0.07314949
v 0.02398728 0.06123772 0.06398718
v 0.02449783 0.05515672 0.06406757
v 0.05163464 0.06367720 0.07293192
v 0.05214519 0.05759620 0.07301231
f 124 142 145
f 103 100 82
f 3 142 124
f 14 65 68
f 68 46 14
f 63 3 124
f 45 65 14
f 45 63 65
f 3 63 45
f 100 103 120
f 49 45 14
f 82 100 4
f 4 50 46
f 100 50 4
f 124 145 160
f 42 157 160
f 75 72 13
f 118 103 82
f 118 120 103
f 118 115 33
f 33 120 118
f 107 104 31
f 107 112 19
f 31 104 106
f 33 119 116
f 116 120 33
f 100 120 30
f 54 56 43
f 13 72 43
f 43 56 13
f 13 56 59
f 154 149 19
f 42 158 161
f 142 3 47
f 3 45 47
f 45 49 47
f 46 68 66
f 66 4 46
f 82 4 66
f 77 130 24
f 24 88 77
f 69 68 65
f 162 145 142
f 162 160 145
f 162 143 158
f 162 158 42
f 42 160 162
f 124 160 35
f 125 160 157
f 125 35 160
f 72 75 76
f 92 28 90
f 37 137 133
f 133 137 128
f 26 118 82
f 115 118 83
f 118 26 83
f 88 95 27
f 27 95 86
f 126 63 124
f 124 35 126
f 36 137 130
f 128 137 36
f 5 104 61
f 104 107 61
f 19 149 61
f 61 107 19
f 120 116 101
f 101 30 120
f 97 119 29
f 97 116 119
f 112 107 114
f 105 110 114
f 31 105 114
f 114 107 31
f 44 75 13
f 13 59 44
f 29 119 96
f 119 99 96
f 112 114 32
f 32 114 110
f 19 112 62
f 62 154 19
f 5 61 146
f 146 61 149
f 146 149 40
f 40 148 146
f 142 47 144
f 68 69 21
f 21 66 68
f 158 143 12
f 143 147 12
f 12 147 152
f 152 147 156
f 149 154 156
f 40 149 156
f 156 147 40
f 94 28 92
f 91 95 28
f 28 94 91
f 91 94 80
f 86 95 91
f 23 76 75
f 71 76 74
f 76 23 74
f 92 90 74
f 74 23 92
f 11 125 157
f 157 122 11
f 128 125 11
f 122 133 11
f 11 133 128
f 141 121 159
f 159 161 141
f 159 122 157
f 159 157 42
f 42 161 159
f 70 43 72
f 138 121 141
f 141 161 138
f 161 38 138
f 37 133 136
f 136 133 122
f 86 83 89
f 89 27 86
f 87 27 89
f 89 83 26
f 88 27 85
f 85 27 87
f 85 77 88
f 7 77 85
f 131 125 128
f 129 126 131
f 128 36 131
f 131 36 129
f 35 125 131
f 131 126 35
f 127 36 130
f 129 36 127
f 127 64 129
f 7 64 127
f 130 77 127
f 127 77 7
f 49 53 15
f 15 47 49
f 148 144 15
f 15 144 47
f 108 101 105
f 108 105 31
f 31 106 108
f 30 101 108
f 10 110 105
f 105 101 10
f 10 101 116
f 10 97 110
f 116 97 10
f 57 96 2
f 2 44 57
f 57 44 59
f 17 56 54
f 152 156 41
f 41 156 154
f 55 17 153
f 152 41 155
f 155 41 153
f 142 144 39
f 39 162 142
f 143 162 39
f 150 147 143
f 150 144 148
f 150 148 40
f 40 147 150
f 143 39 150
f 150 39 144
f 20 69 65
f 20 64 69
f 65 63 20
f 20 126 129
f 63 126 20
f 129 64 20
f 67 21 69
f 67 64 7
f 69 64 67
f 7 85 67
f 87 21 67
f 67 85 87
f 115 83 9
f 9 80 115
f 9 83 86
f 9 91 80
f 86 91 9
f 81 94 92
f 92 23 81
f 93 88 24
f 24 78 93
f 93 78 90
f 93 95 88
f 28 95 93
f 93 90 28
f 122 159 34
f 34 159 121
f 34 136 122
f 43 70 1
f 54 43 1
f 1 70 121
f 121 138 1
f 1 138 54
f 121 70 123
f 123 34 121
f 136 34 123
f 84 26 82
f 84 89 26
f 82 66 84
f 87 89 84
f 84 21 87
f 66 21 84
f 50 16 52
f 52 16 53
f 52 53 49
f 46 50 52
f 14 46 52
f 52 49 14
f 51 106 104
f 51 16 106
f 51 104 5
f 53 16 51
f 48 146 148
f 148 15 48
f 5 146 48
f 48 15 53
f 48 51 5
f 53 51 48
f 100 30 102
f 30 108 102
f 102 50 100
f 102 108 106
f 102 16 50
f 106 16 102
f 18 57 59
f 112 32 109
f 109 62 112
f 154 62 151
f 151 55 153
f 151 41 154
f 153 41 151
f 60 59 56
f 60 55 58
f 58 18 60
f 60 18 59
f 56 17 60
f 17 55 60
f 152 155 139
f 139 12 152
f 139 38 161
f 139 155 38
f 139 161 158
f 158 12 139
f 54 138 140
f 140 155 153
f 140 17 54
f 153 17 140
f 140 138 38
f 38 155 140
f 73 23 75
f 73 81 23
f 73 44 2
f 75 44 73
f 81 73 79
f 79 73 2
f 2 96 79
f 79 96 99
f 37 136 134
f 134 132 37
f 71 132 134
f 136 123 134
f 135 132 78
f 24 130 135
f 135 78 24
f 130 137 135
f 135 137 37
f 37 132 135
f 8 74 90
f 71 74 8
f 90 78 8
f 78 132 8
f 8 132 71
f 111 18 58
f 58 109 111
f 111 109 32
f 58 55 6
f 6 109 58
f 62 109 6
f 55 151 6
f 6 151 62
f 117 79 99
f 117 99 119
f 115 80 117
f 33 115 117
f 117 119 33
f 94 81 25
f 80 94 25
f 81 79 25
f 25 117 80
f 79 117 25
f 22 123 70
f 22 134 123
f 71 134 22
f 22 70 72
f 72 76 22
f 22 76 71
f 29 96 98
f 96 57 98
f 57 18 98
f 18 111 98
f 113 32 110
f 113 111 32
f 110 97 113
f 113 98 111
f 113 97 29
f 29 98 113

