# https://github.com/mikedh/trimesh
v 0.02354209 -0.05646226 0.07577409
v 0.03224322 -0.05833061 0.07341885
v 0.02075678 -0.06666939 0.07358115
v 0.02945791 -0.06853774 0.07122591
v 0.02882260 -0.07072183 0.08860266
v 0.03093786 -0.06297018 0.09026805
v 0.02206214 -0.06202982 0.05673195
v 0.02417740 -0.05427817 0.05839734
v 0.02895934 -0.05968696 0.05728293
v 0.03519864 -0.06770893 0.08669680
v 0.01780136 -0.05729107 0.06030320
v 0.02404066 -0.06531304 0.08971707
v 0.02804665 -0.05683210 0.07471771
v 0.02495335 -0.06816790 0.07228229
v 0.02471805 -0.07067246 0.08800282
v 0.03178053 -0.07218894 0.08609114
v 0.02741751 -0.06077996 0.09012817
v 0.03447998 -0.06229644 0.08821648
v 0.03000000 -0.06700000 0.09000000
v 0.01852002 -0.06270356 0.05878352
v 0.02558249 -0.06422004 0.05687183
v 0.02121947 -0.05281106 0.06090886
v 0.02828195 -0.05432754 0.05899718
v 0.02300000 -0.05800000 0.05700000
v 0.03000683 -0.05609802 0.05895668
v 0.02794463 -0.06365522 0.05733306
v 0.02657227 -0.06216716 0.05591399
v 0.02824063 -0.05605326 0.05722753
v 0.03589854 -0.06367308 0.08673188
v 0.03383634 -0.07123027 0.08510826
v 0.03326595 -0.07077331 0.08746989
v 0.03493430 -0.06465941 0.08878343
v 0.03264364 -0.06381919 0.07183703
v 0.01916366 -0.05376973 0.06189174
v 0.01710146 -0.06132692 0.06026812
v 0.01806570 -0.06034059 0.05821657
v 0.01973405 -0.05422669 0.05953011
v 0.02505537 -0.06134478 0.08966694
v 0.02299317 -0.06890198 0.08804332
v 0.02475937 -0.06894674 0.08977247
v 0.02642773 -0.06283284 0.09108601
v 0.02035636 -0.06118081 0.07516297
v 0.02461133 -0.05624670 0.07560607
v 0.03140348 -0.05770514 0.07376756
v 0.02159652 -0.06729486 0.07323244
v 0.02838867 -0.06875330 0.07139393
v 0.02399807 -0.07052624 0.08717928
v 0.02555994 -0.07056582 0.08870839
v 0.02493551 -0.07108363 0.08684100
v 0.03200475 -0.07224547 0.08501201
v 0.03150034 -0.07184137 0.08710043
v 0.03088981 -0.07236217 0.08522927
v 0.02822700 -0.07161455 0.08711046
v 0.02680817 -0.06022828 0.08939173
v 0.02802176 -0.06154419 0.09064663
v 0.02792788 -0.06011772 0.08919696
v 0.03481484 -0.06194751 0.08722447
v 0.03396216 -0.06281974 0.08903867
v 0.03388218 -0.06139625 0.08758523
v 0.03101231 -0.06140742 0.08930340
v 0.02917216 -0.06988262 0.08922836
v 0.03076679 -0.06403889 0.09048384
v 0.01818516 -0.06305249 0.05977553
v 0.01903784 -0.06218026 0.05796133
v 0.01911782 -0.06360375 0.05941477
v 0.02619183 -0.06477172 0.05760827
v 0.02497824 -0.06345581 0.05635337
v 0.02507212 -0.06488228 0.05780304
v 0.02198769 -0.06359258 0.05769660
v 0.02099525 -0.05275453 0.06198799
v 0.02149966 -0.05315863 0.05989957
v 0.02211019 -0.05263783 0.06177073
v 0.02900193 -0.05447376 0.05982072
v 0.02744006 -0.05443418 0.05829161
v 0.02806449 -0.05391637 0.06015900
v 0.02477300 -0.05338545 0.05988954
v 0.02223321 -0.06096111 0.05651616
v 0.02382784 -0.05511738 0.05777164
v 0.02989849 -0.05539403 0.05979967
v 0.02986195 -0.05692009 0.05823475
v 0.02927119 -0.05508740 0.05889613
v 0.02741963 -0.06447813 0.05784800
v 0.02829490 -0.06266275 0.05700098
v 0.02682090 -0.06406679 0.05696696
v 0.02549271 -0.06238875 0.05585550
v 0.02758157 -0.06188928 0.05626337
v 0.02609941 -0.06328447 0.05622091
v 0.02571294 -0.06127441 0.05573864
v 0.02734126 -0.06298753 0.05646339
v 0.02741858 -0.05533118 0.05737178
v 0.02894391 -0.05689683 0.05733596
v 0.02834264 -0.05506387 0.05798706
v 0.02707907 -0.05626807 0.05681422
v 0.02924946 -0.05599466 0.05796577
v 0.02747034 -0.05908817 0.05638702
v 0.03555219 -0.06266306 0.08645280
v 0.03595395 -0.06475266 0.08695416
v 0.03534945 -0.06290231 0.08755079
v 0.03313662 -0.05982212 0.07282256
v 0.03307333 -0.07174716 0.08450113
v 0.03438690 -0.07049531 0.08572038
v 0.03289916 -0.07188170 0.08562162
v 0.03102136 -0.06757377 0.07115717
v 0.03227244 -0.07110555 0.08781708
v 0.03409042 -0.07025779 0.08694792
v 0.03259929 -0.07164146 0.08686320
v 0.03263444 -0.07017348 0.08836856
v 0.03368009 -0.07113746 0.08634647
v 0.03419831 -0.06404797 0.08933336
v 0.03545275 -0.06526534 0.08802052
v 0.03484252 -0.06342085 0.08862935
v 0.03400056 -0.06516714 0.08944414
v 0.03558830 -0.06414459 0.08784885
v 0.03423079 -0.06778018 0.08825773
v 0.02958255 -0.06003762 0.05812354
v 0.03541692 -0.06753896 0.08562842
v 0.03041686 -0.05726048 0.05917290
v 0.02884368 -0.06302561 0.05793430
v 0.03607351 -0.06453331 0.08583993
v 0.03450033 -0.07029843 0.08460133
v 0.01992667 -0.05325284 0.06249887
v 0.01861310 -0.05450469 0.06127962
v 0.02010084 -0.05311830 0.06137838
v 0.01744781 -0.06233694 0.06054720
v 0.01704605 -0.06024734 0.06004584
v 0.01765055 -0.06209769 0.05944921
v 0.01880169 -0.06095203 0.05766664
v 0.01754725 -0.05973466 0.05897948
v 0.01815748 -0.06157915 0.05837065
v 0.01899944 -0.05983286 0.05755586
v 0.01741170 -0.06085541 0.05915115
v 0.02072756 -0.05389445 0.05918292
v 0.01890958 -0.05474221 0.06005208
v 0.02040071 -0.05335854 0.06013680
v 0.02036556 -0.05482652 0.05863144
v 0.01931991 -0.05386254 0.06065353
v 0.01876921 -0.05721982 0.05874227
v 0.02558037 -0.06052187 0.08915200
v 0.02470510 -0.06233725 0.08999902
v 0.02617910 -0.06093321 0.09003304
v 0.02197864 -0.05742623 0.07584283
v 0.02310151 -0.06960597 0.08720033
v 0.02313805 -0.06807991 0.08876525
v 0.02372881 -0.06991260 0.08810387
v 0.01986338 -0.06517788 0.07417744
v 0.02558142 -0.06966882 0.08962822
v 0.02405609 -0.06810317 0.08966404
v 0.02465736 -0.06993613 0.08901294
v 0.02592093 -0.06873193 0.09018578
v 0.02375054 -0.06900534 0.08903423
v 0.02750729 -0.06261125 0.09114450
v 0.02541843 -0.06311072 0.09073663
v 0.02690059 -0.06171553 0.09077909
v 0.02728706 -0.06372559 0.09126136
v 0.02565874 -0.06201247 0.09053661
v 0.02552966 -0.06591183 0.09061298
v 0.01758308 -0.05746104 0.06137158
v 0.02341745 -0.06496238 0.08887646
v 0.01849967 -0.05470157 0.06239867
v 0.01692649 -0.06046669 0.06116007
v 0.02415632 -0.06197439 0.08906570
v 0.02258314 -0.06773952 0.08782710
f 124 142 145
f 103 100 82
f 3 142 124
f 14 65 68
f 68 46 14
f 63 3 124
f 45 65 14
f 45 63 65
f 3 63 45
f 100 103 120
f 49 45 14
f 82 100 4
f 4 50 46
f 100 50 4
f 124 145 160
f 42 157 160
f 75 72 13
f 118 103 82
f 118 120 103
f 118 115 33
f 33 120 118
f 126 63 124
f 107 104 31
f 107 112 19
f 31 104 106
f 33 119 116
f 116 120 33
f 100 120 30
f 54 56 43
f 13 72 43
f 43 56 13
f 13 56 59
f 154 149 19
f 142 3 47
f 3 45 47
f 45 49 47
f 46 68 66
f 66 4 46
f 82 4 66
f 77 130 24
f 24 88 77
f 69 68 65
f 162 145 142
f 162 160 145
f 162 143 158
f 162 158 42
f 42 160 162
f 125 160 157
f 72 75 76
f 92 28 90
f 37 137 133
f 133 137 128
f 159 122 157
f 159 157 42
f 136 133 122
f 37 133 136
f 26 118 82
f 115 118 83
f 118 26 83
f 88 95 27
f 27 95 86
f 5 104 61
f 104 107 61
f 19 149 61
f 61 107 19
f 120 116 101
f 101 30 120
f 97 119 29
f 97 116 119
f 112 107 114
f 105 110 114
f 31 105 114
f 114 107 31
f 44 75 13
f 13 59 44
f 29 119 96
f 119 99 96
f 112 114 32
f 32 114 110
f 19 112 62
f 62 154 19
f 5 61 146
f 146 61 149
f 146 149 40
f 40 148 146
f 142 47 144
f 68 69 21
f 21 66 68
f 158 143 12
f 143 147 12
f 12 147 152
f 152 147 156
f 149 154 156
f 40 149 156
f 156 147 40
f 124 160 35
f 160 125 35
f 35 126 124
f 94 28 92
f 91 95 28
f 28 94 91
f 91 94 80
f 86 95 91
f 23 76 75
f 71 76 74
f 76 23 74
f 92 90 74
f 74 23 92
f 11 125 157
f 157 122 11
f 128 125 11
f 122 133 11
f 11 133 128
f 42 158 161
f 161 159 42
f 37 136 134
f 86 83 89
f 89 27 86
f 87 27 89
f 89 83 26
f 88 27 85
f 85 27 87
f 85 77 88
f 7 77 85
f 36 137 130
f 128 137 36
f 131 125 128
f 131 129 126
f 126 35 131
f 131 35 125
f 128 36 131
f 131 36 129
f 49 53 15
f 15 47 49
f 148 144 15
f 15 144 47
f 108 101 105
f 108 105 31
f 31 106 108
f 30 101 108
f 10 110 105
f 105 101 10
f 10 101 116
f 10 97 110
f 116 97 10
f 57 96 2
f 2 44 57
f 57 44 59
f 17 56 54
f 152 156 41
f 41 156 154
f 55 17 153
f 142 144 39
f 39 162 142
f 143 162 39
f 150 147 143
f 150 144 148
f 150 148 40
f 40 147 150
f 143 39 150
f 150 39 144
f 67 21 69
f 67 64 7
f 69 64 67
f 7 85 67
f 87 21 67
f 67 85 87
f 115 83 9
f 9 80 115
f 9 83 86
f 9 91 80
f 86 91 9
f 81 94 92
f 92 23 81
f 37 134 132
f 132 134 71
f 93 88 24
f 24 78 93
f 93 78 90
f 93 95 88
f 28 95 93
f 93 90 28
f 158 12 139
f 139 161 158
f 139 12 152
f 54 43 1
f 159 161 141
f 141 121 159
f 34 136 122
f 122 159 34
f 159 121 34
f 71 134 22
f 72 76 22
f 22 76 71
f 84 26 82
f 84 89 26
f 82 66 84
f 87 89 84
f 84 21 87
f 66 21 84
f 127 36 130
f 129 36 127
f 127 64 129
f 7 64 127
f 130 77 127
f 127 77 7
f 20 69 65
f 20 64 69
f 65 63 20
f 126 129 20
f 63 126 20
f 129 64 20
f 50 16 52
f 52 16 53
f 52 53 49
f 46 50 52
f 14 46 52
f 52 49 14
f 51 106 104
f 51 16 106
f 51 104 5
f 53 16 51
f 48 146 148
f 148 15 48
f 5 146 48
f 48 15 53
f 48 51 5
f 53 51 48
f 100 30 102
f 30 108 102
f 102 50 100
f 102 108 106
f 102 16 50
f 106 16 102
f 18 57 59
f 112 32 109
f 109 62 112
f 154 62 151
f 151 55 153
f 151 41 154
f 153 41 151
f 60 59 56
f 60 55 58
f 58 18 60
f 60 18 59
f 56 17 60
f 17 55 60
f 73 23 75
f 73 81 23
f 73 44 2
f 75 44 73
f 81 73 79
f 79 73 2
f 2 96 79
f 79 96 99
f 135 132 78
f 24 130 135
f 135 78 24
f 130 137 135
f 135 137 37
f 37 132 135
f 8 74 90
f 71 74 8
f 90 78 8
f 78 132 8
f 8 132 71
f 155 139 152
f 152 41 155
f 155 41 153
f 121 1 70
f 72 22 70
f 70 43 72
f 70 1 43
f 111 18 58
f 58 109 111
f 111 109 32
f 58 55 6
f 6 109 58
f 62 109 6
f 55 151 6
f 6 151 62
f 117 79 99
f 117 99 119
f 115 80 117
f 33 115 117
f 117 119 33
f 94 81 25
f 80 94 25
f 81 79 25
f 25 117 80
f 79 117 25
f 140 155 153
f 140 17 54
f 153 17 140
f 123 22 134
f 123 70 22
f 123 134 136
f 121 70 123
f 136 34 123
f 123 34 121
f 29 96 98
f 96 57 98
f 57 18 98
f 18 111 98
f 113 32 110
f 113 111 32
f 110 97 113
f 113 98 111
f 113 97 29
f 29 98 113
f 138 141 161
f 138 140 54
f 54 1 138
f 138 1 121
f 121 141 138
f 155 140 38
f 139 155 38
f 140 138 38
f 161 139 38
f 38 138 161

