# https://github.com/mikedh/trimesh
v 0.02479415 -0.05169479 0.05400000
v 0.03920585 -0.05169479 0.05400000
v 0.02479415 -0.07430521 0.05400000
v 0.03920585 -0.07430521 0.05400000
v 0.03200000 -0.07170585 0.06780521
v 0.03200000 -0.05429415 0.06780521
v 0.03200000 -0.07170585 0.04019479
v 0.03200000 -0.05429415 0.04019479
v 0.04180521 -0.06300000 0.04279415
v 0.04180521 -0.06300000 0.06520585
v 0.02219479 -0.06300000 0.04279415
v 0.02219479 -0.06300000 0.06520585
v 0.03200000 -0.05050000 0.05400000
v 0.03200000 -0.07550000 0.05400000
v 0.02652786 -0.07397214 0.06500000
v 0.03747214 -0.07397214 0.06500000
v 0.02652786 -0.05202786 0.06500000
v 0.03747214 -0.05202786 0.06500000
v 0.03200000 -0.06300000 0.06900000
v 0.02652786 -0.07397214 0.04300000
v 0.03747214 -0.07397214 0.04300000
v 0.02652786 -0.05202786 0.04300000
v 0.03747214 -0.05202786 0.04300000
v 0.03200000 -0.06300000 0.03900000
v 0.04147214 -0.05450000 0.04452786
v 0.04147214 -0.07150000 0.04452786
v 0.03900000 -0.06997214 0.04052786
v 0.03900000 -0.05602786 0.04052786
v 0.04147214 -0.05450000 0.06347214
v 0.04147214 -0.07150000 0.06347214
v 0.03900000 -0.06997214 0.06747214
v 0.03900000 -0.05602786 0.06747214
v 0.04300000 -0.06300000 0.05400000
v 0.02252786 -0.05450000 0.04452786
v 0.02252786 -0.07150000 0.04452786
v 0.02500000 -0.06997214 0.04052786
v 0.02500000 -0.05602786 0.04052786
v 0.02252786 -0.05450000 0.06347214
v 0.02252786 -0.07150000 0.06347214
v 0.02500000 -0.06997214 0.06747214
v 0.02500000 -0.05602786 0.06747214
v 0.02100000 -0.06300000 0.05400000
v 0.02681387 -0.05080449 0.05400000
v 0.03718613 -0.05080449 0.05400000
v 0.02681387 -0.07519551 0.05400000
v 0.03718613 -0.07519551 0.05400000
v 0.02552889 -0.07440135 0.06307914
v 0.02771502 -0.07305024 0.06661637
v 0.02770032 -0.07510845 0.06310292
v 0.03847111 -0.07440135 0.06307914
v 0.03628498 -0.07305024 0.06661637
v 0.03629968 -0.07510845 0.06310292
v 0.03200000 -0.07430521 0.06520585
v 0.02552889 -0.05159865 0.06307914
v 0.02771502 -0.05294976 0.06661637
v 0.02770032 -0.05089155 0.06310292
v 0.03847111 -0.05159865 0.06307914
v 0.03628498 -0.05294976 0.06661637
v 0.03629968 -0.05089155 0.06310292
v 0.03200000 -0.05169479 0.06520585
v 0.03200000 -0.06968613 0.06869551
v 0.03200000 -0.05631387 0.06869551
v 0.02552889 -0.07440135 0.04492086
v 0.02771502 -0.07305024 0.04138363
v 0.02770032 -0.07510845 0.04489708
v 0.03847111 -0.07440135 0.04492086
v 0.03628498 -0.07305024 0.04138363
v 0.03629968 -0.07510845 0.04489708
v 0.03200000 -0.07430521 0.04279415
v 0.02552889 -0.05159865 0.04492086
v 0.02771502 -0.05294976 0.04138363
v 0.02770032 -0.05089155 0.04489708
v 0.03847111 -0.05159865 0.04492086
v 0.03628498 -0.05294976 0.04138363
v 0.03629968 -0.05089155 0.04489708
v 0.03200000 -0.05169479 0.04279415
v 0.03200000 -0.06968613 0.03930449
v 0.03200000 -0.05631387 0.03930449
v 0.04055024 -0.05288363 0.04571502
v 0.04190135 -0.05642086 0.04352889
v 0.03970228 -0.05299447 0.04359740
v 0.04055024 -0.07311637 0.04571502
v 0.04190135 -0.06957914 0.04352889
v 0.03970228 -0.07300553 0.04359740
v 0.03707914 -0.07097111 0.04009865
v 0.04061637 -0.06878498 0.04144976
v 0.03840260 -0.07220228 0.04149447
v 0.03710292 -0.06879968 0.03939155
v 0.04050553 -0.07090260 0.04229772
v 0.03707914 -0.05502889 0.04009865
v 0.04061637 -0.05721502 0.04144976
v 0.03840260 -0.05379772 0.04149447
v 0.03710292 -0.05720032 0.03939155
v 0.04050553 -0.05509740 0.04229772
v 0.03920585 -0.06300000 0.04019479
v 0.04055024 -0.05288363 0.06228498
v 0.04190135 -0.05642086 0.06447111
v 0.03970228 -0.05299447 0.06440260
v 0.04180521 -0.05429415 0.05400000
v 0.04055024 -0.07311637 0.06228498
v 0.04190135 -0.06957914 0.06447111
v 0.03970228 -0.07300553 0.06440260
v 0.04180521 -0.07170585 0.05400000
v 0.03707914 -0.07097111 0.06790135
v 0.04061637 -0.06878498 0.06655024
v 0.03840260 -0.07220228 0.06650553
v 0.03710292 -0.06879968 0.06860845
v 0.04050553 -0.07090260 0.06570228
v 0.03707914 -0.05502889 0.06790135
v 0.04061637 -0.05721502 0.06655024
v 0.03840260 -0.05379772 0.06650553
v 0.03710292 -0.05720032 0.06860845
v 0.04050553 -0.05509740 0.06570228
v 0.03920585 -0.06300000 0.06780521
v 0.04269551 -0.06300000 0.04481387
v 0.04269551 -0.06300000 0.06318613
v 0.04260845 -0.05639708 0.04570032
v 0.04260845 -0.06960292 0.04570032
v 0.04260845 -0.05639708 0.06229968
v 0.04260845 -0.06960292 0.06229968
v 0.02344976 -0.05288363 0.04571502
v 0.02209865 -0.05642086 0.04352889
v 0.02429772 -0.05299447 0.04359740
v 0.02344976 -0.07311637 0.04571502
v 0.02209865 -0.06957914 0.04352889
v 0.02429772 -0.07300553 0.04359740
v 0.02692086 -0.07097111 0.04009865
v 0.02338363 -0.06878498 0.04144976
v 0.02559740 -0.07220228 0.04149447
v 0.02689708 -0.06879968 0.03939155
v 0.02349447 -0.07090260 0.04229772
v 0.02692086 -0.05502889 0.04009865
v 0.02338363 -0.05721502 0.04144976
v 0.02559740 -0.05379772 0.04149447
v 0.02689708 -0.05720032 0.03939155
v 0.02349447 -0.05509740 0.04229772
v 0.02479415 -0.06300000 0.04019479
v 0.02344976 -0.05288363 0.06228498
v 0.02209865 -0.05642086 0.06447111
v 0.02429772 -0.05299447 0.06440260
v 0.02219479 -0.05429415 0.05400000
v 0.02344976 -0.07311637 0.06228498
v 0.02209865 -0.06957914 0.06447111
v 0.02429772 -0.07300553 0.06440260
v 0.02219479 -0.07170585 0.05400000
v 0.02692086 -0.07097111 0.06790135
v 0.02338363 -0.06878498 0.06655024
v 0.02559740 -0.07220228 0.06650553
v 0.02689708 -0.06879968 0.06860845
v 0.02349447 -0.07090260 0.06570228
v 0.02692086 -0.05502889 0.06790135
v 0.02338363 -0.05721502 0.06655024
v 0.02559740 -0.05379772 0.06650553
v 0.02689708 -0.05720032 0.06860845
v 0.02349447 -0.05509740 0.06570228
v 0.02479415 -0.06300000 0.06780521
v 0.02130449 -0.06300000 0.04481387
v 0.02130449 -0.06300000 0.06318613
v 0.02139155 -0.05639708 0.04570032
v 0.02139155 -0.06960292 0.04570032
v 0.02139155 -0.05639708 0.06229968
v 0.02139155 -0.06960292 0.06229968
f 67 64 7
f 33 120 118
f 118 120 103
f 14 65 68
f 68 46 14
f 14 46 52
f 52 49 14
f 145 162 160
f 42 157 160
f 160 162 42
f 39 162 145
f 26 118 103
f 46 68 66
f 64 67 69
f 69 68 65
f 65 20 69
f 69 20 64
f 50 52 46
f 50 100 102
f 45 65 14
f 14 49 45
f 47 45 49
f 3 45 47
f 61 146 5
f 61 107 19
f 5 146 48
f 48 51 5
f 11 157 122
f 129 20 126
f 64 20 129
f 125 157 11
f 125 160 157
f 130 135 24
f 130 137 135
f 36 137 130
f 24 93 88
f 5 51 104
f 104 61 5
f 107 61 104
f 102 100 30
f 103 120 30
f 30 100 103
f 13 59 44
f 33 118 115
f 21 66 68
f 21 69 67
f 68 69 21
f 84 66 21
f 67 87 21
f 21 87 84
f 103 100 82
f 82 26 103
f 84 26 82
f 82 66 84
f 52 50 16
f 16 50 102
f 145 160 35
f 35 124 145
f 160 125 35
f 126 124 35
f 3 124 63
f 65 45 63
f 63 45 3
f 63 124 126
f 126 20 63
f 63 20 65
f 144 39 142
f 142 47 144
f 3 47 142
f 142 39 145
f 145 124 142
f 142 124 3
f 149 61 19
f 146 61 149
f 144 47 15
f 15 47 49
f 49 52 53
f 51 48 53
f 52 16 53
f 53 16 51
f 53 15 49
f 48 15 53
f 27 88 95
f 95 88 93
f 24 135 78
f 78 93 24
f 90 93 78
f 78 8 90
f 159 157 42
f 159 122 157
f 34 122 159
f 36 129 131
f 131 129 126
f 126 35 131
f 131 35 125
f 127 129 36
f 36 130 127
f 64 129 127
f 7 64 127
f 84 87 89
f 89 26 84
f 89 87 27
f 27 87 85
f 85 88 27
f 85 87 67
f 85 67 7
f 7 127 77
f 77 127 130
f 77 85 7
f 88 85 77
f 77 130 24
f 24 88 77
f 19 107 112
f 107 114 112
f 19 112 62
f 109 6 62
f 62 112 109
f 55 6 58
f 58 6 109
f 107 104 31
f 31 114 107
f 105 114 31
f 101 10 105
f 101 30 120
f 72 22 70
f 134 22 71
f 99 119 117
f 33 115 117
f 117 119 33
f 75 72 13
f 13 44 75
f 28 93 90
f 28 95 93
f 4 50 46
f 46 66 4
f 100 50 4
f 66 82 4
f 4 82 100
f 12 139 158
f 42 162 158
f 156 149 154
f 154 149 19
f 19 62 154
f 56 59 13
f 36 131 128
f 128 131 125
f 128 125 11
f 128 137 36
f 86 89 27
f 27 95 86
f 97 113 110
f 110 10 97
f 105 10 110
f 110 114 105
f 116 101 120
f 10 101 116
f 116 120 33
f 33 119 116
f 97 10 116
f 116 119 97
f 57 96 2
f 2 44 57
f 57 44 59
f 29 119 99
f 99 96 29
f 97 119 29
f 29 113 97
f 106 31 104
f 106 104 51
f 106 16 102
f 51 16 106
f 102 30 108
f 30 101 108
f 108 101 105
f 108 106 102
f 105 31 108
f 31 106 108
f 132 134 71
f 71 8 132
f 132 78 135
f 8 78 132
f 11 122 133
f 133 128 11
f 137 128 133
f 123 70 22
f 22 134 123
f 80 115 9
f 80 117 115
f 92 28 90
f 94 28 92
f 73 44 2
f 73 75 44
f 72 75 76
f 71 22 76
f 76 22 72
f 146 149 40
f 40 149 156
f 156 147 40
f 162 39 143
f 143 147 12
f 12 158 143
f 143 158 162
f 161 158 139
f 161 139 38
f 161 159 42
f 42 158 161
f 38 139 155
f 17 153 55
f 17 56 54
f 55 153 151
f 151 6 55
f 151 62 6
f 151 154 62
f 55 58 60
f 59 56 60
f 60 17 55
f 56 17 60
f 72 70 43
f 54 56 43
f 13 72 43
f 43 56 13
f 89 86 83
f 118 26 83
f 26 89 83
f 83 86 9
f 9 115 83
f 83 115 118
f 32 112 114
f 114 110 32
f 109 112 32
f 32 110 113
f 18 57 59
f 59 60 18
f 18 60 58
f 121 123 34
f 70 123 121
f 134 132 37
f 37 132 135
f 135 137 37
f 137 133 37
f 136 133 122
f 136 123 134
f 134 37 136
f 136 37 133
f 136 122 34
f 34 123 136
f 91 28 94
f 94 80 91
f 91 80 9
f 95 28 91
f 9 86 91
f 91 86 95
f 75 73 23
f 23 76 75
f 79 73 2
f 2 96 79
f 79 96 99
f 150 40 147
f 147 143 150
f 150 39 144
f 150 143 39
f 140 138 38
f 38 155 140
f 54 138 140
f 140 155 153
f 140 17 54
f 153 17 140
f 153 155 41
f 41 151 153
f 154 151 41
f 156 154 41
f 57 18 98
f 96 57 98
f 113 29 98
f 98 29 96
f 1 138 54
f 54 43 1
f 1 43 70
f 1 121 138
f 70 121 1
f 138 121 141
f 159 161 141
f 38 138 141
f 141 161 38
f 34 159 141
f 141 121 34
f 76 23 74
f 74 8 71
f 71 76 74
f 90 8 74
f 74 92 90
f 74 23 92
f 99 117 25
f 25 79 99
f 117 80 25
f 25 80 94
f 94 92 81
f 73 79 81
f 92 23 81
f 81 23 73
f 81 25 94
f 79 25 81
f 146 40 148
f 40 150 148
f 148 48 146
f 148 150 144
f 144 15 148
f 148 15 48
f 156 41 152
f 12 147 152
f 152 147 156
f 152 139 12
f 152 155 139
f 152 41 155
f 111 18 58
f 111 98 18
f 111 58 109
f 113 98 111
f 109 32 111
f 111 32 113

