# https://github.com/mikedh/trimesh
v 0.03435416 -0.06705481 0.08364755
v 0.03017904 -0.06402988 0.07795524
v 0.02611917 -0.07104301 0.08756829
v 0.02194405 -0.06801808 0.08187598
v 0.02704736 -0.08117895 0.07632016
v 0.03340080 -0.07810198 0.07329523
v 0.02289741 -0.05697091 0.09222830
v 0.02925085 -0.05389394 0.08920337
v 0.02352962 -0.05441283 0.08640858
v 0.02735702 -0.07673932 0.07173689
v 0.02894119 -0.05833357 0.09378664
v 0.03276859 -0.08066006 0.07911495
v 0.03269903 -0.06533292 0.08059551
v 0.02359918 -0.06973997 0.08492802
v 0.02772830 -0.08177463 0.07966183
v 0.02437786 -0.07934719 0.07509388
v 0.03572220 -0.07790318 0.07585587
v 0.03237176 -0.07547575 0.07128792
v 0.03029821 -0.08007289 0.07452353
v 0.02392645 -0.05959714 0.09423561
v 0.02057601 -0.05716971 0.08966766
v 0.03192035 -0.05572570 0.09042965
v 0.02856991 -0.05329827 0.08586170
v 0.02600000 -0.05500000 0.09100000
v 0.02681863 -0.05359529 0.08462725
v 0.02061418 -0.05660010 0.08758123
v 0.02150694 -0.05531058 0.08907093
v 0.02660544 -0.05284138 0.08664350
v 0.03043089 -0.07466683 0.07078024
v 0.02422645 -0.07767164 0.07373422
v 0.02561556 -0.07927753 0.07332122
v 0.03071406 -0.07680833 0.07089379
v 0.02515915 -0.06537019 0.07868530
v 0.03207176 -0.05740125 0.09178931
v 0.02586732 -0.06040606 0.09474329
v 0.02558415 -0.05826456 0.09462974
v 0.03068265 -0.05579537 0.09220231
v 0.03568403 -0.07847279 0.07794230
v 0.02947958 -0.08147760 0.08089628
v 0.02969277 -0.08223151 0.07888003
v 0.03479127 -0.07976231 0.07645260
v 0.03113906 -0.06970270 0.08683823
v 0.03419602 -0.06655073 0.08283921
v 0.03098163 -0.06422186 0.07845675
v 0.02531658 -0.07085103 0.08706678
v 0.02210219 -0.06852217 0.08268432
v 0.02769137 -0.08132679 0.08051657
v 0.02787989 -0.08199348 0.07873359
v 0.02692048 -0.08108517 0.07992864
v 0.02386575 -0.07855508 0.07530076
v 0.02509415 -0.07997518 0.07493555
v 0.02412775 -0.07906180 0.07612107
v 0.02594531 -0.08069379 0.07738629
v 0.03599596 -0.07730488 0.07656269
v 0.03520648 -0.07844521 0.07524534
v 0.03573691 -0.07681538 0.07573108
v 0.03217033 -0.07453317 0.07134688
v 0.03242074 -0.07642691 0.07144730
v 0.03294418 -0.07479201 0.07192350
v 0.03418030 -0.07670559 0.07346555
v 0.02783358 -0.08114716 0.07576038
v 0.03272505 -0.07877822 0.07343151
v 0.02412788 -0.06053972 0.09417664
v 0.02387747 -0.05864598 0.09407623
v 0.02335403 -0.06028088 0.09360003
v 0.02030225 -0.05776801 0.08896083
v 0.02109173 -0.05662768 0.09027819
v 0.02056130 -0.05825752 0.08979245
v 0.02211791 -0.05836730 0.09205798
v 0.03243246 -0.05651782 0.09022276
v 0.03120406 -0.05509772 0.09058798
v 0.03217046 -0.05601109 0.08940246
v 0.02860684 -0.05374610 0.08500695
v 0.02841832 -0.05307941 0.08678994
v 0.02937773 -0.05398772 0.08559488
v 0.03035290 -0.05437910 0.08813724
v 0.02357316 -0.05629467 0.09209201
v 0.02846463 -0.05392574 0.08976315
v 0.02769655 -0.05390050 0.08436531
v 0.02595935 -0.05349647 0.08505666
v 0.02772672 -0.05329962 0.08516302
v 0.02032209 -0.05747194 0.08787634
v 0.02114533 -0.05582790 0.08734865
v 0.02043250 -0.05683220 0.08863586
v 0.02157561 -0.05566133 0.08996802
v 0.02160937 -0.05515763 0.08812297
v 0.02090185 -0.05615426 0.08941904
v 0.02231198 -0.05502071 0.08975431
v 0.02092192 -0.05585480 0.08832214
v 0.02739722 -0.05284193 0.08719631
v 0.02584854 -0.05310460 0.08610467
v 0.02761464 -0.05290326 0.08622303
v 0.02656179 -0.05296253 0.08773094
v 0.02669394 -0.05305942 0.08557404
v 0.02398657 -0.05391996 0.08786968
v 0.03116150 -0.07411271 0.07108300
v 0.02969558 -0.07529112 0.07073446
v 0.03145445 -0.07504468 0.07087341
v 0.02862004 -0.06403759 0.07756027
v 0.02378704 -0.07768415 0.07459403
v 0.02488156 -0.07762254 0.07302645
v 0.02416022 -0.07857726 0.07434625
v 0.02226660 -0.06711456 0.08058519
v 0.02573749 -0.07993896 0.07401415
v 0.02560360 -0.07845726 0.07281179
v 0.02489053 -0.07942153 0.07412912
v 0.02656160 -0.07981017 0.07346408
v 0.02481092 -0.07854064 0.07341430
v 0.03155910 -0.07711956 0.07124244
v 0.02984276 -0.07640423 0.07079348
v 0.03160332 -0.07617053 0.07093311
v 0.03081141 -0.07775199 0.07144072
v 0.03058294 -0.07574525 0.07066620
v 0.02813652 -0.07812800 0.07196154
v 0.02344319 -0.05499040 0.08563952
v 0.02701996 -0.07585492 0.07192856
v 0.02593451 -0.05415635 0.08430682
v 0.02110327 -0.05649612 0.08660702
v 0.02940129 -0.07437920 0.07101752
v 0.02457005 -0.07671897 0.07331771
v 0.03251117 -0.05738874 0.09092949
v 0.03141665 -0.05745035 0.09249707
v 0.03213798 -0.05649563 0.09117728
v 0.02513671 -0.06096019 0.09444053
v 0.02660263 -0.05978178 0.09478907
v 0.02484376 -0.06002822 0.09465012
v 0.02473911 -0.05795333 0.09428109
v 0.02645545 -0.05866866 0.09473004
v 0.02469489 -0.05890237 0.09459042
v 0.02548680 -0.05732090 0.09408281
v 0.02571527 -0.05932764 0.09485733
v 0.03056072 -0.05513393 0.09150938
v 0.03069461 -0.05661563 0.09271174
v 0.03140768 -0.05565136 0.09139441
v 0.02973661 -0.05526272 0.09205944
v 0.03148729 -0.05653226 0.09210922
v 0.02816169 -0.05694489 0.09356199
v 0.03597612 -0.07760095 0.07764719
v 0.03515288 -0.07924499 0.07817488
v 0.03586571 -0.07824069 0.07688767
v 0.03403161 -0.06795833 0.08493833
v 0.02860166 -0.08117240 0.08115822
v 0.03033886 -0.08157642 0.08046687
v 0.02857149 -0.08177327 0.08036051
v 0.02767817 -0.07103530 0.08796326
v 0.02890099 -0.08223096 0.07832722
v 0.03044967 -0.08196829 0.07941886
v 0.02868357 -0.08216963 0.07930050
v 0.02973642 -0.08211037 0.07779259
v 0.02960427 -0.08201347 0.07994949
v 0.03472260 -0.07941156 0.07555551
v 0.03468884 -0.07991527 0.07740056
v 0.03539636 -0.07891863 0.07610449
v 0.03398623 -0.08005219 0.07576922
v 0.03537629 -0.07921809 0.07720139
v 0.03231164 -0.08115293 0.07765385
v 0.02927825 -0.05921797 0.09359497
v 0.03285502 -0.08008249 0.07988401
v 0.03172816 -0.05835392 0.09220582
v 0.02689692 -0.06069369 0.09450601
v 0.03519494 -0.07857677 0.07891651
v 0.03036370 -0.08091654 0.08121670
f 124 142 145
f 103 100 82
f 3 142 124
f 14 65 68
f 68 46 14
f 63 3 124
f 45 65 14
f 45 63 65
f 3 63 45
f 100 103 120
f 49 45 14
f 82 100 4
f 4 50 46
f 100 50 4
f 124 145 160
f 42 157 160
f 75 72 13
f 118 103 82
f 118 120 103
f 118 115 33
f 33 120 118
f 107 104 31
f 107 112 19
f 31 104 106
f 33 119 116
f 116 120 33
f 100 120 30
f 54 56 43
f 13 72 43
f 43 56 13
f 13 56 59
f 154 149 19
f 142 3 47
f 3 45 47
f 45 49 47
f 46 68 66
f 66 4 46
f 82 4 66
f 77 130 24
f 24 88 77
f 69 68 65
f 162 145 142
f 162 160 145
f 162 143 158
f 162 158 42
f 42 160 162
f 124 160 35
f 125 160 157
f 125 35 160
f 72 75 76
f 92 28 90
f 37 137 133
f 133 137 128
f 159 122 157
f 159 157 42
f 136 133 122
f 37 133 136
f 26 118 82
f 115 118 83
f 118 26 83
f 88 95 27
f 27 95 86
f 126 63 124
f 124 35 126
f 36 137 130
f 128 137 36
f 5 104 61
f 104 107 61
f 19 149 61
f 61 107 19
f 120 116 101
f 101 30 120
f 97 119 29
f 97 116 119
f 112 107 114
f 105 110 114
f 31 105 114
f 114 107 31
f 44 75 13
f 13 59 44
f 29 119 96
f 119 99 96
f 112 114 32
f 32 114 110
f 5 61 146
f 146 61 149
f 146 149 40
f 40 148 146
f 142 47 144
f 68 69 21
f 21 66 68
f 158 143 12
f 143 147 12
f 12 147 152
f 152 147 156
f 149 154 156
f 40 149 156
f 156 147 40
f 94 28 92
f 91 95 28
f 28 94 91
f 91 94 80
f 86 95 91
f 23 76 75
f 71 76 74
f 76 23 74
f 92 90 74
f 74 23 92
f 11 125 157
f 157 122 11
f 128 125 11
f 122 133 11
f 11 133 128
f 42 158 161
f 161 159 42
f 37 136 134
f 86 83 89
f 89 27 86
f 87 27 89
f 89 83 26
f 88 27 85
f 85 27 87
f 85 77 88
f 7 77 85
f 131 125 128
f 129 126 131
f 128 36 131
f 131 36 129
f 35 125 131
f 131 126 35
f 127 36 130
f 129 36 127
f 127 64 129
f 7 64 127
f 130 77 127
f 127 77 7
f 49 53 15
f 15 47 49
f 148 144 15
f 15 144 47
f 108 101 105
f 108 105 31
f 31 106 108
f 30 101 108
f 10 110 105
f 105 101 10
f 10 101 116
f 10 97 110
f 116 97 10
f 57 96 2
f 2 44 57
f 57 44 59
f 154 151 41
f 152 156 41
f 41 156 154
f 17 56 54
f 62 151 154
f 19 112 62
f 62 154 19
f 142 144 39
f 39 162 142
f 143 162 39
f 150 147 143
f 150 144 148
f 150 148 40
f 40 147 150
f 143 39 150
f 150 39 144
f 20 69 65
f 20 64 69
f 65 63 20
f 20 126 129
f 63 126 20
f 129 64 20
f 67 21 69
f 67 64 7
f 69 64 67
f 7 85 67
f 87 21 67
f 67 85 87
f 115 83 9
f 9 80 115
f 9 83 86
f 9 91 80
f 86 91 9
f 81 94 92
f 92 23 81
f 37 134 132
f 132 134 71
f 93 88 24
f 24 78 93
f 93 78 90
f 93 95 88
f 28 95 93
f 93 90 28
f 158 12 139
f 139 161 158
f 139 12 152
f 54 43 1
f 159 161 141
f 141 121 159
f 122 159 34
f 159 121 34
f 34 136 122
f 71 134 22
f 72 76 22
f 22 76 71
f 84 26 82
f 84 89 26
f 82 66 84
f 87 89 84
f 84 21 87
f 66 21 84
f 50 16 52
f 52 16 53
f 52 53 49
f 46 50 52
f 14 46 52
f 52 49 14
f 51 106 104
f 51 16 106
f 51 104 5
f 53 16 51
f 48 146 148
f 148 15 48
f 5 146 48
f 48 15 53
f 48 51 5
f 53 51 48
f 100 30 102
f 30 108 102
f 102 50 100
f 102 108 106
f 102 16 50
f 106 16 102
f 29 96 98
f 96 57 98
f 153 41 151
f 112 32 109
f 109 62 112
f 73 23 75
f 73 81 23
f 73 44 2
f 75 44 73
f 81 73 79
f 79 73 2
f 2 96 79
f 79 96 99
f 135 132 78
f 24 130 135
f 135 78 24
f 130 137 135
f 135 137 37
f 37 132 135
f 8 74 90
f 71 74 8
f 90 78 8
f 78 132 8
f 8 132 71
f 161 139 38
f 121 1 70
f 72 22 70
f 70 43 72
f 70 1 43
f 110 97 113
f 113 32 110
f 113 97 29
f 29 98 113
f 151 62 6
f 62 109 6
f 117 79 99
f 117 99 119
f 115 80 117
f 33 115 117
f 117 119 33
f 94 81 25
f 80 94 25
f 81 79 25
f 25 117 80
f 79 117 25
f 138 141 161
f 161 38 138
f 138 1 121
f 121 141 138
f 54 1 138
f 155 38 139
f 155 139 152
f 152 41 155
f 41 153 155
f 123 22 134
f 123 70 22
f 123 134 136
f 121 70 123
f 136 34 123
f 123 34 121
f 151 6 55
f 55 153 151
f 17 153 55
f 18 57 59
f 18 98 57
f 140 138 38
f 38 155 140
f 54 138 140
f 140 155 153
f 140 17 54
f 140 153 17
f 98 18 111
f 111 113 98
f 111 109 32
f 32 113 111
f 58 55 6
f 58 6 109
f 109 111 58
f 58 111 18
f 60 18 59
f 60 58 18
f 60 59 56
f 55 58 60
f 56 17 60
f 17 55 60

