# https://github.com/mikedh/trimesh
v 0.02206218 0.06943359 0.09968945
v 0.02553437 0.07212906 0.09339162
v 0.03083807 0.06629180 0.10318317
v 0.03431025 0.06898727 0.09688535
v 0.03368692 0.08174805 0.10668621
v 0.02691617 0.08417200 0.10399074
v 0.02945627 0.05424886 0.09258406
v 0.02268552 0.05667280 0.08988859
v 0.02847537 0.05821026 0.08766901
v 0.03239753 0.08370432 0.10074289
v 0.02397491 0.05471653 0.09583191
v 0.02789707 0.08021060 0.10890579
v 0.02333745 0.07094630 0.09635708
v 0.03303499 0.06747456 0.10021772
v 0.03300139 0.07927163 0.10900627
v 0.03578774 0.08143469 0.10395241
v 0.02448243 0.08232144 0.10561483
v 0.02726878 0.08448450 0.10056097
v 0.03037244 0.08342086 0.10557480
v 0.02910366 0.05393636 0.09601383
v 0.03189001 0.05609941 0.09095997
v 0.02058470 0.05698617 0.09262238
v 0.02337105 0.05914922 0.08756852
v 0.02600000 0.05500000 0.09100000
v 0.02520638 0.06001136 0.08681529
v 0.03181834 0.05764426 0.08944755
v 0.03050272 0.05593284 0.08930867
v 0.02506935 0.05787800 0.08714561
v 0.02892279 0.08416804 0.09920333
v 0.03553476 0.08180094 0.10183559
v 0.03469384 0.08317511 0.10327906
v 0.02926047 0.08512027 0.10111601
v 0.03067277 0.07114075 0.09377731
v 0.02083768 0.05661992 0.09473921
v 0.02744965 0.05425281 0.09737146
v 0.02711197 0.05330058 0.09545879
v 0.02167860 0.05524575 0.09329574
v 0.02455410 0.08077660 0.10712725
v 0.03116606 0.07840950 0.10975951
v 0.03130309 0.08054285 0.10942919
v 0.02586972 0.08248802 0.10726613
v 0.02569967 0.06728011 0.10279749
v 0.02211829 0.06986665 0.09882816
v 0.02479149 0.07194187 0.09397951
v 0.03158095 0.06647899 0.10259529
v 0.03425415 0.06855421 0.09774664
v 0.03285537 0.07831810 0.10905063
v 0.03297655 0.08020465 0.10875853
v 0.03355900 0.07856306 0.10838490
v 0.03603690 0.08078794 0.10328000
v 0.03529327 0.08200313 0.10455647
v 0.03588154 0.08036606 0.10417229
v 0.03453525 0.08038657 0.10657120
v 0.02400532 0.08148645 0.10552738
v 0.02516873 0.08299987 0.10565019
v 0.02416350 0.08192668 0.10464450
v 0.02718684 0.08395628 0.09975674
v 0.02748545 0.08479835 0.10144814
v 0.02648603 0.08372968 0.10043189
v 0.02575936 0.08352836 0.10307748
v 0.03296075 0.08237033 0.10655218
v 0.02774799 0.08423651 0.10447696
v 0.02918559 0.05446458 0.09681805
v 0.02888699 0.05362251 0.09512666
v 0.02988641 0.05469118 0.09614291
v 0.03236712 0.05693441 0.09104742
v 0.03120371 0.05542099 0.09092460
v 0.03220894 0.05649418 0.09193030
v 0.03061308 0.05489250 0.09349732
v 0.02033554 0.05763292 0.09329480
v 0.02107917 0.05641773 0.09201833
v 0.02049090 0.05805480 0.09240251
v 0.02351707 0.06010275 0.08752417
v 0.02339589 0.05821621 0.08781627
v 0.02281344 0.05985780 0.08818990
v 0.02183719 0.05803429 0.09000360
v 0.02862444 0.05418435 0.09209784
v 0.02341169 0.05605053 0.09002261
v 0.02447105 0.06055088 0.08713265
v 0.02597287 0.05942672 0.08675866
v 0.02422042 0.05958860 0.08703503
v 0.03232987 0.05773740 0.09026129
v 0.03110309 0.05759009 0.08880103
v 0.03199374 0.05680573 0.09012962
v 0.03048262 0.05533441 0.09006629
v 0.03041925 0.05670053 0.08872884
v 0.03130208 0.05590599 0.09005661
v 0.02960785 0.05536517 0.08958447
v 0.03126441 0.05671816 0.08926149
v 0.02427864 0.05755545 0.08759645
v 0.02590164 0.05831784 0.08693036
v 0.02414838 0.05846703 0.08720869
v 0.02507891 0.05698654 0.08778147
v 0.02511327 0.05892028 0.08681269
v 0.02780699 0.05680857 0.08808741
v 0.02804657 0.08379179 0.09905107
v 0.02980784 0.08435401 0.09954189
v 0.02804726 0.08446305 0.09979115
v 0.02705107 0.07216927 0.09285821
v 0.03590540 0.08097831 0.10217970
v 0.03493806 0.08251738 0.10158425
v 0.03582058 0.08168018 0.10288575
v 0.03382182 0.06974532 0.09555368
v 0.03472468 0.08290777 0.10420647
v 0.03450096 0.08323165 0.10233455
v 0.03537849 0.08240262 0.10364463
v 0.03393383 0.08348399 0.10400438
v 0.03524549 0.08259517 0.10253175
v 0.02852070 0.08512881 0.10173664
v 0.02998336 0.08484897 0.10053606
v 0.02822479 0.08496367 0.10079670
v 0.02940488 0.08510536 0.10220138
v 0.02909435 0.08479730 0.10008295
v 0.03203763 0.08430776 0.10218956
v 0.02877131 0.05912596 0.08774909
v 0.03245378 0.08306203 0.10002400
v 0.02623241 0.06037610 0.08693083
v 0.03138097 0.05853290 0.08898050
v 0.02980968 0.08362836 0.09885506
v 0.03495824 0.08178516 0.10090473
v 0.02046704 0.05744255 0.09439509
v 0.02143438 0.05590347 0.09499055
v 0.02055186 0.05674068 0.09368905
v 0.02832587 0.05462906 0.09752373
v 0.02656460 0.05406684 0.09703291
v 0.02832518 0.05395781 0.09678365
v 0.02785174 0.05329204 0.09483816
v 0.02638908 0.05357189 0.09603874
v 0.02814765 0.05345719 0.09577810
v 0.02696756 0.05331550 0.09437342
v 0.02727809 0.05362356 0.09649185
v 0.02164776 0.05551309 0.09236833
v 0.02187148 0.05518920 0.09424025
v 0.02099395 0.05601824 0.09293017
v 0.02243861 0.05493687 0.09257042
v 0.02112695 0.05582568 0.09404305
v 0.02433481 0.05411309 0.09438524
v 0.02404257 0.08068346 0.10631351
v 0.02526935 0.08083076 0.10777377
v 0.02437870 0.08161512 0.10644517
v 0.02255061 0.06867554 0.10102111
v 0.03190139 0.07786998 0.10944215
v 0.03039957 0.07899413 0.10981614
v 0.03215202 0.07883225 0.10953977
v 0.02932137 0.06625159 0.10371659
v 0.03209380 0.08086541 0.10897835
v 0.03047080 0.08010302 0.10964444
v 0.03222406 0.07995382 0.10936611
v 0.03129353 0.08143432 0.10879332
v 0.03125917 0.07950057 0.10976211
v 0.02588982 0.08308645 0.10650851
v 0.02595319 0.08172033 0.10784596
v 0.02507036 0.08251487 0.10651819
v 0.02676459 0.08305569 0.10699033
v 0.02510803 0.08170270 0.10731331
v 0.02856545 0.08161229 0.10848739
v 0.02391866 0.05535883 0.09655080
v 0.02760113 0.07929489 0.10882570
v 0.02141420 0.05663570 0.09567007
v 0.02656276 0.05479250 0.09771974
v 0.02499147 0.07988796 0.10759430
v 0.03014003 0.07804476 0.10964397
f 124 142 145
f 103 100 82
f 3 142 124
f 14 65 68
f 68 46 14
f 63 3 124
f 45 65 14
f 45 63 65
f 3 63 45
f 100 103 120
f 49 45 14
f 102 50 100
f 82 100 4
f 4 50 46
f 100 50 4
f 124 145 160
f 42 157 160
f 75 72 13
f 118 103 82
f 118 120 103
f 118 115 33
f 33 120 118
f 36 137 130
f 128 137 36
f 107 104 31
f 107 112 19
f 33 119 116
f 116 120 33
f 54 56 43
f 13 72 43
f 43 56 13
f 13 56 59
f 154 149 19
f 142 3 47
f 3 45 47
f 45 49 47
f 31 104 106
f 100 120 30
f 30 102 100
f 46 68 66
f 66 4 46
f 82 4 66
f 66 84 82
f 77 130 24
f 24 88 77
f 69 68 65
f 162 145 142
f 162 160 145
f 162 143 158
f 162 158 42
f 42 160 162
f 124 160 35
f 125 160 157
f 125 35 160
f 72 75 76
f 92 28 90
f 37 137 133
f 133 137 128
f 159 122 157
f 159 157 42
f 115 118 83
f 88 95 27
f 27 95 86
f 127 36 130
f 130 77 127
f 127 77 7
f 5 104 61
f 104 107 61
f 19 149 61
f 61 107 19
f 120 116 101
f 101 30 120
f 97 119 29
f 97 116 119
f 112 107 114
f 105 110 114
f 31 105 114
f 114 107 31
f 44 75 13
f 13 59 44
f 29 119 96
f 119 99 96
f 112 114 32
f 32 114 110
f 52 53 49
f 46 50 52
f 14 46 52
f 52 49 14
f 5 61 146
f 146 61 149
f 146 149 40
f 40 148 146
f 48 146 148
f 5 146 48
f 142 47 144
f 51 106 104
f 51 104 5
f 5 48 51
f 51 48 53
f 158 143 12
f 143 147 12
f 12 147 152
f 152 147 156
f 149 154 156
f 40 149 156
f 156 147 40
f 131 125 128
f 128 36 131
f 35 125 131
f 94 28 92
f 91 95 28
f 28 94 91
f 91 94 80
f 86 95 91
f 23 76 75
f 71 76 74
f 76 23 74
f 92 90 74
f 74 23 92
f 11 125 157
f 157 122 11
f 128 125 11
f 122 133 11
f 11 133 128
f 42 158 161
f 161 159 42
f 37 133 136
f 136 134 37
f 136 133 122
f 71 134 22
f 72 76 22
f 22 76 71
f 26 118 82
f 26 83 118
f 82 84 26
f 88 27 85
f 27 87 85
f 87 67 85
f 85 67 7
f 85 77 88
f 7 77 85
f 86 83 89
f 84 87 89
f 89 26 84
f 83 26 89
f 89 27 86
f 89 87 27
f 64 127 7
f 7 67 64
f 64 67 69
f 102 30 108
f 30 101 108
f 108 101 105
f 108 106 102
f 108 105 31
f 31 106 108
f 10 110 105
f 105 101 10
f 10 101 116
f 10 97 110
f 116 97 10
f 57 96 2
f 2 44 57
f 57 44 59
f 154 151 41
f 152 156 41
f 41 156 154
f 17 56 54
f 62 151 154
f 19 112 62
f 62 154 19
f 49 53 15
f 53 48 15
f 15 47 49
f 15 48 148
f 148 144 15
f 15 144 47
f 142 144 39
f 39 162 142
f 143 162 39
f 150 147 143
f 150 144 148
f 150 148 40
f 40 147 150
f 143 39 150
f 150 39 144
f 53 52 16
f 16 51 53
f 16 52 50
f 102 106 16
f 50 102 16
f 106 51 16
f 36 127 129
f 129 131 36
f 127 64 129
f 115 83 9
f 9 80 115
f 9 83 86
f 9 91 80
f 86 91 9
f 81 94 92
f 92 23 81
f 37 134 132
f 132 134 71
f 93 88 24
f 24 78 93
f 93 78 90
f 93 95 88
f 28 95 93
f 93 90 28
f 158 12 139
f 139 161 158
f 139 12 152
f 54 43 1
f 159 161 141
f 141 121 159
f 122 159 34
f 159 121 34
f 34 136 122
f 123 22 134
f 134 136 123
f 123 34 121
f 136 34 123
f 68 69 21
f 69 67 21
f 21 66 68
f 21 87 84
f 84 66 21
f 21 67 87
f 20 69 65
f 20 64 69
f 65 63 20
f 20 129 64
f 29 96 98
f 96 57 98
f 153 41 151
f 112 32 109
f 109 62 112
f 126 63 124
f 131 129 126
f 124 35 126
f 35 131 126
f 126 20 63
f 129 20 126
f 73 23 75
f 73 81 23
f 73 44 2
f 75 44 73
f 81 73 79
f 79 73 2
f 2 96 79
f 79 96 99
f 135 132 78
f 24 130 135
f 135 78 24
f 130 137 135
f 135 137 37
f 37 132 135
f 8 74 90
f 71 74 8
f 90 78 8
f 78 132 8
f 8 132 71
f 161 139 38
f 121 1 70
f 70 123 121
f 70 43 72
f 70 1 43
f 72 22 70
f 22 123 70
f 110 97 113
f 113 32 110
f 113 97 29
f 29 98 113
f 151 62 6
f 62 109 6
f 117 79 99
f 117 99 119
f 115 80 117
f 33 115 117
f 117 119 33
f 94 81 25
f 80 94 25
f 81 79 25
f 25 117 80
f 79 117 25
f 138 141 161
f 161 38 138
f 138 1 121
f 121 141 138
f 54 1 138
f 155 38 139
f 155 139 152
f 152 41 155
f 41 153 155
f 151 6 55
f 55 153 151
f 17 153 55
f 18 57 59
f 18 98 57
f 140 138 38
f 38 155 140
f 54 138 140
f 140 155 153
f 140 17 54
f 140 153 17
f 98 18 111
f 111 113 98
f 111 109 32
f 32 113 111
f 58 55 6
f 58 6 109
f 109 111 58
f 58 111 18
f 60 18 59
f 60 58 18
f 60 59 56
f 55 58 60
f 56 17 60
f 17 55 60

