# https://github.com/mikedh/trimesh
v 0.04237942 -0.05461948 0.04900000
v 0.04362058 -0.05461948 0.04900000
v 0.04237942 -0.07138052 0.04900000
v 0.04362058 -0.07138052 0.04900000
v 0.04300000 -0.07112058 0.05188052
v 0.04300000 -0.05487942 0.05188052
v 0.04300000 -0.07112058 0.04611948
v 0.04300000 -0.05487942 0.04611948
v 0.04388052 -0.06300000 0.04637942
v 0.04388052 -0.06300000 0.05162058
v 0.04211948 -0.06300000 0.04637942
v 0.04211948 -0.06300000 0.05162058
v 0.04300000 -0.05450000 0.04900000
v 0.04300000 -0.07150000 0.04900000
v 0.04255279 -0.07134721 0.05160000
v 0.04344721 -0.07134721 0.05160000
v 0.04255279 -0.05465279 0.05160000
v 0.04344721 -0.05465279 0.05160000
v 0.04300000 -0.06300000 0.05200000
v 0.04255279 -0.07134721 0.04640000
v 0.04344721 -0.07134721 0.04640000
v 0.04255279 -0.05465279 0.04640000
v 0.04344721 -0.05465279 0.04640000
v 0.04300000 -0.06300000 0.04600000
v 0.04384721 -0.05490000 0.04655279
v 0.04384721 -0.07110000 0.04655279
v 0.04360000 -0.07094721 0.04615279
v 0.04360000 -0.05505279 0.04615279
v 0.04384721 -0.05490000 0.05144721
v 0.04384721 -0.07110000 0.05144721
v 0.04360000 -0.07094721 0.05184721
v 0.04360000 -0.05505279 0.05184721
v 0.04400000 -0.06300000 0.04900000
v 0.04215279 -0.05490000 0.04655279
v 0.04215279 -0.07110000 0.04655279
v 0.04240000 -0.07094721 0.04615279
v 0.04240000 -0.05505279 0.04615279
v 0.04215279 -0.05490000 0.05144721
v 0.04215279 -0.07110000 0.05144721
v 0.04240000 -0.07094721 0.05184721
v 0.04240000 -0.05505279 0.05184721
v 0.04200000 -0.06300000 0.04900000
v 0.04258139 -0.05453045 0.04900000
v 0.04341861 -0.05453045 0.04900000
v 0.04258139 -0.07146955 0.04900000
v 0.04341861 -0.07146955 0.04900000
v 0.04245289 -0.07139013 0.05140791
v 0.04267150 -0.07125502 0.05176164
v 0.04267003 -0.07146085 0.05141029
v 0.04354711 -0.07139013 0.05140791
v 0.04332850 -0.07125502 0.05176164
v 0.04332997 -0.07146085 0.05141029
v 0.04300000 -0.07138052 0.05162058
v 0.04245289 -0.05460987 0.05140791
v 0.04267150 -0.05474498 0.05176164
v 0.04267003 -0.05453915 0.05141029
v 0.04354711 -0.05460987 0.05140791
v 0.04332850 -0.05474498 0.05176164
v 0.04332997 -0.05453915 0.05141029
v 0.04300000 -0.05461948 0.05162058
v 0.04300000 -0.07091861 0.05196955
v 0.04300000 -0.05508139 0.05196955
v 0.04245289 -0.07139013 0.04659209
v 0.04267150 -0.07125502 0.04623836
v 0.04267003 -0.07146085 0.04658971
v 0.04354711 -0.07139013 0.04659209
v 0.04332850 -0.07125502 0.04623836
v 0.04332997 -0.07146085 0.04658971
v 0.04300000 -0.07138052 0.04637942
v 0.04245289 -0.05460987 0.04659209
v 0.04267150 -0.05474498 0.04623836
v 0.04267003 -0.05453915 0.04658971
v 0.04354711 -0.05460987 0.04659209
v 0.04332850 -0.05474498 0.04623836
v 0.04332997 -0.05453915 0.04658971
v 0.04300000 -0.05461948 0.04637942
v 0.04300000 -0.07091861 0.04603045
v 0.04300000 -0.05508139 0.04603045
v 0.04375502 -0.05473836 0.04667150
v 0.04389013 -0.05509209 0.04645289
v 0.04367023 -0.05474945 0.04645974
v 0.04375502 -0.07126164 0.04667150
v 0.04389013 -0.07090791 0.04645289
v 0.04367023 -0.07125055 0.04645974
v 0.04340791 -0.07104711 0.04610987
v 0.04376164 -0.07082850 0.04624498
v 0.04354026 -0.07117023 0.04624945
v 0.04341029 -0.07082997 0.04603915
v 0.04375055 -0.07104026 0.04632977
v 0.04340791 -0.05495289 0.04610987
v 0.04376164 -0.05517150 0.04624498
v 0.04354026 -0.05482977 0.04624945
v 0.04341029 -0.05517003 0.04603915
v 0.04375055 -0.05495974 0.04632977
v 0.04362058 -0.06300000 0.04611948
v 0.04375502 -0.05473836 0.05132850
v 0.04389013 -0.05509209 0.05154711
v 0.04367023 -0.05474945 0.05154026
v 0.04388052 -0.05487942 0.04900000
v 0.04375502 -0.07126164 0.05132850
v 0.04389013 -0.07090791 0.05154711
v 0.04367023 -0.07125055 0.05154026
v 0.04388052 -0.07112058 0.04900000
v 0.04340791 -0.07104711 0.05189013
v 0.04376164 -0.07082850 0.05175502
v 0.04354026 -0.07117023 0.05175055
v 0.04341029 -0.07082997 0.05196085
v 0.04375055 -0.07104026 0.05167023
v 0.04340791 -0.05495289 0.05189013
v 0.04376164 -0.05517150 0.05175502
v 0.04354026 -0.05482977 0.05175055
v 0.04341029 -0.05517003 0.05196085
v 0.04375055 -0.05495974 0.05167023
v 0.04362058 -0.06300000 0.05188052
v 0.04396955 -0.06300000 0.04658139
v 0.04396955 -0.06300000 0.05141861
v 0.04396085 -0.05508971 0.04667003
v 0.04396085 -0.07091029 0.04667003
v 0.04396085 -0.05508971 0.05132997
v 0.04396085 -0.07091029 0.05132997
v 0.04224498 -0.05473836 0.04667150
v 0.04210987 -0.05509209 0.04645289
v 0.04232977 -0.05474945 0.04645974
v 0.04224498 -0.07126164 0.04667150
v 0.04210987 -0.07090791 0.04645289
v 0.04232977 -0.07125055 0.04645974
v 0.04259209 -0.07104711 0.04610987
v 0.04223836 -0.07082850 0.04624498
v 0.04245974 -0.07117023 0.04624945
v 0.04258971 -0.07082997 0.04603915
v 0.04224945 -0.07104026 0.04632977
v 0.04259209 -0.05495289 0.04610987
v 0.04223836 -0.05517150 0.04624498
v 0.04245974 -0.05482977 0.04624945
v 0.04258971 -0.05517003 0.04603915
v 0.04224945 -0.05495974 0.04632977
v 0.04237942 -0.06300000 0.04611948
v 0.04224498 -0.05473836 0.05132850
v 0.04210987 -0.05509209 0.05154711
v 0.04232977 -0.05474945 0.05154026
v 0.04211948 -0.05487942 0.04900000
v 0.04224498 -0.07126164 0.05132850
v 0.04210987 -0.07090791 0.05154711
v 0.04232977 -0.07125055 0.05154026
v 0.04211948 -0.07112058 0.04900000
v 0.04259209 -0.07104711 0.05189013
v 0.04223836 -0.07082850 0.05175502
v 0.04245974 -0.07117023 0.05175055
v 0.04258971 -0.07082997 0.05196085
v 0.04224945 -0.07104026 0.05167023
v 0.04259209 -0.05495289 0.05189013
v 0.04223836 -0.05517150 0.05175502
v 0.04245974 -0.05482977 0.05175055
v 0.04258971 -0.05517003 0.05196085
v 0.04224945 -0.05495974 0.05167023
v 0.04237942 -0.06300000 0.05188052
v 0.04203045 -0.06300000 0.04658139
v 0.04203045 -0.06300000 0.05141861
v 0.04203915 -0.05508971 0.04667003
v 0.04203915 -0.07091029 0.04667003
v 0.04203915 -0.05508971 0.05132997
v 0.04203915 -0.07091029 0.05132997
f 162 158 42
f 143 158 162
f 33 116 120
f 120 116 101
f 159 157 42
f 42 157 160
f 160 162 42
f 160 157 125
f 118 115 33
f 33 120 118
f 83 115 118
f 125 157 11
f 24 77 130
f 9 115 83
f 88 77 24
f 12 158 143
f 149 61 19
f 24 130 135
f 135 130 137
f 101 116 10
f 19 61 107
f 66 46 68
f 14 65 68
f 68 46 14
f 30 120 101
f 4 46 66
f 4 50 46
f 137 130 128
f 125 11 128
f 86 88 95
f 86 9 83
f 147 149 156
f 147 12 143
f 156 152 147
f 147 152 12
f 93 88 24
f 95 88 93
f 133 135 137
f 137 128 133
f 133 128 11
f 114 107 105
f 101 10 105
f 46 50 52
f 52 49 14
f 14 46 52
f 50 4 100
f 120 30 100
f 36 128 130
f 63 20 65
f 126 20 63
f 45 65 14
f 14 49 45
f 45 63 65
f 3 63 45
f 49 47 45
f 47 3 45
f 142 3 47
f 154 152 156
f 154 149 19
f 156 149 154
f 158 12 139
f 12 152 139
f 15 47 49
f 149 147 40
f 5 48 51
f 24 135 78
f 78 93 24
f 95 93 91
f 91 86 95
f 9 86 91
f 7 67 64
f 88 86 27
f 69 68 65
f 64 67 69
f 65 20 69
f 69 20 64
f 16 52 50
f 16 106 51
f 51 48 53
f 49 52 53
f 53 15 49
f 48 15 53
f 53 16 51
f 52 16 53
f 101 105 108
f 108 30 101
f 51 106 104
f 104 5 51
f 104 107 61
f 61 5 104
f 82 100 4
f 82 4 66
f 127 36 130
f 127 7 64
f 127 130 77
f 77 7 127
f 128 36 131
f 125 128 131
f 126 63 124
f 124 63 3
f 3 142 124
f 162 142 39
f 143 162 39
f 19 107 112
f 112 107 114
f 158 139 161
f 42 158 161
f 161 159 42
f 149 40 146
f 48 5 146
f 61 149 146
f 146 5 61
f 115 9 80
f 9 91 80
f 122 133 11
f 157 159 122
f 122 11 157
f 135 133 37
f 88 27 85
f 67 7 85
f 77 88 85
f 85 7 77
f 84 82 66
f 50 100 102
f 102 108 106
f 102 16 50
f 106 16 102
f 102 100 30
f 30 108 102
f 106 108 31
f 31 108 105
f 31 104 106
f 31 105 107
f 107 104 31
f 118 82 26
f 83 118 26
f 82 84 26
f 120 100 103
f 103 118 120
f 100 82 103
f 103 82 118
f 36 127 129
f 129 131 36
f 129 127 64
f 126 131 129
f 64 20 129
f 129 20 126
f 35 131 126
f 125 131 35
f 126 124 35
f 35 124 160
f 35 160 125
f 145 142 162
f 162 160 145
f 145 124 142
f 160 124 145
f 47 15 144
f 144 142 47
f 144 39 142
f 62 154 19
f 19 112 62
f 110 112 114
f 114 105 110
f 110 105 10
f 154 62 151
f 155 139 152
f 93 78 90
f 33 115 117
f 115 80 117
f 21 84 66
f 66 68 21
f 68 69 21
f 21 69 67
f 87 85 27
f 67 85 87
f 87 21 67
f 84 21 87
f 150 40 147
f 150 147 143
f 143 39 150
f 39 144 150
f 97 10 116
f 97 110 10
f 70 123 121
f 38 138 161
f 38 161 139
f 139 155 38
f 41 155 152
f 152 154 41
f 154 151 41
f 153 41 151
f 155 41 153
f 74 90 8
f 8 90 78
f 94 80 91
f 22 134 123
f 22 123 70
f 136 37 133
f 136 134 37
f 133 122 136
f 123 134 136
f 89 27 86
f 89 87 27
f 89 86 83
f 84 87 89
f 83 26 89
f 89 26 84
f 48 146 148
f 148 150 144
f 148 15 48
f 148 144 15
f 148 146 40
f 40 150 148
f 109 62 112
f 17 153 55
f 55 153 151
f 13 43 56
f 119 97 116
f 119 116 33
f 33 117 119
f 161 138 141
f 159 161 141
f 138 121 141
f 141 121 159
f 1 121 138
f 70 121 1
f 1 43 70
f 140 153 17
f 155 153 140
f 138 38 140
f 140 38 155
f 135 37 132
f 37 134 132
f 132 78 135
f 132 8 78
f 92 90 74
f 72 22 70
f 72 43 13
f 70 43 72
f 34 121 123
f 34 136 122
f 123 136 34
f 34 122 159
f 159 121 34
f 110 97 113
f 62 109 6
f 6 151 62
f 6 109 58
f 58 55 6
f 6 55 151
f 60 55 58
f 17 55 60
f 60 56 17
f 54 56 43
f 43 1 54
f 54 1 138
f 138 140 54
f 17 56 54
f 54 140 17
f 8 132 71
f 74 8 71
f 134 22 71
f 71 132 134
f 23 92 74
f 28 94 91
f 28 92 94
f 90 92 28
f 28 91 93
f 93 90 28
f 110 113 32
f 112 110 32
f 32 109 112
f 97 119 29
f 29 113 97
f 22 72 76
f 76 71 22
f 74 71 76
f 76 23 74
f 25 117 80
f 80 94 25
f 113 29 98
f 99 119 117
f 56 60 59
f 13 56 59
f 58 109 111
f 113 98 111
f 109 32 111
f 111 32 113
f 92 23 81
f 94 92 81
f 81 25 94
f 58 111 18
f 18 111 98
f 18 60 58
f 18 59 60
f 75 72 13
f 75 76 72
f 23 76 75
f 57 18 98
f 59 18 57
f 96 29 119
f 119 99 96
f 96 98 29
f 96 57 98
f 59 57 44
f 13 59 44
f 44 75 13
f 57 96 2
f 2 44 57
f 79 96 99
f 79 2 96
f 117 25 79
f 79 99 117
f 25 81 79
f 75 44 73
f 44 2 73
f 2 79 73
f 73 79 81
f 73 81 23
f 23 75 73

