# https://github.com/mikedh/trimesh
v 0.03280667 -0.05362688 0.07817082
v 0.02539257 -0.05228882 0.07667922
v 0.03072889 -0.06320645 0.07990514
v 0.02331478 -0.06186839 0.07841354
v 0.02923810 -0.06408157 0.06675801
v 0.03084115 -0.05669076 0.06541995
v 0.02528030 -0.05880451 0.09116441
v 0.02688335 -0.05141370 0.08982635
v 0.02145497 -0.05447932 0.08843089
v 0.02505672 -0.05928164 0.06622014
v 0.03106474 -0.05621363 0.09036422
v 0.03466648 -0.06101596 0.06815347
v 0.02920873 -0.05245482 0.07733395
v 0.02691273 -0.06304045 0.07925041
v 0.03181385 -0.06531644 0.06871401
v 0.02586420 -0.06424267 0.06751703
v 0.03383080 -0.05601733 0.06703046
v 0.02788115 -0.05494357 0.06583349
v 0.03012146 -0.06049527 0.06558436
v 0.02824030 -0.06055171 0.09075087
v 0.02229065 -0.05947795 0.08955390
v 0.03025726 -0.05125260 0.08906733
v 0.02430761 -0.05017884 0.08787036
v 0.02600000 -0.05500000 0.09100000
v 0.02249711 -0.05105428 0.08707362
v 0.02093166 -0.05827176 0.08838030
v 0.02184132 -0.05745166 0.09016328
v 0.02312773 -0.05152071 0.08908952
v 0.02586138 -0.05553997 0.06632733
v 0.02429592 -0.06275744 0.06763401
v 0.02575350 -0.06266789 0.06603822
v 0.02703991 -0.05673694 0.06496446
v 0.02275123 -0.05678941 0.07722400
v 0.03182553 -0.05273783 0.08895035
v 0.03026008 -0.05995530 0.09025703
v 0.02908155 -0.05875834 0.09161990
v 0.03036796 -0.05282738 0.09054614
v 0.03518980 -0.05722351 0.06820406
v 0.03362434 -0.06444099 0.06951074
v 0.03299372 -0.06397457 0.06749484
v 0.03428013 -0.05804361 0.06642108
v 0.03337023 -0.05870587 0.07936037
v 0.03203495 -0.05309810 0.07793134
v 0.02632689 -0.05206794 0.07678297
v 0.02979457 -0.06342733 0.07980139
v 0.02408650 -0.06239717 0.07865302
v 0.03206501 -0.06539788 0.06964287
v 0.03150734 -0.06498542 0.06786019
v 0.03108497 -0.06553224 0.06950222
v 0.02527153 -0.06417183 0.06827614
v 0.02656048 -0.06409263 0.06686497
v 0.02612569 -0.06463722 0.06850449
v 0.02882271 -0.06493858 0.06805397
v 0.03416035 -0.05573735 0.06789390
v 0.03335593 -0.05646258 0.06631719
v 0.03330946 -0.05527631 0.06764545
v 0.02736688 -0.05451130 0.06652716
v 0.02840906 -0.05556979 0.06532196
v 0.02835018 -0.05438128 0.06664772
v 0.03090049 -0.05535901 0.06631965
v 0.02948351 -0.06331253 0.06622804
v 0.03071769 -0.05762240 0.06519788
v 0.02875458 -0.06098397 0.09005720
v 0.02771239 -0.05992548 0.09126240
v 0.02777128 -0.06111399 0.08993664
v 0.02196110 -0.05975792 0.08869046
v 0.02276553 -0.05903270 0.09026717
v 0.02281200 -0.06021896 0.08893891
v 0.02522096 -0.06013626 0.09026471
v 0.03084992 -0.05132345 0.08830822
v 0.02956098 -0.05140264 0.08971939
v 0.02999577 -0.05085806 0.08807987
v 0.02405645 -0.05009740 0.08694149
v 0.02461411 -0.05050986 0.08872417
v 0.02503649 -0.04996303 0.08708214
v 0.02729875 -0.05055669 0.08853039
v 0.02540377 -0.05787287 0.09138648
v 0.02663794 -0.05218274 0.09035632
v 0.02311538 -0.05055244 0.08652736
v 0.02207201 -0.05173907 0.08760548
v 0.02331836 -0.05047036 0.08750223
v 0.02125472 -0.05913096 0.08808045
v 0.02085737 -0.05733910 0.08861933
v 0.02147794 -0.05895555 0.08903842
v 0.02253197 -0.05797947 0.09058392
v 0.02133020 -0.05691282 0.08954610
v 0.02195618 -0.05852440 0.08997579
v 0.02267179 -0.05699887 0.09071503
v 0.02124172 -0.05789027 0.08935879
v 0.02400083 -0.05120734 0.08935787
v 0.02239979 -0.05198150 0.08865331
v 0.02364990 -0.05071558 0.08856205
v 0.02374407 -0.05205517 0.08982000
v 0.02269806 -0.05117583 0.08814319
v 0.02237478 -0.05444008 0.08974958
v 0.02631703 -0.05482131 0.06678385
v 0.02557311 -0.05640720 0.06601536
v 0.02681008 -0.05512598 0.06596998
v 0.02405737 -0.05318507 0.07665649
v 0.02445637 -0.06339983 0.06833694
v 0.02435847 -0.06200723 0.06702921
v 0.02496966 -0.06361117 0.06750617
v 0.02245432 -0.06057588 0.07799455
v 0.02650294 -0.06327409 0.06609630
v 0.02511610 -0.06196068 0.06619975
v 0.02573595 -0.06356409 0.06666721
v 0.02673961 -0.06242263 0.06563013
v 0.02491146 -0.06278326 0.06672871
v 0.02797180 -0.05650196 0.06487025
v 0.02618569 -0.05702936 0.06530697
v 0.02742967 -0.05575527 0.06525348
v 0.02781189 -0.05747893 0.06473510
v 0.02636781 -0.05606882 0.06551311
v 0.02633257 -0.05971714 0.06534318
v 0.02121729 -0.05459589 0.08750222
v 0.02454237 -0.05902934 0.06699752
v 0.02192426 -0.05187344 0.08662649
v 0.02070528 -0.05749351 0.08764397
v 0.02512792 -0.05614499 0.06687056
v 0.02390894 -0.06176506 0.06788804
v 0.03166509 -0.05209545 0.08824742
v 0.03176298 -0.05348804 0.08955515
v 0.03115180 -0.05188410 0.08907819
v 0.02980442 -0.06067397 0.08980051
v 0.03054835 -0.05908807 0.09056900
v 0.02931138 -0.06036929 0.09061438
v 0.02814966 -0.05899332 0.09171411
v 0.02993577 -0.05846591 0.09127740
v 0.02869179 -0.05974001 0.09133088
v 0.02830957 -0.05801634 0.09184926
v 0.02975365 -0.05942646 0.09107126
v 0.02961852 -0.05222119 0.09048806
v 0.03100536 -0.05353459 0.09038461
v 0.03038551 -0.05193118 0.08991715
v 0.02938184 -0.05307264 0.09095423
v 0.03121000 -0.05271201 0.08985565
v 0.02978888 -0.05577814 0.09124118
v 0.03486674 -0.05636431 0.06850391
v 0.03526408 -0.05815617 0.06796503
v 0.03464351 -0.05653972 0.06754594
v 0.03366713 -0.05491939 0.07858982
v 0.03300607 -0.06494283 0.07005700
v 0.03404945 -0.06375621 0.06897888
v 0.03280310 -0.06502491 0.06908213
v 0.03206408 -0.06231020 0.07992787
v 0.03212062 -0.06428794 0.06722649
v 0.03372166 -0.06351377 0.06793105
v 0.03247156 -0.06477970 0.06802231
v 0.03237739 -0.06344011 0.06676436
v 0.03342339 -0.06431945 0.06844118
v 0.03358948 -0.05751581 0.06600044
v 0.03479125 -0.05858245 0.06703826
v 0.03416527 -0.05697087 0.06660857
v 0.03344967 -0.05849641 0.06586933
v 0.03487974 -0.05760500 0.06722557
v 0.03374668 -0.06105520 0.06683478
v 0.03157908 -0.05646593 0.08958685
v 0.03490417 -0.06089938 0.06908214
v 0.03221252 -0.05373021 0.08869632
v 0.03099354 -0.05935028 0.08971380
v 0.03541618 -0.05800177 0.06894039
v 0.03419720 -0.06362183 0.06995787
f 63 3 124
f 159 157 42
f 33 115 117
f 121 1 70
f 124 145 160
f 42 157 160
f 3 63 45
f 45 63 65
f 45 65 14
f 14 49 45
f 124 3 142
f 142 145 124
f 14 65 68
f 68 46 14
f 50 46 4
f 118 103 82
f 118 115 33
f 43 70 1
f 72 70 43
f 13 72 43
f 43 56 13
f 42 158 161
f 161 159 42
f 75 72 13
f 13 44 75
f 2 44 57
f 79 117 25
f 47 142 3
f 3 45 47
f 47 45 49
f 69 68 65
f 67 21 69
f 69 21 68
f 46 50 52
f 52 49 14
f 14 46 52
f 103 118 120
f 33 116 120
f 120 118 33
f 138 1 121
f 24 135 78
f 71 74 8
f 121 70 123
f 59 57 44
f 13 56 59
f 59 44 13
f 124 160 35
f 24 77 130
f 130 135 24
f 68 21 66
f 82 4 66
f 4 46 66
f 46 68 66
f 103 120 100
f 100 50 4
f 100 4 82
f 82 103 100
f 142 47 144
f 19 154 149
f 1 138 54
f 54 43 1
f 56 43 54
f 159 161 141
f 121 159 141
f 161 138 141
f 141 138 121
f 156 149 154
f 40 149 156
f 22 70 72
f 22 123 70
f 72 75 76
f 74 71 76
f 76 23 74
f 75 23 76
f 76 22 72
f 71 22 76
f 73 23 75
f 73 2 79
f 73 44 2
f 73 75 44
f 79 25 81
f 23 73 81
f 81 73 79
f 2 57 96
f 79 2 96
f 26 118 82
f 24 78 93
f 20 69 65
f 65 63 20
f 67 69 64
f 69 20 64
f 64 20 129
f 125 35 160
f 125 160 157
f 157 159 122
f 135 130 137
f 128 133 137
f 137 36 128
f 130 36 137
f 137 37 135
f 133 37 137
f 101 120 116
f 16 52 50
f 143 12 158
f 15 47 49
f 15 144 47
f 38 138 161
f 140 54 138
f 138 38 140
f 140 38 155
f 40 156 147
f 12 143 147
f 147 152 12
f 156 152 147
f 57 59 18
f 62 154 19
f 99 117 79
f 79 96 99
f 19 107 112
f 112 62 19
f 118 26 83
f 115 118 83
f 84 66 21
f 82 66 84
f 84 26 82
f 88 85 77
f 88 77 24
f 24 93 88
f 77 85 7
f 7 85 67
f 67 64 7
f 131 125 128
f 128 36 131
f 131 36 129
f 35 125 131
f 129 36 127
f 127 36 130
f 127 64 129
f 127 7 64
f 127 130 77
f 77 7 127
f 133 122 136
f 136 37 133
f 34 159 121
f 34 122 159
f 121 123 34
f 34 136 122
f 123 136 34
f 11 133 128
f 11 125 157
f 128 125 11
f 11 122 133
f 157 122 11
f 135 37 132
f 132 71 8
f 8 78 132
f 132 78 135
f 30 100 120
f 120 101 30
f 102 16 50
f 50 100 102
f 100 30 102
f 142 144 39
f 144 15 148
f 139 38 161
f 155 38 139
f 139 152 155
f 12 152 139
f 139 161 158
f 158 12 139
f 41 156 154
f 41 152 156
f 155 152 41
f 113 97 29
f 54 140 17
f 56 54 17
f 60 59 56
f 60 55 58
f 60 18 59
f 58 18 60
f 56 17 60
f 60 17 55
f 58 55 6
f 119 96 29
f 119 99 96
f 29 97 119
f 117 99 119
f 119 97 116
f 119 116 33
f 33 117 119
f 67 85 87
f 87 21 67
f 87 84 21
f 89 83 26
f 26 84 89
f 86 83 89
f 84 87 89
f 85 88 27
f 27 87 85
f 27 89 87
f 86 89 27
f 94 81 25
f 95 88 93
f 95 91 86
f 86 27 95
f 95 27 88
f 86 91 9
f 115 83 9
f 9 83 86
f 124 35 126
f 35 131 126
f 126 63 124
f 126 131 129
f 126 20 63
f 129 20 126
f 37 136 134
f 134 132 37
f 134 136 123
f 71 132 134
f 134 22 71
f 123 22 134
f 162 39 143
f 162 160 145
f 145 142 162
f 142 39 162
f 162 143 158
f 162 158 42
f 42 160 162
f 150 147 143
f 144 148 150
f 150 39 144
f 143 39 150
f 40 147 150
f 150 148 40
f 155 41 153
f 153 140 155
f 153 17 140
f 55 17 153
f 57 18 98
f 98 96 57
f 29 96 98
f 98 113 29
f 58 6 109
f 62 112 109
f 109 6 62
f 108 30 101
f 108 102 30
f 154 62 151
f 62 6 151
f 151 6 55
f 55 153 151
f 151 41 154
f 151 153 41
f 80 25 117
f 80 94 25
f 91 94 80
f 80 9 91
f 80 117 115
f 115 9 80
f 81 94 92
f 74 23 92
f 23 81 92
f 61 107 19
f 19 149 61
f 61 104 107
f 5 104 61
f 146 149 40
f 40 148 146
f 146 61 149
f 5 61 146
f 52 16 53
f 49 52 53
f 53 15 49
f 32 109 112
f 113 98 111
f 58 109 111
f 111 18 58
f 111 98 18
f 111 32 113
f 109 32 111
f 74 92 90
f 8 74 90
f 90 78 8
f 90 93 78
f 51 104 5
f 51 53 16
f 48 148 15
f 48 146 148
f 5 146 48
f 15 53 48
f 48 51 5
f 53 51 48
f 105 108 101
f 28 92 94
f 28 94 91
f 28 90 92
f 93 90 28
f 28 95 93
f 91 95 28
f 102 108 106
f 104 51 106
f 16 102 106
f 106 51 16
f 114 112 107
f 114 32 112
f 108 105 31
f 104 106 31
f 31 106 108
f 107 104 31
f 31 114 107
f 105 114 31
f 10 101 116
f 116 97 10
f 10 105 101
f 110 114 105
f 105 10 110
f 32 114 110
f 110 10 97
f 97 113 110
f 113 32 110

