# https://github.com/mikedh/trimesh
v -0.03505146 -0.03879870 0.08600000
v -0.02494854 -0.03879870 0.08600000
v -0.03505146 -0.04320130 0.08600000
v -0.02494854 -0.04320130 0.08600000
v -0.03000000 -0.04255146 0.11420130
v -0.03000000 -0.03944854 0.11420130
v -0.03000000 -0.04255146 0.05779870
v -0.03000000 -0.03944854 0.05779870
v -0.02429870 -0.04100000 0.05844854
v -0.02429870 -0.04100000 0.11355146
v -0.03570130 -0.04100000 0.05844854
v -0.03570130 -0.04100000 0.11355146
v -0.03000000 -0.03850000 0.08600000
v -0.03000000 -0.04350000 0.08600000
v -0.03461803 -0.04311803 0.11350000
v -0.02538197 -0.04311803 0.11350000
v -0.03461803 -0.03888197 0.11350000
v -0.02538197 -0.03888197 0.11350000
v -0.03000000 -0.04100000 0.11450000
v -0.03461803 -0.04311803 0.05850000
v -0.02538197 -0.04311803 0.05850000
v -0.03461803 -0.03888197 0.05850000
v -0.02538197 -0.03888197 0.05850000
v -0.03000000 -0.04100000 0.05750000
v -0.02438197 -0.03950000 0.05888197
v -0.02438197 -0.04250000 0.05888197
v -0.02500000 -0.04211803 0.05788197
v -0.02500000 -0.03988197 0.05788197
v -0.02438197 -0.03950000 0.11311803
v -0.02438197 -0.04250000 0.11311803
v -0.02500000 -0.04211803 0.11411803
v -0.02500000 -0.03988197 0.11411803
v -0.02400000 -0.04100000 0.08600000
v -0.03561803 -0.03950000 0.05888197
v -0.03561803 -0.04250000 0.05888197
v -0.03500000 -0.04211803 0.05788197
v -0.03500000 -0.03988197 0.05788197
v -0.03561803 -0.03950000 0.11311803
v -0.03561803 -0.04250000 0.11311803
v -0.03500000 -0.04211803 0.11411803
v -0.03500000 -0.03988197 0.11411803
v -0.03600000 -0.04100000 0.08600000
v -0.03454653 -0.03857612 0.08600000
v -0.02545347 -0.03857612 0.08600000
v -0.03454653 -0.04342388 0.08600000
v -0.02545347 -0.04342388 0.08600000
v -0.03486778 -0.04322534 0.11301978
v -0.03432124 -0.04288756 0.11390409
v -0.03432492 -0.04340211 0.11302573
v -0.02513222 -0.04322534 0.11301978
v -0.02567876 -0.04288756 0.11390409
v -0.02567508 -0.04340211 0.11302573
v -0.03000000 -0.04320130 0.11355146
v -0.03486778 -0.03877466 0.11301978
v -0.03432124 -0.03911244 0.11390409
v -0.03432492 -0.03859789 0.11302573
v -0.02513222 -0.03877466 0.11301978
v -0.02567876 -0.03911244 0.11390409
v -0.02567508 -0.03859789 0.11302573
v -0.03000000 -0.03879870 0.11355146
v -0.03000000 -0.04204653 0.11442388
v -0.03000000 -0.03995347 0.11442388
v -0.03486778 -0.04322534 0.05898022
v -0.03432124 -0.04288756 0.05809591
v -0.03432492 -0.04340211 0.05897427
v -0.02513222 -0.04322534 0.05898022
v -0.02567876 -0.04288756 0.05809591
v -0.02567508 -0.04340211 0.05897427
v -0.03000000 -0.04320130 0.05844854
v -0.03486778 -0.03877466 0.05898022
v -0.03432124 -0.03911244 0.05809591
v -0.03432492 -0.03859789 0.05897427
v -0.02513222 -0.03877466 0.05898022
v -0.02567876 -0.03911244 0.05809591
v -0.02567508 -0.03859789 0.05897427
v -0.03000000 -0.03879870 0.05844854
v -0.03000000 -0.04204653 0.05757612
v -0.03000000 -0.03995347 0.05757612
v -0.02461244 -0.03909591 0.05917876
v -0.02427466 -0.03998022 0.05863222
v -0.02482443 -0.03912362 0.05864935
v -0.02461244 -0.04290409 0.05917876
v -0.02427466 -0.04201978 0.05863222
v -0.02482443 -0.04287638 0.05864935
v -0.02548022 -0.04236778 0.05777466
v -0.02459591 -0.04182124 0.05811244
v -0.02514935 -0.04267557 0.05812362
v -0.02547427 -0.04182492 0.05759789
v -0.02462362 -0.04235065 0.05832443
v -0.02548022 -0.03963222 0.05777466
v -0.02459591 -0.04017876 0.05811244
v -0.02514935 -0.03932443 0.05812362
v -0.02547427 -0.04017508 0.05759789
v -0.02462362 -0.03964935 0.05832443
v -0.02494854 -0.04100000 0.05779870
v -0.02461244 -0.03909591 0.11282124
v -0.02427466 -0.03998022 0.11336778
v -0.02482443 -0.03912362 0.11335065
v -0.02429870 -0.03944854 0.08600000
v -0.02461244 -0.04290409 0.11282124
v -0.02427466 -0.04201978 0.11336778
v -0.02482443 -0.04287638 0.11335065
v -0.02429870 -0.04255146 0.08600000
v -0.02548022 -0.04236778 0.11422534
v -0.02459591 -0.04182124 0.11388756
v -0.02514935 -0.04267557 0.11387638
v -0.02547427 -0.04182492 0.11440211
v -0.02462362 -0.04235065 0.11367557
v -0.02548022 -0.03963222 0.11422534
v -0.02459591 -0.04017876 0.11388756
v -0.02514935 -0.03932443 0.11387638
v -0.02547427 -0.04017508 0.11440211
v -0.02462362 -0.03964935 0.11367557
v -0.02494854 -0.04100000 0.11420130
v -0.02407612 -0.04100000 0.05895347
v -0.02407612 -0.04100000 0.11304653
v -0.02409789 -0.03997427 0.05917508
v -0.02409789 -0.04202573 0.05917508
v -0.02409789 -0.03997427 0.11282492
v -0.02409789 -0.04202573 0.11282492
v -0.03538756 -0.03909591 0.05917876
v -0.03572534 -0.03998022 0.05863222
v -0.03517557 -0.03912362 0.05864935
v -0.03538756 -0.04290409 0.05917876
v -0.03572534 -0.04201978 0.05863222
v -0.03517557 -0.04287638 0.05864935
v -0.03451978 -0.04236778 0.05777466
v -0.03540409 -0.04182124 0.05811244
v -0.03485065 -0.04267557 0.05812362
v -0.03452573 -0.04182492 0.05759789
v -0.03537638 -0.04235065 0.05832443
v -0.03451978 -0.03963222 0.05777466
v -0.03540409 -0.04017876 0.05811244
v -0.03485065 -0.03932443 0.05812362
v -0.03452573 -0.04017508 0.05759789
v -0.03537638 -0.03964935 0.05832443
v -0.03505146 -0.04100000 0.05779870
v -0.03538756 -0.03909591 0.11282124
v -0.03572534 -0.03998022 0.11336778
v -0.03517557 -0.03912362 0.11335065
v -0.03570130 -0.03944854 0.08600000
v -0.03538756 -0.04290409 0.11282124
v -0.03572534 -0.04201978 0.11336778
v -0.03517557 -0.04287638 0.11335065
v -0.03570130 -0.04255146 0.08600000
v -0.03451978 -0.04236778 0.11422534
v -0.03540409 -0.04182124 0.11388756
v -0.03485065 -0.04267557 0.11387638
v -0.03452573 -0.04182492 0.11440211
v -0.03537638 -0.04235065 0.11367557
v -0.03451978 -0.03963222 0.11422534
v -0.03540409 -0.04017876 0.11388756
v -0.03485065 -0.03932443 0.11387638
v -0.03452573 -0.04017508 0.11440211
v -0.03537638 -0.03964935 0.11367557
v -0.03505146 -0.04100000 0.11420130
v -0.03592388 -0.04100000 0.05895347
v -0.03592388 -0.04100000 0.11304653
v -0.03590211 -0.03997427 0.05917508
v -0.03590211 -0.04202573 0.05917508
v -0.03590211 -0.03997427 0.11282492
v -0.03590211 -0.04202573 0.11282492
f 42 157 160
f 14 45 65
f 65 45 63
f 63 45 3
f 49 45 14
f 59 44 13
f 66 46 68
f 14 65 68
f 68 46 14
f 124 3 142
f 63 3 124
f 124 126 63
f 48 15 53
f 53 15 49
f 4 46 66
f 50 46 4
f 4 100 50
f 82 4 66
f 103 100 82
f 100 4 82
f 13 72 43
f 75 44 73
f 13 44 75
f 75 72 13
f 19 154 149
f 44 59 57
f 159 157 42
f 125 160 157
f 145 124 142
f 160 124 145
f 49 15 47
f 142 3 47
f 47 3 45
f 45 49 47
f 52 53 49
f 52 46 50
f 14 46 52
f 52 49 14
f 120 100 103
f 19 149 61
f 5 104 61
f 99 79 96
f 117 79 99
f 73 79 81
f 56 59 13
f 13 43 56
f 121 159 141
f 121 141 138
f 72 75 76
f 48 5 146
f 5 61 146
f 146 61 149
f 73 44 2
f 96 79 2
f 2 79 73
f 44 57 2
f 2 57 96
f 20 65 63
f 63 126 20
f 88 27 85
f 130 127 36
f 11 125 157
f 128 125 11
f 131 125 128
f 128 36 131
f 84 82 66
f 16 52 50
f 53 52 16
f 107 61 104
f 107 112 19
f 19 61 107
f 25 79 117
f 25 81 79
f 23 75 73
f 73 81 23
f 23 76 75
f 54 56 43
f 59 56 60
f 1 121 138
f 1 54 43
f 138 54 1
f 156 149 154
f 18 57 59
f 59 60 18
f 96 57 98
f 57 18 98
f 98 18 111
f 138 141 161
f 141 159 161
f 161 159 42
f 42 158 161
f 55 151 6
f 129 20 126
f 126 131 129
f 129 36 127
f 129 131 36
f 64 129 127
f 20 129 64
f 77 127 130
f 88 85 77
f 77 130 24
f 24 88 77
f 126 124 35
f 125 131 35
f 35 131 126
f 35 124 160
f 160 125 35
f 66 68 21
f 21 84 66
f 33 120 118
f 118 120 103
f 103 82 118
f 51 104 5
f 53 16 51
f 51 106 104
f 16 106 51
f 51 5 48
f 48 53 51
f 95 27 88
f 115 118 83
f 115 117 33
f 33 118 115
f 56 54 17
f 55 60 17
f 17 60 56
f 121 1 70
f 70 43 72
f 70 1 43
f 128 11 133
f 147 152 12
f 156 152 147
f 32 109 112
f 32 111 109
f 113 98 111
f 111 32 113
f 113 32 110
f 10 110 105
f 10 105 101
f 112 107 114
f 105 110 114
f 114 32 112
f 110 32 114
f 62 151 154
f 62 6 151
f 19 112 62
f 62 154 19
f 112 109 62
f 109 6 62
f 58 6 109
f 109 111 58
f 111 18 58
f 58 18 60
f 58 60 55
f 55 6 58
f 7 64 127
f 7 77 85
f 127 77 7
f 84 21 87
f 87 89 84
f 87 85 27
f 27 89 87
f 26 118 82
f 83 118 26
f 82 84 26
f 26 89 83
f 84 89 26
f 50 100 102
f 102 16 50
f 102 106 16
f 104 106 31
f 31 107 104
f 105 114 31
f 31 114 107
f 27 95 86
f 86 89 27
f 83 89 86
f 86 95 91
f 117 115 80
f 80 25 117
f 91 95 28
f 92 23 81
f 92 28 90
f 78 90 93
f 93 88 24
f 24 78 93
f 93 95 88
f 93 28 95
f 90 28 93
f 140 54 138
f 140 17 54
f 121 70 123
f 8 90 78
f 128 133 137
f 130 36 137
f 137 36 128
f 41 156 154
f 41 152 156
f 154 151 41
f 149 156 40
f 156 147 40
f 40 146 149
f 12 158 143
f 143 147 12
f 96 98 29
f 98 113 29
f 101 120 116
f 116 10 101
f 116 120 33
f 64 7 67
f 67 7 85
f 85 87 67
f 67 87 21
f 30 102 100
f 100 120 30
f 30 120 101
f 101 105 108
f 106 102 108
f 105 31 108
f 108 31 106
f 108 30 101
f 102 30 108
f 83 86 9
f 9 115 83
f 9 86 91
f 9 80 115
f 91 80 9
f 23 92 74
f 74 92 90
f 90 8 74
f 76 23 74
f 74 71 76
f 74 8 71
f 91 28 94
f 28 92 94
f 94 80 91
f 94 92 81
f 81 25 94
f 25 80 94
f 12 152 139
f 139 158 12
f 139 161 158
f 136 123 134
f 22 71 134
f 22 123 70
f 134 123 22
f 22 70 72
f 72 76 22
f 76 71 22
f 130 137 135
f 24 130 135
f 135 78 24
f 152 41 155
f 155 139 152
f 162 143 158
f 42 160 162
f 162 158 42
f 160 145 162
f 39 143 162
f 142 39 162
f 162 145 142
f 150 40 147
f 147 143 150
f 150 143 39
f 97 113 110
f 97 29 113
f 110 10 97
f 10 116 97
f 69 21 68
f 69 67 21
f 69 68 65
f 64 67 69
f 65 20 69
f 20 64 69
f 122 136 133
f 122 133 11
f 157 159 122
f 122 11 157
f 134 71 132
f 71 8 132
f 132 8 78
f 78 135 132
f 37 137 133
f 37 135 137
f 37 132 135
f 133 136 37
f 37 136 134
f 134 132 37
f 153 41 151
f 153 155 41
f 140 155 153
f 153 151 55
f 55 17 153
f 17 140 153
f 38 140 138
f 139 155 38
f 38 155 140
f 138 161 38
f 161 139 38
f 148 15 48
f 48 146 148
f 146 40 148
f 40 150 148
f 144 39 142
f 144 150 39
f 142 47 144
f 144 148 150
f 144 47 15
f 15 148 144
f 119 97 116
f 33 117 119
f 119 116 33
f 117 99 119
f 29 97 119
f 119 99 96
f 96 29 119
f 123 136 34
f 121 123 34
f 136 122 34
f 159 121 34
f 34 122 159

