# https://github.com/mikedh/trimesh
v -0.00343842 0.09100424 0.08600000
v -0.00229211 0.09298972 0.08600000
v 0.00129211 0.08827307 0.08600000
v 0.00243842 0.09025855 0.08600000
v 0.00135876 0.08955824 0.10473117
v -0.00235876 0.09170456 0.10473117
v 0.00135876 0.08955824 0.06726883
v -0.00235876 0.09170456 0.06726883
v 0.00036559 0.09213064 0.06785368
v 0.00036559 0.09213064 0.10414632
v -0.00136559 0.08913216 0.06785368
v -0.00136559 0.08913216 0.10414632
v -0.00309808 0.09213140 0.08600000
v 0.00209808 0.08913140 0.08600000
v 0.00142225 0.08864837 0.10410000
v 0.00217848 0.08995820 0.10410000
v -0.00317848 0.09130460 0.10410000
v -0.00242225 0.09261443 0.10410000
v -0.00050000 0.09063140 0.10500000
v 0.00142225 0.08864837 0.06790000
v 0.00217848 0.08995820 0.06790000
v -0.00317848 0.09130460 0.06790000
v -0.00242225 0.09261443 0.06790000
v -0.00050000 0.09063140 0.06700000
v -0.00149054 0.09311573 0.06824377
v 0.00214677 0.09101573 0.06824377
v 0.00157094 0.09070591 0.06734377
v -0.00147094 0.09246214 0.06734377
v -0.00149054 0.09311573 0.10375623
v 0.00214677 0.09101573 0.10375623
v 0.00157094 0.09070591 0.10465623
v -0.00147094 0.09246214 0.10465623
v 0.00050000 0.09236345 0.08600000
v -0.00314677 0.09024706 0.06824377
v 0.00049054 0.08814706 0.06824377
v 0.00047094 0.08880065 0.06734377
v -0.00257094 0.09055688 0.06734377
v -0.00314677 0.09024706 0.10375623
v 0.00049054 0.08814706 0.10375623
v 0.00047094 0.08880065 0.10465623
v -0.00257094 0.09055688 0.10465623
v -0.00150000 0.08889935 0.08600000
v -0.00338468 0.09149796 0.08600000
v -0.00269280 0.09269633 0.08600000
v 0.00169280 0.08856647 0.08600000
v 0.00238468 0.08976484 0.08600000
v 0.00139350 0.08840543 0.10366781
v 0.00137617 0.08898340 0.10446368
v 0.00177557 0.08874899 0.10367316
v 0.00237450 0.09010457 0.10366781
v 0.00186529 0.08983058 0.10446368
v 0.00226799 0.08960190 0.10367316
v 0.00186526 0.08926581 0.10414632
v -0.00337450 0.09115823 0.10366781
v -0.00286529 0.09143221 0.10446368
v -0.00326799 0.09166089 0.10367316
v -0.00239350 0.09285737 0.10366781
v -0.00237617 0.09227939 0.10446368
v -0.00277557 0.09251380 0.10367316
v -0.00286526 0.09199698 0.10414632
v 0.00096521 0.08978546 0.10493149
v -0.00196521 0.09147734 0.10493149
v 0.00139350 0.08840543 0.06833219
v 0.00137617 0.08898340 0.06753632
v 0.00177557 0.08874899 0.06832684
v 0.00237450 0.09010457 0.06833219
v 0.00186529 0.08983058 0.06753632
v 0.00226799 0.08960190 0.06832684
v 0.00186526 0.08926581 0.06785368
v -0.00337450 0.09115823 0.06833219
v -0.00286529 0.09143221 0.06753632
v -0.00326799 0.09166089 0.06832684
v -0.00239350 0.09285737 0.06833219
v -0.00237617 0.09227939 0.06753632
v -0.00277557 0.09251380 0.06832684
v -0.00286526 0.09199698 0.06785368
v 0.00096521 0.08978546 0.06706851
v -0.00196521 0.09147734 0.06706851
v -0.00190921 0.09311794 0.06851088
v -0.00106796 0.09298327 0.06801900
v -0.00198301 0.09294024 0.06803441
v 0.00235802 0.09065426 0.06851088
v 0.00182076 0.09131547 0.06801900
v 0.00224102 0.09050150 0.06803441
v 0.00154950 0.09021923 0.06724720
v 0.00152146 0.09115442 0.06755120
v 0.00193829 0.09033861 0.06756126
v 0.00112906 0.09046816 0.06708810
v 0.00192162 0.09089459 0.06774199
v -0.00188169 0.09220023 0.06724720
v -0.00105777 0.09264354 0.06755120
v -0.00197270 0.09259663 0.06756126
v -0.00145590 0.09196058 0.06708810
v -0.00148288 0.09286018 0.06774199
v 0.00007316 0.09162414 0.06726883
v -0.00190921 0.09311794 0.10348912
v -0.00106796 0.09298327 0.10398100
v -0.00198301 0.09294024 0.10396559
v -0.00149318 0.09320379 0.08600000
v 0.00235802 0.09065426 0.10348912
v 0.00182076 0.09131547 0.10398100
v 0.00224102 0.09050150 0.10396559
v 0.00222435 0.09105748 0.08600000
v 0.00154950 0.09021923 0.10475280
v 0.00152146 0.09115442 0.10444880
v 0.00193829 0.09033861 0.10443874
v 0.00112906 0.09046816 0.10491190
v 0.00192162 0.09089459 0.10425801
v -0.00188169 0.09220023 0.10475280
v -0.00105777 0.09264354 0.10444880
v -0.00197270 0.09259663 0.10443874
v -0.00145590 0.09196058 0.10491190
v -0.00148288 0.09286018 0.10425801
v 0.00007316 0.09162414 0.10473117
v 0.00046574 0.09230412 0.06830812
v 0.00046574 0.09230412 0.10369188
v -0.00099305 0.09312373 0.06850757
v 0.00190495 0.09145057 0.06850757
v -0.00099305 0.09312373 0.10349243
v 0.00190495 0.09145057 0.10349243
v -0.00335802 0.09060854 0.06851088
v -0.00282076 0.08994733 0.06801900
v -0.00324102 0.09076130 0.06803441
v 0.00090921 0.08814485 0.06851088
v 0.00006796 0.08827952 0.06801900
v 0.00098301 0.08832255 0.06803441
v 0.00088169 0.08906256 0.06724720
v 0.00005777 0.08861925 0.06755120
v 0.00097270 0.08866617 0.06756126
v 0.00045590 0.08930221 0.06708810
v 0.00048288 0.08840262 0.06774199
v -0.00254950 0.09104356 0.06724720
v -0.00252146 0.09010837 0.06755120
v -0.00293829 0.09092418 0.06756126
v -0.00212906 0.09079464 0.06708810
v -0.00292162 0.09036820 0.06774199
v -0.00107316 0.08963866 0.06726883
v -0.00335802 0.09060854 0.10348912
v -0.00282076 0.08994733 0.10398100
v -0.00324102 0.09076130 0.10396559
v -0.00322435 0.09020532 0.08600000
v 0.00090921 0.08814485 0.10348912
v 0.00006796 0.08827952 0.10398100
v 0.00098301 0.08832255 0.10396559
v 0.00049318 0.08805900 0.08600000
v 0.00088169 0.08906256 0.10475280
v 0.00005777 0.08861925 0.10444880
v 0.00097270 0.08866617 0.10443874
v 0.00045590 0.08930221 0.10491190
v 0.00048288 0.08840262 0.10425801
v -0.00254950 0.09104356 0.10475280
v -0.00252146 0.09010837 0.10444880
v -0.00293829 0.09092418 0.10443874
v -0.00212906 0.09079464 0.10491190
v -0.00292162 0.09036820 0.10425801
v -0.00107316 0.08963866 0.10473117
v -0.00146574 0.08895868 0.06830812
v -0.00146574 0.08895868 0.10369188
v -0.00290495 0.08981222 0.06850757
v -0.00000695 0.08813906 0.06850757
v -0.00290495 0.08981222 0.10349243
v -0.00000695 0.08813906 0.10349243
f 100 82 103
f 142 145 124
f 124 3 142
f 117 119 33
f 63 3 124
f 3 63 45
f 45 63 65
f 14 49 45
f 45 65 14
f 4 82 100
f 52 49 14
f 14 46 52
f 14 65 68
f 68 46 14
f 100 103 120
f 47 142 3
f 3 45 47
f 47 45 49
f 15 47 49
f 73 2 79
f 119 117 99
f 99 117 79
f 19 62 154
f 119 99 96
f 79 2 96
f 96 99 79
f 162 142 39
f 145 142 162
f 65 63 20
f 100 120 30
f 142 47 144
f 39 142 144
f 144 150 39
f 47 15 144
f 2 73 44
f 13 59 44
f 11 125 157
f 105 110 114
f 10 110 105
f 57 96 2
f 2 44 57
f 57 44 59
f 119 96 29
f 157 125 160
f 42 157 160
f 160 162 42
f 145 162 160
f 124 145 160
f 72 43 13
f 125 131 35
f 124 160 35
f 35 160 125
f 118 103 82
f 118 120 103
f 33 120 118
f 126 20 63
f 126 63 124
f 124 35 126
f 126 35 131
f 50 4 100
f 46 4 50
f 50 52 46
f 104 51 106
f 68 21 66
f 82 4 66
f 66 4 46
f 46 68 66
f 26 118 82
f 83 118 26
f 79 117 25
f 81 73 79
f 79 25 81
f 81 25 94
f 137 130 36
f 43 54 56
f 56 59 13
f 13 43 56
f 1 54 43
f 112 62 19
f 101 10 105
f 105 108 101
f 101 30 120
f 101 108 30
f 33 119 116
f 116 120 33
f 116 101 120
f 10 101 116
f 110 10 97
f 119 29 97
f 97 116 119
f 10 116 97
f 98 29 96
f 96 57 98
f 159 141 121
f 161 141 159
f 159 157 42
f 42 161 159
f 13 44 75
f 75 72 13
f 75 44 73
f 74 8 71
f 88 95 27
f 27 95 86
f 115 118 83
f 115 117 33
f 33 118 115
f 49 52 53
f 53 15 49
f 106 51 16
f 52 50 16
f 16 53 52
f 51 53 16
f 114 112 107
f 107 112 19
f 84 66 21
f 82 66 84
f 84 26 82
f 24 88 77
f 77 130 24
f 69 68 65
f 65 20 69
f 69 21 68
f 36 130 127
f 130 77 127
f 127 77 7
f 31 104 106
f 106 108 31
f 31 108 105
f 31 107 104
f 105 114 31
f 114 107 31
f 102 108 106
f 102 50 100
f 106 16 102
f 102 16 50
f 100 30 102
f 30 108 102
f 92 81 94
f 92 94 28
f 28 95 93
f 93 88 24
f 93 95 88
f 128 137 36
f 125 11 128
f 36 131 128
f 128 131 125
f 59 56 60
f 121 1 70
f 70 123 121
f 43 72 70
f 70 1 43
f 121 141 138
f 138 1 121
f 138 161 38
f 138 141 161
f 54 1 138
f 32 114 110
f 32 112 114
f 41 156 154
f 113 97 29
f 29 98 113
f 110 97 113
f 113 98 111
f 113 32 110
f 111 32 113
f 121 123 34
f 34 159 121
f 23 75 73
f 73 81 23
f 81 92 23
f 23 92 74
f 72 75 76
f 74 71 76
f 76 23 74
f 75 23 76
f 83 86 9
f 9 115 83
f 21 69 67
f 15 53 48
f 48 53 51
f 89 27 86
f 89 86 83
f 83 26 89
f 26 84 89
f 129 131 36
f 36 127 129
f 129 126 131
f 20 126 129
f 74 92 90
f 90 8 74
f 90 92 28
f 28 93 90
f 135 137 37
f 24 130 135
f 130 137 135
f 59 60 18
f 18 57 59
f 111 98 18
f 18 98 57
f 111 18 58
f 58 18 60
f 17 56 54
f 17 60 56
f 22 70 72
f 72 76 22
f 22 76 71
f 22 71 134
f 134 123 22
f 123 70 22
f 54 138 140
f 140 17 54
f 38 155 140
f 140 138 38
f 109 32 111
f 112 32 109
f 111 58 109
f 62 112 109
f 151 154 62
f 151 41 154
f 158 161 42
f 42 162 158
f 39 150 143
f 143 162 39
f 143 158 162
f 12 158 143
f 38 161 139
f 139 155 38
f 161 158 139
f 139 158 12
f 159 34 122
f 122 11 157
f 157 159 122
f 80 25 117
f 94 25 80
f 117 115 80
f 115 9 80
f 91 95 28
f 91 80 9
f 86 95 91
f 91 9 86
f 28 94 91
f 94 80 91
f 87 84 21
f 21 67 87
f 87 89 84
f 27 89 87
f 20 129 64
f 64 69 20
f 64 127 7
f 64 129 127
f 7 67 64
f 64 67 69
f 8 90 78
f 78 90 93
f 78 93 24
f 24 135 78
f 132 71 8
f 8 78 132
f 132 78 135
f 134 71 132
f 132 37 134
f 132 135 37
f 155 41 153
f 41 151 153
f 153 140 155
f 17 140 153
f 6 109 58
f 62 109 6
f 6 151 62
f 152 41 155
f 155 139 152
f 152 139 12
f 156 41 152
f 11 122 133
f 37 137 133
f 133 128 11
f 137 128 133
f 136 34 123
f 136 122 34
f 136 123 134
f 136 133 122
f 134 37 136
f 37 133 136
f 88 27 85
f 27 87 85
f 85 87 67
f 85 67 7
f 85 77 88
f 7 77 85
f 104 107 61
f 61 107 19
f 148 40 150
f 150 144 148
f 148 144 15
f 15 48 148
f 12 143 147
f 147 40 156
f 147 143 150
f 150 40 147
f 156 152 147
f 147 152 12
f 55 153 151
f 151 6 55
f 17 153 55
f 60 17 55
f 55 58 60
f 55 6 58
f 146 148 48
f 40 148 146
f 156 40 149
f 40 146 149
f 149 146 61
f 154 156 149
f 19 154 149
f 149 61 19
f 5 48 51
f 51 104 5
f 104 61 5
f 61 146 5
f 5 146 48

