# https://github.com/mikedh/trimesh
v 0.00704737 -0.02400000 0.05545000
v 0.00736491 -0.02463509 0.05536491
v 0.00745000 -0.02400000 0.05504737
v 0.00736491 -0.02336491 0.05536491
v 0.00704737 -0.02455000 0.05600000
v 0.00690000 -0.02400000 0.05600000
v 0.00704737 -0.02345000 0.05600000
v 0.00745000 -0.02495263 0.05600000
v 0.00745000 -0.02304737 0.05600000
v 0.00800000 -0.02455000 0.05504737
v 0.00800000 -0.02495263 0.05545000
v 0.00800000 -0.02400000 0.05490000
v 0.00800000 -0.02345000 0.05504737
v 0.00800000 -0.02510000 0.05600000
v 0.00800000 -0.02304737 0.05545000
v 0.00704737 -0.02400000 0.05655000
v 0.00736491 -0.02463509 0.05663509
v 0.00736491 -0.02336491 0.05663509
v 0.00745000 -0.02400000 0.05695263
v 0.00800000 -0.02495263 0.05655000
v 0.00800000 -0.02455000 0.05695263
v 0.00863509 -0.02463509 0.05536491
v 0.00855000 -0.02400000 0.05504737
v 0.00863509 -0.02336491 0.05536491
v 0.00895263 -0.02400000 0.05545000
v 0.00855000 -0.02495263 0.05600000
v 0.00895263 -0.02455000 0.05600000
v 0.00863509 -0.02463509 0.05663509
v 0.01104737 -0.01951229 0.05945000
v 0.01145000 -0.01951229 0.05904737
v 0.01124869 -0.01948114 0.05924869
v 0.01104737 -0.02000000 0.06055000
v 0.01136491 -0.02063509 0.06063509
v 0.01145000 -0.02000000 0.06095263
v 0.01093114 -0.01956623 0.05988377
v 0.01101623 -0.01948114 0.05956623
v 0.01090000 -0.01970526 0.06000000
v 0.01096229 -0.01976754 0.06023246
v 0.01156623 -0.01948114 0.05901623
v 0.01188377 -0.01956623 0.05893114
v 0.01200000 -0.01970526 0.05890000
v 0.01223246 -0.01976754 0.05896229
v 0.01255000 -0.02000000 0.05904737
v 0.01263509 -0.02063509 0.05936491
v 0.01295263 -0.02000000 0.05945000
v 0.01200000 -0.02095263 0.06055000
v 0.01200000 -0.02055000 0.06095263
v 0.01200000 -0.02000000 0.06110000
v 0.01255000 -0.02095263 0.06000000
v 0.01295263 -0.02055000 0.06000000
v 0.01310000 -0.02000000 0.06000000
v 0.01263509 -0.02063509 0.06063509
v 0.01255000 -0.02000000 0.06095263
v 0.01295263 -0.02000000 0.06055000
v 0.01104737 -0.01200000 0.05945000
v 0.01145000 -0.01200000 0.05904737
v 0.01136491 -0.01136491 0.05936491
v 0.01090000 -0.01200000 0.06000000
v 0.01104737 -0.01145000 0.06000000
v 0.01145000 -0.01104737 0.06000000
v 0.01104737 -0.01200000 0.06055000
v 0.01145000 -0.01200000 0.06095263
v 0.01136491 -0.01136491 0.06063509
v 0.01200000 -0.01200000 0.05890000
v 0.01200000 -0.01145000 0.05904737
v 0.01200000 -0.01104737 0.05945000
v 0.01255000 -0.01200000 0.05904737
v 0.01263509 -0.01136491 0.05936491
v 0.01295263 -0.01200000 0.05945000
v 0.01200000 -0.01090000 0.06000000
v 0.01200000 -0.01200000 0.06110000
v 0.01200000 -0.01104737 0.06055000
v 0.01200000 -0.01145000 0.06095263
v 0.01255000 -0.01104737 0.06000000
v 0.01310000 -0.01200000 0.06000000
v 0.01295263 -0.01145000 0.06000000
v 0.01255000 -0.01200000 0.06095263
v 0.01263509 -0.01136491 0.06063509
v 0.01295263 -0.01200000 0.06055000
f 2 5 1
f 2 1 3
f 1 4 3
f 1 7 4
f 2 3 10
f 2 11 8
f 3 4 13
f 2 8 5
f 5 8 17
f 5 17 16
f 5 6 1
f 1 6 7
f 5 16 6
f 6 16 7
f 16 18 7
f 8 20 17
f 4 7 9
f 2 10 11
f 3 12 10
f 3 13 12
f 11 10 22
f 10 23 22
f 11 22 26
f 10 12 23
f 12 13 23
f 13 24 23
f 8 11 14
f 8 14 20
f 11 26 14
f 14 26 20
f 20 26 28
f 4 15 13
f 17 19 16
f 17 20 21
f 7 18 35
f 22 23 25
f 22 27 26
f 4 9 31
f 4 31 15
f 7 35 9
f 16 38 18
f 20 28 52
f 26 52 28
f 13 15 40
f 23 24 43
f 13 42 24
f 17 33 19
f 16 19 34
f 17 21 33
f 20 46 21
f 9 36 29
f 9 29 31
f 9 35 36
f 16 32 38
f 18 38 37
f 18 37 35
f 16 34 32
f 26 27 50
f 22 25 44
f 23 45 25
f 22 44 27
f 15 31 30
f 15 30 39
f 15 39 40
f 13 40 41
f 13 41 42
f 24 42 43
f 23 43 45
f 21 47 33
f 21 46 47
f 26 50 49
f 27 44 50
f 20 52 46
f 26 49 52
f 19 33 34
f 25 45 44
f 34 33 47
f 47 48 34
f 44 45 50
f 53 47 52
f 50 54 52
f 52 54 53
f 46 52 47
f 53 48 47
f 49 50 52
f 50 45 51
f 51 54 50
f 55 29 36
f 55 31 29
f 56 39 30
f 55 30 31
f 56 30 55
f 61 37 38
f 55 36 35
f 58 35 37
f 61 38 32
f 61 32 34
f 55 35 58
f 58 37 61
f 61 34 62
f 56 55 57
f 55 58 59
f 58 61 59
f 57 55 59
f 57 59 60
f 59 63 60
f 59 61 63
f 61 62 63
f 56 40 39
f 56 41 40
f 64 42 41
f 64 43 42
f 56 64 41
f 69 45 43
f 64 67 43
f 67 69 43
f 62 34 48
f 62 48 71
f 71 48 77
f 69 51 45
f 75 54 51
f 77 48 53
f 79 53 54
f 69 75 51
f 79 77 53
f 75 79 54
f 56 65 64
f 56 57 65
f 57 66 65
f 64 65 67
f 65 66 68
f 65 68 67
f 67 68 69
f 57 60 66
f 60 70 66
f 60 72 70
f 66 70 74
f 70 72 74
f 62 71 73
f 60 63 72
f 63 62 73
f 63 73 72
f 71 77 73
f 72 73 78
f 66 74 68
f 69 76 75
f 76 79 75
f 68 76 69
f 68 74 76
f 74 78 76
f 72 78 74
f 73 77 78
f 79 78 77
f 76 78 79

