# https://github.com/mikedh/trimesh
v 0.00413397 -0.02050000 0.09600000
v 0.00413397 -0.02000000 0.09550000
v 0.00422598 -0.02005750 0.09541950
v 0.00413397 -0.02000000 0.09650000
v 0.00442265 -0.02057735 0.09542265
v 0.00450000 -0.02086603 0.09600000
v 0.00442265 -0.02057735 0.09657735
v 0.00500000 -0.02086603 0.09650000
v 0.00500000 -0.02050000 0.09686603
v 0.00450000 -0.02000000 0.09513397
v 0.00450000 -0.02000000 0.09686603
v 0.00500000 -0.02000000 0.09700000
v 0.00489825 -0.01973546 0.09500000
v 0.00490279 -0.01972274 0.09500253
v 0.00507644 -0.01954778 0.09506709
v 0.00528070 -0.01942982 0.09513397
v 0.00532783 -0.01933887 0.09521315
v 0.00557735 -0.02057735 0.09657735
v 0.00550000 -0.02000000 0.09686603
v 0.00586603 -0.02000000 0.09650000
v 0.00554627 -0.01934185 0.09542265
v 0.00561131 -0.01933775 0.09550000
v 0.00585515 -0.01947173 0.09600000
v 0.00566491 -0.01947710 0.09650000
v 0.00570549 -0.01926240 0.09582020
v 0.00557735 -0.01942265 0.09657735
v 0.01242265 -0.02557735 0.08842265
v 0.01213397 -0.02500000 0.08850000
v 0.01228352 -0.02486470 0.08832340
v 0.01250000 -0.02586603 0.08900000
v 0.01300000 -0.02600000 0.08900000
v 0.01300000 -0.02586603 0.08950000
v 0.01300000 -0.02550000 0.08986603
v 0.01350000 -0.02586603 0.08900000
v 0.01357735 -0.02557735 0.08957735
v 0.01350000 -0.02500000 0.08986603
v 0.01386603 -0.02500000 0.08950000
v 0.01242265 -0.02442265 0.08842265
v 0.01260650 -0.02425406 0.08847829
v 0.01272131 -0.02412168 0.08858197
v 0.01350000 -0.02413397 0.08900000
v 0.01357735 -0.02442265 0.08957735
v 0.01290214 -0.02407281 0.08858562
v 0.01303210 -0.02399822 0.08893937
v -0.00057735 -0.00757735 0.09542265
v -0.00057735 -0.00757735 0.09657735
v -0.00086603 -0.00750000 0.09600000
v -0.00086603 -0.00700000 0.09550000
v -0.00050000 -0.00700000 0.09513397
v 0.00000000 -0.00700000 0.09500000
v -0.00100000 -0.00700000 0.09600000
v -0.00086603 -0.00700000 0.09650000
v -0.00050000 -0.00700000 0.09686603
v 0.00000000 -0.00700000 0.09700000
v -0.00057735 -0.00642265 0.09542265
v 0.00000000 -0.00650000 0.09513397
v 0.00000000 -0.00613397 0.09550000
v -0.00086603 -0.00650000 0.09600000
v -0.00057735 -0.00642265 0.09657735
v -0.00050000 -0.00613397 0.09600000
v 0.00000000 -0.00650000 0.09686603
v 0.00000000 -0.00600000 0.09600000
v 0.00000000 -0.00613397 0.09650000
v 0.00050000 -0.00700000 0.09513397
v 0.00086603 -0.00700000 0.09550000
v 0.00050000 -0.00700000 0.09686603
v 0.00086603 -0.00700000 0.09650000
v 0.00057735 -0.00642265 0.09542265
v 0.00057735 -0.00642265 0.09657735
v 0.00050000 -0.00613397 0.09600000
v 0.00086603 -0.00650000 0.09600000
v 0.02342265 -0.02507735 0.06142265
v 0.02313397 -0.02500000 0.06200000
v 0.02400000 -0.02550000 0.06200000
v 0.02350000 -0.02536603 0.06200000
v 0.02313397 -0.02450000 0.06150000
v 0.02300000 -0.02450000 0.06200000
v 0.02342265 -0.02392265 0.06142265
v 0.02313397 -0.02400000 0.06200000
v 0.02350000 -0.02363397 0.06200000
v 0.02400000 -0.02350000 0.06200000
v 0.02321132 -0.02507735 0.06873964
v 0.02313397 -0.02500000 0.06880801
v 0.02300000 -0.02450000 0.06870096
v 0.02313397 -0.02400000 0.06880801
v 0.02321132 -0.02392265 0.06873964
v 0.02142265 -0.02507735 0.07142265
v 0.02200000 -0.02550000 0.07200000
v 0.02150000 -0.02536603 0.07200000
v 0.02113397 -0.02450000 0.07150000
v 0.02142265 -0.02392265 0.07142265
v 0.02150000 -0.02363397 0.07200000
v 0.02400000 -0.02550000 0.06900000
v 0.02350000 -0.02536603 0.06900000
v 0.02250000 -0.02536603 0.07200000
v 0.02257735 -0.02507735 0.07257735
v 0.02350000 -0.02363397 0.06900000
v 0.02286603 -0.02450000 0.07250000
v 0.02257735 -0.02392265 0.07257735
v 0.02250000 -0.02363397 0.07200000
v 0.02200000 -0.02350000 0.07200000
v 0.02400000 -0.02350000 0.06900000
v 0.02650000 -0.02486603 0.05700000
v 0.02642265 -0.02457735 0.05642265
v 0.02613397 -0.02400000 0.05650000
v 0.02700000 -0.02486603 0.05650000
v 0.02700000 -0.02500000 0.05700000
v 0.02750000 -0.02486603 0.05700000
v 0.02757735 -0.02457735 0.05757735
v 0.02786603 -0.02450000 0.05700000
v 0.02786603 -0.02400000 0.05750000
v 0.02450000 -0.02536603 0.06200000
v 0.02483094 -0.02503509 0.06215470
v 0.02486603 -0.02500000 0.06211853
v 0.02500000 -0.02450000 0.06225967
v 0.02499427 -0.02447863 0.06228625
v 0.02475849 -0.02389246 0.06227546
v 0.02486603 -0.02400000 0.06217722
v 0.02450000 -0.02363397 0.06200000
v 0.02631462 -0.02337957 0.05675913
v 0.02642265 -0.02342265 0.05642265
v 0.02650000 -0.02313397 0.05700000
v 0.02700612 -0.02312990 0.05749184
v 0.02698508 -0.02300249 0.05702487
v 0.02757735 -0.02342265 0.05757735
v 0.02723751 -0.02317772 0.05743749
v 0.02942265 -0.02257735 0.05242265
v 0.03000000 -0.02286603 0.05250000
v 0.03000000 -0.02250000 0.05213397
v 0.03057735 -0.02257735 0.05242265
v 0.03050000 -0.02286603 0.05300000
v 0.03086603 -0.02250000 0.05300000
v 0.03057735 -0.02257735 0.05357735
v 0.02913397 -0.02200000 0.05250000
v 0.02950000 -0.02200000 0.05213397
v 0.02913397 -0.02150000 0.05300000
v 0.02928868 -0.02151197 0.05260128
v 0.02942265 -0.02142265 0.05242265
v 0.02932662 -0.02124956 0.05323117
v 0.02976672 -0.02133321 0.05386603
v 0.02941334 -0.02130159 0.05350000
v 0.02946854 -0.02130792 0.05357735
v 0.02974760 -0.02130224 0.05383653
v 0.03000000 -0.02200000 0.05200000
v 0.03050000 -0.02200000 0.05213397
v 0.03086603 -0.02200000 0.05250000
v 0.03051187 -0.02197033 0.05386603
v 0.03080067 -0.02201906 0.05357735
v 0.03086603 -0.02200000 0.05350000
v 0.03016191 -0.02159523 0.05400000
v 0.03028722 -0.02161607 0.05396419
v 0.02450000 -0.02536603 0.06900000
v 0.02457735 -0.02507735 0.06957735
v 0.02486603 -0.02500000 0.06900000
v 0.02500000 -0.02450000 0.06900000
v 0.02486603 -0.02450000 0.06950000
v 0.02457735 -0.02392265 0.06957735
v 0.02486603 -0.02400000 0.06900000
v 0.02450000 -0.02363397 0.06900000
v 0.03257735 -0.01757735 0.05242265
v 0.03286603 -0.01750000 0.05300000
v 0.03257735 -0.01757735 0.05357735
v 0.03113397 -0.01700000 0.05250000
v 0.03150000 -0.01700000 0.05213397
v 0.03113397 -0.01700000 0.05350000
v 0.03150000 -0.01700000 0.05386603
v 0.03113397 -0.01650000 0.05300000
v 0.03142265 -0.01642265 0.05242265
v 0.03150000 -0.01613397 0.05300000
v 0.03142265 -0.01642265 0.05357735
v 0.03200000 -0.01700000 0.05200000
v 0.03250000 -0.01700000 0.05213397
v 0.03286603 -0.01700000 0.05250000
v 0.03300000 -0.01700000 0.05300000
v 0.03200000 -0.01700000 0.05400000
v 0.03250000 -0.01700000 0.05386603
v 0.03286603 -0.01700000 0.05350000
v 0.03200000 -0.01650000 0.05213397
v 0.03200000 -0.01613397 0.05250000
v 0.03257735 -0.01642265 0.05242265
v 0.03286603 -0.01650000 0.05300000
v 0.03250000 -0.01613397 0.05300000
v 0.03200000 -0.01650000 0.05386603
v 0.03200000 -0.01613397 0.05350000
v 0.03257735 -0.01642265 0.05357735
v 0.03200000 -0.01600000 0.05300000
f 45 3 5
f 6 8 7
f 6 7 1
f 7 8 9
f 7 9 11
f 11 9 12
f 19 9 18
f 48 5 2
f 49 10 3
f 50 13 10
f 48 2 1
f 52 4 7
f 52 1 4
f 53 7 11
f 54 11 12
f 45 5 48
f 47 48 1
f 47 1 52
f 46 52 7
f 46 7 53
f 45 49 3
f 49 50 10
f 50 64 13
f 53 11 54
f 54 19 66
f 66 19 69
f 64 14 13
f 64 15 14
f 54 12 19
f 64 16 15
f 68 17 16
f 65 22 21
f 68 21 17
f 65 23 25
f 65 25 22
f 69 19 26
f 69 26 24
f 67 24 23
f 64 68 16
f 65 21 68
f 65 71 23
f 67 23 71
f 67 69 24
f 45 48 49
f 48 55 49
f 49 55 56
f 49 56 50
f 47 51 48
f 47 52 51
f 46 53 52
f 48 51 58
f 51 52 58
f 48 58 55
f 52 59 58
f 52 53 59
f 53 61 59
f 53 54 61
f 55 57 56
f 55 58 60
f 58 59 60
f 59 61 63
f 55 60 57
f 60 62 57
f 60 63 62
f 59 63 60
f 50 56 64
f 64 56 68
f 54 66 61
f 66 69 61
f 65 68 71
f 67 71 69
f 56 57 68
f 61 69 63
f 57 62 70
f 62 63 70
f 57 70 68
f 63 69 70
f 68 70 71
f 71 70 69
f 5 27 6
f 5 3 28
f 3 10 28
f 10 13 38
f 13 14 38
f 2 5 1
f 1 7 4
f 5 6 1
f 12 9 19
f 19 20 26
f 27 30 6
f 27 5 28
f 6 30 32
f 32 33 8
f 35 18 33
f 35 36 19
f 28 10 29
f 38 29 10
f 14 39 38
f 16 40 39
f 40 17 43
f 21 44 43
f 44 25 41
f 6 32 8
f 8 33 9
f 14 15 39
f 16 39 15
f 23 42 25
f 24 42 23
f 9 33 18
f 18 35 19
f 19 37 20
f 20 37 26
f 24 26 42
f 19 36 37
f 42 26 37
f 25 42 41
f 31 32 30
f 32 34 35
f 36 35 37
f 16 17 40
f 21 43 17
f 21 22 44
f 44 22 25
f 87 27 28
f 30 88 31
f 30 27 89
f 28 29 91
f 91 29 38
f 38 39 92
f 92 39 40
f 40 43 92
f 92 43 44
f 31 34 32
f 32 35 33
f 27 87 89
f 90 87 28
f 89 88 30
f 95 31 88
f 96 34 95
f 98 35 96
f 90 28 91
f 38 92 91
f 44 101 92
f 42 98 99
f 100 42 99
f 101 41 100
f 34 31 95
f 34 96 35
f 35 98 37
f 37 98 42
f 44 41 101
f 42 100 41
f 87 82 89
f 87 90 83
f 90 91 86
f 91 92 97
f 92 101 97
f 89 94 93
f 88 89 93
f 88 152 95
f 94 89 82
f 87 83 82
f 95 153 96
f 152 88 93
f 152 153 95
f 96 153 156
f 83 90 84
f 85 84 90
f 85 90 86
f 96 156 98
f 98 156 99
f 97 86 91
f 102 97 101
f 99 157 100
f 100 159 101
f 101 159 102
f 157 159 100
f 157 99 156
f 153 154 156
f 155 158 156
f 157 156 158
f 72 75 73
f 73 77 76
f 75 94 73
f 74 94 75
f 112 93 74
f 73 94 82
f 73 82 83
f 73 83 84
f 94 74 93
f 93 112 152
f 73 84 77
f 77 84 79
f 79 97 80
f 80 102 81
f 81 102 119
f 84 85 79
f 79 85 86
f 97 79 86
f 102 80 97
f 119 102 159
f 152 112 113
f 114 152 113
f 154 114 115
f 152 114 154
f 155 115 116
f 118 158 116
f 158 117 119
f 158 118 117
f 154 115 155
f 155 116 158
f 158 119 159
f 152 154 153
f 154 155 156
f 157 158 159
f 75 72 104
f 72 73 76
f 104 72 76
f 78 121 76
f 78 80 121
f 77 79 76
f 76 79 78
f 80 78 79
f 106 107 103
f 104 106 103
f 106 108 107
f 103 75 104
f 74 75 107
f 112 74 107
f 107 75 103
f 108 112 107
f 112 108 113
f 109 114 113
f 104 76 105
f 105 76 121
f 109 115 114
f 115 111 116
f 118 116 111
f 118 111 117
f 125 119 117
f 108 109 113
f 109 111 115
f 111 125 117
f 120 121 80
f 122 120 80
f 81 122 80
f 81 119 124
f 122 81 124
f 123 124 119
f 123 119 126
f 119 125 126
f 108 110 109
f 105 134 104
f 106 131 108
f 104 128 106
f 110 108 131
f 109 133 111
f 128 104 127
f 104 134 127
f 134 121 137
f 134 105 121
f 120 137 121
f 122 136 120
f 122 124 139
f 111 151 125
f 139 124 123
f 143 126 125
f 123 126 143
f 120 136 137
f 136 122 139
f 123 141 139
f 123 142 141
f 123 143 142
f 131 106 128
f 109 110 132
f 132 110 131
f 133 109 132
f 132 130 146
f 133 132 149
f 111 133 149
f 111 148 147
f 151 111 147
f 111 149 148
f 127 134 135
f 135 144 129
f 125 150 140
f 125 140 143
f 125 151 150
f 128 127 129
f 129 127 135
f 128 129 130
f 128 130 131
f 132 131 130
f 130 129 145
f 138 135 134
f 145 129 144
f 163 134 137
f 163 137 136
f 168 138 134
f 168 135 138
f 165 136 139
f 171 144 135
f 171 145 144
f 165 141 142
f 165 139 141
f 166 142 143
f 166 143 140
f 166 140 150
f 172 130 145
f 173 146 130
f 161 132 146
f 161 149 132
f 162 147 148
f 176 150 151
f 176 151 147
f 177 148 149
f 164 171 135
f 160 130 172
f 171 172 145
f 166 150 175
f 162 176 147
f 175 150 176
f 160 173 130
f 161 146 173
f 161 177 149
f 162 148 177
f 163 168 134
f 164 135 168
f 163 136 167
f 165 167 136
f 165 142 170
f 166 170 142
f 163 167 168
f 165 170 167
f 164 168 178
f 164 178 171
f 166 183 170
f 166 175 183
f 167 169 168
f 167 170 169
f 168 179 178
f 168 169 179
f 170 184 169
f 169 186 179
f 169 184 186
f 170 183 184
f 171 178 172
f 172 178 180
f 160 172 173
f 161 173 174
f 161 174 177
f 172 180 173
f 173 180 181
f 173 181 174
f 174 181 177
f 177 181 185
f 175 176 183
f 176 185 183
f 162 177 176
f 176 177 185
f 178 179 180
f 179 182 180
f 179 186 182
f 186 184 182
f 184 185 182
f 181 180 182
f 181 182 185
f 183 185 184

