# https://github.com/mikedh/trimesh
v 0.02900000 -0.03828654 0.07347218
v 0.02900000 -0.03752782 0.07271346
v 0.02900000 -0.03794454 0.07305546
v 0.02900000 -0.03854067 0.07394762
v 0.02900000 -0.03869716 0.07446350
v 0.02900000 -0.03705238 0.07245933
v 0.02900000 -0.03653650 0.07230284
v 0.03200000 -0.03828654 0.07347218
v 0.03200000 -0.03752782 0.07271346
v 0.03200000 -0.03794454 0.07305546
v 0.03200000 -0.03854067 0.07394762
v 0.03200000 -0.03869716 0.07446350
v 0.03200000 -0.03737658 0.07442980
v 0.03200000 -0.03746137 0.07470932
v 0.03200000 -0.03705238 0.07245933
v 0.03200000 -0.03653650 0.07230284
v 0.03200000 -0.03657020 0.07362342
v 0.03200000 -0.03629068 0.07353863
v 0.03200000 -0.03705359 0.07394641
v 0.03200000 -0.03723889 0.07417220
v 0.03200000 -0.03682780 0.07376111
v 0.02900000 -0.03875000 0.07500000
v 0.02900000 -0.03869716 0.07553650
v 0.02900000 -0.03854067 0.07605238
v 0.02900000 -0.03828654 0.07652782
v 0.02900000 -0.03794454 0.07694454
v 0.02900000 -0.03752782 0.07728654
v 0.02900000 -0.03705238 0.07754067
v 0.02900000 -0.03653650 0.07769716
v 0.03200000 -0.03875000 0.07500000
v 0.03200000 -0.03869716 0.07553650
v 0.03200000 -0.03854067 0.07605238
v 0.03200000 -0.03749000 0.07500000
v 0.03200000 -0.03746137 0.07529068
v 0.03200000 -0.03737658 0.07557020
v 0.03200000 -0.03828654 0.07652782
v 0.03200000 -0.03794454 0.07694454
v 0.03200000 -0.03752782 0.07728654
v 0.03200000 -0.03723889 0.07582780
v 0.03200000 -0.03705359 0.07605359
v 0.03200000 -0.03682780 0.07623889
v 0.03200000 -0.03705238 0.07754067
v 0.03200000 -0.03657020 0.07637658
v 0.03200000 -0.03629068 0.07646137
v 0.03200000 -0.03653650 0.07769716
v 0.02900000 -0.03600000 0.07225000
v 0.02900000 -0.03546350 0.07230284
v 0.02900000 -0.03494762 0.07245933
v 0.02900000 -0.03447218 0.07271346
v 0.02900000 -0.03405546 0.07305546
v 0.02900000 -0.03371346 0.07347218
v 0.02900000 -0.03345933 0.07394762
v 0.02900000 -0.03330284 0.07446350
v 0.03200000 -0.03600000 0.07225000
v 0.03200000 -0.03546350 0.07230284
v 0.03200000 -0.03600000 0.07351000
v 0.03200000 -0.03570932 0.07353863
v 0.03200000 -0.03542980 0.07362342
v 0.03200000 -0.03494762 0.07245933
v 0.03200000 -0.03517220 0.07376111
v 0.03200000 -0.03494641 0.07394641
v 0.03200000 -0.03476111 0.07417220
v 0.03200000 -0.03447218 0.07271346
v 0.03200000 -0.03405546 0.07305546
v 0.03200000 -0.03371346 0.07347218
v 0.03200000 -0.03462342 0.07442980
v 0.03200000 -0.03453863 0.07470932
v 0.03200000 -0.03345933 0.07394762
v 0.03200000 -0.03330284 0.07446350
v 0.02900000 -0.03600000 0.07775000
v 0.02900000 -0.03546350 0.07769716
v 0.02900000 -0.03494762 0.07754067
v 0.02900000 -0.03325000 0.07500000
v 0.02900000 -0.03330284 0.07553650
v 0.02900000 -0.03345933 0.07605238
v 0.02900000 -0.03405546 0.07694454
v 0.02900000 -0.03447218 0.07728654
v 0.02900000 -0.03371346 0.07652782
v 0.03200000 -0.03517220 0.07623889
v 0.03200000 -0.03476111 0.07582780
v 0.03200000 -0.03494641 0.07605359
v 0.03200000 -0.03600000 0.07649000
v 0.03200000 -0.03570932 0.07646137
v 0.03200000 -0.03542980 0.07637658
v 0.03200000 -0.03600000 0.07775000
v 0.03200000 -0.03546350 0.07769716
v 0.03200000 -0.03494762 0.07754067
v 0.03200000 -0.03451000 0.07500000
v 0.03200000 -0.03453863 0.07529068
v 0.03200000 -0.03462342 0.07557020
v 0.03200000 -0.03325000 0.07500000
v 0.03200000 -0.03330284 0.07553650
v 0.03200000 -0.03345933 0.07605238
v 0.03200000 -0.03405546 0.07694454
v 0.03200000 -0.03447218 0.07728654
v 0.03200000 -0.03371346 0.07652782
v 0.04100000 -0.03737658 0.07442980
v 0.04100000 -0.03746137 0.07470932
v 0.04100000 -0.03657020 0.07362342
v 0.04100000 -0.03629068 0.07353863
v 0.04100000 -0.03705359 0.07394641
v 0.04100000 -0.03723889 0.07417220
v 0.04100000 -0.03682780 0.07376111
v 0.04100000 -0.03749000 0.07500000
v 0.04100000 -0.03746137 0.07529068
v 0.04100000 -0.03737658 0.07557020
v 0.04100000 -0.03723889 0.07582780
v 0.04100000 -0.03705359 0.07605359
v 0.04100000 -0.03682780 0.07623889
v 0.04100000 -0.03657020 0.07637658
v 0.04100000 -0.03629068 0.07646137
v 0.04100000 -0.03600000 0.07351000
v 0.04100000 -0.03570932 0.07353863
v 0.04100000 -0.03542980 0.07362342
v 0.04100000 -0.03517220 0.07376111
v 0.04100000 -0.03494641 0.07394641
v 0.04100000 -0.03476111 0.07417220
v 0.04100000 -0.03462342 0.07442980
v 0.04100000 -0.03453863 0.07470932
v 0.04100000 -0.03517220 0.07623889
v 0.04100000 -0.03476111 0.07582780
v 0.04100000 -0.03494641 0.07605359
v 0.04100000 -0.03600000 0.07649000
v 0.04100000 -0.03570932 0.07646137
v 0.04100000 -0.03542980 0.07637658
v 0.04100000 -0.03451000 0.07500000
v 0.04100000 -0.03453863 0.07529068
v 0.04100000 -0.03462342 0.07557020
f 98 14 13
f 104 33 14
f 99 17 18
f 100 18 56
f 102 20 19
f 101 19 21
f 103 21 17
f 97 13 20
f 98 13 97
f 104 14 98
f 99 18 100
f 100 56 112
f 99 100 113
f 97 20 102
f 102 19 101
f 101 21 103
f 103 17 99
f 101 103 115
f 102 101 116
f 97 102 117
f 103 99 114
f 98 97 118
f 104 98 119
f 105 34 33
f 106 35 34
f 107 39 35
f 108 40 39
f 109 41 40
f 110 43 41
f 111 44 43
f 123 82 44
f 105 33 104
f 106 34 105
f 107 35 106
f 107 108 39
f 109 40 108
f 109 110 41
f 105 104 126
f 106 105 127
f 107 106 128
f 107 121 108
f 109 108 122
f 109 120 110
f 110 111 43
f 111 123 44
f 110 125 111
f 112 56 57
f 113 57 58
f 114 58 60
f 115 60 61
f 116 61 62
f 117 62 66
f 118 66 67
f 119 67 88
f 112 57 113
f 113 58 114
f 100 112 113
f 99 113 114
f 114 60 115
f 116 115 61
f 116 62 117
f 118 117 66
f 103 114 115
f 101 115 116
f 102 116 117
f 97 117 118
f 98 118 119
f 104 119 126
f 119 118 67
f 126 119 88
f 128 90 80
f 120 79 84
f 122 81 79
f 121 80 81
f 124 83 82
f 125 84 83
f 126 88 89
f 127 89 90
f 125 120 84
f 120 122 79
f 122 121 81
f 121 128 80
f 105 126 127
f 106 127 128
f 110 120 125
f 107 128 121
f 108 121 122
f 109 122 120
f 123 124 82
f 124 125 83
f 111 124 123
f 111 125 124
f 127 126 89
f 128 127 90
f 1 3 8
f 3 2 10
f 2 9 10
f 3 10 8
f 4 1 11
f 5 4 12
f 22 5 30
f 4 11 12
f 1 8 11
f 5 12 30
f 2 6 9
f 6 7 15
f 1 50 3
f 6 47 7
f 2 48 6
f 3 49 2
f 7 46 16
f 6 15 9
f 7 16 15
f 16 46 54
f 4 51 1
f 5 52 4
f 22 53 5
f 12 11 20
f 30 12 14
f 11 8 21
f 11 21 19
f 11 19 20
f 12 20 13
f 12 13 14
f 30 14 33
f 8 17 21
f 8 18 17
f 8 10 64
f 8 56 18
f 15 16 55
f 9 15 59
f 10 9 63
f 23 22 31
f 24 23 32
f 25 24 36
f 31 22 30
f 23 31 32
f 24 32 36
f 25 37 26
f 27 26 38
f 25 36 37
f 26 37 38
f 23 73 22
f 24 74 23
f 25 75 24
f 27 42 28
f 28 45 29
f 25 26 78
f 27 76 26
f 27 28 77
f 28 29 72
f 29 85 70
f 27 38 42
f 28 42 45
f 29 45 85
f 31 30 33
f 32 31 34
f 31 33 34
f 32 34 35
f 36 32 39
f 32 35 39
f 36 39 40
f 36 40 41
f 36 41 43
f 36 43 44
f 36 44 82
f 36 96 37
f 38 37 94
f 38 95 42
f 42 87 45
f 7 47 46
f 6 48 47
f 2 49 48
f 46 47 54
f 3 50 49
f 1 51 50
f 47 48 55
f 48 49 59
f 47 55 54
f 48 59 55
f 49 63 59
f 4 52 51
f 5 53 52
f 22 73 53
f 50 63 49
f 50 51 64
f 50 64 63
f 51 65 64
f 52 65 51
f 53 68 52
f 73 69 53
f 52 68 65
f 53 69 68
f 73 91 69
f 16 54 55
f 15 55 59
f 9 59 63
f 8 65 56
f 10 63 64
f 8 64 65
f 65 57 56
f 65 58 57
f 65 60 58
f 65 61 60
f 65 62 61
f 68 66 62
f 68 62 65
f 68 67 66
f 69 88 67
f 69 67 68
f 91 88 69
f 23 74 73
f 24 75 74
f 25 78 75
f 29 70 71
f 27 77 76
f 28 72 77
f 29 71 72
f 70 86 71
f 26 76 78
f 71 87 72
f 72 95 77
f 70 85 86
f 71 86 87
f 72 87 95
f 74 91 73
f 75 92 74
f 78 93 75
f 74 92 91
f 78 96 93
f 75 93 92
f 77 94 76
f 76 96 78
f 76 94 96
f 77 95 94
f 36 82 96
f 45 86 85
f 38 94 95
f 42 95 87
f 45 87 86
f 96 82 83
f 37 96 94
f 96 83 84
f 96 84 79
f 91 89 88
f 92 90 89
f 92 80 90
f 93 81 80
f 93 79 81
f 96 79 93
f 92 89 91
f 93 80 92

