# https://github.com/mikedh/trimesh
v -0.02460000 -0.03162132 0.06887868
v -0.02460000 -0.03100000 0.06840192
v -0.02460000 -0.03064805 0.06822836
v -0.02460000 -0.03132628 0.06861994
v -0.02460000 -0.03188006 0.06917372
v -0.02460000 -0.03209808 0.06950000
v -0.02460000 -0.03227164 0.06985195
v -0.02460000 -0.03027646 0.06810222
v -0.02460000 -0.02989158 0.06802567
v -0.02460000 -0.02950000 0.06800000
v -0.02460000 -0.03239778 0.07022354
v -0.02460000 -0.03247433 0.07060842
v -0.02460000 -0.03250000 0.07100000
v -0.02460000 -0.02948585 0.07030651
v -0.02460000 -0.02972789 0.07043588
v -0.02460000 -0.02994005 0.07060999
v -0.02460000 -0.02922322 0.07022684
v -0.02460000 -0.02895010 0.07019994
v -0.02460000 -0.02867697 0.07022684
v -0.02460000 -0.03011415 0.07082214
v -0.02460000 -0.03024353 0.07106419
v -0.02460000 -0.03032320 0.07132682
v -0.02460000 -0.03035010 0.07159994
v -0.02460000 -0.02841434 0.07030651
v -0.02460000 -0.02817230 0.07043588
v -0.02460000 -0.02796015 0.07060999
v -0.02460000 -0.02778604 0.07082214
v -0.02460000 -0.02765666 0.07106419
v -0.02460000 -0.02757700 0.07132682
v -0.02460000 -0.02755010 0.07159994
v -0.02460000 -0.03032320 0.07187307
v -0.02460000 -0.03024353 0.07213570
v -0.02460000 -0.03011415 0.07237774
v -0.02460000 -0.02994005 0.07258989
v -0.02460000 -0.02972789 0.07276400
v -0.02460000 -0.02948585 0.07289337
v -0.02460000 -0.02922322 0.07297304
v -0.02460000 -0.02895010 0.07299994
v -0.02460000 -0.02867697 0.07297304
v -0.02460000 -0.02757700 0.07187307
v -0.02460000 -0.02765666 0.07213570
v -0.02460000 -0.02796015 0.07258989
v -0.02460000 -0.02778604 0.07237774
v -0.02460000 -0.02841434 0.07289337
v -0.02460000 -0.02817230 0.07276400
v -0.02460000 -0.02967786 0.09328598
v -0.02460000 -0.02917318 0.09307694
v -0.02460000 -0.02943581 0.09315660
v -0.02460000 -0.02890006 0.09305004
v -0.02460000 -0.02862693 0.09307694
v -0.02460000 -0.03006412 0.09367224
v -0.02460000 -0.02989001 0.09346009
v -0.02460000 -0.03019349 0.09391428
v -0.02460000 -0.03027316 0.09417691
v -0.02460000 -0.02836430 0.09315660
v -0.02460000 -0.02812226 0.09328598
v -0.02460000 -0.02791011 0.09346009
v -0.02460000 -0.02773600 0.09367224
v -0.02460000 -0.02760663 0.09391428
v -0.02460000 -0.02752696 0.09417691
v -0.02460000 -0.03250000 0.09500000
v -0.02460000 -0.03247433 0.09539158
v -0.02460000 -0.03239778 0.09577646
v -0.02460000 -0.03030006 0.09445004
v -0.02460000 -0.03027316 0.09472316
v -0.02460000 -0.03019349 0.09498579
v -0.02460000 -0.03006412 0.09522783
v -0.02460000 -0.02989001 0.09543999
v -0.02460000 -0.02967786 0.09561409
v -0.02460000 -0.02943581 0.09574347
v -0.02460000 -0.02917318 0.09582314
v -0.02460000 -0.02890006 0.09585004
v -0.02460000 -0.02862693 0.09582314
v -0.02460000 -0.03227164 0.09614805
v -0.02460000 -0.03209808 0.09650000
v -0.02460000 -0.03188006 0.09682628
v -0.02460000 -0.03162132 0.09712132
v -0.02460000 -0.03132628 0.09738006
v -0.02460000 -0.03100000 0.09759808
v -0.02460000 -0.03064805 0.09777164
v -0.02460000 -0.03027646 0.09789778
v -0.02460000 -0.02989158 0.09797433
v -0.02460000 -0.02950000 0.09800000
v -0.02460000 -0.02750006 0.09445004
v -0.02460000 -0.02752696 0.09472316
v -0.02460000 -0.02760663 0.09498579
v -0.02460000 -0.02812226 0.09561409
v -0.02460000 -0.02773600 0.09522783
v -0.02460000 -0.02791011 0.09543999
v -0.02460000 -0.02836430 0.09574347
v -0.02460000 0.02836417 0.07030651
v -0.02460000 0.02790998 0.07060999
v -0.02460000 0.02812213 0.07043588
v -0.02460000 0.02773587 0.07082214
v -0.02460000 0.02760650 0.07106419
v -0.02460000 0.02752683 0.07132682
v -0.02460000 0.02749993 0.07159994
v -0.02460000 0.02950000 0.06800000
v -0.02460000 0.02989158 0.06802567
v -0.02460000 0.03027646 0.06810222
v -0.02460000 0.03064805 0.06822836
v -0.02460000 0.03100000 0.06840192
v -0.02460000 0.03132628 0.06861994
v -0.02460000 0.03162132 0.06887868
v -0.02460000 0.03188006 0.06917372
v -0.02460000 0.03209808 0.06950000
v -0.02460000 0.03227164 0.06985195
v -0.02460000 0.02862680 0.07022684
v -0.02460000 0.02889993 0.07019994
v -0.02460000 0.02917305 0.07022684
v -0.02460000 0.02943568 0.07030651
v -0.02460000 0.02967773 0.07043588
v -0.02460000 0.02988988 0.07060999
v -0.02460000 0.03006399 0.07082214
v -0.02460000 0.03019336 0.07106419
v -0.02460000 0.03027303 0.07132682
v -0.02460000 0.03029993 0.07159994
v -0.02460000 0.03239778 0.07022354
v -0.02460000 0.03247433 0.07060842
v -0.02460000 0.03250000 0.07100000
v -0.02460000 0.02752683 0.07187307
v -0.02460000 0.02760650 0.07213570
v -0.02460000 0.02773587 0.07237774
v -0.02460000 0.02790998 0.07258989
v -0.02460000 0.02812213 0.07276400
v -0.02460000 0.02836417 0.07289337
v -0.02460000 0.03027303 0.07187307
v -0.02460000 0.03019336 0.07213570
v -0.02460000 0.02988988 0.07258989
v -0.02460000 0.03006399 0.07237774
v -0.02460000 0.02862680 0.07297304
v -0.02460000 0.02889993 0.07299994
v -0.02460000 0.02943568 0.07289337
v -0.02460000 0.02917305 0.07297304
v -0.02460000 0.02967773 0.07276400
v -0.02460000 0.02836417 0.09320664
v -0.02460000 0.02790998 0.09351012
v -0.02460000 0.02773587 0.09372228
v -0.02460000 0.02812213 0.09333602
v -0.02460000 0.02760650 0.09396432
v -0.02460000 0.02752683 0.09422695
v -0.02460000 0.02862680 0.09312697
v -0.02460000 0.02889993 0.09310007
v -0.02460000 0.02917305 0.09312697
v -0.02460000 0.02943568 0.09320664
v -0.02460000 0.02967773 0.09333602
v -0.02460000 0.02988988 0.09351012
v -0.02460000 0.03006399 0.09372228
v -0.02460000 0.03019336 0.09396432
v -0.02460000 0.03027303 0.09422695
v -0.02460000 0.02749993 0.09450007
v -0.02460000 0.02752683 0.09477320
v -0.02460000 0.02760650 0.09503583
v -0.02460000 0.02773587 0.09527787
v -0.02460000 0.02790998 0.09549002
v -0.02460000 0.02812213 0.09566413
v -0.02460000 0.02836417 0.09579351
v -0.02460000 0.03029993 0.09450007
v -0.02460000 0.03027303 0.09477320
v -0.02460000 0.03019336 0.09503583
v -0.02460000 0.02862680 0.09587317
v -0.02460000 0.02889993 0.09590007
v -0.02460000 0.02917305 0.09587317
v -0.02460000 0.02943568 0.09579351
v -0.02460000 0.02988988 0.09549002
v -0.02460000 0.03006399 0.09527787
v -0.02460000 0.02967773 0.09566413
v -0.02460000 0.03250000 0.09500000
v -0.02460000 0.03247433 0.09539158
v -0.02460000 0.03239778 0.09577646
v -0.02460000 0.02950000 0.09800000
v -0.02460000 0.02989158 0.09797433
v -0.02460000 0.03027646 0.09789778
v -0.02460000 0.03227164 0.09614805
v -0.02460000 0.03209808 0.09650000
v -0.02460000 0.03188006 0.09682628
v -0.02460000 0.03132628 0.09738006
v -0.02460000 0.03064805 0.09777164
v -0.02460000 0.03100000 0.09759808
v -0.02460000 0.03162132 0.09712132
v -0.02300000 -0.03162132 0.06887868
v -0.02300000 -0.03100000 0.06840192
v -0.02300000 -0.03064805 0.06822836
v -0.02300000 -0.03132628 0.06861994
v -0.02300000 -0.03188006 0.06917372
v -0.02300000 -0.03209808 0.06950000
v -0.02300000 -0.03227164 0.06985195
v -0.02300000 -0.03027646 0.06810222
v -0.02300000 -0.02989158 0.06802567
v -0.02300000 -0.02950000 0.06800000
v -0.02300000 -0.03239778 0.07022354
v -0.02300000 -0.03247433 0.07060842
v -0.02300000 -0.03250000 0.07100000
v -0.02300000 -0.02948585 0.07030651
v -0.02300000 -0.02972789 0.07043588
v -0.02300000 -0.02994005 0.07060999
v -0.02300000 -0.02922322 0.07022684
v -0.02300000 -0.02895010 0.07019994
v -0.02300000 -0.02867697 0.07022684
v -0.02300000 -0.03011415 0.07082214
v -0.02300000 -0.03024353 0.07106419
v -0.02300000 -0.03032320 0.07132682
v -0.02300000 -0.03035010 0.07159994
v -0.02300000 -0.02841434 0.07030651
v -0.02300000 -0.02817230 0.07043588
v -0.02300000 -0.02796015 0.07060999
v -0.02300000 -0.02778604 0.07082214
v -0.02300000 -0.02765666 0.07106419
v -0.02300000 -0.02757700 0.07132682
v -0.02300000 -0.02755010 0.07159994
v -0.02300000 -0.03032320 0.07187307
v -0.02300000 -0.03024353 0.07213570
v -0.02300000 -0.03011415 0.07237774
v -0.02300000 -0.02994005 0.07258989
v -0.02300000 -0.02972789 0.07276400
v -0.02300000 -0.02948585 0.07289337
v -0.02300000 -0.02922322 0.07297304
v -0.02300000 -0.02895010 0.07299994
v -0.02300000 -0.02867697 0.07297304
v -0.02300000 -0.02757700 0.07187307
v -0.02300000 -0.02765666 0.07213570
v -0.02300000 -0.02796015 0.07258989
v -0.02300000 -0.02778604 0.07237774
v -0.02300000 -0.02841434 0.07289337
v -0.02300000 -0.02817230 0.07276400
v -0.02300000 -0.02967786 0.09328598
v -0.02300000 -0.02917318 0.09307694
v -0.02300000 -0.02943581 0.09315660
v -0.02300000 -0.02890006 0.09305004
v -0.02300000 -0.02862693 0.09307694
v -0.02300000 -0.03006412 0.09367224
v -0.02300000 -0.02989001 0.09346009
v -0.02300000 -0.03019349 0.09391428
v -0.02300000 -0.03027316 0.09417691
v -0.02300000 -0.02836430 0.09315660
v -0.02300000 -0.02812226 0.09328598
v -0.02300000 -0.02791011 0.09346009
v -0.02300000 -0.02773600 0.09367224
v -0.02300000 -0.02760663 0.09391428
v -0.02300000 -0.02752696 0.09417691
v -0.02300000 -0.03250000 0.09500000
v -0.02300000 -0.03247433 0.09539158
v -0.02300000 -0.03239778 0.09577646
v -0.02300000 -0.03030006 0.09445004
v -0.02300000 -0.03027316 0.09472316
v -0.02300000 -0.03019349 0.09498579
v -0.02300000 -0.03006412 0.09522783
v -0.02300000 -0.02989001 0.09543999
v -0.02300000 -0.02967786 0.09561409
v -0.02300000 -0.02943581 0.09574347
v -0.02300000 -0.02917318 0.09582314
v -0.02300000 -0.02890006 0.09585004
v -0.02300000 -0.02862693 0.09582314
v -0.02300000 -0.03227164 0.09614805
v -0.02300000 -0.03209808 0.09650000
v -0.02300000 -0.03188006 0.09682628
v -0.02300000 -0.03162132 0.09712132
v -0.02300000 -0.03132628 0.09738006
v -0.02300000 -0.03100000 0.09759808
v -0.02300000 -0.03064805 0.09777164
v -0.02300000 -0.03027646 0.09789778
v -0.02300000 -0.02989158 0.09797433
v -0.02300000 -0.02950000 0.09800000
v -0.02300000 -0.02750006 0.09445004
v -0.02300000 -0.02752696 0.09472316
v -0.02300000 -0.02760663 0.09498579
v -0.02300000 -0.02812226 0.09561409
v -0.02300000 -0.02773600 0.09522783
v -0.02300000 -0.02791011 0.09543999
v -0.02300000 -0.02836430 0.09574347
v -0.02300000 0.02836417 0.07030651
v -0.02300000 0.02790998 0.07060999
v -0.02300000 0.02812213 0.07043588
v -0.02300000 0.02773587 0.07082214
v -0.02300000 0.02760650 0.07106419
v -0.02300000 0.02752683 0.07132682
v -0.02300000 0.02749993 0.07159994
v -0.02300000 0.02950000 0.06800000
v -0.02300000 0.02989158 0.06802567
v -0.02300000 0.03027646 0.06810222
v -0.02300000 0.03064805 0.06822836
v -0.02300000 0.03100000 0.06840192
v -0.02300000 0.03132628 0.06861994
v -0.02300000 0.03162132 0.06887868
v -0.02300000 0.03188006 0.06917372
v -0.02300000 0.03209808 0.06950000
v -0.02300000 0.03227164 0.06985195
v -0.02300000 0.02862680 0.07022684
v -0.02300000 0.02889993 0.07019994
v -0.02300000 0.02917305 0.07022684
v -0.02300000 0.02943568 0.07030651
v -0.02300000 0.02967773 0.07043588
v -0.02300000 0.02988988 0.07060999
v -0.02300000 0.03006399 0.07082214
v -0.02300000 0.03019336 0.07106419
v -0.02300000 0.03027303 0.07132682
v -0.02300000 0.03029993 0.07159994
v -0.02300000 0.03239778 0.07022354
v -0.02300000 0.03247433 0.07060842
v -0.02300000 0.03250000 0.07100000
v -0.02300000 0.02752683 0.07187307
v -0.02300000 0.02760650 0.07213570
v -0.02300000 0.02773587 0.07237774
v -0.02300000 0.02790998 0.07258989
v -0.02300000 0.02812213 0.07276400
v -0.02300000 0.02836417 0.07289337
v -0.02300000 0.03027303 0.07187307
v -0.02300000 0.03019336 0.07213570
v -0.02300000 0.02988988 0.07258989
v -0.02300000 0.03006399 0.07237774
v -0.02300000 0.02862680 0.07297304
v -0.02300000 0.02889993 0.07299994
v -0.02300000 0.02943568 0.07289337
v -0.02300000 0.02917305 0.07297304
v -0.02300000 0.02967773 0.07276400
v -0.02300000 0.02836417 0.09320664
v -0.02300000 0.02790998 0.09351012
v -0.02300000 0.02773587 0.09372228
v -0.02300000 0.02812213 0.09333602
v -0.02300000 0.02760650 0.09396432
v -0.02300000 0.02752683 0.09422695
v -0.02300000 0.02862680 0.09312697
v -0.02300000 0.02889993 0.09310007
v -0.02300000 0.02917305 0.09312697
v -0.02300000 0.02943568 0.09320664
v -0.02300000 0.02967773 0.09333602
v -0.02300000 0.02988988 0.09351012
v -0.02300000 0.03006399 0.09372228
v -0.02300000 0.03019336 0.09396432
v -0.02300000 0.03027303 0.09422695
v -0.02300000 0.02749993 0.09450007
v -0.02300000 0.02752683 0.09477320
v -0.02300000 0.02760650 0.09503583
v -0.02300000 0.02773587 0.09527787
v -0.02300000 0.02790998 0.09549002
v -0.02300000 0.02812213 0.09566413
v -0.02300000 0.02836417 0.09579351
v -0.02300000 0.03029993 0.09450007
v -0.02300000 0.03027303 0.09477320
v -0.02300000 0.03019336 0.09503583
v -0.02300000 0.02862680 0.09587317
v -0.02300000 0.02889993 0.09590007
v -0.02300000 0.02917305 0.09587317
v -0.02300000 0.02943568 0.09579351
v -0.02300000 0.02988988 0.09549002
v -0.02300000 0.03006399 0.09527787
v -0.02300000 0.02967773 0.09566413
v -0.02300000 0.03250000 0.09500000
v -0.02300000 0.03247433 0.09539158
v -0.02300000 0.03239778 0.09577646
v -0.02300000 0.02950000 0.09800000
v -0.02300000 0.02989158 0.09797433
v -0.02300000 0.03027646 0.09789778
v -0.02300000 0.03227164 0.09614805
v -0.02300000 0.03209808 0.09650000
v -0.02300000 0.03188006 0.09682628
v -0.02300000 0.03132628 0.09738006
v -0.02300000 0.03064805 0.09777164
v -0.02300000 0.03100000 0.09759808
v -0.02300000 0.03162132 0.09712132
f 11 12 21
f 7 11 17
f 11 15 14
f 11 20 16
f 11 16 15
f 11 21 20
f 12 13 22
f 12 22 21
f 13 23 22
f 7 17 18
f 7 18 19
f 11 14 17
f 13 61 23
f 23 54 31
f 31 53 32
f 32 51 33
f 33 52 34
f 34 46 35
f 35 48 36
f 36 47 37
f 37 47 38
f 38 50 39
f 39 55 44
f 44 56 45
f 1 106 4
f 1 5 107
f 5 6 118
f 8 102 9
f 3 103 8
f 9 101 10
f 2 104 3
f 2 4 105
f 6 7 93
f 7 19 94
f 24 94 19
f 94 24 25
f 94 25 26
f 94 26 27
f 94 27 28
f 29 95 28
f 30 96 29
f 40 97 30
f 41 136 40
f 45 137 42
f 42 137 43
f 139 41 43
f 1 4 181
f 3 8 183
f 2 3 182
f 2 184 4
f 5 186 6
f 1 185 5
f 6 187 7
f 8 9 188
f 9 10 189
f 7 191 11
f 11 192 12
f 12 193 13
f 10 98 190
f 33 51 52
f 31 54 53
f 23 64 54
f 32 53 51
f 34 52 46
f 35 46 48
f 36 48 47
f 49 38 47
f 38 49 50
f 39 50 55
f 44 55 56
f 45 56 57
f 45 57 58
f 61 64 23
f 45 58 59
f 45 59 60
f 61 62 66
f 61 65 64
f 61 66 65
f 62 63 67
f 62 67 66
f 63 68 67
f 63 69 68
f 63 74 71
f 63 70 69
f 63 71 70
f 74 72 71
f 81 82 83
f 45 60 141
f 84 141 60
f 85 151 84
f 86 152 85
f 88 153 86
f 175 87 90
f 175 90 73
f 74 75 180
f 75 76 177
f 76 77 179
f 77 78 178
f 78 79 173
f 79 80 172
f 80 81 171
f 74 176 72
f 176 73 72
f 81 83 171
f 174 88 89
f 174 89 87
f 13 241 61
f 61 242 62
f 62 243 63
f 63 254 74
f 74 255 75
f 75 256 76
f 76 257 77
f 77 258 78
f 78 259 79
f 79 260 80
f 80 261 81
f 81 262 82
f 82 263 83
f 7 92 93
f 7 94 92
f 10 100 98
f 10 101 100
f 9 102 101
f 8 103 102
f 3 104 103
f 2 105 104
f 4 106 105
f 1 107 106
f 5 118 107
f 6 93 91
f 6 91 108
f 6 108 109
f 6 109 118
f 94 28 95
f 29 96 95
f 30 97 96
f 40 121 97
f 136 121 40
f 98 100 99
f 118 109 110
f 118 110 111
f 118 111 112
f 118 112 113
f 119 113 114
f 118 113 119
f 119 114 115
f 120 115 116
f 120 116 117
f 119 115 120
f 136 122 121
f 136 123 122
f 150 117 127
f 120 117 168
f 136 124 123
f 136 125 124
f 125 136 126
f 126 142 131
f 131 143 132
f 132 144 134
f 134 145 133
f 133 146 135
f 135 147 129
f 150 127 128
f 129 148 130
f 130 149 128
f 98 99 278
f 99 100 279
f 100 101 280
f 101 102 281
f 102 103 282
f 103 104 283
f 104 105 284
f 105 106 285
f 106 107 286
f 107 118 287
f 118 119 298
f 119 120 299
f 120 168 300
f 41 139 136
f 43 137 139
f 45 138 137
f 45 140 138
f 45 141 140
f 141 84 151
f 85 152 151
f 86 153 152
f 88 154 153
f 88 155 154
f 88 156 155
f 88 157 156
f 88 161 157
f 88 162 161
f 174 162 88
f 174 87 175
f 76 179 177
f 77 178 179
f 80 171 172
f 78 173 178
f 79 172 173
f 74 180 176
f 75 177 180
f 175 73 176
f 126 136 142
f 131 142 143
f 132 143 144
f 134 144 145
f 133 145 146
f 135 146 147
f 129 147 148
f 130 148 149
f 150 128 149
f 168 117 150
f 174 163 162
f 174 164 163
f 168 150 158
f 168 158 159
f 169 159 160
f 168 159 169
f 170 160 166
f 170 165 167
f 170 166 165
f 170 167 164
f 170 164 174
f 169 160 170
f 83 351 171
f 168 169 348
f 169 170 349
f 170 174 350
f 171 352 172
f 172 353 173
f 174 175 354
f 176 180 356
f 175 176 355
f 177 179 357
f 178 359 179
f 173 358 178
f 177 360 180
f 3 183 182
f 2 182 184
f 4 184 181
f 1 181 185
f 5 185 186
f 6 186 187
f 8 188 183
f 9 189 188
f 10 190 189
f 7 187 191
f 11 191 192
f 12 192 193
f 13 193 241
f 191 201 192
f 187 194 191
f 191 194 195
f 191 196 200
f 191 195 196
f 191 200 201
f 192 203 193
f 192 201 202
f 192 202 203
f 193 203 211
f 187 198 197
f 187 199 198
f 187 197 194
f 193 211 241
f 212 234 211
f 213 233 212
f 214 231 213
f 215 232 214
f 216 226 215
f 217 228 216
f 218 227 217
f 219 229 218
f 224 230 219
f 225 235 224
f 222 236 225
f 181 184 286
f 181 287 185
f 185 298 186
f 188 189 282
f 183 188 283
f 189 190 281
f 182 183 284
f 182 285 184
f 186 272 187
f 187 275 199
f 199 275 204
f 275 205 204
f 275 206 205
f 275 207 206
f 275 208 207
f 208 276 209
f 209 277 210
f 210 301 220
f 220 317 221
f 318 223 221
f 318 222 223
f 61 241 242
f 62 242 243
f 63 243 254
f 74 254 255
f 75 255 256
f 76 256 257
f 77 257 258
f 78 258 259
f 79 259 260
f 80 260 261
f 81 261 262
f 82 262 263
f 83 263 351
f 212 233 234
f 214 232 231
f 213 231 233
f 215 226 232
f 216 228 226
f 217 227 228
f 227 218 229
f 229 219 230
f 230 224 235
f 235 225 236
f 222 237 236
f 222 238 237
f 222 239 238
f 241 211 244
f 211 234 244
f 222 240 239
f 241 244 245
f 241 245 246
f 241 246 247
f 241 247 242
f 242 248 243
f 242 247 248
f 243 248 249
f 243 252 254
f 243 249 250
f 243 250 251
f 243 251 252
f 261 263 262
f 222 321 240
f 240 331 264
f 264 332 265
f 265 333 266
f 355 270 267
f 254 360 255
f 255 357 256
f 256 359 257
f 257 358 258
f 258 353 259
f 259 352 260
f 260 351 261
f 254 252 356
f 356 252 253
f 356 253 270
f 261 351 263
f 354 268 266
f 354 269 268
f 355 267 269
f 190 98 278
f 99 279 278
f 100 280 279
f 101 281 280
f 102 282 281
f 103 283 282
f 104 284 283
f 105 285 284
f 106 286 285
f 107 287 286
f 118 298 287
f 119 299 298
f 120 300 299
f 186 273 272
f 187 272 274
f 187 274 275
f 190 278 280
f 190 280 281
f 189 281 282
f 188 282 283
f 183 283 284
f 182 284 285
f 184 285 286
f 181 286 287
f 185 287 298
f 186 271 273
f 186 288 271
f 186 289 288
f 186 298 289
f 208 275 276
f 209 276 277
f 210 277 301
f 319 220 301
f 278 279 280
f 298 290 289
f 298 291 290
f 298 292 291
f 299 293 292
f 299 294 293
f 298 299 292
f 299 300 294
f 300 295 294
f 300 296 295
f 300 297 296
f 319 301 302
f 329 307 297
f 300 348 297
f 319 302 303
f 319 303 304
f 319 304 305
f 319 305 306
f 311 316 306
f 312 322 311
f 314 323 312
f 313 324 314
f 315 325 313
f 309 326 315
f 310 327 309
f 308 328 310
f 307 329 308
f 300 168 348
f 169 349 348
f 170 350 349
f 174 354 350
f 171 351 352
f 172 352 353
f 173 353 358
f 175 355 354
f 176 356 355
f 180 360 356
f 177 357 360
f 179 359 357
f 178 358 359
f 220 319 317
f 318 221 317
f 222 318 320
f 222 320 321
f 240 321 331
f 264 331 332
f 265 332 333
f 266 333 334
f 266 334 335
f 266 335 336
f 266 336 337
f 266 337 341
f 266 341 342
f 354 266 342
f 354 355 269
f 256 357 359
f 257 359 358
f 260 352 351
f 258 358 353
f 259 353 352
f 254 356 360
f 255 360 357
f 355 356 270
f 306 316 319
f 311 322 316
f 312 323 322
f 314 324 323
f 313 325 324
f 315 326 325
f 309 327 326
f 310 328 327
f 308 329 328
f 348 329 297
f 354 344 347
f 354 342 343
f 354 343 344
f 348 330 329
f 348 338 330
f 349 339 338
f 348 349 338
f 350 340 339
f 350 346 340
f 350 347 345
f 350 345 346
f 350 354 347
f 349 350 339
f 16 20 200
f 15 16 196
f 14 15 195
f 17 14 194
f 18 17 197
f 19 18 198
f 24 19 199
f 20 21 201
f 21 22 202
f 22 23 203
f 25 24 204
f 26 25 205
f 27 26 206
f 28 27 207
f 29 28 208
f 30 29 209
f 40 30 210
f 23 31 211
f 31 32 212
f 32 33 213
f 33 34 214
f 34 35 215
f 35 36 216
f 36 37 217
f 37 38 218
f 39 44 224
f 38 39 219
f 41 40 220
f 43 41 221
f 45 42 222
f 42 43 223
f 44 45 225
f 16 200 196
f 15 196 195
f 14 195 194
f 194 197 17
f 18 197 198
f 19 198 199
f 199 204 24
f 20 201 200
f 21 202 201
f 203 202 22
f 23 211 203
f 25 204 205
f 26 205 206
f 27 206 207
f 28 207 208
f 29 208 209
f 30 209 210
f 31 212 211
f 32 213 212
f 33 214 213
f 34 215 214
f 35 216 215
f 36 217 216
f 37 218 217
f 38 219 218
f 39 224 219
f 40 210 220
f 220 221 41
f 221 223 43
f 42 223 222
f 44 225 224
f 222 225 45
f 48 46 226
f 49 47 227
f 47 48 228
f 50 49 229
f 55 50 230
f 52 51 231
f 46 52 232
f 51 53 233
f 53 54 234
f 56 55 235
f 57 56 236
f 58 57 237
f 59 58 238
f 60 59 239
f 54 64 244
f 64 65 245
f 65 66 246
f 66 67 247
f 67 68 248
f 68 69 249
f 69 70 250
f 70 71 251
f 71 72 252
f 72 73 253
f 73 90 270
f 84 60 240
f 85 84 264
f 86 85 265
f 88 86 266
f 87 89 269
f 89 88 268
f 90 87 267
f 48 226 228
f 49 227 229
f 47 228 227
f 50 229 230
f 55 230 235
f 51 233 231
f 46 232 226
f 52 231 232
f 53 234 233
f 56 235 236
f 57 236 237
f 58 237 238
f 59 238 239
f 60 239 240
f 54 244 234
f 64 245 244
f 65 246 245
f 247 246 66
f 67 248 247
f 68 249 248
f 69 250 249
f 70 251 250
f 252 251 71
f 253 252 72
f 270 253 73
f 84 240 264
f 85 264 265
f 86 265 266
f 266 268 88
f 87 269 267
f 89 268 269
f 90 267 270
f 136 139 319
f 137 138 318
f 139 137 317
f 138 140 320
f 140 141 321
f 142 136 316
f 143 142 322
f 144 143 323
f 145 144 324
f 146 145 325
f 147 146 326
f 148 147 327
f 149 148 328
f 150 149 329
f 141 151 331
f 151 152 332
f 152 153 333
f 153 154 334
f 154 155 335
f 155 156 336
f 156 157 337
f 158 150 330
f 159 158 338
f 160 159 339
f 166 160 340
f 157 161 341
f 161 162 342
f 162 163 343
f 163 164 344
f 167 165 345
f 165 166 346
f 164 167 347
f 136 319 316
f 318 317 137
f 139 317 319
f 138 320 318
f 140 321 320
f 142 316 322
f 143 322 323
f 144 323 324
f 145 324 325
f 146 325 326
f 147 326 327
f 148 327 328
f 149 328 329
f 329 330 150
f 141 331 321
f 151 332 331
f 152 333 332
f 153 334 333
f 154 335 334
f 155 336 335
f 337 336 156
f 158 330 338
f 159 338 339
f 339 340 160
f 157 341 337
f 161 342 341
f 163 344 343
f 162 343 342
f 165 346 345
f 167 345 347
f 166 340 346
f 347 344 164
f 92 94 274
f 93 92 272
f 91 93 273
f 94 95 275
f 95 96 276
f 96 97 277
f 108 91 271
f 109 108 288
f 110 109 289
f 111 110 290
f 112 111 291
f 113 112 292
f 114 113 293
f 115 114 294
f 116 115 295
f 117 116 296
f 127 117 297
f 97 121 301
f 121 122 302
f 122 123 303
f 123 124 304
f 124 125 305
f 125 126 306
f 128 127 307
f 130 128 308
f 135 129 309
f 129 130 310
f 126 131 311
f 131 132 312
f 134 133 313
f 132 134 314
f 133 135 315
f 92 274 272
f 272 273 93
f 91 273 271
f 275 274 94
f 95 276 275
f 96 277 276
f 97 301 277
f 108 271 288
f 109 288 289
f 110 289 290
f 111 290 291
f 112 291 292
f 292 293 113
f 114 293 294
f 294 295 115
f 116 295 296
f 117 296 297
f 121 302 301
f 122 303 302
f 123 304 303
f 124 305 304
f 125 306 305
f 127 297 307
f 128 307 308
f 129 310 309
f 130 308 310
f 126 311 306
f 131 312 311
f 132 314 312
f 134 313 314
f 133 315 313
f 135 309 315

