# https://github.com/mikedh/trimesh
v -0.03870000 -0.02762137 0.05891664
v -0.03870000 -0.02737886 0.05862114
v -0.03870000 -0.02708336 0.05837863
v -0.03870000 -0.02674623 0.05819843
v -0.03870000 -0.02638043 0.05808747
v -0.03800000 -0.02762137 0.05891664
v -0.03800000 -0.02737886 0.05862114
v -0.03800000 -0.02708336 0.05837863
v -0.03800000 -0.02674623 0.05819843
v -0.03800000 -0.02638043 0.05808747
v -0.03870000 -0.02780157 0.05925377
v -0.03870000 -0.02791253 0.05961957
v -0.03870000 -0.02795000 0.06000000
v -0.03870000 -0.02791253 0.06038043
v -0.03870000 -0.02780157 0.06074623
v -0.03870000 -0.02762137 0.06108336
v -0.03870000 -0.02737886 0.06137886
v -0.03870000 -0.02708336 0.06162137
v -0.03870000 -0.02674623 0.06180157
v -0.03870000 -0.02638043 0.06191253
v -0.03800000 -0.02780157 0.05925377
v -0.03800000 -0.02791253 0.05961957
v -0.03800000 -0.02795000 0.06000000
v -0.03800000 -0.02791253 0.06038043
v -0.03800000 -0.02780157 0.06074623
v -0.03800000 -0.02762137 0.06108336
v -0.03800000 -0.02737886 0.06137886
v -0.03800000 -0.02696117 0.05980881
v -0.03800000 -0.02669296 0.05930704
v -0.03800000 -0.02690540 0.05962497
v -0.03800000 -0.02681484 0.05945554
v -0.03800000 -0.02698000 0.06000000
v -0.03800000 -0.02696117 0.06019119
v -0.03800000 -0.02690540 0.06037503
v -0.03800000 -0.02681484 0.06054446
v -0.03800000 -0.02669296 0.06069296
v -0.03800000 -0.02654446 0.05918516
v -0.03800000 -0.02637503 0.05909460
v -0.03800000 -0.02708336 0.06162137
v -0.03800000 -0.02674623 0.06180157
v -0.03800000 -0.02654446 0.06081484
v -0.03800000 -0.02637503 0.06090540
v -0.03800000 -0.02638043 0.06191253
v -0.03870000 -0.02600000 0.05805000
v -0.03870000 -0.02561957 0.05808747
v -0.03870000 -0.02525377 0.05819843
v -0.03870000 -0.02491664 0.05837863
v -0.03870000 -0.02462114 0.05862114
v -0.03800000 -0.02600000 0.05805000
v -0.03800000 -0.02561957 0.05808747
v -0.03800000 -0.02525377 0.05819843
v -0.03800000 -0.02491664 0.05837863
v -0.03800000 -0.02462114 0.05862114
v -0.03870000 -0.02600000 0.06195000
v -0.03870000 -0.02561957 0.06191253
v -0.03870000 -0.02525377 0.06180157
v -0.03870000 -0.02491664 0.06162137
v -0.03870000 -0.02462114 0.06137886
v -0.03800000 -0.02619119 0.05903883
v -0.03800000 -0.02600000 0.05902000
v -0.03800000 -0.02580881 0.05903883
v -0.03800000 -0.02562497 0.05909460
v -0.03800000 -0.02545554 0.05918516
v -0.03800000 -0.02619119 0.06096117
v -0.03800000 -0.02600000 0.06098000
v -0.03800000 -0.02600000 0.06195000
v -0.03800000 -0.02580881 0.06096117
v -0.03800000 -0.02562497 0.06090540
v -0.03800000 -0.02545554 0.06081484
v -0.03800000 -0.02561957 0.06191253
v -0.03800000 -0.02530704 0.05930704
v -0.03800000 -0.02518516 0.05945554
v -0.03800000 -0.02509460 0.05962497
v -0.03800000 -0.02503883 0.05980881
v -0.03800000 -0.02530704 0.06069296
v -0.03800000 -0.02518516 0.06054446
v -0.03800000 -0.02502000 0.06000000
v -0.03800000 -0.02503883 0.06019119
v -0.03800000 -0.02509460 0.06037503
v -0.03800000 -0.02525377 0.06180157
v -0.03800000 -0.02491664 0.06162137
v -0.03800000 -0.02462114 0.06137886
v -0.03870000 -0.02437863 0.05891664
v -0.03800000 -0.02437863 0.05891664
v -0.03870000 -0.02419843 0.05925377
v -0.03870000 -0.02408747 0.05961957
v -0.03870000 -0.02419843 0.06074623
v -0.03870000 -0.02408747 0.06038043
v -0.03870000 -0.02405000 0.06000000
v -0.03870000 -0.02437863 0.06108336
v -0.03800000 -0.02419843 0.05925377
v -0.03800000 -0.02408747 0.05961957
v -0.03800000 -0.02419843 0.06074623
v -0.03800000 -0.02408747 0.06038043
v -0.03800000 -0.02405000 0.06000000
v -0.03800000 -0.02437863 0.06108336
v -0.03290000 -0.02800000 0.05884530
v -0.03290000 -0.02800000 0.06115470
v -0.03290000 -0.02702982 0.05979516
v -0.03290000 -0.02697007 0.05959818
v -0.03290000 -0.02674246 0.05925754
v -0.03290000 -0.02687304 0.05941665
v -0.03290000 -0.02705000 0.06000000
v -0.03290000 -0.02702982 0.06020484
v -0.03290000 -0.02697007 0.06040182
v -0.03290000 -0.02687304 0.06058335
v -0.03290000 -0.02674246 0.06074246
v -0.03290000 -0.02658335 0.05912696
v -0.03290000 -0.02640182 0.05902993
v -0.03290000 -0.02658335 0.06087304
v -0.03290000 -0.02640182 0.06097007
v -0.03290000 -0.02600000 0.05769060
v -0.03290000 -0.02620484 0.05897018
v -0.03290000 -0.02600000 0.05895000
v -0.03290000 -0.02579516 0.05897018
v -0.03290000 -0.02559818 0.05902993
v -0.03290000 -0.02541665 0.05912696
v -0.03290000 -0.02620484 0.06102982
v -0.03290000 -0.02600000 0.06105000
v -0.03290000 -0.02600000 0.06230940
v -0.03290000 -0.02579516 0.06102982
v -0.03290000 -0.02559818 0.06097007
v -0.03290000 -0.02541665 0.06087304
v -0.03290000 -0.02525754 0.05925754
v -0.03290000 -0.02512696 0.05941665
v -0.03290000 -0.02502993 0.05959818
v -0.03290000 -0.02497018 0.05979516
v -0.03290000 -0.02525754 0.06074246
v -0.03290000 -0.02495000 0.06000000
v -0.03290000 -0.02497018 0.06020484
v -0.03290000 -0.02512696 0.06058335
v -0.03290000 -0.02502993 0.06040182
v -0.03130000 -0.02800000 0.05884530
v -0.03130000 -0.02800000 0.06115470
v -0.03130000 -0.02702982 0.05979516
v -0.03130000 -0.02697007 0.05959818
v -0.03130000 -0.02674246 0.05925754
v -0.03130000 -0.02687304 0.05941665
v -0.03130000 -0.02705000 0.06000000
v -0.03130000 -0.02702982 0.06020484
v -0.03130000 -0.02697007 0.06040182
v -0.03130000 -0.02687304 0.06058335
v -0.03130000 -0.02674246 0.06074246
v -0.03130000 -0.02658335 0.05912696
v -0.03130000 -0.02640182 0.05902993
v -0.03130000 -0.02658335 0.06087304
v -0.03130000 -0.02640182 0.06097007
v -0.03130000 -0.02600000 0.05769060
v -0.03130000 -0.02620484 0.05897018
v -0.03130000 -0.02600000 0.05895000
v -0.03130000 -0.02579516 0.05897018
v -0.03130000 -0.02559818 0.05902993
v -0.03130000 -0.02541665 0.05912696
v -0.03130000 -0.02620484 0.06102982
v -0.03130000 -0.02600000 0.06105000
v -0.03130000 -0.02600000 0.06230940
v -0.03130000 -0.02579516 0.06102982
v -0.03130000 -0.02559818 0.06097007
v -0.03130000 -0.02541665 0.06087304
v -0.03130000 -0.02525754 0.05925754
v -0.03130000 -0.02512696 0.05941665
v -0.03130000 -0.02502993 0.05959818
v -0.03130000 -0.02497018 0.05979516
v -0.03130000 -0.02525754 0.06074246
v -0.03130000 -0.02495000 0.06000000
v -0.03130000 -0.02497018 0.06020484
v -0.03130000 -0.02512696 0.06058335
v -0.03130000 -0.02502993 0.06040182
v -0.03290000 -0.02400000 0.05884530
v -0.03290000 -0.02400000 0.06115470
v -0.03130000 -0.02400000 0.05884530
v -0.03130000 -0.02400000 0.06115470
v -0.03000000 -0.02696117 0.05980881
v -0.03000000 -0.02669296 0.05930704
v -0.03000000 -0.02690540 0.05962497
v -0.03000000 -0.02681484 0.05945554
v -0.03000000 -0.02698000 0.06000000
v -0.03000000 -0.02696117 0.06019119
v -0.03000000 -0.02690540 0.06037503
v -0.03000000 -0.02681484 0.06054446
v -0.03000000 -0.02669296 0.06069296
v -0.03000000 -0.02654446 0.05918516
v -0.03000000 -0.02637503 0.05909460
v -0.03000000 -0.02654446 0.06081484
v -0.03000000 -0.02637503 0.06090540
v -0.03000000 -0.02619119 0.05903883
v -0.03000000 -0.02600000 0.05902000
v -0.03000000 -0.02580881 0.05903883
v -0.03000000 -0.02562497 0.05909460
v -0.03000000 -0.02545554 0.05918516
v -0.03000000 -0.02619119 0.06096117
v -0.03000000 -0.02600000 0.06098000
v -0.03000000 -0.02580881 0.06096117
v -0.03000000 -0.02562497 0.06090540
v -0.03000000 -0.02545554 0.06081484
v -0.03000000 -0.02530704 0.05930704
v -0.03000000 -0.02518516 0.05945554
v -0.03000000 -0.02509460 0.05962497
v -0.03000000 -0.02503883 0.05980881
v -0.03000000 -0.02530704 0.06069296
v -0.03000000 -0.02518516 0.06054446
v -0.03000000 -0.02502000 0.06000000
v -0.03000000 -0.02503883 0.06019119
v -0.03000000 -0.02509460 0.06037503
v -0.03870000 -0.02708336 0.11037863
v -0.03870000 -0.02674623 0.11019843
v -0.03870000 -0.02638043 0.11008747
v -0.03800000 -0.02708336 0.11037863
v -0.03800000 -0.02674623 0.11019843
v -0.03800000 -0.02638043 0.11008747
v -0.03870000 -0.02780157 0.11125377
v -0.03870000 -0.02762137 0.11091664
v -0.03870000 -0.02791253 0.11161957
v -0.03870000 -0.02795000 0.11200000
v -0.03870000 -0.02791253 0.11238043
v -0.03870000 -0.02737886 0.11062114
v -0.03870000 -0.02780157 0.11274623
v -0.03870000 -0.02762137 0.11308336
v -0.03870000 -0.02737886 0.11337886
v -0.03870000 -0.02708336 0.11362137
v -0.03870000 -0.02674623 0.11380157
v -0.03870000 -0.02638043 0.11391253
v -0.03800000 -0.02780157 0.11125377
v -0.03800000 -0.02762137 0.11091664
v -0.03800000 -0.02791253 0.11161957
v -0.03800000 -0.02795000 0.11200000
v -0.03800000 -0.02791253 0.11238043
v -0.03800000 -0.02737886 0.11062114
v -0.03800000 -0.02780157 0.11274623
v -0.03800000 -0.02762137 0.11308336
v -0.03800000 -0.02737886 0.11337886
v -0.03800000 -0.02681484 0.11145554
v -0.03800000 -0.02669296 0.11130704
v -0.03800000 -0.02696117 0.11180881
v -0.03800000 -0.02698000 0.11200000
v -0.03800000 -0.02696117 0.11219119
v -0.03800000 -0.02690540 0.11162497
v -0.03800000 -0.02690540 0.11237503
v -0.03800000 -0.02654446 0.11118516
v -0.03800000 -0.02637503 0.11109460
v -0.03800000 -0.02681484 0.11254446
v -0.03800000 -0.02669296 0.11269296
v -0.03800000 -0.02708336 0.11362137
v -0.03800000 -0.02674623 0.11380157
v -0.03800000 -0.02654446 0.11281484
v -0.03800000 -0.02637503 0.11290540
v -0.03800000 -0.02638043 0.11391253
v -0.03870000 -0.02600000 0.11005000
v -0.03870000 -0.02561957 0.11008747
v -0.03870000 -0.02525377 0.11019843
v -0.03870000 -0.02491664 0.11037863
v -0.03800000 -0.02600000 0.11005000
v -0.03800000 -0.02561957 0.11008747
v -0.03800000 -0.02525377 0.11019843
v -0.03800000 -0.02491664 0.11037863
v -0.03870000 -0.02600000 0.11395000
v -0.03870000 -0.02561957 0.11391253
v -0.03870000 -0.02462114 0.11062114
v -0.03870000 -0.02525377 0.11380157
v -0.03870000 -0.02462114 0.11337886
v -0.03870000 -0.02491664 0.11362137
v -0.03800000 -0.02619119 0.11103883
v -0.03800000 -0.02600000 0.11102000
v -0.03800000 -0.02580881 0.11103883
v -0.03800000 -0.02562497 0.11109460
v -0.03800000 -0.02545554 0.11118516
v -0.03800000 -0.02619119 0.11296117
v -0.03800000 -0.02600000 0.11298000
v -0.03800000 -0.02600000 0.11395000
v -0.03800000 -0.02562497 0.11290540
v -0.03800000 -0.02580881 0.11296117
v -0.03800000 -0.02545554 0.11281484
v -0.03800000 -0.02561957 0.11391253
v -0.03800000 -0.02530704 0.11130704
v -0.03800000 -0.02518516 0.11145554
v -0.03800000 -0.02509460 0.11162497
v -0.03800000 -0.02503883 0.11180881
v -0.03800000 -0.02502000 0.11200000
v -0.03800000 -0.02509460 0.11237503
v -0.03800000 -0.02503883 0.11219119
v -0.03800000 -0.02462114 0.11062114
v -0.03800000 -0.02530704 0.11269296
v -0.03800000 -0.02518516 0.11254446
v -0.03800000 -0.02525377 0.11380157
v -0.03800000 -0.02462114 0.11337886
v -0.03800000 -0.02491664 0.11362137
v -0.03870000 -0.02437863 0.11091664
v -0.03870000 -0.02419843 0.11125377
v -0.03870000 -0.02408747 0.11161957
v -0.03870000 -0.02408747 0.11238043
v -0.03870000 -0.02405000 0.11200000
v -0.03870000 -0.02437863 0.11308336
v -0.03870000 -0.02419843 0.11274623
v -0.03800000 -0.02437863 0.11091664
v -0.03800000 -0.02419843 0.11125377
v -0.03800000 -0.02408747 0.11161957
v -0.03800000 -0.02408747 0.11238043
v -0.03800000 -0.02405000 0.11200000
v -0.03800000 -0.02437863 0.11308336
v -0.03800000 -0.02419843 0.11274623
v -0.03290000 -0.02800000 0.11084530
v -0.03290000 -0.02800000 0.11315470
v -0.03290000 -0.02687304 0.11141665
v -0.03290000 -0.02674246 0.11125754
v -0.03290000 -0.02702982 0.11179516
v -0.03290000 -0.02705000 0.11200000
v -0.03290000 -0.02697007 0.11159818
v -0.03290000 -0.02702982 0.11220484
v -0.03290000 -0.02697007 0.11240182
v -0.03290000 -0.02658335 0.11112696
v -0.03290000 -0.02640182 0.11102993
v -0.03290000 -0.02687304 0.11258335
v -0.03290000 -0.02674246 0.11274246
v -0.03290000 -0.02658335 0.11287304
v -0.03290000 -0.02640182 0.11297007
v -0.03290000 -0.02600000 0.10969060
v -0.03290000 -0.02620484 0.11097018
v -0.03290000 -0.02600000 0.11095000
v -0.03290000 -0.02579516 0.11097018
v -0.03290000 -0.02559818 0.11102993
v -0.03290000 -0.02541665 0.11112696
v -0.03290000 -0.02620484 0.11302982
v -0.03290000 -0.02600000 0.11305000
v -0.03290000 -0.02600000 0.11430940
v -0.03290000 -0.02579516 0.11302982
v -0.03290000 -0.02559818 0.11297007
v -0.03290000 -0.02541665 0.11287304
v -0.03290000 -0.02525754 0.11125754
v -0.03290000 -0.02512696 0.11141665
v -0.03290000 -0.02502993 0.11159818
v -0.03290000 -0.02497018 0.11179516
v -0.03290000 -0.02495000 0.11200000
v -0.03290000 -0.02497018 0.11220484
v -0.03290000 -0.02502993 0.11240182
v -0.03290000 -0.02525754 0.11274246
v -0.03290000 -0.02512696 0.11258335
v -0.03130000 -0.02800000 0.11084530
v -0.03130000 -0.02800000 0.11315470
v -0.03130000 -0.02687304 0.11141665
v -0.03130000 -0.02674246 0.11125754
v -0.03130000 -0.02702982 0.11179516
v -0.03130000 -0.02705000 0.11200000
v -0.03130000 -0.02697007 0.11159818
v -0.03130000 -0.02702982 0.11220484
v -0.03130000 -0.02697007 0.11240182
v -0.03130000 -0.02658335 0.11112696
v -0.03130000 -0.02640182 0.11102993
v -0.03130000 -0.02687304 0.11258335
v -0.03130000 -0.02674246 0.11274246
v -0.03130000 -0.02658335 0.11287304
v -0.03130000 -0.02640182 0.11297007
v -0.03130000 -0.02600000 0.10969060
v -0.03130000 -0.02620484 0.11097018
v -0.03130000 -0.02600000 0.11095000
v -0.03130000 -0.02579516 0.11097018
v -0.03130000 -0.02559818 0.11102993
v -0.03130000 -0.02541665 0.11112696
v -0.03130000 -0.02620484 0.11302982
v -0.03130000 -0.02600000 0.11305000
v -0.03130000 -0.02600000 0.11430940
v -0.03130000 -0.02579516 0.11302982
v -0.03130000 -0.02559818 0.11297007
v -0.03130000 -0.02541665 0.11287304
v -0.03130000 -0.02525754 0.11125754
v -0.03130000 -0.02512696 0.11141665
v -0.03130000 -0.02502993 0.11159818
v -0.03130000 -0.02497018 0.11179516
v -0.03130000 -0.02495000 0.11200000
v -0.03130000 -0.02497018 0.11220484
v -0.03130000 -0.02502993 0.11240182
v -0.03130000 -0.02525754 0.11274246
v -0.03130000 -0.02512696 0.11258335
v -0.03290000 -0.02400000 0.11084530
v -0.03290000 -0.02400000 0.11315470
v -0.03130000 -0.02400000 0.11084530
v -0.03130000 -0.02400000 0.11315470
v -0.03000000 -0.02681484 0.11145554
v -0.03000000 -0.02669296 0.11130704
v -0.03000000 -0.02696117 0.11180881
v -0.03000000 -0.02698000 0.11200000
v -0.03000000 -0.02696117 0.11219119
v -0.03000000 -0.02690540 0.11162497
v -0.03000000 -0.02690540 0.11237503
v -0.03000000 -0.02654446 0.11118516
v -0.03000000 -0.02637503 0.11109460
v -0.03000000 -0.02681484 0.11254446
v -0.03000000 -0.02669296 0.11269296
v -0.03000000 -0.02654446 0.11281484
v -0.03000000 -0.02637503 0.11290540
v -0.03000000 -0.02619119 0.11103883
v -0.03000000 -0.02600000 0.11102000
v -0.03000000 -0.02580881 0.11103883
v -0.03000000 -0.02562497 0.11109460
v -0.03000000 -0.02545554 0.11118516
v -0.03000000 -0.02619119 0.11296117
v -0.03000000 -0.02600000 0.11298000
v -0.03000000 -0.02562497 0.11290540
v -0.03000000 -0.02580881 0.11296117
v -0.03000000 -0.02545554 0.11281484
v -0.03000000 -0.02530704 0.11130704
v -0.03000000 -0.02518516 0.11145554
v -0.03000000 -0.02509460 0.11162497
v -0.03000000 -0.02503883 0.11180881
v -0.03000000 -0.02502000 0.11200000
v -0.03000000 -0.02509460 0.11237503
v -0.03000000 -0.02503883 0.11219119
v -0.03000000 -0.02530704 0.11269296
v -0.03000000 -0.02518516 0.11254446
v -0.03870000 0.02437863 0.05891664
v -0.03800000 0.02437863 0.05891664
v -0.03870000 0.02405000 0.06000000
v -0.03870000 0.02419843 0.05925377
v -0.03870000 0.02408747 0.05961957
v -0.03870000 0.02408747 0.06038043
v -0.03870000 0.02419843 0.06074623
v -0.03870000 0.02437863 0.06108336
v -0.03800000 0.02405000 0.06000000
v -0.03800000 0.02419843 0.05925377
v -0.03800000 0.02408747 0.05961957
v -0.03800000 0.02408747 0.06038043
v -0.03800000 0.02419843 0.06074623
v -0.03800000 0.02437863 0.06108336
v -0.03870000 0.02462114 0.05862114
v -0.03870000 0.02491664 0.05837863
v -0.03870000 0.02525377 0.05819843
v -0.03870000 0.02561957 0.05808747
v -0.03870000 0.02600000 0.05805000
v -0.03800000 0.02462114 0.05862114
v -0.03800000 0.02491664 0.05837863
v -0.03800000 0.02525377 0.05819843
v -0.03800000 0.02561957 0.05808747
v -0.03800000 0.02600000 0.05805000
v -0.03870000 0.02462114 0.06137886
v -0.03870000 0.02491664 0.06162137
v -0.03870000 0.02525377 0.06180157
v -0.03870000 0.02561957 0.06191253
v -0.03870000 0.02600000 0.06195000
v -0.03800000 0.02503883 0.05980881
v -0.03800000 0.02509460 0.05962497
v -0.03800000 0.02530704 0.05930704
v -0.03800000 0.02518516 0.05945554
v -0.03800000 0.02502000 0.06000000
v -0.03800000 0.02503883 0.06019119
v -0.03800000 0.02509460 0.06037503
v -0.03800000 0.02518516 0.06054446
v -0.03800000 0.02530704 0.06069296
v -0.03800000 0.02462114 0.06137886
v -0.03800000 0.02491664 0.06162137
v -0.03800000 0.02525377 0.06180157
v -0.03800000 0.02545554 0.05918516
v -0.03800000 0.02562497 0.05909460
v -0.03800000 0.02580881 0.05903883
v -0.03800000 0.02600000 0.05902000
v -0.03800000 0.02619119 0.05903883
v -0.03800000 0.02545554 0.06081484
v -0.03800000 0.02562497 0.06090540
v -0.03800000 0.02580881 0.06096117
v -0.03800000 0.02561957 0.06191253
v -0.03800000 0.02600000 0.06098000
v -0.03800000 0.02619119 0.06096117
v -0.03800000 0.02600000 0.06195000
v -0.03870000 0.02638043 0.05808747
v -0.03870000 0.02674623 0.05819843
v -0.03870000 0.02708336 0.05837863
v -0.03870000 0.02737886 0.05862114
v -0.03870000 0.02762137 0.05891664
v -0.03800000 0.02638043 0.05808747
v -0.03800000 0.02674623 0.05819843
v -0.03800000 0.02708336 0.05837863
v -0.03800000 0.02737886 0.05862114
v -0.03800000 0.02762137 0.05891664
v -0.03870000 0.02638043 0.06191253
v -0.03870000 0.02708336 0.06162137
v -0.03870000 0.02674623 0.06180157
v -0.03870000 0.02780157 0.05925377
v -0.03870000 0.02791253 0.05961957
v -0.03870000 0.02795000 0.06000000
v -0.03870000 0.02780157 0.06074623
v -0.03870000 0.02791253 0.06038043
v -0.03870000 0.02737886 0.06137886
v -0.03870000 0.02762137 0.06108336
v -0.03800000 0.02637503 0.05909460
v -0.03800000 0.02654446 0.05918516
v -0.03800000 0.02669296 0.05930704
v -0.03800000 0.02681484 0.05945554
v -0.03800000 0.02690540 0.05962497
v -0.03800000 0.02696117 0.05980881
v -0.03800000 0.02669296 0.06069296
v -0.03800000 0.02681484 0.06054446
v -0.03800000 0.02690540 0.06037503
v -0.03800000 0.02698000 0.06000000
v -0.03800000 0.02696117 0.06019119
v -0.03800000 0.02637503 0.06090540
v -0.03800000 0.02654446 0.06081484
v -0.03800000 0.02638043 0.06191253
v -0.03800000 0.02708336 0.06162137
v -0.03800000 0.02674623 0.06180157
v -0.03800000 0.02780157 0.05925377
v -0.03800000 0.02791253 0.05961957
v -0.03800000 0.02795000 0.06000000
v -0.03800000 0.02780157 0.06074623
v -0.03800000 0.02791253 0.06038043
v -0.03800000 0.02737886 0.06137886
v -0.03800000 0.02762137 0.06108336
v -0.03290000 0.02400000 0.05884530
v -0.03290000 0.02400000 0.06115470
v -0.03130000 0.02400000 0.05884530
v -0.03130000 0.02400000 0.06115470
v -0.03290000 0.02600000 0.05769060
v -0.03290000 0.02502993 0.05959818
v -0.03290000 0.02497018 0.05979516
v -0.03290000 0.02512696 0.05941665
v -0.03290000 0.02525754 0.05925754
v -0.03290000 0.02495000 0.06000000
v -0.03290000 0.02497018 0.06020484
v -0.03290000 0.02502993 0.06040182
v -0.03290000 0.02512696 0.06058335
v -0.03290000 0.02525754 0.06074246
v -0.03290000 0.02541665 0.05912696
v -0.03290000 0.02559818 0.05902993
v -0.03290000 0.02579516 0.05897018
v -0.03290000 0.02600000 0.05895000
v -0.03290000 0.02620484 0.05897018
v -0.03290000 0.02541665 0.06087304
v -0.03290000 0.02559818 0.06097007
v -0.03290000 0.02579516 0.06102982
v -0.03290000 0.02600000 0.06105000
v -0.03290000 0.02620484 0.06102982
v -0.03290000 0.02600000 0.06230940
v -0.03290000 0.02800000 0.05884530
v -0.03290000 0.02640182 0.05902993
v -0.03290000 0.02658335 0.05912696
v -0.03290000 0.02674246 0.05925754
v -0.03290000 0.02687304 0.05941665
v -0.03290000 0.02697007 0.05959818
v -0.03290000 0.02702982 0.05979516
v -0.03290000 0.02674246 0.06074246
v -0.03290000 0.02687304 0.06058335
v -0.03290000 0.02705000 0.06000000
v -0.03290000 0.02702982 0.06020484
v -0.03290000 0.02697007 0.06040182
v -0.03290000 0.02640182 0.06097007
v -0.03290000 0.02658335 0.06087304
v -0.03290000 0.02800000 0.06115470
v -0.03130000 0.02600000 0.05769060
v -0.03130000 0.02502993 0.05959818
v -0.03130000 0.02497018 0.05979516
v -0.03130000 0.02512696 0.05941665
v -0.03130000 0.02525754 0.05925754
v -0.03130000 0.02495000 0.06000000
v -0.03130000 0.02497018 0.06020484
v -0.03130000 0.02502993 0.06040182
v -0.03130000 0.02512696 0.06058335
v -0.03130000 0.02525754 0.06074246
v -0.03130000 0.02541665 0.05912696
v -0.03130000 0.02559818 0.05902993
v -0.03130000 0.02579516 0.05897018
v -0.03130000 0.02600000 0.05895000
v -0.03130000 0.02620484 0.05897018
v -0.03130000 0.02541665 0.06087304
v -0.03130000 0.02559818 0.06097007
v -0.03130000 0.02579516 0.06102982
v -0.03130000 0.02600000 0.06105000
v -0.03130000 0.02620484 0.06102982
v -0.03130000 0.02600000 0.06230940
v -0.03130000 0.02800000 0.05884530
v -0.03130000 0.02640182 0.05902993
v -0.03130000 0.02658335 0.05912696
v -0.03130000 0.02674246 0.05925754
v -0.03130000 0.02687304 0.05941665
v -0.03130000 0.02697007 0.05959818
v -0.03130000 0.02702982 0.05979516
v -0.03130000 0.02674246 0.06074246
v -0.03130000 0.02687304 0.06058335
v -0.03130000 0.02705000 0.06000000
v -0.03130000 0.02702982 0.06020484
v -0.03130000 0.02697007 0.06040182
v -0.03130000 0.02640182 0.06097007
v -0.03130000 0.02658335 0.06087304
v -0.03130000 0.02800000 0.06115470
v -0.03000000 0.02503883 0.05980881
v -0.03000000 0.02509460 0.05962497
v -0.03000000 0.02530704 0.05930704
v -0.03000000 0.02518516 0.05945554
v -0.03000000 0.02502000 0.06000000
v -0.03000000 0.02503883 0.06019119
v -0.03000000 0.02509460 0.06037503
v -0.03000000 0.02518516 0.06054446
v -0.03000000 0.02530704 0.06069296
v -0.03000000 0.02545554 0.05918516
v -0.03000000 0.02562497 0.05909460
v -0.03000000 0.02580881 0.05903883
v -0.03000000 0.02600000 0.05902000
v -0.03000000 0.02619119 0.05903883
v -0.03000000 0.02545554 0.06081484
v -0.03000000 0.02562497 0.06090540
v -0.03000000 0.02580881 0.06096117
v -0.03000000 0.02600000 0.06098000
v -0.03000000 0.02619119 0.06096117
v -0.03000000 0.02637503 0.05909460
v -0.03000000 0.02654446 0.05918516
v -0.03000000 0.02669296 0.05930704
v -0.03000000 0.02681484 0.05945554
v -0.03000000 0.02690540 0.05962497
v -0.03000000 0.02696117 0.05980881
v -0.03000000 0.02669296 0.06069296
v -0.03000000 0.02681484 0.06054446
v -0.03000000 0.02690540 0.06037503
v -0.03000000 0.02698000 0.06000000
v -0.03000000 0.02696117 0.06019119
v -0.03000000 0.02637503 0.06090540
v -0.03000000 0.02654446 0.06081484
v -0.03870000 0.02405000 0.11200000
v -0.03870000 0.02419843 0.11125377
v -0.03870000 0.02437863 0.11091664
v -0.03870000 0.02408747 0.11161957
v -0.03870000 0.02408747 0.11238043
v -0.03870000 0.02419843 0.11274623
v -0.03870000 0.02437863 0.11308336
v -0.03800000 0.02405000 0.11200000
v -0.03800000 0.02419843 0.11125377
v -0.03800000 0.02437863 0.11091664
v -0.03800000 0.02408747 0.11161957
v -0.03800000 0.02408747 0.11238043
v -0.03800000 0.02419843 0.11274623
v -0.03800000 0.02437863 0.11308336
v -0.03870000 0.02491664 0.11037863
v -0.03870000 0.02525377 0.11019843
v -0.03870000 0.02561957 0.11008747
v -0.03870000 0.02600000 0.11005000
v -0.03800000 0.02491664 0.11037863
v -0.03800000 0.02525377 0.11019843
v -0.03800000 0.02561957 0.11008747
v -0.03800000 0.02600000 0.11005000
v -0.03870000 0.02462114 0.11062114
v -0.03870000 0.02462114 0.11337886
v -0.03870000 0.02491664 0.11362137
v -0.03870000 0.02525377 0.11380157
v -0.03870000 0.02561957 0.11391253
v -0.03870000 0.02600000 0.11395000
v -0.03800000 0.02462114 0.11062114
v -0.03800000 0.02518516 0.11145554
v -0.03800000 0.02530704 0.11130704
v -0.03800000 0.02503883 0.11180881
v -0.03800000 0.02502000 0.11200000
v -0.03800000 0.02509460 0.11162497
v -0.03800000 0.02503883 0.11219119
v -0.03800000 0.02509460 0.11237503
v -0.03800000 0.02462114 0.11337886
v -0.03800000 0.02491664 0.11362137
v -0.03800000 0.02518516 0.11254446
v -0.03800000 0.02530704 0.11269296
v -0.03800000 0.02525377 0.11380157
v -0.03800000 0.02545554 0.11118516
v -0.03800000 0.02580881 0.11103883
v -0.03800000 0.02562497 0.11109460
v -0.03800000 0.02600000 0.11102000
v -0.03800000 0.02619119 0.11103883
v -0.03800000 0.02545554 0.11281484
v -0.03800000 0.02562497 0.11290540
v -0.03800000 0.02580881 0.11296117
v -0.03800000 0.02561957 0.11391253
v -0.03800000 0.02600000 0.11298000
v -0.03800000 0.02619119 0.11296117
v -0.03800000 0.02600000 0.11395000
v -0.03870000 0.02638043 0.11008747
v -0.03870000 0.02674623 0.11019843
v -0.03870000 0.02708336 0.11037863
v -0.03800000 0.02638043 0.11008747
v -0.03800000 0.02674623 0.11019843
v -0.03800000 0.02708336 0.11037863
v -0.03870000 0.02638043 0.11391253
v -0.03870000 0.02674623 0.11380157
v -0.03870000 0.02708336 0.11362137
v -0.03870000 0.02737886 0.11062114
v -0.03870000 0.02762137 0.11091664
v -0.03870000 0.02780157 0.11125377
v -0.03870000 0.02791253 0.11161957
v -0.03870000 0.02795000 0.11200000
v -0.03870000 0.02791253 0.11238043
v -0.03870000 0.02737886 0.11337886
v -0.03870000 0.02762137 0.11308336
v -0.03870000 0.02780157 0.11274623
v -0.03800000 0.02637503 0.11109460
v -0.03800000 0.02654446 0.11118516
v -0.03800000 0.02669296 0.11130704
v -0.03800000 0.02681484 0.11145554
v -0.03800000 0.02690540 0.11162497
v -0.03800000 0.02690540 0.11237503
v -0.03800000 0.02696117 0.11180881
v -0.03800000 0.02698000 0.11200000
v -0.03800000 0.02696117 0.11219119
v -0.03800000 0.02637503 0.11290540
v -0.03800000 0.02654446 0.11281484
v -0.03800000 0.02638043 0.11391253
v -0.03800000 0.02669296 0.11269296
v -0.03800000 0.02681484 0.11254446
v -0.03800000 0.02674623 0.11380157
v -0.03800000 0.02708336 0.11362137
v -0.03800000 0.02737886 0.11062114
v -0.03800000 0.02762137 0.11091664
v -0.03800000 0.02780157 0.11125377
v -0.03800000 0.02791253 0.11161957
v -0.03800000 0.02795000 0.11200000
v -0.03800000 0.02791253 0.11238043
v -0.03800000 0.02737886 0.11337886
v -0.03800000 0.02762137 0.11308336
v -0.03800000 0.02780157 0.11274623
v -0.03290000 0.02400000 0.11084530
v -0.03290000 0.02400000 0.11315470
v -0.03130000 0.02400000 0.11084530
v -0.03130000 0.02400000 0.11315470
v -0.03290000 0.02600000 0.10969060
v -0.03290000 0.02512696 0.11141665
v -0.03290000 0.02525754 0.11125754
v -0.03290000 0.02502993 0.11159818
v -0.03290000 0.02497018 0.11179516
v -0.03290000 0.02495000 0.11200000
v -0.03290000 0.02497018 0.11220484
v -0.03290000 0.02502993 0.11240182
v -0.03290000 0.02512696 0.11258335
v -0.03290000 0.02525754 0.11274246
v -0.03290000 0.02541665 0.11112696
v -0.03290000 0.02559818 0.11102993
v -0.03290000 0.02579516 0.11097018
v -0.03290000 0.02600000 0.11095000
v -0.03290000 0.02620484 0.11097018
v -0.03290000 0.02541665 0.11287304
v -0.03290000 0.02559818 0.11297007
v -0.03290000 0.02579516 0.11302982
v -0.03290000 0.02600000 0.11305000
v -0.03290000 0.02620484 0.11302982
v -0.03290000 0.02600000 0.11430940
v -0.03290000 0.02640182 0.11102993
v -0.03290000 0.02658335 0.11112696
v -0.03290000 0.02674246 0.11125754
v -0.03290000 0.02687304 0.11141665
v -0.03290000 0.02697007 0.11159818
v -0.03290000 0.02702982 0.11179516
v -0.03290000 0.02705000 0.11200000
v -0.03290000 0.02697007 0.11240182
v -0.03290000 0.02702982 0.11220484
v -0.03290000 0.02640182 0.11297007
v -0.03290000 0.02658335 0.11287304
v -0.03290000 0.02674246 0.11274246
v -0.03290000 0.02687304 0.11258335
v -0.03290000 0.02800000 0.11084530
v -0.03290000 0.02800000 0.11315470
v -0.03130000 0.02600000 0.10969060
v -0.03130000 0.02512696 0.11141665
v -0.03130000 0.02525754 0.11125754
v -0.03130000 0.02502993 0.11159818
v -0.03130000 0.02497018 0.11179516
v -0.03130000 0.02495000 0.11200000
v -0.03130000 0.02497018 0.11220484
v -0.03130000 0.02502993 0.11240182
v -0.03130000 0.02512696 0.11258335
v -0.03130000 0.02525754 0.11274246
v -0.03130000 0.02541665 0.11112696
v -0.03130000 0.02559818 0.11102993
v -0.03130000 0.02579516 0.11097018
v -0.03130000 0.02600000 0.11095000
v -0.03130000 0.02620484 0.11097018
v -0.03130000 0.02541665 0.11287304
v -0.03130000 0.02559818 0.11297007
v -0.03130000 0.02579516 0.11302982
v -0.03130000 0.02600000 0.11305000
v -0.03130000 0.02620484 0.11302982
v -0.03130000 0.02600000 0.11430940
v -0.03130000 0.02640182 0.11102993
v -0.03130000 0.02658335 0.11112696
v -0.03130000 0.02674246 0.11125754
v -0.03130000 0.02687304 0.11141665
v -0.03130000 0.02697007 0.11159818
v -0.03130000 0.02702982 0.11179516
v -0.03130000 0.02705000 0.11200000
v -0.03130000 0.02697007 0.11240182
v -0.03130000 0.02702982 0.11220484
v -0.03130000 0.02640182 0.11297007
v -0.03130000 0.02658335 0.11287304
v -0.03130000 0.02674246 0.11274246
v -0.03130000 0.02687304 0.11258335
v -0.03130000 0.02800000 0.11084530
v -0.03130000 0.02800000 0.11315470
v -0.03000000 0.02518516 0.11145554
v -0.03000000 0.02530704 0.11130704
v -0.03000000 0.02503883 0.11180881
v -0.03000000 0.02502000 0.11200000
v -0.03000000 0.02509460 0.11162497
v -0.03000000 0.02503883 0.11219119
v -0.03000000 0.02509460 0.11237503
v -0.03000000 0.02518516 0.11254446
v -0.03000000 0.02530704 0.11269296
v -0.03000000 0.02545554 0.11118516
v -0.03000000 0.02580881 0.11103883
v -0.03000000 0.02562497 0.11109460
v -0.03000000 0.02600000 0.11102000
v -0.03000000 0.02619119 0.11103883
v -0.03000000 0.02545554 0.11281484
v -0.03000000 0.02562497 0.11290540
v -0.03000000 0.02580881 0.11296117
v -0.03000000 0.02600000 0.11298000
v -0.03000000 0.02619119 0.11296117
v -0.03000000 0.02637503 0.11109460
v -0.03000000 0.02654446 0.11118516
v -0.03000000 0.02669296 0.11130704
v -0.03000000 0.02681484 0.11145554
v -0.03000000 0.02690540 0.11162497
v -0.03000000 0.02690540 0.11237503
v -0.03000000 0.02696117 0.11180881
v -0.03000000 0.02698000 0.11200000
v -0.03000000 0.02696117 0.11219119
v -0.03000000 0.02637503 0.11290540
v -0.03000000 0.02654446 0.11281484
v -0.03000000 0.02669296 0.11269296
v -0.03000000 0.02681484 0.11254446
v -0.00157979 -0.00105558 0.00300000
v -0.00186349 -0.00037067 0.00300000
v -0.00175537 -0.00072710 0.00300000
v -0.00115470 -0.00200000 -0.00340000
v -0.00115470 -0.00200000 -0.00180000
v -0.00072710 -0.00175537 0.00300000
v -0.00037067 -0.00186349 0.00300000
v -0.00091462 -0.00061113 -0.00340000
v -0.00107886 -0.00021460 -0.00340000
v -0.00101627 -0.00042095 -0.00340000
v -0.00090540 -0.00037503 -0.00380000
v -0.00096117 -0.00019119 -0.00380000
v -0.00091462 -0.00061113 -0.00180000
v -0.00107886 -0.00021460 -0.00180000
v -0.00101627 -0.00042095 -0.00180000
v -0.00061113 -0.00091462 -0.00340000
v -0.00042095 -0.00101627 -0.00340000
v -0.00037503 -0.00090540 -0.00380000
v -0.00061113 -0.00091462 -0.00180000
v -0.00042095 -0.00101627 -0.00180000
v -0.00077782 -0.00077782 -0.00340000
v -0.00081484 -0.00054446 -0.00380000
v -0.00069296 -0.00069296 -0.00380000
v -0.00054446 -0.00081484 -0.00380000
v -0.00077782 -0.00077782 -0.00180000
v -0.00134350 -0.00134350 0.00300000
v -0.00105558 -0.00157979 0.00300000
v -0.00090540 -0.00037503 0.00300000
v -0.00096117 -0.00019119 0.00300000
v -0.00037503 -0.00090540 0.00300000
v -0.00081484 -0.00054446 0.00300000
v -0.00069296 -0.00069296 0.00300000
v -0.00054446 -0.00081484 0.00300000
v -0.00157979 -0.00105558 0.00450000
v -0.00186349 -0.00037067 0.00450000
v -0.00175537 -0.00072710 0.00450000
v -0.00072710 -0.00175537 0.00450000
v -0.00037067 -0.00186349 0.00450000
v -0.00134350 -0.00134350 0.00450000
v -0.00105558 -0.00157979 0.00450000
v 0.00000000 -0.00190000 0.00300000
v 0.00037067 -0.00186349 0.00300000
v 0.00072710 -0.00175537 0.00300000
v -0.00021460 -0.00107886 -0.00340000
v -0.00019119 -0.00096117 -0.00380000
v 0.00000000 -0.00110000 -0.00340000
v 0.00000000 -0.00098000 -0.00380000
v 0.00021460 -0.00107886 -0.00340000
v 0.00019119 -0.00096117 -0.00380000
v 0.00037503 -0.00090540 -0.00380000
v -0.00021460 -0.00107886 -0.00180000
v 0.00000000 -0.00110000 -0.00180000
v 0.00021460 -0.00107886 -0.00180000
v 0.00042095 -0.00101627 -0.00340000
v 0.00061113 -0.00091462 -0.00340000
v 0.00042095 -0.00101627 -0.00180000
v 0.00061113 -0.00091462 -0.00180000
v 0.00054446 -0.00081484 -0.00380000
v 0.00069296 -0.00069296 -0.00380000
v 0.00077782 -0.00077782 -0.00340000
v 0.00081484 -0.00054446 -0.00380000
v 0.00091462 -0.00061113 -0.00340000
v 0.00090540 -0.00037503 -0.00380000
v 0.00101627 -0.00042095 -0.00340000
v 0.00096117 -0.00019119 -0.00380000
v 0.00077782 -0.00077782 -0.00180000
v 0.00091462 -0.00061113 -0.00180000
v 0.00101627 -0.00042095 -0.00180000
v -0.00019119 -0.00096117 0.00300000
v 0.00000000 -0.00098000 0.00300000
v 0.00019119 -0.00096117 0.00300000
v 0.00037503 -0.00090540 0.00300000
v 0.00054446 -0.00081484 0.00300000
v 0.00069296 -0.00069296 0.00300000
v 0.00081484 -0.00054446 0.00300000
v 0.00090540 -0.00037503 0.00300000
v 0.00096117 -0.00019119 0.00300000
v 0.00115470 -0.00200000 -0.00340000
v 0.00115470 -0.00200000 -0.00180000
v 0.00107886 -0.00021460 -0.00340000
v 0.00107886 -0.00021460 -0.00180000
v 0.00105558 -0.00157979 0.00300000
v 0.00134350 -0.00134350 0.00300000
v 0.00157979 -0.00105558 0.00300000
v 0.00175537 -0.00072710 0.00300000
v 0.00186349 -0.00037067 0.00300000
v 0.00000000 -0.00190000 0.00450000
v 0.00037067 -0.00186349 0.00450000
v 0.00072710 -0.00175537 0.00450000
v 0.00105558 -0.00157979 0.00450000
v 0.00134350 -0.00134350 0.00450000
v 0.00157979 -0.00105558 0.00450000
v 0.00175537 -0.00072710 0.00450000
v 0.00186349 -0.00037067 0.00450000
v -0.00230940 0.00000000 -0.00340000
v -0.00230940 0.00000000 -0.00180000
v -0.00190000 0.00000000 0.00300000
v -0.00186349 0.00037067 0.00300000
v -0.00175537 0.00072710 0.00300000
v -0.00157979 0.00105558 0.00300000
v -0.00110000 0.00000000 -0.00340000
v -0.00107886 0.00021460 -0.00340000
v -0.00098000 0.00000000 -0.00380000
v -0.00096117 0.00019119 -0.00380000
v -0.00101627 0.00042095 -0.00340000
v -0.00090540 0.00037503 -0.00380000
v -0.00091462 0.00061113 -0.00340000
v -0.00110000 0.00000000 -0.00180000
v -0.00107886 0.00021460 -0.00180000
v -0.00101627 0.00042095 -0.00180000
v -0.00091462 0.00061113 -0.00180000
v -0.00081484 0.00054446 -0.00380000
v -0.00077782 0.00077782 -0.00340000
v -0.00069296 0.00069296 -0.00380000
v -0.00054446 0.00081484 -0.00380000
v -0.00077782 0.00077782 -0.00180000
v -0.00061113 0.00091462 -0.00340000
v -0.00042095 0.00101627 -0.00340000
v -0.00037503 0.00090540 -0.00380000
v -0.00061113 0.00091462 -0.00180000
v -0.00042095 0.00101627 -0.00180000
v -0.00098000 0.00000000 0.00300000
v -0.00096117 0.00019119 0.00300000
v -0.00090540 0.00037503 0.00300000
v -0.00134350 0.00134350 0.00300000
v -0.00105558 0.00157979 0.00300000
v -0.00081484 0.00054446 0.00300000
v -0.00069296 0.00069296 0.00300000
v -0.00054446 0.00081484 0.00300000
v -0.00037503 0.00090540 0.00300000
v -0.00115470 0.00200000 -0.00340000
v -0.00115470 0.00200000 -0.00180000
v -0.00072710 0.00175537 0.00300000
v -0.00037067 0.00186349 0.00300000
v -0.00190000 0.00000000 0.00450000
v -0.00186349 0.00037067 0.00450000
v -0.00175537 0.00072710 0.00450000
v -0.00157979 0.00105558 0.00450000
v -0.00134350 0.00134350 0.00450000
v -0.00105558 0.00157979 0.00450000
v -0.00072710 0.00175537 0.00450000
v -0.00037067 0.00186349 0.00450000
v -0.00019119 0.00096117 -0.00380000
v -0.00021460 0.00107886 -0.00340000
v 0.00000000 0.00098000 -0.00380000
v 0.00000000 0.00110000 -0.00340000
v 0.00019119 0.00096117 -0.00380000
v 0.00021460 0.00107886 -0.00340000
v 0.00037503 0.00090540 -0.00380000
v -0.00021460 0.00107886 -0.00180000
v 0.00000000 0.00110000 -0.00180000
v 0.00021460 0.00107886 -0.00180000
v 0.00054446 0.00081484 -0.00380000
v 0.00069296 0.00069296 -0.00380000
v 0.00098000 0.00000000 -0.00380000
v 0.00096117 0.00019119 -0.00380000
v 0.00090540 0.00037503 -0.00380000
v 0.00101627 0.00042095 -0.00340000
v 0.00081484 0.00054446 -0.00380000
v 0.00077782 0.00077782 -0.00340000
v 0.00091462 0.00061113 -0.00340000
v 0.00101627 0.00042095 -0.00180000
v 0.00077782 0.00077782 -0.00180000
v 0.00091462 0.00061113 -0.00180000
v 0.00042095 0.00101627 -0.00340000
v 0.00061113 0.00091462 -0.00340000
v 0.00042095 0.00101627 -0.00180000
v 0.00061113 0.00091462 -0.00180000
v -0.00019119 0.00096117 0.00300000
v 0.00000000 0.00098000 0.00300000
v 0.00019119 0.00096117 0.00300000
v 0.00037503 0.00090540 0.00300000
v 0.00054446 0.00081484 0.00300000
v 0.00069296 0.00069296 0.00300000
v 0.00098000 0.00000000 0.00300000
v 0.00096117 0.00019119 0.00300000
v 0.00090540 0.00037503 0.00300000
v 0.00081484 0.00054446 0.00300000
v 0.00000000 0.00190000 0.00300000
v 0.00037067 0.00186349 0.00300000
v 0.00072710 0.00175537 0.00300000
v 0.00110000 0.00000000 -0.00340000
v 0.00107886 0.00021460 -0.00340000
v 0.00110000 0.00000000 -0.00180000
v 0.00107886 0.00021460 -0.00180000
v 0.00230940 0.00000000 -0.00340000
v 0.00230940 0.00000000 -0.00180000
v 0.00105558 0.00157979 0.00300000
v 0.00134350 0.00134350 0.00300000
v 0.00157979 0.00105558 0.00300000
v 0.00190000 0.00000000 0.00300000
v 0.00186349 0.00037067 0.00300000
v 0.00175537 0.00072710 0.00300000
v 0.00115470 0.00200000 -0.00340000
v 0.00115470 0.00200000 -0.00180000
v 0.00000000 0.00190000 0.00450000
v 0.00037067 0.00186349 0.00450000
v 0.00072710 0.00175537 0.00450000
v 0.00105558 0.00157979 0.00450000
v 0.00134350 0.00134350 0.00450000
v 0.00157979 0.00105558 0.00450000
v 0.00190000 0.00000000 0.00450000
v 0.00186349 0.00037067 0.00450000
v 0.00175537 0.00072710 0.00450000
f 828 922 827
f 828 827 845
f 828 938 919
f 834 861 846
f 838 827 928
f 839 931 840
f 838 930 839
f 834 840 935
f 838 839 847
f 839 840 848
f 838 844 827
f 834 849 840
f 827 844 845
f 828 845 938
f 834 846 849
f 838 847 844
f 848 840 849
f 839 848 847
f 861 863 885
f 863 865 886
f 865 866 887
f 834 959 861
f 861 961 863
f 863 963 865
f 865 965 866
f 866 874 888
f 866 969 874
f 874 970 875
f 875 975 877
f 877 973 879
f 879 972 881
f 874 875 889
f 875 877 890
f 877 879 891
f 879 881 892
f 881 971 893
f 861 885 846
f 863 886 885
f 865 887 886
f 866 888 887
f 874 889 888
f 889 875 890
f 877 891 890
f 879 892 891
f 881 893 892
f 893 971 991
f 828 919 920
f 828 920 922
f 919 939 920
f 920 940 922
f 827 922 928
f 838 928 930
f 839 930 931
f 840 931 935
f 834 935 959
f 922 943 928
f 928 944 930
f 930 945 931
f 931 946 935
f 919 938 939
f 920 939 940
f 922 940 943
f 928 943 944
f 930 944 945
f 931 945 946
f 935 946 985
f 861 959 961
f 863 961 963
f 865 963 965
f 935 985 959
f 959 986 961
f 961 987 963
f 963 988 965
f 866 965 969
f 874 969 970
f 875 970 975
f 877 975 973
f 879 973 972
f 881 972 971
f 969 965 989
f 969 990 970
f 971 972 991
f 973 992 972
f 973 975 993
f 970 994 975
f 959 985 986
f 961 986 987
f 963 987 988
f 969 989 990
f 972 992 991
f 973 993 992
f 970 990 994
f 975 994 993
f 965 988 989
f 818 951 913
f 817 852 819
f 819 851 818
f 819 818 915
f 817 819 916
f 822 823 853
f 842 843 855
f 842 850 817
f 822 856 843
f 842 817 941
f 842 942 843
f 843 844 847
f 843 845 844
f 843 938 845
f 822 843 847
f 822 847 848
f 822 848 849
f 822 846 823
f 822 849 846
f 823 846 885
f 817 850 852
f 818 851 951
f 819 852 851
f 852 953 851
f 850 954 852
f 853 823 854
f 842 855 850
f 843 856 855
f 855 955 850
f 855 856 956
f 822 853 856
f 853 957 856
f 853 854 958
f 823 857 854
f 857 858 903
f 858 859 904
f 823 886 857
f 823 885 886
f 857 886 858
f 858 886 887
f 858 887 888
f 858 888 859
f 888 889 859
f 889 890 859
f 859 898 905
f 859 891 898
f 859 890 891
f 898 891 892
f 898 892 893
f 898 893 991
f 898 899 906
f 899 900 907
f 900 901 908
f 898 1005 899
f 899 1006 900
f 901 902 909
f 900 1009 901
f 901 1008 902
f 902 1007 910
f 857 903 854
f 858 904 903
f 859 905 904
f 854 903 1012
f 903 904 1013
f 898 906 905
f 904 905 1014
f 905 906 1015
f 899 907 906
f 900 908 907
f 906 907 1016
f 907 908 1017
f 901 909 908
f 902 910 909
f 908 909 1020
f 909 910 1019
f 910 1007 1018
f 818 913 914
f 913 952 914
f 818 914 915
f 819 915 916
f 914 953 915
f 915 954 916
f 817 916 941
f 842 941 942
f 843 942 938
f 938 942 939
f 939 942 940
f 940 942 943
f 916 955 941
f 941 956 942
f 943 949 944
f 943 942 949
f 944 949 945
f 942 957 949
f 949 946 945
f 946 950 985
f 949 950 946
f 949 958 950
f 913 951 952
f 851 952 951
f 851 953 952
f 852 954 953
f 914 952 953
f 915 953 954
f 850 955 954
f 855 956 955
f 856 957 956
f 916 954 955
f 941 955 956
f 942 956 957
f 853 958 957
f 949 957 958
f 985 950 986
f 986 950 995
f 986 996 987
f 987 996 988
f 986 995 996
f 991 992 1004
f 993 994 1004
f 993 1004 992
f 989 997 990
f 989 988 997
f 988 996 997
f 990 997 994
f 994 997 1004
f 1004 997 1015
f 950 1012 995
f 995 1013 996
f 996 1014 997
f 898 991 1004
f 898 1004 1005
f 899 1005 1006
f 900 1006 1009
f 1004 1016 1005
f 1006 1005 1017
f 901 1009 1008
f 902 1008 1007
f 1007 1008 1018
f 1008 1009 1019
f 1009 1006 1020
f 854 1012 958
f 903 1013 1012
f 904 1014 1013
f 905 1015 1014
f 997 1014 1015
f 950 958 1012
f 995 1012 1013
f 996 1013 1014
f 906 1016 1015
f 907 1017 1016
f 908 1020 1017
f 1004 1015 1016
f 1005 1016 1017
f 1006 1017 1020
f 909 1019 1020
f 910 1018 1019
f 1008 1019 1018
f 1009 1020 1019
f 820 821 912
f 820 912 911
f 820 894 821
f 820 825 826
f 820 824 837
f 820 826 824
f 821 831 830
f 821 841 829
f 821 829 831
f 820 917 825
f 821 830 924
f 820 833 860
f 820 837 832
f 820 832 833
f 821 867 836
f 821 835 841
f 821 836 835
f 821 894 895
f 820 860 894
f 860 862 894
f 821 895 867
f 867 895 868
f 862 864 894
f 894 864 870
f 894 870 871
f 894 871 876
f 894 876 878
f 868 895 869
f 895 872 869
f 895 873 872
f 895 882 873
f 895 883 882
f 894 878 880
f 894 880 896
f 894 1002 895
f 895 884 883
f 895 897 884
f 894 896 998
f 895 1000 897
f 895 1002 1003
f 911 912 948
f 820 911 947
f 821 948 912
f 911 948 947
f 820 947 917
f 917 947 918
f 821 924 948
f 924 925 948
f 918 947 921
f 921 947 923
f 947 929 923
f 925 926 948
f 926 927 948
f 948 927 932
f 947 933 929
f 947 934 933
f 947 960 934
f 947 962 960
f 947 964 962
f 948 932 936
f 948 936 937
f 948 937 966
f 948 966 967
f 948 967 968
f 947 948 1011
f 947 1010 964
f 948 968 1011
f 964 1010 981
f 981 1010 982
f 982 1010 976
f 976 1010 977
f 968 983 1011
f 983 984 1011
f 984 979 1011
f 979 980 1011
f 947 1011 1010
f 894 998 1010
f 998 999 1010
f 894 1010 1002
f 895 1011 1000
f 1000 1011 1001
f 895 1003 1011
f 974 1010 999
f 977 1010 974
f 1010 1011 1003
f 978 1001 1011
f 980 978 1011
f 1010 1003 1002
f 826 831 824
f 831 829 824
f 826 825 830
f 825 917 924
f 825 924 830
f 826 830 831
f 832 835 833
f 835 836 833
f 833 836 860
f 860 836 867
f 824 829 837
f 837 829 841
f 832 837 841
f 832 841 835
f 860 867 862
f 867 868 862
f 862 868 864
f 868 869 864
f 864 869 870
f 869 872 870
f 870 872 871
f 871 872 873
f 871 873 876
f 876 882 878
f 873 882 876
f 878 882 883
f 878 883 880
f 883 884 880
f 880 884 896
f 896 884 897
f 896 897 998
f 897 1000 998
f 917 918 925
f 917 925 924
f 918 926 925
f 918 921 926
f 921 923 927
f 921 927 926
f 923 929 932
f 923 932 927
f 929 933 936
f 929 936 932
f 933 934 937
f 933 937 936
f 934 960 966
f 934 966 937
f 960 967 966
f 960 962 967
f 962 964 968
f 962 968 967
f 964 981 983
f 964 983 968
f 982 979 984
f 982 976 979
f 976 980 979
f 977 974 978
f 977 978 980
f 976 977 980
f 981 984 983
f 981 982 984
f 998 1000 999
f 999 1000 1001
f 974 999 1001
f 974 1001 978
f 30 173 28
f 31 29 176
f 30 31 175
f 32 28 177
f 32 178 33
f 33 179 34
f 34 180 35
f 35 181 36
f 29 37 174
f 37 38 182
f 38 59 183
f 36 184 41
f 41 185 42
f 42 191 64
f 59 60 186
f 60 61 187
f 61 62 188
f 62 63 189
f 63 71 190
f 64 192 65
f 65 193 67
f 67 194 68
f 68 195 69
f 71 72 196
f 72 73 197
f 73 74 198
f 69 200 75
f 76 75 201
f 78 79 203
f 74 77 199
f 77 78 202
f 76 204 79
f 30 175 173
f 29 174 176
f 31 176 175
f 28 173 177
f 32 177 178
f 33 178 179
f 34 179 180
f 35 180 181
f 37 182 174
f 38 183 182
f 59 186 183
f 36 181 184
f 41 184 185
f 42 185 191
f 60 187 186
f 61 188 187
f 62 189 188
f 63 190 189
f 69 195 200
f 64 191 192
f 65 192 193
f 67 193 194
f 68 194 195
f 71 196 190
f 72 197 196
f 73 198 197
f 74 199 198
f 75 200 201
f 79 204 203
f 77 202 199
f 78 203 202
f 76 201 204
f 176 174 196
f 175 176 197
f 175 198 173
f 177 173 199
f 177 202 178
f 178 203 179
f 179 204 180
f 182 183 189
f 174 182 190
f 183 186 188
f 186 187 188
f 183 188 189
f 182 189 190
f 174 190 196
f 180 201 181
f 181 200 184
f 176 196 197
f 175 197 198
f 173 198 199
f 177 199 202
f 178 202 203
f 179 203 204
f 184 200 195
f 181 201 200
f 180 204 201
f 184 195 185
f 185 194 191
f 191 193 192
f 191 194 193
f 185 195 194
f 2 6 1
f 2 3 7
f 2 7 6
f 3 8 7
f 3 4 8
f 2 1 48
f 2 47 3
f 3 46 4
f 4 5 9
f 5 44 10
f 4 9 8
f 5 10 9
f 7 53 6
f 7 8 52
f 8 9 51
f 12 11 22
f 11 1 21
f 12 23 13
f 13 24 14
f 14 25 15
f 11 21 22
f 12 22 23
f 1 6 21
f 13 23 24
f 14 24 25
f 15 26 16
f 16 27 17
f 17 39 18
f 15 25 26
f 16 26 27
f 17 27 39
f 11 83 1
f 12 85 11
f 12 13 86
f 13 14 89
f 14 15 88
f 18 40 19
f 15 16 87
f 16 17 90
f 17 18 58
f 19 43 20
f 18 39 40
f 19 40 43
f 20 43 66
f 22 28 23
f 23 32 24
f 22 21 31
f 21 6 38
f 22 30 28
f 22 31 30
f 24 34 25
f 23 28 32
f 24 32 33
f 24 33 34
f 25 34 35
f 25 36 26
f 21 29 31
f 21 37 29
f 21 38 37
f 6 59 38
f 25 35 36
f 6 60 59
f 26 36 41
f 26 41 42
f 26 42 64
f 26 64 65
f 26 96 27
f 27 82 39
f 4 45 5
f 5 45 44
f 4 46 45
f 44 45 49
f 3 47 46
f 2 48 47
f 1 83 48
f 45 46 50
f 10 44 49
f 45 50 49
f 46 51 50
f 46 47 51
f 47 48 52
f 48 83 53
f 47 52 51
f 48 53 52
f 9 10 50
f 10 49 50
f 9 50 51
f 8 51 52
f 7 52 53
f 6 53 84
f 11 85 83
f 12 86 85
f 18 19 57
f 19 20 56
f 20 54 55
f 20 66 54
f 16 90 87
f 18 57 58
f 17 58 90
f 20 55 56
f 19 56 57
f 54 70 55
f 55 80 56
f 54 66 70
f 55 70 80
f 13 89 86
f 14 88 89
f 15 87 88
f 56 81 57
f 57 82 58
f 56 80 81
f 57 81 82
f 58 82 96
f 6 84 60
f 60 84 61
f 39 81 40
f 26 65 96
f 40 80 43
f 43 70 66
f 65 67 96
f 39 82 81
f 27 96 82
f 43 80 70
f 40 81 80
f 61 84 62
f 62 84 63
f 63 84 71
f 69 75 93
f 71 91 72
f 72 91 73
f 73 92 74
f 71 84 91
f 74 92 77
f 78 94 79
f 76 93 75
f 76 79 94
f 77 95 78
f 67 68 96
f 68 69 93
f 68 93 96
f 53 83 84
f 83 85 84
f 85 86 91
f 86 89 92
f 88 87 94
f 89 88 95
f 85 91 84
f 86 92 91
f 88 94 95
f 87 93 94
f 89 95 92
f 58 96 90
f 90 93 87
f 90 96 93
f 73 91 92
f 78 95 94
f 77 92 95
f 76 94 93
f 97 112 133
f 97 113 114
f 97 98 104
f 97 103 99
f 97 104 103
f 97 100 102
f 97 102 101
f 97 99 100
f 98 105 104
f 98 106 105
f 97 134 98
f 98 107 106
f 97 101 108
f 97 108 109
f 97 109 113
f 98 110 107
f 98 111 110
f 98 118 111
f 98 119 118
f 98 156 120
f 97 169 112
f 97 114 169
f 114 115 169
f 112 169 148
f 98 170 119
f 98 120 170
f 115 116 169
f 116 117 169
f 117 124 169
f 124 125 169
f 125 126 169
f 126 127 169
f 132 131 170
f 127 129 170
f 129 130 170
f 130 132 170
f 119 170 121
f 122 121 170
f 122 170 123
f 123 170 128
f 128 170 131
f 120 172 170
f 112 148 133
f 133 150 149
f 97 133 134
f 98 134 156
f 133 140 134
f 133 135 139
f 133 139 140
f 133 138 136
f 133 137 138
f 133 136 135
f 134 140 141
f 134 141 142
f 134 142 143
f 133 144 137
f 133 145 144
f 133 149 145
f 134 143 146
f 134 146 147
f 134 147 154
f 134 154 155
f 148 169 171
f 133 148 171
f 133 171 150
f 150 171 151
f 120 156 172
f 134 155 172
f 134 172 156
f 151 171 152
f 152 171 153
f 153 171 160
f 160 171 161
f 161 171 162
f 162 171 163
f 168 172 167
f 163 172 165
f 165 172 166
f 166 172 168
f 155 157 172
f 158 172 157
f 158 159 172
f 159 164 172
f 164 167 172
f 127 170 169
f 169 170 171
f 170 172 171
f 163 171 172
f 100 136 102
f 99 135 100
f 102 138 101
f 108 101 137
f 99 103 139
f 103 104 140
f 104 105 141
f 105 106 142
f 106 107 143
f 108 144 109
f 109 145 113
f 107 110 146
f 110 111 147
f 111 118 154
f 113 149 114
f 114 150 115
f 115 151 116
f 116 152 117
f 118 119 155
f 119 121 157
f 122 158 121
f 122 123 159
f 117 153 124
f 124 160 125
f 125 161 126
f 126 162 127
f 127 163 129
f 123 128 164
f 128 131 167
f 129 165 130
f 130 166 132
f 132 168 131
f 99 139 135
f 100 135 136
f 101 138 137
f 102 136 138
f 103 140 139
f 104 141 140
f 105 142 141
f 106 143 142
f 107 146 143
f 108 137 144
f 109 144 145
f 113 145 149
f 110 147 146
f 111 154 147
f 114 149 150
f 115 150 151
f 116 151 152
f 117 152 153
f 118 155 154
f 119 157 155
f 121 158 157
f 122 159 158
f 124 153 160
f 125 160 161
f 126 161 162
f 127 162 163
f 128 167 164
f 129 163 165
f 130 165 166
f 131 168 167
f 132 166 168
f 123 164 159
f 439 441 582
f 439 581 438
f 441 440 584
f 440 450 583
f 438 585 442
f 442 586 443
f 443 587 444
f 444 588 445
f 445 589 446
f 450 451 590
f 451 452 591
f 446 595 455
f 452 453 592
f 453 454 593
f 455 596 456
f 456 597 457
f 457 598 459
f 459 599 460
f 454 482 594
f 482 483 600
f 483 484 601
f 494 606 488
f 484 485 602
f 485 486 603
f 486 487 604
f 489 488 607
f 489 608 490
f 487 491 605
f 491 492 609
f 492 490 610
f 460 611 493
f 493 612 494
f 441 584 582
f 439 582 581
f 440 583 584
f 438 581 585
f 442 585 586
f 443 586 587
f 444 587 588
f 445 588 589
f 446 589 595
f 450 590 583
f 451 591 590
f 452 592 591
f 453 593 592
f 454 594 593
f 455 595 596
f 456 596 597
f 457 597 598
f 459 598 599
f 482 600 594
f 483 601 600
f 484 602 601
f 494 612 606
f 485 603 602
f 486 604 603
f 487 605 604
f 488 606 607
f 489 607 608
f 491 609 605
f 490 608 610
f 492 610 609
f 460 599 611
f 493 611 612
f 584 583 602
f 583 590 601
f 582 584 603
f 582 604 581
f 581 605 585
f 585 609 586
f 586 610 587
f 587 608 588
f 588 607 589
f 590 591 600
f 591 592 594
f 592 593 594
f 591 594 600
f 590 600 601
f 583 601 602
f 584 602 603
f 589 606 595
f 595 606 612
f 595 612 596
f 596 611 597
f 597 599 598
f 597 611 599
f 596 612 611
f 582 603 604
f 581 604 605
f 585 605 609
f 586 609 610
f 587 610 608
f 588 608 607
f 589 607 606
f 409 423 410
f 413 417 411
f 412 409 418
f 413 412 419
f 411 420 414
f 414 421 415
f 411 417 420
f 412 418 419
f 413 419 417
f 409 410 418
f 414 420 421
f 415 422 416
f 415 421 422
f 416 422 447
f 419 418 441
f 419 438 417
f 417 442 420
f 420 444 421
f 423 424 428
f 424 425 429
f 410 423 428
f 424 429 428
f 425 430 429
f 423 464 424
f 409 465 423
f 424 463 425
f 425 462 426
f 425 426 430
f 426 427 431
f 426 462 427
f 425 463 462
f 424 464 463
f 427 462 432
f 426 431 430
f 427 432 431
f 428 429 469
f 410 428 470
f 429 430 468
f 430 431 467
f 431 432 467
f 430 467 468
f 429 468 469
f 413 475 412
f 413 411 476
f 411 414 477
f 416 447 433
f 433 448 434
f 434 449 435
f 433 447 448
f 434 448 449
f 412 466 409
f 414 415 479
f 415 416 478
f 416 433 481
f 433 434 480
f 434 435 473
f 435 458 436
f 435 436 474
f 436 437 472
f 436 472 474
f 436 461 437
f 435 449 458
f 436 458 461
f 437 461 495
f 418 410 451
f 418 440 441
f 419 441 439
f 419 439 438
f 417 438 442
f 420 442 443
f 420 443 444
f 421 444 445
f 421 445 446
f 418 450 440
f 418 451 450
f 410 452 451
f 421 446 422
f 422 446 455
f 422 455 456
f 422 456 457
f 410 453 452
f 410 471 453
f 422 457 459
f 422 504 447
f 447 503 448
f 448 496 449
f 422 459 504
f 449 497 458
f 458 495 461
f 458 497 495
f 423 465 464
f 409 466 465
f 462 463 467
f 463 464 468
f 432 462 467
f 463 468 467
f 464 469 468
f 464 465 469
f 465 466 470
f 465 470 469
f 470 466 471
f 428 469 470
f 410 470 471
f 412 475 466
f 413 476 475
f 411 477 476
f 414 479 477
f 415 478 479
f 434 473 480
f 416 481 478
f 433 480 481
f 435 474 473
f 437 495 472
f 472 497 474
f 474 496 473
f 472 495 497
f 474 497 496
f 466 475 471
f 475 476 498
f 476 477 499
f 477 479 500
f 479 478 502
f 475 498 471
f 476 499 498
f 477 500 499
f 479 502 500
f 478 501 502
f 480 473 503
f 480 504 481
f 481 501 478
f 473 496 503
f 480 503 504
f 481 504 501
f 453 471 454
f 454 471 482
f 482 471 483
f 483 471 484
f 484 498 485
f 494 488 501
f 489 501 488
f 448 503 496
f 459 460 504
f 447 504 503
f 449 496 497
f 460 493 504
f 493 494 501
f 485 498 486
f 486 499 487
f 487 499 491
f 484 471 498
f 486 498 499
f 491 500 492
f 492 502 490
f 489 490 502
f 489 502 501
f 491 499 500
f 492 500 502
f 493 501 504
f 505 506 515
f 505 508 506
f 505 507 508
f 507 551 508
f 505 521 522
f 505 509 507
f 505 530 509
f 505 522 530
f 505 514 511
f 505 511 510
f 505 515 514
f 505 512 513
f 505 510 512
f 505 513 519
f 506 516 515
f 506 517 516
f 505 519 520
f 505 520 521
f 506 518 517
f 506 524 518
f 506 525 524
f 506 526 525
f 506 527 526
f 506 565 529
f 506 544 527
f 506 529 544
f 522 523 530
f 509 530 545
f 523 531 530
f 531 532 530
f 532 533 530
f 527 544 528
f 528 544 542
f 542 544 543
f 543 544 537
f 530 533 534
f 530 534 535
f 530 535 536
f 538 544 541
f 541 544 540
f 536 539 544
f 539 540 544
f 530 536 544
f 530 544 566
f 537 544 538
f 529 580 544
f 507 509 545
f 507 558 557
f 507 545 566
f 507 566 558
f 506 508 565
f 507 547 550
f 507 546 547
f 507 550 551
f 507 549 548
f 507 548 546
f 507 555 549
f 508 551 552
f 508 552 553
f 507 556 555
f 507 557 556
f 508 553 554
f 508 554 560
f 508 560 561
f 508 561 562
f 508 562 563
f 508 563 580
f 508 580 565
f 530 566 545
f 558 566 559
f 529 565 580
f 544 580 566
f 559 566 567
f 567 566 568
f 568 566 569
f 563 564 580
f 564 578 580
f 578 579 580
f 579 573 580
f 566 570 569
f 566 571 570
f 566 572 571
f 574 577 580
f 577 576 580
f 572 580 575
f 575 580 576
f 566 580 572
f 573 574 580
f 511 547 510
f 512 510 546
f 512 548 513
f 519 513 549
f 511 514 550
f 514 515 551
f 515 516 552
f 516 517 553
f 517 518 554
f 518 524 560
f 519 555 520
f 520 556 521
f 521 557 522
f 522 558 523
f 524 525 561
f 525 526 562
f 526 527 563
f 527 528 564
f 523 559 531
f 531 567 532
f 532 568 533
f 533 569 534
f 534 570 535
f 535 571 536
f 536 572 539
f 543 537 573
f 537 538 574
f 541 540 576
f 539 575 540
f 538 541 577
f 528 542 578
f 542 543 579
f 511 550 547
f 510 547 546
f 512 546 548
f 513 548 549
f 519 549 555
f 514 551 550
f 515 552 551
f 516 553 552
f 517 554 553
f 518 560 554
f 520 555 556
f 521 556 557
f 522 557 558
f 523 558 559
f 524 561 560
f 525 562 561
f 526 563 562
f 527 564 563
f 531 559 567
f 532 567 568
f 533 568 569
f 534 569 570
f 535 570 571
f 536 571 572
f 537 574 573
f 538 577 574
f 539 572 575
f 540 575 576
f 541 576 577
f 528 578 564
f 542 579 578
f 543 573 579
f 232 233 377
f 237 379 234
f 235 234 380
f 235 381 236
f 236 383 238
f 237 232 382
f 233 239 378
f 239 240 384
f 240 262 385
f 238 386 241
f 241 387 242
f 242 388 245
f 245 389 246
f 246 395 267
f 262 263 390
f 263 264 391
f 264 265 392
f 265 266 393
f 266 274 394
f 267 396 268
f 268 398 271
f 271 397 270
f 270 399 272
f 274 275 400
f 275 276 401
f 276 277 402
f 277 278 403
f 283 405 279
f 280 279 406
f 278 280 404
f 272 407 282
f 283 282 408
f 232 377 382
f 233 378 377
f 237 382 379
f 234 379 380
f 235 380 381
f 236 381 383
f 238 383 386
f 239 384 378
f 262 390 385
f 240 385 384
f 241 386 387
f 242 387 388
f 245 388 389
f 246 389 395
f 263 391 390
f 264 392 391
f 265 393 392
f 266 394 393
f 267 395 396
f 268 396 398
f 271 398 397
f 270 397 399
f 272 399 407
f 274 400 394
f 275 401 400
f 276 402 401
f 277 403 402
f 278 404 403
f 279 405 406
f 280 406 404
f 282 407 408
f 283 408 405
f 377 378 400
f 382 377 401
f 382 402 379
f 380 379 403
f 380 404 381
f 381 406 383
f 383 405 386
f 385 390 392
f 378 384 394
f 384 385 393
f 390 391 392
f 385 392 393
f 384 393 394
f 378 394 400
f 377 400 401
f 382 401 402
f 379 402 403
f 380 403 404
f 381 404 406
f 383 406 405
f 386 408 387
f 387 407 388
f 388 399 389
f 389 397 395
f 389 399 397
f 395 398 396
f 395 397 398
f 387 408 407
f 388 407 399
f 386 405 408
f 216 205 228
f 205 208 228
f 206 208 205
f 206 205 250
f 216 251 205
f 206 207 209
f 207 248 210
f 206 209 208
f 207 210 209
f 209 254 208
f 228 208 255
f 213 211 225
f 212 223 211
f 213 226 214
f 214 227 215
f 212 216 224
f 211 223 225
f 212 224 223
f 213 225 226
f 214 226 227
f 216 228 224
f 215 229 217
f 217 230 218
f 218 231 219
f 219 243 220
f 215 227 229
f 217 229 230
f 218 230 231
f 219 231 243
f 212 211 287
f 212 258 216
f 213 288 211
f 213 214 289
f 214 215 291
f 220 244 221
f 215 217 290
f 217 218 293
f 218 219 292
f 219 220 260
f 221 247 222
f 220 243 244
f 221 244 247
f 222 247 269
f 225 234 226
f 226 235 227
f 225 223 232
f 224 240 223
f 225 237 234
f 226 234 235
f 225 232 237
f 227 235 236
f 227 236 238
f 227 238 229
f 229 242 230
f 229 238 241
f 223 233 232
f 223 239 233
f 223 240 239
f 224 262 240
f 224 263 262
f 224 228 281
f 229 241 242
f 230 242 245
f 230 245 246
f 230 246 267
f 230 267 268
f 230 299 231
f 231 285 243
f 206 249 207
f 207 249 248
f 206 250 249
f 248 249 252
f 205 251 250
f 216 258 251
f 249 250 253
f 210 248 252
f 249 253 252
f 250 254 253
f 250 251 254
f 251 258 255
f 254 251 255
f 258 281 255
f 209 210 253
f 210 252 253
f 209 253 254
f 208 254 255
f 228 255 281
f 212 287 258
f 211 288 287
f 213 289 288
f 220 221 261
f 221 222 259
f 222 256 257
f 222 269 256
f 218 292 293
f 219 260 292
f 221 259 261
f 222 257 259
f 220 261 260
f 256 273 257
f 257 284 259
f 256 269 273
f 257 273 284
f 214 291 289
f 215 290 291
f 258 287 281
f 217 293 290
f 259 286 261
f 261 285 260
f 259 284 286
f 260 285 299
f 261 286 285
f 224 294 263
f 224 281 294
f 263 294 264
f 230 268 299
f 243 286 244
f 244 284 247
f 247 273 269
f 268 271 299
f 231 299 285
f 244 286 284
f 247 284 273
f 243 285 286
f 264 294 265
f 265 294 266
f 266 294 274
f 274 295 275
f 275 295 276
f 274 294 295
f 276 296 277
f 283 279 297
f 280 297 279
f 277 296 278
f 278 298 280
f 271 270 299
f 270 272 300
f 272 282 300
f 283 300 282
f 270 300 299
f 287 288 294
f 288 289 295
f 289 291 296
f 291 290 298
f 281 287 294
f 288 295 294
f 289 296 295
f 290 297 298
f 291 298 296
f 260 299 292
f 293 292 300
f 290 293 297
f 292 299 300
f 293 300 297
f 276 295 296
f 278 296 298
f 280 298 297
f 283 297 300
f 301 316 337
f 301 302 308
f 301 307 303
f 301 305 307
f 301 303 304
f 301 306 305
f 301 308 306
f 301 338 302
f 302 309 308
f 302 312 309
f 302 313 312
f 301 304 310
f 301 310 311
f 301 311 317
f 301 317 318
f 302 314 313
f 302 315 314
f 302 322 315
f 302 323 322
f 302 360 324
f 301 373 316
f 316 373 352
f 301 318 373
f 302 374 323
f 302 324 374
f 318 319 373
f 319 320 373
f 320 321 373
f 321 328 373
f 328 329 373
f 329 330 373
f 330 331 373
f 331 332 374
f 332 333 374
f 323 374 325
f 325 374 326
f 326 374 327
f 327 374 335
f 335 374 336
f 334 336 374
f 333 334 374
f 324 376 374
f 316 352 337
f 301 337 338
f 302 338 360
f 337 344 338
f 337 339 343
f 337 343 341
f 337 340 339
f 337 341 342
f 337 342 344
f 338 344 345
f 338 345 348
f 338 348 349
f 337 346 340
f 337 347 346
f 337 353 347
f 337 354 353
f 338 349 350
f 338 350 351
f 338 351 358
f 338 358 359
f 352 373 375
f 337 352 375
f 324 360 376
f 337 375 354
f 338 359 376
f 338 376 360
f 354 375 355
f 355 375 356
f 356 375 357
f 357 375 364
f 364 375 365
f 365 375 366
f 366 375 367
f 367 376 368
f 368 376 369
f 359 361 376
f 361 362 376
f 362 363 376
f 363 371 376
f 371 372 376
f 370 376 372
f 369 376 370
f 331 374 373
f 373 374 375
f 374 376 375
f 367 375 376
f 303 307 343
f 303 339 304
f 304 340 310
f 305 306 342
f 305 341 307
f 306 308 344
f 308 309 345
f 310 346 311
f 311 347 317
f 309 312 348
f 312 313 349
f 313 314 350
f 314 315 351
f 315 322 358
f 317 353 318
f 318 354 319
f 319 355 320
f 320 356 321
f 322 323 359
f 323 325 361
f 325 326 362
f 326 327 363
f 321 357 328
f 328 364 329
f 329 365 330
f 330 366 331
f 331 367 332
f 334 370 336
f 332 368 333
f 333 369 334
f 327 335 371
f 335 336 372
f 303 343 339
f 304 339 340
f 305 342 341
f 307 341 343
f 306 344 342
f 308 345 344
f 309 348 345
f 310 340 346
f 311 346 347
f 317 347 353
f 312 349 348
f 313 350 349
f 314 351 350
f 315 358 351
f 318 353 354
f 319 354 355
f 320 355 356
f 321 356 357
f 322 359 358
f 323 361 359
f 325 362 361
f 326 363 362
f 328 357 364
f 329 364 365
f 330 365 366
f 331 366 367
f 332 367 368
f 333 368 369
f 334 369 370
f 327 371 363
f 335 372 371
f 336 370 372
f 642 643 785
f 643 654 786
f 644 788 645
f 646 787 644
f 646 642 789
f 645 790 647
f 647 791 648
f 648 792 651
f 651 793 652
f 654 656 794
f 656 655 796
f 655 657 795
f 657 658 797
f 652 799 659
f 659 800 660
f 660 801 661
f 661 802 663
f 663 803 664
f 658 684 798
f 684 685 804
f 685 686 805
f 686 687 806
f 687 688 807
f 697 809 689
f 688 690 808
f 690 691 810
f 691 692 811
f 692 689 812
f 664 813 693
f 693 814 694
f 694 815 696
f 697 696 816
f 642 785 789
f 643 786 785
f 644 787 788
f 646 789 787
f 645 788 790
f 647 790 791
f 648 791 792
f 651 792 793
f 652 793 799
f 654 794 786
f 656 796 794
f 655 795 796
f 657 797 795
f 658 798 797
f 659 799 800
f 660 800 801
f 661 801 802
f 663 802 803
f 684 804 798
f 685 805 804
f 686 806 805
f 687 807 806
f 688 808 807
f 690 810 808
f 691 811 810
f 692 812 811
f 689 809 812
f 693 813 814
f 664 803 813
f 694 814 815
f 696 815 816
f 697 816 809
f 789 785 807
f 786 794 805
f 785 786 806
f 789 808 787
f 787 810 788
f 788 811 790
f 790 812 791
f 791 809 792
f 796 795 798
f 795 797 798
f 794 796 804
f 796 798 804
f 794 804 805
f 786 805 806
f 785 806 807
f 792 816 793
f 793 815 799
f 799 814 800
f 800 813 801
f 801 803 802
f 800 814 813
f 799 815 814
f 801 813 803
f 789 807 808
f 787 808 810
f 788 810 811
f 790 811 812
f 791 812 809
f 792 809 816
f 793 816 815
f 616 620 613
f 616 614 623
f 615 621 614
f 615 635 622
f 613 624 617
f 613 620 624
f 614 621 623
f 615 622 621
f 616 623 620
f 617 625 618
f 618 626 619
f 617 624 625
f 618 625 626
f 619 626 649
f 623 621 642
f 623 644 620
f 620 645 624
f 624 648 625
f 635 627 641
f 628 631 627
f 627 631 641
f 628 632 631
f 635 668 627
f 628 666 629
f 628 627 667
f 628 629 632
f 629 630 633
f 629 666 630
f 628 667 666
f 627 668 667
f 630 666 634
f 629 633 632
f 630 634 633
f 641 631 671
f 632 633 669
f 632 670 631
f 633 634 669
f 632 669 670
f 631 670 671
f 616 677 614
f 616 613 678
f 613 617 679
f 622 635 641
f 619 649 636
f 636 650 637
f 637 653 638
f 636 649 650
f 637 650 653
f 615 675 635
f 615 614 676
f 617 618 680
f 618 619 683
f 619 636 682
f 636 637 681
f 637 638 674
f 638 662 639
f 638 639 673
f 639 640 672
f 639 672 673
f 639 665 640
f 638 653 662
f 639 662 665
f 640 665 695
f 622 656 621
f 621 643 642
f 620 644 645
f 624 645 647
f 623 646 644
f 623 642 646
f 624 647 648
f 621 654 643
f 621 656 654
f 622 655 656
f 625 652 626
f 625 648 651
f 625 651 652
f 626 652 659
f 626 659 660
f 626 660 661
f 622 641 700
f 622 657 655
f 622 701 657
f 626 661 663
f 626 707 649
f 649 706 650
f 650 699 653
f 626 663 707
f 653 698 662
f 662 695 665
f 662 698 695
f 635 675 668
f 666 667 669
f 667 668 670
f 634 666 669
f 667 670 669
f 670 668 671
f 668 675 671
f 675 700 671
f 641 671 700
f 615 676 675
f 614 677 676
f 616 678 677
f 613 679 678
f 617 680 679
f 618 683 680
f 636 681 682
f 619 682 683
f 637 674 681
f 638 673 674
f 640 695 672
f 672 698 673
f 673 699 674
f 672 695 698
f 673 698 699
f 675 676 700
f 676 677 701
f 677 678 702
f 678 679 703
f 679 680 704
f 676 701 700
f 677 702 701
f 678 703 702
f 679 704 703
f 680 705 704
f 681 707 682
f 674 706 681
f 683 682 708
f 680 683 705
f 681 706 707
f 674 699 706
f 682 707 708
f 683 708 705
f 622 700 701
f 657 701 658
f 658 701 684
f 684 701 685
f 685 701 686
f 686 702 687
f 649 707 706
f 663 664 707
f 650 706 699
f 653 699 698
f 664 693 707
f 693 694 708
f 694 696 708
f 697 708 696
f 687 702 688
f 686 701 702
f 688 702 703
f 688 703 690
f 690 703 691
f 697 689 705
f 691 704 692
f 692 705 689
f 691 703 704
f 692 704 705
f 693 708 707
f 697 705 708
f 709 710 719
f 709 712 710
f 709 711 712
f 711 755 712
f 709 713 711
f 709 747 713
f 709 717 716
f 709 715 723
f 709 716 714
f 709 714 715
f 709 718 717
f 709 719 718
f 709 723 724
f 709 724 725
f 709 725 726
f 710 720 719
f 710 721 720
f 710 722 721
f 710 728 722
f 710 729 728
f 710 730 729
f 710 731 730
f 710 769 733
f 709 726 747
f 710 748 731
f 710 733 748
f 713 747 749
f 726 727 747
f 727 734 747
f 734 735 747
f 735 736 747
f 731 748 732
f 732 748 743
f 744 748 745
f 743 748 744
f 736 737 747
f 737 738 747
f 738 739 747
f 739 740 748
f 740 742 748
f 739 748 747
f 747 748 783
f 745 748 746
f 741 748 742
f 741 746 748
f 733 784 748
f 711 713 749
f 711 749 783
f 710 712 769
f 711 752 753
f 711 759 751
f 711 750 752
f 711 751 750
f 711 753 754
f 711 754 755
f 711 760 759
f 711 761 760
f 711 762 761
f 712 755 756
f 712 756 757
f 712 757 758
f 712 758 764
f 712 764 765
f 712 765 766
f 712 766 767
f 711 783 762
f 712 767 784
f 712 784 769
f 747 783 749
f 733 769 784
f 748 784 783
f 762 783 763
f 763 783 770
f 770 783 771
f 771 783 772
f 767 768 784
f 768 779 784
f 780 781 784
f 779 780 784
f 772 783 773
f 773 783 774
f 774 783 775
f 775 784 776
f 776 784 778
f 775 783 784
f 781 782 784
f 777 778 784
f 777 784 782
f 714 716 752
f 714 750 715
f 715 751 723
f 716 717 753
f 717 718 754
f 718 719 755
f 719 720 756
f 720 721 757
f 721 722 758
f 722 728 764
f 723 759 724
f 724 760 725
f 725 761 726
f 726 762 727
f 728 729 765
f 729 730 766
f 730 731 767
f 731 732 768
f 727 763 734
f 734 770 735
f 735 771 736
f 736 772 737
f 737 773 738
f 738 774 739
f 739 775 740
f 741 777 746
f 741 742 778
f 740 776 742
f 732 743 779
f 743 744 780
f 744 745 781
f 745 746 782
f 714 752 750
f 715 750 751
f 723 751 759
f 716 753 752
f 717 754 753
f 718 755 754
f 719 756 755
f 720 757 756
f 721 758 757
f 722 764 758
f 724 759 760
f 725 760 761
f 726 761 762
f 727 762 763
f 728 765 764
f 729 766 765
f 730 767 766
f 731 768 767
f 734 763 770
f 735 770 771
f 736 771 772
f 737 772 773
f 738 773 774
f 739 774 775
f 740 775 776
f 741 778 777
f 742 776 778
f 732 779 768
f 743 780 779
f 744 781 780
f 745 782 781
f 746 777 782

