# https://github.com/mikedh/trimesh
v 0.03550000 -0.05800000 0.07146723
v 0.03550000 -0.05800000 0.07150000
v 0.03704137 -0.05800000 0.07100000
v 0.03550000 -0.05300000 0.06700000
v 0.03550000 -0.05300000 0.07150000
v 0.03894918 -0.05800000 0.07150000
v 0.03924264 -0.05800000 0.07124264
v 0.03945543 -0.05800000 0.07100000
v 0.03950000 -0.05300000 0.06700000
v 0.03894918 -0.05300000 0.07150000
v 0.03924264 -0.05300000 0.07124264
v 0.03950000 -0.05300000 0.07094918
f 3 2 1
f 2 4 1
f 4 3 1
f 7 2 3
f 5 2 6
f 4 9 3
f 5 9 4
f 2 5 4
f 2 7 6
f 7 3 8
f 8 3 9
f 6 7 11
f 12 7 8
f 5 6 10
f 9 5 11
f 11 5 10
f 9 12 8
f 6 11 10
f 11 7 12
f 9 11 12

