# https://github.com/mikedh/trimesh
v -0.07854328 -0.06229610 -0.03900000
v -0.07854328 -0.06229610 -0.02100000
v -0.07879555 -0.06155291 -0.03900000
v -0.07894867 -0.06078316 -0.03900000
v -0.07900000 -0.06000000 -0.03900000
v -0.07879555 -0.06155291 -0.02100000
v -0.07894867 -0.06078316 -0.02100000
v -0.07900000 -0.06000000 -0.02100000
v -0.07819615 -0.06300000 -0.03900000
v -0.07776012 -0.06365257 -0.03900000
v -0.07750000 -0.06394918 -0.03900000
v -0.07819615 -0.06300000 -0.02100000
v -0.07776012 -0.06365257 -0.02100000
v -0.07750000 -0.06394918 -0.02100000
v -0.07750000 -0.06000000 -0.03900000
v -0.07750000 -0.06000000 -0.02100000
f 3 1 2
f 5 11 1
f 12 1 9
f 2 1 12
f 5 1 3
f 3 7 4
f 5 3 4
f 7 5 4
f 7 3 6
f 3 2 6
f 2 8 7
f 2 7 6
f 8 5 7
f 16 5 8
f 2 16 8
f 1 11 9
f 13 9 10
f 9 11 10
f 11 13 10
f 12 9 13
f 14 2 12
f 11 14 13
f 14 12 13
f 11 16 14
f 2 14 16
f 11 5 15
f 5 16 15
f 16 11 15

