# https://github.com/mikedh/trimesh
v 0.03550000 -0.06596723 0.03700000
v 0.03578316 -0.06594867 0.03700000
v 0.03655291 -0.06579555 0.03700000
v 0.03550000 -0.06596723 0.06550000
v 0.03578316 -0.06594867 0.06550000
v 0.03655291 -0.06579555 0.06550000
v 0.03550000 -0.06450000 0.03700000
v 0.03550000 -0.06450000 0.06550000
v 0.03729610 -0.06554328 0.03700000
v 0.03729610 -0.06554328 0.06550000
v 0.03800000 -0.06519615 0.03700000
v 0.03865257 -0.06476012 0.03700000
v 0.03894918 -0.06450000 0.03700000
v 0.03800000 -0.06519615 0.06550000
v 0.03865257 -0.06476012 0.06550000
v 0.03894918 -0.06450000 0.06550000
f 1 3 2
f 4 1 2
f 3 6 2
f 1 4 7
f 1 9 3
f 6 3 9
f 4 2 5
f 2 6 5
f 6 4 5
f 6 9 10
f 14 4 6
f 13 1 7
f 13 7 8
f 7 4 8
f 8 4 14
f 1 13 9
f 14 9 11
f 9 14 10
f 14 6 10
f 9 13 11
f 14 11 12
f 12 11 13
f 13 16 12
f 13 8 16
f 8 14 16
f 14 12 15
f 12 16 15
f 16 14 15

