# https://github.com/mikedh/trimesh
v -0.02500000 -0.06600000 0.06700000
v -0.02500000 -0.06594867 0.06778316
v -0.02500000 -0.06579555 0.06855291
v -0.02500000 -0.06554328 0.06929610
v -0.02500000 -0.06450000 0.06700000
v -0.02500000 -0.06519615 0.07000000
v -0.02500000 -0.06476012 0.07065257
v -0.02500000 -0.06450000 0.07094918
v 0.00000000 -0.06600000 0.06700000
v 0.00000000 -0.06594867 0.06778316
v 0.00000000 -0.06579555 0.06855291
v 0.00000000 -0.06554328 0.06929610
v 0.00000000 -0.06450000 0.06700000
v 0.00000000 -0.06519615 0.07000000
v 0.00000000 -0.06476012 0.07065257
v 0.00000000 -0.06450000 0.07094918
f 4 1 2
f 4 2 3
f 4 5 1
f 1 10 2
f 2 11 3
f 11 4 3
f 5 9 1
f 6 4 12
f 8 4 6
f 8 5 4
f 8 6 7
f 7 6 14
f 8 16 5
f 16 8 7
f 1 9 10
f 10 11 2
f 9 12 10
f 10 12 11
f 12 4 11
f 6 12 14
f 9 16 12
f 9 5 13
f 5 16 13
f 16 9 13
f 7 14 15
f 16 7 15
f 14 12 16
f 14 16 15

