# https://github.com/mikedh/trimesh
v -0.07635845 -0.06205278 0.07150000
v -0.07505278 -0.06335845 0.07150000
v -0.07595579 -0.06259780 0.07150000
v -0.07559780 -0.06295579 0.07150000
v -0.07557860 -0.06257860 0.07176463
v -0.07654765 -0.06172094 0.07150000
v -0.07631905 -0.06171807 0.07169384
v -0.07687824 -0.06083776 0.07150000
v -0.07688008 -0.06083125 0.07150000
v -0.07688137 -0.06082106 0.07150000
v -0.07687689 -0.06083125 0.07150320
v -0.07694918 -0.06000000 0.07150000
v -0.07665257 -0.06000000 0.07176012
v -0.07616854 -0.06082715 0.07202754
v -0.07600000 -0.06000000 0.07219615
v -0.07550102 -0.06169151 0.07218495
v -0.07540237 -0.06081940 0.07243665
v -0.07529610 -0.06000000 0.07254328
v -0.07472094 -0.06354765 0.07150000
v -0.07471807 -0.06331905 0.07169384
v -0.07469151 -0.06250102 0.07218495
v -0.07383776 -0.06387824 0.07150000
v -0.07383125 -0.06388008 0.07150000
v -0.07383125 -0.06387689 0.07150320
v -0.07382106 -0.06388137 0.07150000
v -0.07300000 -0.06394918 0.07150000
v -0.07300000 -0.06365257 0.07176012
v -0.07382715 -0.06316854 0.07202754
v -0.07300000 -0.06300000 0.07219615
v -0.07381940 -0.06240237 0.07243665
v -0.07300000 -0.06229610 0.07254328
v -0.07300000 -0.06000000 0.07150000
v -0.07465169 -0.06165169 0.07252665
v -0.07460378 -0.06080881 0.07272483
v -0.07455291 -0.06000000 0.07279555
v -0.07380881 -0.06160378 0.07272483
v -0.07300000 -0.06155291 0.07279555
v -0.07379637 -0.06079637 0.07289335
v -0.07378316 -0.06000000 0.07294867
v -0.07300000 -0.06078316 0.07294867
v -0.07300000 -0.06000000 0.07300000
f 6 3 1
f 3 7 1
f 3 19 4
f 4 19 2
f 20 4 2
f 3 4 5
f 7 3 5
f 5 4 20
f 12 26 3
f 16 7 5
f 5 20 21
f 5 21 16
f 9 6 8
f 6 11 8
f 11 6 7
f 12 3 6
f 7 6 1
f 14 11 7
f 16 14 7
f 11 9 8
f 11 10 9
f 12 6 9
f 12 9 10
f 11 13 10
f 11 14 13
f 13 12 10
f 13 15 12
f 14 15 13
f 18 12 15
f 14 16 17
f 15 14 17
f 33 17 16
f 18 15 17
f 18 17 34
f 41 12 18
f 19 20 2
f 3 26 19
f 20 19 24
f 19 23 22
f 24 19 22
f 24 28 20
f 20 28 21
f 28 30 21
f 23 24 22
f 24 23 25
f 19 26 23
f 23 26 25
f 26 24 25
f 28 24 27
f 24 26 27
f 26 29 27
f 27 29 28
f 26 31 29
f 30 28 29
f 21 30 33
f 31 36 30
f 31 30 29
f 26 41 31
f 26 12 32
f 12 41 32
f 41 26 32
f 16 21 33
f 34 17 33
f 36 33 30
f 36 34 33
f 38 34 36
f 18 34 35
f 39 18 35
f 34 38 35
f 38 39 35
f 18 39 41
f 38 36 37
f 36 31 37
f 31 40 37
f 37 40 38
f 31 41 40
f 38 40 39
f 41 39 40

