# https://github.com/mikedh/trimesh
v -0.05000000 0.06000000 0.07150000
v -0.05000000 0.06450000 0.06700000
v -0.05000000 0.06394918 0.07150000
v -0.05000000 0.06450000 0.07094918
v -0.05000000 0.06424264 0.07124264
v -0.02500000 0.06000000 0.07150000
v -0.02500000 0.06450000 0.06700000
v -0.02500000 0.06394918 0.07150000
v -0.02500000 0.06450000 0.07094918
v -0.02500000 0.06424264 0.07124264
f 2 7 1
f 2 1 5
f 5 1 3
f 2 5 4
f 1 8 3
f 9 2 4
f 8 5 3
f 5 9 4
f 7 6 1
f 1 6 8
f 7 2 9
f 10 5 8
f 5 10 9
f 6 7 10
f 6 10 8
f 10 7 9

