# https://github.com/mikedh/trimesh
v -0.07529610 -0.06554328 -0.03900000
v -0.07540237 -0.06543665 -0.03981940
v -0.07635845 -0.06450000 -0.04105278
v -0.07505278 -0.06450000 -0.04235845
v -0.07557860 -0.06476463 -0.04157860
v -0.07595579 -0.06450000 -0.04159780
v -0.07559780 -0.06450000 -0.04195579
v -0.07600000 -0.06519615 -0.03900000
v -0.07616854 -0.06502754 -0.03982715
v -0.07654765 -0.06450000 -0.04072094
v -0.07631905 -0.06469384 -0.04071807
v -0.07665257 -0.06476012 -0.03900000
v -0.07687824 -0.06450000 -0.03983776
v -0.07688008 -0.06450000 -0.03983125
v -0.07688137 -0.06450000 -0.03982106
v -0.07687689 -0.06450320 -0.03983125
v -0.07694918 -0.06450000 -0.03900000
v -0.07550102 -0.06518495 -0.04069151
v -0.07381940 -0.06543665 -0.04140237
v -0.07300000 -0.06554328 -0.04129610
v -0.07460378 -0.06572483 -0.03980881
v -0.07455291 -0.06579555 -0.03900000
v -0.07465169 -0.06552665 -0.04065169
v -0.07380881 -0.06572483 -0.04060378
v -0.07300000 -0.06579555 -0.04055291
v -0.07379637 -0.06589335 -0.03979637
v -0.07378316 -0.06594867 -0.03900000
v -0.07300000 -0.06594867 -0.03978316
v -0.07300000 -0.06600000 -0.03900000
v -0.07469151 -0.06518495 -0.04150102
v -0.07471807 -0.06469384 -0.04231905
v -0.07472094 -0.06450000 -0.04254765
v -0.07382715 -0.06502754 -0.04216854
v -0.07300000 -0.06519615 -0.04200000
v -0.07383776 -0.06450000 -0.04287824
v -0.07383125 -0.06450320 -0.04287689
v -0.07383125 -0.06450000 -0.04288008
v -0.07382106 -0.06450000 -0.04288137
v -0.07300000 -0.06476012 -0.04265257
v -0.07300000 -0.06450000 -0.04294918
v -0.07300000 -0.06450000 -0.03900000
f 23 2 18
f 1 8 2
f 1 2 21
f 29 17 1
f 10 6 3
f 5 11 3
f 6 5 3
f 18 11 5
f 5 31 30
f 5 30 18
f 6 32 7
f 31 7 4
f 7 32 4
f 6 7 5
f 5 7 31
f 17 40 6
f 18 9 11
f 1 17 8
f 9 8 12
f 10 13 14
f 10 11 13
f 17 6 10
f 11 16 13
f 9 16 11
f 11 10 3
f 16 9 12
f 12 8 17
f 16 14 13
f 14 16 15
f 17 10 14
f 17 14 15
f 16 17 15
f 17 16 12
f 9 18 2
f 8 9 2
f 30 19 23
f 20 24 19
f 20 19 34
f 40 29 20
f 24 21 23
f 26 21 24
f 1 21 22
f 27 1 22
f 26 27 22
f 1 27 29
f 21 26 22
f 21 2 23
f 18 30 23
f 24 23 19
f 26 24 25
f 25 28 26
f 20 29 28
f 24 20 25
f 20 28 25
f 26 28 27
f 29 27 28
f 31 33 30
f 33 19 30
f 32 31 4
f 6 40 32
f 36 33 31
f 31 32 36
f 32 37 35
f 36 32 35
f 40 20 34
f 39 34 33
f 19 33 34
f 33 36 39
f 37 36 35
f 36 37 38
f 32 40 37
f 37 40 38
f 40 36 38
f 40 34 39
f 36 40 39
f 17 29 41
f 40 17 41
f 29 40 41

