# https://github.com/mikedh/trimesh
v 0.03550000 0.06000000 0.07150000
v 0.03550000 0.06000000 0.07296723
v 0.03550000 0.06028316 0.07294867
v 0.03578316 0.06000000 0.07294867
v 0.03550000 0.06079145 0.07291394
v 0.03579637 0.06079637 0.07289335
v 0.03550000 0.06107792 0.07285696
v 0.03550000 0.06158436 0.07275184
v 0.03550000 0.06186811 0.07265551
v 0.03580881 0.06160378 0.07272483
v 0.03655291 0.06000000 0.07279555
v 0.03660378 0.06080881 0.07272483
v 0.03665169 0.06165169 0.07252665
v 0.03550000 0.06390789 0.07150000
v 0.03550000 0.06378750 0.07160558
v 0.03582106 0.06388137 0.07150000
v 0.03583125 0.06387689 0.07150320
v 0.03583125 0.06388008 0.07150000
v 0.03583776 0.06387824 0.07150000
v 0.03550000 0.06335998 0.07192177
v 0.03582715 0.06316854 0.07202754
v 0.03550000 0.06310188 0.07209423
v 0.03669151 0.06250102 0.07218495
v 0.03671807 0.06331905 0.07169384
v 0.03672094 0.06354765 0.07150000
v 0.03705278 0.06335845 0.07150000
v 0.03550000 0.06236095 0.07247821
v 0.03581940 0.06240237 0.07243665
v 0.03550000 0.06263533 0.07234290
v 0.03800000 0.06000000 0.07219615
v 0.03750102 0.06169151 0.07218495
v 0.03894918 0.06000000 0.07150000
v 0.03865257 0.06000000 0.07176012
v 0.03888137 0.06082106 0.07150000
v 0.03888008 0.06083125 0.07150000
v 0.03887689 0.06083125 0.07150320
v 0.03887824 0.06083776 0.07150000
v 0.03816854 0.06082715 0.07202754
v 0.03831905 0.06171807 0.07169384
v 0.03854765 0.06172094 0.07150000
v 0.03729610 0.06000000 0.07254328
v 0.03740237 0.06081940 0.07243665
v 0.03757860 0.06257860 0.07176463
v 0.03795579 0.06259780 0.07150000
v 0.03759780 0.06295579 0.07150000
v 0.03835845 0.06205278 0.07150000
f 2 14 1
f 32 2 1
f 14 32 1
f 2 4 3
f 5 2 3
f 4 5 3
f 7 2 5
f 6 5 4
f 6 7 5
f 2 11 4
f 11 6 4
f 11 12 6
f 10 13 28
f 27 2 7
f 7 6 8
f 6 10 8
f 27 7 8
f 8 10 9
f 27 8 9
f 10 27 9
f 12 10 6
f 13 10 12
f 12 41 42
f 2 41 11
f 41 12 11
f 31 13 42
f 42 13 12
f 13 31 23
f 22 28 21
f 23 21 28
f 17 14 15
f 14 20 15
f 20 17 15
f 14 17 16
f 19 14 16
f 16 17 18
f 19 16 18
f 17 19 18
f 14 22 20
f 21 17 20
f 25 14 19
f 17 25 19
f 21 24 17
f 14 27 22
f 22 21 20
f 23 43 24
f 44 14 25
f 24 25 17
f 25 24 26
f 45 25 26
f 24 45 26
f 24 21 23
f 14 2 27
f 10 28 27
f 22 27 29
f 28 22 29
f 27 28 29
f 13 23 28
f 41 32 30
f 30 38 42
f 31 38 39
f 42 38 31
f 33 32 36
f 30 32 33
f 36 32 34
f 32 35 34
f 32 40 35
f 35 36 34
f 36 35 37
f 38 33 36
f 38 30 33
f 32 44 40
f 36 39 38
f 39 40 46
f 36 40 39
f 40 36 37
f 35 40 37
f 2 32 41
f 41 30 42
f 32 14 44
f 44 43 39
f 43 44 45
f 31 43 23
f 31 39 43
f 44 25 45
f 24 43 45
f 40 44 46
f 44 39 46

