# https://github.com/mikedh/trimesh
v -0.07724264 -0.06424264 0.03700000
v -0.07750000 -0.06394918 0.03700000
v -0.07694918 -0.06450000 0.03700000
v -0.07724264 -0.06424264 0.06550000
v -0.07750000 -0.06394918 0.06550000
v -0.07694918 -0.06450000 0.06550000
v -0.07750000 -0.06000000 0.03700000
v -0.07750000 -0.06000000 0.06550000
v -0.07300000 -0.06450000 0.03700000
v -0.07300000 -0.06450000 0.06550000
f 4 2 1
f 4 1 3
f 7 1 2
f 1 9 3
f 7 9 1
f 2 4 5
f 4 3 6
f 8 2 5
f 4 8 5
f 3 10 6
f 10 4 6
f 10 8 4
f 8 7 2
f 9 7 8
f 3 9 10
f 9 8 10

