# https://github.com/mikedh/trimesh
v -0.07529610 -0.06554328 0.03700000
v -0.07529610 -0.06554328 0.06550000
v -0.07600000 -0.06519615 0.03700000
v -0.07665257 -0.06476012 0.03700000
v -0.07694918 -0.06450000 0.03700000
v -0.07600000 -0.06519615 0.06550000
v -0.07665257 -0.06476012 0.06550000
v -0.07694918 -0.06450000 0.06550000
v -0.07455291 -0.06579555 0.03700000
v -0.07378316 -0.06594867 0.03700000
v -0.07300000 -0.06600000 0.03700000
v -0.07455291 -0.06579555 0.06550000
v -0.07378316 -0.06594867 0.06550000
v -0.07300000 -0.06600000 0.06550000
v -0.07300000 -0.06450000 0.03700000
v -0.07300000 -0.06450000 0.06550000
f 2 1 9
f 5 11 1
f 3 1 2
f 3 2 6
f 5 1 3
f 3 6 4
f 5 3 4
f 8 5 4
f 4 6 7
f 2 8 6
f 8 4 7
f 6 8 7
f 16 5 8
f 2 16 8
f 9 1 11
f 9 10 12
f 9 11 10
f 11 14 10
f 2 9 12
f 12 10 13
f 14 2 12
f 10 14 13
f 14 12 13
f 11 16 14
f 16 2 14
f 11 5 15
f 5 16 15
f 16 11 15

