# https://github.com/mikedh/trimesh
v -0.07900000 -0.02500000 0.06700000
v -0.07894867 -0.02500000 0.06778316
v -0.07879555 -0.02500000 0.06855291
v -0.07854328 -0.02500000 0.06929610
v -0.07900000 -0.02000000 0.06700000
v -0.07894867 -0.02000000 0.06778316
v -0.07879555 -0.02000000 0.06855291
v -0.07854328 -0.02000000 0.06929610
v -0.07750000 -0.02500000 0.06700000
v -0.07819615 -0.02500000 0.07000000
v -0.07776012 -0.02500000 0.07065257
v -0.07750000 -0.02500000 0.07094918
v -0.07750000 -0.02000000 0.06700000
v -0.07819615 -0.02000000 0.07000000
v -0.07776012 -0.02000000 0.07065257
v -0.07750000 -0.02000000 0.07094918
f 1 4 2
f 2 4 3
f 5 1 2
f 7 2 3
f 4 7 3
f 1 5 9
f 1 12 4
f 14 4 10
f 5 2 6
f 2 7 6
f 7 5 6
f 14 5 7
f 7 4 8
f 4 14 8
f 14 7 8
f 12 1 9
f 12 9 13
f 4 12 10
f 14 10 11
f 11 10 12
f 12 16 11
f 9 5 13
f 13 5 14
f 14 11 15
f 12 13 16
f 11 16 15
f 13 14 16
f 16 14 15

