# https://github.com/mikedh/trimesh
v 0.02000000 -0.06600000 0.06700000
v 0.02000000 -0.06594867 0.06778316
v 0.02000000 -0.06579555 0.06855291
v 0.02000000 -0.06554328 0.06929610
v 0.02000000 -0.06450000 0.06700000
v 0.02000000 -0.06519615 0.07000000
v 0.02000000 -0.06476012 0.07065257
v 0.02000000 -0.06450000 0.07094918
v 0.02500000 -0.06600000 0.06700000
v 0.02500000 -0.06594867 0.06778316
v 0.02500000 -0.06579555 0.06855291
v 0.02500000 -0.06554328 0.06929610
v 0.02500000 -0.06450000 0.06700000
v 0.02500000 -0.06519615 0.07000000
v 0.02500000 -0.06476012 0.07065257
v 0.02500000 -0.06450000 0.07094918
f 4 1 2
f 4 2 3
f 1 9 2
f 2 11 3
f 11 4 3
f 9 1 5
f 8 1 4
f 4 14 6
f 1 8 5
f 5 8 13
f 8 4 6
f 8 6 7
f 7 6 14
f 16 8 7
f 2 9 10
f 11 2 10
f 9 11 10
f 9 14 11
f 4 11 12
f 14 4 12
f 11 14 12
f 9 5 13
f 13 14 9
f 7 14 15
f 13 8 16
f 16 7 15
f 14 13 16
f 14 16 15

