# https://github.com/mikedh/trimesh
v -0.07694918 0.06000000 0.07150000
v -0.07665257 0.06000000 0.07176012
v -0.07688137 0.06082106 0.07150000
v -0.07688008 0.06083125 0.07150000
v -0.07687689 0.06083125 0.07150320
v -0.07687824 0.06083776 0.07150000
v -0.07600000 0.06000000 0.07219615
v -0.07616854 0.06082715 0.07202754
v -0.07654765 0.06172094 0.07150000
v -0.07631905 0.06171807 0.07169384
v -0.07550102 0.06169151 0.07218495
v -0.07529610 0.06000000 0.07254328
v -0.07540237 0.06081940 0.07243665
v -0.07635845 0.06205278 0.07150000
v -0.07595579 0.06259780 0.07150000
v -0.07559780 0.06295579 0.07150000
v -0.07557860 0.06257860 0.07176463
v -0.07505278 0.06335845 0.07150000
v -0.07300000 0.06000000 0.07150000
v -0.07455291 0.06000000 0.07279555
v -0.07460378 0.06080881 0.07272483
v -0.07465169 0.06165169 0.07252665
v -0.07378316 0.06000000 0.07294867
v -0.07379637 0.06079637 0.07289335
v -0.07300000 0.06000000 0.07300000
v -0.07300000 0.06078316 0.07294867
v -0.07380881 0.06160378 0.07272483
v -0.07300000 0.06155291 0.07279555
v -0.07469151 0.06250102 0.07218495
v -0.07471807 0.06331905 0.07169384
v -0.07472094 0.06354765 0.07150000
v -0.07383776 0.06387824 0.07150000
v -0.07383125 0.06387689 0.07150320
v -0.07383125 0.06388008 0.07150000
v -0.07382106 0.06388137 0.07150000
v -0.07300000 0.06394918 0.07150000
v -0.07300000 0.06365257 0.07176012
v -0.07382715 0.06316854 0.07202754
v -0.07300000 0.06300000 0.07219615
v -0.07381940 0.06240237 0.07243665
v -0.07300000 0.06229610 0.07254328
f 2 5 1
f 1 7 2
f 4 1 3
f 1 5 3
f 5 4 3
f 4 5 6
f 9 1 4
f 2 8 5
f 7 8 2
f 1 12 7
f 9 4 6
f 5 9 6
f 10 9 5
f 15 1 9
f 8 10 5
f 9 10 14
f 10 8 11
f 8 7 13
f 8 13 11
f 7 12 13
f 1 25 12
f 12 21 13
f 13 22 11
f 15 9 14
f 10 15 14
f 15 10 17
f 15 17 16
f 36 1 15
f 17 30 16
f 10 11 17
f 11 29 17
f 30 17 29
f 31 15 16
f 31 16 18
f 16 30 18
f 25 1 19
f 1 36 19
f 36 25 19
f 21 12 20
f 12 23 20
f 12 25 23
f 20 23 24
f 24 21 20
f 21 22 13
f 22 29 11
f 22 27 40
f 21 27 22
f 24 27 21
f 24 23 26
f 25 26 23
f 27 24 28
f 24 26 28
f 41 26 25
f 41 27 28
f 26 41 28
f 40 38 29
f 30 31 18
f 36 15 31
f 30 38 33
f 32 31 30
f 33 32 30
f 34 31 32
f 38 30 29
f 38 40 39
f 36 31 34
f 33 34 32
f 34 33 35
f 33 36 35
f 36 34 35
f 33 38 37
f 36 33 37
f 37 39 36
f 38 39 37
f 41 36 39
f 22 40 29
f 40 27 41
f 25 36 41
f 40 41 39

