# https://github.com/mikedh/trimesh
v -0.07694918 -0.05000000 0.07150000
v -0.07665257 -0.05000000 0.07176012
v -0.07600000 -0.05000000 0.07219615
v -0.07529610 -0.05000000 0.07254328
v -0.07694918 -0.02500000 0.07150000
v -0.07665257 -0.02500000 0.07176012
v -0.07600000 -0.02500000 0.07219615
v -0.07529610 -0.02500000 0.07254328
v -0.07300000 -0.05000000 0.07150000
v -0.07455291 -0.05000000 0.07279555
v -0.07378316 -0.05000000 0.07294867
v -0.07300000 -0.05000000 0.07300000
v -0.07300000 -0.02500000 0.07150000
v -0.07455291 -0.02500000 0.07279555
v -0.07378316 -0.02500000 0.07294867
v -0.07300000 -0.02500000 0.07300000
f 1 3 2
f 1 4 3
f 6 1 2
f 3 6 2
f 9 4 1
f 5 9 1
f 4 7 3
f 8 4 10
f 5 1 6
f 7 6 3
f 7 5 6
f 7 8 5
f 4 8 7
f 16 5 8
f 12 10 4
f 10 11 14
f 9 12 4
f 10 12 11
f 16 12 9
f 12 16 11
f 9 5 13
f 5 16 13
f 16 9 13
f 8 10 14
f 14 11 15
f 16 8 14
f 11 16 15
f 16 14 15

