# https://github.com/mikedh/trimesh
v -0.07750000 0.06000000 -0.03500000
v -0.07750000 0.06079795 -0.03580821
v -0.07750000 0.06000000 -0.02100000
v -0.07694918 0.06450000 -0.03900000
v -0.07750000 0.06394918 -0.03500000
v -0.07724264 0.06424264 -0.03500000
v -0.07750000 0.06394918 -0.02100000
v -0.07724264 0.06424264 -0.02100000
v -0.07694918 0.06450000 -0.02100000
v -0.07300000 0.06450000 -0.03500000
v -0.07300000 0.06450000 -0.02100000
f 1 5 2
f 1 3 5
f 10 1 2
f 1 11 3
f 2 5 4
f 4 5 6
f 5 8 6
f 8 4 6
f 4 10 2
f 5 3 7
f 3 8 7
f 8 5 7
f 4 8 9
f 3 11 8
f 11 4 9
f 8 11 9
f 11 1 10
f 4 11 10

