# https://github.com/mikedh/trimesh
v -0.07750000 0.06000000 0.01000000
v -0.07750000 0.06000000 0.02700000
v -0.07750000 0.06394918 0.01000000
v -0.07724264 0.06424264 0.01000000
v -0.07694918 0.06450000 0.01000000
v -0.07750000 0.06394918 0.02700000
v -0.07724264 0.06424264 0.02700000
v -0.07694918 0.06450000 0.02700000
v -0.07300000 0.06450000 0.01000000
v -0.07300000 0.06450000 0.02700000
f 1 2 3
f 9 2 1
f 1 3 4
f 4 3 6
f 4 8 5
f 9 1 4
f 9 4 5
f 8 9 5
f 3 2 6
f 2 8 6
f 4 6 7
f 8 4 7
f 6 8 7
f 8 2 10
f 2 9 10
f 9 8 10

