# https://github.com/mikedh/trimesh
v -0.05000000 0.06000000 0.07150000
v -0.05000000 0.06000000 0.07300000
v -0.05000000 0.06078316 0.07294867
v -0.05000000 0.06155291 0.07279555
v -0.05000000 0.06394918 0.07150000
v -0.05000000 0.06365257 0.07176012
v -0.05000000 0.06300000 0.07219615
v -0.05000000 0.06229610 0.07254328
v -0.02500000 0.06000000 0.07150000
v -0.02500000 0.06000000 0.07300000
v -0.02500000 0.06078316 0.07294867
v -0.02500000 0.06155291 0.07279555
v -0.02500000 0.06394918 0.07150000
v -0.02500000 0.06365257 0.07176012
v -0.02500000 0.06300000 0.07219615
v -0.02500000 0.06229610 0.07254328
f 2 5 1
f 9 2 1
f 5 9 1
f 4 2 3
f 4 8 2
f 2 10 3
f 4 3 11
f 5 7 6
f 5 8 7
f 13 5 6
f 7 15 6
f 5 2 8
f 7 8 16
f 16 8 4
f 2 9 10
f 3 10 11
f 11 12 4
f 16 4 12
f 9 16 10
f 10 12 11
f 10 16 12
f 9 5 13
f 13 6 14
f 6 15 14
f 16 9 13
f 15 13 14
f 16 13 15
f 7 16 15

