# https://github.com/mikedh/trimesh
v 0.03500000 0.06000000 0.07150000
v 0.03500000 0.06450000 0.06700000
v 0.03500000 0.06394918 0.07150000
v 0.03500000 0.06450000 0.07094918
v 0.03500000 0.06424264 0.07124264
v 0.03550000 0.06000000 0.07146723
v 0.03550000 0.06000000 0.07150000
v 0.03550000 0.06446723 0.06700000
v 0.03550000 0.06450000 0.06700000
v 0.03550000 0.06390789 0.07150000
v 0.03550000 0.06450000 0.07090789
v 0.03550000 0.06402264 0.07139937
v 0.03550000 0.06439937 0.07102264
f 1 2 6
f 3 1 7
f 2 1 5
f 5 1 3
f 2 5 4
f 11 2 4
f 5 3 12
f 5 11 4
f 1 6 7
f 6 12 7
f 6 2 8
f 8 2 9
f 2 11 9
f 11 8 9
f 3 7 10
f 12 3 10
f 11 5 13
f 5 12 13
f 11 6 8
f 7 12 10
f 6 11 12
f 12 11 13

