# https://github.com/mikedh/trimesh
v -0.05800000 0.06000000 0.07150000
v -0.05800000 0.06000000 0.07300000
v -0.05800000 0.06078316 0.07294867
v -0.05800000 0.06155291 0.07279555
v -0.05800000 0.06394918 0.07150000
v -0.05800000 0.06365257 0.07176012
v -0.05800000 0.06300000 0.07219615
v -0.05800000 0.06229610 0.07254328
v -0.05000000 0.06000000 0.07150000
v -0.05000000 0.06000000 0.07300000
v -0.05000000 0.06078316 0.07294867
v -0.05000000 0.06155291 0.07279555
v -0.05000000 0.06394918 0.07150000
v -0.05000000 0.06365257 0.07176012
v -0.05000000 0.06300000 0.07219615
v -0.05000000 0.06229610 0.07254328
f 1 2 8
f 4 2 3
f 2 4 8
f 10 2 1
f 2 10 3
f 4 3 12
f 1 8 5
f 5 7 6
f 5 8 7
f 13 1 5
f 13 5 6
f 7 14 6
f 8 15 7
f 16 8 4
f 10 1 9
f 1 13 9
f 13 10 9
f 3 10 11
f 12 3 11
f 16 4 12
f 10 12 11
f 10 16 12
f 14 13 6
f 15 14 7
f 15 13 14
f 15 16 13
f 8 16 15
f 10 13 16

