# https://github.com/mikedh/trimesh
v -0.07750000 0.06000000 0.06700000
v -0.07750000 0.06000000 0.07094918
v -0.07724264 0.06000000 0.07124264
v -0.07694918 0.06000000 0.07150000
v -0.07750000 0.06082106 0.07088137
v -0.07750000 0.06083125 0.07088008
v -0.07750000 0.06083776 0.07087824
v -0.07688137 0.06082106 0.07150000
v -0.07688008 0.06083125 0.07150000
v -0.07687824 0.06083776 0.07150000
v -0.07750000 0.06205278 0.07035845
v -0.07750000 0.06172094 0.07054765
v -0.07706301 0.06172741 0.07106301
v -0.07654765 0.06172094 0.07150000
v -0.07635845 0.06205278 0.07150000
v -0.07750000 0.06335845 0.06905278
v -0.07750000 0.06388137 0.06782106
v -0.07750000 0.06388008 0.06783125
v -0.07750000 0.06387824 0.06783776
v -0.07750000 0.06394918 0.06700000
v -0.07724264 0.06424264 0.06700000
v -0.07694918 0.06450000 0.06700000
v -0.07688137 0.06450000 0.06782106
v -0.07688008 0.06450000 0.06783125
v -0.07687824 0.06450000 0.06783776
v -0.07750000 0.06354765 0.06872094
v -0.07706301 0.06406301 0.06872741
v -0.07654765 0.06450000 0.06872094
v -0.07635845 0.06450000 0.06905278
v -0.07750000 0.06259780 0.06995579
v -0.07750000 0.06295579 0.06959780
v -0.07717052 0.06262170 0.07042541
v -0.07642541 0.06262170 0.07117052
v -0.07717052 0.06342541 0.06962170
v -0.07642541 0.06417052 0.06962170
v -0.07646410 0.06346410 0.07046410
v -0.07595579 0.06259780 0.07150000
v -0.07559780 0.06295579 0.07150000
v -0.07595579 0.06450000 0.06959780
v -0.07559780 0.06450000 0.06995579
v -0.07562170 0.06342541 0.07117052
v -0.07562170 0.06417052 0.07042541
v -0.07300000 0.06000000 0.07150000
v -0.07300000 0.06450000 0.06700000
v -0.07300000 0.06434667 0.06816469
v -0.07505278 0.06335845 0.07150000
v -0.07505278 0.06450000 0.07035845
v -0.07472094 0.06354765 0.07150000
v -0.07472094 0.06450000 0.07054765
v -0.07472741 0.06406301 0.07106301
v -0.07383776 0.06387824 0.07150000
v -0.07383125 0.06388008 0.07150000
v -0.07382106 0.06388137 0.07150000
v -0.07383776 0.06450000 0.07087824
v -0.07383125 0.06450000 0.07088008
v -0.07382106 0.06450000 0.07088137
v -0.07300000 0.06394918 0.07150000
v -0.07300000 0.06450000 0.07094918
v -0.07300000 0.06424264 0.07124264
f 26 1 2
f 1 3 2
f 7 2 5
f 2 3 5
f 3 4 8
f 5 3 9
f 9 3 8
f 7 5 6
f 2 7 11
f 9 7 6
f 5 9 6
f 4 9 8
f 4 10 9
f 26 2 11
f 11 7 12
f 7 13 12
f 7 9 13
f 9 10 13
f 13 11 12
f 32 11 13
f 10 14 13
f 13 14 33
f 14 10 37
f 33 14 15
f 1 43 3
f 3 43 4
f 43 10 4
f 14 37 15
f 43 37 10
f 1 26 20
f 22 1 20
f 26 31 16
f 20 19 17
f 17 19 18
f 20 26 19
f 21 20 17
f 22 20 21
f 17 23 21
f 22 21 23
f 19 24 18
f 24 17 18
f 23 17 24
f 19 25 24
f 25 22 23
f 25 23 24
f 19 26 27
f 34 27 16
f 27 26 16
f 25 19 27
f 25 27 28
f 29 25 28
f 27 29 28
f 27 35 29
f 1 22 44
f 44 22 25
f 40 25 29
f 26 11 30
f 11 32 30
f 26 30 31
f 30 34 31
f 34 16 31
f 32 34 30
f 32 36 34
f 33 32 13
f 32 33 36
f 35 27 34
f 35 34 36
f 37 33 15
f 33 41 36
f 33 37 41
f 41 37 38
f 37 46 38
f 46 41 38
f 35 36 42
f 39 29 35
f 40 29 39
f 35 42 39
f 42 40 39
f 40 42 47
f 41 42 36
f 42 41 50
f 43 1 44
f 43 53 37
f 44 25 40
f 43 44 45
f 45 44 57
f 37 53 46
f 44 40 55
f 41 46 48
f 48 50 41
f 47 42 50
f 54 40 47
f 47 50 49
f 46 53 48
f 50 48 51
f 51 48 53
f 54 47 49
f 55 40 54
f 50 54 49
f 54 50 51
f 43 45 57
f 53 43 57
f 44 55 58
f 59 44 58
f 57 44 59
f 52 51 53
f 54 51 52
f 53 55 52
f 55 54 52
f 58 55 56
f 55 53 59
f 55 59 56
f 53 57 59
f 59 58 56

