# https://github.com/mikedh/trimesh
v -0.07750000 0.06000000 0.03700000
v -0.07750000 0.06000000 0.06550000
v -0.07750000 0.06394918 0.03700000
v -0.07724264 0.06424264 0.03700000
v -0.07694918 0.06450000 0.03700000
v -0.07750000 0.06394918 0.06550000
v -0.07724264 0.06424264 0.06550000
v -0.07694918 0.06450000 0.06550000
v -0.07300000 0.06450000 0.03700000
v -0.07300000 0.06450000 0.06550000
f 1 2 6
f 10 2 1
f 4 1 3
f 1 6 3
f 6 4 3
f 4 8 5
f 9 1 4
f 9 4 5
f 8 9 5
f 2 7 6
f 7 4 6
f 4 7 8
f 2 10 7
f 7 10 8
f 9 10 1
f 10 9 8

