# https://github.com/mikedh/trimesh
v -0.07724264 -0.06424264 -0.02100000
v -0.07750000 -0.06394918 -0.02100000
v -0.07694918 -0.06450000 -0.02100000
v -0.07724264 -0.06424264 -0.01500000
v -0.07750000 -0.06394918 -0.01500000
v -0.07694918 -0.06450000 -0.01500000
v -0.07750000 -0.06000000 -0.02100000
v -0.07750000 -0.06000000 -0.01500000
v -0.07300000 -0.06450000 -0.02100000
v -0.07300000 -0.06450000 -0.01500000
f 1 5 2
f 4 1 3
f 7 1 2
f 5 7 2
f 3 1 9
f 7 9 1
f 1 4 5
f 4 3 6
f 4 8 5
f 3 10 6
f 10 4 6
f 8 4 10
f 9 7 8
f 7 5 8
f 9 10 3
f 9 8 10

