# https://github.com/mikedh/trimesh
v -0.07854328 -0.06229610 0.06700000
v -0.07843665 -0.06240237 0.06781940
v -0.07879555 -0.06155291 0.06700000
v -0.07872483 -0.06160378 0.06780881
v -0.07894867 -0.06078316 0.06700000
v -0.07889335 -0.06079637 0.06779637
v -0.07900000 -0.06000000 0.06700000
v -0.07894867 -0.06000000 0.06778316
v -0.07872483 -0.06080881 0.06860378
v -0.07879555 -0.06000000 0.06855291
v -0.07852665 -0.06165169 0.06865169
v -0.07854328 -0.06000000 0.06929610
v -0.07843665 -0.06081940 0.06940237
v -0.07819615 -0.06300000 0.06700000
v -0.07802754 -0.06316854 0.06782715
v -0.07818495 -0.06250102 0.06869151
v -0.07776012 -0.06365257 0.06700000
v -0.07750000 -0.06394918 0.06700000
v -0.07750320 -0.06387689 0.06783125
v -0.07750000 -0.06388137 0.06782106
v -0.07750000 -0.06388008 0.06783125
v -0.07750000 -0.06387824 0.06783776
v -0.07769384 -0.06331905 0.06871807
v -0.07750000 -0.06354765 0.06872094
v -0.07750000 -0.06335845 0.06905278
v -0.07776463 -0.06257860 0.06957860
v -0.07750000 -0.06295579 0.06959780
v -0.07750000 -0.06259780 0.06995579
v -0.07750000 -0.06205278 0.07035845
v -0.07750000 -0.06000000 0.06700000
v -0.07818495 -0.06169151 0.06950102
v -0.07819615 -0.06000000 0.07000000
v -0.07802754 -0.06082715 0.07016854
v -0.07769384 -0.06171807 0.07031905
v -0.07750000 -0.06172094 0.07054765
v -0.07776012 -0.06000000 0.07065257
v -0.07750000 -0.06083776 0.07087824
v -0.07750320 -0.06083125 0.07087689
v -0.07750000 -0.06083125 0.07088008
v -0.07750000 -0.06082106 0.07088137
v -0.07750000 -0.06000000 0.07094918
f 1 2 4
f 1 14 2
f 7 18 1
f 11 2 16
f 1 5 7
f 6 5 3
f 5 1 3
f 1 4 3
f 4 6 3
f 6 4 9
f 9 4 11
f 6 8 5
f 7 5 8
f 10 8 6
f 12 7 8
f 6 9 10
f 12 8 10
f 9 12 10
f 4 2 11
f 9 11 13
f 16 31 11
f 31 13 11
f 12 9 13
f 41 7 12
f 12 13 32
f 1 18 14
f 15 14 17
f 16 15 23
f 14 15 2
f 15 16 2
f 17 14 18
f 19 15 17
f 18 19 17
f 18 21 20
f 19 18 20
f 21 19 20
f 19 21 22
f 18 24 21
f 15 19 23
f 24 22 21
f 23 19 22
f 24 23 22
f 18 27 24
f 23 24 25
f 16 23 26
f 26 31 16
f 26 34 31
f 27 23 25
f 24 27 25
f 23 27 26
f 27 28 26
f 18 41 27
f 26 28 34
f 27 35 28
f 34 28 29
f 28 35 29
f 18 7 30
f 7 41 30
f 41 18 30
f 33 13 31
f 34 33 31
f 13 33 32
f 41 12 32
f 36 32 33
f 38 33 34
f 35 34 29
f 27 41 35
f 34 35 37
f 38 34 37
f 35 39 37
f 33 38 36
f 41 32 36
f 35 41 39
f 38 37 39
f 38 39 40
f 41 38 40
f 39 41 40
f 38 41 36

