# https://github.com/mikedh/trimesh
v -0.07529610 -0.06554328 0.06700000
v -0.07540237 -0.06543665 0.06781940
v -0.07600000 -0.06519615 0.06700000
v -0.07616854 -0.06502754 0.06782715
v -0.07665257 -0.06476012 0.06700000
v -0.07694918 -0.06450000 0.06700000
v -0.07688137 -0.06450000 0.06782106
v -0.07688008 -0.06450000 0.06783125
v -0.07687689 -0.06450320 0.06783125
v -0.07687824 -0.06450000 0.06783776
v -0.07654765 -0.06450000 0.06872094
v -0.07631905 -0.06469384 0.06871807
v -0.07550102 -0.06518495 0.06869151
v -0.07635845 -0.06450000 0.06905278
v -0.07557860 -0.06476463 0.06957860
v -0.07595579 -0.06450000 0.06959780
v -0.07559780 -0.06450000 0.06995579
v -0.07505278 -0.06450000 0.07035845
v -0.07455291 -0.06579555 0.06700000
v -0.07460378 -0.06572483 0.06780881
v -0.07465169 -0.06552665 0.06865169
v -0.07378316 -0.06594867 0.06700000
v -0.07379637 -0.06589335 0.06779637
v -0.07300000 -0.06600000 0.06700000
v -0.07300000 -0.06594867 0.06778316
v -0.07380881 -0.06572483 0.06860378
v -0.07300000 -0.06579555 0.06855291
v -0.07381940 -0.06543665 0.06940237
v -0.07300000 -0.06554328 0.06929610
v -0.07300000 -0.06450000 0.06700000
v -0.07469151 -0.06518495 0.06950102
v -0.07471807 -0.06469384 0.07031905
v -0.07472094 -0.06450000 0.07054765
v -0.07382715 -0.06502754 0.07016854
v -0.07300000 -0.06519615 0.07000000
v -0.07383776 -0.06450000 0.07087824
v -0.07383125 -0.06450320 0.07087689
v -0.07383125 -0.06450000 0.07088008
v -0.07382106 -0.06450000 0.07088137
v -0.07300000 -0.06476012 0.07065257
v -0.07300000 -0.06450000 0.07094918
f 3 1 2
f 1 20 2
f 6 24 1
f 2 21 13
f 6 1 3
f 3 4 5
f 12 4 13
f 6 3 5
f 5 4 9
f 5 9 6
f 8 6 7
f 6 9 7
f 9 8 7
f 10 8 9
f 11 6 8
f 11 8 10
f 9 12 10
f 12 11 10
f 16 6 11
f 4 12 9
f 12 14 11
f 4 3 2
f 4 2 13
f 16 11 14
f 12 15 14
f 15 16 14
f 12 13 15
f 13 31 15
f 32 15 31
f 16 15 17
f 41 6 16
f 15 32 17
f 33 16 17
f 17 32 18
f 33 17 18
f 20 1 19
f 1 22 19
f 1 24 22
f 19 22 23
f 23 20 19
f 20 26 21
f 23 26 20
f 20 21 2
f 21 31 13
f 21 26 28
f 23 22 25
f 24 25 22
f 26 23 27
f 23 25 27
f 29 25 24
f 29 26 27
f 25 29 27
f 21 28 31
f 28 26 29
f 24 41 29
f 28 29 35
f 24 6 30
f 6 41 30
f 41 24 30
f 28 34 31
f 34 32 31
f 32 33 18
f 41 16 33
f 32 34 37
f 36 33 32
f 37 36 32
f 38 33 36
f 34 28 35
f 29 41 35
f 34 35 40
f 37 34 40
f 41 33 38
f 37 38 36
f 38 37 39
f 37 41 39
f 41 38 39
f 40 35 41
f 41 37 40

