# https://github.com/mikedh/trimesh
v 0.03300000 -0.06600000 0.03108758
v 0.03300000 -0.06600000 0.03500000
v 0.03300000 -0.06450000 0.03108758
v 0.03300000 -0.06450000 0.03500000
v 0.03400000 -0.06600000 0.02700000
v 0.03500000 -0.06600000 0.02700000
v 0.03500000 -0.06600000 0.03500000
v 0.03400000 -0.06450000 0.02700000
v 0.03500000 -0.06450000 0.02700000
v 0.03500000 -0.06450000 0.03500000
f 3 5 1
f 5 2 1
f 2 3 1
f 8 5 3
f 2 4 3
f 3 4 8
f 2 10 4
f 6 2 5
f 8 6 5
f 2 6 7
f 10 2 7
f 6 10 7
f 6 8 9
f 10 6 9
f 8 10 9
f 10 8 4

