# https://github.com/mikedh/trimesh
v -0.05000000 -0.06450000 0.06700000
v -0.05000000 -0.06450000 0.07094918
v -0.05000000 -0.06424264 0.07124264
v -0.05000000 -0.06394918 0.07150000
v -0.05000000 -0.06000000 0.07150000
v -0.02500000 -0.06450000 0.06700000
v -0.02500000 -0.06450000 0.07094918
v -0.02500000 -0.06424264 0.07124264
v -0.02500000 -0.06394918 0.07150000
v -0.02500000 -0.06000000 0.07150000
f 5 6 1
f 3 1 2
f 3 5 1
f 5 3 4
f 1 7 2
f 7 3 2
f 3 8 4
f 10 5 4
f 1 6 7
f 7 8 3
f 4 8 9
f 10 4 9
f 6 8 7
f 6 10 8
f 8 10 9
f 6 5 10

