# https://github.com/mikedh/trimesh
v -0.07900000 0.06000000 0.02700000
v -0.07894867 0.06078316 0.02700000
v -0.07879555 0.06155291 0.02700000
v -0.07900000 0.06000000 0.03500000
v -0.07894867 0.06078316 0.03500000
v -0.07879555 0.06155291 0.03500000
v -0.07854328 0.06229610 0.02700000
v -0.07854328 0.06229610 0.03500000
v -0.07750000 0.06000000 0.02700000
v -0.07750000 0.06000000 0.03500000
v -0.07819615 0.06300000 0.02700000
v -0.07776012 0.06365257 0.02700000
v -0.07750000 0.06394918 0.02700000
v -0.07819615 0.06300000 0.03500000
v -0.07776012 0.06365257 0.03500000
v -0.07750000 0.06394918 0.03500000
f 1 4 2
f 7 1 2
f 7 2 3
f 2 6 3
f 6 7 3
f 7 9 1
f 9 4 1
f 2 4 5
f 4 6 5
f 6 2 5
f 4 8 6
f 11 7 8
f 7 6 8
f 11 8 14
f 4 16 8
f 4 9 10
f 16 4 10
f 9 16 10
f 13 7 11
f 12 11 14
f 13 9 7
f 13 16 9
f 13 11 12
f 16 13 12
f 12 14 15
f 14 8 16
f 16 12 15
f 14 16 15

