# https://github.com/mikedh/trimesh
v -0.07694918 -0.06450000 -0.03900000
v -0.07724264 -0.06424264 -0.03500000
v -0.07750000 -0.06394918 -0.03500000
v -0.07724264 -0.06424264 -0.02100000
v -0.07750000 -0.06394918 -0.02100000
v -0.07694918 -0.06450000 -0.02100000
v -0.07750000 -0.06000000 -0.03500000
v -0.07750000 -0.06000000 -0.02100000
v -0.07300000 -0.06450000 -0.03900000
v -0.07300000 -0.06450000 -0.02100000
f 3 1 2
f 3 2 5
f 1 4 2
f 7 1 3
f 1 7 9
f 4 5 2
f 4 1 6
f 8 3 5
f 4 8 5
f 1 10 6
f 10 4 6
f 4 10 8
f 8 7 3
f 10 7 8
f 9 10 1
f 9 7 10

