# https://github.com/mikedh/trimesh
v -0.07100000 -0.06600000 0.01000000
v -0.07100000 -0.06600000 0.02700000
v -0.07100000 -0.06450000 0.01000000
v -0.07100000 -0.06450000 0.02700000
v -0.06608758 -0.06600000 0.01000000
v -0.06200000 -0.06600000 0.01100000
v -0.06200000 -0.06600000 0.02700000
v -0.06608758 -0.06450000 0.01000000
v -0.06200000 -0.06450000 0.01100000
v -0.06200000 -0.06450000 0.02700000
f 5 1 3
f 2 3 1
f 6 2 1
f 5 3 8
f 3 2 4
f 2 10 4
f 10 3 4
f 6 1 5
f 9 6 5
f 2 6 7
f 10 2 7
f 6 10 7
f 9 5 8
f 3 9 8
f 3 10 9
f 10 6 9

