# https://github.com/mikedh/trimesh
v -0.07694918 0.02000000 0.07150000
v -0.07665257 0.02000000 0.07176012
v -0.07600000 0.02000000 0.07219615
v -0.07529610 0.02000000 0.07254328
v -0.07694918 0.02500000 0.07150000
v -0.07665257 0.02500000 0.07176012
v -0.07600000 0.02500000 0.07219615
v -0.07529610 0.02500000 0.07254328
v -0.07300000 0.02000000 0.07150000
v -0.07455291 0.02000000 0.07279555
v -0.07378316 0.02000000 0.07294867
v -0.07300000 0.02000000 0.07300000
v -0.07300000 0.02500000 0.07150000
v -0.07455291 0.02500000 0.07279555
v -0.07378316 0.02500000 0.07294867
v -0.07300000 0.02500000 0.07300000
f 1 3 2
f 1 4 3
f 5 1 2
f 2 3 7
f 1 5 9
f 1 12 4
f 3 4 8
f 4 10 8
f 5 2 6
f 2 7 6
f 7 5 6
f 8 5 7
f 3 8 7
f 8 15 5
f 12 1 9
f 12 9 13
f 4 12 10
f 15 10 11
f 10 12 11
f 12 15 11
f 9 5 13
f 13 5 15
f 8 10 14
f 10 15 14
f 15 8 14
f 12 13 16
f 15 12 16
f 13 15 16

