# https://github.com/mikedh/trimesh
v -0.07694918 0.06450000 0.03700000
v -0.07665257 0.06476012 0.03700000
v -0.07600000 0.06519615 0.03700000
v -0.07694918 0.06450000 0.06550000
v -0.07665257 0.06476012 0.06550000
v -0.07600000 0.06519615 0.06550000
v -0.07529610 0.06554328 0.03700000
v -0.07529610 0.06554328 0.06550000
v -0.07300000 0.06450000 0.03700000
v -0.07300000 0.06450000 0.06550000
v -0.07455291 0.06579555 0.03700000
v -0.07378316 0.06594867 0.03700000
v -0.07300000 0.06600000 0.03700000
v -0.07455291 0.06579555 0.06550000
v -0.07378316 0.06594867 0.06550000
v -0.07300000 0.06600000 0.06550000
f 3 1 2
f 1 4 2
f 7 1 3
f 6 3 2
f 4 1 9
f 2 4 5
f 4 6 5
f 6 2 5
f 4 14 6
f 13 1 7
f 7 3 6
f 7 6 8
f 6 14 8
f 14 7 8
f 1 13 9
f 9 13 10
f 4 9 10
f 10 14 4
f 13 7 11
f 7 14 11
f 11 15 12
f 13 11 12
f 15 13 12
f 11 14 15
f 10 13 16
f 14 10 16
f 15 16 13
f 14 16 15

