# https://github.com/mikedh/trimesh
v 0.03704137 0.06400000 0.03500000
v 0.03704137 0.06400000 0.03700000
v 0.03550000 0.06446723 0.03500000
v 0.03550000 0.06450000 0.03500000
v 0.03550000 0.06446723 0.03700000
v 0.03550000 0.06450000 0.03700000
v 0.03945543 0.06400000 0.03500000
v 0.03924264 0.06424264 0.03500000
v 0.03945543 0.06400000 0.03700000
v 0.03924264 0.06424264 0.03700000
v 0.03894918 0.06450000 0.03500000
v 0.03894918 0.06450000 0.03700000
f 4 7 1
f 3 1 2
f 4 1 3
f 6 4 3
f 3 2 5
f 2 6 5
f 6 3 5
f 2 12 6
f 12 4 6
f 7 2 1
f 9 7 8
f 7 11 8
f 2 7 9
f 9 8 10
f 12 2 9
f 12 9 10
f 7 4 11
f 4 12 11
f 8 11 12
f 8 12 10

