# https://github.com/mikedh/trimesh
v -0.06200000 -0.06600000 0.06700000
v -0.06200000 -0.06594867 0.06778316
v -0.06200000 -0.06579555 0.06855291
v -0.06200000 -0.06554328 0.06929610
v -0.06200000 -0.06450000 0.06700000
v -0.06200000 -0.06519615 0.07000000
v -0.06200000 -0.06476012 0.07065257
v -0.06200000 -0.06450000 0.07094918
v -0.05800000 -0.06600000 0.06700000
v -0.05800000 -0.06594867 0.06778316
v -0.05800000 -0.06579555 0.06855291
v -0.05800000 -0.06554328 0.06929610
v -0.05800000 -0.06450000 0.06700000
v -0.05800000 -0.06519615 0.07000000
v -0.05800000 -0.06476012 0.07065257
v -0.05800000 -0.06450000 0.07094918
f 4 1 2
f 4 2 3
f 1 9 2
f 3 2 11
f 9 1 5
f 8 1 4
f 12 4 3
f 4 14 6
f 1 8 5
f 5 8 13
f 8 4 6
f 8 6 7
f 6 15 7
f 15 8 7
f 2 9 10
f 11 2 10
f 12 3 11
f 9 11 10
f 9 12 11
f 9 14 12
f 14 4 12
f 9 5 13
f 9 13 14
f 6 14 15
f 13 8 16
f 15 16 8
f 14 13 16
f 14 16 15

