# https://github.com/mikedh/trimesh
v -0.07750000 0.05300000 0.06700000
v -0.07750000 0.05300000 0.07094918
v -0.07724264 0.05300000 0.07124264
v -0.07694918 0.05300000 0.07150000
v -0.07750000 0.05800000 0.06700000
v -0.07750000 0.05800000 0.07094918
v -0.07724264 0.05800000 0.07124264
v -0.07694918 0.05800000 0.07150000
v -0.07300000 0.05300000 0.07150000
v -0.07300000 0.05800000 0.07150000
f 5 1 2
f 5 9 1
f 2 1 3
f 3 7 2
f 3 4 7
f 9 3 1
f 3 9 4
f 5 2 6
f 2 7 6
f 7 4 8
f 7 5 6
f 4 10 8
f 10 5 7
f 10 7 8
f 9 10 4
f 9 5 10

