# https://github.com/mikedh/trimesh
v 0.03550000 -0.06596723 0.03500000
v 0.03578316 -0.06594867 0.03500000
v 0.03655291 -0.06579555 0.03500000
v 0.03550000 -0.06596723 0.03700000
v 0.03578316 -0.06594867 0.03700000
v 0.03655291 -0.06579555 0.03700000
v 0.03550000 -0.06450000 0.03500000
v 0.03550000 -0.06450000 0.03700000
v 0.03729610 -0.06554328 0.03500000
v 0.03729610 -0.06554328 0.03700000
v 0.03800000 -0.06519615 0.03500000
v 0.03865257 -0.06476012 0.03500000
v 0.03894918 -0.06450000 0.03500000
v 0.03800000 -0.06519615 0.03700000
v 0.03865257 -0.06476012 0.03700000
v 0.03894918 -0.06450000 0.03700000
f 1 3 2
f 4 1 2
f 3 6 2
f 4 7 1
f 1 9 3
f 3 9 10
f 4 2 5
f 2 6 5
f 6 4 5
f 3 10 6
f 10 4 6
f 7 13 1
f 13 7 8
f 7 4 8
f 16 8 4
f 1 13 9
f 14 9 11
f 10 9 14
f 10 16 4
f 9 13 11
f 15 11 12
f 11 13 12
f 13 15 12
f 16 10 14
f 13 8 16
f 14 11 15
f 13 16 15
f 16 14 15

