# https://github.com/mikedh/trimesh
v 0.03550000 0.05300000 0.06700000
v 0.03550000 0.05300000 0.07150000
v 0.03550000 0.05800000 0.07146723
v 0.03550000 0.05800000 0.07150000
v 0.03704137 0.05800000 0.07100000
v 0.03950000 0.05300000 0.06700000
v 0.03894918 0.05300000 0.07150000
v 0.03924264 0.05300000 0.07124264
v 0.03950000 0.05300000 0.07094918
v 0.03894918 0.05800000 0.07150000
v 0.03924264 0.05800000 0.07124264
v 0.03945543 0.05800000 0.07100000
f 6 2 1
f 6 1 5
f 2 3 1
f 1 3 5
f 3 2 4
f 2 10 4
f 10 3 4
f 3 11 5
f 2 6 8
f 2 8 7
f 10 2 7
f 8 6 9
f 6 12 9
f 8 10 7
f 12 8 9
f 3 10 11
f 6 5 12
f 8 11 10
f 11 8 12
f 11 12 5

