# https://github.com/mikedh/trimesh
v 0.02500000 -0.06450000 0.06700000
v 0.02500000 -0.06450000 0.07094918
v 0.02500000 -0.06424264 0.07124264
v 0.02500000 -0.06394918 0.07150000
v 0.02500000 -0.06000000 0.07150000
v 0.03300000 -0.06450000 0.06700000
v 0.03300000 -0.06450000 0.07094918
v 0.03300000 -0.06424264 0.07124264
v 0.03300000 -0.06394918 0.07150000
v 0.03300000 -0.06000000 0.07150000
f 1 6 2
f 5 6 1
f 1 2 3
f 5 1 3
f 5 3 4
f 3 2 7
f 3 9 4
f 9 5 4
f 2 6 7
f 3 7 8
f 9 3 8
f 6 9 7
f 7 9 8
f 9 6 10
f 6 5 10
f 5 9 10

