# https://github.com/mikedh/trimesh
v 0.03550000 -0.06596723 0.06700000
v 0.03550000 -0.06594867 0.06728316
v 0.03578316 -0.06594867 0.06700000
v 0.03550000 -0.06591394 0.06779145
v 0.03579637 -0.06589335 0.06779637
v 0.03550000 -0.06585696 0.06807792
v 0.03550000 -0.06575184 0.06858436
v 0.03550000 -0.06565551 0.06886811
v 0.03580881 -0.06572483 0.06860378
v 0.03655291 -0.06579555 0.06700000
v 0.03660378 -0.06572483 0.06780881
v 0.03665169 -0.06552665 0.06865169
v 0.03550000 -0.06547821 0.06936095
v 0.03581940 -0.06543665 0.06940237
v 0.03550000 -0.06534290 0.06963533
v 0.03550000 -0.06450000 0.06700000
v 0.03550000 -0.06509423 0.07010188
v 0.03550000 -0.06492177 0.07035998
v 0.03582715 -0.06502754 0.07016854
v 0.03550000 -0.06460558 0.07078750
v 0.03550000 -0.06450000 0.07090789
v 0.03582106 -0.06450000 0.07088137
v 0.03583125 -0.06450320 0.07087689
v 0.03583125 -0.06450000 0.07088008
v 0.03583776 -0.06450000 0.07087824
v 0.03669151 -0.06518495 0.06950102
v 0.03671807 -0.06469384 0.07031905
v 0.03672094 -0.06450000 0.07054765
v 0.03705278 -0.06450000 0.07035845
v 0.03729610 -0.06554328 0.06700000
v 0.03740237 -0.06543665 0.06781940
v 0.03800000 -0.06519615 0.06700000
v 0.03750102 -0.06518495 0.06869151
v 0.03816854 -0.06502754 0.06782715
v 0.03865257 -0.06476012 0.06700000
v 0.03894918 -0.06450000 0.06700000
v 0.03888137 -0.06450000 0.06782106
v 0.03887689 -0.06450320 0.06783125
v 0.03888008 -0.06450000 0.06783125
v 0.03887824 -0.06450000 0.06783776
v 0.03831905 -0.06469384 0.06871807
v 0.03854765 -0.06450000 0.06872094
v 0.03757860 -0.06476463 0.06957860
v 0.03795579 -0.06450000 0.06959780
v 0.03759780 -0.06450000 0.06995579
v 0.03835845 -0.06450000 0.06905278
f 1 3 2
f 4 1 2
f 3 4 2
f 6 1 4
f 5 4 3
f 5 6 4
f 1 10 3
f 10 5 3
f 10 11 5
f 6 5 7
f 5 9 7
f 13 1 6
f 13 6 7
f 7 9 8
f 13 7 8
f 9 13 8
f 11 9 5
f 12 9 11
f 9 12 14
f 1 30 10
f 30 11 10
f 11 30 31
f 31 12 11
f 33 12 31
f 12 33 26
f 9 14 13
f 13 14 15
f 21 1 13
f 17 13 15
f 14 17 15
f 12 26 14
f 1 21 16
f 36 1 16
f 21 36 16
f 17 14 19
f 26 19 14
f 21 13 17
f 17 19 18
f 21 17 18
f 19 23 18
f 21 18 20
f 18 23 20
f 23 21 20
f 21 23 22
f 25 21 22
f 22 23 24
f 25 22 24
f 23 25 24
f 19 27 23
f 28 21 25
f 23 28 25
f 26 43 27
f 27 19 26
f 44 21 28
f 27 28 23
f 28 27 29
f 27 45 29
f 45 28 29
f 1 36 30
f 30 32 31
f 30 36 32
f 32 34 31
f 31 34 33
f 33 34 41
f 34 32 35
f 32 36 35
f 34 35 38
f 35 36 38
f 38 36 37
f 36 39 37
f 36 42 39
f 39 38 37
f 38 39 40
f 38 41 34
f 36 44 42
f 41 42 46
f 38 42 41
f 42 38 40
f 39 42 40
f 33 43 26
f 33 41 43
f 36 21 44
f 44 43 41
f 43 44 45
f 27 43 45
f 44 28 45
f 44 41 46
f 42 44 46

