# https://github.com/mikedh/trimesh
v -0.07854328 -0.05000000 -0.04129610
v -0.07879555 -0.05000000 -0.04055291
v -0.07894867 -0.05000000 -0.03978316
v -0.07900000 -0.05000000 -0.03900000
v -0.07854328 -0.02500000 -0.04129610
v -0.07879555 -0.02500000 -0.04055291
v -0.07894867 -0.02500000 -0.03978316
v -0.07900000 -0.02500000 -0.03900000
v -0.07819615 -0.05000000 -0.04200000
v -0.07776012 -0.05000000 -0.04265257
v -0.07750000 -0.05000000 -0.04294918
v -0.07750000 -0.05000000 -0.03900000
v -0.07819615 -0.02500000 -0.04200000
v -0.07776012 -0.02500000 -0.04265257
v -0.07750000 -0.02500000 -0.04294918
v -0.07750000 -0.02500000 -0.03900000
f 5 1 2
f 11 4 1
f 9 1 5
f 2 1 4
f 2 4 3
f 2 3 6
f 4 8 3
f 9 5 13
f 6 3 7
f 5 2 6
f 3 8 7
f 8 5 6
f 8 6 7
f 4 16 8
f 16 5 8
f 11 1 9
f 9 13 10
f 11 9 10
f 15 11 10
f 4 11 12
f 16 4 12
f 11 16 12
f 10 13 14
f 5 15 13
f 15 10 14
f 16 11 15
f 13 15 14
f 5 16 15

