# https://github.com/mikedh/trimesh
v 0.03550000 -0.06450000 0.06700000
v 0.03550000 -0.06446723 0.06700000
v 0.03704137 -0.06400000 0.06700000
v 0.03550000 -0.06450000 0.07090789
v 0.03582106 -0.06450000 0.07088137
v 0.03583125 -0.06450000 0.07088008
v 0.03583776 -0.06450000 0.07087824
v 0.03550000 -0.06439937 0.07102264
v 0.03550000 -0.06402264 0.07139937
v 0.03550000 -0.06390789 0.07150000
v 0.03582106 -0.06388137 0.07150000
v 0.03583125 -0.06388008 0.07150000
v 0.03583776 -0.06387824 0.07150000
v 0.03705278 -0.06450000 0.07035845
v 0.03672094 -0.06450000 0.07054765
v 0.03672741 -0.06406301 0.07106301
v 0.03694001 -0.06400000 0.07100000
v 0.03672094 -0.06354765 0.07150000
v 0.03705278 -0.06335845 0.07150000
v 0.03550000 -0.06000000 0.07146723
v 0.03550000 -0.06000000 0.07150000
v 0.03704137 -0.06000000 0.07100000
v 0.03835845 -0.06450000 0.06905278
v 0.03894918 -0.06450000 0.06700000
v 0.03888137 -0.06450000 0.06782106
v 0.03888008 -0.06450000 0.06783125
v 0.03887824 -0.06450000 0.06783776
v 0.03924264 -0.06424264 0.06700000
v 0.03945543 -0.06400000 0.06700000
v 0.03941549 -0.06400000 0.06755145
v 0.03938008 -0.06400000 0.06783125
v 0.03854765 -0.06450000 0.06872094
v 0.03921202 -0.06400000 0.06842404
v 0.03906301 -0.06406301 0.06872741
v 0.03907363 -0.06400000 0.06881579
v 0.03911643 -0.06400000 0.06872662
v 0.03795579 -0.06450000 0.06959780
v 0.03759780 -0.06450000 0.06995579
v 0.03842541 -0.06417052 0.06962170
v 0.03843475 -0.06400000 0.06982504
v 0.03762170 -0.06417052 0.07042541
v 0.03762170 -0.06400000 0.07059593
v 0.03782504 -0.06400000 0.07043475
v 0.03762170 -0.06342541 0.07117052
v 0.03782504 -0.06343475 0.07100000
v 0.03759780 -0.06295579 0.07150000
v 0.03795579 -0.06259780 0.07150000
v 0.03843475 -0.06282504 0.07100000
v 0.03842541 -0.06262170 0.07117052
v 0.03859593 -0.06400000 0.06962170
v 0.03859593 -0.06262170 0.07100000
v 0.03835845 -0.06205278 0.07150000
v 0.03854765 -0.06172094 0.07150000
v 0.03907363 -0.06181579 0.07100000
v 0.03906301 -0.06172741 0.07106301
v 0.03911643 -0.06172662 0.07100000
v 0.03921202 -0.06142404 0.07100000
v 0.03887824 -0.06083776 0.07150000
v 0.03888008 -0.06083125 0.07150000
v 0.03888137 -0.06082106 0.07150000
v 0.03894918 -0.06000000 0.07150000
v 0.03938008 -0.06083125 0.07100000
v 0.03941549 -0.06055145 0.07100000
v 0.03945543 -0.06000000 0.07100000
v 0.03924264 -0.06000000 0.07124264
f 4 2 1
f 20 3 2
f 2 24 1
f 29 2 3
f 24 4 1
f 4 24 37
f 8 4 5
f 4 7 5
f 6 5 7
f 9 4 8
f 9 8 5
f 10 4 9
f 11 9 5
f 12 5 6
f 7 13 6
f 12 11 5
f 13 12 6
f 10 9 11
f 13 10 11
f 13 11 12
f 15 7 4
f 15 16 7
f 16 13 7
f 13 16 18
f 4 20 2
f 20 4 10
f 4 37 15
f 15 38 14
f 38 15 37
f 38 41 14
f 19 13 18
f 16 19 18
f 41 15 14
f 15 41 16
f 16 42 17
f 16 41 42
f 44 17 42
f 16 17 44
f 19 16 44
f 19 47 13
f 61 10 13
f 19 44 46
f 20 10 21
f 3 20 22
f 10 61 21
f 61 20 21
f 20 65 22
f 2 29 24
f 37 32 23
f 32 39 23
f 29 3 22
f 26 24 25
f 26 32 24
f 24 28 25
f 28 26 25
f 28 31 26
f 24 29 28
f 30 28 29
f 31 28 30
f 37 24 32
f 32 26 27
f 26 34 27
f 34 32 27
f 32 34 39
f 35 39 34
f 31 34 26
f 33 36 34
f 34 31 33
f 34 36 35
f 29 63 30
f 63 31 30
f 62 33 31
f 39 41 38
f 41 40 43
f 37 39 38
f 39 37 23
f 40 41 39
f 41 45 42
f 42 45 44
f 45 41 43
f 40 45 43
f 40 48 45
f 47 19 46
f 45 49 44
f 44 47 46
f 47 44 49
f 49 45 48
f 49 52 47
f 39 35 50
f 40 39 50
f 35 51 50
f 40 50 51
f 51 35 54
f 56 36 33
f 54 35 36
f 54 36 56
f 57 56 33
f 48 40 51
f 49 48 51
f 54 49 51
f 61 13 47
f 61 47 52
f 65 20 61
f 29 22 64
f 33 62 57
f 31 63 62
f 29 64 63
f 55 52 49
f 52 55 53
f 49 54 55
f 59 52 53
f 53 55 58
f 59 53 58
f 55 59 58
f 55 54 56
f 57 55 56
f 57 59 55
f 52 59 61
f 65 64 22
f 61 59 60
f 57 62 59
f 62 63 59
f 59 65 60
f 63 65 59
f 65 61 60
f 64 65 63

