# https://github.com/mikedh/trimesh
v 0.03500000 -0.06394918 0.07150000
v 0.03500000 -0.06365257 0.07176012
v 0.03500000 -0.06300000 0.07219615
v 0.03500000 -0.06229610 0.07254328
v 0.03500000 -0.06000000 0.07150000
v 0.03500000 -0.06155291 0.07279555
v 0.03500000 -0.06078316 0.07294867
v 0.03500000 -0.06000000 0.07300000
v 0.03550000 -0.06390789 0.07150000
v 0.03550000 -0.06378750 0.07160558
v 0.03550000 -0.06335998 0.07192177
v 0.03550000 -0.06310188 0.07209423
v 0.03550000 -0.06263533 0.07234290
v 0.03550000 -0.06236095 0.07247821
v 0.03550000 -0.06000000 0.07150000
v 0.03550000 -0.06186811 0.07265551
v 0.03550000 -0.06158436 0.07275184
v 0.03550000 -0.06107792 0.07285696
v 0.03550000 -0.06079145 0.07291394
v 0.03550000 -0.06028316 0.07294867
v 0.03550000 -0.06000000 0.07296723
f 3 1 2
f 4 1 3
f 2 1 10
f 2 11 3
f 8 1 4
f 14 4 3
f 1 8 5
f 15 1 5
f 8 15 5
f 8 4 6
f 8 6 7
f 6 4 17
f 7 6 19
f 21 8 7
f 1 9 10
f 11 2 10
f 12 3 11
f 1 15 9
f 3 12 13
f 9 11 10
f 9 12 11
f 12 9 14
f 15 14 9
f 14 3 13
f 4 14 16
f 12 14 13
f 4 16 17
f 6 17 18
f 19 6 18
f 15 8 21
f 7 19 20
f 21 7 20
f 14 21 16
f 16 19 17
f 17 19 18
f 15 21 14
f 16 21 19
f 19 21 20

