# https://github.com/mikedh/trimesh
v 0.03550000 -0.02500000 0.07150000
v 0.03550000 -0.02500000 0.07296723
v 0.03578316 -0.02500000 0.07294867
v 0.03655291 -0.02500000 0.07279555
v 0.03550000 -0.02000000 0.07150000
v 0.03550000 -0.02000000 0.07296723
v 0.03578316 -0.02000000 0.07294867
v 0.03655291 -0.02000000 0.07279555
v 0.03800000 -0.02500000 0.07219615
v 0.03894918 -0.02500000 0.07150000
v 0.03865257 -0.02500000 0.07176012
v 0.03729610 -0.02500000 0.07254328
v 0.03800000 -0.02000000 0.07219615
v 0.03894918 -0.02000000 0.07150000
v 0.03865257 -0.02000000 0.07176012
v 0.03729610 -0.02000000 0.07254328
f 2 1 12
f 2 4 3
f 2 6 1
f 6 2 3
f 3 4 8
f 2 12 4
f 4 12 16
f 1 6 5
f 14 1 5
f 6 14 5
f 6 3 7
f 3 8 7
f 8 6 7
f 4 16 8
f 8 16 6
f 12 1 10
f 12 10 9
f 1 14 10
f 9 10 11
f 10 14 11
f 11 15 9
f 13 12 9
f 14 16 13
f 14 15 11
f 13 9 15
f 14 13 15
f 12 13 16
f 14 6 16

