# https://github.com/mikedh/trimesh
v 0.03950000 -0.02000000 -0.04294918
v 0.03976012 -0.02000000 -0.04265257
v 0.04019615 -0.02000000 -0.04200000
v 0.03950000 -0.02000000 -0.03900000
v 0.03950000 0.00000000 -0.04294918
v 0.03976012 0.00000000 -0.04265257
v 0.04019615 0.00000000 -0.04200000
v 0.03950000 0.00000000 -0.03900000
v 0.04054328 -0.02000000 -0.04129610
v 0.04079555 -0.02000000 -0.04055291
v 0.04094867 -0.02000000 -0.03978316
v 0.04100000 -0.02000000 -0.03900000
v 0.04054328 0.00000000 -0.04129610
v 0.04079555 0.00000000 -0.04055291
v 0.04094867 0.00000000 -0.03978316
v 0.04100000 0.00000000 -0.03900000
f 3 1 2
f 1 5 2
f 5 1 4
f 9 1 3
f 7 3 2
f 1 12 4
f 4 12 8
f 2 5 6
f 5 7 6
f 7 2 6
f 5 14 7
f 5 4 8
f 8 14 5
f 12 1 9
f 9 3 7
f 12 9 10
f 12 10 11
f 9 14 10
f 10 15 11
f 15 12 11
f 9 7 13
f 7 14 13
f 14 9 13
f 8 12 16
f 14 8 16
f 10 14 15
f 15 16 12
f 14 16 15

