# https://github.com/mikedh/trimesh
v 0.03550000 0.06450000 0.06700000
v 0.03550000 0.06450000 0.07090789
v 0.03550000 0.06460558 0.07078750
v 0.03582106 0.06450000 0.07088137
v 0.03583125 0.06450320 0.07087689
v 0.03583125 0.06450000 0.07088008
v 0.03583776 0.06450000 0.07087824
v 0.03550000 0.06492177 0.07035998
v 0.03582715 0.06502754 0.07016854
v 0.03550000 0.06509423 0.07010188
v 0.03672094 0.06450000 0.07054765
v 0.03671807 0.06469384 0.07031905
v 0.03705278 0.06450000 0.07035845
v 0.03669151 0.06518495 0.06950102
v 0.03550000 0.06596723 0.06700000
v 0.03550000 0.06594867 0.06728316
v 0.03578316 0.06594867 0.06700000
v 0.03550000 0.06591394 0.06779145
v 0.03579637 0.06589335 0.06779637
v 0.03550000 0.06565551 0.06886811
v 0.03550000 0.06575184 0.06858436
v 0.03580881 0.06572483 0.06860378
v 0.03550000 0.06585696 0.06807792
v 0.03665169 0.06552665 0.06865169
v 0.03660378 0.06572483 0.06780881
v 0.03655291 0.06579555 0.06700000
v 0.03550000 0.06534290 0.06963533
v 0.03550000 0.06547821 0.06936095
v 0.03581940 0.06543665 0.06940237
v 0.03800000 0.06519615 0.06700000
v 0.03750102 0.06518495 0.06869151
v 0.03894918 0.06450000 0.06700000
v 0.03888137 0.06450000 0.06782106
v 0.03888008 0.06450000 0.06783125
v 0.03887824 0.06450000 0.06783776
v 0.03887689 0.06450320 0.06783125
v 0.03865257 0.06476012 0.06700000
v 0.03831905 0.06469384 0.06871807
v 0.03854765 0.06450000 0.06872094
v 0.03816854 0.06502754 0.06782715
v 0.03757860 0.06476463 0.06957860
v 0.03795579 0.06450000 0.06959780
v 0.03759780 0.06450000 0.06995579
v 0.03835845 0.06450000 0.06905278
v 0.03729610 0.06554328 0.06700000
v 0.03740237 0.06543665 0.06781940
f 2 15 1
f 32 2 1
f 15 32 1
f 2 5 3
f 8 2 3
f 5 8 3
f 5 2 4
f 2 7 4
f 4 7 6
f 5 4 6
f 7 5 6
f 10 2 8
f 9 8 5
f 2 11 7
f 11 5 7
f 12 9 5
f 29 9 14
f 28 2 10
f 9 10 8
f 10 9 27
f 2 42 11
f 11 12 5
f 12 11 13
f 11 43 13
f 43 12 13
f 12 41 14
f 9 12 14
f 22 29 24
f 17 15 16
f 15 18 16
f 18 17 16
f 15 23 18
f 19 17 18
f 23 19 18
f 26 15 17
f 19 26 17
f 25 26 19
f 15 28 23
f 22 23 21
f 21 28 20
f 28 22 20
f 23 28 21
f 22 21 20
f 19 23 22
f 25 19 22
f 24 25 22
f 25 46 45
f 24 31 46
f 24 14 31
f 25 24 46
f 45 15 26
f 25 45 26
f 15 2 28
f 28 10 27
f 29 27 9
f 28 29 22
f 29 28 27
f 29 14 24
f 32 45 30
f 46 40 30
f 40 31 38
f 31 40 46
f 36 32 37
f 32 36 33
f 34 32 33
f 39 32 34
f 36 34 33
f 36 35 34
f 32 30 37
f 40 36 37
f 42 32 39
f 39 38 44
f 40 38 36
f 36 38 35
f 38 39 35
f 39 34 35
f 40 37 30
f 2 32 42
f 41 42 38
f 42 41 43
f 11 42 43
f 41 12 43
f 31 14 41
f 41 38 31
f 42 39 44
f 38 42 44
f 32 15 45
f 45 46 30

