# https://github.com/mikedh/trimesh
v 0.03500000 -0.06600000 0.06700000
v 0.03500000 -0.06594867 0.06778316
v 0.03500000 -0.06579555 0.06855291
v 0.03500000 -0.06554328 0.06929610
v 0.03500000 -0.06450000 0.06700000
v 0.03500000 -0.06519615 0.07000000
v 0.03500000 -0.06476012 0.07065257
v 0.03500000 -0.06450000 0.07094918
v 0.03550000 -0.06596723 0.06700000
v 0.03550000 -0.06594867 0.06728316
v 0.03550000 -0.06591394 0.06779145
v 0.03550000 -0.06585696 0.06807792
v 0.03550000 -0.06575184 0.06858436
v 0.03550000 -0.06565551 0.06886811
v 0.03550000 -0.06547821 0.06936095
v 0.03550000 -0.06534290 0.06963533
v 0.03550000 -0.06450000 0.06700000
v 0.03550000 -0.06509423 0.07010188
v 0.03550000 -0.06492177 0.07035998
v 0.03550000 -0.06460558 0.07078750
v 0.03550000 -0.06450000 0.07090789
f 4 1 2
f 4 2 3
f 1 9 2
f 2 11 3
f 4 3 13
f 5 9 1
f 8 1 4
f 6 4 16
f 8 5 1
f 5 8 17
f 8 4 6
f 8 6 7
f 18 7 6
f 21 8 7
f 2 9 10
f 11 2 10
f 3 11 12
f 13 3 12
f 14 4 13
f 9 11 10
f 9 14 11
f 11 13 12
f 14 13 11
f 9 21 14
f 4 14 15
f 16 4 15
f 14 16 15
f 9 5 17
f 9 17 21
f 6 16 18
f 7 18 19
f 21 17 8
f 7 19 20
f 21 7 20
f 16 14 21
f 16 21 18
f 18 21 19
f 19 21 20

