# https://github.com/mikedh/trimesh
v -0.07635845 0.06450000 -0.04105278
v -0.07505278 0.06450000 -0.04235845
v -0.07595579 0.06450000 -0.04159780
v -0.07559780 0.06450000 -0.04195579
v -0.07557860 0.06476463 -0.04157860
v -0.07654765 0.06450000 -0.04072094
v -0.07631905 0.06469384 -0.04071807
v -0.07687824 0.06450000 -0.03983776
v -0.07688008 0.06450000 -0.03983125
v -0.07688137 0.06450000 -0.03982106
v -0.07687689 0.06450320 -0.03983125
v -0.07694918 0.06450000 -0.03900000
v -0.07665257 0.06476012 -0.03900000
v -0.07616854 0.06502754 -0.03982715
v -0.07600000 0.06519615 -0.03900000
v -0.07550102 0.06518495 -0.04069151
v -0.07540237 0.06543665 -0.03981940
v -0.07529610 0.06554328 -0.03900000
v -0.07472094 0.06450000 -0.04254765
v -0.07471807 0.06469384 -0.04231905
v -0.07469151 0.06518495 -0.04150102
v -0.07383776 0.06450000 -0.04287824
v -0.07383125 0.06450000 -0.04288008
v -0.07383125 0.06450320 -0.04287689
v -0.07382106 0.06450000 -0.04288137
v -0.07300000 0.06450000 -0.04294918
v -0.07300000 0.06476012 -0.04265257
v -0.07382715 0.06502754 -0.04216854
v -0.07300000 0.06519615 -0.04200000
v -0.07300000 0.06450000 -0.03900000
v -0.07381940 0.06543665 -0.04140237
v -0.07300000 0.06554328 -0.04129610
v -0.07465169 0.06552665 -0.04065169
v -0.07460378 0.06572483 -0.03980881
v -0.07455291 0.06579555 -0.03900000
v -0.07380881 0.06572483 -0.04060378
v -0.07300000 0.06579555 -0.04055291
v -0.07379637 0.06589335 -0.03979637
v -0.07378316 0.06594867 -0.03900000
v -0.07300000 0.06594867 -0.03978316
v -0.07300000 0.06600000 -0.03900000
f 3 6 1
f 7 3 1
f 19 3 4
f 19 4 2
f 4 20 2
f 3 5 4
f 3 7 5
f 5 20 4
f 26 12 3
f 7 16 5
f 20 5 21
f 16 21 5
f 6 9 8
f 11 6 8
f 7 6 11
f 3 12 6
f 6 7 1
f 14 7 11
f 9 11 8
f 11 9 10
f 6 12 9
f 9 12 10
f 12 11 10
f 13 11 12
f 13 14 11
f 12 15 13
f 7 14 16
f 15 14 13
f 12 18 15
f 14 17 16
f 14 15 17
f 17 33 16
f 15 18 17
f 12 41 18
f 18 34 17
f 20 19 2
f 26 3 19
f 22 19 20
f 23 19 22
f 24 22 20
f 20 28 24
f 28 20 21
f 31 28 21
f 24 23 22
f 23 24 25
f 26 19 23
f 26 23 25
f 24 26 25
f 24 28 27
f 26 24 27
f 27 29 26
f 28 29 27
f 32 26 29
f 28 31 29
f 12 26 30
f 41 12 30
f 26 41 30
f 33 31 21
f 31 36 32
f 31 32 29
f 41 26 32
f 33 21 16
f 34 33 17
f 33 36 31
f 34 36 33
f 38 36 34
f 34 18 35
f 18 39 35
f 38 34 35
f 35 39 38
f 18 41 39
f 36 38 37
f 32 36 37
f 40 32 37
f 38 40 37
f 32 40 41
f 38 39 40
f 41 40 39

