# https://github.com/mikedh/trimesh
v 0.03500000 0.06000000 0.07150000
v 0.03500000 0.06000000 0.07300000
v 0.03500000 0.06078316 0.07294867
v 0.03500000 0.06155291 0.07279555
v 0.03500000 0.06394918 0.07150000
v 0.03500000 0.06365257 0.07176012
v 0.03500000 0.06300000 0.07219615
v 0.03500000 0.06229610 0.07254328
v 0.03550000 0.06000000 0.07150000
v 0.03550000 0.06000000 0.07296723
v 0.03550000 0.06028316 0.07294867
v 0.03550000 0.06079145 0.07291394
v 0.03550000 0.06107792 0.07285696
v 0.03550000 0.06158436 0.07275184
v 0.03550000 0.06186811 0.07265551
v 0.03550000 0.06390789 0.07150000
v 0.03550000 0.06378750 0.07160558
v 0.03550000 0.06335998 0.07192177
v 0.03550000 0.06310188 0.07209423
v 0.03550000 0.06236095 0.07247821
v 0.03550000 0.06263533 0.07234290
f 2 5 1
f 9 2 1
f 5 9 1
f 8 2 3
f 8 3 4
f 2 10 3
f 3 13 4
f 14 8 4
f 5 7 6
f 5 8 7
f 5 6 17
f 7 19 6
f 5 2 8
f 8 20 7
f 2 9 10
f 3 10 11
f 12 3 11
f 13 3 12
f 13 14 4
f 8 14 15
f 9 20 10
f 10 12 11
f 10 13 12
f 10 20 13
f 13 20 14
f 14 20 15
f 9 5 16
f 19 7 21
f 16 5 17
f 6 18 17
f 6 19 18
f 20 9 16
f 17 18 16
f 19 16 18
f 20 16 19
f 20 8 15
f 7 20 21
f 20 19 21

