# https://github.com/mikedh/trimesh
v 0.03550000 0.05800000 0.07150000
v 0.03550000 0.05800000 0.07296723
v 0.03578316 0.05800000 0.07294867
v 0.03655291 0.05800000 0.07279555
v 0.03550000 0.06000000 0.07150000
v 0.03550000 0.06000000 0.07296723
v 0.03578316 0.06000000 0.07294867
v 0.03655291 0.06000000 0.07279555
v 0.03800000 0.05800000 0.07219615
v 0.03894918 0.05800000 0.07150000
v 0.03865257 0.05800000 0.07176012
v 0.03729610 0.05800000 0.07254328
v 0.03800000 0.06000000 0.07219615
v 0.03894918 0.06000000 0.07150000
v 0.03865257 0.06000000 0.07176012
v 0.03729610 0.06000000 0.07254328
f 2 5 1
f 2 1 10
f 2 4 3
f 7 2 3
f 4 7 3
f 2 9 4
f 16 4 12
f 5 14 1
f 14 5 6
f 5 2 6
f 6 2 7
f 8 7 4
f 8 6 7
f 8 4 16
f 16 6 8
f 2 10 9
f 10 1 14
f 11 9 10
f 10 14 11
f 13 9 11
f 4 9 12
f 9 16 12
f 14 16 13
f 11 14 15
f 13 11 15
f 14 13 15
f 16 9 13
f 14 6 16

