# https://github.com/mikedh/trimesh
v -0.07854328 -0.02000000 -0.04129610
v -0.07879555 -0.02000000 -0.04055291
v -0.07894867 -0.02000000 -0.03978316
v -0.07900000 -0.02000000 -0.03900000
v -0.07854328 0.00000000 -0.04129610
v -0.07879555 0.00000000 -0.04055291
v -0.07894867 0.00000000 -0.03978316
v -0.07900000 0.00000000 -0.03900000
v -0.07819615 -0.02000000 -0.04200000
v -0.07776012 -0.02000000 -0.04265257
v -0.07750000 -0.02000000 -0.04294918
v -0.07750000 -0.02000000 -0.03900000
v -0.07819615 0.00000000 -0.04200000
v -0.07776012 0.00000000 -0.04265257
v -0.07750000 0.00000000 -0.04294918
v -0.07750000 0.00000000 -0.03900000
f 11 4 1
f 1 13 9
f 1 4 3
f 1 3 2
f 3 6 2
f 6 1 2
f 4 7 3
f 5 1 6
f 1 5 13
f 7 6 3
f 4 8 7
f 8 5 7
f 7 5 6
f 4 16 8
f 5 8 16
f 11 1 9
f 9 14 10
f 11 9 10
f 14 11 10
f 4 11 12
f 16 4 12
f 11 16 12
f 13 14 9
f 5 15 13
f 15 11 14
f 11 15 16
f 13 15 14
f 5 16 15

