# https://github.com/mikedh/trimesh
v 0.00000000 -0.06394918 0.07150000
v 0.00000000 -0.06365257 0.07176012
v 0.00000000 -0.06300000 0.07219615
v 0.00000000 -0.06229610 0.07254328
v 0.00000000 -0.06000000 0.07150000
v 0.00000000 -0.06155291 0.07279555
v 0.00000000 -0.06078316 0.07294867
v 0.00000000 -0.06000000 0.07300000
v 0.02000000 -0.06394918 0.07150000
v 0.02000000 -0.06365257 0.07176012
v 0.02000000 -0.06300000 0.07219615
v 0.02000000 -0.06229610 0.07254328
v 0.02000000 -0.06000000 0.07150000
v 0.02000000 -0.06155291 0.07279555
v 0.02000000 -0.06078316 0.07294867
v 0.02000000 -0.06000000 0.07300000
f 3 1 2
f 4 1 3
f 1 9 2
f 11 3 2
f 9 1 5
f 8 1 4
f 4 3 11
f 1 8 5
f 5 8 13
f 8 4 6
f 8 6 7
f 4 14 6
f 6 15 7
f 15 8 7
f 2 9 10
f 11 2 10
f 9 11 10
f 9 14 11
f 4 11 12
f 14 4 12
f 11 14 12
f 9 5 13
f 13 14 9
f 6 14 15
f 13 8 16
f 15 16 8
f 14 13 16
f 14 16 15

