# https://github.com/mikedh/trimesh
v -0.05800000 -0.06600000 0.03500000
v -0.05408758 -0.06600000 0.03500000
v -0.05800000 -0.06600000 0.03700000
v -0.05800000 -0.06450000 0.03500000
v -0.05408758 -0.06450000 0.03500000
v -0.05800000 -0.06450000 0.03700000
v -0.05000000 -0.06600000 0.03600000
v -0.05000000 -0.06600000 0.03700000
v -0.05000000 -0.06450000 0.03600000
v -0.05000000 -0.06450000 0.03700000
f 2 1 4
f 3 4 1
f 7 1 2
f 7 3 1
f 2 4 5
f 4 9 5
f 4 3 6
f 3 10 6
f 10 4 6
f 9 7 2
f 3 7 8
f 10 3 8
f 7 10 8
f 9 2 5
f 4 10 9
f 10 7 9

