# https://github.com/mikedh/trimesh
v 0.03550000 0.06000000 0.07146723
v 0.03550000 0.06000000 0.07150000
v 0.03704137 0.06000000 0.07100000
v 0.03550000 0.06446723 0.06700000
v 0.03550000 0.06450000 0.06700000
v 0.03704137 0.06400000 0.06700000
v 0.03550000 0.06390789 0.07150000
v 0.03582106 0.06388137 0.07150000
v 0.03583125 0.06388008 0.07150000
v 0.03583776 0.06387824 0.07150000
v 0.03550000 0.06450000 0.07090789
v 0.03582106 0.06450000 0.07088137
v 0.03583125 0.06450000 0.07088008
v 0.03583776 0.06450000 0.07087824
v 0.03550000 0.06402264 0.07139937
v 0.03550000 0.06439937 0.07102264
v 0.03705278 0.06335845 0.07150000
v 0.03705278 0.06450000 0.07035845
v 0.03672094 0.06354765 0.07150000
v 0.03672094 0.06450000 0.07054765
v 0.03672741 0.06406301 0.07106301
v 0.03835845 0.06205278 0.07150000
v 0.03894918 0.06000000 0.07150000
v 0.03888137 0.06082106 0.07150000
v 0.03888008 0.06083125 0.07150000
v 0.03887824 0.06083776 0.07150000
v 0.03945543 0.06000000 0.07100000
v 0.03924264 0.06000000 0.07124264
v 0.03941549 0.06055145 0.07100000
v 0.03938008 0.06083125 0.07100000
v 0.03854765 0.06172094 0.07150000
v 0.03921202 0.06142404 0.07100000
v 0.03906301 0.06172741 0.07106301
v 0.03907363 0.06181579 0.07100000
v 0.03911643 0.06172662 0.07100000
v 0.03835845 0.06450000 0.06905278
v 0.03894918 0.06450000 0.06700000
v 0.03888137 0.06450000 0.06782106
v 0.03888008 0.06450000 0.06783125
v 0.03887824 0.06450000 0.06783776
v 0.03945543 0.06400000 0.06700000
v 0.03941549 0.06400000 0.06755145
v 0.03924264 0.06424264 0.06700000
v 0.03938008 0.06400000 0.06783125
v 0.03854765 0.06450000 0.06872094
v 0.03921202 0.06400000 0.06842404
v 0.03907363 0.06400000 0.06881579
v 0.03906301 0.06406301 0.06872741
v 0.03911643 0.06400000 0.06872662
v 0.03795579 0.06259780 0.07150000
v 0.03759780 0.06295579 0.07150000
v 0.03842541 0.06262170 0.07117052
v 0.03843475 0.06282504 0.07100000
v 0.03795579 0.06450000 0.06959780
v 0.03759780 0.06450000 0.06995579
v 0.03842541 0.06417052 0.06962170
v 0.03843475 0.06400000 0.06982504
v 0.03762170 0.06342541 0.07117052
v 0.03782504 0.06343475 0.07100000
v 0.03762170 0.06400000 0.07059593
v 0.03762170 0.06417052 0.07042541
v 0.03782504 0.06400000 0.07043475
v 0.03859593 0.06262170 0.07100000
v 0.03859593 0.06400000 0.06962170
f 3 1 4
f 7 1 2
f 1 23 2
f 27 1 3
f 23 7 2
f 1 5 4
f 3 4 6
f 5 41 4
f 4 41 6
f 37 5 11
f 7 5 1
f 5 7 11
f 15 7 8
f 7 9 8
f 9 15 8
f 11 16 12
f 12 14 11
f 14 12 13
f 16 7 15
f 9 16 15
f 11 7 16
f 16 9 12
f 12 9 13
f 9 14 13
f 9 19 10
f 7 51 9
f 19 21 10
f 14 18 11
f 14 21 20
f 9 21 14
f 21 9 10
f 23 51 7
f 19 51 17
f 51 58 17
f 18 45 11
f 18 61 55
f 19 9 51
f 18 14 20
f 21 18 20
f 58 19 17
f 58 21 19
f 60 21 58
f 18 21 61
f 21 60 61
f 27 23 1
f 31 51 23
f 50 31 22
f 31 52 22
f 25 23 24
f 25 31 23
f 23 28 24
f 28 25 24
f 25 28 29
f 29 28 27
f 23 27 28
f 25 30 26
f 30 25 29
f 27 3 41
f 27 42 29
f 42 30 29
f 30 44 32
f 31 25 26
f 33 31 26
f 52 31 33
f 52 33 34
f 30 33 26
f 33 32 35
f 33 30 32
f 34 33 35
f 41 3 6
f 41 5 37
f 37 11 45
f 45 54 36
f 56 45 36
f 27 41 42
f 42 44 30
f 46 32 44
f 37 39 38
f 37 40 39
f 37 45 40
f 43 37 38
f 39 43 38
f 42 43 39
f 42 41 43
f 41 37 43
f 44 40 46
f 39 40 44
f 44 42 39
f 40 45 48
f 48 45 56
f 47 48 64
f 46 40 48
f 49 46 48
f 48 47 49
f 58 51 52
f 58 53 59
f 51 31 50
f 52 51 50
f 52 50 22
f 53 58 52
f 45 18 54
f 54 18 55
f 57 61 62
f 61 56 55
f 54 55 56
f 54 56 36
f 57 56 61
f 60 58 59
f 59 62 60
f 61 60 62
f 53 62 59
f 62 53 57
f 47 64 34
f 35 32 49
f 35 49 34
f 49 32 46
f 49 47 34
f 63 34 64
f 52 34 63
f 53 52 63
f 53 63 57
f 63 64 57
f 56 64 48
f 64 56 57

