# https://github.com/mikedh/trimesh
v -0.07300000 -0.06600000 0.06700000
v -0.07300000 -0.06594867 0.06778316
v -0.07300000 -0.06579555 0.06855291
v -0.07300000 -0.06554328 0.06929610
v -0.07300000 -0.06450000 0.06700000
v -0.07300000 -0.06519615 0.07000000
v -0.07300000 -0.06476012 0.07065257
v -0.07300000 -0.06450000 0.07094918
v -0.07100000 -0.06600000 0.06700000
v -0.07100000 -0.06594867 0.06778316
v -0.07100000 -0.06579555 0.06855291
v -0.07100000 -0.06554328 0.06929610
v -0.07100000 -0.06450000 0.06700000
v -0.07100000 -0.06519615 0.07000000
v -0.07100000 -0.06476012 0.07065257
v -0.07100000 -0.06450000 0.07094918
f 3 1 2
f 4 1 3
f 1 10 2
f 10 3 2
f 5 9 1
f 8 1 4
f 12 4 3
f 4 14 6
f 8 5 1
f 5 8 13
f 8 4 6
f 8 6 7
f 6 15 7
f 15 8 7
f 1 9 10
f 3 10 11
f 12 3 11
f 9 12 10
f 10 12 11
f 12 14 4
f 9 16 12
f 9 5 13
f 9 13 16
f 14 15 6
f 8 16 13
f 16 8 15
f 12 16 14
f 14 16 15

