# https://github.com/mikedh/trimesh
v -0.07694918 0.06450000 0.06700000
v -0.07688137 0.06450000 0.06782106
v -0.07688008 0.06450000 0.06783125
v -0.07687689 0.06450320 0.06783125
v -0.07687824 0.06450000 0.06783776
v -0.07665257 0.06476012 0.06700000
v -0.07654765 0.06450000 0.06872094
v -0.07631905 0.06469384 0.06871807
v -0.07616854 0.06502754 0.06782715
v -0.07600000 0.06519615 0.06700000
v -0.07550102 0.06518495 0.06869151
v -0.07635845 0.06450000 0.06905278
v -0.07595579 0.06450000 0.06959780
v -0.07559780 0.06450000 0.06995579
v -0.07557860 0.06476463 0.06957860
v -0.07505278 0.06450000 0.07035845
v -0.07540237 0.06543665 0.06781940
v -0.07529610 0.06554328 0.06700000
v -0.07300000 0.06450000 0.06700000
v -0.07472094 0.06450000 0.07054765
v -0.07471807 0.06469384 0.07031905
v -0.07469151 0.06518495 0.06950102
v -0.07383776 0.06450000 0.07087824
v -0.07383125 0.06450000 0.07088008
v -0.07383125 0.06450320 0.07087689
v -0.07382106 0.06450000 0.07088137
v -0.07300000 0.06450000 0.07094918
v -0.07300000 0.06476012 0.07065257
v -0.07382715 0.06502754 0.07016854
v -0.07300000 0.06519615 0.07000000
v -0.07465169 0.06552665 0.06865169
v -0.07455291 0.06579555 0.06700000
v -0.07460378 0.06572483 0.06780881
v -0.07378316 0.06594867 0.06700000
v -0.07379637 0.06589335 0.06779637
v -0.07300000 0.06600000 0.06700000
v -0.07300000 0.06594867 0.06778316
v -0.07380881 0.06572483 0.06860378
v -0.07300000 0.06579555 0.06855291
v -0.07381940 0.06543665 0.06940237
v -0.07300000 0.06554328 0.06929610
f 6 1 2
f 1 3 2
f 4 6 2
f 4 2 3
f 4 3 5
f 1 7 3
f 6 10 1
f 4 9 6
f 7 5 3
f 8 4 5
f 7 8 5
f 1 13 7
f 8 7 12
f 9 4 8
f 9 10 6
f 18 1 10
f 11 9 8
f 10 9 17
f 9 11 17
f 7 13 12
f 13 15 12
f 15 8 12
f 13 14 15
f 1 27 13
f 15 14 21
f 13 20 14
f 14 20 16
f 21 14 16
f 11 8 15
f 15 22 11
f 15 21 22
f 18 10 17
f 36 1 18
f 18 17 33
f 31 17 11
f 27 1 19
f 1 36 19
f 36 27 19
f 20 21 16
f 13 27 20
f 21 20 25
f 25 20 23
f 20 24 23
f 25 29 21
f 29 40 22
f 21 29 22
f 20 27 24
f 24 25 23
f 25 24 26
f 27 25 26
f 24 27 26
f 29 25 28
f 25 27 28
f 27 30 28
f 40 29 30
f 28 30 29
f 27 41 30
f 11 22 31
f 33 17 31
f 38 31 40
f 18 33 32
f 34 18 32
f 33 35 32
f 18 34 36
f 35 34 32
f 38 33 31
f 35 33 38
f 35 37 34
f 36 34 37
f 35 38 39
f 38 41 39
f 41 37 39
f 39 37 35
f 41 36 37
f 22 40 31
f 41 38 40
f 27 36 41
f 41 40 30

