# https://github.com/mikedh/trimesh
v 0.03550000 -0.06390789 0.07150000
v 0.03550000 -0.06378750 0.07160558
v 0.03582106 -0.06388137 0.07150000
v 0.03583125 -0.06388008 0.07150000
v 0.03583776 -0.06387824 0.07150000
v 0.03583125 -0.06387689 0.07150320
v 0.03550000 -0.06335998 0.07192177
v 0.03582715 -0.06316854 0.07202754
v 0.03550000 -0.06310188 0.07209423
v 0.03672094 -0.06354765 0.07150000
v 0.03671807 -0.06331905 0.07169384
v 0.03705278 -0.06335845 0.07150000
v 0.03669151 -0.06250102 0.07218495
v 0.03550000 -0.06263533 0.07234290
v 0.03550000 -0.06236095 0.07247821
v 0.03581940 -0.06240237 0.07243665
v 0.03550000 -0.06000000 0.07150000
v 0.03550000 -0.06186811 0.07265551
v 0.03550000 -0.06158436 0.07275184
v 0.03580881 -0.06160378 0.07272483
v 0.03550000 -0.06107792 0.07285696
v 0.03550000 -0.06079145 0.07291394
v 0.03579637 -0.06079637 0.07289335
v 0.03550000 -0.06028316 0.07294867
v 0.03550000 -0.06000000 0.07296723
v 0.03578316 -0.06000000 0.07294867
v 0.03665169 -0.06165169 0.07252665
v 0.03660378 -0.06080881 0.07272483
v 0.03655291 -0.06000000 0.07279555
v 0.03759780 -0.06295579 0.07150000
v 0.03757860 -0.06257860 0.07176463
v 0.03795579 -0.06259780 0.07150000
v 0.03835845 -0.06205278 0.07150000
v 0.03750102 -0.06169151 0.07218495
v 0.03800000 -0.06000000 0.07219615
v 0.03831905 -0.06171807 0.07169384
v 0.03854765 -0.06172094 0.07150000
v 0.03887824 -0.06083776 0.07150000
v 0.03888008 -0.06083125 0.07150000
v 0.03887689 -0.06083125 0.07150320
v 0.03888137 -0.06082106 0.07150000
v 0.03894918 -0.06000000 0.07150000
v 0.03865257 -0.06000000 0.07176012
v 0.03816854 -0.06082715 0.07202754
v 0.03740237 -0.06081940 0.07243665
v 0.03729610 -0.06000000 0.07254328
f 1 6 2
f 7 1 2
f 6 7 2
f 6 1 3
f 1 5 3
f 3 5 4
f 6 3 4
f 5 6 4
f 9 1 7
f 8 7 6
f 1 10 5
f 11 6 5
f 11 8 6
f 8 9 7
f 15 1 9
f 16 9 8
f 16 8 13
f 10 11 5
f 1 32 10
f 11 10 12
f 10 30 12
f 30 11 12
f 8 11 13
f 11 31 13
f 15 9 14
f 9 16 14
f 16 15 14
f 25 1 15
f 15 16 20
f 16 13 27
f 1 25 17
f 42 1 17
f 25 42 17
f 20 16 27
f 19 15 18
f 15 20 18
f 21 15 19
f 20 19 18
f 25 15 21
f 20 23 19
f 23 21 19
f 28 23 20
f 27 28 20
f 21 23 22
f 25 21 22
f 23 26 22
f 25 22 24
f 22 26 24
f 26 25 24
f 28 29 23
f 23 29 26
f 29 25 26
f 27 13 34
f 27 34 45
f 28 27 45
f 28 45 46
f 46 25 29
f 28 46 29
f 10 32 30
f 31 11 30
f 1 42 32
f 32 31 30
f 31 32 36
f 34 13 31
f 31 36 34
f 32 37 33
f 36 32 33
f 44 34 36
f 34 44 45
f 45 44 35
f 42 46 35
f 37 36 33
f 32 42 37
f 44 36 40
f 36 37 38
f 40 36 38
f 37 39 38
f 37 42 39
f 40 38 39
f 40 39 41
f 42 40 41
f 39 42 41
f 44 40 43
f 40 42 43
f 42 35 43
f 44 43 35
f 42 25 46
f 46 45 35

