# https://github.com/mikedh/trimesh
v -0.07750000 -0.05000000 0.06700000
v -0.07750000 -0.05000000 0.07094918
v -0.07724264 -0.05000000 0.07124264
v -0.07694918 -0.05000000 0.07150000
v -0.07750000 -0.02500000 0.06700000
v -0.07750000 -0.02500000 0.07094918
v -0.07724264 -0.02500000 0.07124264
v -0.07694918 -0.02500000 0.07150000
v -0.07300000 -0.05000000 0.07150000
v -0.07300000 -0.02500000 0.07150000
f 5 1 2
f 5 9 1
f 1 3 2
f 2 3 6
f 8 3 4
f 1 9 3
f 3 9 4
f 9 8 4
f 5 2 6
f 6 3 7
f 3 8 7
f 8 5 6
f 8 6 7
f 5 8 10
f 9 5 10
f 8 9 10

