# https://github.com/mikedh/trimesh
v -0.07900000 0.06000000 0.06700000
v -0.07894867 0.06000000 0.06778316
v -0.07894867 0.06078316 0.06700000
v -0.07889335 0.06079637 0.06779637
v -0.07879555 0.06000000 0.06855291
v -0.07872483 0.06080881 0.06860378
v -0.07879555 0.06155291 0.06700000
v -0.07872483 0.06160378 0.06780881
v -0.07852665 0.06165169 0.06865169
v -0.07854328 0.06000000 0.06929610
v -0.07843665 0.06081940 0.06940237
v -0.07854328 0.06229610 0.06700000
v -0.07843665 0.06240237 0.06781940
v -0.07750000 0.06000000 0.06700000
v -0.07819615 0.06000000 0.07000000
v -0.07802754 0.06082715 0.07016854
v -0.07818495 0.06169151 0.06950102
v -0.07776012 0.06000000 0.07065257
v -0.07750000 0.06000000 0.07094918
v -0.07750320 0.06083125 0.07087689
v -0.07750000 0.06082106 0.07088137
v -0.07750000 0.06083125 0.07088008
v -0.07750000 0.06083776 0.07087824
v -0.07769384 0.06171807 0.07031905
v -0.07750000 0.06172094 0.07054765
v -0.07818495 0.06250102 0.06869151
v -0.07819615 0.06300000 0.06700000
v -0.07802754 0.06316854 0.06782715
v -0.07776012 0.06365257 0.06700000
v -0.07750000 0.06394918 0.06700000
v -0.07750320 0.06387689 0.06783125
v -0.07750000 0.06388137 0.06782106
v -0.07750000 0.06388008 0.06783125
v -0.07750000 0.06387824 0.06783776
v -0.07769384 0.06331905 0.06871807
v -0.07750000 0.06354765 0.06872094
v -0.07776463 0.06257860 0.06957860
v -0.07750000 0.06259780 0.06995579
v -0.07750000 0.06295579 0.06959780
v -0.07750000 0.06205278 0.07035845
v -0.07750000 0.06335845 0.06905278
f 1 2 3
f 4 3 2
f 10 2 1
f 4 2 5
f 2 10 5
f 10 6 5
f 6 4 5
f 12 1 3
f 7 3 4
f 4 8 7
f 12 3 7
f 8 12 7
f 4 6 8
f 8 6 9
f 9 6 11
f 8 9 13
f 9 17 26
f 11 6 10
f 1 19 10
f 11 10 15
f 9 11 17
f 12 8 13
f 30 1 12
f 27 12 13
f 13 9 26
f 19 1 14
f 1 30 14
f 30 19 14
f 16 11 15
f 10 19 15
f 16 15 18
f 11 16 17
f 16 24 17
f 18 15 19
f 20 16 18
f 19 20 18
f 20 19 21
f 19 22 21
f 19 25 22
f 22 20 21
f 20 22 23
f 24 16 20
f 20 23 24
f 22 25 23
f 23 25 24
f 19 39 25
f 24 25 40
f 28 27 13
f 28 13 26
f 30 12 27
f 27 28 29
f 35 28 26
f 30 27 29
f 29 28 31
f 29 31 30
f 30 31 32
f 33 30 32
f 36 30 33
f 31 33 32
f 33 31 34
f 28 35 31
f 36 35 41
f 35 36 31
f 39 30 36
f 31 36 34
f 36 33 34
f 26 17 37
f 24 37 17
f 35 26 37
f 19 30 39
f 37 24 38
f 39 35 37
f 39 37 38
f 38 24 40
f 25 38 40
f 25 39 38
f 35 39 41
f 39 36 41

