# https://github.com/mikedh/trimesh
v -0.07854328 0.06000000 -0.04129610
v -0.07843665 0.06081940 -0.04140237
v -0.07879555 0.06000000 -0.04055291
v -0.07872483 0.06080881 -0.04060378
v -0.07894867 0.06000000 -0.03978316
v -0.07900000 0.06000000 -0.03900000
v -0.07889335 0.06079637 -0.03979637
v -0.07894867 0.06078316 -0.03900000
v -0.07872483 0.06160378 -0.03980881
v -0.07879555 0.06155291 -0.03900000
v -0.07852665 0.06165169 -0.04065169
v -0.07854328 0.06229610 -0.03900000
v -0.07843665 0.06240237 -0.03981940
v -0.07819615 0.06000000 -0.04200000
v -0.07802754 0.06082715 -0.04216854
v -0.07818495 0.06169151 -0.04150102
v -0.07776012 0.06000000 -0.04265257
v -0.07750000 0.06000000 -0.04294918
v -0.07750320 0.06083125 -0.04287689
v -0.07750000 0.06082106 -0.04288137
v -0.07750000 0.06083125 -0.04288008
v -0.07750000 0.06083776 -0.04287824
v -0.07769384 0.06171807 -0.04231905
v -0.07750000 0.06172094 -0.04254765
v -0.07750000 0.06000000 -0.03900000
v -0.07750000 0.06205278 -0.04235845
v -0.07776463 0.06257860 -0.04157860
v -0.07750000 0.06259780 -0.04195579
v -0.07750000 0.06295579 -0.04159780
v -0.07750000 0.06335845 -0.04105278
v -0.07818495 0.06250102 -0.04069151
v -0.07819615 0.06300000 -0.03900000
v -0.07802754 0.06316854 -0.03982715
v -0.07769384 0.06331905 -0.04071807
v -0.07750000 0.06354765 -0.04072094
v -0.07776012 0.06365257 -0.03900000
v -0.07750000 0.06387824 -0.03983776
v -0.07750320 0.06387689 -0.03983125
v -0.07750000 0.06388008 -0.03983125
v -0.07750000 0.06388137 -0.03982106
v -0.07750000 0.06394918 -0.03900000
f 1 4 2
f 14 1 2
f 18 6 1
f 2 11 16
f 1 6 5
f 3 5 7
f 1 5 3
f 4 1 3
f 7 4 3
f 6 8 5
f 7 5 8
f 7 9 4
f 4 9 11
f 7 8 10
f 12 8 6
f 9 7 10
f 8 12 10
f 12 9 10
f 4 11 2
f 11 9 13
f 11 31 16
f 11 13 31
f 13 9 12
f 6 41 12
f 13 12 32
f 18 1 14
f 14 15 17
f 15 14 2
f 23 15 16
f 15 2 16
f 18 14 17
f 17 15 19
f 17 19 18
f 21 18 20
f 18 19 20
f 19 21 20
f 21 19 22
f 24 18 21
f 15 23 19
f 24 21 22
f 19 24 22
f 23 24 19
f 28 18 24
f 24 23 26
f 6 18 25
f 41 6 25
f 18 41 25
f 23 16 27
f 16 31 27
f 34 27 31
f 23 28 26
f 28 24 26
f 28 23 27
f 41 18 28
f 28 27 29
f 27 34 29
f 35 28 29
f 29 34 30
f 35 29 30
f 13 33 31
f 33 13 32
f 33 34 31
f 12 41 32
f 33 32 36
f 34 33 38
f 34 35 30
f 41 28 35
f 37 35 34
f 38 37 34
f 39 35 37
f 38 33 36
f 36 32 41
f 41 35 39
f 38 39 37
f 39 38 40
f 38 41 40
f 41 39 40
f 41 38 36

