# https://github.com/mikedh/trimesh
v -0.07694918 -0.02500000 0.07150000
v -0.07665257 -0.02500000 0.07176012
v -0.07600000 -0.02500000 0.07219615
v -0.07529610 -0.02500000 0.07254328
v -0.07694918 -0.02000000 0.07150000
v -0.07665257 -0.02000000 0.07176012
v -0.07600000 -0.02000000 0.07219615
v -0.07529610 -0.02000000 0.07254328
v -0.07300000 -0.02500000 0.07150000
v -0.07455291 -0.02500000 0.07279555
v -0.07378316 -0.02500000 0.07294867
v -0.07300000 -0.02500000 0.07300000
v -0.07300000 -0.02000000 0.07150000
v -0.07455291 -0.02000000 0.07279555
v -0.07378316 -0.02000000 0.07294867
v -0.07300000 -0.02000000 0.07300000
f 1 3 2
f 1 4 3
f 5 1 2
f 3 7 2
f 1 5 9
f 1 12 4
f 7 3 4
f 5 2 6
f 2 7 6
f 7 5 6
f 14 5 7
f 7 4 8
f 4 14 8
f 14 7 8
f 12 1 9
f 12 9 13
f 4 12 10
f 14 4 10
f 14 10 11
f 11 10 12
f 12 16 11
f 9 5 13
f 13 5 14
f 14 11 15
f 12 13 16
f 11 16 15
f 13 14 16
f 16 14 15

