# https://github.com/mikedh/trimesh
v 0.03300000 0.06000000 0.07150000
v 0.03300000 0.06450000 0.06700000
v 0.03300000 0.06394918 0.07150000
v 0.03300000 0.06450000 0.07094918
v 0.03300000 0.06424264 0.07124264
v 0.03500000 0.06000000 0.07150000
v 0.03500000 0.06450000 0.06700000
v 0.03500000 0.06394918 0.07150000
v 0.03500000 0.06450000 0.07094918
v 0.03500000 0.06424264 0.07124264
f 2 6 1
f 6 3 1
f 3 2 1
f 2 3 4
f 4 3 5
f 9 2 4
f 3 10 5
f 10 4 5
f 6 2 7
f 2 9 7
f 3 6 8
f 3 8 10
f 9 4 10
f 9 6 7
f 6 9 8
f 10 8 9

