# https://github.com/mikedh/trimesh
v 0.03704137 -0.06000000 0.07100000
v 0.03550000 -0.06000000 0.07146723
v 0.03550000 -0.06000000 0.07150000
v 0.03704137 -0.05800000 0.07100000
v 0.03550000 -0.05800000 0.07146723
v 0.03550000 -0.05800000 0.07150000
v 0.03945543 -0.06000000 0.07100000
v 0.03924264 -0.06000000 0.07124264
v 0.03894918 -0.06000000 0.07150000
v 0.03945543 -0.05800000 0.07100000
v 0.03924264 -0.05800000 0.07124264
v 0.03894918 -0.05800000 0.07150000
f 7 3 1
f 1 3 2
f 5 1 2
f 3 5 2
f 4 1 5
f 3 6 5
f 5 6 4
f 3 12 6
f 12 4 6
f 4 7 1
f 8 9 7
f 7 10 8
f 3 7 9
f 12 3 9
f 12 9 8
f 7 4 10
f 8 10 11
f 4 12 10
f 10 12 11
f 12 8 11

