# https://github.com/mikedh/trimesh
v 0.03550000 -0.05300000 0.06700000
v 0.03550000 -0.05300000 0.07150000
v 0.03550000 -0.05000000 0.06700000
v 0.03550000 -0.05000000 0.07150000
v 0.03950000 -0.05300000 0.06700000
v 0.03894918 -0.05300000 0.07150000
v 0.03924264 -0.05300000 0.07124264
v 0.03950000 -0.05300000 0.07094918
v 0.03950000 -0.05000000 0.06700000
v 0.03894918 -0.05000000 0.07150000
v 0.03924264 -0.05000000 0.07124264
v 0.03950000 -0.05000000 0.07094918
f 2 3 1
f 5 2 1
f 3 5 1
f 3 2 4
f 4 2 10
f 3 4 11
f 2 5 7
f 2 7 6
f 10 2 6
f 7 5 8
f 5 12 8
f 7 10 6
f 12 7 8
f 5 3 9
f 3 11 9
f 5 9 12
f 11 4 10
f 7 11 10
f 11 7 12
f 12 9 11

