# https://github.com/mikedh/trimesh
v -0.07900000 0.05000000 0.06700000
v -0.07894867 0.05000000 0.06778316
v -0.07879555 0.05000000 0.06855291
v -0.07854328 0.05000000 0.06929610
v -0.07900000 0.05300000 0.06700000
v -0.07894867 0.05300000 0.06778316
v -0.07879555 0.05300000 0.06855291
v -0.07854328 0.05300000 0.06929610
v -0.07750000 0.05000000 0.06700000
v -0.07819615 0.05000000 0.07000000
v -0.07776012 0.05000000 0.07065257
v -0.07750000 0.05000000 0.07094918
v -0.07750000 0.05300000 0.06700000
v -0.07819615 0.05300000 0.07000000
v -0.07776012 0.05300000 0.07065257
v -0.07750000 0.05300000 0.07094918
f 1 4 2
f 4 3 2
f 5 1 2
f 6 2 3
f 5 9 1
f 4 8 3
f 4 1 12
f 4 10 8
f 5 2 6
f 6 3 7
f 3 8 7
f 8 5 6
f 8 6 7
f 8 10 14
f 16 5 8
f 9 12 1
f 12 9 13
f 4 12 10
f 10 11 14
f 10 12 11
f 12 16 11
f 9 5 13
f 13 5 16
f 14 11 15
f 16 8 14
f 12 13 16
f 11 16 15
f 16 14 15

