# https://github.com/mikedh/trimesh
v -0.07854328 -0.06229610 -0.03900000
v -0.07843665 -0.06240237 -0.03981940
v -0.07854328 -0.06000000 -0.04129610
v -0.07843665 -0.06081940 -0.04140237
v -0.07872483 -0.06160378 -0.03980881
v -0.07879555 -0.06155291 -0.03900000
v -0.07872483 -0.06080881 -0.04060378
v -0.07879555 -0.06000000 -0.04055291
v -0.07889335 -0.06079637 -0.03979637
v -0.07894867 -0.06078316 -0.03900000
v -0.07894867 -0.06000000 -0.03978316
v -0.07900000 -0.06000000 -0.03900000
v -0.07852665 -0.06165169 -0.04065169
v -0.07750000 -0.06335845 -0.04105278
v -0.07750000 -0.06205278 -0.04235845
v -0.07776463 -0.06257860 -0.04157860
v -0.07750000 -0.06295579 -0.04159780
v -0.07750000 -0.06259780 -0.04195579
v -0.07819615 -0.06300000 -0.03900000
v -0.07802754 -0.06316854 -0.03982715
v -0.07818495 -0.06250102 -0.04069151
v -0.07769384 -0.06331905 -0.04071807
v -0.07750000 -0.06354765 -0.04072094
v -0.07776012 -0.06365257 -0.03900000
v -0.07750000 -0.06387824 -0.03983776
v -0.07750320 -0.06387689 -0.03983125
v -0.07750000 -0.06388008 -0.03983125
v -0.07750000 -0.06388137 -0.03982106
v -0.07750000 -0.06394918 -0.03900000
v -0.07818495 -0.06169151 -0.04150102
v -0.07819615 -0.06000000 -0.04200000
v -0.07802754 -0.06082715 -0.04216854
v -0.07769384 -0.06171807 -0.04231905
v -0.07750000 -0.06172094 -0.04254765
v -0.07776012 -0.06000000 -0.04265257
v -0.07750000 -0.06083776 -0.04287824
v -0.07750320 -0.06083125 -0.04287689
v -0.07750000 -0.06083125 -0.04288008
v -0.07750000 -0.06082106 -0.04288137
v -0.07750000 -0.06000000 -0.04294918
v -0.07750000 -0.06000000 -0.03900000
f 21 2 13
f 1 5 2
f 1 2 19
f 29 12 1
f 13 4 30
f 3 4 7
f 3 31 4
f 12 40 3
f 9 7 5
f 5 7 13
f 6 10 9
f 1 12 10
f 1 10 6
f 5 1 6
f 9 5 6
f 9 11 8
f 3 11 12
f 7 9 8
f 11 3 8
f 3 7 8
f 9 10 11
f 12 11 10
f 5 13 2
f 7 4 13
f 30 21 13
f 16 22 21
f 30 33 16
f 16 21 30
f 22 17 14
f 17 23 14
f 18 23 17
f 18 33 15
f 34 18 15
f 18 17 16
f 16 17 22
f 33 18 16
f 40 29 18
f 22 20 21
f 29 1 19
f 24 19 20
f 20 2 21
f 2 20 19
f 26 20 22
f 23 27 25
f 26 23 25
f 22 23 26
f 23 22 14
f 18 29 23
f 20 26 24
f 29 19 24
f 27 26 25
f 26 27 28
f 23 29 27
f 27 29 28
f 29 26 28
f 26 29 24
f 30 32 33
f 32 30 4
f 3 40 31
f 32 31 35
f 31 32 4
f 32 37 33
f 33 34 15
f 37 34 33
f 40 18 34
f 38 34 36
f 34 37 36
f 37 32 35
f 35 31 40
f 37 38 36
f 38 37 39
f 40 34 38
f 40 38 39
f 37 40 39
f 40 37 35
f 12 29 41
f 40 12 41
f 29 40 41

