# https://github.com/mikedh/trimesh
v 0.03550000 -0.06450000 0.01100000
v 0.03550000 -0.06446723 0.01100000
v 0.03550000 -0.06450000 0.02700000
v 0.03550000 -0.06446723 0.02700000
v 0.03704137 -0.06400000 0.01100000
v 0.03704137 -0.06400000 0.02700000
v 0.03894918 -0.06450000 0.01100000
v 0.03894918 -0.06450000 0.02700000
v 0.03924264 -0.06424264 0.01100000
v 0.03945543 -0.06400000 0.01100000
v 0.03924264 -0.06424264 0.02700000
v 0.03945543 -0.06400000 0.02700000
f 2 1 3
f 5 1 2
f 7 3 1
f 5 7 1
f 2 3 4
f 6 2 4
f 3 6 4
f 6 5 2
f 3 12 6
f 7 9 8
f 3 7 8
f 12 3 8
f 8 9 11
f 10 7 5
f 7 10 9
f 5 12 10
f 10 12 9
f 12 5 6
f 9 12 11
f 12 8 11

