# https://github.com/mikedh/trimesh
v -0.07300000 0.06450000 0.06700000
v -0.07300000 0.06450000 0.07094918
v -0.07300000 0.06476012 0.07065257
v -0.07300000 0.06519615 0.07000000
v -0.07300000 0.06600000 0.06700000
v -0.07300000 0.06594867 0.06778316
v -0.07300000 0.06579555 0.06855291
v -0.07300000 0.06554328 0.06929610
v -0.07100000 0.06450000 0.06700000
v -0.07100000 0.06450000 0.07094918
v -0.07100000 0.06476012 0.07065257
v -0.07100000 0.06519615 0.07000000
v -0.07100000 0.06600000 0.06700000
v -0.07100000 0.06594867 0.06778316
v -0.07100000 0.06579555 0.06855291
v -0.07100000 0.06554328 0.06929610
f 5 1 2
f 5 9 1
f 4 2 3
f 8 2 4
f 1 10 2
f 2 10 3
f 4 3 12
f 5 7 6
f 5 8 7
f 14 5 6
f 7 14 6
f 8 5 2
f 16 8 4
f 7 8 16
f 9 10 1
f 10 9 13
f 3 10 11
f 12 3 11
f 10 12 11
f 10 16 12
f 9 5 13
f 13 5 14
f 7 16 15
f 14 7 15
f 16 14 15
f 16 13 14
f 16 4 12
f 10 13 16

