# https://github.com/mikedh/trimesh
v -0.06200000 -0.06600000 0.02700000
v -0.06200000 -0.06600000 0.03500000
v -0.06200000 -0.06450000 0.02700000
v -0.06200000 -0.06450000 0.03500000
v -0.05900000 -0.06600000 0.02700000
v -0.05800000 -0.06600000 0.03108758
v -0.05800000 -0.06600000 0.03500000
v -0.05900000 -0.06450000 0.02700000
v -0.05800000 -0.06450000 0.03108758
v -0.05800000 -0.06450000 0.03500000
f 2 3 1
f 5 2 1
f 3 5 1
f 3 2 4
f 2 10 4
f 10 3 4
f 5 9 6
f 2 5 7
f 10 2 7
f 7 5 6
f 9 7 6
f 5 3 8
f 3 10 8
f 5 8 9
f 10 7 9
f 9 8 10

