# https://github.com/mikedh/trimesh
v 0.03500000 -0.06450000 0.06700000
v 0.03500000 -0.06450000 0.07094918
v 0.03500000 -0.06424264 0.07124264
v 0.03500000 -0.06394918 0.07150000
v 0.03500000 -0.06000000 0.07150000
v 0.03550000 -0.06450000 0.06700000
v 0.03550000 -0.06446723 0.06700000
v 0.03550000 -0.06450000 0.07090789
v 0.03550000 -0.06439937 0.07102264
v 0.03550000 -0.06402264 0.07139937
v 0.03550000 -0.06390789 0.07150000
v 0.03550000 -0.06000000 0.07146723
v 0.03550000 -0.06000000 0.07150000
f 3 1 2
f 3 5 1
f 5 3 4
f 1 8 2
f 8 3 2
f 3 11 4
f 11 5 4
f 1 5 12
f 6 1 7
f 1 6 8
f 1 12 7
f 12 6 7
f 3 8 9
f 3 9 10
f 11 3 10
f 6 11 8
f 8 11 9
f 9 11 10
f 6 12 11
f 5 11 13
f 12 5 13
f 11 12 13

