# https://github.com/mikedh/trimesh
v 0.02500000 -0.06394918 0.07150000
v 0.02500000 -0.06365257 0.07176012
v 0.02500000 -0.06300000 0.07219615
v 0.02500000 -0.06229610 0.07254328
v 0.02500000 -0.06000000 0.07150000
v 0.02500000 -0.06155291 0.07279555
v 0.02500000 -0.06078316 0.07294867
v 0.02500000 -0.06000000 0.07300000
v 0.03300000 -0.06394918 0.07150000
v 0.03300000 -0.06365257 0.07176012
v 0.03300000 -0.06300000 0.07219615
v 0.03300000 -0.06229610 0.07254328
v 0.03300000 -0.06000000 0.07150000
v 0.03300000 -0.06155291 0.07279555
v 0.03300000 -0.06078316 0.07294867
v 0.03300000 -0.06000000 0.07300000
f 3 1 2
f 4 1 3
f 4 5 1
f 1 10 2
f 10 3 2
f 5 9 1
f 11 4 3
f 6 4 12
f 8 4 6
f 8 5 4
f 8 6 7
f 7 6 14
f 8 16 5
f 16 8 7
f 1 9 10
f 11 3 10
f 9 11 10
f 9 12 11
f 4 11 12
f 9 16 12
f 9 5 13
f 5 16 13
f 16 9 13
f 6 12 14
f 7 14 15
f 16 7 15
f 14 12 16
f 14 16 15

