# https://github.com/mikedh/trimesh
v -0.07724264 -0.06424264 0.06700000
v -0.07750000 -0.06394918 0.06700000
v -0.07694918 -0.06450000 0.06700000
v -0.07750000 -0.06388137 0.06782106
v -0.07750000 -0.06388008 0.06783125
v -0.07750000 -0.06387824 0.06783776
v -0.07688137 -0.06450000 0.06782106
v -0.07688008 -0.06450000 0.06783125
v -0.07687824 -0.06450000 0.06783776
v -0.07706301 -0.06406301 0.06872741
v -0.07750000 -0.06354765 0.06872094
v -0.07654765 -0.06450000 0.06872094
v -0.07750000 -0.06335845 0.06905278
v -0.07635845 -0.06450000 0.06905278
v -0.07717052 -0.06342541 0.06962170
v -0.07642541 -0.06417052 0.06962170
v -0.07646410 -0.06346410 0.07046410
v -0.07750000 -0.06295579 0.06959780
v -0.07750000 -0.06259780 0.06995579
v -0.07717052 -0.06262170 0.07042541
v -0.07642541 -0.06262170 0.07117052
v -0.07595579 -0.06450000 0.06959780
v -0.07559780 -0.06450000 0.06995579
v -0.07562170 -0.06417052 0.07042541
v -0.07562170 -0.06342541 0.07117052
v -0.07595579 -0.06259780 0.07150000
v -0.07559780 -0.06295579 0.07150000
v -0.07750000 -0.06000000 0.06700000
v -0.07750000 -0.06205278 0.07035845
v -0.07750000 -0.06172094 0.07054765
v -0.07706301 -0.06172741 0.07106301
v -0.07654765 -0.06172094 0.07150000
v -0.07750000 -0.06083776 0.07087824
v -0.07750000 -0.06083125 0.07088008
v -0.07750000 -0.06082106 0.07088137
v -0.07750000 -0.06000000 0.07094918
v -0.07724264 -0.06000000 0.07124264
v -0.07694918 -0.06000000 0.07150000
v -0.07687824 -0.06083776 0.07150000
v -0.07688008 -0.06083125 0.07150000
v -0.07688137 -0.06082106 0.07150000
v -0.07635845 -0.06205278 0.07150000
v -0.07300000 -0.06450000 0.06700000
v -0.07505278 -0.06450000 0.07035845
v -0.07472094 -0.06450000 0.07054765
v -0.07472741 -0.06406301 0.07106301
v -0.07472094 -0.06354765 0.07150000
v -0.07505278 -0.06335845 0.07150000
v -0.07383776 -0.06450000 0.07087824
v -0.07383125 -0.06450000 0.07088008
v -0.07382106 -0.06450000 0.07088137
v -0.07383776 -0.06387824 0.07150000
v -0.07383125 -0.06388008 0.07150000
v -0.07382106 -0.06388137 0.07150000
v -0.07300000 -0.06450000 0.07094918
v -0.07300000 -0.06424264 0.07124264
v -0.07300000 -0.06394918 0.07150000
v -0.07300000 -0.06000000 0.07150000
f 2 1 4
f 1 5 4
f 1 3 7
f 8 1 7
f 1 8 5
f 5 2 4
f 3 8 7
f 5 10 6
f 10 8 9
f 5 8 10
f 11 5 6
f 10 11 6
f 18 2 5
f 11 10 15
f 18 5 11
f 11 15 13
f 8 12 9
f 12 10 9
f 3 22 8
f 16 10 12
f 12 8 22
f 16 12 14
f 28 1 2
f 2 18 28
f 18 11 13
f 1 43 3
f 43 22 3
f 12 22 14
f 28 43 1
f 10 16 15
f 15 16 17
f 15 18 13
f 18 15 19
f 15 20 19
f 18 19 29
f 20 29 19
f 15 17 20
f 21 20 17
f 31 20 21
f 22 16 14
f 16 22 23
f 16 23 24
f 24 17 16
f 22 45 23
f 24 23 44
f 24 25 17
f 46 25 24
f 17 25 21
f 26 21 25
f 26 42 21
f 26 25 27
f 27 25 48
f 47 26 27
f 28 18 36
f 34 18 29
f 20 31 29
f 29 31 30
f 34 29 30
f 30 31 33
f 36 18 34
f 34 30 33
f 31 34 33
f 34 31 40
f 31 39 40
f 31 42 32
f 42 31 21
f 39 31 32
f 42 39 32
f 26 38 42
f 37 28 36
f 40 41 34
f 36 34 35
f 34 37 35
f 37 36 35
f 37 34 41
f 38 37 41
f 39 42 38
f 39 41 40
f 41 39 38
f 37 58 28
f 26 58 38
f 58 37 38
f 22 43 55
f 44 23 45
f 22 55 45
f 46 24 44
f 45 46 44
f 46 47 25
f 25 47 48
f 46 45 49
f 45 50 49
f 52 46 49
f 47 46 52
f 53 47 52
f 47 27 48
f 43 56 55
f 55 50 45
f 50 53 49
f 53 52 49
f 53 50 54
f 47 53 57
f 50 55 51
f 56 50 51
f 54 50 56
f 55 56 51
f 56 57 54
f 57 53 54
f 43 58 56
f 58 47 57
f 56 58 57
f 43 28 58
f 58 26 47

