# https://github.com/mikedh/trimesh
v -0.07694918 0.06450000 0.00200000
v -0.07665257 0.06476012 0.00200000
v -0.07600000 0.06519615 0.00200000
v -0.07694918 0.06450000 0.01000000
v -0.07665257 0.06476012 0.01000000
v -0.07600000 0.06519615 0.01000000
v -0.07529610 0.06554328 0.00200000
v -0.07529610 0.06554328 0.01000000
v -0.07300000 0.06450000 0.00200000
v -0.07300000 0.06450000 0.01000000
v -0.07455291 0.06579555 0.00200000
v -0.07378316 0.06594867 0.00200000
v -0.07300000 0.06600000 0.00200000
v -0.07455291 0.06579555 0.01000000
v -0.07378316 0.06594867 0.01000000
v -0.07300000 0.06600000 0.01000000
f 3 1 2
f 1 5 2
f 7 1 3
f 5 3 2
f 7 9 1
f 9 4 1
f 1 4 5
f 4 6 5
f 6 3 5
f 4 8 6
f 6 7 3
f 11 7 8
f 6 8 7
f 16 8 4
f 4 9 10
f 16 4 10
f 9 16 10
f 13 7 11
f 12 11 14
f 13 9 7
f 13 16 9
f 13 11 12
f 16 13 12
f 11 8 14
f 12 14 15
f 14 8 16
f 16 12 15
f 14 16 15

