# https://github.com/mikedh/trimesh
v 0.03500000 0.06450000 0.06700000
v 0.03500000 0.06450000 0.07094918
v 0.03500000 0.06476012 0.07065257
v 0.03500000 0.06519615 0.07000000
v 0.03500000 0.06600000 0.06700000
v 0.03500000 0.06594867 0.06778316
v 0.03500000 0.06579555 0.06855291
v 0.03500000 0.06554328 0.06929610
v 0.03550000 0.06450000 0.06700000
v 0.03550000 0.06450000 0.07090789
v 0.03550000 0.06460558 0.07078750
v 0.03550000 0.06492177 0.07035998
v 0.03550000 0.06509423 0.07010188
v 0.03550000 0.06596723 0.06700000
v 0.03550000 0.06594867 0.06728316
v 0.03550000 0.06591394 0.06779145
v 0.03550000 0.06565551 0.06886811
v 0.03550000 0.06575184 0.06858436
v 0.03550000 0.06585696 0.06807792
v 0.03550000 0.06534290 0.06963533
v 0.03550000 0.06547821 0.06936095
f 2 5 1
f 9 2 1
f 5 9 1
f 4 2 3
f 8 2 4
f 2 10 3
f 13 4 3
f 6 8 7
f 5 8 6
f 14 5 6
f 8 18 7
f 6 7 16
f 5 2 8
f 21 8 4
f 2 9 10
f 3 10 11
f 12 3 11
f 4 13 20
f 3 12 13
f 9 21 10
f 10 12 11
f 10 13 12
f 13 10 21
f 9 5 14
f 14 6 15
f 6 16 15
f 7 18 19
f 18 8 17
f 16 7 19
f 9 14 21
f 16 14 15
f 14 16 18
f 21 14 18
f 21 18 17
f 18 16 19
f 21 4 20
f 8 21 17
f 13 21 20

