# https://github.com/mikedh/trimesh
v 0.03550000 -0.06450000 0.02700000
v 0.03550000 -0.06446723 0.02700000
v 0.03550000 -0.06450000 0.03500000
v 0.03550000 -0.06446723 0.03500000
v 0.03704137 -0.06400000 0.02700000
v 0.03704137 -0.06400000 0.03500000
v 0.03894918 -0.06450000 0.02700000
v 0.03894918 -0.06450000 0.03500000
v 0.03924264 -0.06424264 0.02700000
v 0.03945543 -0.06400000 0.02700000
v 0.03924264 -0.06424264 0.03500000
v 0.03945543 -0.06400000 0.03500000
f 1 3 2
f 5 1 2
f 5 2 4
f 3 1 7
f 4 2 3
f 3 12 4
f 10 1 5
f 5 4 6
f 4 12 6
f 1 10 7
f 11 7 9
f 3 7 8
f 11 3 8
f 7 11 8
f 7 10 9
f 10 11 9
f 10 5 12
f 3 11 12
f 12 5 6
f 11 10 12

