# https://github.com/mikedh/trimesh
v -0.07300000 0.06450000 -0.04294918
v -0.07300000 0.06476012 -0.04265257
v -0.07300000 0.06519615 -0.04200000
v -0.07300000 0.06450000 -0.03900000
v -0.07300000 0.06554328 -0.04129610
v -0.07300000 0.06579555 -0.04055291
v -0.07300000 0.06594867 -0.03978316
v -0.07300000 0.06600000 -0.03900000
v -0.07100000 0.06450000 -0.04294918
v -0.07100000 0.06476012 -0.04265257
v -0.07100000 0.06519615 -0.04200000
v -0.07100000 0.06450000 -0.03900000
v -0.07100000 0.06554328 -0.04129610
v -0.07100000 0.06579555 -0.04055291
v -0.07100000 0.06594867 -0.03978316
v -0.07100000 0.06600000 -0.03900000
f 1 3 2
f 1 5 3
f 9 1 2
f 3 11 2
f 8 1 4
f 1 12 4
f 12 8 4
f 1 8 5
f 5 13 3
f 5 6 13
f 5 8 6
f 6 8 7
f 6 7 14
f 8 16 7
f 9 2 10
f 9 12 1
f 2 11 10
f 11 9 10
f 13 9 11
f 12 9 16
f 3 13 11
f 16 9 13
f 8 12 16
f 13 6 14
f 14 7 15
f 7 16 15
f 16 13 14
f 16 14 15

