# https://github.com/mikedh/trimesh
v -0.07750000 0.05800000 0.06700000
v -0.07750000 0.05800000 0.07094918
v -0.07724264 0.05800000 0.07124264
v -0.07694918 0.05800000 0.07150000
v -0.07750000 0.06000000 0.06700000
v -0.07750000 0.06000000 0.07094918
v -0.07724264 0.06000000 0.07124264
v -0.07694918 0.06000000 0.07150000
v -0.07300000 0.05800000 0.07150000
v -0.07300000 0.06000000 0.07150000
f 2 5 1
f 5 9 1
f 2 4 3
f 7 2 3
f 4 7 3
f 9 2 1
f 2 9 4
f 9 8 4
f 5 2 6
f 7 6 2
f 4 8 7
f 8 5 6
f 8 6 7
f 5 8 10
f 9 5 10
f 8 9 10

