# https://github.com/mikedh/trimesh
v 0.02500000 0.06000000 0.07150000
v 0.02500000 0.06450000 0.06700000
v 0.02500000 0.06394918 0.07150000
v 0.02500000 0.06450000 0.07094918
v 0.02500000 0.06424264 0.07124264
v 0.03300000 0.06000000 0.07150000
v 0.03300000 0.06450000 0.06700000
v 0.03300000 0.06394918 0.07150000
v 0.03300000 0.06450000 0.07094918
v 0.03300000 0.06424264 0.07124264
f 2 6 1
f 1 6 3
f 2 1 5
f 1 3 5
f 2 5 4
f 9 2 4
f 5 3 8
f 5 9 4
f 6 2 7
f 2 9 7
f 3 6 8
f 5 8 10
f 9 5 10
f 9 6 7
f 6 9 8
f 8 9 10

