# https://github.com/mikedh/trimesh
v 0.03550000 0.06450000 0.01100000
v 0.03550000 0.06450000 0.02700000
v 0.03550000 0.06596723 0.01100000
v 0.03578316 0.06594867 0.01100000
v 0.03655291 0.06579555 0.01100000
v 0.03550000 0.06596723 0.02700000
v 0.03578316 0.06594867 0.02700000
v 0.03655291 0.06579555 0.02700000
v 0.03800000 0.06519615 0.01100000
v 0.03894918 0.06450000 0.01100000
v 0.03865257 0.06476012 0.01100000
v 0.03800000 0.06519615 0.02700000
v 0.03894918 0.06450000 0.02700000
v 0.03865257 0.06476012 0.02700000
v 0.03729610 0.06554328 0.01100000
v 0.03729610 0.06554328 0.02700000
f 2 3 1
f 10 2 1
f 3 10 1
f 5 3 4
f 3 7 4
f 7 5 4
f 15 3 5
f 8 15 5
f 3 2 6
f 2 16 6
f 3 6 7
f 8 5 7
f 6 8 7
f 16 15 8
f 8 6 16
f 10 15 9
f 10 9 11
f 13 10 11
f 9 12 11
f 2 10 13
f 16 2 13
f 16 13 12
f 13 11 14
f 12 13 14
f 11 12 14
f 10 3 15
f 9 15 16
f 9 16 12

