# https://github.com/mikedh/trimesh
v -0.07300000 0.06000000 0.07150000
v -0.07300000 0.06000000 0.07300000
v -0.07300000 0.06078316 0.07294867
v -0.07300000 0.06155291 0.07279555
v -0.07300000 0.06394918 0.07150000
v -0.07300000 0.06365257 0.07176012
v -0.07300000 0.06300000 0.07219615
v -0.07300000 0.06229610 0.07254328
v -0.07100000 0.06000000 0.07150000
v -0.07100000 0.06000000 0.07300000
v -0.07100000 0.06078316 0.07294867
v -0.07100000 0.06155291 0.07279555
v -0.07100000 0.06394918 0.07150000
v -0.07100000 0.06365257 0.07176012
v -0.07100000 0.06300000 0.07219615
v -0.07100000 0.06229610 0.07254328
f 5 1 2
f 9 2 1
f 3 8 2
f 8 3 4
f 2 11 3
f 3 12 4
f 12 8 4
f 5 7 6
f 5 8 7
f 13 1 5
f 13 5 6
f 7 14 6
f 8 5 2
f 8 15 7
f 13 9 1
f 9 13 10
f 2 9 10
f 2 10 11
f 11 12 3
f 10 12 11
f 10 16 12
f 14 13 6
f 15 14 7
f 15 13 14
f 16 13 15
f 16 15 8
f 12 16 8
f 10 13 16

