# https://github.com/mikedh/trimesh
v -0.07300000 -0.06554328 -0.04129610
v -0.07300000 -0.06579555 -0.04055291
v -0.07300000 -0.06594867 -0.03978316
v -0.07300000 -0.06600000 -0.03900000
v -0.07300000 -0.06519615 -0.04200000
v -0.07300000 -0.06476012 -0.04265257
v -0.07300000 -0.06450000 -0.04294918
v -0.07300000 -0.06450000 -0.03900000
v -0.07100000 -0.06554328 -0.04129610
v -0.07100000 -0.06579555 -0.04055291
v -0.07100000 -0.06594867 -0.03978316
v -0.07100000 -0.06600000 -0.03900000
v -0.07100000 -0.06519615 -0.04200000
v -0.07100000 -0.06476012 -0.04265257
v -0.07100000 -0.06450000 -0.04294918
v -0.07100000 -0.06450000 -0.03900000
f 4 7 1
f 2 1 9
f 13 1 5
f 4 1 2
f 4 2 3
f 2 10 3
f 12 4 3
f 1 7 5
f 5 7 6
f 14 5 6
f 7 14 6
f 7 4 8
f 4 16 8
f 16 7 8
f 9 1 13
f 3 10 11
f 2 9 10
f 12 3 11
f 16 4 12
f 9 12 10
f 10 12 11
f 9 16 12
f 13 5 14
f 7 15 14
f 7 16 15
f 13 15 9
f 15 13 14
f 16 9 15

