# https://github.com/mikedh/trimesh
v -0.07750000 0.06000000 0.06550000
v -0.07750000 0.06000000 0.06700000
v -0.07750000 0.06394918 0.06550000
v -0.07724264 0.06424264 0.06550000
v -0.07694918 0.06450000 0.06550000
v -0.07750000 0.06394918 0.06700000
v -0.07724264 0.06424264 0.06700000
v -0.07694918 0.06450000 0.06700000
v -0.07300000 0.06450000 0.06550000
v -0.07300000 0.06450000 0.06700000
f 9 2 1
f 1 2 6
f 4 1 3
f 1 6 3
f 4 3 7
f 4 8 5
f 4 9 1
f 9 4 5
f 8 9 5
f 2 8 6
f 6 7 3
f 8 4 7
f 6 8 7
f 8 2 10
f 2 9 10
f 9 8 10

