# https://github.com/mikedh/trimesh
v 0.03300000 -0.06450000 0.06700000
v 0.03300000 -0.06450000 0.07094918
v 0.03300000 -0.06424264 0.07124264
v 0.03300000 -0.06394918 0.07150000
v 0.03300000 -0.06000000 0.07150000
v 0.03500000 -0.06450000 0.06700000
v 0.03500000 -0.06450000 0.07094918
v 0.03500000 -0.06424264 0.07124264
v 0.03500000 -0.06394918 0.07150000
v 0.03500000 -0.06000000 0.07150000
f 6 2 1
f 5 6 1
f 3 4 2
f 2 5 1
f 5 2 4
f 3 2 8
f 9 4 3
f 9 5 4
f 2 6 7
f 2 7 8
f 9 3 8
f 6 9 7
f 7 9 8
f 9 6 10
f 6 5 10
f 5 9 10

