# https://github.com/mikedh/trimesh
v -0.07750000 -0.06295579 -0.04159780
v -0.07750000 -0.06205278 -0.04235845
v -0.07776463 -0.06257860 -0.04157860
v -0.07750000 -0.06259780 -0.04195579
v -0.07818495 -0.06250102 -0.04069151
v -0.07843665 -0.06240237 -0.03981940
v -0.07769384 -0.06331905 -0.04071807
v -0.07750000 -0.06354765 -0.04072094
v -0.07750000 -0.06335845 -0.04105278
v -0.07802754 -0.06316854 -0.03982715
v -0.07750320 -0.06387689 -0.03983125
v -0.07750000 -0.06387824 -0.03983776
v -0.07750000 -0.06388137 -0.03982106
v -0.07750000 -0.06388008 -0.03983125
v -0.07595579 -0.06450000 -0.04159780
v -0.07559780 -0.06450000 -0.04195579
v -0.07557860 -0.06476463 -0.04157860
v -0.07654765 -0.06450000 -0.04072094
v -0.07635845 -0.06450000 -0.04105278
v -0.07631905 -0.06469384 -0.04071807
v -0.07687689 -0.06450320 -0.03983125
v -0.07687824 -0.06450000 -0.03983776
v -0.07688008 -0.06450000 -0.03983125
v -0.07688137 -0.06450000 -0.03982106
v -0.07550102 -0.06518495 -0.04069151
v -0.07616854 -0.06502754 -0.03982715
v -0.07540237 -0.06543665 -0.03981940
v -0.07750000 -0.06394918 -0.03900000
v -0.07819615 -0.06300000 -0.03900000
v -0.07854328 -0.06229610 -0.03900000
v -0.07776012 -0.06365257 -0.03900000
v -0.07694918 -0.06450000 -0.03900000
v -0.07665257 -0.06476012 -0.03900000
v -0.07600000 -0.06519615 -0.03900000
v -0.07529610 -0.06554328 -0.03900000
v -0.07818495 -0.06169151 -0.04150102
v -0.07854328 -0.06000000 -0.04129610
v -0.07843665 -0.06081940 -0.04140237
v -0.07819615 -0.06000000 -0.04200000
v -0.07769384 -0.06171807 -0.04231905
v -0.07750000 -0.06172094 -0.04254765
v -0.07802754 -0.06082715 -0.04216854
v -0.07776012 -0.06000000 -0.04265257
v -0.07750320 -0.06083125 -0.04287689
v -0.07750000 -0.06083776 -0.04287824
v -0.07750000 -0.06083125 -0.04288008
v -0.07750000 -0.06082106 -0.04288137
v -0.07750000 -0.06000000 -0.04294918
v -0.07852665 -0.06165169 -0.04065169
v -0.07872483 -0.06160378 -0.03980881
v -0.07872483 -0.06080881 -0.04060378
v -0.07879555 -0.06000000 -0.04055291
v -0.07889335 -0.06079637 -0.03979637
v -0.07894867 -0.06000000 -0.03978316
v -0.07879555 -0.06155291 -0.03900000
v -0.07894867 -0.06078316 -0.03900000
v -0.07900000 -0.06000000 -0.03900000
v -0.07750000 -0.06000000 -0.03900000
v -0.07469151 -0.06518495 -0.04150102
v -0.07505278 -0.06450000 -0.04235845
v -0.07472094 -0.06450000 -0.04254765
v -0.07471807 -0.06469384 -0.04231905
v -0.07382715 -0.06502754 -0.04216854
v -0.07381940 -0.06543665 -0.04140237
v -0.07383125 -0.06450320 -0.04287689
v -0.07383125 -0.06450000 -0.04288008
v -0.07383776 -0.06450000 -0.04287824
v -0.07382106 -0.06450000 -0.04288137
v -0.07465169 -0.06552665 -0.04065169
v -0.07460378 -0.06572483 -0.03980881
v -0.07380881 -0.06572483 -0.04060378
v -0.07379637 -0.06589335 -0.03979637
v -0.07300000 -0.06554328 -0.04129610
v -0.07300000 -0.06519615 -0.04200000
v -0.07300000 -0.06476012 -0.04265257
v -0.07300000 -0.06450000 -0.04294918
v -0.07300000 -0.06579555 -0.04055291
v -0.07300000 -0.06594867 -0.03978316
v -0.07455291 -0.06579555 -0.03900000
v -0.07378316 -0.06594867 -0.03900000
v -0.07300000 -0.06600000 -0.03900000
v -0.07750000 -0.06394918 -0.03500000
v -0.07724264 -0.06424264 -0.03500000
v -0.07694918 -0.06450000 -0.03500000
v -0.07689711 -0.06225000 -0.03500000
v -0.07657009 -0.06273943 -0.03500000
v -0.07573943 -0.06357009 -0.03500000
v -0.07618198 -0.06318198 -0.03500000
v -0.07715746 -0.06172208 -0.03500000
v -0.07734667 -0.06116469 -0.03500000
v -0.07746150 -0.06058737 -0.03500000
v -0.07750000 -0.06000000 -0.03500000
v -0.07472208 -0.06415746 -0.03500000
v -0.07416469 -0.06434667 -0.03500000
v -0.07358737 -0.06446150 -0.03500000
v -0.07525000 -0.06389711 -0.03500000
v -0.07300000 -0.06450000 -0.03500000
v -0.07100000 -0.06554328 -0.04129610
v -0.07100000 -0.06519615 -0.04200000
v -0.07100000 -0.06476012 -0.04265257
v -0.07100000 -0.06450000 -0.04294918
v -0.07100000 -0.06579555 -0.04055291
v -0.07100000 -0.06594867 -0.03978316
v -0.07100000 -0.06600000 -0.03900000
v -0.07100000 -0.06450000 -0.03500000
v -0.07100000 -0.06600000 0.00200000
v -0.07099786 -0.06600000 0.00206540
v -0.07100000 -0.06450000 0.00200000
v -0.07099786 -0.06450000 0.00206540
v -0.07092942 -0.06600000 0.00310961
v -0.07091234 -0.06600000 0.00323930
v -0.07092942 -0.06450000 0.00310961
v -0.07091234 -0.06450000 0.00323930
v -0.07070819 -0.06600000 0.00426564
v -0.07067434 -0.06600000 0.00439199
v -0.07070819 -0.06450000 0.00426564
v -0.07067434 -0.06450000 0.00439199
v -0.07033797 -0.06600000 0.00538291
v -0.07028791 -0.06600000 0.00550376
v -0.07033797 -0.06450000 0.00538291
v -0.07028791 -0.06450000 0.00550376
v -0.06982508 -0.06600000 0.00644229
v -0.06975967 -0.06600000 0.00655557
v -0.06982508 -0.06450000 0.00644229
v -0.06975967 -0.06450000 0.00655557
v -0.06917830 -0.06600000 0.00742566
v -0.06909867 -0.06600000 0.00752944
v -0.06917830 -0.06450000 0.00742566
v -0.06909867 -0.06450000 0.00752944
v -0.06840869 -0.06600000 0.00831620
v -0.06831620 -0.06600000 0.00840869
v -0.06840869 -0.06450000 0.00831620
v -0.06831620 -0.06450000 0.00840869
v -0.06752944 -0.06600000 0.00909867
v -0.06742566 -0.06600000 0.00917830
v -0.06752944 -0.06450000 0.00909867
v -0.06742566 -0.06450000 0.00917830
v -0.06655557 -0.06600000 0.00975967
v -0.06644229 -0.06600000 0.00982508
v -0.06655557 -0.06450000 0.00975967
v -0.06644229 -0.06450000 0.00982508
v -0.06550376 -0.06600000 0.01028791
v -0.06538291 -0.06600000 0.01033797
v -0.06550376 -0.06450000 0.01028791
v -0.06538291 -0.06450000 0.01033797
v -0.06439199 -0.06600000 0.01067434
v -0.06426564 -0.06600000 0.01070819
v -0.06439199 -0.06450000 0.01067434
v -0.06426564 -0.06450000 0.01070819
v -0.06323930 -0.06600000 0.01091234
v -0.06310961 -0.06600000 0.01092942
v -0.06323930 -0.06450000 0.01091234
v -0.06310961 -0.06450000 0.01092942
v -0.06206540 -0.06600000 0.01099786
v -0.06200000 -0.06600000 0.01100000
v -0.06206540 -0.06450000 0.01099786
v -0.06200000 -0.06450000 0.01100000
v -0.05900000 -0.06600000 0.01100000
v -0.05900000 -0.06450000 0.01100000
v -0.05900000 -0.06600000 0.02700000
v -0.05899786 -0.06600000 0.02706540
v -0.05900000 -0.06450000 0.02700000
v -0.05899786 -0.06450000 0.02706540
v -0.05892942 -0.06600000 0.02810961
v -0.05891234 -0.06600000 0.02823930
v -0.05870819 -0.06600000 0.02926564
v -0.05867434 -0.06600000 0.02939199
v -0.05892942 -0.06450000 0.02810961
v -0.05891234 -0.06450000 0.02823930
v -0.05870819 -0.06450000 0.02926564
v -0.05867434 -0.06450000 0.02939199
v -0.05833797 -0.06600000 0.03038291
v -0.05828791 -0.06600000 0.03050376
v -0.05833797 -0.06450000 0.03038291
v -0.05828791 -0.06450000 0.03050376
v -0.05782508 -0.06600000 0.03144229
v -0.05775967 -0.06600000 0.03155557
v -0.05782508 -0.06450000 0.03144229
v -0.05775967 -0.06450000 0.03155557
v -0.05717830 -0.06600000 0.03242566
v -0.05709867 -0.06600000 0.03252944
v -0.05717830 -0.06450000 0.03242566
v -0.05709867 -0.06450000 0.03252944
v -0.05640869 -0.06600000 0.03331620
v -0.05631620 -0.06600000 0.03340869
v -0.05640869 -0.06450000 0.03331620
v -0.05631620 -0.06450000 0.03340869
v -0.05552944 -0.06600000 0.03409867
v -0.05542566 -0.06600000 0.03417830
v -0.05552944 -0.06450000 0.03409867
v -0.05542566 -0.06450000 0.03417830
v -0.05455557 -0.06600000 0.03475967
v -0.05444229 -0.06600000 0.03482508
v -0.05455557 -0.06450000 0.03475967
v -0.05444229 -0.06450000 0.03482508
v -0.05350376 -0.06600000 0.03528791
v -0.05338291 -0.06600000 0.03533797
v -0.05350376 -0.06450000 0.03528791
v -0.05338291 -0.06450000 0.03533797
v -0.05239199 -0.06600000 0.03567434
v -0.05226564 -0.06600000 0.03570819
v -0.05239199 -0.06450000 0.03567434
v -0.05226564 -0.06450000 0.03570819
v -0.05123930 -0.06600000 0.03591234
v -0.05110961 -0.06600000 0.03592942
v -0.05123930 -0.06450000 0.03591234
v -0.05110961 -0.06450000 0.03592942
v -0.05006540 -0.06600000 0.03599786
v -0.05000000 -0.06600000 0.03600000
v -0.05006540 -0.06450000 0.03599786
v -0.05000000 -0.06450000 0.03600000
v -0.07724264 -0.06424264 0.06700000
v -0.07819615 -0.06300000 0.06700000
v -0.07854328 -0.06229610 0.06700000
v -0.07776012 -0.06365257 0.06700000
v -0.07843665 -0.06240237 0.06781940
v -0.07818495 -0.06250102 0.06869151
v -0.07802754 -0.06316854 0.06782715
v -0.07750320 -0.06387689 0.06783125
v -0.07769384 -0.06331905 0.06871807
v -0.07665257 -0.06476012 0.06700000
v -0.07600000 -0.06519615 0.06700000
v -0.07529610 -0.06554328 0.06700000
v -0.07687689 -0.06450320 0.06783125
v -0.07706301 -0.06406301 0.06872741
v -0.07631905 -0.06469384 0.06871807
v -0.07616854 -0.06502754 0.06782715
v -0.07540237 -0.06543665 0.06781940
v -0.07550102 -0.06518495 0.06869151
v -0.07689711 -0.06225000 0.06700000
v -0.07657009 -0.06273943 0.06700000
v -0.07573943 -0.06357009 0.06700000
v -0.07618198 -0.06318198 0.06700000
v -0.07637740 -0.06290766 0.06762344
v -0.07677066 -0.06237640 0.06762037
v -0.07688871 -0.06187577 0.06826863
v -0.07652038 -0.06248929 0.06828855
v -0.07657347 -0.06193395 0.06893395
v -0.07590766 -0.06337740 0.06762344
v -0.07604725 -0.06304725 0.06829556
v -0.07537640 -0.06377066 0.06762037
v -0.07548929 -0.06352038 0.06828855
v -0.07556906 -0.06312789 0.06896627
v -0.07612789 -0.06256906 0.06896627
v -0.07717052 -0.06342541 0.06962170
v -0.07776463 -0.06257860 0.06957860
v -0.07717052 -0.06262170 0.07042541
v -0.07642541 -0.06417052 0.06962170
v -0.07557860 -0.06476463 0.06957860
v -0.07562170 -0.06417052 0.07042541
v -0.07646410 -0.06346410 0.07046410
v -0.07642541 -0.06262170 0.07117052
v -0.07562170 -0.06342541 0.07117052
v -0.07612789 -0.06196627 0.06956906
v -0.07559808 -0.06259808 0.06959808
v -0.07556906 -0.06196627 0.07012789
v -0.07557860 -0.06257860 0.07176463
v -0.07879555 -0.06155291 0.06700000
v -0.07894867 -0.06078316 0.06700000
v -0.07900000 -0.06000000 0.06700000
v -0.07715746 -0.06172208 0.06700000
v -0.07734667 -0.06116469 0.06700000
v -0.07746150 -0.06058737 0.06700000
v -0.07750000 -0.06000000 0.06700000
v -0.07872483 -0.06160378 0.06780881
v -0.07852665 -0.06165169 0.06865169
v -0.07889335 -0.06079637 0.06779637
v -0.07894867 -0.06000000 0.06778316
v -0.07872483 -0.06080881 0.06860378
v -0.07879555 -0.06000000 0.06855291
v -0.07854328 -0.06000000 0.06929610
v -0.07729363 -0.06120283 0.06760661
v -0.07714499 -0.06123876 0.06823876
v -0.07742001 -0.06059728 0.06759728
v -0.07729363 -0.06060661 0.06820283
v -0.07746150 -0.06000000 0.06758737
v -0.07734667 -0.06000000 0.06816469
v -0.07715746 -0.06000000 0.06872208
v -0.07707749 -0.06180178 0.06761455
v -0.07688871 -0.06126863 0.06887577
v -0.07707749 -0.06061455 0.06880178
v -0.07677066 -0.06062037 0.06937640
v -0.07689711 -0.06000000 0.06925000
v -0.07818495 -0.06169151 0.06950102
v -0.07843665 -0.06081940 0.06940237
v -0.07819615 -0.06000000 0.07000000
v -0.07769384 -0.06171807 0.07031905
v -0.07802754 -0.06082715 0.07016854
v -0.07776012 -0.06000000 0.07065257
v -0.07750320 -0.06083125 0.07087689
v -0.07724264 -0.06000000 0.07124264
v -0.07652038 -0.06128855 0.06948929
v -0.07706301 -0.06172741 0.07106301
v -0.07637740 -0.06062344 0.06990766
v -0.07657009 -0.06000000 0.06973943
v -0.07604725 -0.06129556 0.07004725
v -0.07548929 -0.06128855 0.07052038
v -0.07618198 -0.06000000 0.07018198
v -0.07590766 -0.06062344 0.07037740
v -0.07573943 -0.06000000 0.07057009
v -0.07537640 -0.06062037 0.07077066
v -0.07631905 -0.06171807 0.07169384
v -0.07687689 -0.06083125 0.07150320
v -0.07665257 -0.06000000 0.07176012
v -0.07550102 -0.06169151 0.07218495
v -0.07616854 -0.06082715 0.07202754
v -0.07600000 -0.06000000 0.07219615
v -0.07540237 -0.06081940 0.07243665
v -0.07529610 -0.06000000 0.07254328
v -0.07455291 -0.06579555 0.06700000
v -0.07472208 -0.06415746 0.06700000
v -0.07378316 -0.06594867 0.06700000
v -0.07416469 -0.06434667 0.06700000
v -0.07358737 -0.06446150 0.06700000
v -0.07460378 -0.06572483 0.06780881
v -0.07465169 -0.06552665 0.06865169
v -0.07480178 -0.06407749 0.06761455
v -0.07379637 -0.06589335 0.06779637
v -0.07380881 -0.06572483 0.06860378
v -0.07420283 -0.06429363 0.06760661
v -0.07423876 -0.06414499 0.06823876
v -0.07359728 -0.06442001 0.06759728
v -0.07360661 -0.06429363 0.06820283
v -0.07361455 -0.06407749 0.06880178
v -0.07525000 -0.06389711 0.06700000
v -0.07487577 -0.06388871 0.06826863
v -0.07493395 -0.06357347 0.06893395
v -0.07426863 -0.06388871 0.06887577
v -0.07362037 -0.06377066 0.06937640
v -0.07300000 -0.06600000 0.06700000
v -0.07300000 -0.06450000 0.06700000
v -0.07300000 -0.06594867 0.06778316
v -0.07300000 -0.06579555 0.06855291
v -0.07300000 -0.06554328 0.06929610
v -0.07300000 -0.06446150 0.06758737
v -0.07300000 -0.06434667 0.06816469
v -0.07300000 -0.06415746 0.06872208
v -0.07300000 -0.06389711 0.06925000
v -0.07469151 -0.06518495 0.06950102
v -0.07471807 -0.06469384 0.07031905
v -0.07472741 -0.06406301 0.07106301
v -0.07381940 -0.06543665 0.06940237
v -0.07382715 -0.06502754 0.07016854
v -0.07383125 -0.06450320 0.07087689
v -0.07496627 -0.06312789 0.06956906
v -0.07496627 -0.06256906 0.07012789
v -0.07493395 -0.06193395 0.07057347
v -0.07428855 -0.06352038 0.06948929
v -0.07429556 -0.06304725 0.07004725
v -0.07362344 -0.06337740 0.06990766
v -0.07362344 -0.06290766 0.07037740
v -0.07428855 -0.06248929 0.07052038
v -0.07426863 -0.06187577 0.07088871
v -0.07362037 -0.06237640 0.07077066
v -0.07471807 -0.06331905 0.07169384
v -0.07469151 -0.06250102 0.07218495
v -0.07383125 -0.06387689 0.07150320
v -0.07382715 -0.06316854 0.07202754
v -0.07381940 -0.06240237 0.07243665
v -0.07300000 -0.06519615 0.07000000
v -0.07300000 -0.06476012 0.07065257
v -0.07300000 -0.06424264 0.07124264
v -0.07300000 -0.06357009 0.06973943
v -0.07300000 -0.06318198 0.07018198
v -0.07300000 -0.06273943 0.07057009
v -0.07300000 -0.06225000 0.07089711
v -0.07300000 -0.06365257 0.07176012
v -0.07300000 -0.06300000 0.07219615
v -0.07300000 -0.06229610 0.07254328
v -0.07487577 -0.06126863 0.07088871
v -0.07480178 -0.06061455 0.07107749
v -0.07525000 -0.06000000 0.07089711
v -0.07472208 -0.06000000 0.07115746
v -0.07423876 -0.06123876 0.07114499
v -0.07361455 -0.06180178 0.07107749
v -0.07465169 -0.06165169 0.07252665
v -0.07460378 -0.06080881 0.07272483
v -0.07455291 -0.06000000 0.07279555
v -0.07360661 -0.06120283 0.07129363
v -0.07380881 -0.06160378 0.07272483
v -0.07420283 -0.06060661 0.07129363
v -0.07416469 -0.06000000 0.07134667
v -0.07359728 -0.06059728 0.07142001
v -0.07358737 -0.06000000 0.07146150
v -0.07379637 -0.06079637 0.07289335
v -0.07378316 -0.06000000 0.07294867
v -0.07300000 -0.06172208 0.07115746
v -0.07300000 -0.06116469 0.07134667
v -0.07300000 -0.06155291 0.07279555
v -0.07300000 -0.06058737 0.07146150
v -0.07300000 -0.06000000 0.07150000
v -0.07300000 -0.06078316 0.07294867
v -0.07300000 -0.06000000 0.07300000
v -0.07854328 0.06000000 -0.04129610
v -0.07819615 0.06000000 -0.04200000
v -0.07843665 0.06081940 -0.04140237
v -0.07818495 0.06169151 -0.04150102
v -0.07776012 0.06000000 -0.04265257
v -0.07802754 0.06082715 -0.04216854
v -0.07750000 0.06000000 -0.04294918
v -0.07750320 0.06083125 -0.04287689
v -0.07750000 0.06082106 -0.04288137
v -0.07750000 0.06083125 -0.04288008
v -0.07750000 0.06083776 -0.04287824
v -0.07769384 0.06171807 -0.04231905
v -0.07750000 0.06172094 -0.04254765
v -0.07879555 0.06000000 -0.04055291
v -0.07872483 0.06080881 -0.04060378
v -0.07894867 0.06000000 -0.03978316
v -0.07889335 0.06079637 -0.03979637
v -0.07852665 0.06165169 -0.04065169
v -0.07872483 0.06160378 -0.03980881
v -0.07900000 0.06000000 -0.03900000
v -0.07894867 0.06078316 -0.03900000
v -0.07879555 0.06155291 -0.03900000
v -0.07750000 0.06000000 -0.03900000
v -0.07750000 0.06205278 -0.04235845
v -0.07776463 0.06257860 -0.04157860
v -0.07750000 0.06259780 -0.04195579
v -0.07750000 0.06295579 -0.04159780
v -0.07818495 0.06250102 -0.04069151
v -0.07843665 0.06240237 -0.03981940
v -0.07769384 0.06331905 -0.04071807
v -0.07750000 0.06335845 -0.04105278
v -0.07750000 0.06354765 -0.04072094
v -0.07802754 0.06316854 -0.03982715
v -0.07750320 0.06387689 -0.03983125
v -0.07750000 0.06387824 -0.03983776
v -0.07750000 0.06388008 -0.03983125
v -0.07750000 0.06388137 -0.03982106
v -0.07595579 0.06450000 -0.04159780
v -0.07559780 0.06450000 -0.04195579
v -0.07557860 0.06476463 -0.04157860
v -0.07654765 0.06450000 -0.04072094
v -0.07635845 0.06450000 -0.04105278
v -0.07631905 0.06469384 -0.04071807
v -0.07687689 0.06450320 -0.03983125
v -0.07688008 0.06450000 -0.03983125
v -0.07688137 0.06450000 -0.03982106
v -0.07687824 0.06450000 -0.03983776
v -0.07550102 0.06518495 -0.04069151
v -0.07616854 0.06502754 -0.03982715
v -0.07540237 0.06543665 -0.03981940
v -0.07854328 0.06229610 -0.03900000
v -0.07819615 0.06300000 -0.03900000
v -0.07776012 0.06365257 -0.03900000
v -0.07750000 0.06394918 -0.03900000
v -0.07694918 0.06450000 -0.03900000
v -0.07665257 0.06476012 -0.03900000
v -0.07600000 0.06519615 -0.03900000
v -0.07529610 0.06554328 -0.03900000
v -0.07505278 0.06450000 -0.04235845
v -0.07472094 0.06450000 -0.04254765
v -0.07471807 0.06469384 -0.04231905
v -0.07469151 0.06518495 -0.04150102
v -0.07383125 0.06450320 -0.04287689
v -0.07383125 0.06450000 -0.04288008
v -0.07382106 0.06450000 -0.04288137
v -0.07383776 0.06450000 -0.04287824
v -0.07382715 0.06502754 -0.04216854
v -0.07381940 0.06543665 -0.04140237
v -0.07465169 0.06552665 -0.04065169
v -0.07460378 0.06572483 -0.03980881
v -0.07380881 0.06572483 -0.04060378
v -0.07379637 0.06589335 -0.03979637
v -0.07300000 0.06450000 -0.04294918
v -0.07300000 0.06476012 -0.04265257
v -0.07300000 0.06519615 -0.04200000
v -0.07300000 0.06554328 -0.04129610
v -0.07300000 0.06579555 -0.04055291
v -0.07300000 0.06594867 -0.03978316
v -0.07455291 0.06579555 -0.03900000
v -0.07378316 0.06594867 -0.03900000
v -0.07300000 0.06600000 -0.03900000
v -0.07750000 0.06000000 -0.03500000
v -0.07746150 0.06058737 -0.03500000
v -0.07734667 0.06116469 -0.03500000
v -0.07715746 0.06172208 -0.03500000
v -0.07750000 0.06394918 -0.03500000
v -0.07724264 0.06424264 -0.03500000
v -0.07689711 0.06225000 -0.03500000
v -0.07657009 0.06273943 -0.03500000
v -0.07618198 0.06318198 -0.03500000
v -0.07573943 0.06357009 -0.03500000
v -0.07694918 0.06450000 -0.03500000
v -0.07525000 0.06389711 -0.03500000
v -0.07472208 0.06415746 -0.03500000
v -0.07416469 0.06434667 -0.03500000
v -0.07358737 0.06446150 -0.03500000
v -0.07300000 0.06450000 -0.03500000
v -0.07100000 0.06450000 -0.04294918
v -0.07100000 0.06476012 -0.04265257
v -0.07100000 0.06519615 -0.04200000
v -0.07100000 0.06554328 -0.04129610
v -0.07100000 0.06579555 -0.04055291
v -0.07100000 0.06594867 -0.03978316
v -0.07100000 0.06600000 -0.03900000
v -0.07100000 0.06450000 -0.03500000
v -0.07100000 0.06450000 0.00200000
v -0.07099786 0.06450000 0.00206540
v -0.07100000 0.06600000 0.00200000
v -0.07099786 0.06600000 0.00206540
v -0.07092942 0.06450000 0.00310961
v -0.07091234 0.06450000 0.00323930
v -0.07092942 0.06600000 0.00310961
v -0.07091234 0.06600000 0.00323930
v -0.07070819 0.06450000 0.00426564
v -0.07067434 0.06450000 0.00439199
v -0.07070819 0.06600000 0.00426564
v -0.07067434 0.06600000 0.00439199
v -0.07033797 0.06450000 0.00538291
v -0.07028791 0.06450000 0.00550376
v -0.07033797 0.06600000 0.00538291
v -0.07028791 0.06600000 0.00550376
v -0.06982508 0.06450000 0.00644229
v -0.06975967 0.06450000 0.00655557
v -0.06982508 0.06600000 0.00644229
v -0.06975967 0.06600000 0.00655557
v -0.06917830 0.06450000 0.00742566
v -0.06909867 0.06450000 0.00752944
v -0.06917830 0.06600000 0.00742566
v -0.06909867 0.06600000 0.00752944
v -0.06840869 0.06450000 0.00831620
v -0.06831620 0.06450000 0.00840869
v -0.06840869 0.06600000 0.00831620
v -0.06831620 0.06600000 0.00840869
v -0.06752944 0.06450000 0.00909867
v -0.06742566 0.06450000 0.00917830
v -0.06752944 0.06600000 0.00909867
v -0.06742566 0.06600000 0.00917830
v -0.06655557 0.06450000 0.00975967
v -0.06644229 0.06450000 0.00982508
v -0.06655557 0.06600000 0.00975967
v -0.06644229 0.06600000 0.00982508
v -0.06550376 0.06450000 0.01028791
v -0.06538291 0.06450000 0.01033797
v -0.06550376 0.06600000 0.01028791
v -0.06538291 0.06600000 0.01033797
v -0.06439199 0.06450000 0.01067434
v -0.06426564 0.06450000 0.01070819
v -0.06439199 0.06600000 0.01067434
v -0.06426564 0.06600000 0.01070819
v -0.06323930 0.06450000 0.01091234
v -0.06310961 0.06450000 0.01092942
v -0.06323930 0.06600000 0.01091234
v -0.06310961 0.06600000 0.01092942
v -0.06206540 0.06450000 0.01099786
v -0.06200000 0.06450000 0.01100000
v -0.06206540 0.06600000 0.01099786
v -0.06200000 0.06600000 0.01100000
v -0.05900000 0.06450000 0.01100000
v -0.05900000 0.06600000 0.01100000
v -0.05900000 0.06450000 0.02700000
v -0.05899786 0.06450000 0.02706540
v -0.05900000 0.06600000 0.02700000
v -0.05899786 0.06600000 0.02706540
v -0.05892942 0.06450000 0.02810961
v -0.05891234 0.06450000 0.02823930
v -0.05870819 0.06450000 0.02926564
v -0.05867434 0.06450000 0.02939199
v -0.05892942 0.06600000 0.02810961
v -0.05891234 0.06600000 0.02823930
v -0.05870819 0.06600000 0.02926564
v -0.05867434 0.06600000 0.02939199
v -0.05833797 0.06450000 0.03038291
v -0.05828791 0.06450000 0.03050376
v -0.05833797 0.06600000 0.03038291
v -0.05828791 0.06600000 0.03050376
v -0.05782508 0.06450000 0.03144229
v -0.05775967 0.06450000 0.03155557
v -0.05782508 0.06600000 0.03144229
v -0.05775967 0.06600000 0.03155557
v -0.05717830 0.06450000 0.03242566
v -0.05709867 0.06450000 0.03252944
v -0.05717830 0.06600000 0.03242566
v -0.05709867 0.06600000 0.03252944
v -0.05640869 0.06450000 0.03331620
v -0.05631620 0.06450000 0.03340869
v -0.05640869 0.06600000 0.03331620
v -0.05631620 0.06600000 0.03340869
v -0.05552944 0.06450000 0.03409867
v -0.05542566 0.06450000 0.03417830
v -0.05552944 0.06600000 0.03409867
v -0.05542566 0.06600000 0.03417830
v -0.05455557 0.06450000 0.03475967
v -0.05444229 0.06450000 0.03482508
v -0.05455557 0.06600000 0.03475967
v -0.05444229 0.06600000 0.03482508
v -0.05350376 0.06450000 0.03528791
v -0.05338291 0.06450000 0.03533797
v -0.05350376 0.06600000 0.03528791
v -0.05338291 0.06600000 0.03533797
v -0.05239199 0.06450000 0.03567434
v -0.05226564 0.06450000 0.03570819
v -0.05239199 0.06600000 0.03567434
v -0.05226564 0.06600000 0.03570819
v -0.05123930 0.06450000 0.03591234
v -0.05110961 0.06450000 0.03592942
v -0.05123930 0.06600000 0.03591234
v -0.05110961 0.06600000 0.03592942
v -0.05006540 0.06450000 0.03599786
v -0.05000000 0.06450000 0.03600000
v -0.05006540 0.06600000 0.03599786
v -0.05000000 0.06600000 0.03600000
v -0.07900000 0.06000000 0.06700000
v -0.07894867 0.06078316 0.06700000
v -0.07879555 0.06155291 0.06700000
v -0.07750000 0.06000000 0.06700000
v -0.07746150 0.06058737 0.06700000
v -0.07734667 0.06116469 0.06700000
v -0.07715746 0.06172208 0.06700000
v -0.07894867 0.06000000 0.06778316
v -0.07889335 0.06079637 0.06779637
v -0.07879555 0.06000000 0.06855291
v -0.07854328 0.06000000 0.06929610
v -0.07872483 0.06080881 0.06860378
v -0.07872483 0.06160378 0.06780881
v -0.07852665 0.06165169 0.06865169
v -0.07746150 0.06000000 0.06758737
v -0.07734667 0.06000000 0.06816469
v -0.07742001 0.06059728 0.06759728
v -0.07729363 0.06060661 0.06820283
v -0.07715746 0.06000000 0.06872208
v -0.07729363 0.06120283 0.06760661
v -0.07714499 0.06123876 0.06823876
v -0.07689711 0.06000000 0.06925000
v -0.07707749 0.06061455 0.06880178
v -0.07677066 0.06062037 0.06937640
v -0.07707749 0.06180178 0.06761455
v -0.07688871 0.06126863 0.06887577
v -0.07819615 0.06000000 0.07000000
v -0.07843665 0.06081940 0.06940237
v -0.07818495 0.06169151 0.06950102
v -0.07802754 0.06082715 0.07016854
v -0.07776012 0.06000000 0.07065257
v -0.07750320 0.06083125 0.07087689
v -0.07769384 0.06171807 0.07031905
v -0.07724264 0.06000000 0.07124264
v -0.07657009 0.06000000 0.06973943
v -0.07637740 0.06062344 0.06990766
v -0.07652038 0.06128855 0.06948929
v -0.07706301 0.06172741 0.07106301
v -0.07618198 0.06000000 0.07018198
v -0.07573943 0.06000000 0.07057009
v -0.07590766 0.06062344 0.07037740
v -0.07537640 0.06062037 0.07077066
v -0.07604725 0.06129556 0.07004725
v -0.07548929 0.06128855 0.07052038
v -0.07687689 0.06083125 0.07150320
v -0.07665257 0.06000000 0.07176012
v -0.07631905 0.06171807 0.07169384
v -0.07616854 0.06082715 0.07202754
v -0.07600000 0.06000000 0.07219615
v -0.07529610 0.06000000 0.07254328
v -0.07540237 0.06081940 0.07243665
v -0.07550102 0.06169151 0.07218495
v -0.07854328 0.06229610 0.06700000
v -0.07819615 0.06300000 0.06700000
v -0.07776012 0.06365257 0.06700000
v -0.07843665 0.06240237 0.06781940
v -0.07818495 0.06250102 0.06869151
v -0.07802754 0.06316854 0.06782715
v -0.07750320 0.06387689 0.06783125
v -0.07769384 0.06331905 0.06871807
v -0.07724264 0.06424264 0.06700000
v -0.07689711 0.06225000 0.06700000
v -0.07657009 0.06273943 0.06700000
v -0.07618198 0.06318198 0.06700000
v -0.07573943 0.06357009 0.06700000
v -0.07677066 0.06237640 0.06762037
v -0.07688871 0.06187577 0.06826863
v -0.07652038 0.06248929 0.06828855
v -0.07657347 0.06193395 0.06893395
v -0.07637740 0.06290766 0.06762344
v -0.07612789 0.06256906 0.06896627
v -0.07590766 0.06337740 0.06762344
v -0.07604725 0.06304725 0.06829556
v -0.07537640 0.06377066 0.06762037
v -0.07548929 0.06352038 0.06828855
v -0.07556906 0.06312789 0.06896627
v -0.07665257 0.06476012 0.06700000
v -0.07600000 0.06519615 0.06700000
v -0.07529610 0.06554328 0.06700000
v -0.07687689 0.06450320 0.06783125
v -0.07706301 0.06406301 0.06872741
v -0.07631905 0.06469384 0.06871807
v -0.07616854 0.06502754 0.06782715
v -0.07540237 0.06543665 0.06781940
v -0.07550102 0.06518495 0.06869151
v -0.07776463 0.06257860 0.06957860
v -0.07717052 0.06262170 0.07042541
v -0.07717052 0.06342541 0.06962170
v -0.07642541 0.06262170 0.07117052
v -0.07646410 0.06346410 0.07046410
v -0.07612789 0.06196627 0.06956906
v -0.07556906 0.06196627 0.07012789
v -0.07559808 0.06259808 0.06959808
v -0.07562170 0.06342541 0.07117052
v -0.07557860 0.06257860 0.07176463
v -0.07642541 0.06417052 0.06962170
v -0.07557860 0.06476463 0.06957860
v -0.07562170 0.06417052 0.07042541
v -0.07525000 0.06000000 0.07089711
v -0.07480178 0.06061455 0.07107749
v -0.07472208 0.06000000 0.07115746
v -0.07487577 0.06126863 0.07088871
v -0.07423876 0.06123876 0.07114499
v -0.07361455 0.06180178 0.07107749
v -0.07455291 0.06000000 0.07279555
v -0.07460378 0.06080881 0.07272483
v -0.07465169 0.06165169 0.07252665
v -0.07416469 0.06000000 0.07134667
v -0.07420283 0.06060661 0.07129363
v -0.07358737 0.06000000 0.07146150
v -0.07359728 0.06059728 0.07142001
v -0.07378316 0.06000000 0.07294867
v -0.07379637 0.06079637 0.07289335
v -0.07360661 0.06120283 0.07129363
v -0.07380881 0.06160378 0.07272483
v -0.07300000 0.06172208 0.07115746
v -0.07300000 0.06000000 0.07150000
v -0.07300000 0.06058737 0.07146150
v -0.07300000 0.06000000 0.07300000
v -0.07300000 0.06078316 0.07294867
v -0.07300000 0.06116469 0.07134667
v -0.07300000 0.06155291 0.07279555
v -0.07525000 0.06389711 0.06700000
v -0.07487577 0.06388871 0.06826863
v -0.07493395 0.06357347 0.06893395
v -0.07426863 0.06388871 0.06887577
v -0.07362037 0.06377066 0.06937640
v -0.07472208 0.06415746 0.06700000
v -0.07455291 0.06579555 0.06700000
v -0.07416469 0.06434667 0.06700000
v -0.07358737 0.06446150 0.06700000
v -0.07378316 0.06594867 0.06700000
v -0.07480178 0.06407749 0.06761455
v -0.07460378 0.06572483 0.06780881
v -0.07465169 0.06552665 0.06865169
v -0.07420283 0.06429363 0.06760661
v -0.07423876 0.06414499 0.06823876
v -0.07359728 0.06442001 0.06759728
v -0.07360661 0.06429363 0.06820283
v -0.07361455 0.06407749 0.06880178
v -0.07379637 0.06589335 0.06779637
v -0.07380881 0.06572483 0.06860378
v -0.07300000 0.06389711 0.06925000
v -0.07300000 0.06450000 0.06700000
v -0.07300000 0.06600000 0.06700000
v -0.07300000 0.06434667 0.06816469
v -0.07300000 0.06446150 0.06758737
v -0.07300000 0.06415746 0.06872208
v -0.07300000 0.06594867 0.06778316
v -0.07300000 0.06579555 0.06855291
v -0.07300000 0.06554328 0.06929610
v -0.07496627 0.06256906 0.07012789
v -0.07493395 0.06193395 0.07057347
v -0.07496627 0.06312789 0.06956906
v -0.07426863 0.06187577 0.07088871
v -0.07428855 0.06248929 0.07052038
v -0.07362037 0.06237640 0.07077066
v -0.07429556 0.06304725 0.07004725
v -0.07428855 0.06352038 0.06948929
v -0.07362344 0.06337740 0.06990766
v -0.07362344 0.06290766 0.07037740
v -0.07469151 0.06250102 0.07218495
v -0.07471807 0.06331905 0.07169384
v -0.07381940 0.06240237 0.07243665
v -0.07382715 0.06316854 0.07202754
v -0.07383125 0.06387689 0.07150320
v -0.07472741 0.06406301 0.07106301
v -0.07471807 0.06469384 0.07031905
v -0.07469151 0.06518495 0.06950102
v -0.07383125 0.06450320 0.07087689
v -0.07381940 0.06543665 0.06940237
v -0.07382715 0.06502754 0.07016854
v -0.07300000 0.06225000 0.07089711
v -0.07300000 0.06273943 0.07057009
v -0.07300000 0.06318198 0.07018198
v -0.07300000 0.06357009 0.06973943
v -0.07300000 0.06229610 0.07254328
v -0.07300000 0.06365257 0.07176012
v -0.07300000 0.06300000 0.07219615
v -0.07300000 0.06476012 0.07065257
v -0.07300000 0.06519615 0.07000000
v -0.07300000 0.06424264 0.07124264
v 0.03950000 -0.05800000 -0.01500000
v 0.04100000 -0.05800000 -0.01500000
v 0.03550000 -0.05300000 -0.01500000
v 0.03550000 -0.05000000 -0.01500000
v 0.03950000 -0.05300000 -0.01500000
v 0.03950000 -0.05000000 -0.01500000
v 0.03950000 -0.05800000 -0.00900000
v 0.04100000 -0.05800000 -0.00900000
v 0.03950000 -0.05300000 -0.00900000
v 0.03950000 -0.05000000 -0.00900000
v 0.03400000 -0.06600000 0.01100000
v 0.03400000 -0.06450000 0.01100000
v 0.03500000 -0.06600000 0.01100000
v 0.03500000 -0.06450000 0.01100000
v 0.03578316 -0.06594867 0.01100000
v 0.03558737 -0.06446150 0.01100000
v 0.03616469 -0.06434667 0.01100000
v 0.03655291 -0.06579555 0.01100000
v 0.03672208 -0.06415746 0.01100000
v 0.03704137 -0.06400000 0.01100000
v 0.03729610 -0.06554328 0.01100000
v 0.03800000 -0.06519615 0.01100000
v 0.03865257 -0.06476012 0.01100000
v 0.03924264 -0.06424264 0.01100000
v 0.03945543 -0.06400000 0.01100000
v 0.03950000 -0.02000000 -0.04294918
v 0.03976012 -0.02000000 -0.04265257
v 0.04019615 -0.02000000 -0.04200000
v 0.04054328 -0.02000000 -0.04129610
v 0.04079555 -0.02000000 -0.04055291
v 0.04094867 -0.02000000 -0.03978316
v 0.03950000 -0.02000000 -0.03900000
v 0.04100000 -0.02000000 -0.03900000
v 0.03950000 -0.02500000 -0.01500000
v 0.04100000 -0.02500000 -0.01500000
v 0.03950000 -0.02434737 -0.01504278
v 0.03950000 -0.02370590 -0.01517037
v 0.03950000 -0.02308658 -0.01538060
v 0.04100000 -0.02434737 -0.01504278
v 0.04100000 -0.02370590 -0.01517037
v 0.04100000 -0.02308658 -0.01538060
v 0.03950000 -0.02195619 -0.01603323
v 0.03950000 -0.02066987 -0.01750000
v 0.03950000 -0.02103323 -0.01695619
v 0.03950000 -0.02146447 -0.01646447
v 0.04100000 -0.02195619 -0.01603323
v 0.04100000 -0.02066987 -0.01750000
v 0.04100000 -0.02103323 -0.01695619
v 0.04100000 -0.02146447 -0.01646447
v 0.03950000 -0.02250000 -0.01566987
v 0.04100000 -0.02250000 -0.01566987
v 0.03950000 -0.02000000 -0.02000000
v 0.04100000 -0.02000000 -0.02000000
v 0.03950000 -0.02017037 -0.01870590
v 0.03950000 -0.02004278 -0.01934737
v 0.03950000 -0.02038060 -0.01808658
v 0.04100000 -0.02017037 -0.01870590
v 0.04100000 -0.02004278 -0.01934737
v 0.04100000 -0.02038060 -0.01808658
v 0.02500000 -0.06600000 0.03600000
v 0.02500000 -0.06450000 0.03600000
v 0.02506540 -0.06600000 0.03599786
v 0.02506540 -0.06450000 0.03599786
v 0.03400000 -0.06600000 0.02700000
v 0.03399786 -0.06600000 0.02706540
v 0.03400000 -0.06450000 0.02700000
v 0.03399786 -0.06450000 0.02706540
v 0.03392942 -0.06600000 0.02810961
v 0.03391234 -0.06600000 0.02823930
v 0.03370819 -0.06600000 0.02926564
v 0.03367434 -0.06600000 0.02939199
v 0.03392942 -0.06450000 0.02810961
v 0.03391234 -0.06450000 0.02823930
v 0.03370819 -0.06450000 0.02926564
v 0.03367434 -0.06450000 0.02939199
v 0.02610961 -0.06600000 0.03592942
v 0.02623930 -0.06600000 0.03591234
v 0.02610961 -0.06450000 0.03592942
v 0.02623930 -0.06450000 0.03591234
v 0.02726564 -0.06600000 0.03570819
v 0.02739199 -0.06600000 0.03567434
v 0.02726564 -0.06450000 0.03570819
v 0.02739199 -0.06450000 0.03567434
v 0.02944229 -0.06600000 0.03482508
v 0.02955557 -0.06600000 0.03475967
v 0.02944229 -0.06450000 0.03482508
v 0.02955557 -0.06450000 0.03475967
v 0.02838291 -0.06600000 0.03533797
v 0.02850376 -0.06600000 0.03528791
v 0.02838291 -0.06450000 0.03533797
v 0.02850376 -0.06450000 0.03528791
v 0.03333797 -0.06600000 0.03038291
v 0.03328791 -0.06600000 0.03050376
v 0.03333797 -0.06450000 0.03038291
v 0.03328791 -0.06450000 0.03050376
v 0.03217830 -0.06600000 0.03242566
v 0.03209867 -0.06600000 0.03252944
v 0.03217830 -0.06450000 0.03242566
v 0.03209867 -0.06450000 0.03252944
v 0.03275967 -0.06600000 0.03155557
v 0.03282508 -0.06600000 0.03144229
v 0.03275967 -0.06450000 0.03155557
v 0.03282508 -0.06450000 0.03144229
v 0.03042566 -0.06600000 0.03417830
v 0.03052944 -0.06600000 0.03409867
v 0.03042566 -0.06450000 0.03417830
v 0.03052944 -0.06450000 0.03409867
v 0.03131620 -0.06600000 0.03340869
v 0.03140869 -0.06600000 0.03331620
v 0.03131620 -0.06450000 0.03340869
v 0.03140869 -0.06450000 0.03331620
v 0.02500000 -0.06400000 0.06904137
v 0.02500000 -0.06389711 0.06925000
v 0.02500000 -0.06400000 0.07100000
v 0.02500000 -0.06357009 0.06973943
v 0.02500000 -0.06318198 0.07018198
v 0.02500000 -0.06273943 0.07057009
v 0.02500000 -0.06225000 0.07089711
v 0.02500000 -0.06204137 0.07100000
v 0.03500000 -0.06600000 0.06700000
v 0.03500000 -0.06450000 0.06700000
v 0.03500000 -0.06594867 0.06778316
v 0.03500000 -0.06579555 0.06855291
v 0.03500000 -0.06554328 0.06929610
v 0.03500000 -0.06446150 0.06758737
v 0.03500000 -0.06434667 0.06816469
v 0.03500000 -0.06415746 0.06872208
v 0.03500000 -0.06400000 0.06904137
v 0.03535054 -0.06400000 0.06899433
v 0.03578316 -0.06594867 0.06700000
v 0.03558737 -0.06446150 0.06700000
v 0.03616469 -0.06434667 0.06700000
v 0.03655291 -0.06579555 0.06700000
v 0.03672208 -0.06415746 0.06700000
v 0.03704137 -0.06400000 0.06700000
v 0.03699433 -0.06400000 0.06735054
v 0.03579637 -0.06589335 0.06779637
v 0.03580881 -0.06572483 0.06860378
v 0.03559728 -0.06442001 0.06759728
v 0.03560661 -0.06429363 0.06820283
v 0.03620283 -0.06429363 0.06760661
v 0.03623876 -0.06414499 0.06823876
v 0.03561455 -0.06407749 0.06880178
v 0.03561602 -0.06400000 0.06894690
v 0.03588304 -0.06400000 0.06883215
v 0.03625566 -0.06400000 0.06859915
v 0.03660378 -0.06572483 0.06780881
v 0.03665169 -0.06552665 0.06865169
v 0.03659915 -0.06400000 0.06825566
v 0.03680178 -0.06407749 0.06761455
v 0.03694690 -0.06400000 0.06761602
v 0.03683215 -0.06400000 0.06788304
v 0.03500000 -0.06519615 0.07000000
v 0.03500000 -0.06476012 0.07065257
v 0.03500000 -0.06424264 0.07124264
v 0.03500000 -0.06204137 0.07100000
v 0.03535054 -0.06199433 0.07100000
v 0.03500000 -0.06365257 0.07176012
v 0.03500000 -0.06300000 0.07219615
v 0.03500000 -0.06229610 0.07254328
v 0.03581940 -0.06543665 0.06940237
v 0.03582715 -0.06502754 0.07016854
v 0.03583125 -0.06450320 0.07087689
v 0.03669151 -0.06518495 0.06950102
v 0.03671807 -0.06469384 0.07031905
v 0.03672741 -0.06406301 0.07106301
v 0.03694001 -0.06400000 0.07100000
v 0.03561602 -0.06194690 0.07100000
v 0.03583125 -0.06387689 0.07150320
v 0.03582715 -0.06316854 0.07202754
v 0.03581940 -0.06240237 0.07243665
v 0.03671807 -0.06331905 0.07169384
v 0.03669151 -0.06250102 0.07218495
v 0.03500000 -0.06172208 0.07115746
v 0.03500000 -0.06116469 0.07134667
v 0.03500000 -0.06155291 0.07279555
v 0.03500000 -0.06058737 0.07146150
v 0.03500000 -0.06000000 0.07150000
v 0.03500000 -0.06078316 0.07294867
v 0.03500000 -0.06000000 0.07300000
v 0.03561455 -0.06180178 0.07107749
v 0.03588304 -0.06183215 0.07100000
v 0.03625566 -0.06159915 0.07100000
v 0.03623876 -0.06123876 0.07114499
v 0.03659915 -0.06125566 0.07100000
v 0.03683215 -0.06088304 0.07100000
v 0.03672208 -0.06000000 0.07115746
v 0.03680178 -0.06061455 0.07107749
v 0.03694690 -0.06061602 0.07100000
v 0.03699433 -0.06035054 0.07100000
v 0.03704137 -0.06000000 0.07100000
v 0.03560661 -0.06120283 0.07129363
v 0.03580881 -0.06160378 0.07272483
v 0.03559728 -0.06059728 0.07142001
v 0.03558737 -0.06000000 0.07146150
v 0.03620283 -0.06060661 0.07129363
v 0.03616469 -0.06000000 0.07134667
v 0.03579637 -0.06079637 0.07289335
v 0.03578316 -0.06000000 0.07294867
v 0.03665169 -0.06165169 0.07252665
v 0.03660378 -0.06080881 0.07272483
v 0.03655291 -0.06000000 0.07279555
v 0.03729610 -0.06554328 0.06700000
v 0.03800000 -0.06519615 0.06700000
v 0.03865257 -0.06476012 0.06700000
v 0.03740237 -0.06543665 0.06781940
v 0.03816854 -0.06502754 0.06782715
v 0.03750102 -0.06518495 0.06869151
v 0.03887689 -0.06450320 0.06783125
v 0.03831905 -0.06469384 0.06871807
v 0.03906301 -0.06406301 0.06872741
v 0.03911643 -0.06400000 0.06872662
v 0.03907363 -0.06400000 0.06881579
v 0.03924264 -0.06424264 0.06700000
v 0.03945543 -0.06400000 0.06700000
v 0.03941549 -0.06400000 0.06755145
v 0.03938008 -0.06400000 0.06783125
v 0.03921202 -0.06400000 0.06842404
v 0.03757860 -0.06476463 0.06957860
v 0.03762170 -0.06417052 0.07042541
v 0.03762170 -0.06400000 0.07059593
v 0.03782504 -0.06400000 0.07043475
v 0.03842541 -0.06417052 0.06962170
v 0.03843475 -0.06400000 0.06982504
v 0.03859593 -0.06400000 0.06962170
v 0.03762170 -0.06359593 0.07100000
v 0.03762170 -0.06342541 0.07117052
v 0.03782504 -0.06343475 0.07100000
v 0.03843475 -0.06282504 0.07100000
v 0.03842541 -0.06262170 0.07117052
v 0.03859593 -0.06262170 0.07100000
v 0.03757860 -0.06257860 0.07176463
v 0.03907363 -0.06181579 0.07100000
v 0.03906301 -0.06172741 0.07106301
v 0.03911643 -0.06172662 0.07100000
v 0.03750102 -0.06169151 0.07218495
v 0.03816854 -0.06082715 0.07202754
v 0.03740237 -0.06081940 0.07243665
v 0.03729610 -0.06000000 0.07254328
v 0.03800000 -0.06000000 0.07219615
v 0.03831905 -0.06171807 0.07169384
v 0.03865257 -0.06000000 0.07176012
v 0.03887689 -0.06083125 0.07150320
v 0.03921202 -0.06142404 0.07100000
v 0.03938008 -0.06083125 0.07100000
v 0.03941549 -0.06055145 0.07100000
v 0.03945543 -0.06000000 0.07100000
v 0.03924264 -0.06000000 0.07124264
v 0.03672208 -0.05300000 0.07115746
v 0.03704137 -0.05300000 0.07100000
v 0.03550000 -0.05300000 0.07146723
v 0.03558737 -0.05300000 0.07146150
v 0.03616469 -0.05300000 0.07134667
v 0.03578316 -0.05300000 0.07294867
v 0.03582806 -0.05300000 0.07293974
v 0.03655291 -0.05300000 0.07279555
v 0.03672208 -0.05000000 0.07115746
v 0.03704137 -0.05000000 0.07100000
v 0.03550000 -0.05000000 0.07146723
v 0.03558737 -0.05000000 0.07146150
v 0.03616469 -0.05000000 0.07134667
v 0.03584730 -0.05000000 0.07293591
v 0.03723568 -0.05024390 0.07256379
v 0.03723417 -0.05000000 0.07256430
v 0.03865257 -0.05300000 0.07176012
v 0.03868699 -0.05300000 0.07172993
v 0.03870174 -0.05000000 0.07171700
v 0.03950000 -0.05300000 0.07094918
v 0.03945543 -0.05300000 0.07100000
v 0.03925505 -0.05300000 0.07122849
v 0.03950000 -0.05000000 0.07094918
v 0.03945543 -0.05000000 0.07100000
v 0.03926001 -0.05020252 0.07122283
v 0.03926037 -0.05000000 0.07122242
v 0.03924264 -0.05000000 0.07124264
v 0.03950000 0.02000000 -0.04294918
v 0.03976012 0.02000000 -0.04265257
v 0.04019615 0.02000000 -0.04200000
v 0.04054328 0.02000000 -0.04129610
v 0.04079555 0.02000000 -0.04055291
v 0.04094867 0.02000000 -0.03978316
v 0.03950000 0.02000000 -0.03900000
v 0.04100000 0.02000000 -0.03900000
v 0.03950000 0.02000000 -0.02000000
v 0.04100000 0.02000000 -0.02000000
v 0.03950000 0.02004278 -0.01934737
v 0.03950000 0.02017037 -0.01870590
v 0.03950000 0.02038060 -0.01808658
v 0.04100000 0.02004278 -0.01934737
v 0.04100000 0.02017037 -0.01870590
v 0.04100000 0.02038060 -0.01808658
v 0.03950000 0.02066987 -0.01750000
v 0.03950000 0.02103323 -0.01695619
v 0.03950000 0.02146447 -0.01646447
v 0.03950000 0.02195619 -0.01603323
v 0.04100000 0.02066987 -0.01750000
v 0.04100000 0.02103323 -0.01695619
v 0.04100000 0.02146447 -0.01646447
v 0.04100000 0.02195619 -0.01603323
v 0.03950000 0.02250000 -0.01566987
v 0.04100000 0.02250000 -0.01566987
v 0.03950000 0.02308658 -0.01538060
v 0.03950000 0.02370590 -0.01517037
v 0.03950000 0.02434737 -0.01504278
v 0.04100000 0.02308658 -0.01538060
v 0.04100000 0.02370590 -0.01517037
v 0.04100000 0.02434737 -0.01504278
v 0.03950000 0.02500000 -0.01500000
v 0.04100000 0.02500000 -0.01500000
v 0.04100000 0.00165714 -0.00900000
v 0.03950000 0.01160000 -0.00900000
v 0.03550000 0.05000000 -0.01500000
v 0.03550000 0.05300000 -0.01500000
v 0.03950000 0.05000000 -0.01500000
v 0.03950000 0.05300000 -0.01500000
v 0.03950000 0.05800000 -0.01500000
v 0.04100000 0.05800000 -0.01500000
v 0.03950000 0.05000000 -0.00900000
v 0.03950000 0.05300000 -0.00900000
v 0.03950000 0.05800000 -0.00900000
v 0.04100000 0.05800000 -0.00900000
v 0.03400000 0.06450000 0.01100000
v 0.03400000 0.06600000 0.01100000
v 0.03500000 0.06450000 0.01100000
v 0.03500000 0.06600000 0.01100000
v 0.03558737 0.06446150 0.01100000
v 0.03616469 0.06434667 0.01100000
v 0.03578316 0.06594867 0.01100000
v 0.03672208 0.06415746 0.01100000
v 0.03704137 0.06400000 0.01100000
v 0.03655291 0.06579555 0.01100000
v 0.03729610 0.06554328 0.01100000
v 0.03800000 0.06519615 0.01100000
v 0.03865257 0.06476012 0.01100000
v 0.03924264 0.06424264 0.01100000
v 0.03945543 0.06400000 0.01100000
v 0.02500000 0.06450000 0.03600000
v 0.02500000 0.06600000 0.03600000
v 0.02506540 0.06450000 0.03599786
v 0.02506540 0.06600000 0.03599786
v 0.03400000 0.06450000 0.02700000
v 0.03399786 0.06450000 0.02706540
v 0.03400000 0.06600000 0.02700000
v 0.03399786 0.06600000 0.02706540
v 0.03392942 0.06450000 0.02810961
v 0.03391234 0.06450000 0.02823930
v 0.03370819 0.06450000 0.02926564
v 0.03367434 0.06450000 0.02939199
v 0.03392942 0.06600000 0.02810961
v 0.03391234 0.06600000 0.02823930
v 0.03370819 0.06600000 0.02926564
v 0.03367434 0.06600000 0.02939199
v 0.02610961 0.06450000 0.03592942
v 0.02623930 0.06450000 0.03591234
v 0.02610961 0.06600000 0.03592942
v 0.02623930 0.06600000 0.03591234
v 0.02726564 0.06450000 0.03570819
v 0.02739199 0.06450000 0.03567434
v 0.02726564 0.06600000 0.03570819
v 0.02739199 0.06600000 0.03567434
v 0.02944229 0.06450000 0.03482508
v 0.02955557 0.06450000 0.03475967
v 0.02944229 0.06600000 0.03482508
v 0.02955557 0.06600000 0.03475967
v 0.02838291 0.06450000 0.03533797
v 0.02850376 0.06450000 0.03528791
v 0.02838291 0.06600000 0.03533797
v 0.02850376 0.06600000 0.03528791
v 0.03333797 0.06450000 0.03038291
v 0.03328791 0.06450000 0.03050376
v 0.03333797 0.06600000 0.03038291
v 0.03328791 0.06600000 0.03050376
v 0.03217830 0.06450000 0.03242566
v 0.03209867 0.06450000 0.03252944
v 0.03217830 0.06600000 0.03242566
v 0.03209867 0.06600000 0.03252944
v 0.03275967 0.06450000 0.03155557
v 0.03282508 0.06450000 0.03144229
v 0.03275967 0.06600000 0.03155557
v 0.03282508 0.06600000 0.03144229
v 0.03042566 0.06450000 0.03417830
v 0.03052944 0.06450000 0.03409867
v 0.03042566 0.06600000 0.03417830
v 0.03052944 0.06600000 0.03409867
v 0.03131620 0.06450000 0.03340869
v 0.03140869 0.06450000 0.03331620
v 0.03131620 0.06600000 0.03340869
v 0.03140869 0.06600000 0.03331620
v 0.02500000 0.06389711 0.06925000
v 0.02500000 0.06400000 0.06904137
v 0.02500000 0.06204137 0.07100000
v 0.02500000 0.06225000 0.07089711
v 0.02500000 0.06273943 0.07057009
v 0.02500000 0.06318198 0.07018198
v 0.02500000 0.06357009 0.06973943
v 0.02500000 0.06400000 0.07100000
v 0.03672208 0.05000000 0.07115746
v 0.03704137 0.05000000 0.07100000
v 0.03550000 0.05000000 0.07146723
v 0.03558737 0.05000000 0.07146150
v 0.03616469 0.05000000 0.07134667
v 0.03578316 0.05000000 0.07294867
v 0.03648877 0.05000000 0.07280831
v 0.03655291 0.05000000 0.07279555
v 0.03661334 0.05024390 0.07277504
v 0.03672208 0.05300000 0.07115746
v 0.03704137 0.05300000 0.07100000
v 0.03550000 0.05300000 0.07146723
v 0.03558737 0.05300000 0.07146150
v 0.03616469 0.05300000 0.07134667
v 0.03650801 0.05300000 0.07280449
v 0.03659627 0.05300000 0.07278084
v 0.03865257 0.05000000 0.07176012
v 0.03950000 0.05000000 0.07094918
v 0.03943770 0.05000000 0.07102022
v 0.03945543 0.05000000 0.07100000
v 0.03919347 0.05000000 0.07128576
v 0.03924264 0.05000000 0.07124264
v 0.03950000 0.05300000 0.07094918
v 0.03945543 0.05300000 0.07100000
v 0.03944302 0.05300000 0.07101415
v 0.03920822 0.05300000 0.07127283
v 0.03500000 0.06172208 0.07115746
v 0.03500000 0.06000000 0.07150000
v 0.03500000 0.06058737 0.07146150
v 0.03500000 0.06000000 0.07300000
v 0.03500000 0.06078316 0.07294867
v 0.03500000 0.06116469 0.07134667
v 0.03500000 0.06155291 0.07279555
v 0.03561455 0.06180178 0.07107749
v 0.03623876 0.06123876 0.07114499
v 0.03588304 0.06183215 0.07100000
v 0.03625566 0.06159915 0.07100000
v 0.03672208 0.06000000 0.07115746
v 0.03704137 0.06000000 0.07100000
v 0.03699433 0.06035054 0.07100000
v 0.03680178 0.06061455 0.07107749
v 0.03694690 0.06061602 0.07100000
v 0.03659915 0.06125566 0.07100000
v 0.03683215 0.06088304 0.07100000
v 0.03558737 0.06000000 0.07146150
v 0.03559728 0.06059728 0.07142001
v 0.03616469 0.06000000 0.07134667
v 0.03620283 0.06060661 0.07129363
v 0.03578316 0.06000000 0.07294867
v 0.03579637 0.06079637 0.07289335
v 0.03560661 0.06120283 0.07129363
v 0.03580881 0.06160378 0.07272483
v 0.03655291 0.06000000 0.07279555
v 0.03660378 0.06080881 0.07272483
v 0.03665169 0.06165169 0.07252665
v 0.03500000 0.06450000 0.06700000
v 0.03500000 0.06600000 0.06700000
v 0.03500000 0.06434667 0.06816469
v 0.03500000 0.06446150 0.06758737
v 0.03500000 0.06415746 0.06872208
v 0.03500000 0.06400000 0.06904137
v 0.03535054 0.06400000 0.06899433
v 0.03500000 0.06594867 0.06778316
v 0.03500000 0.06579555 0.06855291
v 0.03500000 0.06554328 0.06929610
v 0.03558737 0.06446150 0.06700000
v 0.03616469 0.06434667 0.06700000
v 0.03578316 0.06594867 0.06700000
v 0.03672208 0.06415746 0.06700000
v 0.03704137 0.06400000 0.06700000
v 0.03699433 0.06400000 0.06735054
v 0.03655291 0.06579555 0.06700000
v 0.03559728 0.06442001 0.06759728
v 0.03560661 0.06429363 0.06820283
v 0.03620283 0.06429363 0.06760661
v 0.03623876 0.06414499 0.06823876
v 0.03561455 0.06407749 0.06880178
v 0.03561602 0.06400000 0.06894690
v 0.03588304 0.06400000 0.06883215
v 0.03625566 0.06400000 0.06859915
v 0.03579637 0.06589335 0.06779637
v 0.03580881 0.06572483 0.06860378
v 0.03659915 0.06400000 0.06825566
v 0.03680178 0.06407749 0.06761455
v 0.03694690 0.06400000 0.06761602
v 0.03683215 0.06400000 0.06788304
v 0.03660378 0.06572483 0.06780881
v 0.03665169 0.06552665 0.06865169
v 0.03500000 0.06204137 0.07100000
v 0.03535054 0.06199433 0.07100000
v 0.03500000 0.06229610 0.07254328
v 0.03500000 0.06365257 0.07176012
v 0.03500000 0.06300000 0.07219615
v 0.03500000 0.06476012 0.07065257
v 0.03500000 0.06519615 0.07000000
v 0.03500000 0.06424264 0.07124264
v 0.03561602 0.06194690 0.07100000
v 0.03581940 0.06240237 0.07243665
v 0.03582715 0.06316854 0.07202754
v 0.03583125 0.06387689 0.07150320
v 0.03669151 0.06250102 0.07218495
v 0.03671807 0.06331905 0.07169384
v 0.03583125 0.06450320 0.07087689
v 0.03581940 0.06543665 0.06940237
v 0.03582715 0.06502754 0.07016854
v 0.03672741 0.06406301 0.07106301
v 0.03671807 0.06469384 0.07031905
v 0.03694001 0.06400000 0.07100000
v 0.03669151 0.06518495 0.06950102
v 0.03906301 0.06172741 0.07106301
v 0.03911643 0.06172662 0.07100000
v 0.03907363 0.06181579 0.07100000
v 0.03816854 0.06082715 0.07202754
v 0.03729610 0.06000000 0.07254328
v 0.03740237 0.06081940 0.07243665
v 0.03800000 0.06000000 0.07219615
v 0.03750102 0.06169151 0.07218495
v 0.03865257 0.06000000 0.07176012
v 0.03887689 0.06083125 0.07150320
v 0.03831905 0.06171807 0.07169384
v 0.03945543 0.06000000 0.07100000
v 0.03941549 0.06055145 0.07100000
v 0.03938008 0.06083125 0.07100000
v 0.03921202 0.06142404 0.07100000
v 0.03924264 0.06000000 0.07124264
v 0.03729610 0.06554328 0.06700000
v 0.03800000 0.06519615 0.06700000
v 0.03865257 0.06476012 0.06700000
v 0.03740237 0.06543665 0.06781940
v 0.03816854 0.06502754 0.06782715
v 0.03750102 0.06518495 0.06869151
v 0.03887689 0.06450320 0.06783125
v 0.03831905 0.06469384 0.06871807
v 0.03906301 0.06406301 0.06872741
v 0.03911643 0.06400000 0.06872662
v 0.03907363 0.06400000 0.06881579
v 0.03924264 0.06424264 0.06700000
v 0.03945543 0.06400000 0.06700000
v 0.03941549 0.06400000 0.06755145
v 0.03938008 0.06400000 0.06783125
v 0.03921202 0.06400000 0.06842404
v 0.03762170 0.06342541 0.07117052
v 0.03762170 0.06359593 0.07100000
v 0.03782504 0.06343475 0.07100000
v 0.03842541 0.06262170 0.07117052
v 0.03859593 0.06262170 0.07100000
v 0.03843475 0.06282504 0.07100000
v 0.03757860 0.06257860 0.07176463
v 0.03757860 0.06476463 0.06957860
v 0.03762170 0.06417052 0.07042541
v 0.03762170 0.06400000 0.07059593
v 0.03782504 0.06400000 0.07043475
v 0.03843475 0.06400000 0.06982504
v 0.03842541 0.06417052 0.06962170
v 0.03859593 0.06400000 0.06962170
f 1048 1040 1041
f 1042 1049 1050
f 1053 1051 1052
f 1061 1056 1055
f 1054 1059 1055
f 1059 1061 1055
f 1054 1057 1059
f 1058 1060 1059
f 1057 1058 1059
f 1197 1188 1189
f 1190 1191 1198
f 1208 1199 1203
f 1205 1201 1202
f 1205 1204 1201
f 1200 1205 1202
f 1205 1206 1204
f 1206 1207 1204
f 1 7 3
f 2 4 40
f 3 36 40
f 3 40 4
f 3 5 36
f 1 3 4
f 5 49 36
f 5 6 49
f 6 50 49
f 6 30 50
f 5 10 6
f 6 10 29
f 5 7 10
f 7 8 11
f 1 9 7
f 7 9 8
f 7 11 10
f 10 11 31
f 8 12 11
f 11 12 14
f 11 14 13
f 11 13 28
f 3 7 5
f 17 59 25
f 15 17 20
f 15 16 17
f 16 62 17
f 15 20 19
f 18 19 20
f 18 20 21
f 18 21 22
f 21 23 22
f 21 24 23
f 21 32 24
f 20 26 21
f 21 26 33
f 20 25 26
f 26 27 34
f 25 27 26
f 17 25 20
f 6 29 30
f 10 31 29
f 11 28 31
f 28 82 31
f 26 34 33
f 21 33 32
f 32 33 84
f 27 35 34
f 36 49 38
f 36 38 42
f 38 39 42
f 37 39 38
f 40 42 44
f 40 44 41
f 2 40 41
f 41 44 45
f 36 42 40
f 42 43 44
f 39 43 42
f 44 47 46
f 44 46 45
f 43 47 44
f 43 48 47
f 38 49 51
f 49 50 51
f 50 53 51
f 50 55 53
f 37 38 51
f 51 53 52
f 37 51 52
f 53 56 54
f 52 53 54
f 30 55 50
f 53 55 56
f 54 56 57
f 59 62 63
f 59 64 69
f 16 60 62
f 60 61 62
f 61 65 62
f 17 62 59
f 59 63 64
f 63 74 64
f 61 67 65
f 62 65 63
f 65 66 68
f 65 67 66
f 63 65 75
f 65 68 76
f 25 59 69
f 25 69 27
f 69 71 70
f 27 69 70
f 27 70 35
f 70 72 79
f 64 71 69
f 64 73 71
f 71 77 72
f 70 71 72
f 72 78 80
f 63 75 74
f 64 74 73
f 65 76 75
f 74 75 99
f 73 74 98
f 74 99 98
f 75 76 101
f 75 101 100
f 75 100 99
f 71 73 77
f 72 77 78
f 73 102 77
f 73 98 102
f 77 102 103
f 77 103 78
f 78 103 104
f 35 70 79
f 72 80 79
f 78 81 80
f 78 104 81
f 81 104 106
f 30 214 55
f 29 214 30
f 29 31 213
f 33 34 221
f 34 35 223
f 31 82 212
f 83 84 212
f 82 83 212
f 33 212 84
f 55 258 56
f 56 260 57
f 35 79 223
f 79 80 312
f 80 81 312
f 81 106 330
f 122 123 165
f 123 126 165
f 126 127 165
f 127 130 165
f 130 131 164
f 131 134 161
f 37 395 39
f 43 398 48
f 39 398 43
f 37 52 407
f 52 54 409
f 54 57 413
f 57 260 413
f 106 107 330
f 107 110 330
f 110 111 330
f 111 114 330
f 134 135 160
f 135 138 160
f 114 115 330
f 115 118 330
f 118 119 330
f 119 122 330
f 29 213 214
f 31 215 213
f 31 212 215
f 34 222 221
f 33 221 212
f 34 223 222
f 55 214 258
f 56 258 259
f 56 259 260
f 79 310 223
f 79 312 310
f 81 330 312
f 122 165 330
f 138 139 160
f 139 142 160
f 142 143 160
f 143 146 160
f 146 147 160
f 147 150 160
f 150 151 160
f 151 154 160
f 154 155 160
f 131 161 164
f 134 160 161
f 130 164 165
f 155 158 160
f 165 166 330
f 166 167 330
f 167 172 330
f 172 173 330
f 173 176 330
f 176 177 330
f 177 180 330
f 180 181 330
f 212 224 219
f 219 224 225
f 214 216 265
f 213 216 214
f 213 218 216
f 215 219 218
f 213 215 218
f 212 219 215
f 216 266 265
f 216 218 217
f 216 217 266
f 217 284 266
f 218 219 220
f 217 218 220
f 219 225 220
f 220 225 245
f 220 245 246
f 217 220 246
f 217 246 284
f 221 222 227
f 212 221 224
f 221 227 224
f 222 228 227
f 222 223 228
f 224 226 225
f 224 227 226
f 225 226 248
f 226 227 229
f 227 228 229
f 229 339 249
f 226 249 248
f 226 229 249
f 225 248 245
f 246 287 284
f 245 247 246
f 246 247 287
f 247 293 287
f 248 249 250
f 249 340 250
f 245 248 251
f 245 251 247
f 247 251 252
f 247 252 293
f 248 250 251
f 250 253 251
f 251 253 252
f 250 341 253
f 252 302 293
f 253 355 257
f 252 253 257
f 252 257 302
f 257 305 302
f 257 356 305
f 214 265 258
f 258 265 267
f 258 267 259
f 259 267 268
f 259 268 260
f 265 269 267
f 265 266 269
f 266 285 269
f 266 284 285
f 267 269 270
f 267 270 268
f 269 285 271
f 269 271 270
f 284 288 285
f 285 288 286
f 271 285 286
f 284 287 288
f 287 290 288
f 287 293 290
f 290 293 303
f 286 288 289
f 288 290 289
f 289 290 291
f 290 303 291
f 293 302 303
f 302 306 303
f 291 303 304
f 303 306 304
f 304 306 307
f 302 305 306
f 305 308 306
f 306 308 307
f 307 308 309
f 223 315 228
f 223 310 315
f 310 318 315
f 310 312 318
f 312 332 318
f 228 315 316
f 228 316 229
f 315 319 316
f 229 316 339
f 316 342 339
f 315 318 319
f 318 333 319
f 316 319 342
f 319 334 342
f 312 330 332
f 318 332 333
f 319 333 334
f 339 343 340
f 249 339 340
f 250 340 341
f 340 344 341
f 339 342 343
f 342 360 343
f 340 343 344
f 341 344 357
f 343 361 344
f 344 362 357
f 253 341 355
f 341 357 355
f 355 358 356
f 257 355 356
f 305 356 376
f 356 359 376
f 355 357 358
f 357 367 358
f 356 358 359
f 359 380 376
f 358 368 359
f 359 369 380
f 334 360 342
f 343 360 361
f 344 361 362
f 357 362 367
f 358 367 368
f 359 368 369
f 305 376 308
f 308 376 377
f 376 380 377
f 308 377 309
f 309 377 378
f 377 385 378
f 377 380 385
f 380 389 385
f 378 385 386
f 385 392 386
f 369 389 380
f 385 389 392
f 386 392 393
f 181 184 330
f 184 185 330
f 185 188 330
f 188 189 330
f 189 192 330
f 192 193 330
f 193 196 330
f 196 197 330
f 197 200 330
f 200 201 330
f 201 204 330
f 204 205 330
f 205 208 330
f 208 209 330
f 260 268 605
f 268 270 614
f 270 271 614
f 271 286 615
f 286 289 631
f 289 291 638
f 291 304 638
f 304 307 653
f 307 309 653
f 309 378 654
f 378 386 716
f 386 393 716
f 330 906 332
f 332 909 333
f 333 909 334
f 334 939 360
f 360 939 361
f 361 941 362
f 362 941 367
f 367 945 368
f 368 945 369
f 369 962 389
f 389 962 392
f 392 965 393
f 209 846 330
f 393 966 723
f 37 394 395
f 39 395 398
f 48 398 400
f 37 407 394
f 52 409 407
f 54 413 409
f 394 396 395
f 395 396 399
f 396 397 399
f 396 411 397
f 395 399 398
f 398 399 401
f 398 401 400
f 400 401 402
f 401 403 402
f 401 404 403
f 399 405 401
f 401 406 404
f 401 405 406
f 405 417 406
f 397 405 399
f 394 407 408
f 394 408 396
f 407 410 408
f 407 409 410
f 409 414 410
f 396 408 411
f 408 412 411
f 408 410 412
f 410 415 412
f 409 413 414
f 410 414 415
f 412 415 444
f 405 419 417
f 397 418 405
f 405 418 419
f 397 421 418
f 418 420 419
f 418 423 420
f 397 411 421
f 411 422 421
f 411 412 422
f 412 444 422
f 421 422 426
f 422 445 426
f 418 421 423
f 421 426 423
f 420 423 424
f 423 425 424
f 423 427 425
f 423 426 427
f 426 446 427
f 425 427 428
f 427 429 428
f 427 430 429
f 427 447 430
f 431 436 433
f 431 433 432
f 432 433 454
f 433 441 455
f 431 435 436
f 434 436 435
f 434 437 436
f 434 440 437
f 437 440 438
f 437 438 439
f 437 439 448
f 436 437 442
f 437 449 442
f 433 436 441
f 436 442 441
f 442 450 443
f 441 442 443
f 422 444 445
f 426 445 446
f 427 446 447
f 437 448 449
f 448 485 449
f 442 449 450
f 443 450 451
f 432 454 452
f 452 454 453
f 453 454 456
f 433 455 454
f 454 455 460
f 455 462 461
f 453 456 459
f 454 460 456
f 456 458 457
f 456 457 459
f 456 466 458
f 456 460 467
f 455 461 460
f 460 461 468
f 441 462 455
f 441 443 462
f 462 463 464
f 443 463 462
f 443 451 463
f 463 472 465
f 461 462 464
f 461 464 469
f 464 465 470
f 463 465 464
f 465 473 471
f 456 467 466
f 460 468 467
f 461 469 468
f 466 467 491
f 467 468 492
f 467 492 491
f 468 493 492
f 468 469 493
f 469 494 493
f 464 470 469
f 465 471 470
f 469 470 494
f 470 471 495
f 470 495 494
f 471 474 496
f 471 496 495
f 451 472 463
f 465 472 473
f 471 473 474
f 474 497 496
f 474 501 497
f 413 605 414
f 414 607 415
f 415 657 444
f 444 657 445
f 445 659 446
f 446 659 447
f 449 682 450
f 450 683 451
f 447 659 479
f 479 665 480
f 480 665 485
f 449 485 665
f 451 683 472
f 472 736 473
f 473 736 474
f 474 749 501
f 526 556 529
f 260 605 413
f 268 612 605
f 268 614 612
f 271 615 614
f 286 631 615
f 289 635 631
f 289 638 635
f 304 650 638
f 304 653 650
f 309 654 653
f 378 709 654
f 378 716 709
f 393 723 716
f 501 749 502
f 502 749 505
f 505 749 506
f 506 749 509
f 529 555 530
f 530 555 533
f 509 749 510
f 510 749 513
f 513 749 514
f 514 749 517
f 517 749 518
f 518 749 521
f 521 749 522
f 522 749 525
f 525 749 526
f 414 605 606
f 414 606 607
f 415 607 657
f 445 657 658
f 445 658 659
f 479 659 665
f 449 665 681
f 449 681 682
f 450 682 683
f 472 683 733
f 472 733 736
f 474 736 749
f 526 749 556
f 533 555 534
f 534 555 537
f 537 555 538
f 538 555 541
f 541 555 542
f 542 555 545
f 545 555 546
f 546 555 549
f 549 555 550
f 529 556 555
f 550 555 552
f 556 749 561
f 561 749 562
f 562 749 563
f 563 749 564
f 564 749 567
f 567 749 568
f 568 749 571
f 571 749 572
f 572 749 575
f 575 749 576
f 605 612 606
f 606 612 613
f 606 613 607
f 607 613 617
f 607 617 657
f 612 614 613
f 613 614 616
f 614 615 616
f 615 632 616
f 613 616 617
f 616 618 617
f 616 632 618
f 618 632 633
f 615 631 632
f 631 634 632
f 632 634 633
f 631 635 634
f 634 635 636
f 635 638 636
f 633 634 637
f 634 636 637
f 636 649 642
f 636 642 637
f 636 638 649
f 638 650 649
f 650 653 652
f 649 650 652
f 642 649 651
f 649 652 651
f 652 653 655
f 653 654 655
f 651 652 656
f 652 655 656
f 617 660 657
f 657 660 658
f 658 660 662
f 658 662 659
f 659 662 663
f 659 663 665
f 617 618 660
f 618 661 660
f 660 661 662
f 618 633 661
f 633 690 661
f 661 690 664
f 661 664 662
f 662 664 663
f 663 664 685
f 664 690 692
f 664 692 685
f 663 684 665
f 663 685 684
f 685 692 700
f 665 684 681
f 681 684 687
f 681 687 682
f 682 687 688
f 682 688 683
f 684 685 686
f 684 686 687
f 685 700 686
f 686 700 701
f 686 701 689
f 686 689 687
f 687 689 688
f 689 701 773
f 633 637 690
f 637 691 690
f 690 691 692
f 637 642 691
f 642 693 691
f 691 693 694
f 691 694 692
f 692 694 700
f 694 702 700
f 693 698 694
f 694 698 702
f 698 771 702
f 642 651 693
f 651 699 693
f 651 656 699
f 693 699 698
f 656 766 699
f 698 699 767
f 700 702 701
f 701 702 772
f 654 709 710
f 654 710 655
f 709 717 710
f 655 710 711
f 655 711 656
f 710 719 711
f 709 716 717
f 716 724 717
f 710 717 719
f 717 726 719
f 716 723 724
f 717 724 726
f 719 726 781
f 683 688 738
f 683 738 733
f 733 738 745
f 733 745 736
f 736 745 753
f 688 689 739
f 688 739 738
f 738 739 746
f 689 773 739
f 739 773 775
f 738 746 745
f 745 746 754
f 739 775 746
f 746 775 755
f 736 753 749
f 745 754 753
f 746 755 754
f 699 766 767
f 656 711 766
f 711 768 766
f 698 767 771
f 766 769 767
f 767 770 771
f 711 719 768
f 766 768 769
f 719 781 768
f 768 783 769
f 767 769 770
f 769 782 770
f 701 772 773
f 702 771 772
f 771 774 772
f 772 776 773
f 770 774 771
f 772 774 776
f 774 784 776
f 773 776 775
f 775 776 785
f 770 786 774
f 768 781 783
f 769 783 782
f 770 782 786
f 774 786 784
f 755 775 785
f 776 784 785
f 576 749 579
f 579 749 580
f 580 749 583
f 583 749 584
f 584 749 587
f 587 749 588
f 588 749 591
f 591 749 592
f 592 749 595
f 595 749 596
f 596 749 599
f 599 749 600
f 600 749 603
f 603 749 604
f 723 1213 724
f 724 1213 726
f 726 1215 781
f 749 753 1239
f 753 754 1246
f 754 755 1246
f 781 1275 783
f 782 783 1275
f 782 1274 786
f 784 1276 785
f 784 786 1276
f 755 785 1277
f 604 749 1239
f 788 821 794
f 812 1062 813
f 813 1064 814
f 814 1065 815
f 815 1066 816
f 816 1067 817
f 817 1069 819
f 839 1096 844
f 834 1096 835
f 843 1096 845
f 843 844 1096
f 833 1096 834
f 833 845 1096
f 819 1071 839
f 794 821 1096
f 821 825 1096
f 825 826 1096
f 826 827 1096
f 827 837 1096
f 832 1096 837
f 832 835 1096
f 330 846 906
f 332 906 908
f 332 908 909
f 334 909 910
f 334 910 939
f 361 939 940
f 361 940 941
f 367 941 944
f 367 944 945
f 369 945 946
f 369 946 962
f 392 962 965
f 393 965 966
f 797 799 850
f 882 906 883
f 882 886 906
f 799 801 906
f 801 804 916
f 804 807 919
f 799 906 850
f 807 808 989
f 808 809 990
f 809 810 991
f 810 811 1001
f 850 906 851
f 851 906 854
f 854 906 855
f 855 906 856
f 856 906 857
f 878 906 879
f 879 906 887
f 857 906 878
f 886 887 906
f 846 848 906
f 848 862 906
f 862 863 906
f 863 866 906
f 870 906 875
f 870 871 906
f 866 867 906
f 867 874 906
f 874 875 906
f 891 894 906
f 871 890 906
f 890 891 906
f 883 906 895
f 894 895 906
f 801 916 906
f 804 919 916
f 807 989 919
f 808 990 989
f 809 991 990
f 810 1000 991
f 810 1001 1000
f 906 916 908
f 908 923 909
f 909 924 910
f 908 916 923
f 916 919 923
f 919 933 923
f 919 989 933
f 933 989 992
f 909 923 924
f 923 933 924
f 910 924 947
f 924 934 947
f 924 933 934
f 933 992 934
f 934 992 994
f 934 950 947
f 934 994 950
f 910 947 939
f 939 948 940
f 940 949 941
f 941 955 944
f 944 956 945
f 945 957 946
f 939 947 948
f 947 950 948
f 940 948 949
f 948 951 949
f 949 952 955
f 948 950 951
f 950 1005 951
f 949 951 952
f 951 1006 952
f 952 1006 953
f 941 949 955
f 952 953 1013
f 944 955 956
f 955 958 956
f 945 956 957
f 946 957 979
f 956 959 957
f 957 986 979
f 952 958 955
f 956 958 959
f 952 1013 958
f 958 1018 959
f 957 959 986
f 959 1022 986
f 946 979 962
f 962 984 965
f 965 985 966
f 962 979 984
f 979 987 984
f 965 984 985
f 984 988 985
f 979 986 987
f 986 1022 1024
f 986 1024 987
f 984 987 988
f 987 1024 1025
f 987 1025 988
f 989 990 992
f 990 993 992
f 990 991 993
f 991 995 993
f 991 1000 995
f 992 993 994
f 993 996 994
f 950 994 1005
f 994 996 1005
f 996 1009 1005
f 993 995 996
f 995 997 996
f 995 1004 997
f 996 997 1009
f 997 998 999
f 997 1011 1009
f 997 999 1011
f 995 1000 1002
f 1000 1001 1002
f 995 1002 1003
f 995 1003 1004
f 997 1004 998
f 951 1005 1006
f 1005 1009 1006
f 1006 1009 1010
f 1006 1010 1008
f 953 1006 1007
f 1006 1008 1007
f 1009 1011 1010
f 953 1012 1013
f 1012 1014 1013
f 1013 1014 1016
f 1014 1015 1016
f 1015 1017 1016
f 1016 1017 1019
f 1016 1019 1020
f 958 1013 1018
f 959 1018 1022
f 1013 1016 1018
f 1016 1027 1018
f 1018 1027 1022
f 1016 1020 1027
f 1019 1021 1020
f 1022 1027 1023
f 1022 1023 1024
f 1024 1026 1025
f 1023 1026 1024
f 1023 1027 1029
f 1020 1029 1027
f 1020 1030 1029
f 1023 1029 1028
f 1023 1028 1026
f 1028 1029 1034
f 1020 1021 1030
f 1029 1030 1031
f 1029 1031 1032
f 1032 1033 1034
f 1029 1032 1034
f 985 988 1041
f 988 1025 1042
f 985 1041 1040
f 988 1048 1041
f 1025 1049 1042
f 1028 1051 1026
f 1028 1034 1052
f 1028 1052 1051
f 1034 1053 1052
f 1033 1056 1034
f 1033 1055 1056
f 1034 1056 1061
f 1060 1061 1059
f 966 985 1212
f 988 1189 1048
f 988 1042 1197
f 985 1040 1212
f 1040 1048 1188
f 1042 1050 1190
f 1026 1051 1199
f 1026 1298 1025
f 1034 1203 1053
f 1025 1296 1049
f 1051 1053 1199
f 1034 1061 1208
f 1061 1060 1201
f 1060 1058 1201
f 1296 1050 1049
f 813 1062 1063
f 813 1063 1064
f 814 1064 1065
f 815 1065 1066
f 816 1066 1067
f 817 1067 1069
f 819 1069 1071
f 839 1071 1096
f 1071 1075 1096
f 1075 1076 1096
f 1076 1077 1096
f 1077 1082 1096
f 1082 1083 1096
f 1083 1084 1096
f 1084 1085 1096
f 1085 1087 1096
f 1087 1091 1096
f 1091 1092 1096
f 1092 1093 1096
f 1093 1095 1096
f 1095 1103 1096
f 1096 1103 1107
f 723 966 1212
f 604 1239 1124
f 723 1212 1213
f 726 1213 1215
f 753 1245 1239
f 753 1246 1245
f 755 1247 1246
f 781 1215 1273
f 781 1273 1275
f 782 1275 1274
f 786 1278 1276
f 755 1277 1247
f 785 1276 1277
f 786 1274 1278
f 988 1197 1189
f 1034 1208 1203
f 1188 1048 1189
f 1197 1042 1190
f 1190 1050 1191
f 1212 1040 1188
f 1296 1191 1050
f 1199 1300 1026
f 1199 1053 1203
f 1298 1296 1025
f 1300 1298 1026
f 1061 1201 1204
f 1058 1202 1201
f 1061 1204 1208
f 1109 1129 1111
f 1161 1162 1239
f 1161 1239 1165
f 1111 1250 1114
f 1114 1254 1117
f 1117 1308 1118
f 1111 1129 1239
f 1118 1309 1119
f 1119 1310 1120
f 1120 1319 1121
f 1121 1319 1122
f 1129 1130 1239
f 1130 1135 1239
f 1135 1136 1239
f 1136 1137 1239
f 1137 1138 1239
f 1157 1158 1239
f 1158 1166 1239
f 1138 1157 1239
f 1165 1239 1166
f 1124 1239 1126
f 1126 1239 1141
f 1141 1239 1142
f 1142 1239 1145
f 1149 1154 1239
f 1149 1239 1150
f 1145 1239 1146
f 1146 1239 1153
f 1153 1239 1154
f 1170 1239 1173
f 1150 1239 1169
f 1169 1239 1170
f 1162 1174 1239
f 1173 1239 1174
f 1111 1239 1250
f 1114 1250 1254
f 1117 1254 1308
f 1118 1308 1309
f 1120 1310 1319
f 1119 1309 1310
f 1122 1319 1320
f 1231 1188 1197
f 1190 1235 1197
f 1235 1190 1198
f 1296 1198 1191
f 1188 1231 1212
f 1231 1197 1235
f 1235 1198 1296
f 1300 1199 1208
f 1300 1208 1307
f 1307 1204 1207
f 1303 1207 1206
f 1204 1307 1208
f 1303 1307 1207
f 1212 1231 1213
f 1213 1232 1215
f 1215 1234 1273
f 1213 1231 1232
f 1231 1235 1232
f 1215 1232 1234
f 1232 1236 1234
f 1232 1235 1236
f 1235 1296 1236
f 1236 1296 1297
f 1234 1236 1237
f 1236 1297 1237
f 1237 1297 1299
f 1239 1245 1250
f 1245 1246 1263
f 1246 1247 1264
f 1245 1263 1250
f 1250 1263 1254
f 1254 1263 1269
f 1254 1269 1308
f 1269 1311 1308
f 1246 1264 1263
f 1263 1264 1269
f 1247 1286 1264
f 1264 1286 1270
f 1264 1270 1269
f 1270 1313 1311
f 1269 1270 1311
f 1270 1286 1291
f 1270 1291 1313
f 1273 1280 1275
f 1274 1275 1281
f 1274 1282 1278
f 1276 1278 1285
f 1247 1277 1286
f 1276 1287 1277
f 1288 1324 1290
f 1234 1280 1273
f 1275 1280 1281
f 1234 1237 1280
f 1280 1283 1281
f 1274 1281 1282
f 1281 1284 1282
f 1283 1330 1284
f 1237 1283 1280
f 1237 1299 1283
f 1281 1283 1284
f 1282 1284 1288
f 1284 1324 1288
f 1276 1285 1287
f 1282 1288 1285
f 1285 1289 1287
f 1277 1287 1286
f 1286 1287 1291
f 1289 1331 1291
f 1285 1288 1289
f 1288 1332 1289
f 1288 1290 1332
f 1287 1289 1291
f 1278 1282 1285
f 1292 1293 1294
f 1296 1298 1297
f 1295 1297 1298
f 1295 1302 1299
f 1295 1299 1297
f 1295 1298 1300
f 1295 1300 1301
f 1300 1307 1301
f 1295 1301 1302
f 1292 1301 1306
f 1292 1302 1301
f 1303 1304 1307
f 1301 1304 1305
f 1301 1305 1306
f 1292 1306 1293
f 1301 1307 1304
f 1308 1311 1309
f 1309 1311 1312
f 1310 1312 1314
f 1310 1314 1319
f 1309 1312 1310
f 1313 1331 1315
f 1315 1331 1336
f 1311 1313 1312
f 1312 1313 1315
f 1291 1331 1313
f 1312 1315 1314
f 1314 1315 1316
f 1314 1316 1323
f 1315 1336 1316
f 1316 1318 1317
f 1316 1336 1318
f 1318 1336 1337
f 1314 1321 1319
f 1319 1321 1320
f 1314 1322 1321
f 1314 1323 1322
f 1316 1317 1323
f 1290 1324 1325
f 1324 1326 1325
f 1324 1327 1329
f 1324 1329 1326
f 1327 1328 1329
f 1292 1328 1327
f 1292 1294 1328
f 1283 1299 1330
f 1302 1327 1330
f 1299 1302 1330
f 1324 1330 1327
f 1284 1330 1324
f 1292 1327 1302
f 1289 1332 1331
f 1331 1332 1336
f 1332 1335 1336
f 1332 1334 1335
f 1290 1333 1332
f 1332 1333 1334
f 1335 1337 1336
f 97 108 105
f 85 230 86
f 85 89 261
f 86 231 88
f 87 88 233
f 87 232 96
f 89 90 262
f 90 91 263
f 91 92 264
f 93 96 325
f 93 311 94
f 94 313 95
f 95 314 97
f 97 331 108
f 124 168 125
f 125 168 128
f 128 168 129
f 129 168 132
f 132 168 133
f 58 416 92
f 92 416 264
f 108 331 109
f 109 331 112
f 112 331 113
f 113 331 116
f 133 168 136
f 136 162 137
f 137 162 140
f 116 331 117
f 117 331 120
f 120 331 121
f 121 331 124
f 88 231 233
f 86 230 231
f 85 261 230
f 87 233 232
f 96 232 325
f 89 262 261
f 90 263 262
f 91 264 263
f 93 325 311
f 94 311 313
f 95 313 314
f 97 314 331
f 124 331 168
f 140 162 141
f 141 162 144
f 144 162 145
f 145 162 148
f 148 162 149
f 149 162 152
f 152 162 153
f 153 162 156
f 156 162 157
f 136 163 162
f 136 168 163
f 157 162 159
f 168 331 169
f 169 331 170
f 170 331 171
f 171 331 174
f 174 331 175
f 175 331 178
f 178 331 179
f 179 331 182
f 182 331 183
f 231 234 233
f 230 235 231
f 230 279 235
f 230 261 279
f 231 235 234
f 233 234 239
f 232 233 239
f 232 239 241
f 232 241 325
f 235 279 236
f 235 236 237
f 234 235 237
f 234 237 240
f 236 238 237
f 237 244 240
f 237 238 244
f 238 254 244
f 234 240 239
f 239 240 242
f 239 242 241
f 240 244 243
f 240 243 242
f 242 243 327
f 243 244 255
f 243 255 345
f 244 254 255
f 254 256 255
f 255 256 346
f 261 262 272
f 261 272 279
f 262 274 272
f 262 263 274
f 263 276 274
f 263 264 276
f 272 273 279
f 272 275 273
f 272 274 275
f 274 277 275
f 273 275 281
f 274 276 277
f 275 277 278
f 275 278 281
f 236 279 273
f 236 273 280
f 236 280 238
f 238 280 292
f 273 281 280
f 280 282 292
f 238 292 254
f 280 281 282
f 281 283 282
f 278 283 281
f 254 292 296
f 282 294 292
f 292 294 296
f 282 283 295
f 282 295 294
f 294 295 298
f 254 296 256
f 294 299 296
f 256 296 297
f 296 299 297
f 256 297 347
f 297 299 301
f 294 298 299
f 298 300 299
f 299 300 301
f 300 372 301
f 311 325 317
f 311 317 320
f 311 320 313
f 313 320 322
f 313 322 314
f 314 322 335
f 317 321 320
f 317 326 321
f 321 326 328
f 320 321 323
f 320 323 322
f 322 323 336
f 321 324 323
f 321 328 324
f 323 324 337
f 241 317 325
f 241 326 317
f 241 242 326
f 242 327 326
f 243 345 327
f 326 327 328
f 327 348 328
f 327 345 348
f 328 348 329
f 324 328 329
f 324 329 338
f 314 335 331
f 322 336 335
f 323 337 336
f 324 338 337
f 345 349 348
f 345 346 349
f 255 346 345
f 256 347 346
f 346 352 349
f 346 347 352
f 347 353 352
f 329 348 350
f 348 349 350
f 349 351 350
f 329 350 363
f 350 351 364
f 349 352 351
f 351 352 354
f 352 353 354
f 351 354 365
f 353 375 354
f 354 375 366
f 329 363 338
f 350 364 363
f 351 365 364
f 354 366 365
f 366 375 387
f 297 370 347
f 297 301 370
f 347 370 353
f 353 370 374
f 370 371 374
f 301 371 370
f 301 372 371
f 371 372 373
f 371 373 381
f 371 381 374
f 353 374 375
f 374 379 375
f 375 379 387
f 373 382 381
f 374 381 379
f 379 383 388
f 381 382 383
f 379 381 383
f 383 384 390
f 382 384 383
f 379 388 387
f 383 390 388
f 384 391 390
f 183 331 186
f 186 331 187
f 187 331 190
f 190 331 191
f 191 331 194
f 194 331 195
f 195 331 198
f 198 331 199
f 199 331 202
f 202 331 203
f 203 331 206
f 206 331 207
f 207 331 210
f 210 331 211
f 264 608 276
f 276 620 277
f 277 620 278
f 278 626 283
f 283 626 295
f 295 643 298
f 298 644 300
f 300 703 372
f 372 705 373
f 373 705 382
f 382 714 384
f 384 714 391
f 337 338 899
f 338 363 901
f 363 364 902
f 364 365 903
f 365 366 904
f 366 387 905
f 331 335 907
f 335 336 912
f 336 337 912
f 387 388 961
f 388 390 961
f 390 391 963
f 211 331 847
f 391 721 964
f 264 416 475
f 490 498 499
f 475 476 609
f 476 477 610
f 477 478 611
f 478 481 666
f 481 482 667
f 482 483 668
f 483 484 669
f 484 486 727
f 486 487 732
f 487 488 734
f 488 489 735
f 489 490 748
f 490 499 748
f 512 515 560
f 515 516 560
f 516 519 560
f 519 520 560
f 523 524 558
f 264 475 608
f 276 608 619
f 276 619 620
f 278 620 623
f 278 623 626
f 295 626 639
f 295 639 643
f 298 643 644
f 300 644 703
f 372 703 705
f 382 705 712
f 382 712 714
f 391 714 721
f 499 500 748
f 500 503 748
f 503 504 748
f 504 507 748
f 520 523 560
f 524 527 558
f 527 528 554
f 528 531 554
f 507 508 748
f 508 511 748
f 511 512 748
f 475 609 608
f 476 610 609
f 477 611 610
f 478 666 611
f 481 667 666
f 482 668 667
f 483 669 668
f 484 727 669
f 486 732 727
f 487 734 732
f 488 735 734
f 489 748 735
f 512 560 748
f 531 532 553
f 532 535 553
f 535 536 553
f 536 539 553
f 539 540 553
f 540 543 553
f 543 544 553
f 544 547 553
f 547 548 553
f 531 553 554
f 527 554 557
f 527 557 558
f 523 558 559
f 548 551 553
f 523 559 560
f 560 565 748
f 565 566 748
f 566 569 748
f 569 570 748
f 570 573 748
f 573 574 748
f 608 609 619
f 609 621 619
f 609 610 621
f 610 624 621
f 610 611 624
f 611 629 624
f 619 621 620
f 620 622 623
f 620 621 622
f 621 624 622
f 622 625 627
f 622 627 623
f 622 624 625
f 624 629 625
f 623 627 626
f 626 627 628
f 627 630 628
f 625 671 630
f 625 629 671
f 625 630 627
f 628 630 641
f 630 671 673
f 630 673 641
f 641 673 695
f 626 628 639
f 639 640 643
f 628 640 639
f 628 641 640
f 640 641 647
f 641 695 647
f 640 645 643
f 643 645 644
f 644 646 703
f 644 645 646
f 640 647 645
f 647 695 696
f 647 696 648
f 645 647 648
f 645 648 646
f 648 696 757
f 611 666 629
f 629 666 670
f 666 667 670
f 667 674 670
f 667 668 674
f 668 676 674
f 668 669 676
f 669 678 676
f 669 727 678
f 629 670 671
f 670 672 671
f 670 674 672
f 672 674 677
f 671 672 673
f 672 675 673
f 673 675 695
f 672 677 675
f 675 680 697
f 674 676 677
f 676 679 677
f 676 678 679
f 675 677 680
f 677 679 680
f 679 729 680
f 675 697 695
f 695 697 696
f 696 697 756
f 680 758 697
f 703 704 705
f 646 704 703
f 646 706 704
f 704 713 705
f 704 707 713
f 646 648 706
f 648 757 706
f 704 706 707
f 706 757 759
f 706 759 707
f 707 759 708
f 707 708 718
f 708 720 718
f 705 713 712
f 712 713 715
f 712 715 714
f 713 718 715
f 714 715 722
f 707 718 713
f 715 718 725
f 714 722 721
f 715 725 722
f 718 720 725
f 678 727 737
f 678 737 728
f 678 728 679
f 680 729 758
f 679 728 729
f 729 763 758
f 728 730 729
f 729 730 763
f 730 731 763
f 730 744 731
f 731 744 747
f 727 732 737
f 732 740 737
f 732 734 740
f 734 742 740
f 734 735 742
f 735 751 742
f 737 740 741
f 728 737 741
f 728 741 730
f 740 743 741
f 740 742 743
f 742 750 743
f 741 743 744
f 730 741 744
f 743 752 744
f 735 748 751
f 742 751 750
f 743 750 752
f 744 752 747
f 696 756 757
f 697 758 756
f 756 762 760
f 756 760 757
f 757 760 759
f 758 763 762
f 756 758 762
f 759 760 761
f 760 765 761
f 760 762 765
f 708 759 761
f 708 761 777
f 761 765 778
f 762 763 764
f 762 764 765
f 731 764 763
f 764 779 765
f 731 780 764
f 708 777 720
f 761 778 777
f 764 780 779
f 731 747 780
f 765 779 778
f 574 577 748
f 577 578 748
f 578 581 748
f 581 582 748
f 582 585 748
f 585 586 748
f 586 589 748
f 589 590 748
f 590 593 748
f 593 594 748
f 594 597 748
f 597 598 748
f 598 601 748
f 601 602 748
f 720 777 1178
f 777 778 1179
f 747 1175 780
f 779 780 1181
f 778 779 1180
f 721 722 1211
f 722 725 1211
f 720 1209 725
f 748 1238 751
f 750 751 1241
f 747 752 1242
f 750 1242 752
f 602 1238 748
f 787 793 795
f 787 795 791
f 820 792 796
f 818 838 1097
f 838 841 1097
f 840 1097 841
f 840 842 1097
f 829 1097 842
f 829 830 1097
f 830 831 1097
f 820 796 1097
f 820 1097 822
f 822 1097 823
f 823 1097 824
f 828 836 1097
f 824 1097 836
f 828 1097 831
f 331 907 847
f 337 899 898
f 337 898 913
f 338 901 899
f 363 902 901
f 364 903 902
f 365 904 903
f 366 905 904
f 387 942 905
f 335 911 907
f 335 912 911
f 337 913 912
f 387 960 942
f 387 961 960
f 390 963 961
f 391 964 963
f 884 885 907
f 884 907 888
f 798 907 800
f 800 907 802
f 802 917 803
f 803 918 805
f 805 921 806
f 798 852 907
f 852 853 907
f 853 858 907
f 858 859 907
f 859 860 907
f 860 861 907
f 880 881 907
f 881 889 907
f 861 880 907
f 888 907 889
f 847 907 849
f 849 907 864
f 864 907 865
f 865 907 868
f 872 877 907
f 872 907 873
f 868 907 869
f 869 907 876
f 876 907 877
f 893 907 896
f 873 907 892
f 892 907 893
f 885 897 907
f 896 907 897
f 802 907 917
f 803 917 918
f 805 918 920
f 805 920 921
f 898 914 913
f 907 911 917
f 911 912 925
f 912 913 926
f 913 914 915
f 913 915 929
f 911 925 917
f 917 925 918
f 918 925 927
f 918 927 920
f 920 927 936
f 920 936 922
f 920 922 921
f 922 936 937
f 912 926 925
f 925 926 927
f 926 929 928
f 926 928 927
f 913 929 926
f 915 930 929
f 929 930 931
f 928 929 932
f 929 931 932
f 927 928 936
f 935 938 936
f 928 935 936
f 928 932 935
f 936 938 937
f 942 960 943
f 943 967 954
f 943 960 967
f 960 961 978
f 961 963 980
f 963 964 981
f 960 978 967
f 954 967 968
f 967 978 970
f 967 969 968
f 967 970 969
f 969 970 971
f 970 974 971
f 971 974 972
f 970 982 974
f 973 974 982
f 972 974 975
f 974 976 975
f 973 976 974
f 973 977 976
f 961 980 978
f 970 978 982
f 963 981 980
f 978 980 982
f 980 981 983
f 980 983 982
f 973 982 983
f 964 1037 981
f 973 1035 977
f 981 1038 983
f 973 983 1039
f 977 1035 1036
f 981 1037 1038
f 983 1038 1039
f 973 1039 1035
f 964 1210 1037
f 1044 1043 1183
f 1047 1046 1186
f 1043 1047 1187
f 1210 1045 1037
f 1210 1046 1045
f 818 1070 1068
f 818 1097 1072
f 818 1072 1070
f 1072 1097 1073
f 1073 1097 1074
f 1074 1097 1078
f 1078 1097 1079
f 1079 1097 1080
f 1080 1097 1081
f 1081 1097 1086
f 1086 1097 1088
f 1088 1097 1089
f 1089 1097 1090
f 1090 1097 1094
f 1094 1097 1104
f 1094 1104 1100
f 1106 1101 1105
f 1102 1101 1106
f 721 1210 964
f 720 1177 1209
f 747 1176 1175
f 747 1242 1176
f 720 1178 1177
f 778 1180 1179
f 777 1179 1178
f 779 1181 1180
f 780 1175 1181
f 602 1123 1238
f 721 1211 1210
f 725 1214 1211
f 725 1209 1214
f 751 1238 1241
f 750 1241 1240
f 750 1240 1242
f 1210 1185 1046
f 1183 1184 1044
f 1185 1186 1046
f 1186 1187 1047
f 1187 1183 1043
f 1108 1110 1127
f 1159 1238 1160
f 1159 1163 1238
f 1110 1112 1248
f 1112 1113 1249
f 1113 1115 1251
f 1115 1116 1252
f 1110 1238 1127
f 1127 1238 1128
f 1128 1238 1131
f 1131 1238 1132
f 1132 1238 1133
f 1133 1238 1134
f 1155 1238 1156
f 1156 1238 1164
f 1134 1238 1155
f 1163 1164 1238
f 1123 1125 1238
f 1125 1139 1238
f 1139 1140 1238
f 1140 1143 1238
f 1147 1238 1152
f 1147 1148 1238
f 1143 1144 1238
f 1144 1151 1238
f 1151 1152 1238
f 1168 1171 1238
f 1148 1167 1238
f 1167 1168 1238
f 1160 1238 1172
f 1171 1172 1238
f 1110 1248 1238
f 1112 1249 1248
f 1113 1251 1249
f 1115 1252 1251
f 1176 1242 1243
f 1177 1271 1209
f 1210 1194 1185
f 1210 1227 1194
f 1220 1193 1192
f 1227 1195 1194
f 1227 1196 1195
f 1229 1192 1196
f 1220 1221 1193
f 1227 1229 1196
f 1220 1192 1229
f 1209 1272 1216
f 1210 1211 1227
f 1211 1214 1228
f 1209 1233 1214
f 1209 1216 1233
f 1216 1217 1233
f 1216 1279 1218
f 1216 1219 1217
f 1216 1218 1219
f 1217 1223 1230
f 1220 1230 1223
f 1220 1223 1222
f 1220 1222 1221
f 1222 1223 1224
f 1223 1226 1224
f 1217 1225 1223
f 1223 1225 1226
f 1217 1219 1225
f 1227 1228 1229
f 1211 1228 1227
f 1228 1233 1230
f 1228 1230 1229
f 1214 1233 1228
f 1217 1230 1233
f 1220 1229 1230
f 1238 1248 1241
f 1240 1241 1255
f 1240 1256 1242
f 1242 1244 1243
f 1242 1259 1244
f 1241 1248 1255
f 1248 1249 1255
f 1249 1257 1255
f 1249 1251 1257
f 1251 1266 1257
f 1251 1253 1266
f 1251 1252 1253
f 1253 1267 1266
f 1240 1255 1256
f 1255 1257 1256
f 1256 1258 1259
f 1256 1257 1258
f 1242 1256 1259
f 1244 1259 1260
f 1259 1261 1260
f 1258 1262 1259
f 1259 1262 1261
f 1257 1266 1258
f 1265 1266 1268
f 1258 1266 1265
f 1258 1265 1262
f 1266 1267 1268
f 1209 1271 1272
f 1216 1272 1279
f 8 9 58
f 1 58 9
f 8 58 12
f 12 58 14
f 13 14 58
f 18 24 19
f 15 19 32
f 18 23 24
f 18 22 23
f 19 24 32
f 13 58 28
f 28 58 82
f 15 32 97
f 32 84 97
f 2 41 58
f 41 45 58
f 45 46 58
f 46 47 58
f 47 48 58
f 1 4 58
f 2 58 4
f 58 92 82
f 15 97 16
f 16 97 60
f 66 97 68
f 66 67 97
f 60 97 61
f 61 97 67
f 68 97 76
f 76 97 101
f 97 105 101
f 82 91 83
f 83 90 89
f 83 91 90
f 83 88 84
f 84 87 96
f 84 96 93
f 84 93 94
f 83 85 86
f 83 86 88
f 84 88 87
f 83 89 85
f 82 92 91
f 84 94 95
f 84 95 97
f 48 416 58
f 48 400 416
f 400 402 416
f 403 404 416
f 402 403 416
f 404 406 416
f 406 417 416
f 416 417 419
f 416 419 420
f 416 447 475
f 416 420 424
f 416 424 425
f 416 425 428
f 416 428 429
f 416 429 430
f 438 440 448
f 438 448 439
f 416 430 447
f 447 479 475
f 434 435 490
f 434 490 440
f 440 490 448
f 448 490 485
f 431 432 490
f 432 452 490
f 457 458 490
f 457 490 459
f 452 453 490
f 453 459 490
f 458 466 490
f 466 491 498
f 431 490 435
f 466 498 490
f 475 479 476
f 476 479 477
f 477 479 478
f 478 479 481
f 479 482 481
f 479 483 482
f 479 480 483
f 480 484 483
f 480 486 484
f 480 487 486
f 480 485 489
f 480 488 487
f 480 489 488
f 485 490 489
f 812 818 1062
f 818 1068 1062
f 793 794 1096
f 793 1096 795
f 1096 796 795
f 1096 1097 796
f 806 1001 811
f 898 899 900
f 899 901 900
f 900 901 902
f 900 902 903
f 900 903 904
f 900 904 905
f 806 921 1001
f 898 900 914
f 900 905 942
f 900 953 914
f 900 942 953
f 914 1011 915
f 915 1011 930
f 930 1011 931
f 932 1011 935
f 931 1011 932
f 914 953 1007
f 914 1008 1010
f 914 1007 1008
f 942 1012 953
f 942 1014 1012
f 942 943 1019
f 943 954 1019
f 942 1015 1014
f 954 968 1019
f 968 969 1019
f 921 922 1002
f 921 1002 1001
f 922 937 1004
f 937 938 1004
f 935 998 938
f 935 1011 999
f 922 1003 1002
f 922 1004 1003
f 938 998 1004
f 935 999 998
f 914 1010 1011
f 942 1017 1015
f 942 1019 1017
f 969 971 1019
f 971 972 1030
f 972 975 1031
f 975 976 1031
f 976 977 1033
f 971 1021 1019
f 971 1030 1021
f 972 1031 1030
f 976 1032 1031
f 976 1033 1032
f 977 1036 1033
f 1033 1036 1055
f 1058 1044 1184
f 1096 1104 1097
f 1096 1105 1104
f 1096 1106 1105
f 1096 1107 1106
f 1184 1202 1058
f 1116 1122 1252
f 1177 1178 1182
f 1175 1182 1181
f 1179 1180 1182
f 1178 1179 1182
f 1180 1181 1182
f 1175 1176 1182
f 1122 1320 1252
f 1177 1182 1271
f 1176 1243 1182
f 1182 1290 1271
f 1182 1243 1290
f 1221 1206 1193
f 1221 1303 1206
f 1219 1328 1225
f 1244 1260 1318
f 1243 1244 1318
f 1260 1261 1318
f 1261 1262 1318
f 1271 1328 1272
f 1272 1328 1279
f 1218 1279 1328
f 1218 1328 1219
f 1271 1326 1329
f 1271 1290 1325
f 1271 1325 1326
f 1243 1333 1290
f 1243 1335 1334
f 1243 1334 1333
f 1222 1224 1306
f 1221 1222 1304
f 1224 1226 1306
f 1225 1293 1226
f 1221 1304 1303
f 1222 1305 1304
f 1226 1293 1306
f 1222 1306 1305
f 1225 1294 1293
f 1252 1320 1253
f 1253 1320 1321
f 1265 1268 1323
f 1253 1322 1267
f 1267 1322 1268
f 1262 1265 1318
f 1243 1318 1337
f 1253 1321 1322
f 1265 1323 1317
f 1268 1322 1323
f 1265 1317 1318
f 1271 1329 1328
f 1225 1328 1294
f 1243 1337 1335
f 1062 1068 1063
f 1063 1068 1064
f 1064 1068 1065
f 1065 1068 1066
f 1066 1068 1067
f 1067 1068 1069
f 1068 1071 1069
f 1068 1070 1071
f 1070 1072 1075
f 1070 1075 1071
f 1072 1073 1076
f 1073 1074 1077
f 1074 1078 1082
f 1072 1076 1075
f 1073 1077 1076
f 1074 1082 1077
f 1078 1079 1083
f 1079 1080 1084
f 1080 1081 1085
f 1081 1086 1087
f 1078 1083 1082
f 1079 1084 1083
f 1080 1085 1084
f 1081 1087 1085
f 1086 1088 1091
f 1088 1089 1092
f 1089 1090 1093
f 1086 1091 1087
f 1088 1092 1091
f 1089 1093 1092
f 1090 1095 1093
f 1090 1094 1095
f 1094 1103 1095
f 1094 1100 1103
f 1103 1100 1101
f 1102 1103 1101
f 787 821 788
f 787 791 821
f 821 791 792
f 820 821 792
f 812 813 818
f 813 814 818
f 814 815 818
f 815 816 818
f 816 817 818
f 817 819 818
f 818 819 838
f 820 825 821
f 819 839 838
f 820 822 825
f 822 823 826
f 823 824 827
f 824 836 837
f 822 826 825
f 823 827 826
f 824 837 827
f 828 832 836
f 830 834 831
f 829 833 830
f 828 831 835
f 832 837 836
f 828 835 832
f 830 833 834
f 831 834 835
f 838 839 841
f 839 844 841
f 840 843 842
f 840 841 844
f 829 842 845
f 840 844 843
f 842 843 845
f 829 845 833
f 98 99 105
f 99 100 105
f 100 101 105
f 98 105 102
f 102 105 103
f 103 105 104
f 104 105 106
f 105 108 106
f 106 108 107
f 107 108 109
f 107 109 110
f 110 112 111
f 109 112 110
f 111 112 113
f 111 113 114
f 113 116 114
f 114 116 115
f 115 116 117
f 115 117 118
f 117 120 118
f 118 120 119
f 119 121 122
f 119 120 121
f 122 124 123
f 121 124 122
f 123 124 125
f 123 125 126
f 125 128 126
f 126 128 127
f 127 128 129
f 127 129 130
f 130 132 131
f 129 132 130
f 131 132 133
f 131 133 134
f 133 136 134
f 134 136 135
f 135 136 137
f 135 137 138
f 137 140 138
f 138 140 139
f 139 140 141
f 139 141 142
f 142 144 143
f 141 144 142
f 143 144 145
f 143 145 146
f 145 148 146
f 146 148 147
f 147 148 149
f 147 149 150
f 149 152 150
f 150 152 151
f 151 152 153
f 151 153 154
f 153 156 154
f 154 156 155
f 155 156 157
f 155 157 158
f 157 159 158
f 158 159 160
f 159 162 160
f 160 162 161
f 161 163 164
f 161 162 163
f 164 168 165
f 165 169 166
f 163 168 164
f 165 168 169
f 166 170 167
f 166 169 170
f 167 170 171
f 167 171 172
f 171 174 172
f 172 174 173
f 173 175 176
f 173 174 175
f 175 178 176
f 176 178 177
f 177 179 180
f 177 178 179
f 179 182 180
f 180 182 181
f 181 182 183
f 181 183 184
f 183 186 184
f 184 186 185
f 185 187 188
f 185 186 187
f 187 190 188
f 188 190 189
f 189 191 192
f 189 190 191
f 191 194 192
f 192 194 193
f 193 194 195
f 193 195 196
f 195 198 196
f 196 198 197
f 197 198 199
f 197 199 200
f 200 202 201
f 199 202 200
f 201 202 203
f 201 203 204
f 203 206 204
f 204 206 205
f 205 206 207
f 205 207 208
f 207 210 208
f 208 210 209
f 209 210 211
f 209 211 846
f 787 788 793
f 788 794 793
f 797 798 799
f 798 800 799
f 799 800 801
f 800 802 801
f 801 802 804
f 802 803 804
f 804 805 807
f 803 805 804
f 805 806 807
f 806 808 807
f 806 809 808
f 806 810 809
f 806 811 810
f 211 847 846
f 846 847 848
f 847 849 848
f 848 849 862
f 849 864 862
f 797 852 798
f 797 850 852
f 850 851 853
f 850 853 852
f 851 858 853
f 851 854 858
f 854 855 859
f 854 859 858
f 855 860 859
f 855 856 860
f 856 857 861
f 856 861 860
f 863 865 866
f 865 868 866
f 862 864 863
f 863 864 865
f 866 868 867
f 867 868 869
f 867 869 874
f 870 872 871
f 871 872 873
f 869 876 874
f 874 876 875
f 875 876 877
f 870 875 877
f 870 877 872
f 857 878 880
f 878 881 880
f 879 887 889
f 878 879 881
f 879 889 881
f 882 884 886
f 883 895 897
f 883 897 885
f 882 883 885
f 882 885 884
f 886 888 887
f 887 888 889
f 884 888 886
f 871 873 890
f 873 892 890
f 890 892 891
f 891 892 893
f 891 893 894
f 893 896 894
f 894 896 895
f 895 896 897
f 857 880 861
f 491 492 498
f 492 493 498
f 493 494 498
f 494 495 498
f 495 496 498
f 496 497 498
f 497 499 498
f 497 501 499
f 499 501 500
f 500 501 502
f 500 502 503
f 503 505 504
f 502 505 503
f 504 505 506
f 504 506 507
f 506 509 507
f 507 509 508
f 508 509 510
f 508 510 511
f 510 513 511
f 511 513 512
f 512 514 515
f 512 513 514
f 515 517 516
f 514 517 515
f 516 517 518
f 516 518 519
f 518 521 519
f 519 521 520
f 520 521 522
f 520 522 523
f 523 525 524
f 522 525 523
f 524 525 526
f 524 526 527
f 526 529 527
f 527 529 528
f 528 529 530
f 528 530 531
f 530 533 531
f 531 533 532
f 532 533 534
f 532 534 535
f 535 537 536
f 534 537 535
f 536 537 538
f 536 538 539
f 538 541 539
f 539 541 540
f 540 541 542
f 540 542 543
f 542 545 543
f 543 545 544
f 544 545 546
f 544 546 547
f 546 549 547
f 547 549 548
f 548 549 550
f 548 550 551
f 550 552 551
f 551 552 555
f 551 555 553
f 553 555 554
f 554 556 557
f 554 555 556
f 557 561 558
f 558 562 559
f 556 561 557
f 558 561 562
f 559 563 560
f 559 562 563
f 560 563 564
f 560 564 565
f 564 567 565
f 565 567 566
f 566 568 569
f 566 567 568
f 568 571 569
f 569 571 570
f 570 572 573
f 570 571 572
f 572 575 573
f 573 575 574
f 574 575 576
f 574 576 577
f 576 579 577
f 577 579 578
f 578 580 581
f 578 579 580
f 580 583 581
f 581 583 582
f 582 584 585
f 582 583 584
f 584 587 585
f 585 587 586
f 586 587 588
f 586 588 589
f 588 591 589
f 589 591 590
f 590 591 592
f 590 592 593
f 593 595 594
f 592 595 593
f 594 595 596
f 594 596 597
f 596 599 597
f 597 599 598
f 598 599 600
f 598 600 601
f 600 603 601
f 601 603 602
f 602 603 604
f 602 604 1123
f 1102 1107 1103
f 1102 1106 1107
f 1108 1109 1110
f 1109 1111 1110
f 1110 1111 1112
f 1112 1114 1113
f 1111 1114 1112
f 1113 1114 1117
f 1113 1117 1115
f 1115 1117 1118
f 1115 1121 1116
f 1115 1118 1119
f 1115 1119 1120
f 1115 1120 1121
f 1116 1121 1122
f 604 1124 1123
f 1123 1124 1125
f 1124 1126 1125
f 1125 1126 1139
f 1126 1141 1139
f 1108 1129 1109
f 1108 1127 1129
f 1127 1128 1130
f 1127 1130 1129
f 1128 1135 1130
f 1128 1131 1135
f 1131 1132 1136
f 1131 1136 1135
f 1132 1137 1136
f 1132 1133 1137
f 1133 1134 1138
f 1133 1138 1137
f 1140 1142 1143
f 1142 1145 1143
f 1139 1141 1140
f 1140 1141 1142
f 1143 1145 1144
f 1144 1145 1146
f 1144 1146 1151
f 1147 1149 1148
f 1148 1149 1150
f 1146 1153 1151
f 1151 1153 1152
f 1152 1153 1154
f 1147 1152 1154
f 1147 1154 1149
f 1134 1155 1157
f 1155 1158 1157
f 1156 1164 1166
f 1155 1156 1158
f 1156 1166 1158
f 1159 1161 1163
f 1160 1172 1174
f 1160 1174 1162
f 1159 1160 1162
f 1159 1162 1161
f 1163 1165 1164
f 1164 1165 1166
f 1161 1165 1163
f 1148 1150 1167
f 1150 1169 1167
f 1167 1169 1168
f 1168 1169 1170
f 1168 1170 1171
f 1170 1173 1171
f 1171 1173 1172
f 1172 1173 1174
f 1134 1157 1138
f 1098 1099 1100
f 1099 1101 1100
f 1099 1105 1101
f 1098 1100 1185
f 1098 1194 1099
f 1100 1104 1184
f 1099 1205 1105
f 1200 1104 1105
f 1098 1185 1194
f 1185 1100 1186
f 1100 1187 1186
f 1099 1194 1196
f 1099 1196 1192
f 1099 1192 1193
f 1187 1100 1183
f 1100 1184 1183
f 1099 1193 1206
f 1099 1206 1205
f 1104 1202 1184
f 1200 1202 1104
f 1200 1105 1205
f 1194 1195 1196
f 789 790 791
f 790 792 791
f 790 796 792
f 789 791 1037
f 789 1045 790
f 791 795 1036
f 790 1057 796
f 1054 795 796
f 789 1037 1045
f 1037 791 1038
f 1038 791 1039
f 790 1045 1046
f 790 1046 1047
f 790 1047 1043
f 790 1043 1044
f 791 1035 1039
f 791 1036 1035
f 790 1044 1058
f 790 1058 1057
f 1036 795 1055
f 1054 1055 795
f 1054 796 1057

